<svg id="_24-7" data-name="24-7" xmlns="http://www.w3.org/2000/svg" width="60" height="60" viewBox="0 0 60 60">
  <path id="Path_3185" data-name="Path 3185" d="M83.175,0A22.968,22.968,0,0,0,60.234,22.941V44.117a5.294,5.294,0,1,0,10.589,0V26.471a5.3,5.3,0,0,0-5.294-5.294,5.236,5.236,0,0,0-1.691.3,19.392,19.392,0,0,1,38.675-.014,5.2,5.2,0,0,0-1.69-.287,5.3,5.3,0,0,0-5.294,5.294V44.117a5.3,5.3,0,0,0,5.294,5.294,5.233,5.233,0,0,0,1.765-.325v2.09a1.767,1.767,0,0,1-1.765,1.765H88.144a5.294,5.294,0,1,0,0,3.529h12.678a5.3,5.3,0,0,0,5.294-5.294V22.941A22.968,22.968,0,0,0,83.175,0Zm0,0" transform="translate(-53.175)" fill="#214c85"/>
  <path id="Path_3186" data-name="Path 3186" d="M481.883,213.6v20.526a5.285,5.285,0,0,0,3.529-4.969V218.567a5.286,5.286,0,0,0-3.529-4.969Zm0,0" transform="translate(-425.412 -188.567)" fill="#214c85"/>
  <path id="Path_3187" data-name="Path 3187" d="M0,218.567v10.588a5.285,5.285,0,0,0,3.529,4.969V213.6A5.286,5.286,0,0,0,0,218.567Zm0,0" transform="translate(0 -188.567)" fill="#214c85"/>
</svg>
