<svg xmlns="http://www.w3.org/2000/svg" width="120" height="120" viewBox="0 0 120 120">
  <path id="affiliate" d="M107.5,95a12.406,12.406,0,0,0-4.545.885L87.99,80.925a34.736,34.736,0,0,0,0-41.85l14.965-14.96A12.483,12.483,0,1,0,95,12.5a12.406,12.406,0,0,0,.885,4.545L80.92,32.01a34.731,34.731,0,0,0-41.84,0L24.115,17.045A12.483,12.483,0,1,0,12.5,25a12.406,12.406,0,0,0,4.545-.885L32.01,39.08a34.728,34.728,0,0,0,0,41.845L17.045,95.89A12.307,12.307,0,0,0,12.5,95a12.594,12.594,0,1,0,11.615,7.955L39.08,87.99a34.731,34.731,0,0,0,41.84,0L95.885,102.96A12.359,12.359,0,0,0,95,107.5,12.5,12.5,0,1,0,107.5,95ZM60,35A10,10,0,1,1,50,45,10,10,0,0,1,60,35ZM43.75,80A3.751,3.751,0,0,1,40,76.25v-2.5A13.761,13.761,0,0,1,53.75,60h12.5A13.761,13.761,0,0,1,80,73.75v2.5A3.751,3.751,0,0,1,76.25,80Z" fill="#214c85"/>
</svg>
