<svg xmlns="http://www.w3.org/2000/svg" width="60" height="49.217" viewBox="0 0 60 49.217">
  <g id="agile" transform="translate(0 -46.007)">
    <path id="Path_3188" data-name="Path 3188" d="M313.687,321.28h-7.141a23,23,0,0,1-7.1,7.033h14.245v5.272l10.664-8.787-10.664-8.789Z" transform="translate(-264.351 -238.36)" fill="#214c85"/>
    <path id="Path_3189" data-name="Path 3189" d="M23.1,89.946a19.328,19.328,0,0,0,1.624-38.577V46.007L14.18,54.8l10.547,8.787V58.489a12.277,12.277,0,0,1-1.758,24.432H0v7.031H23.11Z" transform="translate(0 0)" fill="#214c85"/>
    <path id="Path_3190" data-name="Path 3190" d="M41.752,155.346a12.225,12.225,0,0,1,1.378-18.715l-5.524-4.6a19.134,19.134,0,0,0-4.433,23.318Z" transform="translate(-27.367 -75.94)" fill="#214c85"/>
  </g>
</svg>
