<svg xmlns="http://www.w3.org/2000/svg" width="90" height="120" viewBox="0 0 90 120">
  <g id="auth" transform="translate(-64)">
    <g id="Group_1912" data-name="Group 1912" transform="translate(64)">
      <path id="Path_3191" data-name="Path 3191" d="M151.5,45H144V35a35,35,0,0,0-70,0V45H66.5A2.5,2.5,0,0,0,64,47.5V110a10.01,10.01,0,0,0,10,10h70a10.01,10.01,0,0,0,10-10V47.5A2.5,2.5,0,0,0,151.5,45ZM116.485,97.224A2.5,2.5,0,0,1,114,100H104a2.5,2.5,0,0,1-2.485-2.776l1.577-14.182A9.891,9.891,0,0,1,99,75a10,10,0,0,1,20,0,9.891,9.891,0,0,1-4.092,8.042ZM129,45H89V35a20,20,0,0,1,40,0Z" transform="translate(-64)" fill="#214c85"/>
    </g>
  </g>
</svg>
