<svg xmlns="http://www.w3.org/2000/svg" xmlns:xlink="http://www.w3.org/1999/xlink" width="120" height="108.694" viewBox="0 0 120 108.694">
  <defs>
    <linearGradient id="linear-gradient" y1="0.5" x2="1" y2="0.5" gradientUnits="objectBoundingBox">
      <stop offset="0" stop-color="#bd24ff"/>
      <stop offset="1" stop-color="#612ce8"/>
    </linearGradient>
    <linearGradient id="linear-gradient-3" y1="0.5" x2="1" y2="0.5" gradientUnits="objectBoundingBox">
      <stop offset="0" stop-color="#37f3fa"/>
      <stop offset="1" stop-color="#0098ff"/>
    </linearGradient>
    <linearGradient id="linear-gradient-4" y1="0.5" x2="1" y2="0.5" gradientUnits="objectBoundingBox">
      <stop offset="0" stop-color="#38f8ff"/>
      <stop offset="1" stop-color="#0098ff"/>
    </linearGradient>
    <linearGradient id="linear-gradient-5" x1="0" y1="0.5" x2="1.089" y2="0.5" xlink:href="#linear-gradient-3"/>
  </defs>
  <g id="Group_1867" data-name="Group 1867" transform="translate(-1713.671 144.622)">
    <g id="Group_1865" data-name="Group 1865" transform="translate(1713.671 -58.739)">
      <g id="Group_1864" data-name="Group 1864" transform="translate(0 1.931)">
        <path id="Path_3147" data-name="Path 3147" d="M1715.013,82.029h1.018l1.916,4.59,2-4.59h1.018l1.212,7.22h-1.429L1720.1,84.8l-1.938,4.449h-.476l-1.851-4.449-.736,4.449h-1.429Z" transform="translate(-1713.671 -82.029)" fill="#525760"/>
        <path id="Path_3148" data-name="Path 3148" d="M1739.1,92.551l-2.23-3.984h1.537l1.451,2.663,1.3-2.663h1.494l-3.778,7.166h-1.494Z" transform="translate(-1727.879 -86.034)" fill="#525760"/>
      </g>
      <path id="Path_3149" data-name="Path 3149" d="M1767.606,81.958a8.06,8.06,0,0,1,5,1.289,5.326,5.326,0,0,1,1.9,4.237,4.373,4.373,0,0,1-2.3,4.022,4.812,4.812,0,0,1,2.671,1.29,5.222,5.222,0,0,1,1.473,3.837,5.473,5.473,0,0,1-1.75,4.144,7.514,7.514,0,0,1-5.188,1.658h-6.877V81.958Zm-1.074,8.5h1.136c.614,0,3.1-.061,3.1-2.671,0-1.873-1.443-2.579-3.07-2.579h-1.167Zm0,8.719h1.719a5.449,5.449,0,0,0,2.732-.552,2.639,2.639,0,0,0,1.259-2.364,2.451,2.451,0,0,0-1.5-2.334,6.508,6.508,0,0,0-2.732-.4h-1.473Z" transform="translate(-1743.607 -80.054)" fill="#525760"/>
      <path id="Path_3150" data-name="Path 3150" d="M1807.57,80.215a2.241,2.241,0,1,1-2.241,2.241A2.254,2.254,0,0,1,1807.57,80.215Z" transform="translate(-1769.817 -78.987)" fill="#049fff"/>
      <rect id="Rectangle_247" data-name="Rectangle 247" width="3.745" height="13.293" transform="translate(35.881 9.087)" fill="#525760"/>
      <path id="Path_3151" data-name="Path 3151" d="M1828.064,110.6h7.031v3.193h-13.6l7.552-10.1h-6.386V100.5h12.956Z" transform="translate(-1779.719 -91.413)" fill="#525760"/>
      <path id="Path_3152" data-name="Path 3152" d="M1868.908,81.958V99h6.324v3.439h-10.315V81.958Z" transform="translate(-1806.318 -80.054)" fill="#525760"/>
      <path id="Path_3153" data-name="Path 3153" d="M1908.49,101.263a7.162,7.162,0,0,1,0,10.407,8.643,8.643,0,0,1-10.746,0,7.162,7.162,0,0,1,0-10.407,8.643,8.643,0,0,1,10.746,0Zm-1.627,5.219a3.745,3.745,0,1,0-3.745,3.745A3.709,3.709,0,0,0,1906.862,106.482Z" transform="translate(-1825.054 -90.733)" fill="#525760"/>
      <path id="Path_3154" data-name="Path 3154" d="M1951.379,99.82h3.745v13.293h-3.745v-1.719a4.768,4.768,0,0,1-4.083,2.149c-4.083,0-6.785-3.193-6.785-7.092,0-3.93,2.671-7.061,6.6-7.061a4.816,4.816,0,0,1,4.268,2.149Zm-7,6.631a3.685,3.685,0,1,0,3.684-3.745A3.64,3.64,0,0,0,1944.379,106.451Z" transform="translate(-1852.624 -90.733)" fill="#525760"/>
      <path id="Path_3155" data-name="Path 3155" d="M1996.545,77.045h3.746V99.426h-3.746V97.706a4.768,4.768,0,0,1-4.083,2.149c-4.083,0-6.785-3.193-6.785-7.092,0-3.93,2.671-7.061,6.6-7.061a4.816,4.816,0,0,1,4.268,2.149Zm-7,15.718a3.685,3.685,0,1,0,3.684-3.745A3.64,3.64,0,0,0,1989.545,92.763Z" transform="translate(-1880.291 -77.045)" fill="#525760"/>
    </g>
    <g id="Group_1866" data-name="Group 1866" transform="translate(1747.627 -144.622)">
      <path id="Path_3156" data-name="Path 3156" d="M1851.849-84.052h1.92V-88.04a3.113,3.113,0,0,0-4.283-2.886l-45.626,18.5a3.113,3.113,0,0,0-1.944,2.885v9.167l49.933-20.156Z" transform="translate(-1801.682 111.871)" fill="url(#linear-gradient)"/>
      <path id="Path_3157" data-name="Path 3157" d="M1801.916-31.807v15.049a3.113,3.113,0,0,0,4.283,2.885l45.626-18.5a2.993,2.993,0,0,0,1.943-2.886V-52.738Z" transform="translate(-1801.682 88.338)" fill="url(#linear-gradient)"/>
      <path id="Path_3158" data-name="Path 3158" d="M1853.4-69.254c0-.7-.018-2.447-.018-2.447l0,0c.01-.111.021-.221.021-.335v-14.03l-52.087-21.026v17.075a3.767,3.767,0,0,0,2.357,3.494l44.445,17.937c5.118,1.545,1.115,3.758-1.148,4.748,1.1-.44,2.747-1.1,4.335-1.746C1853.532-66.486,1853.4-67.852,1853.4-69.254Z" transform="translate(-1801.312 121.631)" fill="url(#linear-gradient-3)"/>
      <path id="Path_3159" data-name="Path 3159" d="M1917.115,4.55l-1.284.513S1916.382,4.87,1917.115,4.55Z" transform="translate(-1871.462 53.245)" fill="url(#linear-gradient-4)"/>
      <path id="Path_3160" data-name="Path 3160" d="M1852.872-114.3a3.983,3.983,0,0,0,.525-2.576c0-.7-.018-2.447-.018-2.447l0,0c.01-.111.021-.221.021-.335v-3.237a3.767,3.767,0,0,0-2.356-3.469l-44.552-17.98a3.767,3.767,0,0,0-5.177,3.494v5.735l48.208,19.46c2.815,1.482-.55,3.318-2.555,4.2,1.1-.44,2.747-1.1,4.335-1.746a3.56,3.56,0,0,0,1.573-1.1" transform="translate(-1801.312 144.622)" fill="url(#linear-gradient-5)"/>
    </g>
  </g>
</svg>
