<svg xmlns="http://www.w3.org/2000/svg" width="120" height="105.696" viewBox="0 0 120 105.696">
  <g id="brand-market" transform="translate(0 -30.399)">
    <path id="XMLID_864_" d="M92.22,154.073A9.625,9.625,0,1,0,104.7,166.557H92.22Z" transform="translate(-65.861 -94.576)" fill="#214c85"/>
    <path id="XMLID_865_" d="M189.989,106.118v5.426h5.426A9.68,9.68,0,0,0,189.989,106.118Z" transform="translate(-145.289 -57.904)" fill="#214c85"/>
    <path id="XMLID_877_" d="M120,342.512V326.635H63.533v4.626H56.475v-4.626H0v15.877Z" transform="translate(0 -226.538)" fill="#214c85"/>
    <path id="XMLID_884_" d="M120,93.039V30.4H0v62.64ZM96.707,48.015V42.964h7.058v5.051Zm7.058,5.85v9.892H96.707V53.865Zm-21.175-5.85V42.964h7.058v5.051Zm7.058,5.85v9.892H82.591V53.865Zm-14.117-10.9v5.051H68.474V42.964ZM46.572,68.452A16.684,16.684,0,1,1,29.888,51.768h3.529V64.923H46.572ZM57.855,60.7H37.642V40.486h3.529A16.7,16.7,0,0,1,57.855,57.169Zm10.619-6.834h7.058v9.892H68.474ZM91.829,83.579l-8.64-4.92L73.824,84.3l-3.641-6.047L83.09,70.48l8.3,4.727,9.96-7.147,4.115,5.735Z" fill="#214c85"/>
    <path id="XMLID_894_" d="M124.286,424.115v6H89.014v7.058h78.114v-7.058H131.344v-6Z" transform="translate(-68.071 -301.083)" fill="#214c85"/>
  </g>
</svg>
