<svg xmlns="http://www.w3.org/2000/svg" width="120" height="115.752" viewBox="0 0 120 115.752">
  <g id="digi-mark" transform="translate(-239.502 -12)">
    <g id="Group_35" data-name="Group 35" transform="translate(239.502 12)">
      <rect id="Rectangle_28" data-name="Rectangle 28" width="35.22" height="28.673" transform="translate(42.921 83.894)" fill="#214c85"/>
      <rect id="Rectangle_29" data-name="Rectangle 29" width="6.372" height="59.469" transform="translate(90.266 109.381) rotate(90)" fill="#214c85"/>
      <path id="Subtraction_1" data-name="Subtraction 1" d="M116,91.328H4a4,4,0,0,1-4-4V4A4,4,0,0,1,4,0H116a4,4,0,0,1,4,4V87.328A4,4,0,0,1,116,91.328ZM13.558,8.5a4,4,0,0,0-4,4V77.77a4.005,4.005,0,0,0,4,4h92.885a4,4,0,0,0,4-4V12.5a4,4,0,0,0-4-4Z" transform="translate(0 0)" fill="#214c85"/>
    </g>
    <path id="Polygon_2" data-name="Polygon 2" d="M17.419,0,34.838,30.343H0Z" transform="translate(315.357 40.095) rotate(90)" fill="#214c85"/>
  </g>
</svg>
