<svg xmlns="http://www.w3.org/2000/svg" width="98.917" height="120" viewBox="0 0 98.917 120">
  <g id="manage-service" transform="translate(2976.878 6089.247)">
    <g id="Group_1898" data-name="Group 1898" transform="translate(-2934.365 -6089.247)">
      <g id="Group_1891" data-name="Group 1891" transform="translate(0 10.764)">
        <g id="Group_1890" data-name="Group 1890">
          <path id="Path_3180" data-name="Path 3180" d="M145.86,234.815h-4.972a4.064,4.064,0,0,0-4.059,4.059v8.219a.812.812,0,0,0,.812.812h11.467a.812.812,0,0,0,.812-.812v-8.219A4.064,4.064,0,0,0,145.86,234.815Z" transform="translate(-136.829 -234.815)" fill="#214c85"/>
        </g>
      </g>
      <g id="Group_1893" data-name="Group 1893" transform="translate(1.663)">
        <g id="Group_1892" data-name="Group 1892" transform="translate(0 0)">
          <path id="Path_3181" data-name="Path 3181" d="M172,38.84a4.881,4.881,0,1,0,4.882,4.882A4.887,4.887,0,0,0,172,38.84Z" transform="translate(-167.114 -38.84)" fill="#214c85"/>
        </g>
      </g>
    </g>
    <g id="Group_1899" data-name="Group 1899" transform="translate(-2938.382 -6009.2)">
      <g id="Group_1891-2" data-name="Group 1891" transform="translate(0 18.028)">
        <g id="Group_1890-2" data-name="Group 1890">
          <path id="Path_3180-2" data-name="Path 3180" d="M151.955,234.815h-8.327a6.807,6.807,0,0,0-6.8,6.8v13.766a1.36,1.36,0,0,0,1.36,1.36h19.206a1.36,1.36,0,0,0,1.36-1.36V241.614A6.807,6.807,0,0,0,151.955,234.815Z" transform="translate(-136.829 -234.815)" fill="#214c85"/>
        </g>
      </g>
      <g id="Group_1893-2" data-name="Group 1893" transform="translate(2.786)">
        <g id="Group_1892-2" data-name="Group 1892" transform="translate(0 0)">
          <path id="Path_3181-2" data-name="Path 3181" d="M175.291,38.84a8.175,8.175,0,1,0,8.177,8.177A8.186,8.186,0,0,0,175.291,38.84Z" transform="translate(-167.114 -38.84)" fill="#214c85"/>
        </g>
      </g>
    </g>
    <g id="Group_1900" data-name="Group 1900" transform="translate(-2976.878 -6009.2)">
      <g id="Group_1891-3" data-name="Group 1891" transform="translate(0 18.028)">
        <g id="Group_1890-3" data-name="Group 1890">
          <path id="Path_3180-3" data-name="Path 3180" d="M151.955,234.815h-8.327a6.807,6.807,0,0,0-6.8,6.8v13.766a1.36,1.36,0,0,0,1.36,1.36h19.206a1.36,1.36,0,0,0,1.36-1.36V241.614A6.807,6.807,0,0,0,151.955,234.815Z" transform="translate(-136.829 -234.815)" fill="#214c85"/>
        </g>
      </g>
      <g id="Group_1893-3" data-name="Group 1893" transform="translate(2.786)">
        <g id="Group_1892-3" data-name="Group 1892" transform="translate(0 0)">
          <path id="Path_3181-3" data-name="Path 3181" d="M175.291,38.84a8.175,8.175,0,1,0,8.177,8.177A8.186,8.186,0,0,0,175.291,38.84Z" transform="translate(-167.114 -38.84)" fill="#214c85"/>
        </g>
      </g>
    </g>
    <g id="Group_1901" data-name="Group 1901" transform="translate(-2899.886 -6009.2)">
      <g id="Group_1891-4" data-name="Group 1891" transform="translate(0 18.028)">
        <g id="Group_1890-4" data-name="Group 1890">
          <path id="Path_3180-4" data-name="Path 3180" d="M151.955,234.815h-8.327a6.807,6.807,0,0,0-6.8,6.8v13.766a1.36,1.36,0,0,0,1.36,1.36h19.206a1.36,1.36,0,0,0,1.36-1.36V241.614A6.807,6.807,0,0,0,151.955,234.815Z" transform="translate(-136.829 -234.815)" fill="#214c85"/>
        </g>
      </g>
      <g id="Group_1893-4" data-name="Group 1893" transform="translate(2.786)">
        <g id="Group_1892-4" data-name="Group 1892" transform="translate(0 0)">
          <path id="Path_3181-4" data-name="Path 3181" d="M175.291,38.84a8.175,8.175,0,1,0,8.177,8.177A8.186,8.186,0,0,0,175.291,38.84Z" transform="translate(-167.114 -38.84)" fill="#214c85"/>
        </g>
      </g>
    </g>
    <line id="Line_27" data-name="Line 27" y2="22.313" transform="translate(-2927.738 -6057.601)" fill="none" stroke="#214c85" stroke-linecap="round" stroke-width="5"/>
    <line id="Line_28" data-name="Line 28" x1="76.251" transform="translate(-2965.493 -6035.105)" fill="none" stroke="#214c85" stroke-linecap="round" stroke-width="5"/>
    <line id="Line_29" data-name="Line 29" y1="17.241" transform="translate(-2889.242 -6035.105)" fill="none" stroke="#214c85" stroke-linecap="round" stroke-width="5"/>
    <line id="Line_30" data-name="Line 30" y1="17.241" transform="translate(-2927.738 -6035.105)" fill="none" stroke="#214c85" stroke-linecap="round" stroke-width="5"/>
    <line id="Line_31" data-name="Line 31" y1="17.241" transform="translate(-2965.493 -6035.105)" fill="none" stroke="#214c85" stroke-linecap="round" stroke-width="5"/>
  </g>
</svg>
