<svg id="multi-design" xmlns="http://www.w3.org/2000/svg" width="120" height="120" viewBox="0 0 120 120">
  <path id="Path_2845" data-name="Path 2845" d="M308.344,346a2.344,2.344,0,1,0,2.344,2.344A2.345,2.345,0,0,0,308.344,346Zm0,0" transform="translate(-234.281 -264.906)" fill="#214c85"/>
  <path id="Path_2846" data-name="Path 2846" d="M108.281,0H11.719A11.732,11.732,0,0,0,0,11.719V83.438A11.732,11.732,0,0,0,11.719,95.156H48.281v10.781H45.938a11.722,11.722,0,0,0-11.719,11.719A2.344,2.344,0,0,0,36.563,120H83.438a2.344,2.344,0,0,0,2.344-2.344,11.732,11.732,0,0,0-11.719-11.719H71.719V95.156h36.563A11.732,11.732,0,0,0,120,83.438V11.719A11.732,11.732,0,0,0,108.281,0ZM11.719,4.688h96.563a7.039,7.039,0,0,1,7.031,7.031v60H104.531V17.813a2.344,2.344,0,0,0-2.344-2.344H83.438a2.344,2.344,0,0,0-2.344,2.344V71.719H69.362c-.025-2.424-.088-4.814-.189-7.132a150.753,150.753,0,0,0-1.831-18.752,11.72,11.72,0,0,0,3.2-15.287l-8.123-14.07a2.344,2.344,0,0,0-4.059,0L50.232,30.549a11.718,11.718,0,0,0,2.579,14.79,148.779,148.779,0,0,0-1.976,19.243c-.105,2.343-.172,4.734-.2,7.137H38.906V36.563a2.331,2.331,0,0,0-.232-1.012c-.006-.012-.01-.025-.016-.037l-9.375-18.75a2.344,2.344,0,0,0-4.193,0l-9.375,18.75c-.005.012-.009.025-.015.037a2.33,2.33,0,0,0-.233,1.012V71.719H4.687v-60a7.039,7.039,0,0,1,7.031-7.031ZM85.781,71.719V20.156H99.844v4.688H97.5a2.344,2.344,0,0,0,0,4.688h2.344v7.031H97.5a2.344,2.344,0,0,0,0,4.688h2.344v7.031H97.5a2.344,2.344,0,0,0,0,4.688h2.344v9.375H97.5a2.344,2.344,0,0,0,0,4.688h2.344v4.688Zm-25.392-23.6a11.736,11.736,0,0,0,2.529-.281c.435,2.788,1.074,7.721,1.452,14.506H55.646c.4-6.78,1.066-11.79,1.528-14.672a11.733,11.733,0,0,0,3.215.448Zm0-4.687a7.04,7.04,0,0,1-6.1-10.54l6.1-10.554,6.093,10.553a7.035,7.035,0,0,1-6.093,10.54Zm-4.959,23.6h9.145c.049,1.54.083,3.106.1,4.688h-9.35c.017-1.571.053-3.138.105-4.687Zm-25.9,4.688V38.906h4.687V71.719Zm-9.375,0V38.906h4.688V71.719Zm1.448-37.5,5.583-11.166L32.77,34.219Zm59.087,81.094H39.305a7.045,7.045,0,0,1,6.632-4.687H74.062a7.042,7.042,0,0,1,6.629,4.688Zm-13.661-9.375H52.969V95.156H67.031Zm41.25-15.469H11.719a7.039,7.039,0,0,1-7.031-7.031V76.406H115.312v7.031A7.039,7.039,0,0,1,108.281,90.469Zm0,0" fill="#214c85"/>
  <path id="Path_2847" data-name="Path 2847" d="M222.406,346H208.344a2.344,2.344,0,0,0,0,4.688h14.063a2.344,2.344,0,0,0,0-4.687Zm0,0" transform="translate(-157.719 -264.906)" fill="#214c85"/>
</svg>
