<?xml version="1.0" encoding="utf-8"?>
<!-- Generator: Adobe Illustrator 22.0.1, SVG Export Plug-In . SVG Version: 6.00 Build 0)  -->
<svg version="1.1" id="Layer_1" xmlns="http://www.w3.org/2000/svg" xmlns:xlink="http://www.w3.org/1999/xlink" x="0px" y="0px"
	 viewBox="0 0 1000 390" style="enable-background:new 0 0 1000 390;" xml:space="preserve">
<style type="text/css">
	.st0{fill:#589DCB;}
	.st1{fill-rule:evenodd;clip-rule:evenodd;fill:#589DCB;}
	.st2{fill:#126498;}
	.st3{fill:#333333;}
</style>
<g>
	<path class="st0" d="M72.4,251.6h16.1V175c0-5.5,1.1-8,3.8-12c2.4-3.6,3.9-5.5,8.8-9.3c6.9-5.2,14.6-6.6,20.9-6.6
		c2.5,0,8.4,0.8,14.4,3.7V136c-6.5-2.2-14.7-3.8-25-2.9c-9.2,0.8-14.5,3.1-20.4,9.1c-0.9,0.9-1.9,1.4-2.7,3v-10.4H72.1L72.4,251.6z"
		/>
	<path class="st0" d="M146.3,251.6h16.4V134.7h-16.4V251.6z M147.7,104.8c1.9,1.9,4.2,2.8,7,2.8c2.8,0,5.1-0.9,7-2.8
		c1.9-1.9,2.8-4.2,2.8-7c0-2.8-0.9-5.1-2.8-7c-1.9-1.9-4.2-2.8-7-2.8c-2.8,0-5.1,0.9-7,2.8c-1.9,1.9-2.8,4.2-2.8,7
		C144.9,100.6,145.8,102.9,147.7,104.8z"/>
	<path class="st0" d="M237.8,235.4c-3.8,3.7-9.6,5.5-17.3,5.5c-6.7,0.2-12.3-1.2-16.6-4.1c-4.3-2.9-7.3-6-8.9-9.5
		c-1.6-3.5-2.5-7.2-2.5-11.2h-16.4c-0.2,6.7,1,12.5,3.4,17.4c2.4,4.9,5.6,9.1,9.7,12.6c4.1,3.5,8.7,6.2,14,8.2
		c5.3,1.9,10.7,2.9,16.1,2.9c5.5,0,10.7-0.8,15.8-2.3c5.1-1.6,9.5-3.8,13.3-6.8c3.8-3,6.9-6.6,9.1-11c2.3-4.4,3.4-9.3,3.4-14.7
		c0-7.3-1.4-13.4-4.2-18.2c-2.8-4.8-6.7-8.8-11.8-12c-5.1-3.2-10.5-5.7-16.3-7.6c-5.8-1.9-11-3.7-15.8-5.4
		c-4.8-1.7-8.6-3.6-11.5-5.6c-2.9-2-4.7-4.9-5.5-8.7c-0.8-4.2,0.4-8.2,3.4-11.9c3-3.7,6.4-6.2,9.9-7.5c3.6-1.2,6.9-1.9,10.1-1.9
		c4.7,0,9,1.2,12.9,3.6c3.9,2.4,6.5,5.9,8,10.4h17.5c-0.3-2.3-1.4-5.1-3.2-8.4c-1.8-3.3-4.2-6.5-7.4-9.7c-3.1-3.2-7-5.8-11.6-7.8
		c-4.6-2-10-3-16.3-3c-5.5,0-10.8,1.1-15.9,3.1c-5.1,2.1-9.6,4.8-13.2,8.2c-3.7,3.3-6.5,7.2-8.5,11.5c-2,4.4-2.7,9.1-2.1,14.2
		c0.8,6.5,3,12,6.8,16.3c3.7,4.4,8.2,7.6,13.3,9.8c5.1,2.2,10.8,4,16.8,5.6c6.1,1.6,11.1,3.3,15.2,5.1c4.1,1.9,7.1,4.3,9.2,7.2
		c2.1,3,3.1,7.1,2.9,12.4C243.7,227.3,241.6,231.7,237.8,235.4z"/>
	<path class="st0" d="M274.6,251.6H291V134.7h-16.4V251.6z M276,104.8c1.9,1.9,4.2,2.8,7,2.8c2.8,0,5.1-0.9,7-2.8
		c1.9-1.9,2.8-4.2,2.8-7c0-2.8-0.9-5.1-2.8-7c-1.9-1.9-4.2-2.8-7-2.8c-2.8,0-5.1,0.9-7,2.8c-1.9,1.9-2.8,4.2-2.8,7
		C273.2,100.6,274.2,102.9,276,104.8z"/>
	<path class="st1" d="M396,251.6l-0.2-70.1c0-5-0.9-9.7-2.8-14c-1.9-4.4-4.4-8.2-7.7-11.5c-3.3-3.3-7.1-5.8-11.5-7.7
		c-4.4-1.9-9-2.8-13.8-2.8c0,0-0.1,0-0.1,0v-16.8c0,0,0.1,0,0.1,0c7.2,0,14,1.4,20.3,4.2c6.4,2.8,12,6.6,16.7,11.3
		c4.8,4.8,8.5,10.4,11.3,16.8c2.8,6.5,4.2,13.3,4.2,20.5l0.2,70.1H396z"/>
	<path class="st0" d="M539.1,150.2c-1.9-2.4-1.6-1.8-2.6-2.6c-5.8-5.9-12.6-10.6-20.3-13.9c-7.8-3.4-16.1-5-25-5
		c-8.9,0-17.2,1.7-25,5c-7.8,3.4-14.6,7.9-20.5,13.8c-5.8,5.8-10.4,12.7-13.8,20.5c-3.4,7.8-5,16.1-5,25s1.7,17.2,5,25
		c3.4,7.8,8,14.6,13.8,20.5c5.8,5.8,12.7,10.4,20.5,13.8c7.8,3.4,16.1,5,25,5c8.9,0,17.2-1.7,25-5c7.8-3.4,14.6-7.9,20.3-13.7
		c0.9-0.9,1.8-1.8,2.6-2.6v3.5c0,6.5-1.2,12.7-3.7,18.6c-2.5,5.8-5.9,11-10.3,15.3c-4.4,4.4-9.5,7.8-15.3,10.3
		c-5.8,2.5-12,3.7-18.6,3.7c-6.5,0-12.7-1.2-18.6-3.7c-5.8-2.5-11-5.9-15.3-10.3c-3.3-3.3-6-6.9-8.2-11l-11.9,11.9
		c2.5,3.9,5.3,7.4,8.4,10.5c5.9,5.9,12.8,10.6,20.6,13.9c7.8,3.4,16.1,5,25,5c8.9,0,17.2-1.7,25-5c7.8-3.4,14.6-7.9,20.5-13.8
		c5.8-5.8,10.4-12.7,13.8-20.5c3.4-7.8,5-16.1,5-25v-25.5c0,0,0-19.4,0-25.7C555.5,167.4,541,152.5,539.1,150.2z M447,174.4
		c2.5-5.8,5.9-11,10.3-15.3c4.4-4.4,9.5-7.8,15.3-10.3c5.8-2.5,12-3.7,18.6-3.7c6.5,0,12.7,1.2,18.6,3.7c5.8,2.5,10.9,5.9,15.3,10.3
		c4.4,4.4,8,9.4,10.8,15.2c2.2,5.1,3.3,10.8,3.3,16.8c0,7.8-1.2,14.6-3.7,20.5c-2.5,5.8-5.9,11-10.3,15.3
		c-4.4,4.4-9.5,7.8-15.3,10.3c-5.8,2.5-12,3.7-18.6,3.7c-6.5,0-12.7-1.2-18.6-3.7c-5.8-2.5-11-5.9-15.3-10.3
		c-4.4-4.4-7.8-9.5-10.3-15.3c-2.5-5.8-3.7-12-3.7-18.6C443.2,186.4,444.5,180.2,447,174.4z"/>
	<path class="st1" d="M323.7,251.6l0.2-70.1c0-5,0.9-9.7,2.8-14c1.9-4.4,4.4-8.2,7.7-11.5c3.3-3.3,7.1-5.8,11.5-7.7
		c4.4-1.9,9-2.8,13.8-2.8c0,0,0.1,0,0.1,0v-16.8c0,0-0.1,0-0.1,0c-7.2,0-13.9,1.4-20.3,4.2c-6.4,2.8-12,6.6-16.7,11.3
		c-4.8,4.8-8.5,10.4-11.3,16.8c-2.8,6.5-4.2,13.3-4.2,20.5l-0.2,70.1H323.7z"/>
</g>
<g>
	<path class="st2" d="M576.7,151.1v100.5h16.4V151.1h30.6v-16.4h-30.6V64.4h-16.4v70.3H545v16.4H576.7z"/>
	<path class="st2" d="M638,251.6h16.4V134.7H638V251.6z M639.4,104.8c1.9,1.9,4.2,2.8,7,2.8c2.8,0,5.1-0.9,7-2.8
		c1.9-1.9,2.8-4.2,2.8-7c0-2.8-0.9-5.1-2.8-7c-1.9-1.9-4.2-2.8-7-2.8c-2.8,0-5.1,0.9-7,2.8c-1.9,1.9-2.8,4.2-2.8,7
		C636.6,100.6,637.5,102.9,639.4,104.8z"/>
	<path class="st2" d="M824.1,188h111.8c-0.5-7-2.1-13.7-4.9-20.1c-3.3-7.8-7.8-14.6-13.7-20.5c-5.8-5.8-12.7-10.4-20.5-13.8
		c-7.8-3.4-16.1-5-25-5c-8.9,0-17.2,1.7-25,5c-7.8,3.4-14.6,7.9-20.5,13.8c-5.8,5.8-10.4,12.7-13.8,20.5c-3.4,7.8-5,16.1-5,25
		s1.7,17.2,5,25c3.4,7.8,8,14.6,13.8,20.5c5.8,5.8,12.7,10.4,20.5,13.8c7.8,3.4,16.1,5,25,5c8.9,0,17.2-1.7,25-5
		c7.8-3.4,14.6-8,20.5-13.8c5.8-5.8,10.4-12.7,13.7-20.5l0.7-1.9h-18c-2.2,4.1-4.8,7.6-8,10.8c-4.4,4.4-9.5,7.8-15.3,10.3
		c-5.8,2.5-12,3.7-18.6,3.7c-6.5,0-12.7-1.2-18.6-3.7c-5.8-2.5-11-5.9-15.3-10.3c-4.4-4.4-7.8-9.5-10.3-15.3
		c-2.5-5.8-3.7-12-3.7-18.6C823.9,191.4,823.9,189.7,824.1,188L824.1,188z M914.6,171.7h-85.8c2.3-4.7,5.4-8.9,9.1-12.6
		c4.4-4.4,9.5-7.8,15.3-10.3c5.8-2.5,12-3.7,18.6-3.7c6.5,0,12.7,1.2,18.6,3.7c5.8,2.5,10.9,5.9,15.3,10.3
		C909.3,162.8,912.2,167,914.6,171.7L914.6,171.7z"/>
	<path class="st2" d="M668.9,218c3.4,7.8,8,14.6,13.8,20.5c5.8,5.8,12.7,10.4,20.5,13.8c7.8,3.4,16.1,5,25,5c8.9,0,17.2-1.7,25-5
		c7.8-3.3,14.6-7.9,20.5-13.8c5.8-5.8,10.4-12.7,13.8-20.5c3.4-7.8,5-16.1,5-25c0-8.9-1.7-17.2-5-25c-3.4-7.8-7.9-14.6-13.8-20.5
		c-5.8-5.8-12.7-10.4-20.5-13.8c-7.8-3.4-16.1-5-25-5c-8.9,0-17.2,1.7-25,5c-7.8,3.4-14.6,7.9-20.5,13.8
		c-5.8,5.8-10.4,12.7-13.8,20.5c-3.4,7.8-5,16.1-5,25C663.9,201.9,665.5,210.2,668.9,218z M684,174.4c2.5-5.8,5.9-10.9,10.3-15.3
		c4.4-4.4,9.5-7.8,15.3-10.3c5.8-2.5,12-3.7,18.6-3.7c6.5,0,12.7,1.2,18.6,3.7c5.8,2.5,11,5.9,15.3,10.3c4.4,4.4,7.8,9.5,10.3,15.3
		c2.5,5.8,3.7,12,3.7,18.6c0,6.5-1.2,12.7-3.7,18.6c-2.5,5.8-5.9,11-10.3,15.3c-4.4,4.4-9.5,7.8-15.3,10.3c-5.8,2.5-12,3.7-18.6,3.7
		c-6.5,0-12.7-1.2-18.6-3.7c-5.8-2.5-11-5.9-15.3-10.3c-4.4-4.4-7.8-9.5-10.3-15.3c-2.5-5.8-3.7-12-3.7-18.6
		C680.2,186.4,681.5,180.2,684,174.4z"/>
</g>
<g>
	<path class="st2" d="M792.4,64.4h-16.4v187.2h16.4V64.4z"/>
</g>
<g>
	<path class="st3" d="M572.3,277.9h16.2c12.9,0,21.8,8.2,21.8,20.5c0,12.4-8.9,20.5-21.8,20.5h-16.2V277.9z M588.5,311.3
		c8.1,0,12.9-5.8,12.9-12.8c0-7.3-4.4-12.9-12.9-12.9H581v25.6H588.5z"/>
	<path class="st3" d="M639.8,277.9h8.7v41h-8.7V277.9z"/>
	<path class="st3" d="M699.9,277.3c8.5,0,13.8,4.1,17,9l-7.3,3.9c-1.9-2.9-5.4-5.2-9.7-5.2c-7.4,0-12.9,5.7-12.9,13.5
		s5.4,13.5,12.9,13.5c3.8,0,7.1-1.5,8.9-3.1v-5h-10.9v-7.5h19.6V312c-4.2,4.7-10,7.8-17.5,7.8c-12,0-21.8-8.4-21.8-21.3
		C678.1,285.5,687.9,277.3,699.9,277.3z"/>
	<path class="st3" d="M747.7,277.9h8.7v41h-8.7V277.9z"/>
	<path class="st3" d="M797.4,285.6h-12v-7.7h32.7v7.7h-11.9V319h-8.8V285.6z"/>
	<path class="st3" d="M869.3,311.9H851l-2.6,7.1h-9.6l15.9-41h10.9l15.8,41h-9.5L869.3,311.9z M853.3,304.3h13.6l-6.8-18.8
		L853.3,304.3z"/>
	<path class="st3" d="M908.6,277.9h8.7v33.3h17.3v7.7h-26.1V277.9z"/>
</g>
</svg>
