<svg xmlns="http://www.w3.org/2000/svg" width="120" height="110.657" viewBox="0 0 120 110.657">
  <g id="system-int" transform="translate(0 -8)">
    <path id="Path_3171" data-name="Path 3171" d="M115.62,86.832h-7.153V72.623a4.379,4.379,0,0,0-4.38-4.38H64.38V51.5H89.635a4.379,4.379,0,0,0,4.38-4.38V12.38A4.379,4.379,0,0,0,89.635,8H30.365a4.379,4.379,0,0,0-4.38,4.38V47.124a4.379,4.379,0,0,0,4.38,4.38H55.62v16.74H15.912a4.379,4.379,0,0,0-4.38,4.38V86.832H4.38A4.379,4.379,0,0,0,0,91.212v23.066a4.379,4.379,0,0,0,4.38,4.38H27.445a4.379,4.379,0,0,0,4.38-4.38V91.212a4.379,4.379,0,0,0-4.38-4.38H20.292V77H55.62v9.829H48.467a4.379,4.379,0,0,0-4.38,4.38v23.066a4.379,4.379,0,0,0,4.38,4.38H71.533a4.379,4.379,0,0,0,4.38-4.38V91.212a4.379,4.379,0,0,0-4.38-4.38H64.38V77H99.708v9.829H92.555a4.379,4.379,0,0,0-4.38,4.38v23.066a4.379,4.379,0,0,0,4.38,4.38H115.62a4.379,4.379,0,0,0,4.38-4.38V91.212A4.379,4.379,0,0,0,115.62,86.832Z" fill="#214c85"/>
    <g id="Group_1878" data-name="Group 1878" transform="translate(31.731 14.071)">
      <path id="Path_3172" data-name="Path 3172" d="M66.345,47.8,54.34,37.679l12.005-10.1,2.779,2.814-8.835,7.25,8.835,7.339Z" transform="translate(-54.34 -22.217)" fill="#fff"/>
      <path id="Path_3173" data-name="Path 3173" d="M91.993,47.4H87.772l12.434-29h4.239Z" transform="translate(-68.25 -18.396)" fill="#fff"/>
      <path id="Path_3174" data-name="Path 3174" d="M128.634,27.579l12.005,10.1L128.634,47.8l-2.761-2.815,8.817-7.268-8.817-7.321Z" transform="translate(-84.102 -22.217)" fill="#fff"/>
    </g>
    <g id="Group_1880" data-name="Group 1880" transform="translate(5.925 92.855)">
      <g id="Group_1879" data-name="Group 1879">
        <path id="Path_3175" data-name="Path 3175" d="M29.432,166.184l-2.114-1.77a7,7,0,0,0,0-2.11l2.114-1.77a.418.418,0,0,0,.094-.53L27.6,156.67a.419.419,0,0,0-.506-.184l-2.586.945a7.51,7.51,0,0,0-1.831-1.053l-.476-2.716a.418.418,0,0,0-.412-.346h-3.85a.42.42,0,0,0-.413.346l-.475,2.716a7.5,7.5,0,0,0-1.832,1.053l-2.586-.945a.417.417,0,0,0-.506.184L10.2,160a.416.416,0,0,0,.094.53l2.114,1.77a7,7,0,0,0,0,2.11l-2.114,1.77a.417.417,0,0,0-.094.53l1.925,3.334a.419.419,0,0,0,.506.184l2.586-.945a7.5,7.5,0,0,0,1.832,1.053l.475,2.717a.42.42,0,0,0,.413.346h3.85a.418.418,0,0,0,.412-.346l.476-2.717a7.51,7.51,0,0,0,1.831-1.053l2.586.945a.42.42,0,0,0,.506-.184l1.925-3.334A.419.419,0,0,0,29.432,166.184Zm-9.568,1.361a4.185,4.185,0,1,1,4.186-4.186A4.19,4.19,0,0,1,19.864,167.545Z" transform="translate(-10.146 -153.315)" fill="#fff"/>
      </g>
    </g>
    <g id="Group_1882" data-name="Group 1882" transform="translate(50.282 92.855)">
      <g id="Group_1881" data-name="Group 1881">
        <path id="Path_3176" data-name="Path 3176" d="M105.394,166.184l-2.114-1.77a7,7,0,0,0,0-2.11l2.114-1.77a.418.418,0,0,0,.094-.53l-1.925-3.334a.419.419,0,0,0-.506-.184l-2.586.945a7.51,7.51,0,0,0-1.831-1.053l-.476-2.716a.418.418,0,0,0-.412-.346H93.9a.419.419,0,0,0-.412.346l-.476,2.716a7.51,7.51,0,0,0-1.831,1.053l-2.586-.945a.417.417,0,0,0-.506.184L86.164,160a.418.418,0,0,0,.094.53l2.114,1.77a7,7,0,0,0,0,2.11l-2.114,1.77a.418.418,0,0,0-.094.53l1.925,3.334a.419.419,0,0,0,.506.184l2.586-.945a7.51,7.51,0,0,0,1.831,1.053l.476,2.717a.419.419,0,0,0,.412.346h3.851a.419.419,0,0,0,.412-.346l.476-2.717a7.51,7.51,0,0,0,1.831-1.053l2.586.945a.42.42,0,0,0,.506-.184l1.925-3.334A.419.419,0,0,0,105.394,166.184Zm-9.568,1.361a4.185,4.185,0,1,1,4.185-4.186A4.19,4.19,0,0,1,95.826,167.545Z" transform="translate(-86.108 -153.315)" fill="#fff"/>
      </g>
    </g>
    <g id="Group_1884" data-name="Group 1884" transform="translate(95.294 92.855)">
      <g id="Group_1883" data-name="Group 1883">
        <path id="Path_3177" data-name="Path 3177" d="M182.476,166.184l-2.114-1.77a7,7,0,0,0,0-2.11l2.114-1.77a.416.416,0,0,0,.094-.53l-1.925-3.334a.42.42,0,0,0-.506-.184l-2.586.945a7.5,7.5,0,0,0-1.832-1.053l-.475-2.716a.42.42,0,0,0-.413-.346h-3.85a.418.418,0,0,0-.412.346l-.476,2.716a7.51,7.51,0,0,0-1.831,1.053l-2.586-.945a.416.416,0,0,0-.506.184L163.247,160a.418.418,0,0,0,.094.53l2.114,1.77a7,7,0,0,0,0,2.11l-2.114,1.77a.419.419,0,0,0-.094.53l1.925,3.334a.419.419,0,0,0,.506.184l2.586-.945a7.51,7.51,0,0,0,1.831,1.053l.476,2.717a.418.418,0,0,0,.412.346h3.85a.42.42,0,0,0,.413-.346l.475-2.717a7.5,7.5,0,0,0,1.832-1.053l2.586.945a.421.421,0,0,0,.506-.184l1.925-3.334A.417.417,0,0,0,182.476,166.184Zm-9.567,1.361a4.185,4.185,0,1,1,4.185-4.186A4.191,4.191,0,0,1,172.909,167.545Z" transform="translate(-163.191 -153.315)" fill="#fff"/>
      </g>
    </g>
  </g>
</svg>
