<svg xmlns="http://www.w3.org/2000/svg" width="120" height="112.734" viewBox="0 0 120 112.734">
  <g id="transaction" transform="translate(0 -15.5)">
    <path id="Path_3192" data-name="Path 3192" d="M95.323,15.5H24.677a24.677,24.677,0,0,0-.147,49.354H35.613V45.519a15.721,15.721,0,0,1,15.7-15.7h.034a15.728,15.728,0,0,1,15.669,15.7V64.854h28.3a24.677,24.677,0,0,0,0-49.354Zm6.983,21.236L88.244,50.8a3.515,3.515,0,0,1-4.972,0l-7.031-7.031A3.516,3.516,0,1,1,81.213,38.8l4.545,4.545L97.335,31.764a3.516,3.516,0,1,1,4.972,4.972Z" fill="#214c85"/>
    <path id="Path_3193" data-name="Path 3193" d="M149,144.482l-22.632-2.352V115.253a8.672,8.672,0,1,0-17.344,0v44.981h-.079l-8.56-7.148a8.341,8.341,0,1,0-10.69,12.806l17.375,14.5h51.172V154.947A10.546,10.546,0,0,0,149,144.482Z" transform="translate(-66.375 -69.734)" fill="#214c85"/>
    <path id="Path_3194" data-name="Path 3194" d="M181.95,458.531a3.516,3.516,0,0,0,3.516,3.516h42.188a3.516,3.516,0,0,0,3.516-3.516V451.5H181.95Z" transform="translate(-139.305 -333.813)" fill="#214c85"/>
  </g>
</svg>
