<svg xmlns="http://www.w3.org/2000/svg" xmlns:xlink="http://www.w3.org/1999/xlink" width="1919.498" height="1520.384" viewBox="0 0 1919.498 1520.384">
  <defs>
    <linearGradient id="linear-gradient" x1="-0.089" y1="0.918" x2="0.982" y2="0.056" gradientUnits="objectBoundingBox">
      <stop offset="0" stop-color="#5460ff"/>
      <stop offset="1" stop-color="#214c85"/>
    </linearGradient>
  </defs>
  <g id="Wave_3" data-name="Wave 3" transform="translate(0.5 0.5)">
    <path id="Union_2" data-name="Union 2" d="M1918.225,1519.384c-281.585-50.882-420.247-149.9-554.736-245.919C1217.4,1169.143,1066.337,1061.28,730.58,1016.827s-526.829,18.114-711.631,78.628q-9.13,2.989-18.287,5.981V737.53L0,737.339V214.421H0V0C185.872,0,280.146,39.3,371.319,77.309c90.32,37.649,183.712,76.581,367.007,76.581s276.68-38.932,367-76.581C1196.5,39.3,1290.774,0,1476.645,0s280.139,39.3,371.307,77.309c22.643,9.439,45.481,18.96,69.883,27.927V977.372l.662.088v541.924Z" transform="translate(0)" stroke="rgba(0,0,0,0)" stroke-miterlimit="10" stroke-width="1" fill="url(#linear-gradient)"/>
  </g>
</svg>
