<svg data-name="24-7" xmlns="http://www.w3.org/2000/svg" width="60" height="60"><path data-name="Path 3185" d="M30 0A22.968 22.968 0 007.059 22.941v21.176a5.295 5.295 0 1010.589 0V26.471a5.3 5.3 0 00-5.294-5.294 5.236 5.236 0 00-1.691.3 19.392 19.392 0 0138.675-.014 5.2 5.2 0 00-1.69-.287 5.3 5.3 0 00-5.294 5.294v17.647a5.3 5.3 0 005.294 5.294 5.233 5.233 0 001.765-.325v2.09a1.767 1.767 0 01-1.765 1.765H34.969a5.294 5.294 0 100 3.529h12.678a5.3 5.3 0 005.294-5.294V22.941A22.968 22.968 0 0030 0zm0 0" fill="#214c85"/><path data-name="Path 3186" d="M56.471 25.033v20.526A5.285 5.285 0 0060 40.59V30a5.286 5.286 0 00-3.529-4.969zm0 0" fill="#214c85"/><path data-name="Path 3187" d="M0 30v10.588a5.285 5.285 0 003.529 4.969V25.033A5.286 5.286 0 000 30zm0 0" fill="#214c85"/></svg>