<svg xmlns="http://www.w3.org/2000/svg" width="120" height="120"><path d="M107.5 95a12.406 12.406 0 00-4.545.885L87.99 80.925a34.736 34.736 0 000-41.85l14.965-14.96A12.483 12.483 0 1095 12.5a12.406 12.406 0 00.885 4.545L80.92 32.01a34.731 34.731 0 00-41.84 0L24.115 17.045A12.483 12.483 0 1012.5 25a12.406 12.406 0 004.545-.885L32.01 39.08a34.728 34.728 0 000 41.845L17.045 95.89A12.307 12.307 0 0012.5 95a12.594 12.594 0 1011.615 7.955L39.08 87.99a34.731 34.731 0 0041.84 0l14.965 14.97A12.359 12.359 0 0095 107.5 12.5 12.5 0 10107.5 95zM60 35a10 10 0 11-10 10 10 10 0 0110-10zM43.75 80A3.751 3.751 0 0140 76.25v-2.5A13.761 13.761 0 0153.75 60h12.5A13.761 13.761 0 0180 73.75v2.5A3.751 3.751 0 0176.25 80z" fill="#214c85"/></svg>