<svg xmlns="http://www.w3.org/2000/svg" xmlns:xlink="http://www.w3.org/1999/xlink" width="120" height="108.694"><defs><linearGradient id="b" y1=".5" x2="1" y2=".5" gradientUnits="objectBoundingBox"><stop offset="0" stop-color="#bd24ff"/><stop offset="1" stop-color="#612ce8"/></linearGradient><linearGradient id="a" y1=".5" x2="1" y2=".5" gradientUnits="objectBoundingBox"><stop offset="0" stop-color="#37f3fa"/><stop offset="1" stop-color="#0098ff"/></linearGradient><linearGradient id="c" y1=".5" x2="1" y2=".5" gradientUnits="objectBoundingBox"><stop offset="0" stop-color="#38f8ff"/><stop offset="1" stop-color="#0098ff"/></linearGradient><linearGradient id="d" x1="0" y1=".5" x2="1.089" y2=".5" xlink:href="#a"/></defs><g data-name="Group 1867"><g data-name="Group 1865"><g data-name="Group 1864" fill="#525760"><path data-name="Path 3147" d="M1.342 87.814H2.36l1.916 4.59 2-4.59h1.018l1.212 7.22H7.077l-.648-4.449-1.938 4.449h-.476l-1.851-4.449-.736 4.449H-.001z"/><path data-name="Path 3148" d="M11.221 94.331l-2.23-3.984h1.537l1.451 2.663 1.3-2.663h1.494l-3.778 7.166H9.501z"/></g><path data-name="Path 3149" d="M23.999 87.787a8.06 8.06 0 015 1.289 5.326 5.326 0 011.9 4.237 4.373 4.373 0 01-2.3 4.022 4.812 4.812 0 012.671 1.29 5.222 5.222 0 011.473 3.837 5.473 5.473 0 01-1.75 4.144 7.514 7.514 0 01-5.188 1.658h-6.877V87.787zm-1.074 8.5h1.136c.614 0 3.1-.061 3.1-2.671 0-1.873-1.443-2.579-3.07-2.579h-1.167zm0 8.719h1.719a5.449 5.449 0 002.732-.552 2.639 2.639 0 001.259-2.364 2.451 2.451 0 00-1.5-2.334 6.508 6.508 0 00-2.732-.4H22.93z" fill="#525760"/><path data-name="Path 3150" d="M37.753 87.111a2.241 2.241 0 11-2.241 2.241 2.254 2.254 0 012.241-2.241z" fill="#049fff"/><path data-name="Rectangle 247" fill="#525760" d="M35.881 94.97h3.745v13.293h-3.745z"/><path data-name="Path 3151" d="M48.345 105.07h7.031v3.193h-13.6l7.552-10.1h-6.386V94.97h12.956z" fill="#525760"/><path data-name="Path 3152" d="M62.59 87.787v17.042h6.324v3.439H58.599V87.787z" fill="#525760"/><path data-name="Path 3153" d="M83.436 96.413a7.162 7.162 0 010 10.407 8.643 8.643 0 01-10.746 0 7.162 7.162 0 010-10.407 8.643 8.643 0 0110.746 0zm-1.627 5.219a3.745 3.745 0 10-3.745 3.745 3.709 3.709 0 003.744-3.745z" fill="#525760"/><path data-name="Path 3154" d="M98.755 94.97h3.745v13.293h-3.745v-1.719a4.768 4.768 0 01-4.083 2.149c-4.083 0-6.785-3.193-6.785-7.092 0-3.93 2.671-7.061 6.6-7.061a4.816 4.816 0 014.268 2.149zm-7 6.631a3.685 3.685 0 103.684-3.745 3.64 3.64 0 00-3.684 3.745z" fill="#525760"/><path data-name="Path 3155" d="M116.254 85.883H120v22.381h-3.746v-1.72a4.768 4.768 0 01-4.083 2.149c-4.083 0-6.785-3.193-6.785-7.092 0-3.93 2.671-7.061 6.6-7.061a4.816 4.816 0 014.268 2.149zm-7 15.718a3.685 3.685 0 103.684-3.745 3.64 3.64 0 00-3.684 3.745z" fill="#525760"/></g><g data-name="Group 1866"><path data-name="Path 3156" d="M1851.849-84.052h1.92v-3.988a3.113 3.113 0 00-4.283-2.886l-45.626 18.5a3.113 3.113 0 00-1.944 2.885v9.167l49.933-20.156z" transform="translate(-1767.726 111.871)" fill="url(#b)"/><path data-name="Path 3157" d="M1801.916-31.807v15.049a3.113 3.113 0 004.283 2.885l45.626-18.5a2.993 2.993 0 001.943-2.886v-17.479z" transform="translate(-1767.726 88.338)" fill="url(#b)"/><path data-name="Path 3158" d="M1853.4-69.254c0-.7-.018-2.447-.018-2.447.01-.111.021-.221.021-.335v-14.03l-52.087-21.026v17.075a3.767 3.767 0 002.357 3.494l44.445 17.937c5.118 1.545 1.115 3.758-1.148 4.748 1.1-.44 2.747-1.1 4.335-1.746 2.227-.902 2.095-2.268 2.095-3.67z" transform="translate(-1767.356 121.631)" fill="url(#a)"/><path data-name="Path 3159" d="M1917.115 4.55l-1.284.513s.551-.193 1.284-.513z" transform="translate(-1837.506 53.245)" fill="url(#c)"/><path data-name="Path 3160" d="M1852.872-114.3a3.983 3.983 0 00.525-2.576c0-.7-.018-2.447-.018-2.447.01-.111.021-.221.021-.335v-3.237a3.767 3.767 0 00-2.356-3.469l-44.552-17.98a3.767 3.767 0 00-5.177 3.494v5.735l48.208 19.46c2.815 1.482-.55 3.318-2.555 4.2 1.1-.44 2.747-1.1 4.335-1.746a3.56 3.56 0 001.573-1.1" transform="translate(-1767.356 144.622)" fill="url(#d)"/></g></g></svg>