<svg xmlns="http://www.w3.org/2000/svg" width="120" height="105.696"><g fill="#214c85"><path d="M26.359 29.098a9.625 9.625 0 1012.48 12.484h-12.48zM44.7 17.815v5.426h5.426a9.68 9.68 0 00-5.426-5.426zm75.3 67.76V69.698H63.533v4.626h-7.058v-4.626H0v15.877z"/><path d="M120 62.64V.001H0v62.64zM96.707 17.616v-5.051h7.058v5.051zm7.058 5.85v9.892h-7.058v-9.892zm-21.175-5.85v-5.051h7.058v5.051zm7.058 5.85v9.892h-7.057v-9.892zm-14.117-10.9v5.051h-7.057v-5.052zM46.572 38.053a16.684 16.684 0 11-16.684-16.684h3.529v13.155h13.155zm11.283-7.752H37.642V10.087h3.529A16.7 16.7 0 0157.855 26.77zm10.619-6.834h7.058v9.892h-7.058zM91.829 53.18l-8.64-4.92-9.365 5.641-3.641-6.047 12.907-7.773 8.3 4.727 9.96-7.147 4.115 5.735zM56.215 92.633v6H20.943v7.058h78.114v-7.058H63.273v-6z"/></g></svg>