<svg xmlns="http://www.w3.org/2000/svg" width="120" height="101.793" viewBox="0 0 120 101.793">
  <g id="community-manage" transform="translate(0 -38.84)">
    <g id="Group_1657" data-name="Group 1657" transform="translate(93.397 93.796)">
      <g id="Group_1656" data-name="Group 1656" transform="translate(0 0)">
        <path id="Path_2863" data-name="Path 2863" d="M407.774,273.32h-9.28a24.141,24.141,0,0,1,1.463,8.3v35.074a10.344,10.344,0,0,1-.6,3.465H414.7A10.405,10.405,0,0,0,425.1,309.763V290.642A17.342,17.342,0,0,0,407.774,273.32Z" transform="translate(-398.494 -273.32)" fill="#214c85"/>
      </g>
    </g>
    <g id="Group_1659" data-name="Group 1659" transform="translate(0 93.797)">
      <g id="Group_1658" data-name="Group 1658" transform="translate(0 0)">
        <path id="Path_2864" data-name="Path 2864" d="M25.14,281.619a24.14,24.14,0,0,1,1.463-8.3h-9.28A17.342,17.342,0,0,0,0,290.644v19.121a10.405,10.405,0,0,0,10.394,10.394H25.736a10.346,10.346,0,0,1-.6-3.465Z" transform="translate(0 -273.321)" fill="#214c85"/>
      </g>
    </g>
    <g id="Group_1661" data-name="Group 1661" transform="translate(32.069 84.772)">
      <g id="Group_1660" data-name="Group 1660" transform="translate(0 0)">
        <path id="Path_2865" data-name="Path 2865" d="M175.368,234.815H154.152a17.342,17.342,0,0,0-17.323,17.323v35.074a3.465,3.465,0,0,0,3.465,3.465h48.932a3.465,3.465,0,0,0,3.465-3.465V252.138A17.342,17.342,0,0,0,175.368,234.815Z" transform="translate(-136.829 -234.815)" fill="#214c85"/>
      </g>
    </g>
    <g id="Group_1663" data-name="Group 1663" transform="translate(39.167 38.84)">
      <g id="Group_1662" data-name="Group 1662" transform="translate(0 0)">
        <path id="Path_2866" data-name="Path 2866" d="M187.947,38.84a20.829,20.829,0,1,0,20.833,20.833A20.856,20.856,0,0,0,187.947,38.84Z" transform="translate(-167.114 -38.84)" fill="#214c85"/>
      </g>
    </g>
    <g id="Group_1665" data-name="Group 1665" transform="translate(7.838 58.258)">
      <g id="Group_1664" data-name="Group 1664">
        <path id="Path_2867" data-name="Path 2867" d="M49.023,121.689a15.572,15.572,0,1,0,15.58,15.58A15.6,15.6,0,0,0,49.023,121.689Z" transform="translate(-33.443 -121.689)" fill="#214c85"/>
      </g>
    </g>
    <g id="Group_1667" data-name="Group 1667" transform="translate(81.002 58.258)">
      <g id="Group_1666" data-name="Group 1666">
        <path id="Path_2868" data-name="Path 2868" d="M361.187,121.689a15.58,15.58,0,1,0,15.58,15.58A15.6,15.6,0,0,0,361.187,121.689Z" transform="translate(-345.607 -121.689)" fill="#214c85"/>
      </g>
    </g>
  </g>
</svg>
