<svg xmlns="http://www.w3.org/2000/svg" width="107.227" height="120.931" viewBox="0 0 107.227 120.931">
  <g id="corp-brand" transform="translate(-12359.5 -6928.5)">
    <path id="Subtraction_5" data-name="Subtraction 5" d="M48.812,115.931H0V0H73.22V86.643H48.812V115.93Z" transform="translate(12362 6931)" fill="none" stroke="#214c85" stroke-width="5"/>
    <g id="Group_1641" data-name="Group 1641" transform="translate(12410.6 7018.521)">
      <path id="Path_2848" data-name="Path 2848" d="M174.609,314.2,198.244,301.1H150.97Zm0,0" transform="translate(-146.544 -301.101)" fill="#214c85"/>
      <path id="Path_2849" data-name="Path 2849" d="M377.484,328.949l19.307,14.34V318.253Zm0,0" transform="translate(-340.664 -315.8)" fill="#214c85"/>
      <path id="Path_2850" data-name="Path 2850" d="M170.683,410.989a2.144,2.144,0,0,1-2.079,0l-3.6-1.993-19.831,14.73h48.932L174.277,409Zm0,0" transform="translate(-141.577 -393.567)" fill="#214c85"/>
      <path id="Path_2851" data-name="Path 2851" d="M120.02,318.258v25.034l19.307-14.34Zm0,0" transform="translate(-120.02 -315.804)" fill="#214c85"/>
    </g>
    <rect id="Rectangle_173" data-name="Rectangle 173" width="13.525" height="13.525" transform="translate(12369.729 6938.661)" fill="#214c85"/>
    <rect id="Rectangle_174" data-name="Rectangle 174" width="38.644" height="9.661" transform="translate(12387.119 6940.593)" fill="#214c85"/>
    <rect id="Rectangle_175" data-name="Rectangle 175" width="56.033" height="3.864" transform="translate(12369.729 6957.915)" fill="#214c85"/>
    <rect id="Rectangle_176" data-name="Rectangle 176" width="56.033" height="3.864" transform="translate(12369.729 6967.576)" fill="#214c85"/>
    <rect id="Rectangle_177" data-name="Rectangle 177" width="56.033" height="3.864" transform="translate(12369.729 6977.237)" fill="#214c85"/>
    <rect id="Rectangle_178" data-name="Rectangle 178" width="56.033" height="3.864" transform="translate(12369.729 6986.898)" fill="#214c85"/>
    <rect id="Rectangle_179" data-name="Rectangle 179" width="56.033" height="3.864" transform="translate(12369.729 6996.559)" fill="#214c85"/>
    <rect id="Rectangle_180" data-name="Rectangle 180" width="56.033" height="3.864" transform="translate(12369.729 7006.22)" fill="#214c85"/>
  </g>
</svg>
