<svg xmlns="http://www.w3.org/2000/svg" width="107.227" height="120.931"><path data-name="Subtraction 5" d="M51.312 118.431H2.5V2.5h73.22v86.643H51.312v29.287z" fill="none" stroke="#214c85" stroke-width="5"/><g data-name="Group 1641" fill="#214c85"><path data-name="Path 2848" d="M79.165 103.12l23.635-13.1H55.526zm0 0"/><path data-name="Path 2849" d="M87.92 103.17l19.307 14.34V92.474zm0 0"/><path data-name="Path 2850" d="M80.206 107.443a2.144 2.144 0 01-2.079 0l-3.6-1.993-19.831 14.73h48.932L83.8 105.454zm0 0"/><path data-name="Path 2851" d="M51.1 92.475v25.034l19.307-14.34zm0 0"/></g><path data-name="Rectangle 173" fill="#214c85" d="M10.229 10.161h13.525v13.525H10.229z"/><path data-name="Rectangle 174" fill="#214c85" d="M27.619 12.093h38.644v9.661H27.619z"/><path data-name="Rectangle 175" fill="#214c85" d="M10.229 29.415h56.033v3.864H10.229z"/><path data-name="Rectangle 176" fill="#214c85" d="M10.229 39.076h56.033v3.864H10.229z"/><path data-name="Rectangle 177" fill="#214c85" d="M10.229 48.737h56.033v3.864H10.229z"/><path data-name="Rectangle 178" fill="#214c85" d="M10.229 58.398h56.033v3.864H10.229z"/><path data-name="Rectangle 179" fill="#214c85" d="M10.229 68.059h56.033v3.864H10.229z"/><path data-name="Rectangle 180" fill="#214c85" d="M10.229 77.72h56.033v3.864H10.229z"/></svg>