<svg xmlns="http://www.w3.org/2000/svg" width="118.835" height="120"><defs><clipPath id="a"><path fill="none" d="M0 0h57.913v59.417H0z"/></clipPath><clipPath id="b"><path fill="none" d="M0 0h54.913v59.417H0z"/></clipPath></defs><g data-name="Group 27"><g data-name="Rectangle 20" fill="none" stroke="#214c85" stroke-width="5" transform="translate(34.951 20.971)"><rect width="83.883" height="99.029" rx="4" stroke="none"/><rect x="2.5" y="2.5" width="78.883" height="94.029" rx="1.5"/></g><g data-name="Repeat Grid 3" transform="translate(47.436 40.777)" clip-path="url(#a)"><path data-name="Line 6" fill="none" stroke="#214c85" stroke-linecap="round" stroke-width="3" d="M1 1h52M1 13h52M1 25h52M1 37h52M1 49h52"/></g></g><g data-name="Group 26"><g data-name="Rectangle 19" fill="#214c85" stroke="#ddebf1" stroke-width="5"><rect width="83.883" height="99.029" rx="4" stroke="none"/><rect x="2.5" y="2.5" width="78.883" height="94.029" rx="1.5" fill="none"/></g><g data-name="Repeat Grid 2" transform="translate(14.068 20.388)" clip-path="url(#b)"><path data-name="Line 6" fill="none" stroke="#f5f8ff" stroke-linecap="round" stroke-width="3" d="M1 1h52M1 13h52M1 25h52M1 37h52M1 49h52"/></g></g></svg>