<svg xmlns="http://www.w3.org/2000/svg" width="62.22" height="60"><g data-name="Group 1907"><g data-name="Group 1905"><g data-name="Group 1890"><path data-name="Path 3180" d="M25.191 30.023H11.323A11.336 11.336 0 000 41.346v16.39a2.265 2.265 0 002.265 2.265h31.984a2.265 2.265 0 002.265-2.265v-16.39a11.336 11.336 0 00-11.323-11.323z" fill="#214c85"/></g></g><g data-name="Group 1906"><g data-name="Group 1892"><path data-name="Path 3181" d="M18.257 0a13.615 13.615 0 1013.617 13.617A13.633 13.633 0 0018.257 0z" fill="#214c85"/></g></g></g><g data-name="Group 1909"><g data-name="Group 1908"><path data-name="Path 3184" d="M62.012 26.195l-2.934-2.456a9.711 9.711 0 000-2.928l2.934-2.456a.58.58 0 00.13-.735l-2.671-4.627a.582.582 0 00-.7-.255l-3.588 1.311a10.421 10.421 0 00-2.541-1.462l-.66-3.769a.581.581 0 00-.572-.48h-5.345a.581.581 0 00-.572.48l-.66 3.769a10.421 10.421 0 00-2.541 1.462l-3.588-1.311a.579.579 0 00-.7.255l-2.674 4.63a.58.58 0 00.13.735l2.934 2.456a9.711 9.711 0 000 2.928l-2.934 2.456a.581.581 0 00-.13.736l2.671 4.627a.582.582 0 00.7.255l3.588-1.311a10.419 10.419 0 002.541 1.461l.66 3.77a.581.581 0 00.572.48h5.343a.581.581 0 00.572-.48l.66-3.77a10.419 10.419 0 002.541-1.461l3.588 1.311a.583.583 0 00.7-.255l2.678-4.63a.581.581 0 00-.132-.736zm-13.276 1.888a5.808 5.808 0 115.807-5.808 5.814 5.814 0 01-5.807 5.808z" fill="#214c85"/></g></g><path data-name="Union 22" d="M16.296 55.45V38.373l-1.961-5.691h7.844l-1.961 5.692V55.45l-1.961 2.07z" fill="#fff"/></svg>