<svg xmlns="http://www.w3.org/2000/svg" width="62.22" height="60" viewBox="0 0 62.22 60">
  <g id="dedicated" transform="translate(3570.931 6073)">
    <g id="Group_1907" data-name="Group 1907" transform="translate(-3570.931 -6073)">
      <g id="Group_1905" data-name="Group 1905" transform="translate(0 30.023)">
        <g id="Group_1890" data-name="Group 1890">
          <path id="Path_3180" data-name="Path 3180" d="M162.02,234.815H148.152a11.336,11.336,0,0,0-11.323,11.323v16.39a2.265,2.265,0,0,0,2.265,2.265h31.984a2.265,2.265,0,0,0,2.265-2.265v-16.39A11.336,11.336,0,0,0,162.02,234.815Z" transform="translate(-136.829 -234.815)" fill="#214c85"/>
        </g>
      </g>
      <g id="Group_1906" data-name="Group 1906" transform="translate(4.64)">
        <g id="Group_1892" data-name="Group 1892" transform="translate(0 0)">
          <path id="Path_3181" data-name="Path 3181" d="M180.731,38.84a13.615,13.615,0,1,0,13.617,13.617A13.633,13.633,0,0,0,180.731,38.84Z" transform="translate(-167.114 -38.84)" fill="#214c85"/>
        </g>
      </g>
    </g>
    <g id="Group_1909" data-name="Group 1909" transform="translate(-3535.679 -6064.662)">
      <g id="Group_1908" data-name="Group 1908">
        <path id="Path_3184" data-name="Path 3184" d="M112.868,171.172l-2.934-2.456a9.711,9.711,0,0,0,0-2.928l2.934-2.456a.58.58,0,0,0,.13-.735l-2.671-4.627a.582.582,0,0,0-.7-.255l-3.588,1.311a10.421,10.421,0,0,0-2.541-1.462l-.66-3.769a.581.581,0,0,0-.572-.48H96.921a.581.581,0,0,0-.572.48l-.66,3.769a10.421,10.421,0,0,0-2.541,1.462l-3.588-1.311a.579.579,0,0,0-.7.255L86.186,162.6a.58.58,0,0,0,.13.735l2.934,2.456a9.711,9.711,0,0,0,0,2.928l-2.934,2.456a.581.581,0,0,0-.13.736l2.671,4.627a.582.582,0,0,0,.7.255l3.588-1.311a10.419,10.419,0,0,0,2.541,1.461l.66,3.77a.581.581,0,0,0,.572.48h5.343a.581.581,0,0,0,.572-.48l.66-3.77a10.419,10.419,0,0,0,2.541-1.461l3.588,1.311a.583.583,0,0,0,.7-.255L113,171.908A.581.581,0,0,0,112.868,171.172ZM99.592,173.06a5.808,5.808,0,1,1,5.807-5.808A5.814,5.814,0,0,1,99.592,173.06Z" transform="translate(-86.108 -153.315)" fill="#214c85"/>
      </g>
    </g>
    <path id="Union_22" data-name="Union 22" d="M1.961,22.768V5.691L0,0H7.844L5.883,5.692V22.768l-1.961,2.07Z" transform="translate(-3556.596 -6040.318)" fill="#fff"/>
  </g>
</svg>
