<svg xmlns="http://www.w3.org/2000/svg" width="120" height="115.752"><g fill="#214c85"><g data-name="Group 35"><path data-name="Rectangle 28" d="M42.921 83.894h35.22v28.673h-35.22z"/><path data-name="Rectangle 29" d="M90.266 109.381v6.372H30.797v-6.372z"/><path data-name="Subtraction 1" d="M116 91.328H4a4 4 0 01-4-4V4a4 4 0 014-4h112a4 4 0 014 4v83.328a4 4 0 01-4 4zM13.558 8.5a4 4 0 00-4 4v65.27a4.005 4.005 0 004 4h92.885a4 4 0 004-4V12.5a4 4 0 00-4-4z"/></g><path data-name="Polygon 2" d="M75.855 45.514L45.512 62.933V28.095z"/></g></svg>