<svg xmlns="http://www.w3.org/2000/svg" width="155.173" height="148.768" viewBox="0 0 155.173 148.768">
  <path id="digi-public" d="M109.568,97.5v-.68L63.137,83.452a23.466,23.466,0,0,1-44.864-9.638,23.918,23.918,0,0,1,.213-3.217l-8.055-2.319A5.216,5.216,0,0,1,0,68.2V34.3a5.216,5.216,0,0,1,10.431-.076L109.568,5.68V5A5.22,5.22,0,0,1,120,5V97.5a5.22,5.22,0,0,1-10.432,0ZM28.705,73.813a13.025,13.025,0,0,0,24.206,6.694l-24.2-6.968Q28.705,73.675,28.705,73.813Z" transform="translate(0 60) rotate(-30)" fill="#214c85"/>
</svg>
