<svg xmlns="http://www.w3.org/2000/svg" xmlns:xlink="http://www.w3.org/1999/xlink" width="312.668" height="300"><defs><linearGradient id="b" x1=".372" y1=".989" x2=".606" y2=".095" gradientUnits="objectBoundingBox"><stop offset="0" stop-color="#273568"/><stop offset=".208" stop-color="#2c3b7e"/><stop offset=".64" stop-color="#3a4db6"/><stop offset="1" stop-color="#485eea"/></linearGradient><linearGradient id="a" x1=".494" y1=".517" x2=".512" y2=".463" gradientUnits="objectBoundingBox"><stop offset="0" stop-color="#828cff"/><stop offset="1" stop-color="#4f5ea1"/></linearGradient><linearGradient id="c" y1=".5" x2="1" y2=".5" gradientUnits="objectBoundingBox"><stop offset="0" stop-color="#7083ff"/><stop offset=".365" stop-color="#5e6fd7"/><stop offset="1" stop-color="#415095"/></linearGradient><linearGradient id="d" x1=".493" y1=".521" x2=".515" y2=".455" xlink:href="#a"/><linearGradient id="e" x1=".512" y1=".268" x2=".471" y2="1.034" gradientUnits="objectBoundingBox"><stop offset="0" stop-color="#b1d9df"/><stop offset=".704" stop-color="#eaeeee"/></linearGradient><linearGradient id="f" x1=".875" y1=".108" x2=".095" y2=".923" gradientUnits="objectBoundingBox"><stop offset="0" stop-color="#c5e4ff"/><stop offset=".704" stop-color="#eaeeee"/></linearGradient></defs><g data-name="seo map"><g data-name="Group 1962"><path data-name="Path 3209" d="M3278.561-467.953v141.94l161.8 93.416v-141.94z" transform="translate(-3145.21 469.439)" fill="url(#b)"/><g data-name="Group 1960" opacity=".52" fill="#c4c4dc"><path data-name="Path 3210" d="M141.807 62.816a2.032 2.032 0 011.028 1.009c-.377.126-.7-.274-1.028-.662z"/><path data-name="Path 3211" d="M255.127 119.342c.115.118.311.254.332.35a1.846 1.846 0 001.454 1.57 1.2 1.2 0 01.591.373 4.128 4.128 0 002.875 1.761 1.931 1.931 0 011.038.6c.25.258.865.706.137.715-.092 0-.18.05-.112.213a8.463 8.463 0 001.332 2.14c.353.423.5.02.712.073a4.242 4.242 0 011.774.909c.572.489 1.176.926 1.316.041.043-.269.231-.222.447-.089.427.263.854.532 1.279.81.1.062.268.213.272.258.077 1.237.6.638.887.738a1.326 1.326 0 01.951.878 3.591 3.591 0 001.5 1.643c.5.257 1 .5 1.5.775a1.717 1.717 0 01.95 1.181 1.83 1.83 0 00.968 1.065 10.746 10.746 0 012.877 2.145c.325.384.444.178.44-.18 0-.261-.042-.6.327-.3a26.062 26.062 0 014.1 3.426 5.291 5.291 0 011.442 2.367c.054.27.194.471.368.316.513-.457.94.475 1.363.928.3.32.117.452-.089.431a.643.643 0 00-.781.422c-.127.359-.29-.081-.447-.238-.579-.575-.956-1.621-1.739-1.753-.226-.039-.2-.568-.536-.765-.119.8-.533.925-1.3.149-.114-.116-.27-.21-.313-.052a.635.635 0 00.222.528 3.049 3.049 0 01.751 1.457c.077.328.014.495-.266.3a3.109 3.109 0 00-2.7-.431c-.339.056-.6.021-1.02-.472a2.593 2.593 0 00-2.424-.6.709.709 0 00-.29.784 1.883 1.883 0 01-.8 2.2 23.1 23.1 0 01-1.323 1.157c-.829-1.937-.572-3.763.531-4.167a11.207 11.207 0 012.1-.89c.138-.021.229-.175.311-.3s.264-.306.042-.59c-.206-.263-.383-.123-.463.042-.211.437-.688.3-1.09.394.062-.82-.171-1.167-.825-1.251a1.408 1.408 0 00-1.433.388c-.333.5-.771.229-1.257-.24a2.685 2.685 0 00-1.382-.826 1.647 1.647 0 01-.885-.469 1.535 1.535 0 00-1.737-.573 7.279 7.279 0 00-2.006.812c-.2.117-.621.129-.407.581a2.506 2.506 0 001.07 1.281c.881.384 1.063.715 1.025 1.741a4.68 4.68 0 01-2.4 4.156.434.434 0 01-.521.009c-.286-.185-.577-.593-.839-.4-.51.383-1.141.617-1.5 1.181-.23.365.27 1.278.44 1.943.156.618.122.966-.365.909a.48.48 0 01-.455-.617c.163-.8-.572-1.708-.7-2.592a.982.982 0 00-1.31-.709c-.116-.4.338-.462-.013-.9a.528.528 0 00-.682-.141c-.375.118-1.068-.092-.9.691.158.726.806 1.022 1.307 1.334.093.058.184.13.287.2-.062.264-.288.183-.436.235-.509.18-.655.594-.23 1.507.221.476.646 1.077.128 1.319-.149.069.057.823.147.961.5.761.147.893-.045 1.166a6.736 6.736 0 01-.635.912 1.823 1.823 0 01-2.26.549c-.75-.324-1.341-.007-2.217-.639-.683-.491-1.045.575-.629 1.525a14.049 14.049 0 01.82 2.028c.44 1.705.172 2.491-.934 2.7-.152.03-.358.175-.459-.277-.115-.51-.482-.965-.6-1.432a1.709 1.709 0 00-1.267-1.395c-.372-.095-.678 1.053-.429 1.626a21.128 21.128 0 00.952 2.212 5.844 5.844 0 01.706 2.79 1.612 1.612 0 01-.658-.888 13.394 13.394 0 01-1.232-4.895 23.555 23.555 0 00-.481-3.606c-.067-.563-.305-.533-.582-.491-.586.088-.773-.121-.721-.882.08-1.164-.763-2.274-1.187-3.405-.029-.076-.16-.218-.189-.21-.557.15-1.379-.61-1.854-.085a4.076 4.076 0 01-2.012 1.172c-.482.13-.66.508-.653 1.173a3.308 3.308 0 01-.824 2.575c-1.134-3.156-2.111-6.131-1.994-8.793-.388-.373-.39-.075-.5-.015s-.239.071-.4-.134c-.134-.175-.271-.4-.157-.51.287-.279-.064-.506-.262-.824a9.74 9.74 0 00-3.706-3.392 2.3 2.3 0 01-1.04-1.176 1.1 1.1 0 00-.661-.648 3.985 3.985 0 01-1.72-2.02 8.093 8.093 0 00-.422-.85c-.244-.394-.54-.652-.818-.537s-.052.5.062.8c.344.935.756 1.877 1.025 2.8s.657 1.045 1.114 1a6.04 6.04 0 00.895-.226 7.57 7.57 0 001.127 2.026.678.678 0 01.157.81 2.467 2.467 0 01-2.265 1.484c-1.033.061-2.1.038-3.16.018-.615-.013-.933-.346-.979-1.171a8.326 8.326 0 00-1.112-3.594 3.228 3.228 0 01-.378-1.244 3.35 3.35 0 00-.692-1.949c-.288-.365-.167-.807-.341-1.225-.33-.8-.333-1.792-1.3-2.233-.084-.039-.216-.414-.364-.342-.191.092-.044.422.047.663a38.11 38.11 0 011.313 3.687 3.053 3.053 0 01.171.577c.005 2.133 1.39 4.227 2.268 6.334a6.125 6.125 0 01.249.574 2.29 2.29 0 001.475 1.663c.589.2 1.177.4 1.847.626-.63 1.988-1.4 3.7-3.09 4.267a3.6 3.6 0 00-1.174.9c-.84.766-.894 2.07-.411 3.77a8.611 8.611 0 01.322 2.316c.01.879-.284 1.408-.928 1.527-.271.05-.526.14-.789.211-.514.139-.749.5-.506 1.423.249.935.175 1.64-.557 1.709-.3.029-.36.389-.426.732-.456 2.389-1.647 3.008-3.97 2.018-.5-.215-1.028-.178-1.534-.881-.254-.352-.616-.717-.28-1.024.2-.185 0-.628-.12-.963a26.259 26.259 0 01-1.621-6.6 4.256 4.256 0 00-.281-1.149 4.076 4.076 0 01-.018-3.509 5.039 5.039 0 00-.2-3.7 22.273 22.273 0 00-1.053-2.794 2.715 2.715 0 01-.208-1.379c.017-.628.073-1.233.065-1.874a1.268 1.268 0 00-.871-1.328 1.311 1.311 0 01-.837-.831c-.353-.75-.85-1.226-1.4-1.272-1.16-.1-2.414-.92-3.621-1.384a6.02 6.02 0 01-2.226-3.083 28.969 28.969 0 00-1.586-4.039 1.126 1.126 0 01-.107-.866 4.583 4.583 0 00.232-2.266 3.326 3.326 0 011.929-3.71 1.456 1.456 0 00.887-1.568.646.646 0 01.4-.667 2.105 2.105 0 012.291-.116c1.463.653 2.9.853 4.414 1.6.838.416 1.16.919.963 1.742a1.48 1.48 0 00.482 1.462c.789.784 1.479 1.708 2.2 2.588.509.619.946.93 1.216.329.227-.509.663-.407 1.168.177a19.188 19.188 0 003.781 3.011c.357.26.563.107.7-.134a5.987 5.987 0 00.641-2.12c.056-.4-.046-.717-.492-.816-.688-.152-1.377-.887-2.081-1.2a1.893 1.893 0 01-.933-1.563c-.063-.614-.093-1.006.55-.919a10.844 10.844 0 001.427.115 2.126 2.126 0 011.454.807 5.722 5.722 0 001.684 1.34c.291.125.544.16.658-.111s-.083-.6-.262-.906c-.215-.367-.45-.722-.685-1.076-.357-.54-.736-1.044-.371-1.487.184-.223 0-.527-.344-.711-.78-.409-1.094-.162-.859.765a1.17 1.17 0 01-.777-1.074c-.052-.642-.5-.816-.8-.747a1.667 1.667 0 00-1.3 1.849c0 .771-.256.852-.834.481a1.458 1.458 0 00-.914-.235c-.364.008-.344.2-.158.64.435 1.028.375 1.134-.565.92.22-.316.34-.6-.16-1.154a2.912 2.912 0 01-.525-1.124c-.437-1.8-1.664-3.216-2.577-4.782-.151-.258-.3-.506-.5-.376-.163.1-.174.3-.055.6a7.279 7.279 0 001.057 2.267 2.179 2.179 0 01.567 2.534 3.489 3.489 0 00-1.026-2.182 10.019 10.019 0 01-1.365-2.262c-.338-.7-.719-1.123-1.231-1.055a1.088 1.088 0 01-.725-.236c-.594-.4-.764-.071-1.095.241a21.161 21.161 0 01-1.845 1.584c-.619.457-1.866-.385-2.649-1.437a1.526 1.526 0 01-.357-1.269 5.139 5.139 0 00.125-1.652c-.03-.585.166-.712.652-.384s.951.627 1.426.95c.742.506 1.133.261 1.019-.662a4.826 4.826 0 00-1.2-2.6 18.4 18.4 0 002.462-.175c.892-.133 1.34-1.291 2.615-.533.259.153.289-.107.281-.356-.009-.3-.039-.6-.032-.888.005-.236-.058-.662.268-.42.3.224.1.437.068.614a1 1 0 00.232.961c.682.509 1.344 1.351 2.055 1.474a2.4 2.4 0 011.419.461c.507.395.935.182.981-.483.04-.556-.031-1.3.769-.209.108.147.249.235.338.143a.609.609 0 00.027-.643c-.424-1.053-.088-1.069.57-.719a12.048 12.048 0 001.2.525c.142.058.321.12.321-.1a.765.765 0 00-.3-.514 3.953 3.953 0 00-1.559-.83c-.378-.127-.861.047-1.137-.757-.249-.726-.282-1.405.114-1.74.253-.214.548-.363.8-.576.193-.164.538-.261.171-.856s-.908-.832-1.051-.5c-.332.783-1.07.841-1.608 1.251-.351.267-.445.846-.066 1.652.273.578.243.935-.14 1.034-.314.081-.412.412-.4.844.013.337-.054.471-.367.413-1.07-.2-1.063-.174-1.468-1.68-.035-.129-.067-.258-.1-.387-.368-1.289-.368-1.289-1.2-1.194-.7.08-.908-.3-1.139-1.307-.327-1.424.209-1.753.907-2.022.163-.063.268-.008.454.127.63.459.9.266.693-.537-.114-.432-.136-.554.184-.675.742-.278 1.693-.346 2.129-.995.583-.869 1.616 0 2.352-.141.078-.014.222.106.284.073.735-.395 1.531.619 2.307 1.18.249.18.311.233.161.493-.18.312.242.47.406.551 1.417.71 2.52 2.233 3.671 3.633.188.228.438.512.389.8s-.319.256-.562.181a4.292 4.292 0 01-1.771-1.215c-.208-.219-.479-.534-.638-.426-.211.144.116.5.221.755a6.3 6.3 0 00.809 1.8c.218.264.443.587.7.522s-.1-.5-.066-.777c.584.679 1.017.972 1.266.289.1-.277.5-.223.838.012.734.51.706 0 .622-.624-.033-.25-.248-.648.032-.667.164-.012.333.263.488.44.342.391.073.375-.03.487s.005.329.132.5c.253.346.5.381.692.3a3.01 3.01 0 012.013.049c.166.047.379-.02.491.207.474.944.9.655 1.34.746.279.057.527-.234.823.511a.345.345 0 00.52.122c.727-.542 1.54.335 2.344 1.15.185.188.345.439.528.636.165.179.351.3.487.2s.056-.351-.051-.579a7.634 7.634 0 00-.3-.564c-.375-.67-.566-1.194.012-1.342.226-.058.339-.367.5-.568.211-.264.506-.142.854.192a.855.855 0 01.273.938c-.167.561.235 1.376.167 1.977-.056.484-.087.99-.184 1.44-.09.417-.231.81-.8.051-.151-.2-.376-.329-.473-.184-.127.192.129.405.257.583.552.764 1.011.783 1.379.474a5.218 5.218 0 00.651-.789c.3-.38.584-.121.839.525.114.286.17.585.3.862.121.253.347.546.529.5.3-.073-.084-.4-.132-.6a4.1 4.1 0 00-1.435-2.294 1.692 1.692 0 01-.1-2.236c.181.374.336.761.546 1.114s.536.841.79.716-.273-.559-.257-.846c.837-.031 1.57.694 1.931 1.928.073.25.142.471.365.534s.206-.184.185-.393a2.813 2.813 0 00-.784-1.636c-.24-.259-.384-.51-.307-.773.071-.241.3-.125.5 0q.752.473 1.5.995c.371.259.606.3.318-.306-.328-.7-.057-.74.286-.628a13.652 13.652 0 013.624 1.513c.742.493 1.373.269 2.124.8.184.129.085-.227.1-.373.073-.552.376-.707.895-.448.116.058.311.16.316.329.035 1.3.871 1.32 1.439 1.709.365.25.758.157 1.1.607.219.289.623.382.66.905.036.489-.111.709-.486.658-.542-.208-.8.187-1.267.391.527-.014.622-.776 1.279-.214z"/><path data-name="Path 3212" d="M172.085 75.438c-.348-.406-.365-.733-.2-.992.111-.177.291-.247.544-.073a1.5 1.5 0 01.692 1.064c-.064.644.473 1.167.635 1.754.146.531.364.27.487.183.4-.284.577.1.719.652.008.032.008.063.016.095.095.4.082.958.456 1.147.412.209.631-.189.7-.6.056-.324-.015-.741.466-.333.362.306.78.579.714 1.176a1.174 1.174 0 00-.016.329c.179 1.15.066 1.269-.829.947-.219-.079-.586-.458-.614-.073a1.564 1.564 0 00.526.972 5.59 5.59 0 011.452 2.131c-.66-.636-1.181-1.034-1.588-.638-.118.115-.376-.211-.544-.446-.22-.309-.036-.371.012-.52a1.406 1.406 0 00-.153-1.3 1.056 1.056 0 00-1.161-.568l.777.906c-.019.363-.284.373-.49.281-1.447-.654-1.7.789-2.424 1.371-.329.266-.216 1 .455 1.61a1.236 1.236 0 01.317.375 10.844 10.844 0 003.247 4.111c.427.4.674.645.57 1.17a3.525 3.525 0 001.013 2.531c.391.543.646.351.695-.028a8.234 8.234 0 01.635-2.822.475.475 0 000-.34 5.866 5.866 0 01-.251-2.757c.05-1.4.563-1.64 1.761-.389a19.055 19.055 0 011.329 1.736c.146.2.184.4.088.5-.311.342-.044.854.26 1.351.346.566.717.491 1.054.563.2.043.362-.091.531-.166.238-.1.454-.057.529.441a22.782 22.782 0 00.867 2.51c.243.866 1.045 1.244 1.409 2.033 0 .02 0 .067-.01.07-.2.048-.514-.021-.584.155-.18.449.219.445.415.543a6.369 6.369 0 01.737.317.906.906 0 01.327.782c.03.422-.03.711-.427.642a8.234 8.234 0 01-2.715-.95c-1.077-.607-2.075-.376-2.416.474.422.294.61-.021.9-.022a1.51 1.51 0 01.993.229c.183.125.379.309.178.478-.457.387-.385.7.348 1.43a.684.684 0 01.237.305c.031.19-.025.224-.174.092a5.991 5.991 0 00-2.327-.4.4.4 0 00-.451.485c.2.95-.23.79-.738.688-.384-.077-.568.3-.8.55-.115.128-.087.756-.553-.044-.149-.255-.275.08-.232.255.438 1.8-.479 2.16-1.268 2.588-.666.362-.847 1.012-.513 2.19.163.576.231 1.14.335 1.708.034.188.066.407-.115.382s-.273-.256-.364-.44a5.428 5.428 0 01-.41-1.439c-.25-1.208-1.523-2.652-2.387-2.705-.11-.007-.286 0-.286.089 0 .981-.545.182-.889-.082a3.6 3.6 0 00-1.606-.91c-1.129-.133-.913 1.158-1.054 2.033a5.559 5.559 0 00.491 2.781 2.756 2.756 0 001.949 1.887c.269.038.395-.1.445-.38s.153-.531.422-.54a.919.919 0 01.857.338c.3.377.122.64.092.926-.008.081-.037.148-.049.226-.083.515-.524.822-.261 1.509s.874.745 1.319 1.149a1.325 1.325 0 01.549 1.181 8.837 8.837 0 00-.082 1.165 2.522 2.522 0 001.494 2.268c.223.083.488.094.654.376.72 1.214.865.686 1.208.222.235-.316.822-.184 1.272-.257.1.354-.294.493.112.9.3.3.325-.081.461-.148.2-.1.3-.178.6.2a5.994 5.994 0 002.156 1.81c.371.154.553.462.794.915.768 1.447 1.448 2.959 2.8 3.888 1.078.741 1.279 2.053 1.638 3.192.094.3-.152.244-.257.328a1.436 1.436 0 00-.69.9c.443.146.656-.08.947-.1.135-.01.3-.149.435.209.083.224-.08.257-.2.294-.151.046-.4-.107-.45.19.408.573.753.592 1.036.377.4-.3.792-.106 1.207.641a4.887 4.887 0 001.826 1.913 7.443 7.443 0 012.086 2.615 1.439 1.439 0 01.074 1.362 2.351 2.351 0 01-.943 1.22 1.524 1.524 0 00-.573 1.393 6.355 6.355 0 01-.664 3.325c-.161.243-.3.554-.664.374a2.524 2.524 0 00-1.751-.076c-.608.088-.961.311-1.039 1.321a2.926 2.926 0 01-2.042 2.82c-.512.147-.995-.535-1.493-.98-.066.4.211.739.341 1.07.39 1 .263 1.427-.494 1.223-.723-.194-1.5-.6-1.814.221-.035.092-.251.045-.392-.014-.482-.2-.49.005-.388.6a1.279 1.279 0 01-.621 1.427c-.475.272-.537.663-.084 1.494.128.236.413.527.215.666-.838.588-1.167 1.851-2 2.461a6.952 6.952 0 00-.493-.947c-.391-.52-.889-.974-.636-1.576.151-.358-.152-1.048.326-1.224.339-.125-.222-.76-.389-1.167-.113-.275-.513-.457-.421-.756.109-.354.316.2.476.26.223.082.237-.145.269-.315a5.225 5.225 0 000-2.156 2.922 2.922 0 01-.032-1.379 50.982 50.982 0 001.342-10.689 2.356 2.356 0 00-.506-1.713 14.065 14.065 0 01-2.76-6.149c-.165-.816-.483-1.676-.746-2.517-.136-.437-.291-.858.1-.916.073-.011.162-.135.138-.2-.7-1.811.257-2.159.773-2.88a3.153 3.153 0 00.076-2.709c-.169-.569-.428-1.183-.95-.927-.12.058-.264-.011-.421-.161a6.276 6.276 0 01-1.925-2.781 3.969 3.969 0 00-1.062-1.76 17.817 17.817 0 01-1.229-1.358 11.012 11.012 0 00-2.044-2 14.844 14.844 0 01-3.249-3.776.932.932 0 01-.169-.376c-.012-1.686-1.294-3.3-1.849-4.958-.3-.9-.831-1.786-1.088-2.7a.978.978 0 00-.509-.706c-.314-.1-.2.294-.2.534.019.312-.1.239-.284.013a18.445 18.445 0 00-1.8-3.887 12.245 12.245 0 01-1.744-4.88c-.057-1.183.036-2.291.072-3.426.007-.184-.01-.447.238-.321.755.38.481-.265.25-.757a6.322 6.322 0 00-.94-1.638 8.144 8.144 0 01-1.787-3.479 23.531 23.531 0 00-1.308-3.123c-.8-1.768-1.973-2.431-2.988-3.514a19.042 19.042 0 01-2.6-2.535c-.235-.351-.533-.389-.668-.1a.422.422 0 00-.02.073c-.1.413-.472.541-.749.2-.416-.517.167-.5.178-.934-.453-.421-.7-.323-.879.044a2.235 2.235 0 01-2.3 1.392c-.158-.005-.172-.1-.137-.23a2.078 2.078 0 00.384-.312c.333-.42.232-.711-.393-1.083a10.365 10.365 0 01-2.277-2.5c-.715-.879-.491-1.75.324-1.57a.85.85 0 00.993-.273.563.563 0 00-.05-.593c-.113-.2-.224-.155-.341-.179-1.152-.237-1.252-.336-2.012-1.951a1.4 1.4 0 011.466.611c.293.331.65.56.776.233.15-.386-.3-.586-.508-.856-.19-.249-.406-.475-.577-.738-.259-.4-.73-.848-.683-1.224.042-.323.556.014.806-.043a6.024 6.024 0 011.729-.179 3.034 3.034 0 012.083.935 25.086 25.086 0 003.362 2.574 40.237 40.237 0 013.716 3.185c.392.349.347.705.453 1.072.071.246.148.592.4.618.188.019.128-.3.067-.509-.29-1.01-.114-1.084.622-.339a1.24 1.24 0 001.321.312 1.443 1.443 0 011.472.642c.486.562 1.014.475 1.548.955.7.626 1.339 1.61 2.151 1.734.116.018.467.346.325.594-.335.584.224.735.5.9.747.456 1.527.727 1.975 1.979.1.283.409.37.353.1-.115-.554.418-.453.267-1.085-.106-.443.445-.06.554.107a5.783 5.783 0 003.779 2.555.352.352 0 01.073.056c.54.118.686-.256.62-.893z"/><path data-name="Path 3213" d="M187.358 73.295c.609.622 1.227.24 1.834 1.081.635-.8 1.592.615 2.381.876.37.123.882.464.4-.5-.176-.351-.08-.4.122-.364.071.012.155-.009.212.046 1.48 1.429 2.945 1.013 4.441 2.528-.131.211-.549-.161-.608.264a2.782 2.782 0 001.068.633c.7.32 1.395.588 2.095.936.289.143.708.153.786.877.022.2.349.346.548.479a2.65 2.65 0 01.979.695c-1.816-.628-3.58-1.613-5.074-1.148a1.421 1.421 0 001.151.547 5.641 5.641 0 012.545.774c.39.244.872.272 1.119 1.037.02.061.153.183.2.18.7-.031 1.495.905 2.209.964a2.577 2.577 0 011.454.915c-.791-.143-1.394.289-2.294-.251-.2-.12-.438-.2-.522-.023-.141.3.232.394.325.583.217.447-.052.545-.213.647-.678.429-.631.863.347 2-.333-.173-.565-.3-.794-.408-.2-.092-.439-.2-.51 0-.087.244.185.377.325.542.021.026.065.053.068.069.045.253-.488.235.055.723a1.976 1.976 0 01.594.952c-.784-.069-.784-.069-.5.709-.29-.1-.456-.457-.668-.705-.408-.477-.821-1.19-1.194-.635a.051.051 0 01-.064 0c-1.264-.859-.3.643-.415.989-.054.165.263.313.429.425a3.019 3.019 0 011.01 1.053c.108.192.368.482.206.588-.2.133-.324-.224-.463-.469-.273-.479-.621-.709-.832-.46-.134.158-.436.253-.313.624s.455.374.694.553c.208.155.452.19.646.608a5.806 5.806 0 01-2.879-.831c-.9-.538-1.637-.585-2.025.23-.161.34-.513.316-.9.192a1.678 1.678 0 00-2.28 1.73c-.019.534-.227.734-.585.781-.1.013-.271.007-.338-.079-1.08-1.422-2.423-2.725-2.525-4.623 0-.057-.01-.158-.033-.179-.912-.849-.289-1.069-.115-1.367.267-.46.006-.611-.461-.852.891.392.379-.713.6-1.035.45-.639-.444-1.021-.747-1.547.348-.13.641-.311.265-1.076-.314-.638-.436-.17-.7-.218-.129-1.5-1.061-2.908-1.667-4.354a.987.987 0 00-.524-.545c-.9-.43-1.8-.884-2.7-1.307-.71-.334-.766-.383-1.223-1.364.031-.024.053-.072.092-.072.323 0 .972.511.948.078-.031-.566-.652-.66-1.009-.98-.258-.232-.55-.292-.843-.687.389-.375 1 .145 1.483.243a2.089 2.089 0 01.431.1c.593.251 1.111.132 1.08-.5-.033-.646-.683-.365-1.087-.993.959-.085 2.238.721 2.854-.144.356.009.754.429 1.109.465z"/><path data-name="Path 3214" d="M267.578 180.291c.313 1.47 1.052 2.757 1.091 4.013.036 1.183 1 2.318 1.468 3.492a6.919 6.919 0 001.246 2.186 1.114 1.114 0 01.251.9 15.464 15.464 0 01-1.331 5.706c-.162.441-.736-.092-.968.175-.319.367-.625.032-.964-.547-.185-.316-.37-.18-.555-.236a2.112 2.112 0 01-1.326-1.373c-.335-.745-.285-1.638-1.058-2.256.035-.172.074-.343.107-.518a.5.5 0 00-.1-.513c-.191-.2-.279-.047-.331.067-.294.658-.535.472-.935-.5a3.845 3.845 0 00-1.76-1.986 3.983 3.983 0 00-2.354-.588c-.761.16-1.739-.349-2.563-.3-.358.02-.859-.606-.893-1.251a14.293 14.293 0 00-.943-4.616c-.154-.389-.113-.346.2-.174.361.2.16-.334.062-.637-.408-1.262-.343-1.5.53-1.551.5-.029 1.042.031 1.547.006.566-.029 1.2.038 1.215-.886a.342.342 0 01.03-.144c.813.509.769-.579 1.3-.609.194-.011.31.033.454.268a2.424 2.424 0 00.676.738c.342.236.615.5.7-.127.155-1.212 1.2-1.221 2.171-.19.313.329.414.53.274.864-.385.919.322 2.685 1.382 3.571.293.244.343.038.432-.1a4.325 4.325 0 00.52-1.686 2.7 2.7 0 01.425-1.198z"/><path data-name="Path 3215" d="M183.236 71.945l-1.752.293c-.19.031-.388-.132-.578-.321-.79-.784-1.132-.15-1.792-.362.318.6.622.515.88.955-.623.4-1.407.2-2.348-.3.244.729.672.892 1.114 1.216-.366.244-.755.121-1.208-.2-.623-.439-1.248-.849-1.869-1.293-.252-.18-.674-.274-.662-.734.011-.413-.091-1.191.876-.268-.527-.959-.826-1.632-1.431-1.387a.982.982 0 01-.622-.093 1.276 1.276 0 01-.823-.877c-.2-.64.446 0 .411-.456a5.41 5.41 0 00-.936-.844 1 1 0 01-.392-.682c0-.24.2-.187.3-.274.833-.69 1.6.754 2.343 1.493a5.429 5.429 0 01.578 1.372 3.38 3.38 0 001.883 1.711c.116.007.235 0 .228-.167a.453.453 0 00-.278-.367 4.107 4.107 0 01-1.053-1.026c-.162-.209-.42-.46-.353-.7.077-.271.348-.08.569.1.609.491 1.194.875 1.652.521.073-.092.294-.1 0-.4a3.481 3.481 0 01-2.12-1.229c-.09-.1-.216-.251-.283-.252-.814-.019-1.135-.991-1.737-1.891 1.134.683 1.939.328 2.936.955.067.043.177.063.2.018.527-1.088 1.657-.037 2.554.44.839.448 1.7 1.072 2.548 1.547a2 2 0 011.08 1.044c.137.32.412.379.635.489a3.9 3.9 0 01.669.344 1.506 1.506 0 01.7.942c.036.361-.334.175-.549.167-.294-.011-.6-.056-.9-.088-.154.212-.5.168-.47.604z"/><path data-name="Path 3216" d="M181.282 83.007c-.462-2.2-1.913-3.249-3.273-4.3a23.886 23.886 0 00-2.627-1.686 2.6 2.6 0 01-1.129-1.818c-.182-.739.2-.845.59-.915.283-.052.594-.021.894.476a1.369 1.369 0 01.221 1.238c-.1.192-.251.287-.03.654.088.148.191.346.318.3.054-.019.072-.17.052-.277a2.822 2.822 0 01-.073-.9c.071-.481.3-.679.771-.459.489.229.365.632.45.978.143.589 1.012 1.44 1.369 1.287.61-.263 1.079.224 1.513 1.1a1.273 1.273 0 00.419.571c.774.343 1.172 1.472 1.883 1.986.3.218.765.7.393 1.126-.182.207.105.665.339.825a21.874 21.874 0 011.71 1.833c.191.17.537.679.321.686-.341.012-.245 1-.9.223a8.276 8.276 0 01-.585-.88c-.269-.423-.539-.611-.8-.475-.319.163-.014.552.149.876.142.284.31.558.457.841a3.275 3.275 0 01.5 1.327c.011.376-.6.047-.363.7.038.1-.15-.045-.228-.127a14.073 14.073 0 01-2.208-2.439 3.312 3.312 0 00-1.847-1.7.563.563 0 01-.5-.473c-.053-.345.208-.235.4-.162.247.094.5.226.749.348.207.1.339.17.362-.17.039-.585.407-.483.864-.012.286-.106.28-.13-.161-.582z"/><path data-name="Path 3217" d="M256.272 169.755c-.551-.561-1.211-.7-1.658-1.625-.831-1.729-.8-2.363.393-2.664a5.571 5.571 0 001.71-.7c.329-.215.547-.009.868.5.336.537.229.711-.038.815-.314.122-.343.319.009.884a.936.936 0 01.026 1.093c-.341.407-.834.683-.764 1.574.031.408-.317.186-.546.123z"/><path data-name="Path 3218" d="M163.615 68.179c.341.073.749-.206.917.787a2.041 2.041 0 00.9.375c.576-.015.836.555 1.17 1.059.156.235.388.633.436.294.089-.612.537-.538.978-.667a3.217 3.217 0 00.174 1.794 2.736 2.736 0 001.2 1.555c-.234.654-.591.717-1.245-.071a1.58 1.58 0 00-1.1-.609 3.845 3.845 0 01-3.3-2.358c.388.193.781.4 1.173.577.161.074.4.234.39-.053 0-.212-.205-.334-.348-.458a4.71 4.71 0 00-1.122-.662 1.436 1.436 0 01-.676-.942c-.154-.474-.007-.594.231-.655.054-.069.13-.046.222.034z"/><path data-name="Path 3219" d="M263.16 172.227a1.322 1.322 0 01.876 1.042c.209.768.558 1.226 1.05.918.251-.158.5.005.814.315a29.012 29.012 0 012.444 2.742 4.5 4.5 0 011.2 2.331 6.629 6.629 0 00.841 1.731 2.6 2.6 0 01-1.189-1.268c-.559-1.233-.746-1.382-1.473-1.121-.242.087-.456-.062-.694-.293-.379-.368-.751-.757-1.126-1.134-.114-.114-.29-.244-.206-.383.456-.747-.332-1.419-.782-2.1a4.914 4.914 0 00-1.033-1.089c-.281-.231-.485-.376-.3-.7.207-.366-.393-.564-.422-.991z"/><path data-name="Path 3220" d="M230.011 159.38a3.5 3.5 0 01.221 2.015c-.263 1.234-.573 2.429-.871 3.633a1.772 1.772 0 01-.2.534c-.159.244-.45.2-.762.024a1.273 1.273 0 01-.49-.858 2.445 2.445 0 01-.027-1.942 2.256 2.256 0 00.129-1.286c-.029-.616.143-1.017.6-1.056a1.447 1.447 0 001.4-1.064z"/><path data-name="Path 3221" d="M261.993 151.595c.666.644.87 0 1.3.172.816.327 1.361-.15 2.154.151.044.016.12 0 .116-.027-.1-.826.953-.277.762-1.245-.057-.289.118-.53.446-.29a1.117 1.117 0 01.446.954 14.442 14.442 0 01-.675 2.614c-.047.217-.276.039-.447-.039a3.863 3.863 0 00-.739-.318c-.737-.139-.732-.122-1.269-.851-.186.079.168.375.071.434a12.856 12.856 0 01-1.463.817c-.115.052-.3-.3-.276-.451a5.973 5.973 0 00-.426-1.921z"/><path data-name="Path 3222" d="M208.581 105.211c.175.383.094.787.5.978.115.054.218.235.156.3-.442.474.134 1.123.451 1.678.457.8.392 1.653 1.047 2.456.258.317-.188.773-.687.587-.244-.09-.5-.266-.749-.388s-.484-.22-.852-.386c.22-.252.813-.231.063-.993-.2-.2.084-.424.261-.532.384-.231.315-.672-.133-1.287-.737-1.018-.775-1.921-.057-2.413z"/><path data-name="Path 3223" d="M248.705 160.584a2.734 2.734 0 011.1 1.218 37.752 37.752 0 011.844 3.67 2.918 2.918 0 00.753 1.119c.321.3.4.567.256.8s-.075.807-.423.7-.541-.668-.751-1.055a29.145 29.145 0 01-1.617-3.819c-.316-.838-.724-1.652-1.162-2.633z"/><path data-name="Path 3224" d="M237.679 107.734a4.288 4.288 0 01-2.373-.352c-1.269-.476-1.965.175-2.643.869-.314.32.1.9.3 1.4a3.346 3.346 0 01-1.528-1.6.392.392 0 01.324-.535c.629-.048.756-.756 1.078-1.2.086-.119.156-.2.313-.125.555.253 1.059.2 1.6.444a27.205 27.205 0 002.929 1.099z"/><path data-name="Path 3225" d="M218.059 93.963c.456.46.7.779.091.843-.393.041-.526.523-.736.86-.121.193-.258.42-.557-.062-.156-.25-.615-.624-.177-.776.162-.056.2-.219-.055-.483-.218-.222-.093-.256 0-.292.143-.055.452.033.293-.32a.468.468 0 00-.608-.3c-.474.272-.965-.672-1.419-.588-.081-.577.843-.153.179-1.1-.094-.137.236-.069.388-.007.13.053.315-.034.388.37.107.588.163.66.549.537.454-.143.766.139 1.055.811.181.274.448.155.609.507z"/><path data-name="Path 3226" d="M163.616 68.179l-.219-.034c-.3-.516-.531-.41-.78-.337a8.277 8.277 0 01-.98.216c-.359.057-.587-.37-.854-.755-.308-.444-.152-.526.006-.681.268-.265-.045-1.313.708-.911a17.676 17.676 0 011.482 1c.63.427.92.916.637 1.502z"/><path data-name="Path 3227" d="M201.225 96.172c.795.044 1.449-.355 2.451.26a1.9 1.9 0 01.894 1.208c.173.637-.305.395-.559.4a4.183 4.183 0 01-1.044-.138 2.663 2.663 0 01-1.742-1.73z"/><path data-name="Path 3228" d="M178.189 74.488c.04.325-.116.427-.45.275a14.241 14.241 0 01-4.024-2.551c-.072-.066-.182-.135-.208-.206a5.928 5.928 0 00-1.784-2.378c.748.475 1.537.689 2.063 1.866a2.428 2.428 0 001.168 1.119c1.072.648 2.143 1.248 3.235 1.875z"/><path data-name="Path 3229" d="M277.189 206.361a1.767 1.767 0 01.81-.856 3.431 3.431 0 001.136-.944c.1-.149.328-.224.573.117a.53.53 0 01.049.649c-.386.6-.962.966-1.151 1.826-.094.421-.331.256-1.417-.792z"/><path data-name="Path 3230" d="M267.277 147.869a9.989 9.989 0 001.262 1.508c.2.2-.021.475-.209.494-.465.046-.951.039-1.432.04-.176 0-.282-.217-.366-.408-.134-.305-.234-.718-.062-.755.38-.081.469-.444.55-.85.02-.111.1-.131.257-.029z"/><path data-name="Path 3231" d="M177.288 109.177a16.14 16.14 0 012.752 2.993c.129.168.231.425.06.457a.876.876 0 01-.955-.534 4.3 4.3 0 00-.956-1.325c-.376-.33-.734-1.316-1.189-.824a3.6 3.6 0 01-.509-.748c-.092-.275.177-.2.325-.184a2.378 2.378 0 01.472.165z"/><path data-name="Path 3232" d="M166.695 66.783a8.621 8.621 0 00.928 1.582 6.337 6.337 0 01-2.227-.694c-.454-.315-.879-1.267-1.525-1.5-.064-.023-.1-.36-.044-.5.071-.159.229-.1.377.03.34.289.686.577 1.011.909 1.071 1.1 1.081 1.109 1.48.173z"/><path data-name="Path 3233" d="M187.834 98.756c-.2.332-.28.517.223.84a1.465 1.465 0 01.6 1.515c-.023.243-.242.125-.367.176-.087.036-.23-.1-.232-.223-.017-.885-.5-.705-.819-.858a1.183 1.183 0 01-.725-.713c-.153-.43.09-.489.263-.58a1.192 1.192 0 011.057-.157z"/><path data-name="Path 3234" d="M259.657 170.239c-.914-.235-.915-.235-.411.889.223.5.338.939.12 1.261a2.027 2.027 0 01-.38-.971c-.077-.242-.1-.589-.35-.666-.227-.071-.183.272-.178.5.006.315.035.644.057 1-.739-1.345-.581-3.491.256-3.545.063.358-.633.211-.093.821a5.506 5.506 0 00.979.711z"/><path data-name="Path 3235" d="M218.059 93.963a1.874 1.874 0 01-.606-.508c.262.174.524.158.518-.09-.022-1.089.546-.235.837.109.271.322.344.4.584.261.5-.284 1.048.509 1.655.968-.529.438-1.105.273-1.842-.335-.37-.305-.881-.995-1.146-.405z"/><path data-name="Path 3236" d="M248.649 110.571a1.431 1.431 0 01.583.657c.132.344.251.577.485.393a.216.216 0 01.371.09 1.494 1.494 0 01.04 1.026c-.04.175-.174.176-.343.021-.691-.636-1.385-1.266-2.069-1.925-.309-.3-.042-.333 0-.464.24-.244.544-.207.933.202z"/><path data-name="Path 3237" d="M171.498 73.146c.036.339-.122.324-.29.312-.615-.043-1.018-.74-1.344-1.372-.073-.14.12-.666.415-.713.578-.093.754.116.931.976a5.589 5.589 0 00.288.797z"/><path data-name="Path 3238" d="M280.591 205.056c-.452-.9-.788-1.636-.5-2.291.1-.227.075-.277.364-.144.488.225.658.8.962 1.179.14.175-.154.428-.346.561a2.671 2.671 0 00-.48.695z"/><path data-name="Path 3239" d="M207.811 107.743a.834.834 0 01-1.233.767.371.371 0 01-.248-.432 2.248 2.248 0 01.658-1.342c.121-.116.29-.029.471.169a1.126 1.126 0 01.352.838z"/><path data-name="Path 3240" d="M258.482 159.908c.025-.157.056-.427.114-.674s.218-.351.491-.09c.3.291.4.705.233.829-.609.442-.071 1.186.336 1.914.207.371.417.742.616 1.117.07.131.221.361 0 .307-.1-.024-.257.106-.348-.254a4.531 4.531 0 00-1.115-1.853 1.661 1.661 0 01-.327-1.296z"/><path data-name="Path 3241" d="M267.617 142.033a12.123 12.123 0 00.507 3.575c.024.074.01.217-.006.211-.9-.294-.417.62-.3 1.2.032.158.118.357-.042.343a.379.379 0 01-.289-.419c.228-1.524-.679-3.726.13-4.91z"/><path data-name="Path 3242" d="M255.128 119.346c-.361-.188-.355.267-.478.409a1.076 1.076 0 01-1.55-.069c-.262-.255-.354-.5-.085-.51.69-.031 1.237-.49 2.113.026v.144z"/><path data-name="Path 3243" d="M232.075 101.006c-.264-.031-.462-.2-.706-.607-.164-.272-.592-.534-.543.028.016.192-.013.173-.12.129-.235-.1-.29-.325-.351-.555-.071-.269-.332-.6-.152-.785.121-.123.29-.126.521.068.647.543 1.3 1.07 1.946 1.6.109.089.21.218.2.322-.013.084-.109.124-.187.136-.193.027-.395-.197-.608-.336z"/><path data-name="Path 3244" d="M255.941 172.134c-1.037-.863-1.906-1.576-2.769-2.316-.176-.15-.455-.413-.391-.648.072-.264.328.064.506.2.608.478 1.221.943 1.82 1.459a2.789 2.789 0 01.834 1.305z"/><path data-name="Path 3245" d="M163.981 97.711l.284-.013c.614 1.654 1.228 3.308 1.9 5.107a4.407 4.407 0 01-.957-1.553 28.253 28.253 0 01-1.227-3.541z"/><path data-name="Path 3246" d="M172.262 73.008c-.028-.448.038-.653.294-.6a1.82 1.82 0 011.023.475c.112.109.142.263.073.321-.325.27-.827.222-1.11.585-.051.065-.19-.236-.222-.388a3.585 3.585 0 01-.058-.393z"/><path data-name="Path 3247" d="M268.936 198.298c.282.243.72.349.7.9-.014.378-.09.8-.574.491a1.679 1.679 0 01-.615-1.3c-.102-.547.276-.149.489-.091z"/><path data-name="Path 3248" d="M259.218 165.368c.4-.568.988-.127 1.47.045.179.064.182.4.19.6.013.344-.077.578-.352.585a.458.458 0 01-.43-.4 1.056 1.056 0 00-.878-.83z"/><path data-name="Path 3249" d="M181.636 156.759c.091-.206.407.036.454-.249.031-.184-.021-.679.329-.279a3.124 3.124 0 01.83 1.605c.027.269-.272.14-.472-.034-.384-.33-.756-.685-1.141-1.043z"/><path data-name="Path 3250" d="M267.36 126.202a2.2 2.2 0 00-1.131-.6.705.705 0 01-.514-.506.56.56 0 01.023-.56c.131-.154.389-.063.518.178.316.6 1.127.391 1.146 1.385.001.023-.015.04-.042.103z"/><path data-name="Path 3251" d="M252.398 114.32l-1.9-.55c.185-.508.423-.8.863-.691.412.107.755.559 1.037 1.241z"/><path data-name="Path 3252" d="M171.649 76.391c-.029-.388-.229-.426-.43-.47-.313-.069-.453-.413-.594-.73a.258.258 0 01.069-.35c.184-.153.385.024.594.3a1.608 1.608 0 00.648.516c.211.039.515.122.447.471-.066.329-.125.917-.734.263z"/><path data-name="Path 3253" d="M247.593 109.617c.079-.439.447-.338.762-.294a1.2 1.2 0 01.81.887c.15.553-.287.24-.509.231-.381-.105-.789-.046-1.063-.824z"/><path data-name="Path 3254" d="M167.984 64.796a4.186 4.186 0 012.19 2.7c-.613-.962-1.521-1.499-2.19-2.7z"/><path data-name="Path 3255" d="M170.721 69.858c-.035.272-.161.383-.4.182a2.646 2.646 0 01-.849-1.348c-.082-.346.264-.2.482-.047a1.749 1.749 0 01.767 1.213z"/><path data-name="Path 3256" d="M163.484 64.259c-.242.439-1.467.466-1.985.05.463-.601 1.195-.343 1.985-.05z"/><path data-name="Path 3257" d="M182.661 114.872a3.679 3.679 0 01-1.337-.523c-.178-.107-.481-.189-.47-.511.008-.239.218-.325.484-.166a4.169 4.169 0 011.323 1.2z"/><path data-name="Path 3258" d="M229.952 99.949c-.344-.052-.551-.382-.763-.617s-.52-.551-.382-.83c.117-.24.428-.121.7.03.158.086.348.323.2.419-.358.227.081.598.245.998z"/><path data-name="Path 3259" d="M259.761 175.286a1.032 1.032 0 011.081-.569.411.411 0 01.336.27c.083.187.02.292-.073.338a1.3 1.3 0 01-1.344-.039z"/><path data-name="Path 3260" d="M271.172 178.504c.125.252.022.341-.065.416-.2.172-.393.379-.756.165a.489.489 0 01-.212-.419c.033-.423.424-.168.642-.242a.288.288 0 01.391.08z"/><path data-name="Path 3261" d="M242.531 154.931a1.758 1.758 0 01.377 1.085c0 .279-.181.329-.393.158a.91.91 0 01-.3-.927c.022-.201.04-.445.316-.316z"/><path data-name="Path 3262" d="M177.974 68.86c.33-.06.749-.246 1.063.238.413.636-.073.461-.336.408a4.666 4.666 0 01-.5-.144 2 2 0 01-.222-.1c-.003-.13-.004-.265-.005-.402z"/><path data-name="Path 3263" d="M184.582 99.881l.174-.092.533.772-1.331.173c-.112-.764.57-.4.624-.853z"/><path data-name="Path 3264" d="M165.027 64.937c.469.172.18-.81.7-.521.157.088.379.128.434.437.039.217-.113.247-.233.269-.256.046-.476.236-.901-.185z"/><path data-name="Path 3265" d="M179.177 76.861a2.059 2.059 0 01-.341-.086c-.284-.117-.6-.109-.807-.625-.037-.091-.014-.264.037-.281.28-.091.565.241.844.52a.826.826 0 01.267.472z"/><path data-name="Path 3266" d="M183.236 71.949c-.177-.158-.448-.163-.519-.477s.2-.238.361-.24a3.272 3.272 0 01.623.118c.016.424-.124.641-.465.599z"/><path data-name="Path 3267" d="M171.649 76.391c.372.223.549.057.6-.282.036-.227-.191-.314-.316-.449l.15-.22c.534.331.54.7.367 1.027-.2.38-.442.692-.989-.131z"/><path data-name="Path 3268" d="M149.39 71.069c.008.143.031.226.012.247-.2.21-.386.446-.775.252a.482.482 0 01-.122-.241c.144-.396.488-.352.885-.258z"/><path data-name="Path 3269" d="M276.951 191.33c0 .2-.089.26-.224.144a1.709 1.709 0 01-.612-.91c-.028-.125.092-.157.2-.081a1.6 1.6 0 01.636.847z"/><path data-name="Path 3270" d="M247.593 109.621a4.024 4.024 0 001.063.824.876.876 0 01-.007.125 1.614 1.614 0 01-.93-.2c-.311-.338-.425-.611-.126-.749z"/><path data-name="Path 3271" d="M231.657 99.584c.456.042.7.4.938.382a.392.392 0 01.41.38c.016.291-.243.226-.433.088a12.038 12.038 0 01-.915-.85z"/><path data-name="Path 3272" d="M267.69 127.635c-.289.055-.563-.013-.781-.477-.091-.192-.093-.48.012-.46.365.066.461.661.769.937z"/><path data-name="Path 3273" d="M233.833 101.632c-.093.155-.188.354-.417.165a1.008 1.008 0 01-.27-.706c-.027-.252.119-.231.282-.044.149.171.437.237.405.585z"/><path data-name="Path 3274" d="M181.277 83.007c.126.079.252.15.376.237a.877.877 0 01.424.529c.041.184-.042.259-.149.279-.211.04-.377-.124-.493-.444.059-.181-.078-.396-.158-.601z"/><path data-name="Path 3275" d="M234.394 111.567a1.318 1.318 0 01-.457-.758c-.014-.2.154-.124.275-.022a1.075 1.075 0 01.465.74c.007.187-.143.126-.283.04z"/><path data-name="Path 3276" d="M282.136 138.079c.334-.065.676-.045 1.172.565a1.591 1.591 0 01-1.172-.565z"/><path data-name="Path 3277" d="M258.76 156.665c-.25-.557-.212-.915.125-1.16a1.213 1.213 0 01-.125 1.16z"/><path data-name="Path 3278" d="M146.796 70.595l.137.23a2.134 2.134 0 01-1.68-.151z"/><path data-name="Path 3279" d="M238.429 185.893c-.047.18-.167.226-.319.133a.96.96 0 01-.426-.729c-.018-.168.1-.21.237-.077a1.511 1.511 0 01.508.673z"/><path data-name="Path 3280" d="M215.478 122.708a.844.844 0 01.9.517c.078.147.079.355-.045.35-.334-.014-.524-.43-.855-.867z"/><path data-name="Path 3281" d="M147.652 93.397c.233.39.566.754.509 1.145-.022.149-.177.125-.292-.014-.361-.437-.106-.732-.217-1.131z"/><path data-name="Path 3282" d="M185.48 98.242c-.018.181-.13.169-.263.081a1.153 1.153 0 01-.536-.693c-.042-.192.127-.149.255-.063a1.174 1.174 0 01.544.675z"/><path data-name="Path 3283" d="M236.486 102.727c-.085.269-.351.029-.543-.012-.113-.023-.293-.111-.254-.289.055-.256.32-.125.526-.059a.417.417 0 01.271.36z"/><path data-name="Path 3284" d="M187.358 73.295c-.21.033-.693-.467-.564.246.025.139-.181.054-.306-.035-.309-.22-.192-.447-.233-.671.34-.067.727.234 1.103.46z"/><path data-name="Path 3285" d="M195.636 164.669c.005.2-.1.191-.233.117a1.108 1.108 0 01-.543-.658c-.063-.219.086-.184.215-.1a1.31 1.31 0 01.561.641z"/><path data-name="Path 3286" d="M219.815 96.306c-.079.217-.271.082-.437-.006-.147-.079-.322-.19-.288-.428s.214-.171.4-.042a.889.889 0 01.325.476z"/><path data-name="Path 3287" d="M262.46 172.962c-.032.217-.2.135-.341.055-.163-.09-.4-.169-.421-.457-.017-.211.183-.142.328-.077a.72.72 0 01.434.479z"/><path data-name="Path 3288" d="M235.223 101.911c-.172.3-.3.483-.588.321a.272.272 0 01-.125-.32c.124-.236.336-.268.713-.001z"/><path data-name="Path 3289" d="M230.062 109.743a.388.388 0 01-.222-.393c.045-.214.188-.289.413-.16a.422.422 0 01.22.393c-.04.229-.222.223-.411.16z"/><path data-name="Path 3290" d="M180.713 155.599c-.2-.336-.491-.639-.479-.987 0-.119.142-.09.238.022a1.233 1.233 0 01.241.965z"/><path data-name="Path 3291" d="M231.573 129.678c.232-.081.375.117.439.371.069.274-.117.2-.259.175-.29-.059-.268.138-.086.457a1.78 1.78 0 01.179.84c.035.372.223.913-.176.907a1.585 1.585 0 01-1.215-.789 1.255 1.255 0 01-.261-1.3 1.773 1.773 0 00-.182-1.769 4.419 4.419 0 01-.326-1.059c-.367-1.483.177-2.051 1.34-1.421a.725.725 0 01.463.569c.037.248-.038.337-.235.33-.611-.02-.692.44-.287 1.286a2.761 2.761 0 01.31.954c.016.232.084.459.296.449z"/><path data-name="Path 3292" d="M223.067 112.271a.983.983 0 01-.556-.873c-.046-.271.1-.328.3-.193a1.485 1.485 0 01.626.978c.069.449-.287.01-.37.088z"/><path data-name="Path 3293" d="M234.254 129.649a.573.573 0 01-.309-.483c-.016-.384.132-.6.43-.583.2.013.259.247.262.434.006.367-.073.64-.383.632z"/><path data-name="Path 3294" d="M175.994 94.71a5.7 5.7 0 00-2.049-1.766c.961-.712 1.35-.477 2.153 1.321a3.171 3.171 0 00.994 1.262c.621.481.9.9.4 1.285a1.11 1.11 0 00-.167.236 2.89 2.89 0 01-.589-1.2.989.989 0 00-.4-.683c-.273-.194-.374.017-.491.169-.276.363-.274 1-.495 1.467-.451-1.558-.335-1.969.644-2.091z"/><path data-name="Path 3295" d="M177.25 98.249a2.235 2.235 0 012.279-.074c-.779-.026-1.514.045-2.279.074z"/></g><g data-name="Group 1961"><path data-name="Path 3296" d="M144.859 19.958l-7.45-4.3v-8.6l7.45 4.3z" fill="#fff"/><path data-name="Path 3297" d="M156.034 26.411l-7.449-4.3v-8.6l7.449 4.3z" fill="#273568"/><path data-name="Path 3298" d="M167.208 32.862l-7.45-4.3v-8.6l7.45 4.3z" fill="#25c5ff"/></g><path data-name="Path 3299" d="M231.483 67.701l-55.753-32.19a3.65 3.65 0 01-1.523-2.911c0-1.122.682-1.637 1.523-1.151l55.753 32.19a3.646 3.646 0 011.523 2.913c0 1.119-.681 1.635-1.523 1.149z" fill="#c4c4dc"/></g></g><g data-name="Group 1964"><path data-name="Path 3300" d="M162.165 155.216l-58.767-33.928V79.962l58.765 33.928z" fill="#c9cbcc" style="mix-blend-mode:multiply;isolation:isolate"/><path data-name="Path 3301" d="M157.634 149.953l-58.766-33.928V74.699l58.766 33.928z" fill="#eeeefa"/><path data-name="Path 3302" d="M157.634 113.866L98.868 79.938v-5.241l58.766 33.928z" fill="#d8d8ed"/><g data-name="Group 1963"><path data-name="Path 3303" d="M113.864 96.598c0 1.942-1.363 2.728-3.045 1.758a6.733 6.733 0 01-3.044-5.274c0-1.942 1.363-2.728 3.044-1.757a6.728 6.728 0 013.045 5.273z" fill="#4866ea"/><path data-name="Path 3304" d="M147.744 117.472l-29.92-17.276a2.359 2.359 0 01-.984-1.882c0-.724.44-1.058.984-.744l29.923 17.276a2.361 2.361 0 01.984 1.882c-.007.725-.444 1.058-.987.744z" fill="#c4c4dc"/><path data-name="Path 3305" d="M113.864 106.584c0 1.942-1.363 2.728-3.045 1.758a6.731 6.731 0 01-3.044-5.273c0-1.942 1.363-2.729 3.044-1.758a6.728 6.728 0 013.045 5.273z" fill="#273868"/><path data-name="Path 3306" d="M147.744 127.458l-29.92-17.276a2.357 2.357 0 01-.984-1.881c0-.725.44-1.059.984-.745l29.92 17.276a2.36 2.36 0 01.984 1.882c-.004.725-.441 1.058-.984.744z" fill="#c4c4dc"/><path data-name="Path 3307" d="M113.864 116.571c0 1.942-1.363 2.729-3.045 1.758a6.73 6.73 0 01-3.044-5.273c0-1.942 1.363-2.729 3.044-1.758a6.73 6.73 0 013.045 5.273z" fill="#25c5ff"/><path data-name="Path 3308" d="M147.744 137.446l-29.92-17.277a2.355 2.355 0 01-.984-1.881c0-.725.44-1.058.984-.745l29.923 17.277a2.357 2.357 0 01.984 1.881c-.007.725-.444 1.062-.987.745z" fill="#c4c4dc"/></g><path data-name="Path 3309" d="M3298.793-352.417l-58.765-33.928 2.373-1.444 58.765 33.928z" transform="translate(-3141.17 461.036)" fill="url(#a)"/><path data-name="Path 3310" d="M3308.048-308.563l-2.373 1.444v-41.326l2.373-1.444z" transform="translate(-3148.052 457.063)" fill="url(#c)"/></g><g data-name="Group 1969"><g data-name="Group 1968"><g data-name="Group 1967"><g data-name="Group 1965"><path data-name="Path 3311" d="M275.756 174.044v4.407l-7.512-8.744-28.1-16.222v-21.816l35.609 20.559z" fill="#c9cbcc" style="mix-blend-mode:multiply;isolation:isolate"/><path data-name="Path 3312" d="M272.166 169.554v4.407l-7.512-8.744-28.1-16.222v-21.816l35.609 20.559z" fill="#eeeefa"/><path data-name="Path 3313" d="M272.167 150.505l-35.535-20.516v-2.767l35.535 20.516z" fill="#d8d8ed"/></g><g data-name="Group 1966" fill="#c4c4dc"><path data-name="Path 3314" d="M249.153 145.849c0 1.594-1.12 2.241-2.5 1.443a5.524 5.524 0 01-2.5-4.33c0-1.594 1.119-2.241 2.5-1.444a5.53 5.53 0 012.5 4.331z"/><path data-name="Path 3315" d="M256.862 150.3c0 1.594-1.119 2.241-2.5 1.443a5.524 5.524 0 01-2.5-4.33c0-1.594 1.119-2.241 2.5-1.444a5.527 5.527 0 012.5 4.331z"/><path data-name="Path 3316" d="M264.571 154.75c0 1.6-1.119 2.242-2.5 1.444a5.528 5.528 0 01-2.5-4.331c0-1.594 1.12-2.241 2.5-1.443a5.525 5.525 0 012.5 4.33z"/></g></g></g><path data-name="Path 3317" d="M3429.46-307.112l-35.607-20.559 1.838-1.119 35.607 20.559z" transform="translate(-3157.296 454.851)" fill="url(#d)"/><path data-name="Path 3318" d="M3435.468-279.6l-1.838 1.119V-304.7l1.838-1.119z" transform="translate(-3161.465 452.444)" fill="url(#c)"/></g><g data-name="Group 1975"><g data-name="Group 1974"><g data-name="Group 1973"><path data-name="Path 3319" d="M222.835 214.149l-58.765-33.928v-41.326l58.765 33.928z" fill="#eeeefa"/><path data-name="Path 3320" d="M222.835 178.066l-58.765-33.928v-5.241l58.765 33.928z" fill="#d8d8ed"/><g data-name="Group 1970"><path data-name="Path 3321" d="M169.272 175.912a1.488 1.488 0 01-.315-.25 1.726 1.726 0 01-.515-1.619c.167-.41 4.16-10.038 11.134-9.488 7.939.626 16.991 8.784 19.577 11.271 3.942 3.791 12.736 9.9 17.8 5.876.317-.251.877.016 1.252.6s.423 1.256.108 1.507c-5.678 4.508-15.381-2.189-19.717-6.359-2.435-2.34-10.952-10.023-18.312-10.6-6.282-.494-10.14 8.792-10.178 8.887-.138.325-.476.382-.834.175z" fill="#4866ea"/></g><g data-name="Group 1971"><path data-name="Path 3322" d="M199.126 189.557c-4.453-2.571-6.532-6.581-8.545-10.461a32.932 32.932 0 00-6.055-8.963c-6.24-6.139-11.4-2.439-11.451-2.4-.323.239-.883-.041-1.252-.626s-.408-1.254-.087-1.495c.242-.181 5.99-4.344 13.38 2.927a36.819 36.819 0 016.815 10.005c1.99 3.835 3.56 6.864 7.194 8.962 3.919 2.263 5.661-.714 7.867-4.483 1.477-2.523 3.149-5.382 5.794-7.128.334-.221.9.082 1.255.675s.378 1.253.043 1.474c-2.472 1.633-4.084 4.388-5.507 6.819-2.282 3.902-4.439 7.587-9.451 4.694z" fill="#273868"/></g><g data-name="Group 1972"><path data-name="Path 3323" d="M185.042 185.018l-9.669-5.582a1.965 1.965 0 01-.888-1.538c0-.567.4-.8.888-.513l9.669 5.582c5.36 3.095 16.426 4.832 16.426-9.543 0-.567.4-.8.888-.513a1.965 1.965 0 01.888 1.538c0 15.926-12.263 13.998-18.202 10.569z" fill="#25c5ff"/></g></g></g><path data-name="Path 3324" d="M3371.656-280.638l-58.765-33.928 2.373-1.444 58.765 33.928z" transform="translate(-3148.809 453.512)" fill="url(#a)"/><path data-name="Path 3325" d="M3380.91-236.783l-2.373 1.444v-41.326l2.373-1.444z" transform="translate(-3155.691 449.539)" fill="url(#c)"/></g><g data-name="Group 1988"><path data-name="Path 3326" d="M141.456 82.85L82.691 48.924V7.598l58.765 33.928z" fill="#c9cbcc" style="mix-blend-mode:multiply;isolation:isolate"/><path data-name="Path 3327" d="M3275.2-434.241l-58.765-33.928 2.373-1.444 58.765 33.928z" transform="translate(-3138.698 469.613)" fill="url(#a)"/><path data-name="Path 3328" d="M3284.454-390.386l-2.372 1.444v-41.326l2.373-1.444z" transform="translate(-3145.579 465.64)" fill="url(#c)"/><g data-name="Group 1987"><g data-name="Group 1986"><g data-name="Group 1976"><path data-name="Path 3329" d="M136.502 76.698L77.737 42.77V1.444l58.765 33.928z" fill="#eeeefa"/><path data-name="Path 3330" d="M136.502 40.613L77.737 6.685V1.444l58.765 33.928z" fill="#d8d8ed"/></g><g data-name="Group 1985"><g data-name="Group 1980"><g data-name="Group 1977"><path data-name="Path 3331" d="M120.931 37.778c-5.414-3.126-9.8-.593-9.8 5.658s4.388 13.852 9.8 16.978 9.8.592 9.8-5.659-4.386-13.852-9.8-16.977zm0 18.641a14.018 14.018 0 01-6.342-10.985c0-4.044 2.84-5.684 6.342-3.662a14.02 14.02 0 016.342 10.986c.001 4.044-2.839 5.688-6.342 3.661z" fill="#4866ea"/></g><g data-name="Group 1978"><path data-name="Path 3332" d="M120.931 37.778v3.994a14.021 14.021 0 016.342 10.986l3.46 2c.001-6.254-4.389-13.855-9.802-16.98z" fill="#273868"/></g><g data-name="Group 1979"><path data-name="Path 3333" d="M126.38 48.491a11.726 11.726 0 01.894 4.266l3.459 2a17.924 17.924 0 00-1.271-6.312z" fill="#25c5ff"/></g></g><g data-name="Group 1984"><g data-name="Group 1981"><path data-name="Path 3334" d="M93.308 21.83c-5.414-3.126-9.8-.593-9.8 5.658s4.388 13.852 9.8 16.978 9.8.592 9.8-5.659-4.387-13.852-9.8-16.977zm0 18.641a14.017 14.017 0 01-6.342-10.985c0-4.044 2.839-5.684 6.342-3.662A14.021 14.021 0 0199.65 36.81c0 4.044-2.84 5.683-6.342 3.661z" fill="#4866ea"/></g><g data-name="Group 1982"><path data-name="Path 3335" d="M93.308 21.83v3.994A14.021 14.021 0 0199.65 36.81c0 4.044-2.84 5.683-6.342 3.661a14.017 14.017 0 01-6.342-10.985l-3.46-2c0 6.251 4.388 13.852 9.8 16.978s9.8.592 9.8-5.659-4.385-13.848-9.798-16.975z" fill="#273868"/></g><g data-name="Group 1983"><path data-name="Path 3336" d="M93.308 21.83v3.994a12.973 12.973 0 014.484 4.734l2.448-1.409a20.032 20.032 0 00-6.932-7.319z" fill="#25c5ff"/></g></g></g></g></g></g><g data-name="Group 1993"><path data-name="Path 3337" d="M312.673 158.636l-58.765-33.928V83.382l58.765 33.928z" fill="#c9cbcc" style="mix-blend-mode:multiply;isolation:isolate"/><path data-name="Path 3338" d="M3466.216-349.9l-58.765-33.928 2.372-1.444 58.766 33.928z" transform="translate(-3158.721 460.772)" fill="url(#a)"/><path data-name="Path 3339" d="M3475.47-306.043l-2.37 1.443v-41.326l2.373-1.444z" transform="translate(-3165.602 456.799)" fill="url(#c)"/><g data-name="Group 1992"><g data-name="Group 1991"><g data-name="Group 1990"><path data-name="Path 3340" d="M307.502 152.195l-58.765-33.928V76.941l58.765 33.928z" fill="#eeeefa"/><path data-name="Path 3341" d="M307.502 116.11l-58.765-33.928v-5.241l58.765 33.928z" fill="#d8d8ed"/><g data-name="Group 1989"><path data-name="Path 3342" d="M266.969 122.161l-2.96-1.709v-19.141l2.96 1.709z" fill="#4866ea"/><path data-name="Path 3343" d="M269.93 123.869l-2.96-1.709v-11.051l2.96 1.709z" fill="#273868"/><path data-name="Path 3344" d="M292.232 136.744l-2.96-1.709v-22.1l2.96 1.709z" fill="#273868"/><path data-name="Path 3345" d="M292.232 136.744l-2.96-1.709v-22.1l2.96 1.709z" fill="#273868"/><path data-name="Path 3346" d="M289.269 135.035l-2.96-1.709v-10.254l2.96 1.709z" fill="#4866ea"/><path data-name="Path 3347" d="M281.77 130.706l-2.96-1.709v-12.418l2.96 1.709z" fill="#273868"/><path data-name="Path 3348" d="M275.849 127.289l-2.96-1.709v-16.064l2.96 1.709z" fill="#273868"/><path data-name="Path 3349" d="M278.81 128.996l-2.96-1.709v-8.773l2.96 1.709z" fill="#25c5ff"/><path data-name="Path 3350" d="M272.89 125.578l-2.96-1.709v-5.526l2.96 1.709z" fill="#4866ea"/></g></g></g></g></g><g data-name="Group 1999"><path data-name="Path 3351" d="M3383.035-421.794l-58.766-33.928 2.373-1.444 58.766 33.928z" transform="translate(-3150.002 468.308)" fill="url(#a)"/><path data-name="Path 3352" d="M3392.289-377.939l-2.372 1.444v-41.326l2.373-1.444z" transform="translate(-3156.883 464.335)" fill="url(#c)"/><g data-name="Group 1998"><g data-name="Group 1997"><g data-name="Group 1996"><path data-name="Path 3353" d="M237.868 93.822l-58.766-33.928V18.568l58.766 33.928z" fill="#c9cbcc" style="mix-blend-mode:multiply;isolation:isolate"/><path data-name="Path 3354" d="M233.032 87.84l-58.765-33.928V12.586l58.765 33.928z" fill="#eeeefa"/><path data-name="Path 3355" d="M233.032 51.752l-58.765-33.928v-5.241l58.765 33.928z" fill="#d8d8ed"/><g data-name="Group 1994" transform="translate(189.103 32.729)"><ellipse data-name="Ellipse 32" cx="8.399" cy="14.547" rx="8.399" ry="14.547" transform="rotate(-30.001 15.672 4.2)" fill="#273868"/><path data-name="Path 3356" d="M10.551 22.437V6.544l11.544 14.612z" fill="#fff"/></g><g data-name="Group 1995"><path data-name="Path 3357" d="M225.871 76.888l-44.444-25.66v4.1l44.444 25.66z" fill="#c4c4dc"/><path data-name="Path 3358" d="M191.535 57.064l-10.107-5.836v4.1l10.107 5.835z" fill="#273868"/></g></g></g></g></g><g data-name="Group 2001" transform="translate(249.055 39.672)"><ellipse data-name="Ellipse 33" cx="8.443" cy="14.624" rx="8.443" ry="14.624" transform="rotate(-30 15.754 4.222)" fill="#273868"/><g data-name="Group 2000" fill="#fff"><path data-name="Path 3359" d="M13.573 23.077a1.708 1.708 0 01-1.245-1.448c-.276-1.228-.655-2.479-.955-3.713a1.869 1.869 0 00-.667-1.07c-.919-.791-1.826-1.628-2.743-2.426a1.18 1.18 0 01-.488-1.011c.023-.755-.023-1.553.024-2.291.014-.222.211-.467.381-.421 3.582.972 7.172 1.985 10.761 2.993a1.114 1.114 0 01.178.134v10.077l-4.778-4.1c-.159 1.121-.311 2.176-.468 3.276z"/><path data-name="Path 3360" d="M20.32 25.126c-.97-.709-.972-.71-.972-1.675v-8.593c0-1.014 0-1.012.972-.606z"/></g></g><g data-name="Group 2013"><g data-name="Group 2002"><path data-name="Path 3361" d="M3328.156-214.238l-1.858-79.276c-.1-4.458-1.612-6.589-4.55-8.219L3215.5-359.8a3.329 3.329 0 00-2.821-.469s1.743-1.064 1.9-1.13a3.37 3.37 0 012.789.483l106.25 58.067c2.938 1.629 4.445 3.761 4.55 8.219l1.858 79.275c.049 2.131-.51 3.344-1.425 3.787l-1.559.924c.729-.556 1.158-1.717 1.114-3.594z" transform="translate(-3138.303 458.284)" fill="url(#e)"/></g><path data-name="Path 3363" d="M187.348 254.393a2.154 2.154 0 00-.01-.4l-.094-4a4.05 4.05 0 01-2.216 2.887l-67.723 41.239c-2.74 1.669-6.937 1.941-9.375.609L1.68 236.661a2.849 2.849 0 01-1.666-2.166H.007l.1 4.3a2.79 2.79 0 001.674 2.3l106.251 58.058c2.438 1.332 6.635 1.06 9.374-.609l67.726-41.246a4.063 4.063 0 002.215-2.875z" fill="#464647"/><path data-name="Path 3364" d="M3315.169-200.1l-106.25-58.067c-2.437-1.333-6.635-1.06-9.374.609l-40.1 24.421-27.626 16.825a6.793 6.793 0 00-.885.637c-1.872 1.606-1.8 3.624.339 4.795l106.25 58.067c2.438 1.332 6.635 1.06 9.375-.609l27.634-16.829 40.091-24.417c2.739-1.664 2.983-4.096.546-5.432z" transform="translate(-3129.594 447.536)" fill="url(#f)"/><path data-name="Path 3365" d="M46.952 260.463l17.332 9.471a.5.5 0 01.027.956l-19.009-10.392a1.828 1.828 0 011.65-.035z" fill="#464647"/><path data-name="Path 3366" d="M86.333 194.584l89.84 49.1 1.2-.728-89.84-49.1z" fill="#464647"/><g data-name="Group 2003"><path data-name="Path 3367" d="M187.994 164.77c-.1-4.458-1.612-6.589-4.55-8.219L77.194 98.484c-2.437-1.333-4.373-.673-4.277 3.394l1.857 79.275c.122 5.18 1.885 6.768 4.55 8.219l106.25 58.067c2.438 1.333 4.369.494 4.278-3.394z" fill="#464647"/><path data-name="Path 3368" d="M185.071 236.711l-1.753-74.592a.729.729 0 00-.378-.621L78.68 104.515a.727.727 0 00-1.075.655l1.747 74.592a.726.726 0 00.379.62l104.264 56.983a.728.728 0 001.076-.654z" fill="#33b4ff"/><path data-name="Path 3369" d="M159.104 148.468l-48.181-26.332-32.244-17.621a.726.726 0 00-1.075.654l1.747 74.593a.726.726 0 00.379.62l14.24 7.783z" fill="#fff" opacity=".2" style="mix-blend-mode:overlay;isolation:isolate"/></g><g data-name="Group 2005"><path data-name="Path 3370" d="M49.138 246.772l14.282-8.7a3.462 3.462 0 013.134-.068l35.537 19.421a.955.955 0 01.052 1.809l-14.282 8.7z" fill="#7b7b7c" opacity=".4"/><g data-name="Group 2004" opacity=".4" fill="#7a7a7a"><path data-name="Path 3371" d="M68.213 257.88l19.056 10.414-7.731 4.709a3.465 3.465 0 01-3.134.068l-17.462-9.544z" opacity=".4"/><path data-name="Path 3372" d="M67.599 257.546l-9.272 5.647-17.462-9.543a.955.955 0 01-.052-1.809l7.73-4.709z" opacity=".4"/></g></g><g data-name="Group 2012" fill="#232323"><g data-name="Group 2006"><path data-name="Path 3373" d="M161.78 253.406l5.317 2.906a1.391 1.391 0 001.25-.081l4.958-3.019c.365-.223.4-.547.073-.724l-5.316-2.906a1.391 1.391 0 00-1.25.081l-4.958 3.02c-.367.217-.399.545-.074.723z"/><path data-name="Path 3374" d="M154.586 249.475l5.317 2.906a1.39 1.39 0 001.25-.081l4.958-3.019c.365-.222.4-.547.074-.724l-5.318-2.906a1.391 1.391 0 00-1.25.081l-4.958 3.02c-.365.221-.398.545-.073.723z"/><path data-name="Path 3375" d="M147.393 245.543l5.317 2.906a1.389 1.389 0 001.249-.081l4.959-3.019c.365-.222.4-.547.072-.724l-5.318-2.904a1.387 1.387 0 00-1.25.081l-4.959 3.019c-.363.221-.391.545-.07.722z"/><path data-name="Path 3376" d="M140.199 241.611l5.316 2.906a1.388 1.388 0 001.25-.081l4.959-3.019c.365-.222.4-.547.072-.724l-5.316-2.912a1.39 1.39 0 00-1.25.081l-4.959 3.019c-.365.228-.398.553-.072.73z"/><path data-name="Path 3377" d="M133.005 237.68l5.318 2.906a1.389 1.389 0 001.249-.081l4.959-3.02c.365-.222.4-.547.072-.724l-5.316-2.906a1.39 1.39 0 00-1.25.081l-4.958 3.019c-.366.223-.399.548-.074.725z"/><path data-name="Path 3378" d="M125.811 233.749l5.318 2.9a1.391 1.391 0 001.25-.081l4.958-3.02c.365-.222.4-.547.073-.724l-5.316-2.906a1.391 1.391 0 00-1.25.081l-4.958 3.019c-.367.228-.4.553-.075.731z"/><path data-name="Path 3379" d="M118.617 229.817l5.317 2.906a1.39 1.39 0 001.25-.081l4.958-3.02c.366-.222.4-.546.074-.724l-5.318-2.906a1.391 1.391 0 00-1.25.081l-4.957 3.019c-.366.224-.399.548-.074.725z"/><path data-name="Path 3380" d="M111.423 225.886l5.318 2.906a1.393 1.393 0 001.25-.081l4.958-3.019c.365-.223.4-.547.072-.725l-5.317-2.906a1.393 1.393 0 00-1.25.081l-4.958 3.019c-.365.223-.398.547-.073.725z"/><path data-name="Path 3381" d="M104.226 221.954l5.316 2.906a1.4 1.4 0 001.251-.081l4.958-3.019c.365-.223.4-.547.073-.725l-5.317-2.9a1.39 1.39 0 00-1.25.081l-4.958 3.019c-.361.217-.394.541-.073.719z"/><path data-name="Path 3382" d="M97.036 218.023l5.317 2.906a1.392 1.392 0 001.25-.081l4.958-3.019c.365-.223.4-.547.073-.724l-5.317-2.906a1.39 1.39 0 00-1.25.081l-4.959 3.019c-.365.222-.397.545-.072.724z"/><path data-name="Path 3383" d="M89.843 214.091l5.317 2.906a1.39 1.39 0 001.25-.081l4.958-3.019c.366-.223.4-.547.073-.725l-5.317-2.9a1.391 1.391 0 00-1.25.081l-4.958 3.02c-.366.216-.398.54-.073.718z"/><path data-name="Path 3384" d="M82.653 210.159l5.316 2.906a1.39 1.39 0 001.25-.081l4.958-3.019c.366-.222.4-.547.073-.724l-5.317-2.906a1.39 1.39 0 00-1.25.081l-4.958 3.02c-.372.221-.402.545-.072.723z"/><path data-name="Path 3385" d="M75.456 206.225l5.316 2.906a1.39 1.39 0 001.25-.081l4.958-3.019c.365-.222.4-.547.073-.724l-5.316-2.906a1.388 1.388 0 00-1.25.081l-4.958 3.019c-.366.224-.399.55-.073.724z"/><path data-name="Path 3386" d="M65.01 200.52l8.568 4.682a1.387 1.387 0 001.25-.081l4.958-3.019c.365-.222.4-.547.073-.724l-8.567-4.682a1.393 1.393 0 00-1.251.081l-4.957 3.019c-.366.222-.399.546-.074.724z"/></g><g data-name="Group 2007"><path data-name="Path 3387" d="M69.65 203.838l-5.317-2.906a1.39 1.39 0 00-1.25.081l-4.958 3.019c-.365.223-.4.547-.073.725l5.316 2.906a1.394 1.394 0 001.25-.081l4.958-3.019c.367-.223.4-.547.074-.725z"/><path data-name="Path 3388" d="M76.845 207.769l-5.318-2.906a1.392 1.392 0 00-1.249.081l-4.959 3.019c-.365.223-.4.547-.073.724l5.317 2.906a1.389 1.389 0 001.249-.081l4.959-3.019c.365-.222.399-.546.074-.724z"/><path data-name="Path 3389" d="M84.039 211.701l-5.318-2.906a1.39 1.39 0 00-1.25.081l-4.958 3.019c-.365.223-.4.547-.073.724l5.317 2.906a1.39 1.39 0 001.25-.081l4.959-3.02c.365-.221.398-.548.073-.723z"/><path data-name="Path 3390" d="M91.232 215.633l-5.317-2.906a1.392 1.392 0 00-1.25.082l-4.958 3.019c-.366.222-.4.547-.073.724l5.317 2.906a1.39 1.39 0 001.25-.081l4.958-3.02c.364-.222.398-.547.073-.724z"/><path data-name="Path 3391" d="M98.426 219.564l-5.317-2.906a1.391 1.391 0 00-1.25.081l-4.958 3.019c-.365.222-.4.547-.072.724l5.317 2.906a1.387 1.387 0 001.25-.081l4.958-3.019c.364-.222.397-.547.072-.724z"/><path data-name="Path 3392" d="M105.622 223.495l-5.317-2.906a1.39 1.39 0 00-1.25.081l-4.959 3.02c-.365.222-.4.547-.072.724l5.317 2.906a1.387 1.387 0 001.25-.081l4.957-3.019c.364-.225.397-.547.074-.725z"/><path data-name="Path 3393" d="M112.813 227.426l-5.316-2.906a1.392 1.392 0 00-1.25.081l-4.958 3.02c-.365.222-.4.546-.073.724l5.317 2.906a1.39 1.39 0 001.25-.081l4.959-3.019c.363-.223.396-.547.071-.725z"/><path data-name="Path 3394" d="M120.007 231.358l-5.316-2.907a1.393 1.393 0 00-1.25.081l-4.959 3.02c-.365.222-.4.546-.073.724l5.317 2.906a1.39 1.39 0 001.25-.081l4.958-3.019c.366-.222.403-.546.073-.724z"/><path data-name="Path 3395" d="M127.2 235.29l-5.316-2.906a1.394 1.394 0 00-1.25.081l-4.958 3.02c-.365.222-.4.546-.073.724l5.317 2.906a1.394 1.394 0 001.25-.081l4.958-3.019c.366-.223.397-.547.072-.725z"/><path data-name="Path 3396" d="M134.394 239.221l-5.317-2.907a1.39 1.39 0 00-1.25.081l-4.958 3.019c-.365.223-.4.547-.072.724l5.316 2.907a1.393 1.393 0 001.25-.081l4.958-3.02c.365-.221.399-.545.073-.723z"/><path data-name="Path 3397" d="M141.587 243.153l-5.316-2.906a1.391 1.391 0 00-1.25.081l-4.958 3.019c-.365.223-.4.547-.073.725l5.317 2.9a1.39 1.39 0 001.25-.081l4.958-3.019c.365-.217.395-.541.072-.719z"/><path data-name="Path 3398" d="M148.782 247.085l-5.317-2.906a1.391 1.391 0 00-1.25.081l-4.958 3.019c-.365.223-.4.547-.073.724l5.316 2.906a1.392 1.392 0 001.251-.081l4.958-3.02c.365-.221.398-.546.073-.723z"/><path data-name="Path 3399" d="M155.976 251.016l-5.317-2.906a1.391 1.391 0 00-1.25.081l-4.958 3.019c-.365.222-.4.547-.073.724l5.317 2.906a1.39 1.39 0 001.25-.081l4.957-3.019c.366-.222.399-.547.074-.724z"/><path data-name="Path 3400" d="M166.42 256.724l-8.567-4.682a1.389 1.389 0 00-1.25.081l-4.957 3.019c-.365.222-.4.547-.073.724l8.567 4.683a1.393 1.393 0 001.25-.081l4.958-3.019c.365-.223.397-.547.072-.725z"/></g><g data-name="Group 2008"><path data-name="Path 3401" d="M67.886 210.913l-10.509-5.743a1.391 1.391 0 00-1.25.081l-4.957 3.019c-.366.223-.4.547-.073.724l10.509 5.744a1.393 1.393 0 001.25-.081l4.958-3.019c.364-.223.396-.547.072-.725z"/><path data-name="Path 3402" d="M159.403 260.929l-10.51-5.743a1.387 1.387 0 00-1.25.081l-4.958 3.019c-.365.223-.4.547-.073.724l10.509 5.743a1.391 1.391 0 001.25-.081l4.958-3.02c.367-.221.403-.546.074-.723z"/><path data-name="Path 3403" d="M75.079 214.845l-5.317-2.906a1.391 1.391 0 00-1.25.081l-4.958 3.019c-.365.223-.4.547-.073.724l5.316 2.906a1.39 1.39 0 001.25-.081l4.958-3.019c.367-.222.399-.546.074-.724z"/><path data-name="Path 3404" d="M82.274 218.776l-5.317-2.906a1.388 1.388 0 00-1.25.081l-4.958 3.019c-.365.223-.4.547-.073.724l5.317 2.906a1.39 1.39 0 001.25-.081l4.958-3.02c.365-.22.398-.544.073-.723z"/><path data-name="Path 3405" d="M89.468 222.708l-5.318-2.906a1.39 1.39 0 00-1.25.081l-4.958 3.019c-.365.222-.4.547-.072.724l5.316 2.906a1.389 1.389 0 001.25-.081l4.958-3.019c.365-.222.399-.545.074-.724z"/><path data-name="Path 3406" d="M96.66 226.639l-5.316-2.906a1.393 1.393 0 00-1.251.081l-4.958 3.02c-.365.222-.4.547-.073.724l5.316 2.906a1.393 1.393 0 001.251-.081l4.958-3.019c.366-.222.399-.547.073-.725z"/><path data-name="Path 3407" d="M103.855 230.567l-5.318-2.906a1.39 1.39 0 00-1.25.081l-4.957 3.02c-.365.222-.4.546-.073.724l5.316 2.906a1.393 1.393 0 001.251-.081l4.958-3.019c.365-.219.398-.543.073-.725z"/><path data-name="Path 3408" d="M111.049 234.506l-5.316-2.906a1.392 1.392 0 00-1.251.081l-4.957 3.019c-.366.223-.4.548-.074.725l5.317 2.906a1.393 1.393 0 001.251-.081l4.957-3.019c.365-.225.398-.551.073-.725z"/><path data-name="Path 3409" d="M118.244 238.434l-5.316-2.906a1.393 1.393 0 00-1.25.081l-4.958 3.019c-.365.223-.4.547-.074.725l5.317 2.9a1.387 1.387 0 001.25-.081l4.958-3.019c.364-.217.396-.541.073-.719z"/><path data-name="Path 3410" d="M125.436 242.365l-5.316-2.907a1.393 1.393 0 00-1.25.081l-4.958 3.019c-.365.223-.4.547-.073.725l5.316 2.906a1.393 1.393 0 001.25-.081l4.958-3.019c.365-.222.398-.546.073-.724z"/><path data-name="Path 3411" d="M132.629 246.297l-5.317-2.906a1.393 1.393 0 00-1.25.081l-4.958 3.019c-.365.223-.4.547-.072.724l5.317 2.91a1.39 1.39 0 001.25-.081l4.958-3.019c.365-.226.402-.55.072-.728z"/><path data-name="Path 3412" d="M139.824 250.229l-5.317-2.906a1.39 1.39 0 00-1.25.081l-4.958 3.019c-.365.223-.4.547-.074.724l5.317 2.906a1.39 1.39 0 001.25-.081l4.959-3.019c.366-.222.398-.546.073-.724z"/><path data-name="Path 3413" d="M147.016 254.16l-5.316-2.906a1.39 1.39 0 00-1.25.081l-4.959 3.019c-.365.223-.4.547-.072.724l5.316 2.906a1.391 1.391 0 001.25-.081l4.958-3.02c.366-.221.399-.545.073-.723z"/></g><g data-name="Group 2009"><path data-name="Path 3414" d="M64.5 217.104l-14.081-7.695a1.389 1.389 0 00-1.25.081l-4.958 3.019c-.365.222-.4.547-.074.724l14.081 7.7a1.394 1.394 0 001.25-.081l4.958-3.019c.366-.229.399-.553.074-.729z"/><path data-name="Path 3415" d="M71.695 221.034l-5.317-2.906a1.39 1.39 0 00-1.25.081l-4.958 3.019c-.365.223-.4.547-.073.724l5.317 2.906a1.39 1.39 0 001.25-.081l4.958-3.02c.364-.221.396-.546.073-.723z"/><path data-name="Path 3416" d="M78.886 224.965l-5.316-2.906a1.39 1.39 0 00-1.25.081l-4.959 3.019c-.365.223-.4.547-.072.724l5.316 2.906a1.387 1.387 0 001.25-.081l4.959-3.019c.365-.222.398-.547.072-.724z"/><path data-name="Path 3417" d="M86.081 228.897l-5.318-2.906a1.39 1.39 0 00-1.249.081l-4.958 3.019c-.365.222-.4.547-.073.724l5.317 2.906a1.388 1.388 0 001.25-.081l4.958-3.019c.365-.222.402-.547.073-.724z"/><path data-name="Path 3418" d="M93.274 232.829l-5.317-2.906a1.387 1.387 0 00-1.25.081l-4.958 3.019c-.365.222-.4.547-.073.724l5.316 2.906a1.393 1.393 0 001.25-.081l4.959-3.02c.367-.221.399-.55.073-.723z"/><path data-name="Path 3419" d="M100.468 236.759l-5.317-2.906a1.387 1.387 0 00-1.25.081l-4.958 3.019c-.365.222-.4.547-.072.724l5.316 2.906a1.393 1.393 0 001.251-.081l4.958-3.019c.364-.222.397-.542.072-.724z"/><path data-name="Path 3420" d="M107.662 240.692l-5.317-2.911a1.39 1.39 0 00-1.25.081l-4.958 3.02c-.365.222-.4.546-.073.724l5.317 2.906a1.391 1.391 0 001.25-.081l4.958-3.019c.365-.219.394-.543.073-.72z"/><path data-name="Path 3421" d="M114.856 244.621l-5.315-2.9a1.391 1.391 0 00-1.25.081l-4.958 3.02c-.365.222-.4.546-.073.724l5.317 2.906a1.393 1.393 0 001.25-.081l4.958-3.019c.363-.231.396-.551.071-.731z"/><path data-name="Path 3422" d="M122.049 248.554l-5.317-2.907a1.394 1.394 0 00-1.25.081l-4.958 3.019c-.365.223-.4.547-.073.725l5.317 2.906a1.393 1.393 0 001.25-.081l4.959-3.02c.365-.217.397-.545.072-.723z"/><path data-name="Path 3423" d="M129.243 252.486l-5.317-2.906a1.391 1.391 0 00-1.25.081l-4.958 3.019c-.365.223-.4.547-.073.724l5.316 2.907a1.4 1.4 0 001.251-.081l4.958-3.019c.365-.223.398-.547.073-.725z"/><path data-name="Path 3424" d="M136.437 256.417l-5.317-2.906a1.389 1.389 0 00-1.249.081l-4.959 3.019c-.365.223-.4.547-.073.724l5.318 2.906a1.389 1.389 0 001.249-.081l4.959-3.02c.365-.221.397-.545.072-.723z"/><path data-name="Path 3425" d="M152.446 265.166l-14.132-7.724a1.39 1.39 0 00-1.25.081l-4.958 3.019c-.365.222-.4.547-.073.724l14.132 7.724a1.388 1.388 0 001.25-.081l4.958-3.019c.365-.221.398-.546.073-.724z"/></g><g data-name="Group 2010"><path data-name="Path 3426" d="M115.09 252.792l-34.092-18.631a1.391 1.391 0 00-1.25.081l-4.958 3.019c-.365.223-.4.547-.072.725l34.092 18.631a1.391 1.391 0 001.25-.081l4.958-3.02c.364-.222.397-.546.072-.724z"/><path data-name="Path 3427" d="M70.359 228.345l-5.317-2.906a1.39 1.39 0 00-1.25.081l-4.958 3.019c-.365.223-.4.547-.072.724l5.316 2.906a1.39 1.39 0 001.25-.081l4.958-3.02c.365-.221.398-.541.073-.723z"/><path data-name="Path 3428" d="M79.122 233.135l-6.887-3.764a1.39 1.39 0 00-1.25.081l-4.958 3.019c-.365.223-.4.547-.073.725l6.887 3.763a1.391 1.391 0 001.25-.081l4.958-3.019c.365-.223.398-.547.073-.724z"/><path data-name="Path 3429" d="M125.732 258.607l5.317 2.906c.326.178.292.5-.073.725l-4.958 3.019a1.39 1.39 0 01-1.25.081l-5.316-2.906c-.326-.178-.293-.5.072-.725l4.958-3.019a1.393 1.393 0 011.25-.081z"/><path data-name="Path 3430" d="M116.97 253.818l6.886 3.764c.325.177.293.5-.072.724l-4.958 3.019a1.391 1.391 0 01-1.25.081l-6.886-3.764c-.326-.177-.293-.5.073-.724l4.958-3.019a1.39 1.39 0 011.249-.081z"/><path data-name="Path 3431" d="M48.778 216.55l-5.316-2.906a1.391 1.391 0 00-1.25.081l-4.958 3.02c-.365.222-.4.546-.073.724l5.316 2.906a1.391 1.391 0 001.25-.081l4.958-3.019c.365-.223.398-.547.073-.725z"/><path data-name="Path 3432" d="M55.971 220.482l-5.316-2.9a1.39 1.39 0 00-1.25.081l-4.958 3.019c-.365.223-.4.547-.072.725l5.316 2.906a1.393 1.393 0 001.25-.081l4.958-3.019c.365-.229.397-.553.072-.731z"/><path data-name="Path 3433" d="M63.164 224.414l-5.317-2.906a1.392 1.392 0 00-1.25.081l-4.958 3.019c-.365.223-.4.547-.072.725l5.316 2.906a1.393 1.393 0 001.25-.081l4.958-3.019c.366-.223.402-.551.073-.725z"/><path data-name="Path 3434" d="M145.487 269.405l-12.562-6.866a1.393 1.393 0 00-1.25.081l-4.958 3.019c-.366.223-.4.547-.073.725l12.562 6.865a1.391 1.391 0 001.25-.081l4.958-3.019c.365-.222.398-.546.073-.724z"/></g><g data-name="Group 2011"><path data-name="Path 3435" d="M168.738 249.168l5.316 2.906a1.39 1.39 0 001.25-.081l2.465-1.5c.365-.222.4-.547.074-.724l-5.318-2.906a1.388 1.388 0 00-1.25.081l-2.465 1.5c-.365.221-.397.546-.072.724z"/><path data-name="Path 3436" d="M161.544 245.237l5.318 2.906a1.391 1.391 0 001.25-.081l2.465-1.5c.365-.222.4-.547.073-.724l-5.317-2.906a1.39 1.39 0 00-1.25.081l-2.466 1.5c-.365.221-.402.546-.073.724z"/><path data-name="Path 3437" d="M154.35 241.305l5.317 2.906a1.391 1.391 0 001.25-.081l2.465-1.5c.365-.222.4-.546.073-.724L158.139 239a1.391 1.391 0 00-1.25.081l-2.465 1.5c-.367.222-.399.546-.074.724z"/><path data-name="Path 3438" d="M147.156 237.373l5.317 2.907a1.4 1.4 0 001.251-.081l2.465-1.5c.365-.222.4-.547.072-.724l-5.316-2.906a1.39 1.39 0 00-1.25.081l-2.465 1.5c-.366.221-.399.549-.074.723z"/><path data-name="Path 3439" d="M139.963 233.442l5.317 2.907a1.394 1.394 0 001.25-.081l2.465-1.5c.365-.223.4-.548.073-.725l-5.317-2.906a1.39 1.39 0 00-1.25.081l-2.465 1.5c-.366.222-.394.542-.073.724z"/><path data-name="Path 3440" d="M132.769 229.511l5.317 2.906a1.4 1.4 0 001.25-.081l2.465-1.5c.366-.222.4-.546.073-.724l-5.316-2.906a1.392 1.392 0 00-1.25.081l-2.465 1.5c-.367.221-.398.545-.074.724z"/><path data-name="Path 3441" d="M125.576 225.581l5.316 2.906a1.393 1.393 0 001.251-.081l2.465-1.5c.365-.223.4-.547.072-.724l-5.316-2.907a1.392 1.392 0 00-1.25.081l-2.465 1.5c-.366.225-.398.545-.073.725z"/><path data-name="Path 3442" d="M118.382 221.648l5.316 2.906a1.4 1.4 0 001.251-.081l2.464-1.5c.366-.223.4-.547.074-.724l-5.318-2.908a1.4 1.4 0 00-1.251.081l-2.465 1.5c-.364.219-.396.547-.071.726z"/><path data-name="Path 3443" d="M111.189 217.716l5.316 2.906a1.391 1.391 0 001.25-.081l2.465-1.5c.365-.223.4-.547.074-.724l-5.317-2.906a1.391 1.391 0 00-1.25.081l-2.465 1.5c-.366.221-.398.546-.073.724z"/><path data-name="Path 3444" d="M103.994 213.785l5.317 2.906a1.388 1.388 0 001.25-.081l2.465-1.5c.366-.223.4-.547.073-.724l-5.317-2.906a1.391 1.391 0 00-1.25.081l-2.465 1.5c-.365.221-.398.546-.073.724z"/><path data-name="Path 3445" d="M96.797 209.853l5.316 2.906a1.39 1.39 0 001.25-.081l2.465-1.5c.365-.222.4-.547.074-.724l-5.318-2.906a1.388 1.388 0 00-1.25.081l-2.465 1.5c-.36.221-.393.546-.072.724z"/><path data-name="Path 3446" d="M89.607 205.921l5.317 2.906a1.391 1.391 0 001.25-.081l2.465-1.5c.365-.222.4-.546.073-.724l-5.316-2.906a1.391 1.391 0 00-1.25.081l-2.466 1.5c-.365.221-.398.546-.073.724z"/><path data-name="Path 3447" d="M82.413 201.99l5.317 2.906a1.39 1.39 0 001.25-.081l2.465-1.5c.365-.222.4-.546.073-.724l-5.316-2.906a1.391 1.391 0 00-1.25.081l-2.465 1.5c-.366.222-.399.546-.074.724z"/><path data-name="Path 3448" d="M71.969 196.282l8.567 4.682a1.392 1.392 0 001.25-.081l2.465-1.5c.365-.223.4-.547.072-.725l-8.566-4.682a1.39 1.39 0 00-1.25.081l-2.466 1.5c-.365.222-.397.546-.072.725z"/></g></g></g><g data-name="Group 2016"><g fill="#fff"><path data-name="Path 3449" d="M119.771 169.197v-1.329a4.963 4.963 0 00.68.848 3.659 3.659 0 00.741.579 1.875 1.875 0 00.383.176.625.625 0 00.274.03.231.231 0 00.164-.1.363.363 0 00.054-.207.877.877 0 00-.086-.362 2.233 2.233 0 00-.237-.389 5.428 5.428 0 00-.354-.43q-.206-.226-.442-.475a5.356 5.356 0 01-.9-1.231 2.634 2.634 0 01-.3-1.186 1.274 1.274 0 01.162-.706.671.671 0 01.441-.3 1.347 1.347 0 01.646.055 3.711 3.711 0 01.777.346 6.817 6.817 0 01.714.469 5.2 5.2 0 01.575.5v1.242a4.064 4.064 0 00-.283-.346q-.153-.167-.314-.312t-.323-.263a3.171 3.171 0 00-.3-.2 1.767 1.767 0 00-.36-.165.683.683 0 00-.274-.036.259.259 0 00-.173.09.328.328 0 00-.061.212.77.77 0 00.068.308 1.959 1.959 0 00.194.337q.127.179.306.385c.119.137.255.285.406.444.207.219.391.431.556.639a4.753 4.753 0 01.423.624 3.013 3.013 0 01.27.64 2.478 2.478 0 01.094.688 1.355 1.355 0 01-.164.743.652.652 0 01-.445.292 1.36 1.36 0 01-.653-.076 4.321 4.321 0 01-.787-.362 6.8 6.8 0 01-.807-.55 4.8 4.8 0 01-.665-.622z"/><path data-name="Path 3450" d="M127.235 173.732l-3.094-1.788v-5.958l2.976 1.719v1.092l-1.813-1.047v1.326l1.687.975v1.089l-1.687-.974v1.362l1.932 1.116z"/><path data-name="Path 3451" d="M130.247 175.572a4.864 4.864 0 01-1.807-1.876 5.161 5.161 0 01-.7-2.574 2.093 2.093 0 01.708-1.876 1.754 1.754 0 011.878.211 4.762 4.762 0 011.787 1.866 5.278 5.278 0 01.682 2.6 2.052 2.052 0 01-.707 1.856 1.734 1.734 0 01-1.841-.207zm.051-4.978q-.612-.353-.972-.031a1.571 1.571 0 00-.36 1.2 3.564 3.564 0 00.36 1.608 2.428 2.428 0 00.943 1.06q.6.346.955.049a1.529 1.529 0 00.352-1.186 3.755 3.755 0 00-.341-1.639 2.345 2.345 0 00-.941-1.061z"/></g><g data-name="Group 2014" fill="#3c2768"><path data-name="Path 3452" d="M117.659 156.214c2.872-1.866 6.338-1.442 10.393 1.748a25.692 25.692 0 019.4 16.308l6.883 1.229a42 42 0 00-11.248-21.627c-8.049-8.2-15.049-9.9-21.077-6.31l-1.424-2.18c-.221-.338-.438-.679-.663-1.013-1-1.5-2.137-1.654-2.336-.3-.2 1.389-.375 2.8-.563 4.206-.384 2.881-.762 5.765-1.158 8.637a2.887 2.887 0 001.217 2.915 1.95 1.95 0 00.678.256q5.822 1.054 11.642 2.093c.547.1.94-.04 1.043-.672a2.808 2.808 0 00-.6-1.958c-.722-1.081-1.432-2.176-2.187-3.332z"/><path data-name="Path 3453" d="M140.073 192.211c.626.956 1.279 1.94 1.916 2.936a2.275 2.275 0 001.493 1.2c.557.071.774-.342.856-.959q.83-6.319 1.681-12.624c.011-.076.016-.155.03-.228a2.692 2.692 0 00-2.074-3.149c-2.6-.451-5.2-.926-7.793-1.391-1.215-.217-2.425-.419-3.642-.648-.548-.1-.956.011-1.063.638a2.853 2.853 0 00.618 2.022c.767 1.149 1.516 2.314 2.325 3.555-2.855 1.618-6.236 1.1-10.132-1.982a25.67 25.67 0 01-9.353-16.247l-6.89-1.234a41.971 41.971 0 0010.794 21.127c7.998 8.402 15.053 10.339 21.234 6.984z"/></g><g data-name="Group 2015" fill="#fff"><path data-name="Path 3454" d="M117.398 156.463c2.873-1.865 6.339-1.442 10.394 1.749a25.692 25.692 0 019.4 16.307l6.883 1.229a42 42 0 00-11.248-21.626c-8.048-8.2-15.05-9.9-21.078-6.311l-1.423-2.18c-.22-.337-.438-.679-.662-1.012-1-1.5-2.137-1.654-2.336-.3-.2 1.389-.375 2.8-.562 4.206-.385 2.881-.763 5.766-1.158 8.638a2.889 2.889 0 001.216 2.915 1.924 1.924 0 00.679.256q5.822 1.054 11.642 2.093c.547.1.939-.039 1.042-.672a2.8 2.8 0 00-.6-1.958c-.723-1.082-1.432-2.175-2.189-3.334z"/><path data-name="Path 3455" d="M139.815 192.46c.625.957 1.278 1.94 1.916 2.937a2.274 2.274 0 001.493 1.2c.557.072.774-.342.854-.958q.83-6.32 1.682-12.625c.01-.075.016-.155.029-.228a2.691 2.691 0 00-2.074-3.149c-2.594-.451-5.195-.927-7.792-1.39-1.215-.217-2.426-.42-3.644-.649-.547-.1-.955.012-1.062.639a2.853 2.853 0 00.617 2.021c.768 1.148 1.516 2.314 2.326 3.555-2.855 1.618-6.237 1.1-10.132-1.982a25.665 25.665 0 01-9.353-16.247l-6.891-1.238a41.984 41.984 0 0010.8 21.122c7.993 8.41 15.049 10.347 21.231 6.992z"/></g></g></svg>