<svg xmlns="http://www.w3.org/2000/svg" xmlns:xlink="http://www.w3.org/1999/xlink" width="312.668" height="300" viewBox="0 0 312.668 300">
  <defs>
    <linearGradient id="linear-gradient" x1="0.372" y1="0.989" x2="0.606" y2="0.095" gradientUnits="objectBoundingBox">
      <stop offset="0" stop-color="#273568"/>
      <stop offset="0.208" stop-color="#2c3b7e"/>
      <stop offset="0.64" stop-color="#3a4db6"/>
      <stop offset="1" stop-color="#485eea"/>
    </linearGradient>
    <linearGradient id="linear-gradient-2" x1="0.494" y1="0.517" x2="0.512" y2="0.463" gradientUnits="objectBoundingBox">
      <stop offset="0" stop-color="#828cff"/>
      <stop offset="1" stop-color="#4f5ea1"/>
    </linearGradient>
    <linearGradient id="linear-gradient-3" y1="0.5" x2="1" y2="0.5" gradientUnits="objectBoundingBox">
      <stop offset="0" stop-color="#7083ff"/>
      <stop offset="0.365" stop-color="#5e6fd7"/>
      <stop offset="1" stop-color="#415095"/>
    </linearGradient>
    <linearGradient id="linear-gradient-4" x1="0.493" y1="0.521" x2="0.515" y2="0.455" xlink:href="#linear-gradient-2"/>
    <linearGradient id="linear-gradient-14" x1="0.512" y1="0.268" x2="0.471" y2="1.034" gradientUnits="objectBoundingBox">
      <stop offset="0" stop-color="#b1d9df"/>
      <stop offset="0.704" stop-color="#eaeeee"/>
    </linearGradient>
    <linearGradient id="linear-gradient-15" x1="0.875" y1="0.108" x2="0.095" y2="0.923" gradientUnits="objectBoundingBox">
      <stop offset="0" stop-color="#c5e4ff"/>
      <stop offset="0.704" stop-color="#eaeeee"/>
    </linearGradient>
  </defs>
  <g id="digi-strat" transform="translate(-3129.594 469.613)">
    <g id="seo_map" data-name="seo map" transform="translate(3262.945 -468.127)">
      <g id="Group_1962" data-name="Group 1962">
        <path id="Path_3209" data-name="Path 3209" d="M3278.561-467.953v141.94l161.8,93.416v-141.94Z" transform="translate(-3278.561 467.953)" fill="url(#linear-gradient)"/>
        <g id="Group_1960" data-name="Group 1960" transform="translate(8.456 58.449)" opacity="0.52">
          <path id="Path_3210" data-name="Path 3210" d="M3288.007-399.442a2.032,2.032,0,0,1,1.028,1.009c-.377.126-.7-.274-1.028-.662Z" transform="translate(-3288.007 402.323)" fill="#c4c4dc"/>
          <path id="Path_3211" data-name="Path 3211" d="M3408.535-338.3c.115.118.311.254.332.35a1.846,1.846,0,0,0,1.454,1.57,1.2,1.2,0,0,1,.591.373,4.128,4.128,0,0,0,2.875,1.761,1.931,1.931,0,0,1,1.038.6c.25.258.865.706.137.715-.092,0-.18.05-.112.213a8.463,8.463,0,0,0,1.332,2.14c.353.423.5.02.712.073a4.242,4.242,0,0,1,1.774.909c.572.489,1.176.926,1.316.041.043-.269.231-.222.447-.089.427.263.854.532,1.279.81.1.062.268.213.272.258.077,1.237.6.638.887.738a1.326,1.326,0,0,1,.951.878,3.591,3.591,0,0,0,1.5,1.643c.5.257,1,.5,1.5.775a1.717,1.717,0,0,1,.95,1.181,1.83,1.83,0,0,0,.968,1.065,10.746,10.746,0,0,1,2.877,2.145c.325.384.444.178.44-.18,0-.261-.042-.6.327-.3a26.062,26.062,0,0,1,4.1,3.426,5.291,5.291,0,0,1,1.442,2.367c.054.27.194.471.368.316.513-.457.94.475,1.363.928.3.32.117.452-.089.431a.643.643,0,0,0-.781.422c-.127.359-.29-.081-.447-.238-.579-.575-.956-1.621-1.739-1.753-.226-.039-.2-.568-.536-.765-.119.8-.533.925-1.3.149-.114-.116-.27-.21-.313-.052a.635.635,0,0,0,.222.528,3.049,3.049,0,0,1,.751,1.457c.077.328.014.495-.266.3a3.109,3.109,0,0,0-2.7-.431c-.339.056-.6.021-1.02-.472a2.593,2.593,0,0,0-2.424-.6.709.709,0,0,0-.29.784,1.883,1.883,0,0,1-.8,2.2c-.426.407-.867.783-1.323,1.157-.829-1.937-.572-3.763.531-4.167a11.207,11.207,0,0,1,2.1-.89c.138-.021.229-.175.311-.3s.264-.306.042-.59c-.206-.263-.383-.123-.463.042-.211.437-.688.3-1.09.394.062-.82-.171-1.167-.825-1.251a1.408,1.408,0,0,0-1.433.388c-.333.5-.771.229-1.257-.24a2.685,2.685,0,0,0-1.382-.826,1.647,1.647,0,0,1-.885-.469,1.535,1.535,0,0,0-1.737-.573,7.279,7.279,0,0,0-2.006.812c-.2.117-.621.129-.407.581a2.506,2.506,0,0,0,1.07,1.281c.881.384,1.063.715,1.025,1.741a4.68,4.68,0,0,1-2.4,4.156.434.434,0,0,1-.521.009c-.286-.185-.577-.593-.839-.4-.51.383-1.141.617-1.5,1.181-.23.365.27,1.278.44,1.943.156.618.122.966-.365.909a.48.48,0,0,1-.455-.617c.163-.8-.572-1.708-.7-2.592a.982.982,0,0,0-1.31-.709c-.116-.4.338-.462-.013-.9a.528.528,0,0,0-.682-.141c-.375.118-1.068-.092-.9.691.158.726.806,1.022,1.307,1.334.093.058.184.13.287.2-.062.264-.288.183-.436.235-.509.18-.655.594-.23,1.507.221.476.646,1.077.128,1.319-.149.069.057.823.147.961.5.761.147.893-.045,1.166a6.736,6.736,0,0,1-.635.912,1.823,1.823,0,0,1-2.26.549c-.75-.324-1.341-.007-2.217-.639-.683-.491-1.045.575-.629,1.525a14.049,14.049,0,0,1,.82,2.028c.44,1.705.172,2.491-.934,2.7-.152.03-.358.175-.459-.277-.115-.51-.482-.965-.6-1.432a1.709,1.709,0,0,0-1.267-1.395c-.372-.095-.678,1.053-.429,1.626a21.128,21.128,0,0,0,.952,2.212,5.844,5.844,0,0,1,.706,2.79,1.612,1.612,0,0,1-.658-.888,13.394,13.394,0,0,1-1.232-4.895,23.555,23.555,0,0,0-.481-3.606c-.067-.563-.305-.533-.582-.491-.586.088-.773-.121-.721-.882.08-1.164-.763-2.274-1.187-3.405-.029-.076-.16-.218-.189-.21-.557.15-1.379-.61-1.854-.085a4.076,4.076,0,0,1-2.012,1.172c-.482.13-.66.508-.653,1.173a3.308,3.308,0,0,1-.824,2.575c-1.134-3.156-2.111-6.131-1.994-8.793-.388-.373-.39-.075-.5-.015s-.239.071-.4-.134c-.134-.175-.271-.4-.157-.51.287-.279-.064-.506-.262-.824a9.74,9.74,0,0,0-3.706-3.392,2.3,2.3,0,0,1-1.04-1.176,1.1,1.1,0,0,0-.661-.648,3.985,3.985,0,0,1-1.72-2.02,8.093,8.093,0,0,0-.422-.85c-.244-.394-.54-.652-.818-.537s-.052.5.062.8c.344.935.756,1.877,1.025,2.8s.657,1.045,1.114,1a6.04,6.04,0,0,0,.895-.226,7.57,7.57,0,0,0,1.127,2.026.678.678,0,0,1,.157.81,2.467,2.467,0,0,1-2.265,1.484c-1.033.061-2.1.038-3.16.018-.615-.013-.933-.346-.979-1.171a8.326,8.326,0,0,0-1.112-3.594,3.228,3.228,0,0,1-.378-1.244,3.35,3.35,0,0,0-.692-1.949c-.288-.365-.167-.807-.341-1.225-.33-.8-.333-1.792-1.3-2.233-.084-.039-.216-.414-.364-.342-.191.092-.044.422.047.663a38.11,38.11,0,0,1,1.313,3.687,3.053,3.053,0,0,1,.171.577c.005,2.133,1.39,4.227,2.268,6.334a6.125,6.125,0,0,1,.249.574,2.29,2.29,0,0,0,1.475,1.663c.589.2,1.177.4,1.847.626-.63,1.988-1.4,3.7-3.09,4.267a3.6,3.6,0,0,0-1.174.9c-.84.766-.894,2.07-.411,3.77a8.611,8.611,0,0,1,.322,2.316c.01.879-.284,1.408-.928,1.527-.271.05-.526.14-.789.211-.514.139-.749.5-.506,1.423.249.935.175,1.64-.557,1.709-.3.029-.36.389-.426.732-.456,2.389-1.647,3.008-3.97,2.018-.5-.215-1.028-.178-1.534-.881-.254-.352-.616-.717-.28-1.024.2-.185,0-.628-.12-.963a26.259,26.259,0,0,1-1.621-6.6,4.256,4.256,0,0,0-.281-1.149,4.076,4.076,0,0,1-.018-3.509,5.039,5.039,0,0,0-.2-3.7,22.273,22.273,0,0,0-1.053-2.794,2.715,2.715,0,0,1-.208-1.379c.017-.628.073-1.233.065-1.874a1.268,1.268,0,0,0-.871-1.328,1.311,1.311,0,0,1-.837-.831c-.353-.75-.85-1.226-1.4-1.272-1.16-.1-2.414-.92-3.621-1.384a6.02,6.02,0,0,1-2.226-3.083,28.969,28.969,0,0,0-1.586-4.039,1.126,1.126,0,0,1-.107-.866,4.583,4.583,0,0,0,.232-2.266,3.326,3.326,0,0,1,1.929-3.71,1.456,1.456,0,0,0,.887-1.568.646.646,0,0,1,.4-.667,2.105,2.105,0,0,1,2.291-.116c1.463.653,2.9.853,4.414,1.6.838.416,1.16.919.963,1.742a1.48,1.48,0,0,0,.482,1.462c.789.784,1.479,1.708,2.2,2.588.509.619.946.93,1.216.329.227-.509.663-.407,1.168.177a19.188,19.188,0,0,0,3.781,3.011c.357.26.563.107.7-.134a5.987,5.987,0,0,0,.641-2.12c.056-.4-.046-.717-.492-.816-.688-.152-1.377-.887-2.081-1.2a1.893,1.893,0,0,1-.933-1.563c-.063-.614-.093-1.006.55-.919a10.844,10.844,0,0,0,1.427.115,2.126,2.126,0,0,1,1.454.807,5.722,5.722,0,0,0,1.684,1.34c.291.125.544.16.658-.111s-.083-.6-.262-.906c-.215-.367-.45-.722-.685-1.076-.357-.54-.736-1.044-.371-1.487.184-.223,0-.527-.344-.711-.78-.409-1.094-.162-.859.765a1.17,1.17,0,0,1-.777-1.074c-.052-.642-.5-.816-.8-.747a1.667,1.667,0,0,0-1.3,1.849c0,.771-.256.852-.834.481a1.458,1.458,0,0,0-.914-.235c-.364.008-.344.2-.158.64.435,1.028.375,1.134-.565.92.22-.316.34-.6-.16-1.154a2.912,2.912,0,0,1-.525-1.124c-.437-1.8-1.664-3.216-2.577-4.782-.151-.258-.3-.506-.5-.376-.163.1-.174.3-.055.6a7.279,7.279,0,0,0,1.057,2.267,2.179,2.179,0,0,1,.567,2.534,3.489,3.489,0,0,0-1.026-2.182,10.019,10.019,0,0,1-1.365-2.262c-.338-.7-.719-1.123-1.231-1.055a1.088,1.088,0,0,1-.725-.236c-.594-.4-.764-.071-1.095.241a21.161,21.161,0,0,1-1.845,1.584c-.619.457-1.866-.385-2.649-1.437a1.526,1.526,0,0,1-.357-1.269,5.139,5.139,0,0,0,.125-1.652c-.03-.585.166-.712.652-.384s.951.627,1.426.95c.742.506,1.133.261,1.019-.662a4.826,4.826,0,0,0-1.2-2.6,18.4,18.4,0,0,0,2.462-.175c.892-.133,1.34-1.291,2.615-.533.259.153.289-.107.281-.356-.009-.3-.039-.6-.032-.888.005-.236-.058-.662.268-.42.3.224.1.437.068.614a1,1,0,0,0,.232.961c.682.509,1.344,1.351,2.055,1.474a2.4,2.4,0,0,1,1.419.461c.507.395.935.182.981-.483.04-.556-.031-1.3.769-.209.108.147.249.235.338.143a.609.609,0,0,0,.027-.643c-.424-1.053-.088-1.069.57-.719a12.048,12.048,0,0,0,1.2.525c.142.058.321.12.321-.1a.765.765,0,0,0-.3-.514,3.953,3.953,0,0,0-1.559-.83c-.378-.127-.861.047-1.137-.757-.249-.726-.282-1.405.114-1.74.253-.214.548-.363.8-.576.193-.164.538-.261.171-.856s-.908-.832-1.051-.5c-.332.783-1.07.841-1.608,1.251-.351.267-.445.846-.066,1.652.273.578.243.935-.14,1.034-.314.081-.412.412-.4.844.013.337-.054.471-.367.413-1.07-.2-1.063-.174-1.468-1.68-.035-.129-.067-.258-.1-.387-.368-1.289-.368-1.289-1.2-1.194-.7.08-.908-.3-1.139-1.307-.327-1.424.209-1.753.907-2.022.163-.063.268-.008.454.127.63.459.9.266.693-.537-.114-.432-.136-.554.184-.675.742-.278,1.693-.346,2.129-.995.583-.869,1.616,0,2.352-.141.078-.014.222.106.284.073.735-.395,1.531.619,2.307,1.18.249.18.311.233.161.493-.18.312.242.47.406.551,1.417.71,2.52,2.233,3.671,3.633.188.228.438.512.389.8s-.319.256-.562.181a4.292,4.292,0,0,1-1.771-1.215c-.208-.219-.479-.534-.638-.426-.211.144.116.5.221.755a6.3,6.3,0,0,0,.809,1.8c.218.264.443.587.7.522s-.1-.5-.066-.777c.584.679,1.017.972,1.266.289.1-.277.5-.223.838.012.734.51.706,0,.622-.624-.033-.25-.248-.648.032-.667.164-.012.333.263.488.44.342.391.073.375-.03.487s.005.329.132.5c.253.346.5.381.692.3a3.01,3.01,0,0,1,2.013.049c.166.047.379-.02.491.207.474.944.9.655,1.34.746.279.057.527-.234.823.511a.345.345,0,0,0,.52.122c.727-.542,1.54.335,2.344,1.15.185.188.345.439.528.636.165.179.351.3.487.2s.056-.351-.051-.579c-.089-.191-.194-.379-.3-.564-.375-.67-.566-1.194.012-1.342.226-.058.339-.367.5-.568.211-.264.506-.142.854.192a.855.855,0,0,1,.273.938c-.167.561.235,1.376.167,1.977-.056.484-.087.99-.184,1.44-.09.417-.231.81-.8.051-.151-.2-.376-.329-.473-.184-.127.192.129.405.257.583.552.764,1.011.783,1.379.474a5.218,5.218,0,0,0,.651-.789c.3-.38.584-.121.839.525.114.286.17.585.3.862.121.253.347.546.529.5.3-.073-.084-.4-.132-.6a4.1,4.1,0,0,0-1.435-2.294,1.692,1.692,0,0,1-.1-2.236c.181.374.336.761.546,1.114s.536.841.79.716-.273-.559-.257-.846c.837-.031,1.57.694,1.931,1.928.073.25.142.471.365.534s.206-.184.185-.393a2.813,2.813,0,0,0-.784-1.636c-.24-.259-.384-.51-.307-.773.071-.241.3-.125.5,0q.752.473,1.5.995c.371.259.606.3.318-.306-.328-.7-.057-.74.286-.628a13.652,13.652,0,0,1,3.624,1.513c.742.493,1.373.269,2.124.8.184.129.085-.227.1-.373.073-.552.376-.707.895-.448.116.058.311.16.316.329.035,1.3.871,1.32,1.439,1.709.365.25.758.157,1.1.607.219.289.623.382.66.905.036.489-.111.709-.486.658-.542-.208-.8.187-1.267.391C3407.783-338.1,3407.878-338.862,3408.535-338.3Z" transform="translate(-3295.215 397.707)" fill="#c4c4dc"/>
          <path id="Path_3212" data-name="Path 3212" d="M3318.475-387.157c-.348-.406-.365-.733-.2-.992.111-.177.291-.247.544-.073a1.5,1.5,0,0,1,.692,1.064c-.064.644.473,1.167.635,1.754.146.531.364.27.487.183.4-.284.577.1.719.652.008.032.008.063.016.095.095.4.082.958.456,1.147.412.209.631-.189.7-.6.056-.324-.015-.741.466-.333.362.306.78.579.714,1.176a1.174,1.174,0,0,0-.016.329c.179,1.15.066,1.269-.829.947-.219-.079-.586-.458-.614-.073a1.564,1.564,0,0,0,.526.972,5.59,5.59,0,0,1,1.452,2.131c-.66-.636-1.181-1.034-1.588-.638-.118.115-.376-.211-.544-.446-.22-.309-.036-.371.012-.52a1.406,1.406,0,0,0-.153-1.3,1.056,1.056,0,0,0-1.161-.568l.777.906c-.019.363-.284.373-.49.281-1.447-.654-1.7.789-2.424,1.371-.329.266-.216,1,.455,1.61a1.236,1.236,0,0,1,.317.375,10.844,10.844,0,0,0,3.247,4.111c.427.4.674.645.57,1.17a3.525,3.525,0,0,0,1.013,2.531c.391.543.646.351.695-.028a8.234,8.234,0,0,1,.635-2.822.475.475,0,0,0,0-.34,5.866,5.866,0,0,1-.251-2.757c.05-1.4.563-1.64,1.761-.389a19.055,19.055,0,0,1,1.329,1.736c.146.2.184.4.088.5-.311.342-.044.854.26,1.351.346.566.717.491,1.054.563.2.043.362-.091.531-.166.238-.1.454-.057.529.441a22.782,22.782,0,0,0,.867,2.51c.243.866,1.045,1.244,1.409,2.033,0,.02,0,.067-.01.07-.2.048-.514-.021-.584.155-.18.449.219.445.415.543a6.369,6.369,0,0,1,.737.317.906.906,0,0,1,.327.782c.03.422-.03.711-.427.642a8.234,8.234,0,0,1-2.715-.95c-1.077-.607-2.075-.376-2.416.474.422.294.61-.021.9-.022a1.51,1.51,0,0,1,.993.229c.183.125.379.309.178.478-.457.387-.385.7.348,1.43a.684.684,0,0,1,.237.305c.031.19-.025.224-.174.092a5.991,5.991,0,0,0-2.327-.4.4.4,0,0,0-.451.485c.2.95-.23.79-.738.688-.384-.077-.568.3-.8.55-.115.128-.087.756-.553-.044-.149-.255-.275.08-.232.255.438,1.8-.479,2.16-1.268,2.588-.666.362-.847,1.012-.513,2.19.163.576.231,1.14.335,1.708.034.188.066.407-.115.382s-.273-.256-.364-.44a5.428,5.428,0,0,1-.41-1.439c-.25-1.208-1.523-2.652-2.387-2.705-.11-.007-.286,0-.286.089,0,.981-.545.182-.889-.082a3.6,3.6,0,0,0-1.606-.91c-1.129-.133-.913,1.158-1.054,2.033a5.559,5.559,0,0,0,.491,2.781,2.756,2.756,0,0,0,1.949,1.887c.269.038.395-.1.445-.38s.153-.531.422-.54a.919.919,0,0,1,.857.338c.3.377.122.64.092.926-.008.081-.037.148-.049.226-.083.515-.524.822-.261,1.509s.874.745,1.319,1.149a1.325,1.325,0,0,1,.549,1.181,8.837,8.837,0,0,0-.082,1.165,2.522,2.522,0,0,0,1.494,2.268c.223.083.488.094.654.376.72,1.214.865.686,1.208.222.235-.316.822-.184,1.272-.257.1.354-.294.493.112.9.3.3.325-.081.461-.148.2-.1.3-.178.6.2a5.994,5.994,0,0,0,2.156,1.81c.371.154.553.462.794.915.768,1.447,1.448,2.959,2.8,3.888,1.078.741,1.279,2.053,1.638,3.192.094.3-.152.244-.257.328a1.436,1.436,0,0,0-.69.9c.443.146.656-.08.947-.1.135-.01.3-.149.435.209.083.224-.08.257-.2.294-.151.046-.4-.107-.45.19.408.573.753.592,1.036.377.4-.3.792-.106,1.207.641a4.887,4.887,0,0,0,1.826,1.913,7.443,7.443,0,0,1,2.086,2.615,1.439,1.439,0,0,1,.074,1.362,2.351,2.351,0,0,1-.943,1.22,1.524,1.524,0,0,0-.573,1.393,6.355,6.355,0,0,1-.664,3.325c-.161.243-.3.554-.664.374a2.524,2.524,0,0,0-1.751-.076c-.608.088-.961.311-1.039,1.321a2.926,2.926,0,0,1-2.042,2.82c-.512.147-.995-.535-1.493-.98-.066.4.211.739.341,1.07.39,1,.263,1.427-.494,1.223-.723-.194-1.5-.6-1.814.221-.035.092-.251.045-.392-.014-.482-.2-.49.005-.388.6a1.279,1.279,0,0,1-.621,1.427c-.475.272-.537.663-.084,1.494.128.236.413.527.215.666-.838.588-1.167,1.851-2,2.461a6.952,6.952,0,0,0-.493-.947c-.391-.52-.889-.974-.636-1.576.151-.358-.152-1.048.326-1.224.339-.125-.222-.76-.389-1.167-.113-.275-.513-.457-.421-.756.109-.354.316.2.476.26.223.082.237-.145.269-.315a5.225,5.225,0,0,0,0-2.156,2.922,2.922,0,0,1-.032-1.379,50.982,50.982,0,0,0,1.342-10.689,2.356,2.356,0,0,0-.506-1.713,14.065,14.065,0,0,1-2.76-6.149c-.165-.816-.483-1.676-.746-2.517-.136-.437-.291-.858.1-.916.073-.011.162-.135.138-.2-.7-1.811.257-2.159.773-2.88a3.153,3.153,0,0,0,.076-2.709c-.169-.569-.428-1.183-.95-.927-.12.058-.264-.011-.421-.161a6.276,6.276,0,0,1-1.925-2.781A3.969,3.969,0,0,0,3321-349.55a17.817,17.817,0,0,1-1.229-1.358,11.012,11.012,0,0,0-2.044-2,14.844,14.844,0,0,1-3.249-3.776.932.932,0,0,1-.169-.376c-.012-1.686-1.294-3.3-1.849-4.958-.3-.9-.831-1.786-1.088-2.7a.978.978,0,0,0-.509-.706c-.314-.1-.2.294-.2.534.019.312-.1.239-.284.013a18.445,18.445,0,0,0-1.8-3.887,12.245,12.245,0,0,1-1.744-4.88c-.057-1.183.036-2.291.072-3.426.007-.184-.01-.447.238-.321.755.38.481-.265.25-.757a6.322,6.322,0,0,0-.94-1.638,8.144,8.144,0,0,1-1.787-3.479,23.531,23.531,0,0,0-1.308-3.123c-.8-1.768-1.973-2.431-2.988-3.514a19.042,19.042,0,0,1-2.6-2.535c-.235-.351-.533-.389-.668-.1a.422.422,0,0,0-.02.073c-.1.413-.472.541-.749.2-.416-.517.167-.5.178-.934-.453-.421-.7-.323-.879.044a2.235,2.235,0,0,1-2.3,1.392c-.158-.005-.172-.1-.137-.23a2.078,2.078,0,0,0,.384-.312c.333-.42.232-.711-.393-1.083a10.365,10.365,0,0,1-2.277-2.5c-.715-.879-.491-1.75.324-1.57a.85.85,0,0,0,.993-.273.563.563,0,0,0-.05-.593c-.113-.2-.224-.155-.341-.179-1.152-.237-1.252-.336-2.012-1.951a1.4,1.4,0,0,1,1.466.611c.293.331.65.56.776.233.15-.386-.3-.586-.508-.856-.19-.249-.406-.475-.577-.738-.259-.4-.73-.848-.683-1.224.042-.323.556.014.806-.043a6.024,6.024,0,0,1,1.729-.179,3.034,3.034,0,0,1,2.083.935,25.086,25.086,0,0,0,3.362,2.574,40.237,40.237,0,0,1,3.716,3.185c.392.349.347.705.453,1.072.071.246.148.592.4.618.188.019.128-.3.067-.509-.29-1.01-.114-1.084.622-.339a1.24,1.24,0,0,0,1.321.312,1.443,1.443,0,0,1,1.472.642c.486.562,1.014.475,1.548.955.7.626,1.339,1.61,2.151,1.734.116.018.467.346.325.594-.335.584.224.735.5.9.747.456,1.527.727,1.975,1.979.1.283.409.37.353.1-.115-.554.418-.453.267-1.085-.106-.443.445-.06.554.107a5.783,5.783,0,0,0,3.779,2.555.352.352,0,0,1,.073.056C3318.395-386.146,3318.541-386.52,3318.475-387.157Z" transform="translate(-3288.197 402.66)" fill="#c4c4dc"/>
          <path id="Path_3213" data-name="Path 3213" d="M3338.206-387.79c.609.622,1.227.24,1.834,1.081.635-.8,1.592.615,2.381.876.37.123.882.464.4-.5-.176-.351-.08-.4.122-.364.071.012.155-.009.212.046,1.48,1.429,2.945,1.013,4.441,2.528-.131.211-.549-.161-.608.264a2.782,2.782,0,0,0,1.068.633c.7.32,1.395.588,2.095.936.289.143.708.153.786.877.022.2.349.346.548.479a2.65,2.65,0,0,1,.979.695c-1.816-.628-3.58-1.613-5.074-1.148a1.421,1.421,0,0,0,1.151.547,5.641,5.641,0,0,1,2.545.774c.39.244.872.272,1.119,1.037.02.061.153.183.2.18.7-.031,1.495.905,2.209.964a2.577,2.577,0,0,1,1.454.915c-.791-.143-1.394.289-2.294-.251-.2-.12-.438-.2-.522-.023-.141.3.232.394.325.583.217.447-.052.545-.213.647-.678.429-.631.863.347,2-.333-.173-.565-.3-.794-.408-.2-.092-.439-.2-.51,0-.087.244.185.377.325.542.021.026.065.053.068.069.045.253-.488.235.055.723a1.976,1.976,0,0,1,.594.952c-.784-.069-.784-.069-.5.709-.29-.1-.456-.457-.668-.705-.408-.477-.821-1.19-1.194-.635a.051.051,0,0,1-.064,0c-1.264-.859-.3.643-.415.989-.054.165.263.313.429.425a3.019,3.019,0,0,1,1.01,1.053c.108.192.368.482.206.588-.2.133-.324-.224-.463-.469-.273-.479-.621-.709-.832-.46-.134.158-.436.253-.313.624s.455.374.694.553c.208.155.452.19.646.608a5.806,5.806,0,0,1-2.879-.831c-.9-.538-1.637-.585-2.025.23-.161.34-.513.316-.9.192a1.678,1.678,0,0,0-2.28,1.73c-.019.534-.227.734-.585.781-.1.013-.271.007-.338-.079-1.08-1.422-2.423-2.725-2.525-4.623,0-.057-.01-.158-.033-.179-.912-.849-.289-1.069-.115-1.367.267-.46.006-.611-.461-.852.891.392.379-.713.6-1.035.45-.639-.444-1.021-.747-1.547.348-.13.641-.311.265-1.076-.314-.638-.436-.17-.7-.218-.129-1.5-1.061-2.908-1.667-4.354a.987.987,0,0,0-.524-.545c-.9-.43-1.8-.884-2.7-1.307-.71-.334-.766-.383-1.223-1.364.031-.024.053-.072.092-.072.323,0,.972.511.948.078-.031-.566-.652-.66-1.009-.98-.258-.232-.55-.292-.843-.687.389-.375,1,.145,1.483.243a2.089,2.089,0,0,1,.431.1c.593.251,1.111.132,1.08-.5-.033-.646-.683-.365-1.087-.993.959-.085,2.238.721,2.854-.144C3337.453-388.246,3337.851-387.826,3338.206-387.79Z" transform="translate(-3292.655 401.15)" fill="#c4c4dc"/>
          <path id="Path_3214" data-name="Path 3214" d="M3427.1-268.469c.313,1.47,1.052,2.757,1.091,4.013.036,1.183,1,2.318,1.468,3.492a6.919,6.919,0,0,0,1.246,2.186,1.114,1.114,0,0,1,.251.9,15.464,15.464,0,0,1-1.331,5.706c-.162.441-.736-.092-.968.175-.319.367-.625.032-.964-.547-.185-.316-.37-.18-.555-.236a2.112,2.112,0,0,1-1.326-1.373c-.335-.745-.285-1.638-1.058-2.256.035-.172.074-.343.107-.518a.5.5,0,0,0-.1-.513c-.191-.2-.279-.047-.331.067-.294.658-.535.472-.935-.5a3.845,3.845,0,0,0-1.76-1.986,3.983,3.983,0,0,0-2.354-.588c-.761.16-1.739-.349-2.563-.3-.358.02-.859-.606-.893-1.251a14.293,14.293,0,0,0-.943-4.616c-.154-.389-.113-.346.2-.174.361.2.16-.334.062-.637-.408-1.262-.343-1.5.53-1.551.5-.029,1.042.031,1.547.006.566-.029,1.2.038,1.215-.886a.342.342,0,0,1,.03-.144c.813.509.769-.579,1.3-.609.194-.011.31.033.454.268a2.424,2.424,0,0,0,.676.738c.342.236.615.5.7-.127.155-1.212,1.2-1.221,2.171-.19.313.329.414.53.274.864-.385.919.322,2.685,1.382,3.571.293.244.343.038.432-.1a4.325,4.325,0,0,0,.52-1.686A2.7,2.7,0,0,1,3427.1-268.469Z" transform="translate(-3301.329 388.825)" fill="#c4c4dc"/>
          <path id="Path_3215" data-name="Path 3215" d="M3332.984-390l-1.752.293c-.19.031-.388-.132-.578-.321-.79-.784-1.132-.15-1.792-.362.318.6.622.515.88.955-.623.4-1.407.2-2.348-.3.244.729.672.892,1.114,1.216-.366.244-.755.121-1.208-.2-.623-.439-1.248-.849-1.869-1.293-.252-.18-.674-.274-.662-.734.011-.413-.091-1.191.876-.268-.527-.959-.826-1.632-1.431-1.387a.982.982,0,0,1-.622-.093,1.276,1.276,0,0,1-.823-.877c-.2-.64.446,0,.411-.456a5.41,5.41,0,0,0-.936-.844,1,1,0,0,1-.392-.682c0-.24.2-.187.3-.274.833-.69,1.6.754,2.343,1.493a5.429,5.429,0,0,1,.578,1.372,3.38,3.38,0,0,0,1.883,1.711c.116.007.235,0,.228-.167a.453.453,0,0,0-.278-.367,4.107,4.107,0,0,1-1.053-1.026c-.162-.209-.42-.46-.353-.7.077-.271.348-.08.569.1.609.491,1.194.875,1.652.521.073-.092.294-.1,0-.4a3.481,3.481,0,0,1-2.12-1.229c-.09-.1-.216-.251-.283-.252-.814-.019-1.135-.991-1.737-1.891,1.134.683,1.939.328,2.936.955.067.043.177.063.2.018.527-1.088,1.657-.037,2.554.44.839.448,1.7,1.072,2.548,1.547a2,2,0,0,1,1.08,1.044c.137.32.412.379.635.489a3.9,3.9,0,0,1,.669.344,1.506,1.506,0,0,1,.7.942c.036.361-.334.175-.549.167-.294-.011-.6-.056-.9-.088C3333.3-390.392,3332.954-390.436,3332.984-390Z" transform="translate(-3291.555 402.01)" fill="#c4c4dc"/>
          <path id="Path_3216" data-name="Path 3216" d="M3331.276-377.91c-.462-2.2-1.913-3.249-3.273-4.3a23.886,23.886,0,0,0-2.627-1.686,2.6,2.6,0,0,1-1.129-1.818c-.182-.739.2-.845.59-.915.283-.052.594-.021.894.476a1.369,1.369,0,0,1,.221,1.238c-.1.192-.251.287-.03.654.088.148.191.346.318.3.054-.019.072-.17.052-.277a2.822,2.822,0,0,1-.073-.9c.071-.481.3-.679.771-.459.489.229.365.632.45.978.143.589,1.012,1.44,1.369,1.287.61-.263,1.079.224,1.513,1.1a1.273,1.273,0,0,0,.419.571c.774.343,1.172,1.472,1.883,1.986.3.218.765.7.393,1.126-.182.207.105.665.339.825a21.874,21.874,0,0,1,1.71,1.833c.191.17.537.679.321.686-.341.012-.245,1-.9.223a8.276,8.276,0,0,1-.585-.88c-.269-.423-.539-.611-.8-.475-.319.163-.014.552.149.876.142.284.31.558.457.841a3.275,3.275,0,0,1,.5,1.327c.011.376-.6.047-.363.7.038.1-.15-.045-.228-.127a14.073,14.073,0,0,1-2.208-2.439,3.312,3.312,0,0,0-1.847-1.7.563.563,0,0,1-.5-.473c-.053-.345.208-.235.4-.162.247.094.5.226.749.348.207.1.339.17.362-.17.039-.585.407-.483.864-.012C3331.723-377.434,3331.717-377.458,3331.276-377.91Z" transform="translate(-3291.801 400.982)" fill="#c4c4dc"/>
          <path id="Path_3217" data-name="Path 3217" d="M3415.615-280.574c-.551-.561-1.211-.7-1.658-1.625-.831-1.729-.8-2.363.393-2.664a5.571,5.571,0,0,0,1.71-.7c.329-.215.547-.009.868.5.336.537.229.711-.038.815-.314.122-.343.319.009.884a.936.936,0,0,1,.026,1.093c-.341.407-.834.683-.764,1.574C3416.192-280.289,3415.844-280.511,3415.615-280.574Z" transform="translate(-3301.15 390.394)" fill="#c4c4dc"/>
          <path id="Path_3218" data-name="Path 3218" d="M3312.309-393.46c.341.073.749-.206.917.787a2.041,2.041,0,0,0,.9.375c.576-.015.836.555,1.17,1.059.156.235.388.633.436.294.089-.612.537-.538.978-.667a3.217,3.217,0,0,0,.174,1.794,2.736,2.736,0,0,0,1.2,1.555c-.234.654-.591.717-1.245-.071a1.58,1.58,0,0,0-1.1-.609,3.845,3.845,0,0,1-3.3-2.358c.388.193.781.4,1.173.577.161.074.4.234.39-.053,0-.212-.205-.334-.348-.458a4.71,4.71,0,0,0-1.122-.662,1.436,1.436,0,0,1-.676-.942c-.154-.474-.007-.594.231-.655C3312.141-393.563,3312.217-393.54,3312.309-393.46Z" transform="translate(-3290.501 401.704)" fill="#c4c4dc"/>
          <path id="Path_3219" data-name="Path 3219" d="M3423.571-277.219a1.322,1.322,0,0,1,.876,1.042c.209.768.558,1.226,1.05.918.251-.158.5.005.814.315a29.012,29.012,0,0,1,2.444,2.742,4.5,4.5,0,0,1,1.2,2.331,6.629,6.629,0,0,0,.841,1.731,2.6,2.6,0,0,1-1.189-1.268c-.559-1.233-.746-1.382-1.473-1.121-.242.087-.456-.062-.694-.293-.379-.368-.751-.757-1.126-1.134-.114-.114-.29-.244-.206-.383.456-.747-.332-1.419-.782-2.1a4.914,4.914,0,0,0-1.033-1.089c-.281-.231-.485-.376-.3-.7C3424.2-276.594,3423.6-276.792,3423.571-277.219Z" transform="translate(-3302.218 389.511)" fill="#c4c4dc"/>
          <path id="Path_3220" data-name="Path 3220" d="M3386.268-291.57a3.5,3.5,0,0,1,.221,2.015c-.263,1.234-.573,2.429-.871,3.633a1.772,1.772,0,0,1-.2.534c-.159.244-.45.2-.762.024a1.273,1.273,0,0,1-.49-.858,2.445,2.445,0,0,1-.027-1.942,2.256,2.256,0,0,0,.129-1.286c-.029-.616.143-1.017.6-1.056A1.447,1.447,0,0,0,3386.268-291.57Z" transform="translate(-3298.064 391.015)" fill="#c4c4dc"/>
          <path id="Path_3221" data-name="Path 3221" d="M3422.267-300.424c.666.644.87,0,1.3.172.816.327,1.361-.15,2.154.151.044.016.12,0,.116-.027-.1-.826.953-.277.762-1.245-.057-.289.118-.53.446-.29a1.117,1.117,0,0,1,.446.954,14.442,14.442,0,0,1-.675,2.614c-.047.217-.276.039-.447-.039a3.863,3.863,0,0,0-.739-.318c-.737-.139-.732-.122-1.269-.851-.186.079.168.375.071.434a12.856,12.856,0,0,1-1.463.817c-.115.052-.3-.3-.276-.451A5.973,5.973,0,0,0,3422.267-300.424Z" transform="translate(-3302.081 392.084)" fill="#c4c4dc"/>
          <path id="Path_3222" data-name="Path 3222" d="M3362.54-352.083c.175.383.094.787.5.978.115.054.218.235.156.3-.442.474.134,1.123.451,1.678.457.8.392,1.653,1.047,2.456.258.317-.188.773-.687.587-.244-.09-.5-.266-.749-.388s-.484-.22-.852-.386c.22-.252.813-.231.063-.993-.2-.2.084-.424.261-.532.384-.231.315-.672-.133-1.287C3361.86-350.688,3361.822-351.591,3362.54-352.083Z" transform="translate(-3295.766 397.359)" fill="#c4c4dc"/>
          <path id="Path_3223" data-name="Path 3223" d="M3407.424-290.225a2.734,2.734,0,0,1,1.1,1.218,37.752,37.752,0,0,1,1.844,3.67,2.918,2.918,0,0,0,.753,1.119c.321.3.4.567.256.8s-.075.807-.423.7-.541-.668-.751-1.055a29.145,29.145,0,0,1-1.617-3.819C3408.27-288.43,3407.862-289.244,3407.424-290.225Z" transform="translate(-3300.526 390.874)" fill="#c4c4dc"/>
          <path id="Path_3224" data-name="Path 3224" d="M3394.373-349.448A4.288,4.288,0,0,1,3392-349.8c-1.269-.476-1.965.175-2.643.869-.314.32.1.9.3,1.4a3.346,3.346,0,0,1-1.528-1.6.392.392,0,0,1,.324-.535c.629-.048.756-.756,1.078-1.2.086-.119.156-.2.313-.125.555.253,1.059.2,1.6.444A27.205,27.205,0,0,0,3394.373-349.448Z" transform="translate(-3298.501 397.247)" fill="#c4c4dc"/>
          <path id="Path_3225" data-name="Path 3225" d="M3372.817-364.917c.456.46.7.779.091.843-.393.041-.526.523-.736.86-.121.193-.258.42-.557-.062-.156-.25-.615-.624-.177-.776.162-.056.2-.219-.055-.483-.218-.222-.093-.256,0-.292.143-.055.452.033.293-.32a.468.468,0,0,0-.608-.3c-.474.272-.965-.672-1.419-.588-.081-.577.843-.153.179-1.1-.094-.137.236-.069.388-.007.13.053.315-.034.388.37.107.588.163.66.549.537.454-.143.766.139,1.055.811C3372.389-365.15,3372.656-365.269,3372.817-364.917Z" transform="translate(-3296.565 398.945)" fill="#c4c4dc"/>
          <path id="Path_3226" data-name="Path 3226" d="M3312.017-393.755l-.219-.034c-.3-.516-.531-.41-.78-.337a8.277,8.277,0,0,1-.98.216c-.359.057-.587-.37-.854-.755-.308-.444-.152-.526.006-.681.268-.265-.045-1.313.708-.911a17.676,17.676,0,0,1,1.482,1C3312.01-394.83,3312.3-394.341,3312.017-393.755Z" transform="translate(-3290.208 401.999)" fill="#c4c4dc"/>
          <path id="Path_3227" data-name="Path 3227" d="M3354.383-362.19c.795.044,1.449-.355,2.451.26a1.9,1.9,0,0,1,.894,1.208c.173.637-.305.395-.559.4a4.183,4.183,0,0,1-1.044-.138A2.663,2.663,0,0,1,3354.383-362.19Z" transform="translate(-3294.965 398.427)" fill="#c4c4dc"/>
          <path id="Path_3228" data-name="Path 3228" d="M3327.892-386.973c.04.325-.116.427-.45.275a14.241,14.241,0,0,1-4.024-2.551c-.072-.066-.182-.135-.208-.206a5.928,5.928,0,0,0-1.784-2.378c.748.475,1.537.689,2.063,1.866a2.428,2.428,0,0,0,1.168,1.119C3325.729-388.2,3326.8-387.6,3327.892-386.973Z" transform="translate(-3291.51 401.526)" fill="#c4c4dc"/>
          <path id="Path_3229" data-name="Path 3229" d="M3439.243-239.313a1.767,1.767,0,0,1,.81-.856,3.431,3.431,0,0,0,1.136-.944c.1-.149.328-.224.573.117a.53.53,0,0,1,.049.649c-.386.6-.962.966-1.151,1.826C3440.566-238.1,3440.329-238.265,3439.243-239.313Z" transform="translate(-3303.861 385.739)" fill="#c4c4dc"/>
          <path id="Path_3230" data-name="Path 3230" d="M3428.065-304.437a9.989,9.989,0,0,0,1.262,1.508c.2.2-.021.475-.209.494-.465.046-.951.039-1.432.04-.176,0-.282-.217-.366-.408-.134-.305-.234-.718-.062-.755.38-.081.469-.444.55-.85C3427.828-304.519,3427.908-304.539,3428.065-304.437Z" transform="translate(-3302.595 392.371)" fill="#c4c4dc"/>
          <path id="Path_3231" data-name="Path 3231" d="M3327.548-347.674a16.14,16.14,0,0,1,2.752,2.993c.129.168.231.425.06.457a.876.876,0,0,1-.955-.534,4.3,4.3,0,0,0-.956-1.325c-.376-.33-.734-1.316-1.189-.824a3.6,3.6,0,0,1-.509-.748c-.092-.275.177-.2.325-.184A2.378,2.378,0,0,1,3327.548-347.674Z" transform="translate(-3292.067 396.916)" fill="#c4c4dc"/>
          <path id="Path_3232" data-name="Path 3232" d="M3315.471-395.152a8.621,8.621,0,0,0,.928,1.582,6.337,6.337,0,0,1-2.227-.694c-.454-.315-.879-1.267-1.525-1.5-.064-.023-.1-.36-.044-.5.071-.159.229-.1.377.03.34.289.686.577,1.011.909C3315.062-394.225,3315.072-394.216,3315.471-395.152Z" transform="translate(-3290.583 402)" fill="#c4c4dc"/>
          <path id="Path_3233" data-name="Path 3233" d="M3339.264-359.3c-.2.332-.28.517.223.84a1.465,1.465,0,0,1,.6,1.515c-.023.243-.242.125-.367.176-.087.036-.23-.1-.232-.223-.017-.885-.5-.705-.819-.858a1.183,1.183,0,0,1-.725-.713c-.153-.43.09-.489.263-.58A1.192,1.192,0,0,1,3339.264-359.3Z" transform="translate(-3293.237 398.121)" fill="#c4c4dc"/>
          <path id="Path_3234" data-name="Path 3234" d="M3419.469-279.619c-.914-.235-.915-.235-.411.889.223.5.338.939.12,1.261a2.027,2.027,0,0,1-.38-.971c-.077-.242-.1-.589-.35-.666-.227-.071-.183.272-.178.5.006.315.035.644.057,1-.739-1.345-.581-3.491.256-3.545.063.358-.633.211-.093.821A5.506,5.506,0,0,0,3419.469-279.619Z" transform="translate(-3301.619 389.923)" fill="#c4c4dc"/>
          <path id="Path_3235" data-name="Path 3235" d="M3373.117-364.781a1.874,1.874,0,0,1-.606-.508c.262.174.524.158.518-.09-.022-1.089.546-.235.837.109.271.322.344.4.584.261.5-.284,1.048.509,1.655.968-.529.438-1.105.273-1.842-.335C3373.893-364.681,3373.382-365.371,3373.117-364.781Z" transform="translate(-3296.865 398.809)" fill="#c4c4dc"/>
          <path id="Path_3236" data-name="Path 3236" d="M3407.234-346.136a1.431,1.431,0,0,1,.583.657c.132.344.251.577.485.393a.216.216,0,0,1,.371.09,1.494,1.494,0,0,1,.04,1.026c-.04.175-.174.176-.343.021-.691-.636-1.385-1.266-2.069-1.925-.309-.3-.042-.333,0-.464C3406.541-346.582,3406.845-346.545,3407.234-346.136Z" transform="translate(-3300.392 396.772)" fill="#c4c4dc"/>
          <path id="Path_3237" data-name="Path 3237" d="M3320.982-388.113c.036.339-.122.324-.29.312-.615-.043-1.018-.74-1.344-1.372-.073-.14.12-.666.415-.713.578-.093.754.116.931.976A5.589,5.589,0,0,0,3320.982-388.113Z" transform="translate(-3291.291 401.324)" fill="#c4c4dc"/>
          <path id="Path_3238" data-name="Path 3238" d="M3442.972-240.839c-.452-.9-.788-1.636-.5-2.291.1-.227.075-.277.364-.144.488.225.658.8.962,1.179.14.175-.154.428-.346.561A2.671,2.671,0,0,0,3442.972-240.839Z" transform="translate(-3304.188 385.96)" fill="#c4c4dc"/>
          <path id="Path_3239" data-name="Path 3239" d="M3361.566-349.378a.834.834,0,0,1-1.233.767.371.371,0,0,1-.248-.432,2.248,2.248,0,0,1,.658-1.342c.121-.116.29-.029.471.169A1.126,1.126,0,0,1,3361.566-349.378Z" transform="translate(-3295.562 397.186)" fill="#c4c4dc"/>
          <path id="Path_3240" data-name="Path 3240" d="M3418.344-291.088c.025-.157.056-.427.114-.674s.218-.351.491-.09c.3.291.4.705.233.829-.609.442-.071,1.186.336,1.914.207.371.417.742.616,1.117.07.131.221.361,0,.307-.1-.024-.257.106-.348-.254a4.531,4.531,0,0,0-1.115-1.853A1.661,1.661,0,0,1,3418.344-291.088Z" transform="translate(-3301.669 391.061)" fill="#c4c4dc"/>
          <path id="Path_3241" data-name="Path 3241" d="M3428.509-310.949a12.123,12.123,0,0,0,.507,3.575c.024.074.01.217-.006.211-.9-.294-.417.62-.3,1.2.032.158.118.357-.042.343a.379.379,0,0,1-.289-.419C3428.607-307.563,3427.7-309.765,3428.509-310.949Z" transform="translate(-3302.699 393.047)" fill="#c4c4dc"/>
          <path id="Path_3242" data-name="Path 3242" d="M3414.332-336.338c-.361-.188-.355.267-.478.409a1.076,1.076,0,0,1-1.55-.069c-.262-.255-.354-.5-.085-.51.69-.031,1.237-.49,2.113.026C3414.332-336.434,3414.332-336.386,3414.332-336.338Z" transform="translate(-3301.011 395.749)" fill="#c4c4dc"/>
          <path id="Path_3243" data-name="Path 3243" d="M3388.619-357c-.264-.031-.462-.2-.706-.607-.164-.272-.592-.534-.543.028.016.192-.013.173-.12.129-.235-.1-.29-.325-.351-.555-.071-.269-.332-.6-.152-.785.121-.123.29-.126.521.068.647.543,1.3,1.07,1.946,1.6.109.089.21.218.2.322-.013.084-.109.124-.187.136C3389.034-356.637,3388.832-356.861,3388.619-357Z" transform="translate(-3298.351 398.071)" fill="#c4c4dc"/>
          <path id="Path_3244" data-name="Path 3244" d="M3415.135-277.682c-1.037-.863-1.906-1.576-2.769-2.316-.176-.15-.455-.413-.391-.648.072-.264.328.064.506.2.608.478,1.221.943,1.82,1.459A2.789,2.789,0,0,1,3415.135-277.682Z" transform="translate(-3301.001 389.881)" fill="#c4c4dc"/>
          <path id="Path_3245" data-name="Path 3245" d="M3312.778-360.462l.284-.013c.614,1.654,1.228,3.308,1.9,5.107a4.407,4.407,0,0,1-.957-1.553A28.253,28.253,0,0,1,3312.778-360.462Z" transform="translate(-3290.604 398.238)" fill="#c4c4dc"/>
          <path id="Path_3246" data-name="Path 3246" d="M3322.028-388.128c-.028-.448.038-.653.294-.6a1.82,1.82,0,0,1,1.023.475c.112.109.142.263.073.321-.325.27-.827.222-1.11.585-.051.065-.19-.236-.222-.388A3.585,3.585,0,0,1,3322.028-388.128Z" transform="translate(-3291.573 401.201)" fill="#c4c4dc"/>
          <path id="Path_3247" data-name="Path 3247" d="M3429.963-248.117c.282.243.72.349.7.9-.014.378-.09.8-.574.491a1.679,1.679,0,0,1-.615-1.3C3429.372-248.573,3429.75-248.175,3429.963-248.117Z" transform="translate(-3302.834 386.48)" fill="#c4c4dc"/>
          <path id="Path_3248" data-name="Path 3248" d="M3419.167-284.914c.4-.568.988-.127,1.47.045.179.064.182.4.19.6.013.344-.077.578-.352.585a.458.458,0,0,1-.43-.4A1.056,1.056,0,0,0,3419.167-284.914Z" transform="translate(-3301.756 390.347)" fill="#c4c4dc"/>
          <path id="Path_3249" data-name="Path 3249" d="M3332.5-294.578c.091-.206.407.036.454-.249.031-.184-.021-.679.329-.279a3.124,3.124,0,0,1,.83,1.605c.027.269-.272.14-.472-.034C3333.257-293.865,3332.885-294.22,3332.5-294.578Z" transform="translate(-3292.671 391.402)" fill="#c4c4dc"/>
          <path id="Path_3250" data-name="Path 3250" d="M3428.063-328.837a2.2,2.2,0,0,0-1.131-.6.705.705,0,0,1-.514-.506.56.56,0,0,1,.023-.56c.131-.154.389-.063.518.178.316.6,1.127.391,1.146,1.385C3428.106-328.917,3428.09-328.9,3428.063-328.837Z" transform="translate(-3302.51 395.104)" fill="#c4c4dc"/>
          <path id="Path_3251" data-name="Path 3251" d="M3411.325-342.055l-1.9-.55c.185-.508.423-.8.863-.691C3410.7-343.189,3411.043-342.737,3411.325-342.055Z" transform="translate(-3300.734 396.44)" fill="#c4c4dc"/>
          <path id="Path_3252" data-name="Path 3252" d="M3321.219-384.466c-.029-.388-.229-.426-.43-.47-.313-.069-.453-.413-.594-.73a.258.258,0,0,1,.069-.35c.184-.153.385.024.594.3a1.608,1.608,0,0,0,.648.516c.211.039.515.122.447.471C3321.887-384.4,3321.828-383.812,3321.219-384.466Z" transform="translate(-3291.377 400.922)" fill="#c4c4dc"/>
          <path id="Path_3253" data-name="Path 3253" d="M3406.181-347.2c.079-.439.447-.338.762-.294a1.2,1.2,0,0,1,.81.887c.15.553-.287.24-.509.231C3406.863-346.481,3406.455-346.422,3406.181-347.2Z" transform="translate(-3300.395 396.882)" fill="#c4c4dc"/>
          <path id="Path_3254" data-name="Path 3254" d="M3317.25-397.23a4.186,4.186,0,0,1,2.19,2.7C3318.827-395.492,3317.919-396.029,3317.25-397.23Z" transform="translate(-3291.073 402.091)" fill="#c4c4dc"/>
          <path id="Path_3255" data-name="Path 3255" d="M3320.16-391.737c-.035.272-.161.383-.4.182a2.646,2.646,0,0,1-.849-1.348c-.082-.346.264-.2.482-.047A1.749,1.749,0,0,1,3320.16-391.737Z" transform="translate(-3291.246 401.66)" fill="#c4c4dc"/>
          <path id="Path_3256" data-name="Path 3256" d="M3311.99-397.867c-.242.439-1.467.466-1.985.05C3310.468-398.418,3311.2-398.16,3311.99-397.867Z" transform="translate(-3290.313 402.191)" fill="#c4c4dc"/>
          <path id="Path_3257" data-name="Path 3257" d="M3333.434-341.44a3.679,3.679,0,0,1-1.337-.523c-.178-.107-.481-.189-.47-.511.008-.239.218-.325.484-.166A4.169,4.169,0,0,1,3333.434-341.44Z" transform="translate(-3292.58 396.377)" fill="#c4c4dc"/>
          <path id="Path_3258" data-name="Path 3258" d="M3386.336-358.146c-.344-.052-.551-.382-.763-.617s-.52-.551-.382-.83c.117-.24.428-.121.7.03.158.086.348.323.2.419C3385.733-358.917,3386.172-358.546,3386.336-358.146Z" transform="translate(-3298.191 398.16)" fill="#c4c4dc"/>
          <path id="Path_3259" data-name="Path 3259" d="M3419.774-273.869a1.032,1.032,0,0,1,1.081-.569.411.411,0,0,1,.336.27c.083.187.02.292-.073.338A1.3,1.3,0,0,1,3419.774-273.869Z" transform="translate(-3301.82 389.22)" fill="#c4c4dc"/>
          <path id="Path_3260" data-name="Path 3260" d="M3432.4-270.221c.125.252.022.341-.065.416-.2.172-.393.379-.756.165a.489.489,0,0,1-.212-.419c.033-.423.424-.168.642-.242A.288.288,0,0,1,3432.4-270.221Z" transform="translate(-3303.035 388.79)" fill="#c4c4dc"/>
          <path id="Path_3261" data-name="Path 3261" d="M3400.487-296.544a1.758,1.758,0,0,1,.377,1.085c0,.279-.181.329-.393.158a.91.91,0,0,1-.3-.927C3400.193-296.429,3400.211-296.673,3400.487-296.544Z" transform="translate(-3299.763 391.54)" fill="#c4c4dc"/>
          <path id="Path_3262" data-name="Path 3262" d="M3328.41-392.7c.33-.06.749-.246,1.063.238.413.636-.073.461-.336.408a4.666,4.666,0,0,1-.5-.144,2,2,0,0,1-.222-.1C3328.412-392.428,3328.411-392.563,3328.41-392.7Z" transform="translate(-3292.243 401.625)" fill="#c4c4dc"/>
          <path id="Path_3263" data-name="Path 3263" d="M3335.717-358.047l.174-.092.533.772-1.331.173C3334.981-357.958,3335.663-357.594,3335.717-358.047Z" transform="translate(-3292.942 397.993)" fill="#c4c4dc"/>
          <path id="Path_3264" data-name="Path 3264" d="M3313.946-397.14c.469.172.18-.81.7-.521.157.088.379.128.434.437.039.217-.113.247-.233.269C3314.591-396.909,3314.371-396.719,3313.946-397.14Z" transform="translate(-3290.726 402.142)" fill="#c4c4dc"/>
          <path id="Path_3265" data-name="Path 3265" d="M3329.617-383.87a2.059,2.059,0,0,1-.341-.086c-.284-.117-.6-.109-.807-.625-.037-.091-.014-.264.037-.281.28-.091.565.241.844.52A.826.826,0,0,1,3329.617-383.87Z" transform="translate(-3292.247 400.796)" fill="#c4c4dc"/>
          <path id="Path_3266" data-name="Path 3266" d="M3334.226-389.325c-.177-.158-.448-.163-.519-.477s.2-.238.361-.24a3.272,3.272,0,0,1,.623.118C3334.707-389.5,3334.567-389.283,3334.226-389.325Z" transform="translate(-3292.797 401.339)" fill="#c4c4dc"/>
          <path id="Path_3267" data-name="Path 3267" d="M3321.322-384.389c.372.223.549.057.6-.282.036-.227-.191-.314-.316-.449l.15-.22c.534.331.54.7.367,1.027-.2.38-.442.692-.989-.131Z" transform="translate(-3291.48 400.845)" fill="#c4c4dc"/>
          <path id="Path_3268" data-name="Path 3268" d="M3296.374-390.23c.008.143.031.226.012.247-.2.21-.386.446-.775.252a.482.482,0,0,1-.122-.241C3295.633-390.368,3295.977-390.324,3296.374-390.23Z" transform="translate(-3288.791 401.364)" fill="#c4c4dc"/>
          <path id="Path_3269" data-name="Path 3269" d="M3438.879-255.983c0,.2-.089.26-.224.144a1.709,1.709,0,0,1-.612-.91c-.028-.125.092-.157.2-.081A1.6,1.6,0,0,1,3438.879-255.983Z" transform="translate(-3303.735 387.378)" fill="#c4c4dc"/>
          <path id="Path_3270" data-name="Path 3270" d="M3406.161-347.156a4.024,4.024,0,0,0,1.063.824.876.876,0,0,1-.007.125,1.614,1.614,0,0,1-.93-.2C3405.976-346.745,3405.862-347.018,3406.161-347.156Z" transform="translate(-3300.375 396.842)" fill="#c4c4dc"/>
          <path id="Path_3271" data-name="Path 3271" d="M3388.379-358.369c.456.042.7.4.938.382a.392.392,0,0,1,.41.38c.016.291-.243.226-.433.088A12.038,12.038,0,0,1,3388.379-358.369Z" transform="translate(-3298.529 398.018)" fill="#c4c4dc"/>
          <path id="Path_3272" data-name="Path 3272" d="M3428.532-327.142c-.289.055-.563-.013-.781-.477-.091-.192-.093-.48.012-.46C3428.128-328.013,3428.224-327.418,3428.532-327.142Z" transform="translate(-3302.649 394.842)" fill="#c4c4dc"/>
          <path id="Path_3273" data-name="Path 3273" d="M3390.728-356.166c-.093.155-.188.354-.417.165a1.008,1.008,0,0,1-.27-.706c-.027-.252.119-.231.282-.044C3390.472-356.58,3390.76-356.514,3390.728-356.166Z" transform="translate(-3298.702 397.863)" fill="#c4c4dc"/>
          <path id="Path_3274" data-name="Path 3274" d="M3332.1-376.887c.126.079.252.15.376.237a.877.877,0,0,1,.424.529c.041.184-.042.259-.149.279-.211.04-.377-.124-.493-.444C3332.317-376.467,3332.18-376.682,3332.1-376.887Z" transform="translate(-3292.63 399.959)" fill="#c4c4dc"/>
          <path id="Path_3275" data-name="Path 3275" d="M3391.383-345.086a1.318,1.318,0,0,1-.457-.758c-.014-.2.154-.124.275-.022a1.075,1.075,0,0,1,.465.74C3391.673-344.939,3391.523-345,3391.383-345.086Z" transform="translate(-3298.796 396.718)" fill="#c4c4dc"/>
          <path id="Path_3276" data-name="Path 3276" d="M3444.769-315.369c.334-.065.676-.045,1.172.565A1.591,1.591,0,0,1,3444.769-315.369Z" transform="translate(-3304.44 393.513)" fill="#c4c4dc"/>
          <path id="Path_3277" data-name="Path 3277" d="M3418.637-294.739c-.25-.557-.212-.915.125-1.16A1.213,1.213,0,0,1,3418.637-294.739Z" transform="translate(-3301.684 391.469)" fill="#c4c4dc"/>
          <path id="Path_3278" data-name="Path 3278" d="M3293.4-390.752l.137.23a2.134,2.134,0,0,1-1.68-.151Z" transform="translate(-3288.411 401.412)" fill="#c4c4dc"/>
          <path id="Path_3279" data-name="Path 3279" d="M3395.857-262.041c-.047.18-.167.226-.319.133a.96.96,0,0,1-.426-.729c-.018-.168.1-.21.237-.077A1.511,1.511,0,0,1,3395.857-262.041Z" transform="translate(-3299.235 387.999)" fill="#c4c4dc"/>
          <path id="Path_3280" data-name="Path 3280" d="M3370.305-332.537a.844.844,0,0,1,.9.517c.078.147.079.355-.045.35C3370.826-331.684,3370.636-332.1,3370.305-332.537Z" transform="translate(-3296.634 395.31)" fill="#c4c4dc"/>
          <path id="Path_3281" data-name="Path 3281" d="M3294.537-365.28c.233.39.566.754.509,1.145-.022.149-.177.125-.292-.014C3294.393-364.586,3294.648-364.881,3294.537-365.28Z" transform="translate(-3288.692 398.742)" fill="#c4c4dc"/>
          <path id="Path_3282" data-name="Path 3282" d="M3336.7-359.955c-.018.181-.13.169-.263.081a1.153,1.153,0,0,1-.536-.693c-.042-.192.127-.149.255-.063A1.174,1.174,0,0,1,3336.7-359.955Z" transform="translate(-3293.027 398.262)" fill="#c4c4dc"/>
          <path id="Path_3283" data-name="Path 3283" d="M3393.68-354.91c-.085.269-.351.029-.543-.012-.113-.023-.293-.111-.254-.289.055-.256.32-.125.526-.059A.417.417,0,0,1,3393.68-354.91Z" transform="translate(-3299.001 397.702)" fill="#c4c4dc"/>
          <path id="Path_3284" data-name="Path 3284" d="M3338.763-387.791c-.21.033-.693-.467-.564.246.025.139-.181.054-.306-.035-.309-.22-.192-.447-.233-.671C3338-388.318,3338.387-388.017,3338.763-387.791Z" transform="translate(-3293.212 401.151)" fill="#c4c4dc"/>
          <path id="Path_3285" data-name="Path 3285" d="M3348.047-285.745c.005.2-.1.191-.233.117a1.108,1.108,0,0,1-.543-.658c-.063-.219.086-.184.215-.1A1.31,1.31,0,0,1,3348.047-285.745Z" transform="translate(-3294.218 390.479)" fill="#c4c4dc"/>
          <path id="Path_3286" data-name="Path 3286" d="M3375.064-362.1c-.079.217-.271.082-.437-.006-.147-.079-.322-.19-.288-.428s.214-.171.4-.042A.889.889,0,0,1,3375.064-362.1Z" transform="translate(-3297.056 398.471)" fill="#c4c4dc"/>
          <path id="Path_3287" data-name="Path 3287" d="M3422.7-276.461c-.032.217-.2.135-.341.055-.163-.09-.4-.169-.421-.457-.017-.211.183-.142.328-.077A.72.72,0,0,1,3422.7-276.461Z" transform="translate(-3302.047 389.488)" fill="#c4c4dc"/>
          <path id="Path_3288" data-name="Path 3288" d="M3392.277-355.791c-.172.3-.3.483-.588.321a.272.272,0,0,1-.125-.32C3391.688-356.026,3391.9-356.058,3392.277-355.791Z" transform="translate(-3298.861 397.767)" fill="#c4c4dc"/>
          <path id="Path_3289" data-name="Path 3289" d="M3386.57-347.092a.388.388,0,0,1-.222-.393c.045-.214.188-.289.413-.16a.422.422,0,0,1,.22.393C3386.941-347.023,3386.759-347.029,3386.57-347.092Z" transform="translate(-3298.315 396.9)" fill="#c4c4dc"/>
          <path id="Path_3290" data-name="Path 3290" d="M3331.413-295.919c-.2-.336-.491-.639-.479-.987,0-.119.142-.09.238.022A1.233,1.233,0,0,1,3331.413-295.919Z" transform="translate(-3292.507 391.583)" fill="#c4c4dc"/>
          <path id="Path_3291" data-name="Path 3291" d="M3388.051-325.2c.232-.081.375.117.439.371.069.274-.117.2-.259.175-.29-.059-.268.138-.086.457a1.78,1.78,0,0,1,.179.84c.035.372.223.913-.176.907a1.585,1.585,0,0,1-1.215-.789,1.255,1.255,0,0,1-.261-1.3,1.773,1.773,0,0,0-.182-1.769,4.419,4.419,0,0,1-.326-1.059c-.367-1.483.177-2.051,1.34-1.421a.725.725,0,0,1,.463.569c.037.248-.038.337-.235.33-.611-.02-.692.44-.287,1.286a2.761,2.761,0,0,1,.31.954C3387.771-325.417,3387.839-325.19,3388.051-325.2Z" transform="translate(-3298.285 394.943)" fill="#c4c4dc"/>
          <path id="Path_3292" data-name="Path 3292" d="M3378.717-344.329a.983.983,0,0,1-.556-.873c-.046-.271.1-.328.3-.193a1.485,1.485,0,0,1,.626.978C3379.156-343.968,3378.8-344.407,3378.717-344.329Z" transform="translate(-3297.457 396.665)" fill="#c4c4dc"/>
          <path id="Path_3293" data-name="Path 3293" d="M3391.243-324.908a.573.573,0,0,1-.309-.483c-.016-.384.132-.6.43-.583.2.013.259.247.262.434C3391.632-325.173,3391.553-324.9,3391.243-324.908Z" transform="translate(-3298.796 394.622)" fill="#c4c4dc"/>
          <path id="Path_3294" data-name="Path 3294" d="M3325.958-364.064a5.7,5.7,0,0,0-2.049-1.766c.961-.712,1.35-.477,2.153,1.321a3.171,3.171,0,0,0,.994,1.262c.621.481.9.9.4,1.285a1.11,1.11,0,0,0-.167.236,2.89,2.89,0,0,1-.589-1.2.989.989,0,0,0-.4-.683c-.273-.194-.374.017-.491.169-.276.363-.274,1-.495,1.467C3324.863-363.531,3324.979-363.942,3325.958-364.064Z" transform="translate(-3291.771 398.839)" fill="#c4c4dc"/>
          <path id="Path_3295" data-name="Path 3295" d="M3327.6-359.9a2.235,2.235,0,0,1,2.279-.074C3329.1-360,3328.365-359.929,3327.6-359.9Z" transform="translate(-3292.157 398.214)" fill="#c4c4dc"/>
        </g>
        <g id="Group_1961" data-name="Group 1961" transform="translate(4.058 5.569)">
          <path id="Path_3296" data-name="Path 3296" d="M3290.544-448.829l-7.45-4.3v-8.6l7.45,4.3Z" transform="translate(-3283.094 461.732)" fill="#fff"/>
          <path id="Path_3297" data-name="Path 3297" d="M3303.028-441.621l-7.449-4.3v-8.6l7.449,4.3Z" transform="translate(-3284.403 460.977)" fill="#273568"/>
          <path id="Path_3298" data-name="Path 3298" d="M3315.511-434.414l-7.45-4.3v-8.6l7.45,4.3Z" transform="translate(-3285.712 460.221)" fill="#25c5ff"/>
        </g>
        <path id="Path_3299" data-name="Path 3299" d="M3381.477-398.251l-55.753-32.19a3.65,3.65,0,0,1-1.523-2.911h0c0-1.122.682-1.637,1.523-1.151l55.753,32.19A3.646,3.646,0,0,1,3383-399.4h0C3383-398.281,3382.319-397.765,3381.477-398.251Z" transform="translate(-3283.345 464.466)" fill="#c4c4dc"/>
      </g>
    </g>
    <g id="elements" transform="translate(3207.331 -469.613)">
      <g id="Group_1964" data-name="Group 1964" transform="translate(21.121 73.246)">
        <path id="Path_3300" data-name="Path 3300" d="M3303.867-305.033,3245.1-338.961v-41.326l58.765,33.928Z" transform="translate(-3240.56 387.003)" fill="#c9cbcc" style="mix-blend-mode: multiply;isolation: isolate"/>
        <path id="Path_3301" data-name="Path 3301" d="M3298.806-310.913l-58.766-33.928v-41.326l58.766,33.928Z" transform="translate(-3240.03 387.62)" fill="#eeeefa"/>
        <path id="Path_3302" data-name="Path 3302" d="M3298.806-347l-58.766-33.928v-5.241l58.766,33.928Z" transform="translate(-3240.03 387.62)" fill="#d8d8ed"/>
        <g id="Group_1963" data-name="Group 1963" transform="translate(8.916 17.662)">
          <path id="Path_3303" data-name="Path 3303" d="M3256.078-362.37c0,1.942-1.363,2.728-3.045,1.758a6.733,6.733,0,0,1-3.044-5.274c0-1.942,1.363-2.728,3.044-1.757A6.728,6.728,0,0,1,3256.078-362.37Z" transform="translate(-3249.988 368.06)" fill="#4866ea"/>
          <path id="Path_3304" data-name="Path 3304" d="M3291.02-340.73,3261.1-358.006a2.359,2.359,0,0,1-.984-1.882h0c0-.724.44-1.058.984-.744l29.923,17.276a2.361,2.361,0,0,1,.984,1.882h0C3292-340.749,3291.563-340.416,3291.02-340.73Z" transform="translate(-3251.05 367.294)" fill="#c4c4dc"/>
          <path id="Path_3305" data-name="Path 3305" d="M3256.078-351.214c0,1.942-1.363,2.728-3.045,1.758a6.731,6.731,0,0,1-3.044-5.273c0-1.942,1.363-2.729,3.044-1.758A6.728,6.728,0,0,1,3256.078-351.214Z" transform="translate(-3249.988 366.89)" fill="#273868"/>
          <path id="Path_3306" data-name="Path 3306" d="M3291.02-329.574,3261.1-346.85a2.357,2.357,0,0,1-.984-1.881h0c0-.725.44-1.059.984-.745L3291.02-332.2a2.36,2.36,0,0,1,.984,1.882h0C3292-329.593,3291.563-329.26,3291.02-329.574Z" transform="translate(-3251.05 366.124)" fill="#c4c4dc"/>
          <path id="Path_3307" data-name="Path 3307" d="M3256.078-340.058c0,1.942-1.363,2.729-3.045,1.758a6.73,6.73,0,0,1-3.044-5.273c0-1.942,1.363-2.729,3.044-1.758A6.73,6.73,0,0,1,3256.078-340.058Z" transform="translate(-3249.988 365.721)" fill="#25c5ff"/>
          <path id="Path_3308" data-name="Path 3308" d="M3291.02-318.417,3261.1-335.694a2.355,2.355,0,0,1-.984-1.881h0c0-.725.44-1.058.984-.745l29.923,17.277a2.357,2.357,0,0,1,.984,1.881h0C3292-318.437,3291.563-318.1,3291.02-318.417Z" transform="translate(-3251.05 364.955)" fill="#c4c4dc"/>
        </g>
        <path id="Path_3309" data-name="Path 3309" d="M3298.793-352.417l-58.765-33.928,2.373-1.444,58.765,33.928Z" transform="translate(-3240.028 387.79)" fill="url(#linear-gradient-2)"/>
        <path id="Path_3310" data-name="Path 3310" d="M3308.048-308.563l-2.373,1.444v-41.326l2.373-1.444Z" transform="translate(-3246.91 383.817)" fill="url(#linear-gradient-3)"/>
      </g>
      <g id="Group_1969" data-name="Group 1969" transform="translate(158.821 126.06)">
        <g id="Group_1968" data-name="Group 1968" transform="translate(0 1.119)">
          <g id="Group_1967" data-name="Group 1967">
            <g id="Group_1965" data-name="Group 1965">
              <path id="Path_3311" data-name="Path 3311" d="M3433.472-280.15v4.407l-7.512-8.744-28.1-16.222v-21.816l35.609,20.559Z" transform="translate(-3394.274 327.015)" fill="#c9cbcc" style="mix-blend-mode: multiply;isolation: isolate"/>
              <path id="Path_3312" data-name="Path 3312" d="M3429.462-285.166v4.407l-7.512-8.744-28.1-16.222v-21.816l35.609,20.559Z" transform="translate(-3393.854 327.541)" fill="#eeeefa"/>
              <path id="Path_3313" data-name="Path 3313" d="M3429.471-304.21l-35.535-20.516v-2.767l35.535,20.516Z" transform="translate(-3393.862 327.536)" fill="#d8d8ed"/>
            </g>
            <g id="Group_1966" data-name="Group 1966" transform="translate(7.595 13.998)">
              <path id="Path_3314" data-name="Path 3314" d="M3407.338-307.232c0,1.594-1.12,2.241-2.5,1.443a5.524,5.524,0,0,1-2.5-4.33c0-1.594,1.119-2.241,2.5-1.444A5.53,5.53,0,0,1,3407.338-307.232Z" transform="translate(-3402.338 311.904)" fill="#c4c4dc"/>
              <path id="Path_3315" data-name="Path 3315" d="M3415.95-302.26c0,1.594-1.119,2.241-2.5,1.443a5.524,5.524,0,0,1-2.5-4.33c0-1.594,1.119-2.241,2.5-1.444A5.527,5.527,0,0,1,3415.95-302.26Z" transform="translate(-3403.241 311.383)" fill="#c4c4dc"/>
              <path id="Path_3316" data-name="Path 3316" d="M3424.562-297.289c0,1.6-1.119,2.242-2.5,1.444a5.528,5.528,0,0,1-2.5-4.331c0-1.594,1.12-2.241,2.5-1.443A5.525,5.525,0,0,1,3424.562-297.289Z" transform="translate(-3404.144 310.862)" fill="#c4c4dc"/>
            </g>
          </g>
        </g>
        <path id="Path_3317" data-name="Path 3317" d="M3429.46-307.112l-35.607-20.559,1.838-1.119,35.607,20.559Z" transform="translate(-3393.854 328.791)" fill="url(#linear-gradient-4)"/>
        <path id="Path_3318" data-name="Path 3318" d="M3435.468-279.6l-1.838,1.119V-304.7l1.838-1.119Z" transform="translate(-3398.023 326.384)" fill="url(#linear-gradient-3)"/>
      </g>
      <g id="Group_1975" data-name="Group 1975" transform="translate(86.332 137.502)">
        <g id="Group_1974" data-name="Group 1974" transform="translate(0 1.395)">
          <g id="Group_1973" data-name="Group 1973">
            <path id="Path_3319" data-name="Path 3319" d="M3371.642-239.2l-58.765-33.928v-41.326l58.765,33.928Z" transform="translate(-3312.876 314.452)" fill="#eeeefa"/>
            <path id="Path_3320" data-name="Path 3320" d="M3371.642-275.283l-58.765-33.928v-5.241l58.765,33.928Z" transform="translate(-3312.876 314.452)" fill="#d8d8ed"/>
            <g id="Group_1970" data-name="Group 1970" transform="translate(4.316 25.636)">
              <path id="Path_3321" data-name="Path 3321" d="M3318.585-274.434a1.488,1.488,0,0,1-.315-.25,1.726,1.726,0,0,1-.515-1.619c.167-.41,4.16-10.038,11.134-9.488,7.939.626,16.991,8.784,19.577,11.271,3.942,3.791,12.736,9.9,17.8,5.876.317-.251.877.016,1.252.6s.423,1.256.108,1.507c-5.678,4.508-15.381-2.189-19.717-6.359-2.435-2.34-10.952-10.023-18.312-10.6-6.282-.494-10.14,8.792-10.178,8.887C3319.281-274.284,3318.943-274.227,3318.585-274.434Z" transform="translate(-3317.698 285.813)" fill="#4866ea"/>
            </g>
            <g id="Group_1971" data-name="Group 1971" transform="translate(7.45 25.365)">
              <path id="Path_3322" data-name="Path 3322" d="M3348.806-260.821c-4.453-2.571-6.532-6.581-8.545-10.461a32.932,32.932,0,0,0-6.055-8.963c-6.24-6.139-11.4-2.439-11.451-2.4-.323.239-.883-.041-1.252-.626s-.408-1.254-.087-1.495c.242-.181,5.99-4.344,13.38,2.927a36.819,36.819,0,0,1,6.815,10.005c1.99,3.835,3.56,6.864,7.194,8.962,3.919,2.263,5.661-.714,7.867-4.483,1.477-2.523,3.149-5.382,5.794-7.128.334-.221.9.082,1.255.675s.378,1.253.043,1.474c-2.472,1.633-4.084,4.388-5.507,6.819C3355.975-261.613,3353.818-257.928,3348.806-260.821Z" transform="translate(-3321.199 286.116)" fill="#273868"/>
            </g>
            <g id="Group_1972" data-name="Group 1972" transform="translate(10.416 33.893)">
              <path id="Path_3323" data-name="Path 3323" d="M3335.069-264.362l-9.669-5.582a1.965,1.965,0,0,1-.888-1.538c0-.567.4-.8.888-.513l9.669,5.582c5.36,3.095,16.426,4.832,16.426-9.543,0-.567.4-.8.888-.513a1.965,1.965,0,0,1,.888,1.538C3353.271-259.005,3341.008-260.933,3335.069-264.362Z" transform="translate(-3324.512 276.59)" fill="#25c5ff"/>
            </g>
          </g>
        </g>
        <path id="Path_3324" data-name="Path 3324" d="M3371.656-280.638l-58.765-33.928,2.373-1.444,58.765,33.928Z" transform="translate(-3312.878 316.01)" fill="url(#linear-gradient-2)"/>
        <path id="Path_3325" data-name="Path 3325" d="M3380.91-236.783l-2.373,1.444v-41.326l2.373-1.444Z" transform="translate(-3319.76 312.037)" fill="url(#linear-gradient-3)"/>
      </g>
      <g id="Group_1988" data-name="Group 1988">
        <path id="Path_3326" data-name="Path 3326" d="M3280.733-385.874,3221.968-419.8v-41.326l58.765,33.928Z" transform="translate(-3217.014 468.724)" fill="#c9cbcc" style="mix-blend-mode: multiply;isolation: isolate"/>
        <path id="Path_3327" data-name="Path 3327" d="M3275.2-434.241l-58.765-33.928,2.373-1.444,58.765,33.928Z" transform="translate(-3216.435 469.613)" fill="url(#linear-gradient-2)"/>
        <path id="Path_3328" data-name="Path 3328" d="M3284.454-390.386l-2.372,1.444v-41.326l2.373-1.444Z" transform="translate(-3223.316 465.64)" fill="url(#linear-gradient-3)"/>
        <g id="Group_1987" data-name="Group 1987" transform="translate(0 1.444)">
          <g id="Group_1986" data-name="Group 1986">
            <g id="Group_1976" data-name="Group 1976">
              <path id="Path_3329" data-name="Path 3329" d="M3275.2-392.746l-58.765-33.928V-468l58.765,33.928Z" transform="translate(-3216.435 468)" fill="#eeeefa"/>
              <path id="Path_3330" data-name="Path 3330" d="M3275.2-428.831l-58.765-33.928V-468l58.765,33.928Z" transform="translate(-3216.435 468)" fill="#d8d8ed"/>
            </g>
            <g id="Group_1985" data-name="Group 1985" transform="translate(5.769 19.047)">
              <g id="Group_1980" data-name="Group 1980" transform="translate(27.623 15.948)">
                <g id="Group_1977" data-name="Group 1977">
                  <path id="Path_3331" data-name="Path 3331" d="M3263.539-427.568c-5.414-3.126-9.8-.593-9.8,5.658s4.388,13.852,9.8,16.978,9.8.592,9.8-5.659S3268.953-424.443,3263.539-427.568Zm0,18.641a14.018,14.018,0,0,1-6.342-10.985c0-4.044,2.84-5.684,6.342-3.662a14.02,14.02,0,0,1,6.342,10.986C3269.882-408.544,3267.042-406.9,3263.539-408.927Z" transform="translate(-3253.737 428.907)" fill="#4866ea"/>
                </g>
                <g id="Group_1978" data-name="Group 1978" transform="translate(9.802 1.339)">
                  <path id="Path_3332" data-name="Path 3332" d="M3264.687-427.411v3.994a14.021,14.021,0,0,1,6.342,10.986l3.46,2C3274.49-416.685,3270.1-424.286,3264.687-427.411Z" transform="translate(-3264.687 427.411)" fill="#273868"/>
                </g>
                <g id="Group_1979" data-name="Group 1979" transform="translate(15.251 12.004)">
                  <path id="Path_3333" data-name="Path 3333" d="M3270.774-415.449a11.726,11.726,0,0,1,.894,4.266l3.459,2a17.924,17.924,0,0,0-1.271-6.312Z" transform="translate(-3270.774 415.497)" fill="#25c5ff"/>
                </g>
              </g>
              <g id="Group_1984" data-name="Group 1984">
                <g id="Group_1981" data-name="Group 1981">
                  <path id="Path_3334" data-name="Path 3334" d="M3232.681-445.384c-5.414-3.126-9.8-.593-9.8,5.658s4.388,13.852,9.8,16.978,9.8.592,9.8-5.659S3238.094-442.259,3232.681-445.384Zm0,18.641a14.017,14.017,0,0,1-6.342-10.985c0-4.044,2.839-5.684,6.342-3.662a14.021,14.021,0,0,1,6.342,10.986C3239.023-426.36,3236.183-424.721,3232.681-426.743Z" transform="translate(-3222.879 446.723)" fill="#4866ea"/>
                </g>
                <g id="Group_1982" data-name="Group 1982" transform="translate(0 1.339)">
                  <path id="Path_3335" data-name="Path 3335" d="M3232.681-445.227v3.994a14.021,14.021,0,0,1,6.342,10.986c0,4.044-2.84,5.683-6.342,3.661a14.017,14.017,0,0,1-6.342-10.985l-3.46-2c0,6.251,4.388,13.852,9.8,16.978s9.8.592,9.8-5.659S3238.094-442.1,3232.681-445.227Z" transform="translate(-3222.879 445.227)" fill="#273868"/>
                </g>
                <g id="Group_1983" data-name="Group 1983" transform="translate(9.802 1.339)">
                  <path id="Path_3336" data-name="Path 3336" d="M3233.829-445.227v3.994a12.973,12.973,0,0,1,4.484,4.734l2.448-1.409A20.032,20.032,0,0,0,3233.829-445.227Z" transform="translate(-3233.829 445.227)" fill="#25c5ff"/>
                </g>
              </g>
            </g>
          </g>
        </g>
      </g>
      <g id="Group_1993" data-name="Group 1993" transform="translate(170.993 75.502)">
        <path id="Path_3337" data-name="Path 3337" d="M3472-301.213l-58.765-33.928v-41.326L3472-342.539Z" transform="translate(-3408.057 384.347)" fill="#c9cbcc" style="mix-blend-mode: multiply;isolation: isolate"/>
        <path id="Path_3338" data-name="Path 3338" d="M3466.216-349.9l-58.765-33.928,2.372-1.444,58.766,33.928Z" transform="translate(-3407.451 385.27)" fill="url(#linear-gradient-2)"/>
        <path id="Path_3339" data-name="Path 3339" d="M3475.47-306.043,3473.1-304.6v-41.326l2.373-1.444Z" transform="translate(-3414.332 381.297)" fill="url(#linear-gradient-3)"/>
        <g id="Group_1992" data-name="Group 1992" transform="translate(0.007 1.439)">
          <g id="Group_1991" data-name="Group 1991">
            <g id="Group_1990" data-name="Group 1990">
              <path id="Path_3340" data-name="Path 3340" d="M3466.224-308.408l-58.765-33.928v-41.326l58.765,33.928Z" transform="translate(-3407.459 383.662)" fill="#eeeefa"/>
              <path id="Path_3341" data-name="Path 3341" d="M3466.224-344.493l-58.765-33.928v-5.241l58.765,33.928Z" transform="translate(-3407.459 383.662)" fill="#d8d8ed"/>
              <g id="Group_1989" data-name="Group 1989" transform="translate(15.273 24.37)">
                <path id="Path_3342" data-name="Path 3342" d="M3427.48-335.589l-2.96-1.709v-19.141l2.96,1.709Z" transform="translate(-3424.521 356.439)" fill="#4866ea"/>
                <path id="Path_3343" data-name="Path 3343" d="M3430.787-332.733l-2.96-1.709v-11.051l2.96,1.709Z" transform="translate(-3424.867 355.291)" fill="#273868"/>
                <path id="Path_3344" data-name="Path 3344" d="M3455.7-319.645l-2.96-1.709v-22.1l2.96,1.709Z" transform="translate(-3427.478 355.078)" fill="#273868"/>
                <path id="Path_3345" data-name="Path 3345" d="M3455.7-319.645l-2.96-1.709v-22.1l2.96,1.709Z" transform="translate(-3427.478 355.078)" fill="#273868"/>
                <path id="Path_3346" data-name="Path 3346" d="M3452.391-320.166l-2.96-1.709v-10.254l2.96,1.709Z" transform="translate(-3427.132 353.89)" fill="#4866ea"/>
                <path id="Path_3347" data-name="Path 3347" d="M3444.014-325.256l-2.96-1.709v-12.418l2.96,1.709Z" transform="translate(-3426.254 354.651)" fill="#273868"/>
                <path id="Path_3348" data-name="Path 3348" d="M3437.4-329.5l-2.96-1.709v-16.064l2.96,1.709Z" transform="translate(-3425.561 355.478)" fill="#273868"/>
                <path id="Path_3349" data-name="Path 3349" d="M3440.707-326.739l-2.96-1.709v-8.773l2.96,1.709Z" transform="translate(-3425.907 354.424)" fill="#25c5ff"/>
                <path id="Path_3350" data-name="Path 3350" d="M3434.094-330.177l-2.96-1.709v-5.526l2.96,1.709Z" transform="translate(-3425.214 354.444)" fill="#4866ea"/>
              </g>
            </g>
          </g>
        </g>
      </g>
      <g id="Group_1999" data-name="Group 1999" transform="translate(96.53 11.142)">
        <path id="Path_3351" data-name="Path 3351" d="M3383.035-421.794l-58.766-33.928,2.373-1.444,58.766,33.928Z" transform="translate(-3324.269 457.166)" fill="url(#linear-gradient-2)"/>
        <path id="Path_3352" data-name="Path 3352" d="M3392.289-377.939l-2.372,1.444v-41.326l2.373-1.444Z" transform="translate(-3331.15 453.193)" fill="url(#linear-gradient-3)"/>
        <g id="Group_1998" data-name="Group 1998" transform="translate(0 1.441)">
          <g id="Group_1997" data-name="Group 1997">
            <g id="Group_1996" data-name="Group 1996">
              <path id="Path_3353" data-name="Path 3353" d="M3388.435-373.617l-58.766-33.928v-41.326l58.766,33.928Z" transform="translate(-3324.834 454.856)" fill="#c9cbcc" style="mix-blend-mode: multiply;isolation: isolate"/>
              <path id="Path_3354" data-name="Path 3354" d="M3383.034-380.3l-58.765-33.928v-41.326l58.765,33.928Z" transform="translate(-3324.269 455.557)" fill="#eeeefa"/>
              <path id="Path_3355" data-name="Path 3355" d="M3383.034-416.388l-58.765-33.928v-5.241l58.765,33.928Z" transform="translate(-3324.269 455.557)" fill="#d8d8ed"/>
              <g id="Group_1994" data-name="Group 1994" transform="translate(14.836 20.146)">
                <ellipse id="Ellipse_32" data-name="Ellipse 32" cx="8.399" cy="14.547" rx="8.399" ry="14.547" transform="translate(0 8.399) rotate(-30.001)" fill="#273868"/>
                <path id="Path_3356" data-name="Path 3356" d="M3352.628-409.848v-15.893l11.544,14.612Z" transform="translate(-3342.077 432.285)" fill="#fff"/>
              </g>
              <g id="Group_1995" data-name="Group 1995" transform="translate(7.161 38.645)">
                <path id="Path_3357" data-name="Path 3357" d="M3376.711-386.726l-44.444-25.66v4.1l44.444,25.66Z" transform="translate(-3332.268 412.386)" fill="#c4c4dc"/>
                <path id="Path_3358" data-name="Path 3358" d="M3342.375-406.55l-10.107-5.836v4.1l10.107,5.835Z" transform="translate(-3332.268 412.386)" fill="#273868"/>
              </g>
            </g>
          </g>
        </g>
      </g>
      <g id="Group_2001" data-name="Group 2001" transform="translate(171.318 39.672)">
        <ellipse id="Ellipse_33" data-name="Ellipse 33" cx="8.443" cy="14.624" rx="8.443" ry="14.624" transform="matrix(0.866, -0.5, 0.5, 0.866, 0, 8.443)" fill="#273868"/>
        <g id="Group_2000" data-name="Group 2000" transform="translate(7.473 10.692)">
          <path id="Path_3359" data-name="Path 3359" d="M3422.262-400.966a1.708,1.708,0,0,1-1.245-1.448c-.276-1.228-.655-2.479-.955-3.713a1.869,1.869,0,0,0-.667-1.07c-.919-.791-1.826-1.628-2.743-2.426a1.18,1.18,0,0,1-.488-1.011c.023-.755-.023-1.553.024-2.291.014-.222.211-.467.381-.421,3.582.972,7.172,1.985,10.761,2.993a1.114,1.114,0,0,1,.178.134v10.077l-4.778-4.1C3422.571-403.121,3422.419-402.066,3422.262-400.966Z" transform="translate(-3416.162 413.351)" fill="#fff"/>
          <path id="Path_3360" data-name="Path 3360" d="M3430.4-398.53c-.97-.709-.972-.71-.972-1.675q0-4.3,0-8.593c0-1.014,0-1.012.972-.606Z" transform="translate(-3417.553 412.964)" fill="#fff"/>
        </g>
      </g>
    </g>
    <g id="Group_2013" data-name="Group 2013" transform="translate(3129.594 -372.867)">
      <g id="Group_2002" data-name="Group 2002" transform="translate(74.372)">
        <path id="Path_3361" data-name="Path 3361" d="M3328.156-214.238l-1.858-79.276c-.1-4.458-1.612-6.589-4.55-8.219L3215.5-359.8a3.329,3.329,0,0,0-2.821-.469h0s1.743-1.064,1.9-1.13h0a3.37,3.37,0,0,1,2.789.483l106.25,58.067c2.938,1.629,4.445,3.761,4.55,8.219l1.858,79.275c.049,2.131-.51,3.344-1.425,3.787l-1.559.924C3327.771-211.2,3328.2-212.361,3328.156-214.238Z" transform="translate(-3212.675 361.538)" fill="url(#linear-gradient-14)"/>
        <path id="Path_3362" data-name="Path 3362" d="M3340.012-192.721Z" transform="translate(-3226.023 343.841)" fill="#a6a8ab"/>
      </g>
      <path id="Path_3363" data-name="Path 3363" d="M3316.943-187.76a2.154,2.154,0,0,0-.01-.4l-.094-4h0a4.05,4.05,0,0,1-2.216,2.887L3246.9-148.034c-2.74,1.669-6.937,1.941-9.375.609l-106.25-58.067a2.849,2.849,0,0,1-1.666-2.166h-.007l.1,4.3h0a2.79,2.79,0,0,0,1.674,2.3L3237.627-143c2.438,1.332,6.635,1.06,9.374-.609l67.726-41.246a4.063,4.063,0,0,0,2.215-2.875h0Z" transform="translate(-3129.595 345.407)" fill="#464647"/>
      <path id="Path_3364" data-name="Path 3364" d="M3315.169-200.1l-106.25-58.067c-2.437-1.333-6.635-1.06-9.374.609l-40.1,24.421-27.626,16.825a6.793,6.793,0,0,0-.885.637l0,0c-1.872,1.606-1.8,3.624.339,4.795l106.25,58.067c2.438,1.332,6.635,1.06,9.375-.609l27.634-16.829h0l40.091-24.417C3317.362-196.332,3317.606-198.764,3315.169-200.1Z" transform="translate(-3129.594 350.79)" fill="url(#linear-gradient-15)"/>
      <path id="Path_3365" data-name="Path 3365" d="M3181.85-178.67l17.332,9.471a.5.5,0,0,1,.027.956L3180.2-178.635A1.828,1.828,0,0,1,3181.85-178.67Z" transform="translate(-3134.898 342.387)" fill="#464647"/>
      <path id="Path_3366" data-name="Path 3366" d="M3226.038-252.328l89.84,49.1,1.2-.728-89.84-49.1Z" transform="translate(-3139.705 350.166)" fill="#464647"/>
      <g id="Group_2003" data-name="Group 2003" transform="translate(72.914 1.115)">
        <path id="Path_3367" data-name="Path 3367" d="M3326.127-293.383c-.1-4.458-1.612-6.589-4.55-8.219l-106.25-58.067c-2.437-1.333-4.373-.673-4.277,3.394L3212.907-277c.122,5.18,1.885,6.768,4.55,8.219l106.25,58.067c2.438,1.333,4.369.494,4.278-3.394Z" transform="translate(-3211.047 360.292)" fill="#464647"/>
        <path id="Path_3368" data-name="Path 3368" d="M3323.753-220.674,3322-295.266a.729.729,0,0,0-.378-.621L3217.362-352.87a.727.727,0,0,0-1.075.655l1.747,74.592a.726.726,0,0,0,.379.62l104.264,56.983A.728.728,0,0,0,3323.753-220.674Z" transform="translate(-3211.596 359.524)" fill="#33b4ff"/>
        <path id="Path_3369" data-name="Path 3369" d="M3297.786-308.917l-48.181-26.332-32.244-17.621a.726.726,0,0,0-1.075.654l1.747,74.593a.726.726,0,0,0,.379.62l14.24,7.783Z" transform="translate(-3211.596 359.524)" fill="#fff" opacity="0.2" style="mix-blend-mode: overlay;isolation: isolate"/>
      </g>
      <g id="Group_2005" data-name="Group 2005" transform="translate(40.192 140.918)">
        <path id="Path_3370" data-name="Path 3370" d="M3184.486-195.01l14.282-8.7a3.462,3.462,0,0,1,3.134-.068l35.537,19.421a.955.955,0,0,1,.052,1.809l-14.282,8.7Z" transform="translate(-3175.54 204.118)" fill="#7b7b7c" opacity="0.4"/>
        <g id="Group_2004" data-name="Group 2004" transform="translate(0 9.468)" opacity="0.4">
          <path id="Path_3371" data-name="Path 3371" d="M3204.709-181.534l19.056,10.414-7.731,4.709a3.465,3.465,0,0,1-3.134.068l-17.462-9.544Z" transform="translate(-3176.688 192.282)" fill="#7a7a7a" opacity="0.4"/>
          <path id="Path_3372" data-name="Path 3372" d="M3201.9-183.127l-9.272,5.647-17.462-9.543a.955.955,0,0,1-.052-1.809l7.73-4.709Z" transform="translate(-3174.493 193.541)" fill="#7a7a7a" opacity="0.4"/>
        </g>
      </g>
      <g id="Group_2012" data-name="Group 2012" transform="translate(36.956 97.116)">
        <g id="Group_2006" data-name="Group 2006" transform="translate(27.831 2.72)">
          <path id="Path_3373" data-name="Path 3373" d="M3310.293-186.994l5.317,2.906a1.391,1.391,0,0,0,1.25-.081l4.958-3.019c.365-.223.4-.547.073-.724l-5.316-2.906a1.391,1.391,0,0,0-1.25.081l-4.958,3.02C3310-187.5,3309.968-187.172,3310.293-186.994Z" transform="translate(-3213.3 243.818)" fill="#232323"/>
          <path id="Path_3374" data-name="Path 3374" d="M3302.257-191.386l5.317,2.906a1.39,1.39,0,0,0,1.25-.081l4.958-3.019c.365-.222.4-.547.074-.724l-5.318-2.906a1.391,1.391,0,0,0-1.25.081l-4.958,3.02C3301.965-191.888,3301.932-191.564,3302.257-191.386Z" transform="translate(-3212.458 244.279)" fill="#232323"/>
          <path id="Path_3375" data-name="Path 3375" d="M3294.221-195.778l5.317,2.906a1.389,1.389,0,0,0,1.249-.081l4.959-3.019c.365-.222.4-.547.072-.724L3300.5-199.6a1.387,1.387,0,0,0-1.25.081l-4.959,3.019C3293.928-196.279,3293.9-195.955,3294.221-195.778Z" transform="translate(-3211.615 244.739)" fill="#232323"/>
          <path id="Path_3376" data-name="Path 3376" d="M3286.185-200.17l5.316,2.906a1.388,1.388,0,0,0,1.25-.081l4.959-3.019c.365-.222.4-.547.072-.724L3292.466-204a1.39,1.39,0,0,0-1.25.081l-4.959,3.019C3285.892-200.672,3285.859-200.347,3286.185-200.17Z" transform="translate(-3210.773 245.199)" fill="#232323"/>
          <path id="Path_3377" data-name="Path 3377" d="M3278.148-204.562l5.318,2.906a1.389,1.389,0,0,0,1.249-.081l4.959-3.02c.365-.222.4-.547.072-.724l-5.316-2.906a1.39,1.39,0,0,0-1.25.081l-4.958,3.019C3277.856-205.064,3277.823-204.739,3278.148-204.562Z" transform="translate(-3209.93 245.66)" fill="#232323"/>
          <path id="Path_3378" data-name="Path 3378" d="M3270.112-208.953l5.318,2.9a1.391,1.391,0,0,0,1.25-.081l4.958-3.02c.365-.222.4-.547.073-.724l-5.316-2.906a1.391,1.391,0,0,0-1.25.081l-4.958,3.019C3269.82-209.456,3269.787-209.131,3270.112-208.953Z" transform="translate(-3209.088 246.12)" fill="#232323"/>
          <path id="Path_3379" data-name="Path 3379" d="M3262.076-213.346l5.317,2.906a1.39,1.39,0,0,0,1.25-.081l4.958-3.02c.366-.222.4-.546.074-.724l-5.318-2.906a1.391,1.391,0,0,0-1.25.081l-4.957,3.019C3261.784-213.847,3261.751-213.523,3262.076-213.346Z" transform="translate(-3208.246 246.581)" fill="#232323"/>
          <path id="Path_3380" data-name="Path 3380" d="M3254.04-217.737l5.318,2.906a1.393,1.393,0,0,0,1.25-.081l4.958-3.019c.365-.223.4-.547.072-.725l-5.317-2.906a1.393,1.393,0,0,0-1.25.081l-4.958,3.019C3253.748-218.239,3253.715-217.915,3254.04-217.737Z" transform="translate(-3207.404 247.041)" fill="#232323"/>
          <path id="Path_3381" data-name="Path 3381" d="M3246-222.129l5.316,2.906a1.4,1.4,0,0,0,1.251-.081l4.958-3.019c.365-.223.4-.547.073-.725l-5.317-2.9a1.39,1.39,0,0,0-1.25.081l-4.958,3.019C3245.712-222.631,3245.679-222.307,3246-222.129Z" transform="translate(-3206.561 247.501)" fill="#232323"/>
          <path id="Path_3382" data-name="Path 3382" d="M3237.968-226.521l5.317,2.906a1.392,1.392,0,0,0,1.25-.081l4.958-3.019c.365-.223.4-.547.073-.724l-5.317-2.906a1.39,1.39,0,0,0-1.25.081l-4.959,3.019C3237.675-227.023,3237.643-226.7,3237.968-226.521Z" transform="translate(-3205.719 247.962)" fill="#232323"/>
          <path id="Path_3383" data-name="Path 3383" d="M3229.932-230.913l5.317,2.906a1.39,1.39,0,0,0,1.25-.081l4.958-3.019c.366-.223.4-.547.073-.725l-5.317-2.9a1.391,1.391,0,0,0-1.25.081l-4.958,3.02C3229.639-231.415,3229.607-231.091,3229.932-230.913Z" transform="translate(-3204.876 248.422)" fill="#232323"/>
          <path id="Path_3384" data-name="Path 3384" d="M3221.9-235.305l5.316,2.906a1.39,1.39,0,0,0,1.25-.081l4.958-3.019c.366-.222.4-.547.073-.724l-5.317-2.906a1.39,1.39,0,0,0-1.25.081l-4.958,3.02C3221.6-235.807,3221.57-235.483,3221.9-235.305Z" transform="translate(-3204.034 248.882)" fill="#232323"/>
          <path id="Path_3385" data-name="Path 3385" d="M3213.86-239.7l5.316,2.906a1.39,1.39,0,0,0,1.25-.081l4.958-3.019c.365-.222.4-.547.073-.724l-5.316-2.906a1.388,1.388,0,0,0-1.25.081l-4.958,3.019C3213.567-240.2,3213.534-239.874,3213.86-239.7Z" transform="translate(-3203.191 249.343)" fill="#232323"/>
          <path id="Path_3386" data-name="Path 3386" d="M3202.192-246.073l8.568,4.682a1.387,1.387,0,0,0,1.25-.081l4.958-3.019c.365-.222.4-.547.073-.724l-8.567-4.682a1.393,1.393,0,0,0-1.251.081l-4.957,3.019C3201.9-246.575,3201.867-246.251,3202.192-246.073Z" transform="translate(-3201.969 250.011)" fill="#232323"/>
        </g>
        <g id="Group_2007" data-name="Group 2007" transform="translate(20.873 6.957)">
          <path id="Path_3387" data-name="Path 3387" d="M3206.017-242.259l-5.317-2.906a1.39,1.39,0,0,0-1.25.081l-4.958,3.019c-.365.223-.4.547-.073.725l5.316,2.906a1.394,1.394,0,0,0,1.25-.081l4.958-3.019C3206.31-241.757,3206.343-242.081,3206.017-242.259Z" transform="translate(-3194.196 245.278)" fill="#232323"/>
          <path id="Path_3388" data-name="Path 3388" d="M3214.054-237.867l-5.318-2.906a1.392,1.392,0,0,0-1.249.081l-4.959,3.019c-.365.223-.4.547-.073.724l5.317,2.906a1.389,1.389,0,0,0,1.249-.081l4.959-3.019C3214.345-237.365,3214.379-237.689,3214.054-237.867Z" transform="translate(-3195.038 244.817)" fill="#232323"/>
          <path id="Path_3389" data-name="Path 3389" d="M3222.09-233.475l-5.318-2.906a1.39,1.39,0,0,0-1.25.081l-4.958,3.019c-.365.223-.4.547-.073.724l5.317,2.906a1.39,1.39,0,0,0,1.25-.081l4.959-3.02C3222.382-232.973,3222.415-233.3,3222.09-233.475Z" transform="translate(-3195.88 244.357)" fill="#232323"/>
          <path id="Path_3390" data-name="Path 3390" d="M3230.126-229.083l-5.317-2.906a1.392,1.392,0,0,0-1.25.082l-4.958,3.019c-.366.222-.4.547-.073.724l5.317,2.906a1.39,1.39,0,0,0,1.25-.081l4.958-3.02C3230.417-228.581,3230.451-228.906,3230.126-229.083Z" transform="translate(-3196.723 243.897)" fill="#232323"/>
          <path id="Path_3391" data-name="Path 3391" d="M3238.162-224.691l-5.317-2.906a1.391,1.391,0,0,0-1.25.081l-4.958,3.019c-.365.222-.4.547-.072.724l5.317,2.906a1.387,1.387,0,0,0,1.25-.081l4.958-3.019C3238.454-224.189,3238.487-224.514,3238.162-224.691Z" transform="translate(-3197.565 243.436)" fill="#232323"/>
          <path id="Path_3392" data-name="Path 3392" d="M3246.2-220.3l-5.317-2.906a1.39,1.39,0,0,0-1.25.081l-4.959,3.02c-.365.222-.4.547-.072.724l5.317,2.906a1.387,1.387,0,0,0,1.25-.081l4.957-3.019C3246.49-219.8,3246.523-220.122,3246.2-220.3Z" transform="translate(-3198.407 242.976)" fill="#232323"/>
          <path id="Path_3393" data-name="Path 3393" d="M3254.234-215.908l-5.316-2.906a1.392,1.392,0,0,0-1.25.081l-4.958,3.02c-.365.222-.4.546-.073.724l5.317,2.906a1.39,1.39,0,0,0,1.25-.081l4.959-3.019C3254.526-215.406,3254.559-215.73,3254.234-215.908Z" transform="translate(-3199.25 242.515)" fill="#232323"/>
          <path id="Path_3394" data-name="Path 3394" d="M3262.27-211.516l-5.316-2.907a1.393,1.393,0,0,0-1.25.081l-4.959,3.02c-.365.222-.4.546-.073.724l5.317,2.906a1.39,1.39,0,0,0,1.25-.081l4.958-3.019C3262.563-211.014,3262.6-211.338,3262.27-211.516Z" transform="translate(-3200.092 242.055)" fill="#232323"/>
          <path id="Path_3395" data-name="Path 3395" d="M3270.306-207.124l-5.316-2.906a1.394,1.394,0,0,0-1.25.081l-4.958,3.02c-.365.222-.4.546-.073.724l5.317,2.906a1.394,1.394,0,0,0,1.25-.081l4.958-3.019C3270.6-206.622,3270.631-206.946,3270.306-207.124Z" transform="translate(-3200.935 241.595)" fill="#232323"/>
          <path id="Path_3396" data-name="Path 3396" d="M3278.342-202.732l-5.317-2.907a1.39,1.39,0,0,0-1.25.081l-4.958,3.019c-.365.223-.4.547-.072.724l5.316,2.907a1.393,1.393,0,0,0,1.25-.081l4.958-3.02C3278.634-202.23,3278.668-202.554,3278.342-202.732Z" transform="translate(-3201.777 241.134)" fill="#232323"/>
          <path id="Path_3397" data-name="Path 3397" d="M3286.377-198.34l-5.316-2.906a1.391,1.391,0,0,0-1.25.081l-4.958,3.019c-.365.223-.4.547-.073.725l5.317,2.9a1.39,1.39,0,0,0,1.25-.081l4.958-3.019C3286.67-197.838,3286.7-198.162,3286.377-198.34Z" transform="translate(-3202.619 240.674)" fill="#232323"/>
          <path id="Path_3398" data-name="Path 3398" d="M3294.415-193.948l-5.317-2.906a1.391,1.391,0,0,0-1.25.081l-4.958,3.019c-.365.223-.4.547-.073.724l5.316,2.906a1.392,1.392,0,0,0,1.251-.081l4.958-3.02C3294.707-193.446,3294.74-193.771,3294.415-193.948Z" transform="translate(-3203.462 240.214)" fill="#232323"/>
          <path id="Path_3399" data-name="Path 3399" d="M3302.451-189.556l-5.317-2.906a1.391,1.391,0,0,0-1.25.081l-4.958,3.019c-.365.222-.4.547-.073.724l5.317,2.906a1.39,1.39,0,0,0,1.25-.081l4.957-3.019C3302.743-189.054,3302.776-189.379,3302.451-189.556Z" transform="translate(-3204.304 239.753)" fill="#232323"/>
          <path id="Path_3400" data-name="Path 3400" d="M3313.738-183.388l-8.567-4.682a1.389,1.389,0,0,0-1.25.081l-4.957,3.019c-.365.222-.4.547-.073.724l8.567,4.683a1.393,1.393,0,0,0,1.25-.081l4.958-3.019C3314.031-182.886,3314.063-183.21,3313.738-183.388Z" transform="translate(-3205.147 239.293)" fill="#232323"/>
        </g>
        <g id="Group_2008" data-name="Group 2008" transform="translate(13.916 11.195)">
          <path id="Path_3401" data-name="Path 3401" d="M3203.437-234.688l-10.509-5.743a1.391,1.391,0,0,0-1.25.081l-4.957,3.019c-.366.223-.4.547-.073.724l10.509,5.744a1.393,1.393,0,0,0,1.25-.081l4.958-3.019C3203.729-234.186,3203.761-234.51,3203.437-234.688Z" transform="translate(-3186.423 240.544)" fill="#232323"/>
          <path id="Path_3402" data-name="Path 3402" d="M3305.671-178.815l-10.51-5.743a1.387,1.387,0,0,0-1.25.081l-4.958,3.019c-.365.223-.4.547-.073.724l10.509,5.743a1.391,1.391,0,0,0,1.25-.081l4.958-3.02C3305.964-178.313,3306-178.638,3305.671-178.815Z" transform="translate(-3197.14 234.687)" fill="#232323"/>
          <path id="Path_3403" data-name="Path 3403" d="M3212.081-229.963l-5.317-2.906a1.391,1.391,0,0,0-1.25.081l-4.958,3.019c-.365.223-.4.547-.073.724l5.316,2.906a1.39,1.39,0,0,0,1.25-.081l4.958-3.019C3212.374-229.461,3212.406-229.785,3212.081-229.963Z" transform="translate(-3187.874 239.751)" fill="#232323"/>
          <path id="Path_3404" data-name="Path 3404" d="M3220.118-225.572l-5.317-2.906a1.388,1.388,0,0,0-1.25.081l-4.958,3.019c-.365.223-.4.547-.073.724l5.317,2.906a1.39,1.39,0,0,0,1.25-.081l4.958-3.02C3220.41-225.069,3220.443-225.393,3220.118-225.572Z" transform="translate(-3188.716 239.291)" fill="#232323"/>
          <path id="Path_3405" data-name="Path 3405" d="M3228.154-221.179l-5.318-2.906a1.39,1.39,0,0,0-1.25.081l-4.958,3.019c-.365.222-.4.547-.072.724l5.316,2.906a1.389,1.389,0,0,0,1.25-.081l4.958-3.019C3228.445-220.677,3228.479-221,3228.154-221.179Z" transform="translate(-3189.558 238.83)" fill="#232323"/>
          <path id="Path_3406" data-name="Path 3406" d="M3236.189-216.788l-5.316-2.906a1.393,1.393,0,0,0-1.251.081l-4.958,3.02c-.365.222-.4.547-.073.724l5.316,2.906a1.393,1.393,0,0,0,1.251-.081l4.958-3.019C3236.482-216.285,3236.515-216.61,3236.189-216.788Z" transform="translate(-3190.401 238.37)" fill="#232323"/>
          <path id="Path_3407" data-name="Path 3407" d="M3244.226-212.4l-5.318-2.906a1.39,1.39,0,0,0-1.25.081l-4.957,3.02c-.365.222-.4.546-.073.724l5.316,2.906a1.393,1.393,0,0,0,1.251-.081l4.958-3.019C3244.518-211.894,3244.551-212.218,3244.226-212.4Z" transform="translate(-3191.243 237.91)" fill="#232323"/>
          <path id="Path_3408" data-name="Path 3408" d="M3252.262-208l-5.316-2.906a1.392,1.392,0,0,0-1.251.081l-4.957,3.019c-.366.223-.4.548-.074.725l5.317,2.906a1.393,1.393,0,0,0,1.251-.081l4.957-3.019C3252.554-207.5,3252.587-207.826,3252.262-208Z" transform="translate(-3192.085 237.449)" fill="#232323"/>
          <path id="Path_3409" data-name="Path 3409" d="M3260.3-203.612l-5.316-2.906a1.393,1.393,0,0,0-1.25.081l-4.958,3.019c-.365.223-.4.547-.074.725l5.317,2.9a1.387,1.387,0,0,0,1.25-.081l4.958-3.019C3260.591-203.11,3260.623-203.434,3260.3-203.612Z" transform="translate(-3192.928 236.989)" fill="#232323"/>
          <path id="Path_3410" data-name="Path 3410" d="M3268.334-199.22l-5.316-2.907a1.393,1.393,0,0,0-1.25.081l-4.958,3.019c-.365.223-.4.547-.073.725l5.316,2.906a1.393,1.393,0,0,0,1.25-.081l4.958-3.019C3268.626-198.718,3268.659-199.042,3268.334-199.22Z" transform="translate(-3193.77 236.528)" fill="#232323"/>
          <path id="Path_3411" data-name="Path 3411" d="M3276.37-194.828l-5.317-2.906a1.393,1.393,0,0,0-1.25.081l-4.958,3.019c-.365.223-.4.547-.072.724L3270.09-191a1.39,1.39,0,0,0,1.25-.081l4.958-3.019C3276.663-194.326,3276.7-194.65,3276.37-194.828Z" transform="translate(-3194.613 236.068)" fill="#232323"/>
          <path id="Path_3412" data-name="Path 3412" d="M3284.407-190.436l-5.317-2.906a1.39,1.39,0,0,0-1.25.081l-4.958,3.019c-.365.223-.4.547-.074.724l5.317,2.906a1.39,1.39,0,0,0,1.25-.081l4.959-3.019C3284.7-189.934,3284.732-190.258,3284.407-190.436Z" transform="translate(-3195.455 235.608)" fill="#232323"/>
          <path id="Path_3413" data-name="Path 3413" d="M3292.442-186.044l-5.316-2.906a1.39,1.39,0,0,0-1.25.081l-4.959,3.019c-.365.223-.4.547-.072.724l5.316,2.906a1.391,1.391,0,0,0,1.25-.081l4.958-3.02C3292.735-185.542,3292.768-185.866,3292.442-186.044Z" transform="translate(-3196.298 235.147)" fill="#232323"/>
        </g>
        <g id="Group_2009" data-name="Group 2009" transform="translate(6.958 15.432)">
          <path id="Path_3414" data-name="Path 3414" d="M3199.236-228l-14.081-7.695a1.389,1.389,0,0,0-1.25.081l-4.958,3.019c-.365.222-.4.547-.074.724l14.081,7.7a1.394,1.394,0,0,0,1.25-.081l4.958-3.019C3199.528-227.5,3199.561-227.824,3199.236-228Z" transform="translate(-3178.65 235.81)" fill="#232323"/>
          <path id="Path_3415" data-name="Path 3415" d="M3208.3-223.049l-5.317-2.906a1.39,1.39,0,0,0-1.25.081l-4.958,3.019c-.365.223-.4.547-.073.724l5.317,2.906a1.39,1.39,0,0,0,1.25-.081l4.958-3.02C3208.591-222.547,3208.623-222.872,3208.3-223.049Z" transform="translate(-3180.519 234.789)" fill="#232323"/>
          <path id="Path_3416" data-name="Path 3416" d="M3216.333-218.657l-5.316-2.906a1.39,1.39,0,0,0-1.25.081l-4.959,3.019c-.365.223-.4.547-.072.724l5.316,2.906a1.387,1.387,0,0,0,1.25-.081l4.959-3.019C3216.626-218.155,3216.659-218.48,3216.333-218.657Z" transform="translate(-3181.361 234.328)" fill="#232323"/>
          <path id="Path_3417" data-name="Path 3417" d="M3224.371-214.265l-5.318-2.906a1.39,1.39,0,0,0-1.249.081l-4.958,3.019c-.365.222-.4.547-.073.724l5.317,2.906a1.388,1.388,0,0,0,1.25-.081l4.958-3.019C3224.663-213.763,3224.7-214.088,3224.371-214.265Z" transform="translate(-3182.204 233.868)" fill="#232323"/>
          <path id="Path_3418" data-name="Path 3418" d="M3232.406-209.873l-5.317-2.906a1.387,1.387,0,0,0-1.25.081l-4.958,3.019c-.365.222-.4.547-.073.724l5.316,2.906a1.393,1.393,0,0,0,1.25-.081l4.959-3.02C3232.7-209.371,3232.732-209.7,3232.406-209.873Z" transform="translate(-3183.046 233.408)" fill="#232323"/>
          <path id="Path_3419" data-name="Path 3419" d="M3240.443-205.482l-5.317-2.906a1.387,1.387,0,0,0-1.25.081l-4.958,3.019c-.365.222-.4.547-.072.724l5.316,2.906a1.393,1.393,0,0,0,1.251-.081l4.958-3.019C3240.735-204.98,3240.768-205.3,3240.443-205.482Z" transform="translate(-3183.889 232.947)" fill="#232323"/>
          <path id="Path_3420" data-name="Path 3420" d="M3248.479-201.089,3243.162-204a1.39,1.39,0,0,0-1.25.081l-4.958,3.02c-.365.222-.4.546-.073.724l5.317,2.906a1.391,1.391,0,0,0,1.25-.081l4.958-3.019C3248.771-200.588,3248.8-200.912,3248.479-201.089Z" transform="translate(-3184.731 232.487)" fill="#232323"/>
          <path id="Path_3421" data-name="Path 3421" d="M3256.515-196.7,3251.2-199.6a1.391,1.391,0,0,0-1.25.081l-4.958,3.02c-.365.222-.4.546-.073.724l5.317,2.906a1.393,1.393,0,0,0,1.25-.081l4.958-3.019C3256.807-196.2,3256.84-196.52,3256.515-196.7Z" transform="translate(-3185.573 232.027)" fill="#232323"/>
          <path id="Path_3422" data-name="Path 3422" d="M3264.551-192.306l-5.317-2.907a1.394,1.394,0,0,0-1.25.081l-4.958,3.019c-.365.223-.4.547-.073.725l5.317,2.906a1.393,1.393,0,0,0,1.25-.081l4.959-3.02C3264.844-191.8,3264.876-192.128,3264.551-192.306Z" transform="translate(-3186.416 231.566)" fill="#232323"/>
          <path id="Path_3423" data-name="Path 3423" d="M3272.587-187.914l-5.317-2.906a1.391,1.391,0,0,0-1.25.081l-4.958,3.019c-.365.223-.4.547-.073.724l5.316,2.907a1.4,1.4,0,0,0,1.251-.081l4.958-3.019C3272.879-187.412,3272.912-187.736,3272.587-187.914Z" transform="translate(-3187.258 231.106)" fill="#232323"/>
          <path id="Path_3424" data-name="Path 3424" d="M3280.623-183.522l-5.317-2.906a1.389,1.389,0,0,0-1.249.081l-4.959,3.019c-.365.223-.4.547-.073.724l5.318,2.906a1.389,1.389,0,0,0,1.249-.081l4.959-3.02C3280.916-183.02,3280.948-183.344,3280.623-183.522Z" transform="translate(-3188.1 230.645)" fill="#232323"/>
          <path id="Path_3425" data-name="Path 3425" d="M3297.475-174.313l-14.132-7.724a1.39,1.39,0,0,0-1.25.081l-4.958,3.019c-.365.222-.4.547-.073.724l14.132,7.724a1.388,1.388,0,0,0,1.25-.081l4.958-3.019C3297.767-173.81,3297.8-174.135,3297.475-174.313Z" transform="translate(-3188.943 230.185)" fill="#232323"/>
        </g>
        <g id="Group_2010" data-name="Group 2010" transform="translate(0 19.67)">
          <path id="Path_3426" data-name="Path 3426" d="M3253.408-189.414l-34.092-18.631a1.391,1.391,0,0,0-1.25.081l-4.958,3.019c-.365.223-.4.547-.072.725l34.092,18.631a1.391,1.391,0,0,0,1.25-.081l4.958-3.02C3253.7-188.912,3253.733-189.236,3253.408-189.414Z" transform="translate(-3175.274 228.674)" fill="#232323"/>
          <path id="Path_3427" data-name="Path 3427" d="M3206.808-214.882l-5.317-2.906a1.39,1.39,0,0,0-1.25.081l-4.958,3.019c-.365.223-.4.547-.072.724l5.316,2.906a1.39,1.39,0,0,0,1.25-.081l4.958-3.02C3207.1-214.38,3207.133-214.7,3206.808-214.882Z" transform="translate(-3173.405 229.695)" fill="#232323"/>
          <path id="Path_3428" data-name="Path 3428" d="M3216.414-209.632l-6.887-3.764a1.39,1.39,0,0,0-1.25.081l-4.958,3.019c-.365.223-.4.547-.073.725l6.887,3.763a1.391,1.391,0,0,0,1.25-.081l4.958-3.019C3216.706-209.131,3216.739-209.455,3216.414-209.632Z" transform="translate(-3174.248 229.235)" fill="#232323"/>
          <path id="Path_3429" data-name="Path 3429" d="M3269.288-180.736l5.317,2.906c.326.178.292.5-.073.725l-4.958,3.019a1.39,1.39,0,0,1-1.25.081l-5.316-2.906c-.326-.178-.293-.5.072-.725l4.958-3.019A1.393,1.393,0,0,1,3269.288-180.736Z" transform="translate(-3180.512 225.811)" fill="#232323"/>
          <path id="Path_3430" data-name="Path 3430" d="M3259.5-186.086l6.886,3.764c.325.177.293.5-.072.724l-4.958,3.019a1.391,1.391,0,0,1-1.25.081l-6.886-3.764c-.326-.177-.293-.5.073-.724l4.958-3.019A1.39,1.39,0,0,1,3259.5-186.086Z" transform="translate(-3179.486 226.372)" fill="#232323"/>
          <path id="Path_3431" data-name="Path 3431" d="M3182.7-228.058l-5.316-2.906a1.391,1.391,0,0,0-1.25.081l-4.958,3.02c-.365.222-.4.546-.073.724l5.316,2.906a1.391,1.391,0,0,0,1.25-.081l4.958-3.019C3182.992-227.556,3183.025-227.88,3182.7-228.058Z" transform="translate(-3170.878 231.076)" fill="#232323"/>
          <path id="Path_3432" data-name="Path 3432" d="M3190.735-223.666l-5.316-2.9a1.39,1.39,0,0,0-1.25.081l-4.958,3.019c-.365.223-.4.547-.072.725l5.316,2.906a1.393,1.393,0,0,0,1.25-.081l4.958-3.019C3191.028-223.164,3191.06-223.488,3190.735-223.666Z" transform="translate(-3171.72 230.616)" fill="#232323"/>
          <path id="Path_3433" data-name="Path 3433" d="M3198.771-219.274l-5.317-2.906a1.392,1.392,0,0,0-1.25.081l-4.958,3.019c-.365.223-.4.547-.072.725l5.316,2.906a1.393,1.393,0,0,0,1.25-.081l4.958-3.019C3199.064-218.772,3199.1-219.1,3198.771-219.274Z" transform="translate(-3172.563 230.156)" fill="#232323"/>
          <path id="Path_3434" data-name="Path 3434" d="M3289.885-169.478l-12.562-6.866a1.393,1.393,0,0,0-1.25.081l-4.958,3.019c-.366.223-.4.547-.073.725l12.562,6.865a1.391,1.391,0,0,0,1.25-.081l4.958-3.019C3290.177-168.976,3290.21-169.3,3289.885-169.478Z" transform="translate(-3181.354 225.351)" fill="#232323"/>
        </g>
        <g id="Group_2011" data-name="Group 2011" transform="translate(34.789)">
          <path id="Path_3435" data-name="Path 3435" d="M3318.066-191.55l5.316,2.906a1.39,1.39,0,0,0,1.25-.081l2.465-1.5c.365-.222.4-.547.074-.724l-5.318-2.906a1.388,1.388,0,0,0-1.25.081l-2.465,1.5C3317.773-192.053,3317.741-191.728,3318.066-191.55Z" transform="translate(-3221.073 246.856)" fill="#232323"/>
          <path id="Path_3436" data-name="Path 3436" d="M3310.029-195.942l5.318,2.906a1.391,1.391,0,0,0,1.25-.081l2.465-1.5c.365-.222.4-.547.073-.724l-5.317-2.906a1.39,1.39,0,0,0-1.25.081l-2.466,1.5C3309.737-196.445,3309.7-196.12,3310.029-195.942Z" transform="translate(-3220.23 247.317)" fill="#232323"/>
          <path id="Path_3437" data-name="Path 3437" d="M3301.993-200.334l5.317,2.906a1.391,1.391,0,0,0,1.25-.081l2.465-1.5c.365-.222.4-.546.073-.724l-5.316-2.906a1.391,1.391,0,0,0-1.25.081l-2.465,1.5C3301.7-200.836,3301.668-200.512,3301.993-200.334Z" transform="translate(-3219.388 247.777)" fill="#232323"/>
          <path id="Path_3438" data-name="Path 3438" d="M3293.957-204.726l5.317,2.907a1.4,1.4,0,0,0,1.251-.081l2.465-1.5c.365-.222.4-.547.072-.724l-5.316-2.906a1.39,1.39,0,0,0-1.25.081l-2.465,1.5C3293.665-205.228,3293.632-204.9,3293.957-204.726Z" transform="translate(-3218.546 248.237)" fill="#232323"/>
          <path id="Path_3439" data-name="Path 3439" d="M3285.921-209.118l5.317,2.907a1.394,1.394,0,0,0,1.25-.081l2.465-1.5c.365-.223.4-.548.073-.725l-5.317-2.906a1.39,1.39,0,0,0-1.25.081l-2.465,1.5C3285.628-209.62,3285.6-209.3,3285.921-209.118Z" transform="translate(-3217.703 248.698)" fill="#232323"/>
          <path id="Path_3440" data-name="Path 3440" d="M3277.885-213.509l5.317,2.906a1.4,1.4,0,0,0,1.25-.081l2.465-1.5c.366-.222.4-.546.073-.724l-5.316-2.906a1.392,1.392,0,0,0-1.25.081l-2.465,1.5C3277.592-214.012,3277.561-213.688,3277.885-213.509Z" transform="translate(-3216.861 249.158)" fill="#232323"/>
          <path id="Path_3441" data-name="Path 3441" d="M3269.849-217.9l5.316,2.906a1.393,1.393,0,0,0,1.251-.081l2.465-1.5c.365-.223.4-.547.072-.724l-5.316-2.907a1.392,1.392,0,0,0-1.25.081l-2.465,1.5C3269.556-218.4,3269.524-218.08,3269.849-217.9Z" transform="translate(-3216.018 249.619)" fill="#232323"/>
          <path id="Path_3442" data-name="Path 3442" d="M3261.813-222.293l5.316,2.906a1.4,1.4,0,0,0,1.251-.081l2.464-1.5c.366-.223.4-.547.074-.724L3265.6-224.6a1.4,1.4,0,0,0-1.251.081l-2.465,1.5C3261.52-222.8,3261.488-222.472,3261.813-222.293Z" transform="translate(-3215.176 250.079)" fill="#232323"/>
          <path id="Path_3443" data-name="Path 3443" d="M3253.777-226.685l5.316,2.906a1.391,1.391,0,0,0,1.25-.081l2.465-1.5c.365-.223.4-.547.074-.724l-5.317-2.906a1.391,1.391,0,0,0-1.25.081l-2.465,1.5C3253.484-227.188,3253.452-226.863,3253.777-226.685Z" transform="translate(-3214.333 250.539)" fill="#232323"/>
          <path id="Path_3444" data-name="Path 3444" d="M3245.74-231.077l5.317,2.906a1.388,1.388,0,0,0,1.25-.081l2.465-1.5c.366-.223.4-.547.073-.724l-5.317-2.906a1.391,1.391,0,0,0-1.25.081l-2.465,1.5C3245.448-231.58,3245.415-231.255,3245.74-231.077Z" transform="translate(-3213.491 251)" fill="#232323"/>
          <path id="Path_3445" data-name="Path 3445" d="M3237.7-235.469l5.316,2.906a1.39,1.39,0,0,0,1.25-.081l2.465-1.5c.365-.222.4-.547.074-.724l-5.318-2.906a1.388,1.388,0,0,0-1.25.081l-2.465,1.5C3237.412-235.972,3237.379-235.647,3237.7-235.469Z" transform="translate(-3212.648 251.46)" fill="#232323"/>
          <path id="Path_3446" data-name="Path 3446" d="M3229.668-239.861l5.317,2.906a1.391,1.391,0,0,0,1.25-.081l2.465-1.5c.365-.222.4-.546.073-.724l-5.316-2.906a1.391,1.391,0,0,0-1.25.081l-2.466,1.5C3229.376-240.364,3229.343-240.039,3229.668-239.861Z" transform="translate(-3211.806 251.92)" fill="#232323"/>
          <path id="Path_3447" data-name="Path 3447" d="M3221.632-244.253l5.317,2.906a1.39,1.39,0,0,0,1.25-.081l2.465-1.5c.365-.222.4-.546.073-.724l-5.316-2.906a1.391,1.391,0,0,0-1.25.081l-2.465,1.5C3221.34-244.755,3221.307-244.431,3221.632-244.253Z" transform="translate(-3210.964 252.381)" fill="#232323"/>
          <path id="Path_3448" data-name="Path 3448" d="M3209.965-250.629l8.567,4.682a1.392,1.392,0,0,0,1.25-.081l2.465-1.5c.365-.223.4-.547.072-.725l-8.566-4.682a1.39,1.39,0,0,0-1.25.081l-2.466,1.5C3209.672-251.132,3209.64-250.808,3209.965-250.629Z" transform="translate(-3209.741 253.049)" fill="#232323"/>
        </g>
      </g>
    </g>
    <g id="Group_2016" data-name="Group 2016" transform="translate(3235.166 -326.47)">
      <g id="seo" transform="translate(14.178 20.958)">
        <path id="Path_3449" data-name="Path 3449" d="M3263.389-281.2v-1.329a4.963,4.963,0,0,0,.68.848,3.659,3.659,0,0,0,.741.579,1.875,1.875,0,0,0,.383.176.625.625,0,0,0,.274.03.231.231,0,0,0,.164-.1.363.363,0,0,0,.054-.207.877.877,0,0,0-.086-.362,2.233,2.233,0,0,0-.237-.389,5.428,5.428,0,0,0-.354-.43q-.206-.226-.442-.475a5.356,5.356,0,0,1-.9-1.231,2.634,2.634,0,0,1-.3-1.186,1.274,1.274,0,0,1,.162-.706.671.671,0,0,1,.441-.3,1.347,1.347,0,0,1,.646.055,3.711,3.711,0,0,1,.777.346,6.817,6.817,0,0,1,.714.469,5.2,5.2,0,0,1,.575.5v1.242a4.064,4.064,0,0,0-.283-.346q-.153-.167-.314-.312t-.323-.263a3.171,3.171,0,0,0-.3-.2,1.767,1.767,0,0,0-.36-.165.683.683,0,0,0-.274-.036.259.259,0,0,0-.173.09.328.328,0,0,0-.061.212.77.77,0,0,0,.068.308,1.959,1.959,0,0,0,.194.337q.127.179.306.385c.119.137.255.285.406.444.207.219.391.431.556.639a4.753,4.753,0,0,1,.423.624,3.013,3.013,0,0,1,.27.64,2.478,2.478,0,0,1,.094.688,1.355,1.355,0,0,1-.164.743.652.652,0,0,1-.445.292,1.36,1.36,0,0,1-.653-.076,4.321,4.321,0,0,1-.787-.362,6.8,6.8,0,0,1-.807-.55A4.8,4.8,0,0,1,3263.389-281.2Z" transform="translate(-3263.368 286.296)" fill="#fff"/>
        <path id="Path_3450" data-name="Path 3450" d="M3271.366-276.444l-3.094-1.788v-5.958l2.976,1.719v1.092l-1.813-1.047v1.326l1.687.975v1.089l-1.687-.974v1.362l1.932,1.116Z" transform="translate(-3263.881 286.075)" fill="#fff"/>
        <path id="Path_3451" data-name="Path 3451" d="M3274.8-274.244a4.864,4.864,0,0,1-1.807-1.876,5.161,5.161,0,0,1-.7-2.574,2.093,2.093,0,0,1,.708-1.876,1.754,1.754,0,0,1,1.878.211,4.762,4.762,0,0,1,1.787,1.866,5.278,5.278,0,0,1,.682,2.6,2.052,2.052,0,0,1-.707,1.856A1.734,1.734,0,0,1,3274.8-274.244Zm.051-4.978q-.612-.353-.972-.031a1.571,1.571,0,0,0-.36,1.2,3.564,3.564,0,0,0,.36,1.608,2.428,2.428,0,0,0,.943,1.06q.6.346.955.049a1.529,1.529,0,0,0,.352-1.186,3.755,3.755,0,0,0-.341-1.639A2.345,2.345,0,0,0,3274.847-279.222Z" transform="translate(-3264.303 285.715)" fill="#fff"/>
      </g>
      <g id="arrows">
        <g id="Group_2014" data-name="Group 2014" transform="translate(0.259)">
          <path id="Path_3452" data-name="Path 3452" d="M3259.645-296.637c2.872-1.866,6.338-1.442,10.393,1.748a25.692,25.692,0,0,1,9.4,16.308l6.883,1.229a42,42,0,0,0-11.248-21.627c-8.049-8.2-15.049-9.9-21.077-6.31l-1.424-2.18c-.221-.338-.438-.679-.663-1.013-1-1.5-2.137-1.654-2.336-.3-.2,1.389-.375,2.8-.563,4.206-.384,2.881-.762,5.765-1.158,8.637a2.887,2.887,0,0,0,1.217,2.915,1.95,1.95,0,0,0,.678.256q5.822,1.054,11.642,2.093c.547.1.94-.04,1.043-.672a2.808,2.808,0,0,0-.6-1.958C3261.11-294.386,3260.4-295.481,3259.645-296.637Z" transform="translate(-3247.817 309.708)" fill="#3c2768"/>
          <path id="Path_3453" data-name="Path 3453" d="M3282.319-258.186c.626.956,1.279,1.94,1.916,2.936a2.275,2.275,0,0,0,1.493,1.2c.557.071.774-.342.856-.959q.83-6.319,1.681-12.624c.011-.076.016-.155.03-.228a2.692,2.692,0,0,0-2.074-3.149c-2.6-.451-5.2-.926-7.793-1.391-1.215-.217-2.425-.419-3.642-.648-.548-.1-.956.011-1.063.638a2.853,2.853,0,0,0,.618,2.022c.767,1.149,1.516,2.314,2.325,3.555-2.855,1.618-6.236,1.1-10.132-1.982a25.67,25.67,0,0,1-9.353-16.247l-6.89-1.234a41.971,41.971,0,0,0,10.794,21.127C3269.083-256.768,3276.138-254.831,3282.319-258.186Z" transform="translate(-3248.077 307.254)" fill="#3c2768"/>
        </g>
        <g id="Group_2015" data-name="Group 2015" transform="translate(0 0.25)">
          <path id="Path_3454" data-name="Path 3454" d="M3259.355-296.359c2.873-1.865,6.339-1.442,10.394,1.749a25.692,25.692,0,0,1,9.4,16.307l6.883,1.229a42,42,0,0,0-11.248-21.626c-8.048-8.2-15.05-9.9-21.078-6.311l-1.423-2.18c-.22-.337-.438-.679-.662-1.012-1-1.5-2.137-1.654-2.336-.3-.2,1.389-.375,2.8-.562,4.206-.385,2.881-.763,5.766-1.158,8.638a2.889,2.889,0,0,0,1.216,2.915,1.924,1.924,0,0,0,.679.256q5.822,1.054,11.642,2.093c.547.1.939-.039,1.042-.672a2.8,2.8,0,0,0-.6-1.958C3260.821-294.107,3260.112-295.2,3259.355-296.359Z" transform="translate(-3247.529 309.429)" fill="#fff"/>
          <path id="Path_3455" data-name="Path 3455" d="M3282.031-257.908c.625.957,1.278,1.94,1.916,2.937a2.274,2.274,0,0,0,1.493,1.2c.557.072.774-.342.854-.958q.83-6.32,1.682-12.625c.01-.075.016-.155.029-.228a2.691,2.691,0,0,0-2.074-3.149c-2.594-.451-5.195-.927-7.792-1.39-1.215-.217-2.426-.42-3.644-.649-.547-.1-.955.012-1.062.639a2.853,2.853,0,0,0,.617,2.021c.768,1.148,1.516,2.314,2.326,3.555-2.855,1.618-6.237,1.1-10.132-1.982a25.665,25.665,0,0,1-9.353-16.247L3250-286.022A41.984,41.984,0,0,0,3260.8-264.9C3268.793-256.49,3275.849-254.553,3282.031-257.908Z" transform="translate(-3247.788 306.975)" fill="#fff"/>
        </g>
      </g>
    </g>
  </g>
</svg>
