<svg xmlns="http://www.w3.org/2000/svg" xmlns:xlink="http://www.w3.org/1999/xlink" width="373.498" height="283.123" viewBox="0 0 373.498 283.123">
  <defs>
    <linearGradient id="linear-gradient" x1="0.505" y1="0.148" x2="-0.017" y2="0.936" gradientUnits="objectBoundingBox">
      <stop offset="0" stop-color="#d7e9f2"/>
      <stop offset="0.955" stop-color="#a4bfec"/>
      <stop offset="1" stop-color="#a2bdec"/>
    </linearGradient>
    <linearGradient id="linear-gradient-2" x1="0.472" y1="0.057" x2="0.551" y2="1.308" gradientUnits="objectBoundingBox">
      <stop offset="0" stop-color="#a2bdec"/>
      <stop offset="0.045" stop-color="#a4bfec"/>
      <stop offset="1" stop-color="#d7e9f2"/>
    </linearGradient>
    <linearGradient id="linear-gradient-3" x1="0.5" y1="0.542" x2="0.5" y2="-0.399" xlink:href="#linear-gradient-2"/>
    <linearGradient id="linear-gradient-4" x1="0.174" y1="-1.382" x2="0.656" y2="1.401" gradientUnits="objectBoundingBox">
      <stop offset="0" stop-color="#f2ffff"/>
      <stop offset="0.196" stop-color="#ecfbfc"/>
      <stop offset="0.448" stop-color="#dceff6"/>
      <stop offset="0.728" stop-color="#c2dded"/>
      <stop offset="1" stop-color="#a2c7e1"/>
    </linearGradient>
    <linearGradient id="linear-gradient-5" x1="0.472" y1="0.057" x2="0.551" y2="1.308" gradientUnits="objectBoundingBox">
      <stop offset="0" stop-color="#d3e6f0"/>
      <stop offset="0.201" stop-color="#dcedf4"/>
      <stop offset="0.649" stop-color="#ecfafc"/>
      <stop offset="1" stop-color="#f2ffff"/>
    </linearGradient>
    <linearGradient id="linear-gradient-8" x1="0.472" y1="0.057" x2="0.551" y2="1.308" gradientUnits="objectBoundingBox">
      <stop offset="0" stop-color="#faffff"/>
      <stop offset="0.305" stop-color="#f4fbfc"/>
      <stop offset="0.694" stop-color="#e4f1f6"/>
      <stop offset="1" stop-color="#d3e6f0"/>
    </linearGradient>
    <linearGradient id="linear-gradient-9" x1="0.512" y1="0.268" x2="0.471" y2="1.034" gradientUnits="objectBoundingBox">
      <stop offset="0" stop-color="#b1d9df"/>
      <stop offset="0.704" stop-color="#eaeeee"/>
    </linearGradient>
    <linearGradient id="linear-gradient-10" x1="0.875" y1="0.108" x2="0.095" y2="0.923" gradientUnits="objectBoundingBox">
      <stop offset="0" stop-color="#c5e4ff"/>
      <stop offset="0.704" stop-color="#eaeeee"/>
    </linearGradient>
    <linearGradient id="linear-gradient-11" x1="0.684" y1="0.637" x2="-0.151" y2="0.018" xlink:href="#linear-gradient"/>
    <linearGradient id="linear-gradient-13" x1="-0.231" y1="-1.032" x2="0.85" y2="1.234" xlink:href="#linear-gradient-4"/>
    <linearGradient id="linear-gradient-15" x1="0" y1="0.5" x2="1" y2="0.5" xlink:href="#linear-gradient-8"/>
    <linearGradient id="linear-gradient-19" y1="0.5" x2="1" y2="0.5" gradientUnits="objectBoundingBox">
      <stop offset="0" stop-color="#2b7ec2"/>
      <stop offset="0.25" stop-color="#469dd6"/>
      <stop offset="0.563" stop-color="#63beec"/>
      <stop offset="0.825" stop-color="#74d2fa"/>
      <stop offset="1" stop-color="#7bdaff"/>
    </linearGradient>
    <linearGradient id="linear-gradient-20" x1="0.609" y1="-0.247" x2="0.395" y2="1.057" gradientUnits="objectBoundingBox">
      <stop offset="0" stop-color="#16d8ff"/>
      <stop offset="1" stop-color="#5155d4"/>
    </linearGradient>
    <linearGradient id="linear-gradient-21" x1="0.505" y1="0.148" x2="-0.017" y2="0.936" xlink:href="#linear-gradient-8"/>
  </defs>
  <g id="digi-market" transform="translate(0 0)">
    <g id="Group_503" data-name="Group 503" transform="translate(258.465)">
      <g id="Group_467" data-name="Group 467" transform="translate(0.299)">
        <path id="Path_784" data-name="Path 784" d="M1678.709-398.938l-.007,2.317-2.016-1.164.007-2.317Z" transform="translate(-1676.686 400.102)" fill="#dcdcdc"/>
      </g>
      <g id="Group_468" data-name="Group 468" transform="translate(20.188 11.483)">
        <path id="Path_785" data-name="Path 785" d="M1700.493-386.36l-.006,2.317-2.016-1.164.006-2.317Z" transform="translate(-1698.471 387.524)" fill="#94a3c0"/>
      </g>
      <g id="Group_469" data-name="Group 469" transform="translate(40.084 22.97)">
        <path id="Path_786" data-name="Path 786" d="M1722.285-373.779l-.007,2.317-2.016-1.164.007-2.317Z" transform="translate(-1720.262 374.943)" fill="#dcdcdc"/>
      </g>
      <g id="Group_470" data-name="Group 470" transform="translate(59.973 34.452)">
        <path id="Path_787" data-name="Path 787" d="M1744.069-361.2l-.007,2.317-2.016-1.164.007-2.317Z" transform="translate(-1742.047 362.366)" fill="#94a3c0"/>
      </g>
      <g id="Group_471" data-name="Group 471" transform="translate(79.868 45.939)">
        <path id="Path_788" data-name="Path 788" d="M1765.854-348.624l-.007,2.317-2.01-1.16.007-2.317Z" transform="translate(-1763.838 349.784)" fill="#94a3c0"/>
      </g>
      <g id="Group_472" data-name="Group 472" transform="translate(99.757 57.422)">
        <path id="Path_789" data-name="Path 789" d="M1787.645-336.043l-.007,2.316-2.016-1.164.007-2.316Z" transform="translate(-1785.622 337.207)" fill="#94a3c0"/>
      </g>
      <g id="Group_473" data-name="Group 473" transform="translate(0.24 21.122)" opacity="0.31">
        <path id="Path_790" data-name="Path 790" d="M1678.643-375.8l-.007,2.317-2.016-1.164.007-2.317Z" transform="translate(-1676.621 376.967)" fill="#dcdcdc"/>
      </g>
      <g id="Group_474" data-name="Group 474" transform="translate(20.128 32.605)">
        <path id="Path_791" data-name="Path 791" d="M1700.427-363.225l-.007,2.317-2.016-1.164.006-2.317Z" transform="translate(-1698.405 364.389)" fill="#5c82ff"/>
      </g>
      <g id="Group_475" data-name="Group 475" transform="translate(40.024 44.092)" opacity="0.31">
        <path id="Path_792" data-name="Path 792" d="M1722.219-350.644l-.006,2.317-2.016-1.164.007-2.317Z" transform="translate(-1720.196 351.808)" fill="#dcdcdc"/>
      </g>
      <g id="Group_476" data-name="Group 476" transform="translate(59.913 55.574)">
        <path id="Path_793" data-name="Path 793" d="M1744-338.067,1744-335.75l-2.016-1.164.007-2.317Z" transform="translate(-1741.981 339.231)" fill="#dcdcdc"/>
      </g>
      <g id="Group_477" data-name="Group 477" transform="translate(79.808 67.061)">
        <path id="Path_794" data-name="Path 794" d="M1765.789-325.489l-.007,2.317-2.009-1.16.006-2.317Z" transform="translate(-1763.773 326.649)" fill="#94a3c0"/>
      </g>
      <g id="Group_478" data-name="Group 478" transform="translate(99.697 78.544)">
        <path id="Path_795" data-name="Path 795" d="M1787.579-312.908l-.006,2.317-2.016-1.164.006-2.316Z" transform="translate(-1785.557 314.072)" fill="#5c82ff"/>
      </g>
      <g id="Group_479" data-name="Group 479" transform="translate(0.18 42.244)">
        <path id="Path_796" data-name="Path 796" d="M1678.578-352.667l-.007,2.309-2.016-1.164.006-2.309Z" transform="translate(-1676.556 353.831)" fill="#94a3c0"/>
      </g>
      <g id="Group_480" data-name="Group 480" transform="translate(20.068 53.727)">
        <path id="Path_797" data-name="Path 797" d="M1700.362-340.09l-.007,2.309-2.016-1.164.006-2.309Z" transform="translate(-1698.34 341.254)" fill="#94a3c0"/>
      </g>
      <g id="Group_481" data-name="Group 481" transform="translate(39.964 65.214)">
        <path id="Path_798" data-name="Path 798" d="M1722.154-327.509l-.007,2.309-2.016-1.164.007-2.309Z" transform="translate(-1720.131 328.673)" fill="#94a3c0"/>
      </g>
      <g id="Group_482" data-name="Group 482" transform="translate(59.853 76.696)">
        <path id="Path_799" data-name="Path 799" d="M1743.938-314.932l-.006,2.309-2.016-1.164.007-2.309Z" transform="translate(-1741.915 316.096)" fill="#5c82ff"/>
      </g>
      <g id="Group_483" data-name="Group 483" transform="translate(79.748 88.183)">
        <path id="Path_800" data-name="Path 800" d="M1765.723-302.354l-.007,2.309-2.01-1.16.007-2.309Z" transform="translate(-1763.707 303.514)" fill="#94a3c0"/>
      </g>
      <g id="Group_484" data-name="Group 484" transform="translate(99.637 99.666)" opacity="0.31">
        <path id="Path_801" data-name="Path 801" d="M1787.514-289.773l-.007,2.309-2.016-1.164.007-2.309Z" transform="translate(-1785.491 290.937)" fill="#dcdcdc"/>
      </g>
      <g id="Group_485" data-name="Group 485" transform="translate(0.12 63.366)">
        <path id="Path_802" data-name="Path 802" d="M1678.512-329.532l-.006,2.309-2.016-1.164.006-2.309Z" transform="translate(-1676.49 330.696)" fill="#94a3c0"/>
      </g>
      <g id="Group_486" data-name="Group 486" transform="translate(20.009 74.849)">
        <path id="Path_803" data-name="Path 803" d="M1700.3-316.955l-.007,2.309-2.016-1.164.006-2.309Z" transform="translate(-1698.274 318.119)" fill="#94a3c0"/>
      </g>
      <g id="Group_487" data-name="Group 487" transform="translate(39.904 86.336)">
        <path id="Path_804" data-name="Path 804" d="M1722.088-304.374l-.006,2.309-2.016-1.164.006-2.309Z" transform="translate(-1720.065 305.538)" fill="#94a3c0"/>
      </g>
      <g id="Group_488" data-name="Group 488" transform="translate(59.793 97.818)">
        <path id="Path_805" data-name="Path 805" d="M1743.872-291.8l-.006,2.309-2.016-1.164.006-2.309Z" transform="translate(-1741.85 292.96)" fill="#dcdcdc"/>
      </g>
      <g id="Group_489" data-name="Group 489" transform="translate(79.688 109.305)">
        <path id="Path_806" data-name="Path 806" d="M1765.657-279.219l-.007,2.309-2.01-1.16.006-2.309Z" transform="translate(-1763.641 280.379)" fill="#5c82ff"/>
      </g>
      <g id="Group_490" data-name="Group 490" transform="translate(99.577 120.788)">
        <path id="Path_807" data-name="Path 807" d="M1787.448-266.638l-.007,2.309-2.016-1.164.006-2.309Z" transform="translate(-1785.426 267.802)" fill="#94a3c0"/>
      </g>
      <g id="Group_491" data-name="Group 491" transform="translate(0.06 84.481)">
        <path id="Path_808" data-name="Path 808" d="M1678.447-306.405l-.007,2.317-2.016-1.164.006-2.316Z" transform="translate(-1676.424 307.569)" fill="#94a3c0"/>
      </g>
      <g id="Group_492" data-name="Group 492" transform="translate(19.949 95.964)">
        <path id="Path_809" data-name="Path 809" d="M1700.231-293.828l-.007,2.316-2.016-1.164.007-2.317Z" transform="translate(-1698.208 294.992)" fill="#94a3c0"/>
      </g>
      <g id="Group_493" data-name="Group 493" transform="translate(39.844 107.45)">
        <path id="Path_810" data-name="Path 810" d="M1722.023-281.247l-.007,2.317L1720-280.094l.007-2.317Z" transform="translate(-1720 282.411)" fill="#94a3c0"/>
      </g>
      <g id="Group_494" data-name="Group 494" transform="translate(59.733 118.933)">
        <path id="Path_811" data-name="Path 811" d="M1743.807-268.67l-.007,2.317-2.016-1.164.006-2.317Z" transform="translate(-1741.784 269.834)" fill="#94a3c0"/>
      </g>
      <g id="Group_495" data-name="Group 495" transform="translate(79.628 130.42)">
        <path id="Path_812" data-name="Path 812" d="M1765.592-256.092l-.006,2.317-2.01-1.16.007-2.317Z" transform="translate(-1763.576 257.252)" fill="#dcdcdc"/>
      </g>
      <g id="Group_496" data-name="Group 496" transform="translate(99.517 141.902)">
        <path id="Path_813" data-name="Path 813" d="M1787.383-243.511l-.007,2.317-2.016-1.164.007-2.317Z" transform="translate(-1785.36 244.675)" fill="#5c82ff"/>
      </g>
      <g id="Group_497" data-name="Group 497" transform="translate(0 105.603)">
        <path id="Path_814" data-name="Path 814" d="M1678.381-283.27l-.007,2.317-2.016-1.164.007-2.317Z" transform="translate(-1676.358 284.434)" fill="#94a3c0"/>
      </g>
      <g id="Group_498" data-name="Group 498" transform="translate(19.889 117.086)">
        <path id="Path_815" data-name="Path 815" d="M1700.165-270.693l-.007,2.316-2.016-1.164.006-2.317Z" transform="translate(-1698.143 271.857)" fill="#94a3c0"/>
      </g>
      <g id="Group_499" data-name="Group 499" transform="translate(39.784 128.572)">
        <path id="Path_816" data-name="Path 816" d="M1721.957-258.112l-.006,2.316-2.016-1.164.007-2.317Z" transform="translate(-1719.934 259.276)" fill="#94a3c0"/>
      </g>
      <g id="Group_500" data-name="Group 500" transform="translate(59.673 140.055)">
        <path id="Path_817" data-name="Path 817" d="M1743.741-245.535l-.007,2.317-2.016-1.164.006-2.317Z" transform="translate(-1741.719 246.699)" fill="#94a3c0"/>
      </g>
      <g id="Group_501" data-name="Group 501" transform="translate(79.568 151.542)">
        <path id="Path_818" data-name="Path 818" d="M1765.526-232.957l-.006,2.316-2.009-1.16.007-2.317Z" transform="translate(-1763.51 234.117)" fill="#94a3c0"/>
      </g>
      <g id="Group_502" data-name="Group 502" transform="translate(99.457 163.024)">
        <path id="Path_819" data-name="Path 819" d="M1787.317-220.376l-.006,2.317-2.016-1.164.006-2.317Z" transform="translate(-1785.295 221.54)" fill="#94a3c0"/>
      </g>
    </g>
    <g id="Group_504" data-name="Group 504" transform="translate(8.832 103.422)" opacity="0.6" style="mix-blend-mode: multiply;isolation: isolate">
      <path id="Path_820" data-name="Path 820" d="M1505.5-265.162c1.768,1.021,1.774,2.671.021,3.689l-58.687,34.105a7.008,7.008,0,0,1-6.37,0l-36.194-20.9c-1.765-1.019-1.777-2.67-.021-3.69l58.688-34.106a7.025,7.025,0,0,1,6.37,0Z" transform="translate(-1402.933 286.823)" fill="url(#linear-gradient)"/>
    </g>
    <g id="Group_505" data-name="Group 505" transform="translate(78.438 93.746)" opacity="0.47">
      <path id="Path_821" data-name="Path 821" d="M1772.8-212.381l-146.337,85.042-147.294-85.04,146.336-85.041Z" transform="translate(-1479.173 297.421)" opacity="0.6" fill="url(#linear-gradient-2)" style="mix-blend-mode: multiply;isolation: isolate"/>
    </g>
    <g id="Group_510" data-name="Group 510" transform="translate(58.385 71.817)">
      <g id="Group_509" data-name="Group 509" style="isolation: isolate">
        <g id="Group_506" data-name="Group 506" transform="translate(147.294 85.04)">
          <path id="Path_822" data-name="Path 822" d="M1764.907-228.3l-.029,10.448-146.337,85.042.03-10.448Z" transform="translate(-1618.541 228.296)" fill="url(#linear-gradient-3)"/>
        </g>
        <g id="Group_507" data-name="Group 507" transform="translate(0 85.042)">
          <path id="Path_823" data-name="Path 823" d="M1604.533-143.254l-.03,10.448-147.294-85.04.03-10.448Z" transform="translate(-1457.209 228.294)" fill="url(#linear-gradient-4)"/>
        </g>
        <g id="Group_508" data-name="Group 508" transform="translate(0.03)">
          <path id="Path_824" data-name="Path 824" d="M1750.872-236.4l-146.336,85.041L1457.242-236.4l146.336-85.042Z" transform="translate(-1457.242 321.44)" fill="url(#linear-gradient-5)"/>
        </g>
      </g>
    </g>
    <g id="Group_516" data-name="Group 516" transform="translate(58.385 71.817)">
      <g id="Group_515" data-name="Group 515">
        <g id="Group_514" data-name="Group 514" style="isolation: isolate">
          <g id="Group_511" data-name="Group 511" transform="translate(147.294 85.04)">
            <path id="Path_825" data-name="Path 825" d="M1764.907-228.3l-.029,10.448-146.337,85.042.03-10.448Z" transform="translate(-1618.541 228.296)" fill="url(#linear-gradient-3)"/>
          </g>
          <g id="Group_512" data-name="Group 512" transform="translate(0 85.042)">
            <path id="Path_826" data-name="Path 826" d="M1604.533-143.254l-.03,10.448-147.294-85.04.03-10.448Z" transform="translate(-1457.209 228.294)" fill="url(#linear-gradient-4)"/>
          </g>
          <g id="Group_513" data-name="Group 513" transform="translate(0.03)">
            <path id="Path_827" data-name="Path 827" d="M1750.872-236.4l-146.336,85.041L1457.242-236.4l146.336-85.042Z" transform="translate(-1457.242 321.44)" fill="url(#linear-gradient-8)"/>
          </g>
        </g>
      </g>
    </g>
    <g id="Group_528" data-name="Group 528" transform="translate(105.97 5.897)">
      <g id="Group_517" data-name="Group 517" transform="translate(75.852)">
        <path id="Path_828" data-name="Path 828" d="M1710.189-243.412l-1.9-80.852c-.106-4.548-1.645-6.721-4.64-8.383L1595.289-391.87a3.4,3.4,0,0,0-2.878-.478h0s1.778-1.086,1.942-1.152h0a3.437,3.437,0,0,1,2.844.493l108.365,59.224c3,1.661,4.533,3.835,4.64,8.382l1.9,80.852c.05,2.174-.52,3.411-1.453,3.863l-1.59.942C1709.8-240.31,1710.234-241.5,1710.189-243.412Z" transform="translate(-1592.41 393.643)" fill="url(#linear-gradient-9)"/>
        <path id="Path_829" data-name="Path 829" d="M1719.747-224.826Z" transform="translate(-1603.49 378.953)" fill="#a6a8ab"/>
      </g>
      <path id="Path_830" data-name="Path 830" d="M1700.405-219.468a2.185,2.185,0,0,0-.01-.411l-.1-4.085h0a4.132,4.132,0,0,1-2.26,2.944l-69.072,42.067c-2.795,1.7-7.075,1.98-9.562.621l-108.364-59.223a2.905,2.905,0,0,1-1.7-2.209h-.007l.1,4.38h0a2.844,2.844,0,0,0,1.706,2.343l108.364,59.224c2.486,1.359,6.767,1.081,9.561-.621l69.073-42.067a4.143,4.143,0,0,0,2.26-2.932h0Z" transform="translate(-1509.329 380.253)" fill="#464647"/>
      <path id="Path_831" data-name="Path 831" d="M1698.6-231.029l-108.364-59.223c-2.486-1.359-6.767-1.081-9.561.621l-40.9,24.907-28.176,17.16a6.93,6.93,0,0,0-.9.65l0,0c-1.909,1.638-1.838,3.7.346,4.89L1619.405-182.8c2.486,1.359,6.767,1.081,9.562-.621l28.183-17.164h0l40.889-24.9C1700.833-227.189,1701.083-229.67,1698.6-231.029Z" transform="translate(-1509.329 384.721)" fill="url(#linear-gradient-10)"/>
      <path id="Path_832" data-name="Path 832" d="M1561.618-210.772l17.677,9.659a.515.515,0,0,1,.028.975l-19.393-10.6A1.862,1.862,0,0,1,1561.618-210.772Z" transform="translate(-1513.732 377.746)" fill="#464647"/>
      <path id="Path_833" data-name="Path 833" d="M1605.772-284.418l91.628,50.077,1.22-.743-91.628-50.077Z" transform="translate(-1517.721 384.203)" fill="#464647"/>
      <g id="Group_518" data-name="Group 518" transform="translate(74.365 1.137)">
        <path id="Path_834" data-name="Path 834" d="M1708.152-324.156c-.106-4.548-1.644-6.721-4.64-8.383l-108.365-59.223c-2.486-1.359-4.459-.686-4.362,3.461l1.894,80.853c.124,5.284,1.922,6.9,4.641,8.382l108.364,59.223c2.486,1.359,4.455.5,4.363-3.461Z" transform="translate(-1590.781 392.397)" fill="#464647"/>
        <path id="Path_835" data-name="Path 835" d="M1705.626-250.147l-1.783-76.076a.743.743,0,0,0-.385-.634l-106.34-58.116a.741.741,0,0,0-1.1.668l1.782,76.076a.741.741,0,0,0,.386.633l106.339,58.117A.742.742,0,0,0,1705.626-250.147Z" transform="translate(-1591.237 391.759)" fill="#33b4ff"/>
        <path id="Path_836" data-name="Path 836" d="M1679.143-340.145,1630-367l-32.885-17.972a.741.741,0,0,0-1.1.667l1.783,76.077a.738.738,0,0,0,.385.633l14.523,7.938Z" transform="translate(-1591.237 391.759)" fill="#fff" opacity="0.2" style="mix-blend-mode: overlay;isolation: isolate"/>
      </g>
      <g id="Group_520" data-name="Group 520" transform="translate(40.992 143.722)">
        <path id="Path_837" data-name="Path 837" d="M1564.222-226.934l14.566-8.871a3.531,3.531,0,0,1,3.2-.069l36.244,19.807a.974.974,0,0,1,.053,1.845l-14.566,8.871Z" transform="translate(-1555.097 236.223)" fill="#7b7b7c" opacity="0.4"/>
        <g id="Group_519" data-name="Group 519" transform="translate(0 9.657)" opacity="0.4">
          <path id="Path_838" data-name="Path 838" d="M1584.63-213.638l19.434,10.621-7.885,4.8a3.534,3.534,0,0,1-3.2.069l-17.809-9.734Z" transform="translate(-1556.05 224.601)" fill="#7a7a7a" opacity="0.4"/>
          <path id="Path_839" data-name="Path 839" d="M1582.183-215.024l-9.457,5.759L1554.917-219a.974.974,0,0,1-.053-1.845l7.885-4.8Z" transform="translate(-1554.227 225.646)" fill="#7a7a7a" opacity="0.4"/>
        </g>
      </g>
      <g id="Group_527" data-name="Group 527" transform="translate(37.691 99.049)">
        <g id="Group_521" data-name="Group 521" transform="translate(28.385 2.774)">
          <path id="Path_840" data-name="Path 840" d="M1690.032-219.021l5.422,2.964a1.42,1.42,0,0,0,1.275-.083l5.056-3.079c.373-.227.406-.558.074-.739l-5.422-2.964a1.416,1.416,0,0,0-1.275.083l-5.057,3.079C1689.734-219.533,1689.7-219.2,1690.032-219.021Z" transform="translate(-1591.109 276.975)" fill="#232323"/>
          <path id="Path_841" data-name="Path 841" d="M1682-223.413l5.422,2.964a1.418,1.418,0,0,0,1.274-.083l5.057-3.079c.373-.226.406-.558.075-.739l-5.423-2.964a1.415,1.415,0,0,0-1.275.083l-5.057,3.08C1681.7-223.925,1681.665-223.594,1682-223.413Z" transform="translate(-1590.41 277.358)" fill="#232323"/>
          <path id="Path_842" data-name="Path 842" d="M1673.96-227.8l5.422,2.964a1.418,1.418,0,0,0,1.274-.083l5.057-3.079c.373-.226.406-.557.075-.739l-5.423-2.964a1.418,1.418,0,0,0-1.275.083l-5.057,3.079C1673.662-228.316,1673.629-227.986,1673.96-227.8Z" transform="translate(-1589.711 277.74)" fill="#232323"/>
          <path id="Path_843" data-name="Path 843" d="M1665.924-232.2l5.422,2.964a1.417,1.417,0,0,0,1.274-.082l5.057-3.08c.373-.226.406-.558.074-.739l-5.422-2.964a1.418,1.418,0,0,0-1.275.083l-5.057,3.08C1665.625-232.708,1665.593-232.378,1665.924-232.2Z" transform="translate(-1589.011 278.122)" fill="#232323"/>
          <path id="Path_844" data-name="Path 844" d="M1657.887-236.589l5.423,2.964a1.418,1.418,0,0,0,1.275-.082l5.057-3.079c.373-.227.405-.558.074-.74l-5.422-2.964a1.418,1.418,0,0,0-1.274.083l-5.057,3.079C1657.59-237.1,1657.556-236.77,1657.887-236.589Z" transform="translate(-1588.312 278.504)" fill="#232323"/>
          <path id="Path_845" data-name="Path 845" d="M1649.851-240.98l5.423,2.964a1.421,1.421,0,0,0,1.275-.083l5.057-3.08c.373-.226.405-.557.074-.739l-5.422-2.964a1.418,1.418,0,0,0-1.275.083l-5.057,3.079C1649.554-241.492,1649.52-241.161,1649.851-240.98Z" transform="translate(-1587.613 278.886)" fill="#232323"/>
          <path id="Path_846" data-name="Path 846" d="M1641.815-245.373l5.423,2.964a1.421,1.421,0,0,0,1.275-.083l5.056-3.079c.373-.227.406-.558.075-.74l-5.423-2.964a1.421,1.421,0,0,0-1.274.083l-5.056,3.079C1641.518-245.884,1641.484-245.553,1641.815-245.373Z" transform="translate(-1586.914 279.268)" fill="#232323"/>
          <path id="Path_847" data-name="Path 847" d="M1633.779-249.764l5.423,2.964a1.418,1.418,0,0,0,1.275-.083l5.057-3.079c.373-.227.405-.558.074-.739l-5.422-2.964a1.423,1.423,0,0,0-1.276.083l-5.056,3.08C1633.482-250.276,1633.448-249.945,1633.779-249.764Z" transform="translate(-1586.215 279.651)" fill="#232323"/>
          <path id="Path_848" data-name="Path 848" d="M1625.743-254.156l5.422,2.964a1.42,1.42,0,0,0,1.275-.083l5.057-3.079c.372-.227.405-.558.074-.739l-5.423-2.964a1.418,1.418,0,0,0-1.275.082l-5.057,3.08C1625.446-254.668,1625.412-254.337,1625.743-254.156Z" transform="translate(-1585.515 280.033)" fill="#232323"/>
          <path id="Path_849" data-name="Path 849" d="M1617.707-258.548l5.422,2.964a1.42,1.42,0,0,0,1.276-.083l5.056-3.079c.372-.227.406-.558.075-.739l-5.422-2.964a1.422,1.422,0,0,0-1.275.082l-5.057,3.079C1617.41-259.06,1617.376-258.729,1617.707-258.548Z" transform="translate(-1584.816 280.415)" fill="#232323"/>
          <path id="Path_850" data-name="Path 850" d="M1609.671-262.94l5.422,2.964a1.418,1.418,0,0,0,1.276-.083l5.056-3.079c.372-.226.406-.558.075-.739l-5.423-2.964a1.418,1.418,0,0,0-1.275.083l-5.057,3.08C1609.373-263.452,1609.34-263.121,1609.671-262.94Z" transform="translate(-1584.117 280.797)" fill="#232323"/>
          <path id="Path_851" data-name="Path 851" d="M1601.635-267.332l5.422,2.964a1.418,1.418,0,0,0,1.274-.083l5.057-3.079c.372-.226.405-.558.075-.739l-5.423-2.964a1.415,1.415,0,0,0-1.274.083l-5.057,3.08C1601.337-267.844,1601.3-267.513,1601.635-267.332Z" transform="translate(-1583.418 281.179)" fill="#232323"/>
          <path id="Path_852" data-name="Path 852" d="M1593.6-271.724l5.422,2.964a1.415,1.415,0,0,0,1.274-.083l5.057-3.079c.372-.226.405-.557.074-.739L1600-275.625a1.418,1.418,0,0,0-1.274.083l-5.057,3.079C1593.3-272.236,1593.267-271.9,1593.6-271.724Z" transform="translate(-1582.719 281.561)" fill="#232323"/>
          <path id="Path_853" data-name="Path 853" d="M1581.931-278.1l8.738,4.775a1.418,1.418,0,0,0,1.275-.082l5.057-3.08c.372-.226.405-.557.074-.739L1588.337-282a1.419,1.419,0,0,0-1.275.082l-5.056,3.08C1581.633-278.612,1581.6-278.281,1581.931-278.1Z" transform="translate(-1581.703 282.116)" fill="#232323"/>
        </g>
        <g id="Group_522" data-name="Group 522" transform="translate(21.289 7.096)">
          <path id="Path_854" data-name="Path 854" d="M1585.987-274.3l-5.422-2.964a1.421,1.421,0,0,0-1.275.083l-5.057,3.079c-.373.227-.406.558-.074.74l5.422,2.964a1.418,1.418,0,0,0,1.274-.083l5.057-3.08C1586.285-273.792,1586.319-274.123,1585.987-274.3Z" transform="translate(-1573.931 277.382)" fill="#232323"/>
          <path id="Path_855" data-name="Path 855" d="M1594.024-269.912l-5.423-2.964a1.421,1.421,0,0,0-1.274.083l-5.057,3.079c-.373.227-.405.558-.074.74l5.422,2.963a1.418,1.418,0,0,0,1.275-.082l5.057-3.079C1594.322-269.4,1594.355-269.731,1594.024-269.912Z" transform="translate(-1574.63 277)" fill="#232323"/>
          <path id="Path_856" data-name="Path 856" d="M1602.06-265.52l-5.423-2.964a1.418,1.418,0,0,0-1.274.083l-5.057,3.08c-.372.227-.405.558-.074.739l5.422,2.964a1.418,1.418,0,0,0,1.275-.082l5.058-3.08C1602.358-265.008,1602.391-265.339,1602.06-265.52Z" transform="translate(-1575.329 276.618)" fill="#232323"/>
          <path id="Path_857" data-name="Path 857" d="M1610.1-261.128l-5.422-2.964a1.42,1.42,0,0,0-1.275.083l-5.056,3.079c-.374.226-.406.558-.075.739l5.422,2.964a1.419,1.419,0,0,0,1.275-.082l5.056-3.08C1610.394-260.616,1610.427-260.948,1610.1-261.128Z" transform="translate(-1576.028 276.236)" fill="#232323"/>
          <path id="Path_858" data-name="Path 858" d="M1618.132-256.736l-5.423-2.964a1.416,1.416,0,0,0-1.274.083l-5.058,3.079c-.372.226-.405.558-.074.739l5.423,2.964a1.414,1.414,0,0,0,1.274-.083l5.056-3.079C1618.43-256.224,1618.463-256.555,1618.132-256.736Z" transform="translate(-1576.728 275.854)" fill="#232323"/>
          <path id="Path_859" data-name="Path 859" d="M1626.168-252.344l-5.422-2.964a1.418,1.418,0,0,0-1.276.083l-5.057,3.08c-.372.226-.406.558-.074.739l5.423,2.964a1.415,1.415,0,0,0,1.275-.083l5.057-3.079C1626.467-251.832,1626.5-252.164,1626.168-252.344Z" transform="translate(-1577.427 275.472)" fill="#232323"/>
          <path id="Path_860" data-name="Path 860" d="M1634.2-247.952l-5.422-2.964a1.415,1.415,0,0,0-1.274.083l-5.057,3.08c-.372.226-.406.557-.074.739l5.422,2.964a1.418,1.418,0,0,0,1.274-.083l5.057-3.079C1634.5-247.44,1634.536-247.772,1634.2-247.952Z" transform="translate(-1578.126 275.089)" fill="#232323"/>
          <path id="Path_861" data-name="Path 861" d="M1642.24-243.56l-5.422-2.964a1.418,1.418,0,0,0-1.275.082l-5.057,3.08c-.373.226-.406.557-.074.739l5.422,2.964a1.418,1.418,0,0,0,1.275-.083l5.057-3.079C1642.538-243.048,1642.571-243.38,1642.24-243.56Z" transform="translate(-1578.825 274.707)" fill="#232323"/>
          <path id="Path_862" data-name="Path 862" d="M1650.277-239.169l-5.423-2.963a1.418,1.418,0,0,0-1.275.082l-5.057,3.08c-.372.226-.406.557-.075.739l5.423,2.964a1.418,1.418,0,0,0,1.275-.083l5.057-3.079C1650.574-238.657,1650.607-238.988,1650.277-239.169Z" transform="translate(-1579.525 274.325)" fill="#232323"/>
          <path id="Path_863" data-name="Path 863" d="M1658.312-234.776l-5.422-2.964a1.421,1.421,0,0,0-1.274.083l-5.057,3.079c-.373.227-.406.558-.074.74l5.422,2.964a1.418,1.418,0,0,0,1.274-.083l5.057-3.079C1658.611-234.265,1658.644-234.6,1658.312-234.776Z" transform="translate(-1580.224 273.943)" fill="#232323"/>
          <path id="Path_864" data-name="Path 864" d="M1666.349-230.385l-5.423-2.963a1.418,1.418,0,0,0-1.275.082l-5.057,3.08c-.373.227-.406.558-.074.74l5.422,2.964a1.421,1.421,0,0,0,1.274-.083l5.057-3.079C1666.646-229.873,1666.679-230.2,1666.349-230.385Z" transform="translate(-1580.923 273.561)" fill="#232323"/>
          <path id="Path_865" data-name="Path 865" d="M1674.385-225.993l-5.423-2.964a1.418,1.418,0,0,0-1.275.083l-5.056,3.079c-.374.227-.406.558-.075.74l5.422,2.963a1.42,1.42,0,0,0,1.275-.082l5.056-3.08C1674.682-225.481,1674.716-225.812,1674.385-225.993Z" transform="translate(-1581.622 273.179)" fill="#232323"/>
          <path id="Path_866" data-name="Path 866" d="M1682.421-221.6,1677-224.565a1.42,1.42,0,0,0-1.275.083l-5.056,3.079c-.373.226-.406.558-.075.739l5.422,2.964a1.42,1.42,0,0,0,1.275-.082l5.057-3.08C1682.719-221.089,1682.752-221.42,1682.421-221.6Z" transform="translate(-1582.322 272.797)" fill="#232323"/>
          <path id="Path_867" data-name="Path 867" d="M1693.772-215.4l-8.737-4.775a1.42,1.42,0,0,0-1.276.083l-5.056,3.079c-.372.226-.406.558-.075.739l8.738,4.776a1.419,1.419,0,0,0,1.275-.083l5.056-3.08C1694.07-214.886,1694.1-215.216,1693.772-215.4Z" transform="translate(-1583.021 272.414)" fill="#232323"/>
        </g>
        <g id="Group_523" data-name="Group 523" transform="translate(14.193 11.417)">
          <path id="Path_868" data-name="Path 868" d="M1583.51-266.676l-10.719-5.858a1.418,1.418,0,0,0-1.274.083l-5.056,3.08c-.373.227-.406.558-.075.739l10.719,5.859a1.421,1.421,0,0,0,1.275-.083l5.057-3.08C1583.809-266.164,1583.842-266.495,1583.51-266.676Z" transform="translate(-1566.158 272.649)" fill="#232323"/>
          <path id="Path_869" data-name="Path 869" d="M1685.744-210.8l-10.719-5.858a1.417,1.417,0,0,0-1.274.083l-5.057,3.079c-.372.227-.405.558-.074.739l10.719,5.859a1.421,1.421,0,0,0,1.274-.083l5.057-3.08C1686.043-210.291,1686.076-210.622,1685.744-210.8Z" transform="translate(-1575.053 267.787)" fill="#232323"/>
          <path id="Path_870" data-name="Path 870" d="M1592.052-262.008l-5.423-2.964a1.418,1.418,0,0,0-1.275.083l-5.057,3.079c-.373.227-.405.558-.074.739l5.422,2.964a1.418,1.418,0,0,0,1.274-.082l5.057-3.079C1592.35-261.5,1592.383-261.827,1592.052-262.008Z" transform="translate(-1567.362 271.991)" fill="#232323"/>
          <path id="Path_871" data-name="Path 871" d="M1600.088-257.616l-5.423-2.964a1.418,1.418,0,0,0-1.275.083l-5.057,3.079c-.373.227-.406.558-.074.739l5.422,2.964a1.42,1.42,0,0,0,1.275-.082l5.056-3.08C1600.385-257.1,1600.419-257.435,1600.088-257.616Z" transform="translate(-1568.061 271.609)" fill="#232323"/>
          <path id="Path_872" data-name="Path 872" d="M1608.124-253.224l-5.422-2.964a1.42,1.42,0,0,0-1.275.083l-5.057,3.079c-.372.226-.405.558-.074.739l5.422,2.964a1.419,1.419,0,0,0,1.275-.082l5.056-3.08C1608.422-252.712,1608.455-253.044,1608.124-253.224Z" transform="translate(-1568.76 271.226)" fill="#232323"/>
          <path id="Path_873" data-name="Path 873" d="M1616.16-248.832l-5.422-2.964a1.422,1.422,0,0,0-1.275.082l-5.057,3.08c-.372.226-.405.558-.074.739l5.422,2.964a1.417,1.417,0,0,0,1.275-.083l5.057-3.079C1616.458-248.32,1616.491-248.652,1616.16-248.832Z" transform="translate(-1569.46 270.844)" fill="#232323"/>
          <path id="Path_874" data-name="Path 874" d="M1624.2-244.44l-5.422-2.964a1.42,1.42,0,0,0-1.275.082l-5.056,3.08c-.372.226-.406.558-.074.739l5.423,2.964a1.415,1.415,0,0,0,1.275-.083l5.057-3.08C1624.493-243.928,1624.527-244.26,1624.2-244.44Z" transform="translate(-1570.159 270.462)" fill="#232323"/>
          <path id="Path_875" data-name="Path 875" d="M1632.232-240.048l-5.422-2.964a1.42,1.42,0,0,0-1.275.082l-5.056,3.08c-.373.226-.406.558-.075.739l5.423,2.964a1.418,1.418,0,0,0,1.274-.083l5.057-3.079C1632.53-239.536,1632.563-239.868,1632.232-240.048Z" transform="translate(-1570.858 270.08)" fill="#232323"/>
          <path id="Path_876" data-name="Path 876" d="M1640.268-235.656l-5.422-2.964a1.418,1.418,0,0,0-1.274.082l-5.057,3.08c-.372.226-.405.557-.075.739l5.423,2.964a1.418,1.418,0,0,0,1.274-.083l5.057-3.079C1640.566-235.145,1640.6-235.476,1640.268-235.656Z" transform="translate(-1571.557 269.698)" fill="#232323"/>
          <path id="Path_877" data-name="Path 877" d="M1648.3-231.264l-5.422-2.964a1.422,1.422,0,0,0-1.275.083l-5.057,3.08c-.372.227-.405.558-.074.74l5.422,2.964a1.418,1.418,0,0,0,1.275-.083l5.057-3.079C1648.6-230.753,1648.635-231.084,1648.3-231.264Z" transform="translate(-1572.257 269.316)" fill="#232323"/>
          <path id="Path_878" data-name="Path 878" d="M1656.341-226.873l-5.423-2.964a1.421,1.421,0,0,0-1.274.083l-5.057,3.079c-.372.227-.406.558-.074.739l5.422,2.964a1.421,1.421,0,0,0,1.275-.083l5.057-3.08C1656.638-226.361,1656.671-226.692,1656.341-226.873Z" transform="translate(-1572.956 268.933)" fill="#232323"/>
          <path id="Path_879" data-name="Path 879" d="M1664.377-222.481l-5.423-2.964a1.418,1.418,0,0,0-1.275.083l-5.057,3.079c-.372.227-.405.558-.074.74l5.422,2.964a1.421,1.421,0,0,0,1.275-.083l5.057-3.079C1664.675-221.969,1664.708-222.3,1664.377-222.481Z" transform="translate(-1573.655 268.551)" fill="#232323"/>
          <path id="Path_880" data-name="Path 880" d="M1672.413-218.089l-5.422-2.964a1.42,1.42,0,0,0-1.276.083l-5.057,3.079c-.373.227-.405.558-.074.739l5.422,2.964a1.418,1.418,0,0,0,1.275-.082l5.057-3.08C1672.71-217.577,1672.744-217.908,1672.413-218.089Z" transform="translate(-1574.354 268.169)" fill="#232323"/>
        </g>
        <g id="Group_524" data-name="Group 524" transform="translate(7.096 15.739)">
          <path id="Path_881" data-name="Path 881" d="M1579.38-259.952l-14.36-7.848a1.419,1.419,0,0,0-1.275.083l-5.056,3.079c-.372.226-.406.558-.075.739l14.361,7.849a1.418,1.418,0,0,0,1.274-.083l5.057-3.079C1579.678-259.44,1579.712-259.77,1579.38-259.952Z" transform="translate(-1558.385 267.915)" fill="#232323"/>
          <path id="Path_882" data-name="Path 882" d="M1588.268-255.094l-5.422-2.964a1.421,1.421,0,0,0-1.274.083l-5.057,3.08c-.372.227-.406.558-.074.74l5.422,2.963a1.418,1.418,0,0,0,1.275-.082l5.057-3.079C1588.566-254.582,1588.6-254.913,1588.268-255.094Z" transform="translate(-1559.936 267.067)" fill="#232323"/>
          <path id="Path_883" data-name="Path 883" d="M1596.3-250.7l-5.422-2.964a1.418,1.418,0,0,0-1.275.083l-5.057,3.079c-.373.227-.405.558-.074.739l5.422,2.964a1.417,1.417,0,0,0,1.274-.082l5.057-3.08C1596.6-250.19,1596.636-250.521,1596.3-250.7Z" transform="translate(-1560.635 266.685)" fill="#232323"/>
          <path id="Path_884" data-name="Path 884" d="M1604.341-246.31l-5.423-2.964a1.418,1.418,0,0,0-1.275.083l-5.057,3.079c-.373.227-.406.558-.074.739l5.422,2.964a1.418,1.418,0,0,0,1.275-.082l5.057-3.08C1604.638-245.8,1604.672-246.129,1604.341-246.31Z" transform="translate(-1561.335 266.303)" fill="#232323"/>
          <path id="Path_885" data-name="Path 885" d="M1612.377-241.918l-5.423-2.964a1.418,1.418,0,0,0-1.275.083l-5.057,3.079c-.373.226-.405.558-.074.739l5.422,2.964a1.417,1.417,0,0,0,1.274-.082l5.057-3.08C1612.674-241.406,1612.708-241.738,1612.377-241.918Z" transform="translate(-1562.034 265.921)" fill="#232323"/>
          <path id="Path_886" data-name="Path 886" d="M1620.413-237.526l-5.423-2.964a1.415,1.415,0,0,0-1.275.083l-5.057,3.079c-.372.226-.406.558-.074.739l5.422,2.964a1.42,1.42,0,0,0,1.275-.083l5.056-3.08C1620.71-237.014,1620.744-237.346,1620.413-237.526Z" transform="translate(-1562.733 265.538)" fill="#232323"/>
          <path id="Path_887" data-name="Path 887" d="M1628.449-233.134l-5.422-2.964a1.42,1.42,0,0,0-1.276.082l-5.057,3.08c-.373.226-.405.558-.074.739l5.422,2.964a1.42,1.42,0,0,0,1.275-.083l5.056-3.08C1628.747-232.623,1628.78-232.954,1628.449-233.134Z" transform="translate(-1563.432 265.156)" fill="#232323"/>
          <path id="Path_888" data-name="Path 888" d="M1636.485-228.742l-5.422-2.964a1.418,1.418,0,0,0-1.274.082l-5.057,3.08c-.372.226-.406.557-.075.739l5.423,2.964a1.421,1.421,0,0,0,1.275-.083l5.056-3.08C1636.783-228.231,1636.816-228.562,1636.485-228.742Z" transform="translate(-1564.132 264.774)" fill="#232323"/>
          <path id="Path_889" data-name="Path 889" d="M1644.521-224.35l-5.422-2.964a1.419,1.419,0,0,0-1.275.082l-5.056,3.079c-.373.227-.406.558-.075.74l5.423,2.964a1.418,1.418,0,0,0,1.275-.083l5.057-3.079C1644.819-223.839,1644.852-224.17,1644.521-224.35Z" transform="translate(-1564.831 264.392)" fill="#232323"/>
          <path id="Path_890" data-name="Path 890" d="M1652.557-219.958l-5.422-2.964a1.423,1.423,0,0,0-1.275.083l-5.056,3.079c-.373.227-.406.558-.075.74l5.423,2.964a1.418,1.418,0,0,0,1.275-.083l5.057-3.079C1652.855-219.447,1652.888-219.778,1652.557-219.958Z" transform="translate(-1565.53 264.01)" fill="#232323"/>
          <path id="Path_891" data-name="Path 891" d="M1660.593-215.567l-5.422-2.964a1.421,1.421,0,0,0-1.275.083l-5.057,3.08c-.372.227-.406.558-.074.74l5.422,2.964a1.421,1.421,0,0,0,1.275-.083l5.057-3.08C1660.891-215.055,1660.924-215.386,1660.593-215.567Z" transform="translate(-1566.229 263.628)" fill="#232323"/>
          <path id="Path_892" data-name="Path 892" d="M1677.62-206.262l-14.413-7.877a1.421,1.421,0,0,0-1.275.083l-5.057,3.079c-.373.227-.406.558-.074.74l14.412,7.876a1.415,1.415,0,0,0,1.275-.083l5.057-3.08C1677.918-205.749,1677.951-206.08,1677.62-206.262Z" transform="translate(-1566.929 263.245)" fill="#232323"/>
        </g>
        <g id="Group_525" data-name="Group 525" transform="translate(0 20.061)">
          <path id="Path_893" data-name="Path 893" d="M1633.952-221.146l-34.771-19a1.415,1.415,0,0,0-1.274.083l-5.057,3.079c-.373.226-.406.558-.074.739l34.77,19a1.418,1.418,0,0,0,1.275-.082l5.057-3.079C1634.25-220.634,1634.283-220.964,1633.952-221.146Z" transform="translate(-1554.262 261.187)" fill="#232323"/>
          <path id="Path_894" data-name="Path 894" d="M1586.778-246.927l-5.423-2.964a1.418,1.418,0,0,0-1.275.083l-5.056,3.079c-.373.227-.406.558-.075.74l5.423,2.964a1.416,1.416,0,0,0,1.274-.083l5.057-3.08C1587.075-246.415,1587.109-246.746,1586.778-246.927Z" transform="translate(-1552.71 262.035)" fill="#232323"/>
          <path id="Path_895" data-name="Path 895" d="M1596.415-241.66l-7.024-3.839a1.419,1.419,0,0,0-1.275.083l-5.057,3.08c-.373.227-.405.558-.074.74l7.023,3.838a1.418,1.418,0,0,0,1.276-.083l5.056-3.079C1596.713-241.148,1596.747-241.479,1596.415-241.66Z" transform="translate(-1553.409 261.653)" fill="#232323"/>
          <path id="Path_896" data-name="Path 896" d="M1649.151-212.838l5.422,2.964c.332.181.3.512-.074.739l-5.057,3.079a1.418,1.418,0,0,1-1.275.083l-5.422-2.964c-.332-.181-.3-.512.074-.739l5.057-3.08A1.418,1.418,0,0,1,1649.151-212.838Z" transform="translate(-1558.609 258.811)" fill="#232323"/>
          <path id="Path_897" data-name="Path 897" d="M1639.362-218.189l7.024,3.839c.331.181.3.512-.074.739l-5.057,3.079a1.418,1.418,0,0,1-1.274.083l-7.024-3.839c-.332-.181-.3-.511.074-.739l5.057-3.079A1.418,1.418,0,0,1,1639.362-218.189Z" transform="translate(-1557.758 259.276)" fill="#232323"/>
          <path id="Path_898" data-name="Path 898" d="M1562.669-260.1l-5.422-2.964a1.418,1.418,0,0,0-1.274.082l-5.057,3.08c-.373.226-.405.558-.074.739l5.422,2.964a1.418,1.418,0,0,0,1.274-.083l5.057-3.079C1562.968-259.591,1563-259.922,1562.669-260.1Z" transform="translate(-1550.613 263.181)" fill="#232323"/>
          <path id="Path_899" data-name="Path 899" d="M1570.706-255.71l-5.423-2.964a1.417,1.417,0,0,0-1.274.082l-5.057,3.08c-.373.226-.405.557-.074.739l5.422,2.964a1.423,1.423,0,0,0,1.275-.083l5.056-3.079C1571-255.2,1571.037-255.53,1570.706-255.71Z" transform="translate(-1551.312 262.799)" fill="#232323"/>
          <path id="Path_900" data-name="Path 900" d="M1578.742-251.318l-5.423-2.964a1.42,1.42,0,0,0-1.274.083l-5.057,3.079c-.373.227-.405.558-.074.74l5.422,2.964a1.42,1.42,0,0,0,1.275-.083l5.056-3.08C1579.04-250.807,1579.073-251.138,1578.742-251.318Z" transform="translate(-1552.011 262.417)" fill="#232323"/>
          <path id="Path_901" data-name="Path 901" d="M1670-201.444l-12.812-7a1.418,1.418,0,0,0-1.274.082l-5.057,3.08c-.372.226-.405.558-.074.739l12.812,7a1.418,1.418,0,0,0,1.274-.083l5.057-3.079C1670.3-200.932,1670.331-201.263,1670-201.444Z" transform="translate(-1559.309 258.429)" fill="#232323"/>
        </g>
        <g id="Group_526" data-name="Group 526" transform="translate(35.481)">
          <path id="Path_902" data-name="Path 902" d="M1697.805-223.607l5.422,2.964a1.415,1.415,0,0,0,1.274-.083l2.514-1.531c.373-.226.406-.558.075-.739l-5.423-2.964a1.415,1.415,0,0,0-1.274.083l-2.514,1.531C1697.507-224.119,1697.474-223.788,1697.805-223.607Z" transform="translate(-1598.882 280.013)" fill="#232323"/>
          <path id="Path_903" data-name="Path 903" d="M1689.769-228l5.422,2.964a1.418,1.418,0,0,0,1.274-.082l2.514-1.532c.373-.226.406-.558.075-.739l-5.423-2.964a1.418,1.418,0,0,0-1.274.083l-2.514,1.531C1689.471-228.511,1689.437-228.18,1689.769-228Z" transform="translate(-1598.183 280.396)" fill="#232323"/>
          <path id="Path_904" data-name="Path 904" d="M1681.732-232.391l5.423,2.964a1.421,1.421,0,0,0,1.274-.083l2.515-1.532c.372-.226.406-.557.074-.739l-5.422-2.964a1.418,1.418,0,0,0-1.275.083l-2.514,1.531C1681.434-232.9,1681.4-232.572,1681.732-232.391Z" transform="translate(-1597.483 280.778)" fill="#232323"/>
          <path id="Path_905" data-name="Path 905" d="M1673.7-236.782l5.423,2.964a1.421,1.421,0,0,0,1.275-.083l2.514-1.532c.372-.226.406-.557.074-.739l-5.422-2.964a1.418,1.418,0,0,0-1.275.083l-2.514,1.531C1673.4-237.294,1673.365-236.964,1673.7-236.782Z" transform="translate(-1596.784 281.16)" fill="#232323"/>
          <path id="Path_906" data-name="Path 906" d="M1665.66-241.175l5.423,2.964a1.418,1.418,0,0,0,1.275-.083l2.514-1.531c.373-.227.405-.558.074-.74l-5.423-2.963a1.415,1.415,0,0,0-1.274.082l-2.514,1.531C1665.363-241.686,1665.329-241.356,1665.66-241.175Z" transform="translate(-1596.085 281.542)" fill="#232323"/>
          <path id="Path_907" data-name="Path 907" d="M1657.624-245.566l5.422,2.964a1.423,1.423,0,0,0,1.276-.083l2.514-1.531c.373-.227.405-.558.074-.74l-5.422-2.963a1.418,1.418,0,0,0-1.274.082l-2.514,1.531C1657.325-246.078,1657.293-245.748,1657.624-245.566Z" transform="translate(-1595.386 281.924)" fill="#232323"/>
          <path id="Path_908" data-name="Path 908" d="M1649.588-249.958l5.422,2.964a1.42,1.42,0,0,0,1.275-.083l2.514-1.531c.372-.227.405-.558.074-.739l-5.422-2.964a1.42,1.42,0,0,0-1.276.082l-2.514,1.532C1649.29-250.47,1649.257-250.139,1649.588-249.958Z" transform="translate(-1594.687 282.306)" fill="#232323"/>
          <path id="Path_909" data-name="Path 909" d="M1641.552-254.35l5.422,2.964a1.42,1.42,0,0,0,1.275-.083l2.514-1.531c.373-.227.406-.558.074-.739l-5.422-2.964a1.42,1.42,0,0,0-1.276.082l-2.514,1.532C1641.253-254.862,1641.221-254.532,1641.552-254.35Z" transform="translate(-1593.987 282.689)" fill="#232323"/>
          <path id="Path_910" data-name="Path 910" d="M1633.516-258.742l5.422,2.964a1.415,1.415,0,0,0,1.275-.083l2.514-1.531c.373-.226.406-.558.075-.739l-5.423-2.964a1.418,1.418,0,0,0-1.274.082l-2.514,1.532C1633.218-259.254,1633.185-258.923,1633.516-258.742Z" transform="translate(-1593.288 283.071)" fill="#232323"/>
          <path id="Path_911" data-name="Path 911" d="M1625.48-263.134l5.422,2.964a1.42,1.42,0,0,0,1.276-.082l2.513-1.532c.372-.226.406-.558.075-.739l-5.423-2.964a1.418,1.418,0,0,0-1.274.083l-2.514,1.531C1625.182-263.646,1625.149-263.315,1625.48-263.134Z" transform="translate(-1592.589 283.453)" fill="#232323"/>
          <path id="Path_912" data-name="Path 912" d="M1617.444-267.526l5.422,2.964a1.418,1.418,0,0,0,1.275-.082l2.514-1.532c.373-.226.406-.558.075-.739l-5.423-2.964a1.415,1.415,0,0,0-1.275.083l-2.515,1.531C1617.146-268.037,1617.112-267.707,1617.444-267.526Z" transform="translate(-1591.889 283.835)" fill="#232323"/>
          <path id="Path_913" data-name="Path 913" d="M1609.407-271.917l5.423,2.963a1.418,1.418,0,0,0,1.275-.082l2.514-1.532c.372-.226.406-.557.074-.739l-5.422-2.964a1.418,1.418,0,0,0-1.275.083l-2.514,1.531C1609.11-272.429,1609.077-272.1,1609.407-271.917Z" transform="translate(-1591.19 284.217)" fill="#232323"/>
          <path id="Path_914" data-name="Path 914" d="M1601.371-276.31l5.423,2.964a1.418,1.418,0,0,0,1.275-.082l2.514-1.531c.372-.227.406-.558.074-.74l-5.422-2.964a1.418,1.418,0,0,0-1.275.083l-2.514,1.531C1601.073-276.821,1601.04-276.491,1601.371-276.31Z" transform="translate(-1590.491 284.599)" fill="#232323"/>
          <path id="Path_915" data-name="Path 915" d="M1589.7-282.686l8.738,4.775a1.415,1.415,0,0,0,1.275-.082l2.514-1.531c.373-.227.406-.558.074-.74l-8.737-4.775a1.416,1.416,0,0,0-1.275.083l-2.515,1.531C1589.406-283.2,1589.373-282.867,1589.7-282.686Z" transform="translate(-1589.476 285.154)" fill="#232323"/>
        </g>
      </g>
    </g>
    <g id="Group_529" data-name="Group 529" transform="translate(272.449 208.334)" opacity="0.6" style="mix-blend-mode: multiply;isolation: isolate">
      <path id="Path_916" data-name="Path 916" d="M1792.724-142.647l-50.36,29.266-50.689-29.265,50.36-29.266Z" transform="translate(-1691.675 171.913)" fill="url(#linear-gradient-11)"/>
    </g>
    <g id="Group_552" data-name="Group 552" transform="translate(260.521 140.161)">
      <g id="Group_535" data-name="Group 535">
        <g id="Group_534" data-name="Group 534">
          <g id="Group_533" data-name="Group 533" style="isolation: isolate">
            <g id="Group_530" data-name="Group 530" transform="translate(50.689 29.265)">
              <path id="Path_917" data-name="Path 917" d="M1784.5-214.528l-.01,61.423-50.36,29.266.01-61.423Z" transform="translate(-1734.13 214.528)" fill="url(#linear-gradient-3)"/>
            </g>
            <g id="Group_531" data-name="Group 531" transform="translate(0 29.266)">
              <path id="Path_918" data-name="Path 918" d="M1729.309-185.263l-.01,61.423L1678.61-153.1l.01-61.423Z" transform="translate(-1678.61 214.528)" fill="url(#linear-gradient-13)"/>
            </g>
            <path id="Path_919" data-name="Path 919" d="M1681.938-147.824l45.575,26.313,0-26.185-45.575-26.313Z" transform="translate(-1678.899 240.268)" fill="#382747"/>
            <g id="Group_532" data-name="Group 532" transform="translate(0.01)">
              <path id="Path_920" data-name="Path 920" d="M1779.67-217.318l-50.36,29.266-50.689-29.265,50.36-29.266Z" transform="translate(-1678.621 246.583)" fill="url(#linear-gradient-8)"/>
            </g>
          </g>
        </g>
      </g>
      <g id="Group_544" data-name="Group 544" transform="translate(60.903 43.598)">
        <g id="Group_537" data-name="Group 537">
          <g id="Group_536" data-name="Group 536">
            <path id="Path_921" data-name="Path 921" d="M1746.945-181.1a3.589,3.589,0,0,0-1.628,2.82l.006,2.143c0,1.037.736,1.455,1.639.934l30.327-17.51a3.587,3.587,0,0,0,1.629-2.82l-.006-2.143c0-1.037-.736-1.454-1.639-.934Z" transform="translate(-1745.317 198.829)" fill="url(#linear-gradient-15)"/>
          </g>
          <path id="Path_922" data-name="Path 922" d="M1746.515-175.645l30.329-17.509a3.584,3.584,0,0,0,1.628-2.82l-.006-2.143a1.561,1.561,0,0,0-.124-.637,1.2,1.2,0,0,0-1.068.15l-30.328,17.51a3.588,3.588,0,0,0-1.629,2.82l.006,2.143a1.549,1.549,0,0,0,.124.637A1.2,1.2,0,0,0,1746.515-175.645Z" transform="translate(-1745.317 198.829)" fill="#6377a9"/>
          <path id="Path_923" data-name="Path 923" d="M1762.194-186.753a.782.782,0,0,0-.007-.081.883.883,0,0,0-.082.038l-13.752,7.939.006,1.73a.743.743,0,0,0,.007.08c.027-.012.054-.022.082-.037l13.751-7.94Z" transform="translate(-1745.581 197.786)" fill="#48cfff"/>
        </g>
        <g id="Group_539" data-name="Group 539" transform="translate(0 12.634)">
          <g id="Group_538" data-name="Group 538">
            <path id="Path_924" data-name="Path 924" d="M1746.945-167.257a3.588,3.588,0,0,0-1.628,2.82l.006,2.142c0,1.038.736,1.455,1.639.934l30.327-17.509a3.588,3.588,0,0,0,1.629-2.82l-.006-2.143c0-1.037-.736-1.455-1.639-.934Z" transform="translate(-1745.317 184.992)" fill="url(#linear-gradient-15)"/>
          </g>
          <path id="Path_925" data-name="Path 925" d="M1746.515-161.807l30.329-17.51a3.584,3.584,0,0,0,1.628-2.82l-.006-2.143a1.567,1.567,0,0,0-.124-.637,1.2,1.2,0,0,0-1.068.151l-30.328,17.51a3.586,3.586,0,0,0-1.629,2.82l.006,2.142a1.556,1.556,0,0,0,.124.638A1.2,1.2,0,0,0,1746.515-161.807Z" transform="translate(-1745.317 184.991)" fill="#6377a9"/>
          <path id="Path_926" data-name="Path 926" d="M1762.194-172.916a.742.742,0,0,0-.007-.08.871.871,0,0,0-.082.037l-13.752,7.94.006,1.729a.783.783,0,0,0,.007.081c.027-.013.054-.022.082-.038l13.751-7.939Z" transform="translate(-1745.581 183.948)" fill="#48cfff"/>
        </g>
        <g id="Group_541" data-name="Group 541" transform="translate(0 25.267)">
          <g id="Group_540" data-name="Group 540">
            <path id="Path_927" data-name="Path 927" d="M1746.945-153.42a3.589,3.589,0,0,0-1.628,2.82l.006,2.143c0,1.037.736,1.455,1.639.934l30.327-17.51a3.586,3.586,0,0,0,1.629-2.82l-.006-2.142c0-1.038-.736-1.455-1.639-.934Z" transform="translate(-1745.317 171.154)" fill="url(#linear-gradient-15)"/>
          </g>
          <path id="Path_928" data-name="Path 928" d="M1746.515-147.97l30.329-17.509a3.584,3.584,0,0,0,1.628-2.82l-.006-2.143a1.561,1.561,0,0,0-.124-.637,1.2,1.2,0,0,0-1.068.151l-30.328,17.509a3.588,3.588,0,0,0-1.629,2.82l.006,2.143a1.548,1.548,0,0,0,.124.637A1.2,1.2,0,0,0,1746.515-147.97Z" transform="translate(-1745.317 171.153)" fill="#6377a9"/>
          <path id="Path_929" data-name="Path 929" d="M1762.194-159.078a.743.743,0,0,0-.007-.08.687.687,0,0,0-.082.037l-13.752,7.939.006,1.73a.764.764,0,0,0,.007.08c.027-.012.054-.022.082-.037l13.751-7.94Z" transform="translate(-1745.581 170.11)" fill="#48cfff"/>
        </g>
        <g id="Group_543" data-name="Group 543" transform="translate(0 37.9)">
          <g id="Group_542" data-name="Group 542">
            <path id="Path_930" data-name="Path 930" d="M1746.945-139.582a3.588,3.588,0,0,0-1.628,2.82l.006,2.143c0,1.037.736,1.454,1.639.933L1777.29-151.2a3.587,3.587,0,0,0,1.629-2.82l-.006-2.143c0-1.037-.736-1.455-1.639-.934Z" transform="translate(-1745.317 157.317)" fill="url(#linear-gradient-15)"/>
          </g>
          <path id="Path_931" data-name="Path 931" d="M1746.515-134.132l30.329-17.51a3.582,3.582,0,0,0,1.628-2.82l-.006-2.142a1.569,1.569,0,0,0-.124-.638,1.2,1.2,0,0,0-1.068.151l-30.328,17.51a3.586,3.586,0,0,0-1.629,2.82l.006,2.143a1.555,1.555,0,0,0,.124.637A1.2,1.2,0,0,0,1746.515-134.132Z" transform="translate(-1745.317 157.316)" fill="#6377a9"/>
          <path id="Path_932" data-name="Path 932" d="M1762.194-145.24a.759.759,0,0,0-.007-.081.7.7,0,0,0-.082.038l-13.752,7.939.006,1.729a.783.783,0,0,0,.007.081c.027-.013.054-.022.082-.038l13.751-7.939Z" transform="translate(-1745.581 156.273)" fill="#48cfff"/>
        </g>
      </g>
      <g id="Group_551" data-name="Group 551" transform="translate(21.161 4.54)">
        <ellipse id="Ellipse_27" data-name="Ellipse 27" cx="28.627" cy="15.965" rx="28.627" ry="15.965" transform="translate(0 8.922)" fill="#94a3c0" opacity="0.32" style="mix-blend-mode: multiply;isolation: isolate"/>
        <g id="Group_550" data-name="Group 550" transform="translate(3.145)">
          <g id="Group_548" data-name="Group 548" transform="translate(6.467)">
            <g id="Group_545" data-name="Group 545" transform="translate(18.833 3.582)">
              <path id="Path_933" data-name="Path 933" d="M1747.824-237.686l-.009,3.277-14.871,8.642.009-3.278Z" transform="translate(-1732.944 237.686)" fill="#396caa"/>
            </g>
            <g id="Group_546" data-name="Group 546" transform="translate(0 6.676)">
              <path id="Path_934" data-name="Path 934" d="M1731.158-228.749l-.009,3.278-18.833-5.549.009-3.278Z" transform="translate(-1712.315 234.298)" fill="#33b4ff"/>
            </g>
            <g id="Group_547" data-name="Group 547" transform="translate(0.01)">
              <path id="Path_935" data-name="Path 935" d="M1746.031-238.027l-14.872,8.641-18.833-5.548c5.257-6.014,17.95-8.406,28.351-5.341A23.39,23.39,0,0,1,1746.031-238.027Z" transform="translate(-1712.326 241.61)" fill="url(#linear-gradient-19)"/>
            </g>
          </g>
          <path id="Path_936" data-name="Path 936" d="M1756.333-220.951c-.235,4.27-3.493,7.5-6.92,9.639a32.064,32.064,0,0,1-12.473,4.2,43.679,43.679,0,0,1-12.947-.138,31.671,31.671,0,0,1-12.266-4.468c-3.333-2.17-6.5-5.514-6.484-9.744l-.008,2.666a14.811,14.811,0,0,0,.162,2.974c.7,3.5,3.443,6.2,6.328,8.073a31.589,31.589,0,0,0,12,4.421,43.538,43.538,0,0,0,12.857.226,33.083,33.083,0,0,0,12.451-4.019c3.387-1.991,6.653-5.069,7.221-9.146a20.468,20.468,0,0,0,.094-2.75q0-1.191.006-2.383C1756.353-221.25,1756.342-221.1,1756.333-220.951Z" transform="translate(-1705.232 239.857)" fill="#265497"/>
          <g id="Group_549" data-name="Group 549" transform="translate(0.011 7.935)">
            <path id="Path_937" data-name="Path 937" d="M1748.823-232.919c10,5.771,10.047,15.128.116,20.9s-26.082,5.771-36.078,0c-8-4.617-9.874-11.341-4.789-17.159l22.769,6.71Z" transform="translate(-1705.244 232.919)" fill="url(#linear-gradient-20)"/>
          </g>
        </g>
      </g>
    </g>
    <g id="Group_557" data-name="Group 557" transform="translate(0 96.509)">
      <g id="Group_553" data-name="Group 553" transform="translate(0.012)">
        <path id="Path_938" data-name="Path 938" d="M1495.835-272.733c1.768,1.021,1.773,2.671.021,3.689l-58.688,34.105a7.008,7.008,0,0,1-6.37,0l-36.2-20.9c-1.764-1.018-1.777-2.669-.02-3.689l58.688-34.106a7.019,7.019,0,0,1,6.37,0Z" transform="translate(-1393.273 294.395)" fill="url(#linear-gradient-21)"/>
      </g>
      <g id="Group_556" data-name="Group 556" transform="translate(0 3.248)">
        <path id="Path_939" data-name="Path 939" d="M1497.153-268.5c0,.048-.007.094-.016.142s-.018.077-.028.115-.023.09-.039.135-.03.072-.046.109-.041.094-.066.141-.04.067-.061.1c-.032.052-.067.1-.1.157-.023.03-.048.06-.073.09a2.462,2.462,0,0,1-.191.205c-.025.025-.048.049-.075.074-.044.038-.091.076-.138.113s-.082.068-.127.1-.108.072-.163.109-.11.074-.171.11L1437.167-232.7a4.809,4.809,0,0,1-.629.3c-.058.024-.117.046-.176.067-.136.049-.28.089-.423.13s-.3.08-.451.112c-.18.036-.361.07-.545.094-.046.005-.09.014-.135.018a7.431,7.431,0,0,1-.757.042h-.12c-.25,0-.5-.016-.748-.042l-.111-.012q-.368-.045-.723-.124l-.129-.032a5.939,5.939,0,0,1-.626-.191c-.036-.013-.074-.023-.11-.037a5.069,5.069,0,0,1-.687-.325l-36.2-20.9a2.608,2.608,0,0,1-1.248-1.356,1.594,1.594,0,0,1-.082-.5l-.012,2.077a1.461,1.461,0,0,0,.02.252,2.414,2.414,0,0,0,1.31,1.606l36.194,20.9a4.9,4.9,0,0,0,.653.312l.035.013c.036.014.074.024.109.037.132.048.265.1.4.136.073.021.149.036.224.055l.129.032c.04.008.078.02.118.028.147.03.3.057.447.078.052.007.107.012.16.018l.111.012c.056.006.11.015.166.019.147.012.295.02.443.024.047,0,.092,0,.139,0h.121c.067,0,.134,0,.2,0q.25-.008.5-.033l.057-.008c.045,0,.089-.013.133-.018.128-.016.257-.031.382-.054.057-.01.108-.029.163-.04.154-.032.3-.071.451-.112.078-.022.162-.035.238-.059s.122-.047.184-.07.119-.043.176-.067a4.933,4.933,0,0,0,.629-.3l58.688-34.105.056-.033c.041-.025.077-.052.117-.078s.11-.071.161-.108.085-.067.126-.1.1-.076.139-.114l.028-.024c.017-.016.03-.034.046-.05a2.457,2.457,0,0,0,.191-.205c.013-.015.03-.029.042-.045s.019-.03.031-.046c.038-.052.073-.105.106-.158.014-.022.032-.043.045-.066s.009-.023.015-.034c.025-.047.046-.093.066-.14.012-.027.028-.055.038-.082,0-.009,0-.019.008-.028.016-.045.027-.089.038-.134s.02-.06.027-.091a.131.131,0,0,1,0-.024c.008-.047.012-.095.015-.142,0-.03.01-.061.011-.092v-.039l.012-2.077A1.273,1.273,0,0,1,1497.153-268.5Z" transform="translate(-1393.26 288.905)" fill="#464647"/>
        <g id="Group_554" data-name="Group 554" transform="translate(12.931)">
          <path id="Path_940" data-name="Path 940" d="M1491.721-271.767a.627.627,0,0,1,0,1.186l-49.219,28.6a2.258,2.258,0,0,1-2.048,0l-32.6-18.825a.628.628,0,0,1-.007-1.189l49.219-28.6a2.265,2.265,0,0,1,2.052,0Z" transform="translate(-1407.424 290.837)" fill="#126087"/>
        </g>
        <g id="Group_555" data-name="Group 555" transform="translate(19.666 39.736)">
          <path id="Path_941" data-name="Path 941" d="M1423.29-244.181a.689.689,0,0,1,.007,1.3l-.816.474a2.48,2.48,0,0,1-2.252,0l-4.959-2.863a.689.689,0,0,1-.006-1.3l.815-.475a2.486,2.486,0,0,1,2.252,0Z" transform="translate(-1414.8 247.314)" fill="#232323"/>
        </g>
      </g>
    </g>
    <g id="Group_578" data-name="Group 578" transform="translate(111.714 13.374)">
      <g id="Group_561" data-name="Group 561" transform="translate(46.346 70.582)" style="isolation: isolate">
        <g id="Group_558" data-name="Group 558" transform="translate(0 4.501)">
          <path id="Path_942" data-name="Path 942" d="M1569.507-292.1l-3.1-1.8-.026-9.316,3.1,1.8Z" transform="translate(-1566.383 303.214)" fill="#33b4ff"/>
        </g>
        <g id="Group_559" data-name="Group 559">
          <path id="Path_943" data-name="Path 943" d="M1569.481-301.842l-3.1-1.8,7.8-4.5,3.1,1.8Z" transform="translate(-1566.383 308.144)" fill="#5c82ff"/>
        </g>
        <g id="Group_560" data-name="Group 560" transform="translate(3.098 1.8)">
          <path id="Path_944" data-name="Path 944" d="M1577.572-306.172l.027,9.316-7.8,4.5-.026-9.316Z" transform="translate(-1569.776 306.172)" fill="#396caa"/>
        </g>
      </g>
      <g id="Group_565" data-name="Group 565" transform="translate(20.416 52.938)" style="isolation: isolate">
        <g id="Group_562" data-name="Group 562" transform="translate(0 19.442)">
          <path id="Path_945" data-name="Path 945" d="M1541.107-295.059l-3.1-1.8-.026-9.316,3.1,1.8Z" transform="translate(-1537.983 306.175)" fill="#33b4ff"/>
        </g>
        <g id="Group_563" data-name="Group 563">
          <path id="Path_946" data-name="Path 946" d="M1541.081-306.228l-3.1-1.8,33.675-19.442,3.1,1.8Z" transform="translate(-1537.983 327.47)" fill="#5c82ff"/>
        </g>
        <g id="Group_564" data-name="Group 564" transform="translate(3.098 1.8)">
          <path id="Path_947" data-name="Path 947" d="M1575.05-325.5l.027,9.316L1541.4-296.74l-.026-9.316Z" transform="translate(-1541.376 325.498)" fill="#396caa"/>
        </g>
      </g>
      <g id="Group_569" data-name="Group 569" transform="translate(35.644 35.293)" style="isolation: isolate">
        <g id="Group_566" data-name="Group 566" transform="translate(0 10.622)">
          <path id="Path_948" data-name="Path 948" d="M1557.785-324.046l-3.1-1.8-.026-9.316,3.1,1.8Z" transform="translate(-1554.661 335.162)" fill="#33b4ff"/>
        </g>
        <g id="Group_567" data-name="Group 567">
          <path id="Path_949" data-name="Path 949" d="M1557.759-334.374l-3.1-1.8,18.4-10.622,3.1,1.8Z" transform="translate(-1554.661 346.797)" fill="#5c82ff"/>
        </g>
        <g id="Group_568" data-name="Group 568" transform="translate(3.098 1.8)">
          <path id="Path_950" data-name="Path 950" d="M1576.452-344.825l.027,9.316-18.4,10.622-.026-9.316Z" transform="translate(-1558.054 344.825)" fill="#396caa"/>
        </g>
      </g>
      <g id="Group_573" data-name="Group 573" transform="translate(10.338 17.648)" style="isolation: isolate">
        <g id="Group_570" data-name="Group 570" transform="translate(0 25.203)">
          <path id="Path_951" data-name="Path 951" d="M1530.067-327.4l-3.1-1.8-.026-9.316,3.1,1.8Z" transform="translate(-1526.943 338.517)" fill="#33b4ff"/>
        </g>
        <g id="Group_571" data-name="Group 571">
          <path id="Path_952" data-name="Path 952" d="M1530.041-339.119l-3.1-1.8,43.653-25.2,3.1,1.8Z" transform="translate(-1526.943 366.123)" fill="#5c82ff"/>
        </g>
        <g id="Group_572" data-name="Group 572" transform="translate(3.098 1.8)">
          <path id="Path_953" data-name="Path 953" d="M1573.99-364.151l.027,9.316-43.654,25.2-.026-9.316Z" transform="translate(-1530.336 364.151)" fill="#396caa"/>
        </g>
      </g>
      <g id="Group_577" data-name="Group 577" style="isolation: isolate">
        <g id="Group_574" data-name="Group 574" transform="translate(0 31.143)">
          <path id="Path_954" data-name="Path 954" d="M1518.745-340.226l-3.1-1.8-.026-9.316,3.1,1.8Z" transform="translate(-1515.621 351.342)" fill="#33b4ff"/>
        </g>
        <g id="Group_575" data-name="Group 575">
          <path id="Path_955" data-name="Path 955" d="M1518.718-352.51l-3.1-1.8,53.941-31.143,3.1,1.8Z" transform="translate(-1515.621 385.453)" fill="#5c82ff"/>
        </g>
        <g id="Group_576" data-name="Group 576" transform="translate(3.098 1.8)">
          <path id="Path_956" data-name="Path 956" d="M1572.954-383.481l.027,9.316-53.941,31.143-.027-9.316Z" transform="translate(-1519.013 383.481)" fill="#396caa"/>
        </g>
      </g>
    </g>
    <g id="Group_581" data-name="Group 581" transform="translate(231.555 61.558)">
      <g id="Group_579" data-name="Group 579">
        <path id="Path_957" data-name="Path 957" d="M1670.975-329.395c-9.578-5.53-18.645-4.118-22.39,4.6-4.688,10.9.642,29.25,11.927,41.944l2.617-6.1c-7.644-8.919-11.2-21.525-7.961-29.059,2.643-6.144,9.032-7.137,15.785-3.238a27.483,27.483,0,0,1,4.953,3.72l2.619-6.1A39.585,39.585,0,0,0,1670.975-329.395Z" transform="translate(-1646.883 332.676)" fill="#fffaf0"/>
      </g>
      <g id="Group_580" data-name="Group 580" transform="translate(13.629 9.054)">
        <path id="Path_958" data-name="Path 958" d="M1679.823-322.759l-2.616,6.09c.412.385.825.788,1.231,1.21,8.689,8.953,12.933,22.706,9.485,30.729-.127.286-.26.563-.4.835-.05.1-.1.192-.161.287-2.513,4.424-7.328,5.5-12.667,3.364a19.561,19.561,0,0,1-2.536-1.241c-.228-.131-.457-.269-.686-.412-.417-.259-.736-.476-1.048-.688l-.143-.1c-.686-.485-1.366-1.01-2.052-1.6-.082-.073-.17-.149-.258-.225q-.379-.333-.757-.684c-.094-.085-.186-.171-.28-.262-.328-.31-.657-.633-.981-.965-.526-.544-1.03-1.1-1.524-1.669l-2.618,6.1c.5.56,1,1.116,1.524,1.651q.7.716,1.4,1.379c.133.127.264.254.4.376.357.332.719.656,1.08.971.12.108.241.215.362.316.97.826,1.947,1.587,2.918,2.267.077.057.154.108.231.158.445.314.889.6,1.328.881l.153.095q.454.282.906.543,1.078.622,2.146,1.13c.538.255,1.043.47,1.548.673,8.146,3.231,15.436,1.191,18.7-6.4,4.893-11.379-1.133-30.9-13.452-43.6Q1680.44-322.172,1679.823-322.759Z" transform="translate(-1661.811 322.759)" fill="#574baa"/>
      </g>
    </g>
    <g id="Group_599" data-name="Group 599" transform="translate(195.199 27.957)">
      <g id="Group_583" data-name="Group 583">
        <g id="Group_582" data-name="Group 582">
          <path id="Path_959" data-name="Path 959" d="M1607.063-369.48v57.215l28.6,16.515v-57.215Z" transform="translate(-1607.063 369.48)" fill="#fff"/>
        </g>
      </g>
      <g id="Group_584" data-name="Group 584" transform="translate(4.052 8.277)">
        <path id="Path_960" data-name="Path 960" d="M1611.5-360.414v11.443l5.721,3.3v-11.443Z" transform="translate(-1611.501 360.414)" fill="#dcdcdc"/>
      </g>
      <g id="Group_589" data-name="Group 589" transform="translate(4.631 39.265)">
        <g id="Group_585" data-name="Group 585">
          <path id="Path_961" data-name="Path 961" d="M1616.89-323.821v.76a.582.582,0,0,1-.873.5l-3.591-2.068a.582.582,0,0,1-.291-.5v-.76a.582.582,0,0,1,.873-.5l3.59,2.068A.585.585,0,0,1,1616.89-323.821Z" transform="translate(-1612.135 326.472)" fill="#dcdcdc"/>
        </g>
        <g id="Group_586" data-name="Group 586" transform="translate(0.001 3.78)">
          <path id="Path_962" data-name="Path 962" d="M1628.258-313.173v.761a.582.582,0,0,1-.872.5l-14.958-8.576a.58.58,0,0,1-.293-.5v-.761a.582.582,0,0,1,.871-.5l14.959,8.576A.581.581,0,0,1,1628.258-313.173Z" transform="translate(-1612.135 322.332)" fill="#dcdcdc"/>
        </g>
        <g id="Group_587" data-name="Group 587" transform="translate(0.003 11.346)" opacity="0.53">
          <path id="Path_963" data-name="Path 963" d="M1622.093-308.422v.761a.581.581,0,0,1-.871.5l-8.791-5.04a.58.58,0,0,1-.293-.5v-.761a.582.582,0,0,1,.871-.5l8.792,5.04A.583.583,0,0,1,1622.093-308.422Z" transform="translate(-1612.138 314.045)" fill="#dcdcdc"/>
        </g>
        <g id="Group_588" data-name="Group 588" transform="translate(0.002 7.564)">
          <path id="Path_964" data-name="Path 964" d="M1625.94-310.359v.761a.582.582,0,0,1-.872.5l-12.639-7.245a.583.583,0,0,1-.292-.5v-.761a.581.581,0,0,1,.871-.5l12.64,7.245A.581.581,0,0,1,1625.94-310.359Z" transform="translate(-1612.137 318.188)" fill="#dcdcdc" opacity="0.3"/>
        </g>
      </g>
      <path id="Path_965" data-name="Path 965" d="M1611.762-333.245l1.907-2.86,1.311,1.073,2.979-5.125,2.622,1.669,1.669-.358,4.052-5.721,1.907,1.549,3.695-3.575" transform="translate(-1607.472 367.488)" fill="none" stroke="#574baa" stroke-miterlimit="10" stroke-width="0.5"/>
      <g id="Group_592" data-name="Group 592" transform="translate(23.125 19.682)">
        <g id="Group_590" data-name="Group 590">
          <path id="Path_966" data-name="Path 966" d="M1633.587-347.759c-.657-.379-1.193-.074-1.2.682a2.614,2.614,0,0,0,1.188,2.053c.657.38,1.191.076,1.192-.679A2.617,2.617,0,0,0,1633.587-347.759Z" transform="translate(-1632.392 347.922)" fill="#ff5668"/>
        </g>
        <g id="Group_591" data-name="Group 591" transform="translate(0.652 0.839)">
          <path id="Path_967" data-name="Path 967" d="M1633.646-346.93c-.3-.172-.539-.033-.54.308a1.185,1.185,0,0,0,.537.929c.3.171.539.034.54-.308A1.181,1.181,0,0,0,1633.646-346.93Z" transform="translate(-1633.106 347.004)" fill="#ff5668"/>
        </g>
      </g>
      <g id="Group_595" data-name="Group 595" transform="translate(9.061 25.897)">
        <g id="Group_593" data-name="Group 593">
          <path id="Path_968" data-name="Path 968" d="M1618.183-340.952c-.657-.379-1.193-.074-1.2.681a2.616,2.616,0,0,0,1.188,2.054c.657.379,1.191.076,1.192-.679A2.613,2.613,0,0,0,1618.183-340.952Z" transform="translate(-1616.987 341.114)" fill="#5c82ff"/>
        </g>
        <g id="Group_594" data-name="Group 594" transform="translate(0.653 0.839)">
          <path id="Path_969" data-name="Path 969" d="M1618.242-340.122c-.3-.172-.54-.034-.54.308a1.18,1.18,0,0,0,.537.929c.3.172.538.035.539-.307A1.182,1.182,0,0,0,1618.242-340.122Z" transform="translate(-1617.702 340.196)" fill="#5c82ff"/>
        </g>
      </g>
      <g id="Group_598" data-name="Group 598" transform="translate(13.233 34.415)">
        <g id="Group_596" data-name="Group 596">
          <path id="Path_970" data-name="Path 970" d="M1626.04-331.174c-1.782-1.029-3.469-.766-4.166.855-.872,2.028.119,5.442,2.219,7.8l.487-1.134c-1.422-1.659-2.084-4-1.481-5.406.492-1.143,1.68-1.327,2.936-.6a5.176,5.176,0,0,1,.922.692l.487-1.134A7.376,7.376,0,0,0,1626.04-331.174Z" transform="translate(-1621.557 331.785)" fill="#dcdcdc"/>
        </g>
        <g id="Group_597" data-name="Group 597" transform="translate(2.536 1.684)">
          <path id="Path_971" data-name="Path 971" d="M1627.686-329.94l-.487,1.133c.077.071.153.146.229.225,1.617,1.666,2.406,4.224,1.765,5.717-.024.053-.048.105-.075.155l-.03.053a1.749,1.749,0,0,1-2.356.626,3.509,3.509,0,0,1-.472-.231l-.128-.077c-.078-.048-.137-.089-.194-.128l-.027-.018c-.128-.09-.255-.188-.382-.3l-.047-.041c-.048-.041-.094-.084-.141-.128-.017-.016-.035-.031-.052-.048-.061-.057-.122-.118-.183-.18-.1-.1-.192-.2-.284-.31l-.487,1.134c.093.1.186.208.283.308s.173.173.261.256c.025.024.049.047.075.07.067.062.133.122.2.181l.068.059c.181.153.362.295.543.421.014.011.028.02.043.03.082.058.165.111.247.163l.029.018c.056.035.112.068.168.1.134.078.266.147.4.21.1.048.194.088.289.126,1.516.6,2.871.221,3.479-1.19.909-2.116-.211-5.748-2.5-8.11C1627.839-329.792,1627.762-329.867,1627.686-329.94Z" transform="translate(-1624.335 329.94)" fill="#a6a8ab"/>
        </g>
      </g>
    </g>
    <g id="Group_612" data-name="Group 612" transform="translate(33.659 89.496)">
      <g id="Group_603" data-name="Group 603" transform="translate(26.288 7.449)" style="isolation: isolate">
        <g id="Group_600" data-name="Group 600" transform="translate(0 4.011)">
          <path id="Path_972" data-name="Path 972" d="M1466.936-266.783l-7.964-4.628-.051-18.113,7.964,4.628Z" transform="translate(-1458.921 289.524)" fill="#33b4ff"/>
        </g>
        <g id="Group_601" data-name="Group 601">
          <path id="Path_973" data-name="Path 973" d="M1466.884-285.278l-7.964-4.628,6.947-4.011,7.964,4.628Z" transform="translate(-1458.921 293.918)" fill="#5c82ff"/>
        </g>
        <g id="Group_602" data-name="Group 602" transform="translate(7.964 4.628)">
          <path id="Path_974" data-name="Path 974" d="M1474.591-288.848l.051,18.113-6.948,4.011-.051-18.113Z" transform="translate(-1467.644 288.848)" fill="#396caa"/>
        </g>
      </g>
      <g id="Group_607" data-name="Group 607" transform="translate(13.087)" style="isolation: isolate">
        <g id="Group_604" data-name="Group 604" transform="translate(0 4.011)">
          <path id="Path_975" data-name="Path 975" d="M1452.518-259.9l-7.964-4.628-.094-33.159,7.964,4.628Z" transform="translate(-1444.461 297.683)" fill="#33b4ff"/>
        </g>
        <g id="Group_605" data-name="Group 605">
          <path id="Path_976" data-name="Path 976" d="M1452.425-293.437l-7.964-4.628,6.948-4.011,7.964,4.628Z" transform="translate(-1444.461 302.076)" fill="#5c82ff"/>
        </g>
        <g id="Group_606" data-name="Group 606" transform="translate(7.964 4.628)">
          <path id="Path_977" data-name="Path 977" d="M1460.131-297.007l.094,33.159-6.948,4.011L1453.183-293Z" transform="translate(-1453.183 297.007)" fill="#396caa"/>
        </g>
      </g>
      <g id="Group_611" data-name="Group 611" transform="translate(0 33.08)" style="isolation: isolate">
        <g id="Group_608" data-name="Group 608" transform="translate(0 4.011)">
          <path id="Path_978" data-name="Path 978" d="M1438.112-249.145l-7.964-4.628-.022-7.676,7.964,4.628Z" transform="translate(-1430.127 261.45)" fill="#33b4ff"/>
        </g>
        <g id="Group_609" data-name="Group 609">
          <path id="Path_979" data-name="Path 979" d="M1438.091-257.2l-7.964-4.628,6.947-4.011,7.964,4.628Z" transform="translate(-1430.127 265.843)" fill="#5c82ff"/>
        </g>
        <g id="Group_610" data-name="Group 610" transform="translate(7.964 4.628)">
          <path id="Path_980" data-name="Path 980" d="M1445.8-260.774l.022,7.676-6.947,4.011-.022-7.676Z" transform="translate(-1438.85 260.774)" fill="#396caa"/>
        </g>
      </g>
    </g>
    <g id="Group_615" data-name="Group 615" transform="translate(309.243 74.734)">
      <path id="Path_981" data-name="Path 981" d="M1793.082-243.026l-.993-42.415a.414.414,0,0,0-.215-.352l-59.286-32.4a.413.413,0,0,0-.612.372l.993,42.414a.415.415,0,0,0,.216.353l59.287,32.4A.413.413,0,0,0,1793.082-243.026Z" transform="translate(-1731.976 318.245)" fill="#206187"/>
      <g id="Group_614" data-name="Group 614" transform="translate(7.699 32.812)">
        <g id="Group_613" data-name="Group 613">
          <path id="Path_982" data-name="Path 982" d="M1779.8-271.6a6.527,6.527,0,0,1,.8.552c4.3,3.425,4.659,14.836,4.678,15.436l-44.876-25.909c2.668,1.3,3.287.013,4.518-.7a.936.936,0,0,1,.963.108c1.221.7,2.87,3.108,4.771,4.387.063.043.124.081.184.116a2.347,2.347,0,0,0,2.464-.173,2.573,2.573,0,0,1,2.723-.025,6.455,6.455,0,0,1,1.4,1.156,10.384,10.384,0,0,0,2.041,1.8c1.4.806,1.57-.624,3.089-1.663,1.085-.746,2.4-.57,3.907.3a21.839,21.839,0,0,1,4.5,3.845,4.867,4.867,0,0,0,1.082.886c1.309.756,2.421.248,3.615-.211A4.3,4.3,0,0,1,1779.8-271.6Z" transform="translate(-1740.409 282.306)" fill="#fff"/>
        </g>
      </g>
    </g>
    <g id="Group_619" data-name="Group 619" transform="translate(217.815 220.902)">
      <g id="Group_618" data-name="Group 618" style="isolation: isolate">
        <g id="Group_616" data-name="Group 616" transform="translate(4.92)">
          <path id="Path_983" data-name="Path 983" d="M1683.1-107.948l-45.872-26.658L1678-158.146l45.872,26.658Z" transform="translate(-1637.223 158.146)" fill="#848484"/>
        </g>
        <path id="Path_984" data-name="Path 984" d="M1637.223-133.928,1683.1-107.27l28.456-16.429-45.872-26.658Z" transform="translate(-1632.303 157.469)" fill="#464647"/>
        <path id="Path_985" data-name="Path 985" d="M1637.223-133.036l45.872,26.658,12.256-7.076-45.872-26.658Z" transform="translate(-1632.303 156.577)" fill="#848484"/>
        <path id="Path_986" data-name="Path 986" d="M1677.706-97.181a7.527,7.527,0,0,1,.091-1.131c.009-.058.02-.119.03-.178a9.258,9.258,0,0,1,.249-1.076c.01-.034.02-.067.031-.1a11,11,0,0,1,.429-1.165l.01-.022a12.2,12.2,0,0,1,.583-1.153l.017-.031a11.975,11.975,0,0,1,.689-1.054l.068-.093a10.967,10.967,0,0,1,.721-.867c.054-.059.109-.117.164-.174.2-.208.41-.4.622-.582.1-.084.189-.173.287-.252a7.618,7.618,0,0,1,.927-.644l-45.872-26.657a7.62,7.62,0,0,0-.928.644c-.1.078-.188.167-.284.25-.146.127-.3.245-.437.383-.064.063-.124.133-.187.2s-.109.115-.163.174-.128.131-.188.2q-.207.237-.4.488c-.046.058-.088.12-.132.179l-.069.092c-.042.058-.087.115-.128.174q-.148.21-.286.426c-.088.137-.173.277-.256.417l-.019.036-.019.034c-.065.115-.131.23-.193.347-.073.139-.145.279-.213.42s-.12.257-.176.385l-.009.021-.011.022c-.063.147-.124.295-.181.444s-.115.31-.167.466c-.026.078-.047.156-.072.234-.011.034-.021.067-.031.1-.017.057-.036.112-.051.169q-.079.283-.139.567c-.025.114-.039.227-.059.341-.01.059-.021.119-.03.178s-.021.11-.028.164a7.226,7.226,0,0,0-.063.966,4.692,4.692,0,0,0,.389,1.974,2.634,2.634,0,0,0,1.051,1.192l45.872,26.658A3.454,3.454,0,0,1,1677.706-97.181Z" transform="translate(-1631.834 155.903)" fill="#464647"/>
        <g id="Group_617" data-name="Group 617" transform="translate(45.872 26.658)">
          <path id="Path_987" data-name="Path 987" d="M1727.772-128.948l.032,11.346-40.774,23.54c-2.725,1.574-4.944.31-4.952-2.822a10.845,10.845,0,0,1,4.92-8.524Z" transform="translate(-1682.078 128.948)" fill="#382747"/>
        </g>
      </g>
    </g>
    <g id="Group_623" data-name="Group 623" transform="translate(244.458 227.418)">
      <g id="Group_620" data-name="Group 620" transform="translate(0 5.85)">
        <ellipse id="Ellipse_28" data-name="Ellipse 28" cx="22.329" cy="12.129" rx="22.329" ry="12.129" fill="#94a3c0" opacity="0.32" style="mix-blend-mode: multiply;isolation: isolate"/>
      </g>
      <g id="Group_622" data-name="Group 622" transform="translate(2.258)">
        <path id="Path_988" data-name="Path 988" d="M1703.688-137.852c-.157,2.863-2.1,5.225-4.336,6.849a24.2,24.2,0,0,1-9.66,3.844,32.7,32.7,0,0,1-10.8.2,25.7,25.7,0,0,1-10-3.4c-2.775-1.732-5.391-4.483-5.381-7.958a13.185,13.185,0,0,0,.528,5.139c1.156,2.852,3.821,4.853,6.5,6.182a27.915,27.915,0,0,0,9.406,2.612,31.413,31.413,0,0,0,9.926-.358c4.34-.944,8.954-2.482,11.885-6.032a8.037,8.037,0,0,0,1.925-4.477c.067-.98.028-1.97.032-2.952C1703.7-138.087,1703.7-137.969,1703.688-137.852Z" transform="translate(-1663.489 149.905)" fill="#396caa"/>
        <g id="Group_621" data-name="Group 621" transform="translate(0.015)">
          <path id="Path_989" data-name="Path 989" d="M1697.77-147.6c7.875,4.548,7.917,11.916.092,16.464s-20.547,4.547-28.422,0-7.917-11.916-.093-16.464S1689.894-152.146,1697.77-147.6Z" transform="translate(-1663.506 151.009)" fill="url(#linear-gradient-19)"/>
        </g>
        <path id="Path_990" data-name="Path 990" d="M1696.107-146.331c6.806,3.93,6.843,10.3.08,14.229s-17.757,3.929-24.564,0-6.842-10.3-.08-14.229S1689.3-150.26,1696.107-146.331Z" transform="translate(-1663.751 150.858)" fill="#396caa"/>
        <path id="Path_991" data-name="Path 991" d="M1696.11-145.016c-6.806-3.93-17.8-3.93-24.564,0-3.106,1.8-4.774,4.125-5.013,6.487.246,2.38,1.943,4.722,5.094,6.542,6.806,3.93,17.8,3.93,24.564,0,3.106-1.806,4.774-4.126,5.014-6.488C1700.958-140.855,1699.261-143.2,1696.11-145.016Z" transform="translate(-1663.755 150.744)" fill="url(#linear-gradient-19)"/>
      </g>
    </g>
  </g>
</svg>
