<svg xmlns="http://www.w3.org/2000/svg" xmlns:xlink="http://www.w3.org/1999/xlink" width="373.498" height="283.123"><defs><linearGradient id="b" x1=".505" y1=".148" x2="-.017" y2=".936" gradientUnits="objectBoundingBox"><stop offset="0" stop-color="#d7e9f2"/><stop offset=".955" stop-color="#a4bfec"/><stop offset="1" stop-color="#a2bdec"/></linearGradient><linearGradient id="a" x1=".472" y1=".057" x2=".551" y2="1.308" gradientUnits="objectBoundingBox"><stop offset="0" stop-color="#a2bdec"/><stop offset=".045" stop-color="#a4bfec"/><stop offset="1" stop-color="#d7e9f2"/></linearGradient><linearGradient id="e" x1=".5" y1=".542" x2=".5" y2="-.399" xlink:href="#a"/><linearGradient id="c" x1=".174" y1="-1.382" x2=".656" y2="1.401" gradientUnits="objectBoundingBox"><stop offset="0" stop-color="#f2ffff"/><stop offset=".196" stop-color="#ecfbfc"/><stop offset=".448" stop-color="#dceff6"/><stop offset=".728" stop-color="#c2dded"/><stop offset="1" stop-color="#a2c7e1"/></linearGradient><linearGradient id="f" x1=".472" y1=".057" x2=".551" y2="1.308" gradientUnits="objectBoundingBox"><stop offset="0" stop-color="#d3e6f0"/><stop offset=".201" stop-color="#dcedf4"/><stop offset=".649" stop-color="#ecfafc"/><stop offset="1" stop-color="#f2ffff"/></linearGradient><linearGradient id="d" x1=".472" y1=".057" x2=".551" y2="1.308" gradientUnits="objectBoundingBox"><stop offset="0" stop-color="#faffff"/><stop offset=".305" stop-color="#f4fbfc"/><stop offset=".694" stop-color="#e4f1f6"/><stop offset="1" stop-color="#d3e6f0"/></linearGradient><linearGradient id="g" x1=".512" y1=".268" x2=".471" y2="1.034" gradientUnits="objectBoundingBox"><stop offset="0" stop-color="#b1d9df"/><stop offset=".704" stop-color="#eaeeee"/></linearGradient><linearGradient id="h" x1=".875" y1=".108" x2=".095" y2=".923" gradientUnits="objectBoundingBox"><stop offset="0" stop-color="#c5e4ff"/><stop offset=".704" stop-color="#eaeeee"/></linearGradient><linearGradient id="i" x1=".684" y1=".637" x2="-.151" y2=".018" xlink:href="#b"/><linearGradient id="j" x1="-.231" y1="-1.032" x2=".85" y2="1.234" xlink:href="#c"/><linearGradient id="k" x1="0" y1=".5" x2="1" y2=".5" xlink:href="#d"/><linearGradient id="l" y1=".5" x2="1" y2=".5" gradientUnits="objectBoundingBox"><stop offset="0" stop-color="#2b7ec2"/><stop offset=".25" stop-color="#469dd6"/><stop offset=".563" stop-color="#63beec"/><stop offset=".825" stop-color="#74d2fa"/><stop offset="1" stop-color="#7bdaff"/></linearGradient><linearGradient id="m" x1=".609" y1="-.247" x2=".395" y2="1.057" gradientUnits="objectBoundingBox"><stop offset="0" stop-color="#16d8ff"/><stop offset="1" stop-color="#5155d4"/></linearGradient><linearGradient id="n" x1=".505" y1=".148" x2="-.017" y2=".936" xlink:href="#d"/></defs><g data-name="Group 503"><g data-name="Group 467"><path data-name="Path 784" d="M260.787 1.164l-.007 2.317-2.016-1.164.007-2.317z" fill="#dcdcdc"/></g><g data-name="Group 468"><path data-name="Path 785" d="M280.675 12.647l-.006 2.317-2.016-1.164.006-2.317z" fill="#94a3c0"/></g><g data-name="Group 469"><path data-name="Path 786" d="M300.572 24.134l-.007 2.317-2.016-1.164.007-2.317z" fill="#dcdcdc"/></g><g data-name="Group 470"><path data-name="Path 787" d="M320.46 35.618l-.007 2.317-2.016-1.164.007-2.317z" fill="#94a3c0"/></g><g data-name="Group 471"><path data-name="Path 788" d="M340.349 47.099l-.007 2.317-2.01-1.16.007-2.317z" fill="#94a3c0"/></g><g data-name="Group 472"><path data-name="Path 789" d="M360.245 58.586l-.007 2.316-2.016-1.164.007-2.316z" fill="#94a3c0"/></g><g data-name="Group 473"><path data-name="Path 790" d="M260.727 22.289l-.007 2.317-2.016-1.164.007-2.317z" fill="#dcdcdc" opacity=".31"/></g><g data-name="Group 474"><path data-name="Path 791" d="M280.615 33.769l-.007 2.317-2.016-1.164.006-2.317z" fill="#5c82ff"/></g><g data-name="Group 475"><path data-name="Path 792" d="M300.512 45.256l-.006 2.317-2.016-1.164.007-2.317z" fill="#dcdcdc" opacity=".31"/></g><g data-name="Group 476"><path data-name="Path 793" d="M320.397 56.738v2.317l-2.016-1.164.007-2.317z" fill="#dcdcdc"/></g><g data-name="Group 477"><path data-name="Path 794" d="M340.289 68.221l-.007 2.317-2.009-1.16.006-2.317z" fill="#94a3c0"/></g><g data-name="Group 478"><path data-name="Path 795" d="M360.184 79.708l-.006 2.317-2.016-1.164.006-2.316z" fill="#5c82ff"/></g><g data-name="Group 479"><path data-name="Path 796" d="M260.667 43.408l-.007 2.309-2.016-1.164.006-2.309z" fill="#94a3c0"/></g><g data-name="Group 480"><path data-name="Path 797" d="M280.555 54.891l-.007 2.309-2.016-1.164.006-2.309z" fill="#94a3c0"/></g><g data-name="Group 481"><path data-name="Path 798" d="M300.452 66.378l-.007 2.309-2.016-1.164.007-2.309z" fill="#94a3c0"/></g><g data-name="Group 482"><path data-name="Path 799" d="M320.341 77.86l-.006 2.309-2.016-1.164.007-2.309z" fill="#5c82ff"/></g><g data-name="Group 483"><path data-name="Path 800" d="M340.229 89.343l-.007 2.309-2.01-1.16.007-2.309z" fill="#94a3c0"/></g><g data-name="Group 484"><path data-name="Path 801" d="M360.125 100.83l-.007 2.309-2.016-1.164.007-2.309z" fill="#dcdcdc" opacity=".31"/></g><g data-name="Group 485"><path data-name="Path 802" d="M260.607 64.53l-.006 2.309-2.016-1.164.006-2.309z" fill="#94a3c0"/></g><g data-name="Group 486"><path data-name="Path 803" d="M280.5 76.013l-.007 2.309-2.016-1.164.006-2.309z" fill="#94a3c0"/></g><g data-name="Group 487"><path data-name="Path 804" d="M300.392 87.5l-.006 2.309-2.016-1.164.006-2.309z" fill="#94a3c0"/></g><g data-name="Group 488"><path data-name="Path 805" d="M320.28 98.978l-.006 2.309-2.016-1.164.006-2.309z" fill="#dcdcdc"/></g><g data-name="Group 489"><path data-name="Path 806" d="M340.169 110.465l-.007 2.309-2.01-1.16.006-2.309z" fill="#5c82ff"/></g><g data-name="Group 490"><path data-name="Path 807" d="M360.064 121.952l-.007 2.309-2.016-1.164.006-2.309z" fill="#94a3c0"/></g><g data-name="Group 491"><path data-name="Path 808" d="M260.548 85.645l-.007 2.317-2.016-1.164.006-2.316z" fill="#94a3c0"/></g><g data-name="Group 492"><path data-name="Path 809" d="M280.437 97.128l-.007 2.316-2.016-1.164.007-2.317z" fill="#94a3c0"/></g><g data-name="Group 493"><path data-name="Path 810" d="M300.332 108.614l-.007 2.317-2.016-1.164.007-2.317z" fill="#94a3c0"/></g><g data-name="Group 494"><path data-name="Path 811" d="M320.221 120.097l-.007 2.317-2.016-1.164.006-2.317z" fill="#94a3c0"/></g><g data-name="Group 495"><path data-name="Path 812" d="M340.109 131.58l-.006 2.317-2.01-1.16.007-2.317z" fill="#dcdcdc"/></g><g data-name="Group 496"><path data-name="Path 813" d="M360.005 143.066l-.007 2.317-2.016-1.164.007-2.317z" fill="#5c82ff"/></g><g data-name="Group 497"><path data-name="Path 814" d="M260.488 106.767l-.007 2.317-2.016-1.164.007-2.317z" fill="#94a3c0"/></g><g data-name="Group 498"><path data-name="Path 815" d="M280.376 118.25l-.007 2.316-2.016-1.164.006-2.317z" fill="#94a3c0"/></g><g data-name="Group 499"><path data-name="Path 816" d="M300.272 129.736l-.006 2.316-2.016-1.164.007-2.317z" fill="#94a3c0"/></g><g data-name="Group 500"><path data-name="Path 817" d="M320.16 141.219l-.007 2.317-2.016-1.164.006-2.317z" fill="#94a3c0"/></g><g data-name="Group 501"><path data-name="Path 818" d="M340.049 152.702l-.006 2.316-2.009-1.16.007-2.317z" fill="#94a3c0"/></g><g data-name="Group 502"><path data-name="Path 819" d="M359.944 164.188l-.006 2.317-2.016-1.164.006-2.317z" fill="#94a3c0"/></g></g><g data-name="Group 504"><path data-name="Path 820" d="M1505.5-265.162c1.768 1.021 1.774 2.671.021 3.689l-58.687 34.105a7.008 7.008 0 01-6.37 0l-36.194-20.9c-1.765-1.019-1.777-2.67-.021-3.69l58.688-34.106a7.025 7.025 0 016.37 0z" transform="translate(-1394.101 390.245)" fill="url(#b)" opacity=".6"/></g><g data-name="Group 505" opacity=".47"><path data-name="Path 821" d="M1772.8-212.381l-146.337 85.042-147.294-85.04 146.336-85.041z" transform="translate(-1400.735 391.167)" opacity=".6" fill="url(#a)" style="mix-blend-mode:multiply;isolation:isolate"/></g><g data-name="Group 510"><g data-name="Group 509" style="isolation:isolate"><g data-name="Group 506"><path data-name="Path 822" d="M1764.907-228.3l-.029 10.448-146.337 85.042.03-10.448z" transform="translate(-1412.862 385.153)" fill="url(#e)"/></g><g data-name="Group 507"><path data-name="Path 823" d="M1604.533-143.254l-.03 10.448-147.294-85.04.03-10.448z" transform="translate(-1398.824 385.153)" fill="url(#c)"/></g><g data-name="Group 508"><path data-name="Path 824" d="M1750.872-236.4l-146.336 85.041-147.294-85.041 146.336-85.042z" transform="translate(-1398.827 393.257)" fill="url(#f)"/></g></g></g><g data-name="Group 516"><g data-name="Group 515"><g data-name="Group 514" style="isolation:isolate"><g data-name="Group 511"><path data-name="Path 825" d="M1764.907-228.3l-.029 10.448-146.337 85.042.03-10.448z" transform="translate(-1412.862 385.153)" fill="url(#e)"/></g><g data-name="Group 512"><path data-name="Path 826" d="M1604.533-143.254l-.03 10.448-147.294-85.04.03-10.448z" transform="translate(-1398.824 385.153)" fill="url(#c)"/></g><g data-name="Group 513"><path data-name="Path 827" d="M1750.872-236.4l-146.336 85.041-147.294-85.041 146.336-85.042z" transform="translate(-1398.827 393.257)" fill="url(#d)"/></g></g></g></g><g data-name="Group 528"><g data-name="Group 517"><path data-name="Path 828" d="M1710.189-243.412l-1.9-80.852c-.106-4.548-1.645-6.721-4.64-8.383l-108.36-59.223a3.4 3.4 0 00-2.878-.478s1.778-1.086 1.942-1.152a3.437 3.437 0 012.844.493l108.365 59.224c3 1.661 4.533 3.835 4.64 8.382l1.9 80.852c.05 2.174-.52 3.411-1.453 3.863l-1.59.942c.741-.566 1.175-1.756 1.13-3.668z" transform="translate(-1410.588 399.54)" fill="url(#g)"/></g><path data-name="Path 830" d="M297.046 166.682a2.185 2.185 0 00-.01-.411l-.1-4.085a4.132 4.132 0 01-2.26 2.944l-69.072 42.067c-2.795 1.7-7.075 1.98-9.562.621l-108.364-59.223a2.905 2.905 0 01-1.7-2.209h-.007l.1 4.38a2.844 2.844 0 001.706 2.343l108.364 59.224c2.486 1.359 6.767 1.081 9.561-.621l69.073-42.067a4.143 4.143 0 002.26-2.932z" fill="#464647"/><path data-name="Path 831" d="M1698.6-231.029l-108.364-59.223c-2.486-1.359-6.767-1.081-9.561.621l-40.9 24.907-28.176 17.16a6.93 6.93 0 00-.9.65c-1.909 1.638-1.838 3.7.346 4.89l108.36 59.224c2.486 1.359 6.767 1.081 9.562-.621l28.183-17.164 40.889-24.9c2.794-1.704 3.044-4.185.561-5.544z" transform="translate(-1403.359 390.618)" fill="url(#h)"/><path data-name="Path 832" d="M153.856 172.871l17.677 9.659a.515.515 0 01.028.975l-19.393-10.6a1.862 1.862 0 011.688-.034z" fill="#464647"/><path data-name="Path 833" d="M194.021 105.682l91.628 50.077 1.22-.743-91.628-50.077z" fill="#464647"/><g data-name="Group 518"><path data-name="Path 834" d="M297.706 75.275c-.106-4.548-1.644-6.721-4.64-8.383L184.701 7.669c-2.486-1.359-4.459-.686-4.362 3.461l1.894 80.853c.124 5.284 1.922 6.9 4.641 8.382l108.364 59.223c2.486 1.359 4.455.5 4.363-3.461z" fill="#464647"/><path data-name="Path 835" d="M294.724 148.646l-1.783-76.076a.743.743 0 00-.385-.634L186.216 13.82a.741.741 0 00-1.1.668l1.782 76.076a.741.741 0 00.386.633l106.339 58.117a.742.742 0 001.101-.668z" fill="#33b4ff"/><path data-name="Path 836" d="M268.241 58.648l-49.143-26.855-32.885-17.972a.741.741 0 00-1.1.667l1.783 76.077a.738.738 0 00.385.633l14.523 7.938z" fill="#fff" opacity=".2" style="mix-blend-mode:overlay;isolation:isolate"/></g><g data-name="Group 520"><path data-name="Path 837" d="M156.087 158.908l14.566-8.871a3.531 3.531 0 013.2-.069l36.244 19.807a.974.974 0 01.053 1.845l-14.566 8.871z" fill="#7b7b7c" opacity=".4"/><g data-name="Group 519" opacity=".4" fill="#7a7a7a"><path data-name="Path 838" d="M175.542 170.239l19.434 10.621-7.885 4.8a3.534 3.534 0 01-3.2.069l-17.809-9.734z" opacity=".4"/><path data-name="Path 839" d="M174.918 169.898l-9.457 5.759-17.809-9.735a.974.974 0 01-.053-1.845l7.885-4.8z" opacity=".4"/></g></g><g data-name="Group 527" fill="#232323"><g data-name="Group 521"><path data-name="Path 840" d="M270.969 165.674l5.422 2.964a1.42 1.42 0 001.275-.083l5.056-3.079c.373-.227.406-.558.074-.739l-5.422-2.964a1.416 1.416 0 00-1.275.083l-5.057 3.079c-.371.227-.405.56-.073.739z"/><path data-name="Path 841" d="M263.636 161.665l5.422 2.964a1.418 1.418 0 001.274-.083l5.057-3.079c.373-.226.406-.558.075-.739l-5.423-2.964a1.415 1.415 0 00-1.275.083l-5.057 3.08c-.373.226-.408.557-.073.738z"/><path data-name="Path 842" d="M256.295 157.66l5.422 2.964a1.418 1.418 0 001.274-.083l5.057-3.079c.373-.226.406-.557.075-.739l-5.423-2.964a1.418 1.418 0 00-1.275.083l-5.057 3.079c-.371.223-.404.553-.073.739z"/><path data-name="Path 843" d="M248.959 153.642l5.422 2.964a1.417 1.417 0 001.274-.082l5.057-3.08c.373-.226.406-.558.074-.739l-5.422-2.964a1.418 1.418 0 00-1.275.083l-5.057 3.08c-.372.23-.404.56-.073.738z"/><path data-name="Path 844" d="M241.621 149.635l5.423 2.964a1.418 1.418 0 001.275-.082l5.057-3.079c.373-.227.405-.558.074-.74l-5.422-2.964a1.418 1.418 0 00-1.274.083l-5.057 3.079c-.373.228-.407.558-.076.739z"/><path data-name="Path 845" d="M234.284 145.626l5.423 2.964a1.421 1.421 0 001.275-.083l5.057-3.08c.373-.226.405-.557.074-.739l-5.422-2.964a1.418 1.418 0 00-1.275.083l-5.057 3.079c-.372.228-.406.559-.075.74z"/><path data-name="Path 846" d="M226.947 141.615l5.423 2.964a1.421 1.421 0 001.275-.083l5.056-3.079c.373-.227.406-.558.075-.74l-5.423-2.964a1.421 1.421 0 00-1.274.083l-5.056 3.079c-.373.229-.407.56-.076.74z"/><path data-name="Path 847" d="M219.61 137.607l5.423 2.964a1.418 1.418 0 001.275-.083l5.057-3.079c.373-.227.405-.558.074-.739l-5.422-2.964a1.423 1.423 0 00-1.276.083l-5.056 3.08c-.372.226-.406.557-.075.738z"/><path data-name="Path 848" d="M212.274 133.597l5.422 2.964a1.42 1.42 0 001.275-.083l5.057-3.079c.372-.227.405-.558.074-.739l-5.423-2.964a1.418 1.418 0 00-1.275.082l-5.057 3.08c-.37.227-.404.558-.073.739z"/><path data-name="Path 849" d="M204.937 129.587l5.422 2.964a1.42 1.42 0 001.276-.083l5.056-3.079c.372-.227.406-.558.075-.739l-5.422-2.964a1.422 1.422 0 00-1.275.082l-5.057 3.079c-.372.228-.406.559-.075.74z"/><path data-name="Path 850" d="M197.6 125.577l5.422 2.964a1.418 1.418 0 001.276-.083l5.056-3.079c.372-.226.406-.558.075-.739l-5.423-2.964a1.418 1.418 0 00-1.275.083l-5.057 3.08c-.372.226-.405.557-.074.738z"/><path data-name="Path 851" d="M190.263 121.567l5.422 2.964a1.418 1.418 0 001.274-.083l5.057-3.079c.372-.226.405-.558.075-.739l-5.423-2.964a1.415 1.415 0 00-1.274.083l-5.057 3.08c-.372.226-.409.557-.074.738z"/><path data-name="Path 852" d="M182.927 117.557l5.422 2.964a1.415 1.415 0 001.274-.083l5.057-3.079c.372-.226.405-.557.074-.739l-5.427-2.964a1.418 1.418 0 00-1.274.083l-5.057 3.079c-.369.227-.402.563-.069.739z"/><path data-name="Path 853" d="M172.274 111.736l8.738 4.775a1.418 1.418 0 001.275-.082l5.057-3.08c.372-.226.405-.557.074-.739l-8.738-4.774a1.419 1.419 0 00-1.275.082l-5.056 3.08c-.373.226-.406.557-.075.738z"/></g><g data-name="Group 522"><path data-name="Path 854" d="M177.006 115.124l-5.422-2.964a1.421 1.421 0 00-1.275.083l-5.057 3.079c-.373.227-.406.558-.074.74l5.422 2.964a1.418 1.418 0 001.274-.083l5.057-3.08c.373-.231.407-.562.075-.739z"/><path data-name="Path 855" d="M184.344 119.13l-5.423-2.964a1.421 1.421 0 00-1.274.083l-5.057 3.079c-.373.227-.405.558-.074.74l5.422 2.963a1.418 1.418 0 001.275-.082l5.057-3.079c.372-.228.405-.559.074-.74z"/><path data-name="Path 856" d="M191.681 123.14l-5.423-2.964a1.418 1.418 0 00-1.274.083l-5.057 3.08c-.372.227-.405.558-.074.739l5.422 2.964a1.418 1.418 0 001.275-.082l5.058-3.08c.371-.228.404-.559.073-.74z"/><path data-name="Path 857" d="M199.022 127.15l-5.422-2.964a1.42 1.42 0 00-1.275.083l-5.056 3.079c-.374.226-.406.558-.075.739l5.422 2.964a1.419 1.419 0 001.275-.082l5.056-3.08c.369-.227.402-.559.075-.739z"/><path data-name="Path 858" d="M206.354 131.16l-5.423-2.964a1.416 1.416 0 00-1.274.083l-5.058 3.079c-.372.226-.405.558-.074.739l5.423 2.964a1.414 1.414 0 001.274-.083l5.056-3.079c.374-.227.407-.558.076-.739z"/><path data-name="Path 859" d="M213.691 135.17l-5.422-2.964a1.418 1.418 0 00-1.276.083l-5.057 3.08c-.372.226-.406.558-.074.739l5.423 2.964a1.415 1.415 0 001.275-.083l5.057-3.079c.373-.228.406-.56.074-.74z"/><path data-name="Path 860" d="M221.024 139.179l-5.422-2.964a1.415 1.415 0 00-1.274.083l-5.057 3.08c-.372.226-.406.557-.074.739l5.422 2.964a1.418 1.418 0 001.274-.083l5.057-3.079c.374-.228.41-.56.074-.74z"/><path data-name="Path 861" d="M228.365 143.189l-5.422-2.964a1.418 1.418 0 00-1.275.082l-5.057 3.08c-.373.226-.406.557-.074.739l5.422 2.964a1.418 1.418 0 001.275-.083l5.057-3.079c.372-.227.405-.559.074-.739z"/><path data-name="Path 862" d="M235.702 147.198l-5.423-2.963a1.418 1.418 0 00-1.275.082l-5.057 3.08c-.372.226-.406.557-.075.739l5.423 2.964a1.418 1.418 0 001.275-.083l5.057-3.079c.372-.228.405-.559.075-.74z"/><path data-name="Path 863" d="M243.038 151.209l-5.422-2.964a1.421 1.421 0 00-1.274.083l-5.057 3.079c-.373.227-.406.558-.074.74l5.422 2.964a1.418 1.418 0 001.274-.083l5.057-3.079c.373-.229.406-.564.074-.74z"/><path data-name="Path 864" d="M250.376 155.218l-5.423-2.963a1.418 1.418 0 00-1.275.082l-5.057 3.08c-.373.227-.406.558-.074.74l5.422 2.964a1.421 1.421 0 001.274-.083l5.057-3.079c.373-.229.406-.556.076-.741z"/><path data-name="Path 865" d="M257.713 159.228l-5.423-2.964a1.418 1.418 0 00-1.275.083l-5.056 3.079c-.374.227-.406.558-.075.74l5.422 2.963a1.42 1.42 0 001.275-.082l5.056-3.08c.373-.227.407-.558.076-.739z"/><path data-name="Path 866" d="M265.049 163.239l-5.421-2.965a1.42 1.42 0 00-1.275.083l-5.056 3.079c-.373.226-.406.558-.075.739l5.422 2.964a1.42 1.42 0 001.275-.082l5.057-3.08c.371-.227.404-.558.073-.738z"/><path data-name="Path 867" d="M275.701 169.056l-8.737-4.775a1.42 1.42 0 00-1.276.083l-5.056 3.079c-.372.226-.406.558-.075.739l8.738 4.776a1.419 1.419 0 001.275-.083l5.056-3.08c.373-.225.403-.555.075-.739z"/></g><g data-name="Group 523"><path data-name="Path 868" d="M175.206 122.336l-10.719-5.858a1.418 1.418 0 00-1.274.083l-5.056 3.08c-.373.227-.406.558-.075.739l10.719 5.859a1.421 1.421 0 001.275-.083l5.057-3.08c.372-.228.405-.559.073-.74z"/><path data-name="Path 869" d="M268.545 173.35l-10.719-5.858a1.417 1.417 0 00-1.274.083l-5.057 3.079c-.372.227-.405.558-.074.739l10.719 5.859a1.421 1.421 0 001.274-.083l5.057-3.08c.373-.23.406-.561.074-.739z"/><path data-name="Path 870" d="M182.544 126.346l-5.423-2.964a1.418 1.418 0 00-1.275.083l-5.057 3.079c-.373.227-.405.558-.074.739l5.422 2.964a1.418 1.418 0 001.274-.082l5.057-3.079c.374-.232.407-.559.076-.74z"/><path data-name="Path 871" d="M189.881 130.356l-5.423-2.964a1.418 1.418 0 00-1.275.083l-5.057 3.079c-.373.227-.406.558-.074.739l5.422 2.964a1.42 1.42 0 001.275-.082l5.056-3.08c.373-.223.407-.558.076-.739z"/><path data-name="Path 872" d="M197.218 134.365l-5.422-2.964a1.42 1.42 0 00-1.275.083l-5.057 3.079c-.372.226-.405.558-.074.739l5.422 2.964a1.419 1.419 0 001.275-.082l5.056-3.08c.373-.227.406-.559.075-.739z"/><path data-name="Path 873" d="M204.554 138.375l-5.422-2.964a1.422 1.422 0 00-1.275.082l-5.057 3.08c-.372.226-.405.558-.074.739l5.422 2.964a1.417 1.417 0 001.275-.083l5.057-3.079c.372-.227.405-.559.074-.739z"/><path data-name="Path 874" d="M211.895 142.385l-5.422-2.964a1.42 1.42 0 00-1.275.082l-5.056 3.08c-.372.226-.406.558-.074.739l5.423 2.964a1.415 1.415 0 001.275-.083l5.057-3.08c.365-.226.399-.558.072-.738z"/><path data-name="Path 875" d="M219.228 146.395l-5.422-2.964a1.42 1.42 0 00-1.275.082l-5.056 3.08c-.373.226-.406.558-.075.739l5.423 2.964a1.418 1.418 0 001.274-.083l5.057-3.079c.372-.227.405-.559.074-.739z"/><path data-name="Path 876" d="M226.565 150.405l-5.422-2.964a1.418 1.418 0 00-1.274.082l-5.057 3.08c-.372.226-.405.557-.075.739l5.423 2.964a1.418 1.418 0 001.274-.083l5.057-3.079c.372-.228.406-.559.074-.739z"/><path data-name="Path 877" d="M233.897 154.415l-5.422-2.964a1.422 1.422 0 00-1.275.083l-5.057 3.08c-.372.227-.405.558-.074.74l5.422 2.964a1.418 1.418 0 001.275-.083l5.057-3.079c.374-.23.409-.561.074-.741z"/><path data-name="Path 878" d="M241.239 158.423l-5.423-2.964a1.421 1.421 0 00-1.274.083l-5.057 3.079c-.372.227-.406.558-.074.739l5.422 2.964a1.421 1.421 0 001.275-.083l5.057-3.08c.371-.226.404-.557.074-.738z"/><path data-name="Path 879" d="M248.576 162.433l-5.423-2.964a1.418 1.418 0 00-1.275.083l-5.057 3.079c-.372.227-.405.558-.074.74l5.422 2.964a1.421 1.421 0 001.275-.083l5.057-3.079c.373-.228.406-.559.075-.74z"/><path data-name="Path 880" d="M255.913 166.443l-5.422-2.964a1.42 1.42 0 00-1.276.083l-5.057 3.079c-.373.227-.405.558-.074.739l5.422 2.964a1.418 1.418 0 001.275-.082l5.057-3.08c.372-.227.406-.558.075-.739z"/></g><g data-name="Group 524"><path data-name="Path 881" d="M171.752 128.648l-14.36-7.848a1.419 1.419 0 00-1.275.083l-5.056 3.079c-.372.226-.406.558-.075.739l14.361 7.849a1.418 1.418 0 001.274-.083l5.057-3.079c.372-.228.406-.558.074-.74z"/><path data-name="Path 882" d="M179.089 132.658l-5.422-2.964a1.421 1.421 0 00-1.274.083l-5.057 3.08c-.372.227-.406.558-.074.74l5.422 2.963a1.418 1.418 0 001.275-.082l5.057-3.079c.371-.229.405-.56.073-.741z"/><path data-name="Path 883" d="M186.422 136.67L181 133.706a1.418 1.418 0 00-1.275.083l-5.057 3.079c-.373.227-.405.558-.074.739l5.422 2.964a1.417 1.417 0 001.274-.082l5.057-3.08c.375-.229.411-.56.075-.739z"/><path data-name="Path 884" d="M193.763 140.678l-5.423-2.964a1.418 1.418 0 00-1.275.083l-5.057 3.079c-.373.227-.406.558-.074.739l5.422 2.964a1.418 1.418 0 001.275-.082l5.057-3.08c.372-.229.406-.558.075-.739z"/><path data-name="Path 885" d="M201.1 144.688l-5.423-2.964a1.418 1.418 0 00-1.275.083l-5.057 3.079c-.373.226-.405.558-.074.739l5.422 2.964a1.417 1.417 0 001.274-.082l5.057-3.08c.373-.227.407-.559.076-.739z"/><path data-name="Path 886" d="M208.437 148.697l-5.423-2.964a1.415 1.415 0 00-1.275.083l-5.057 3.079c-.372.226-.406.558-.074.739l5.422 2.964a1.42 1.42 0 001.275-.083l5.056-3.08c.373-.226.407-.558.076-.738z"/><path data-name="Path 887" d="M215.774 152.707l-5.422-2.964a1.42 1.42 0 00-1.276.082l-5.057 3.08c-.373.226-.405.558-.074.739l5.422 2.964a1.42 1.42 0 001.275-.083l5.056-3.08c.374-.227.407-.558.076-.738z"/><path data-name="Path 888" d="M223.11 156.717l-5.422-2.964a1.418 1.418 0 00-1.274.082l-5.057 3.08c-.372.226-.406.557-.075.739l5.423 2.964a1.421 1.421 0 001.275-.083l5.056-3.08c.372-.227.405-.558.074-.738z"/><path data-name="Path 889" d="M230.447 160.727l-5.422-2.964a1.419 1.419 0 00-1.275.082l-5.056 3.079c-.373.227-.406.558-.075.74l5.423 2.964a1.418 1.418 0 001.275-.083l5.057-3.079c.371-.228.404-.559.073-.739z"/><path data-name="Path 890" d="M237.784 164.737l-5.422-2.964a1.423 1.423 0 00-1.275.083l-5.056 3.079c-.373.227-.406.558-.075.74l5.423 2.964a1.418 1.418 0 001.275-.083l5.057-3.079c.371-.229.404-.56.073-.74z"/><path data-name="Path 891" d="M245.121 168.746l-5.422-2.964a1.421 1.421 0 00-1.275.083l-5.057 3.08c-.372.227-.406.558-.074.74l5.422 2.964a1.421 1.421 0 001.275-.083l5.057-3.08c.372-.228.405-.559.074-.74z"/><path data-name="Path 892" d="M261.448 177.668l-14.413-7.877a1.421 1.421 0 00-1.275.083l-5.057 3.079c-.373.227-.406.558-.074.74l14.412 7.876a1.415 1.415 0 001.275-.083l5.057-3.08c.373-.225.406-.556.075-.738z"/></g><g data-name="Group 525"><path data-name="Path 893" d="M223.351 165.048l-34.771-19a1.415 1.415 0 00-1.274.083l-5.057 3.079c-.373.226-.406.558-.074.739l34.77 19a1.418 1.418 0 001.275-.082l5.057-3.079c.372-.228.405-.558.074-.74z"/><path data-name="Path 894" d="M177.729 140.115l-5.423-2.964a1.418 1.418 0 00-1.275.083l-5.056 3.079c-.373.227-.406.558-.075.74l5.423 2.964a1.416 1.416 0 001.274-.083l5.057-3.08c.372-.227.406-.558.075-.739z"/><path data-name="Path 895" d="M186.667 145l-7.024-3.839a1.419 1.419 0 00-1.275.083l-5.057 3.08c-.373.227-.405.558-.074.74l7.023 3.838a1.418 1.418 0 001.276-.083l5.056-3.079c.373-.228.407-.559.075-.74z"/><path data-name="Path 896" d="M234.203 170.98l5.422 2.964c.332.181.3.512-.074.739l-5.057 3.079a1.418 1.418 0 01-1.275.083l-5.422-2.964c-.332-.181-.3-.512.074-.739l5.057-3.08a1.418 1.418 0 011.275-.082z"/><path data-name="Path 897" d="M225.265 166.094l7.024 3.839c.331.181.3.512-.074.739l-5.057 3.079a1.418 1.418 0 01-1.274.083l-7.024-3.839c-.332-.181-.3-.511.074-.739l5.057-3.079a1.418 1.418 0 011.274-.083z"/><path data-name="Path 898" d="M155.717 128.088l-5.422-2.964a1.418 1.418 0 00-1.274.082l-5.057 3.08c-.373.226-.405.558-.074.739l5.422 2.964a1.418 1.418 0 001.274-.083l5.057-3.079c.373-.23.405-.561.074-.739z"/><path data-name="Path 899" d="M163.055 132.096l-5.423-2.964a1.417 1.417 0 00-1.274.082l-5.057 3.08c-.373.226-.405.557-.074.739l5.422 2.964a1.423 1.423 0 001.275-.083l5.056-3.079c.369-.229.406-.559.075-.739z"/><path data-name="Path 900" d="M170.392 136.106l-5.423-2.964a1.42 1.42 0 00-1.274.083l-5.057 3.079c-.373.227-.405.558-.074.74l5.422 2.964a1.42 1.42 0 001.275-.083l5.056-3.08c.373-.228.406-.559.075-.739z"/><path data-name="Path 901" d="M254.352 181.992l-12.812-7a1.418 1.418 0 00-1.274.082l-5.057 3.08c-.372.226-.405.558-.074.739l12.812 7a1.418 1.418 0 001.274-.083l5.057-3.079c.374-.227.405-.558.074-.739z"/></g><g data-name="Group 526"><path data-name="Path 902" d="M278.065 161.352l5.422 2.964a1.415 1.415 0 001.274-.083l2.514-1.531c.373-.226.406-.558.075-.739l-5.423-2.964a1.415 1.415 0 00-1.274.083l-2.514 1.531c-.372.227-.405.558-.074.739z"/><path data-name="Path 903" d="M270.728 157.342l5.422 2.964a1.418 1.418 0 001.274-.082l2.514-1.532c.373-.226.406-.558.075-.739l-5.423-2.964a1.418 1.418 0 00-1.274.083l-2.514 1.531c-.372.228-.406.559-.074.739z"/><path data-name="Path 904" d="M263.391 153.333l5.423 2.964a1.421 1.421 0 001.274-.083l2.515-1.532c.372-.226.406-.557.074-.739l-5.422-2.964a1.418 1.418 0 00-1.275.083l-2.514 1.531c-.373.231-.407.559-.075.74z"/><path data-name="Path 905" d="M256.058 149.324l5.423 2.964a1.421 1.421 0 001.275-.083l2.514-1.532c.372-.226.406-.557.074-.739l-5.422-2.964a1.418 1.418 0 00-1.275.083l-2.514 1.531c-.375.228-.41.558-.075.74z"/><path data-name="Path 906" d="M248.717 145.313l5.423 2.964a1.418 1.418 0 001.275-.083l2.514-1.531c.373-.227.405-.558.074-.74l-5.423-2.963a1.415 1.415 0 00-1.274.082l-2.514 1.531c-.372.229-.406.559-.075.74z"/><path data-name="Path 907" d="M241.38 141.304l5.422 2.964a1.423 1.423 0 001.276-.083l2.514-1.531c.373-.227.405-.558.074-.74l-5.422-2.963a1.418 1.418 0 00-1.274.082l-2.514 1.531c-.375.228-.407.558-.076.74z"/><path data-name="Path 908" d="M234.043 137.294l5.422 2.964a1.42 1.42 0 001.275-.083l2.514-1.531c.372-.227.405-.558.074-.739l-5.422-2.964a1.42 1.42 0 00-1.276.082l-2.514 1.532c-.371.227-.404.558-.073.739z"/><path data-name="Path 909" d="M226.707 133.285l5.422 2.964a1.42 1.42 0 001.275-.083l2.514-1.531c.373-.227.406-.558.074-.739l-5.422-2.964a1.42 1.42 0 00-1.276.082l-2.514 1.532c-.372.227-.404.557-.073.739z"/><path data-name="Path 910" d="M219.37 129.275l5.422 2.964a1.415 1.415 0 001.275-.083l2.514-1.531c.373-.226.406-.558.075-.739l-5.423-2.964a1.418 1.418 0 00-1.274.082l-2.514 1.532c-.373.227-.406.558-.075.739z"/><path data-name="Path 911" d="M212.033 125.265l5.422 2.964a1.42 1.42 0 001.276-.082l2.513-1.532c.372-.226.406-.558.075-.739l-5.423-2.964a1.418 1.418 0 00-1.274.083l-2.514 1.531c-.373.227-.406.558-.075.739z"/><path data-name="Path 912" d="M204.697 121.255l5.422 2.964a1.418 1.418 0 001.275-.082l2.514-1.532c.373-.226.406-.558.075-.739l-5.423-2.964a1.415 1.415 0 00-1.275.083l-2.515 1.531c-.371.228-.405.558-.073.739z"/><path data-name="Path 913" d="M197.359 117.246l5.423 2.963a1.418 1.418 0 001.275-.082l2.514-1.532c.372-.226.406-.557.074-.739l-5.422-2.964a1.418 1.418 0 00-1.275.083l-2.514 1.531c-.372.228-.405.557-.075.74z"/><path data-name="Path 914" d="M190.022 113.235l5.423 2.964a1.418 1.418 0 001.275-.082l2.514-1.531c.372-.227.406-.558.074-.74l-5.422-2.964a1.418 1.418 0 00-1.275.083l-2.514 1.531c-.373.228-.406.558-.075.739z"/><path data-name="Path 915" d="M179.366 107.414l8.738 4.775a1.415 1.415 0 001.275-.082l2.514-1.531c.373-.227.406-.558.074-.74l-8.737-4.775a1.416 1.416 0 00-1.275.083l-2.515 1.531c-.368.225-.401.558-.074.739z"/></g></g></g><g data-name="Group 529"><path data-name="Path 916" d="M1792.724-142.647l-50.36 29.266-50.689-29.265 50.36-29.266z" transform="translate(-1419.226 380.247)" fill="url(#i)" opacity=".6"/></g><g data-name="Group 552"><g data-name="Group 535"><g data-name="Group 534"><g data-name="Group 533" style="isolation:isolate"><g data-name="Group 530"><path data-name="Path 917" d="M1784.5-214.528l-.01 61.423-50.36 29.266.01-61.423z" transform="translate(-1422.92 383.954)" fill="url(#e)"/></g><g data-name="Group 531"><path data-name="Path 918" d="M1729.309-185.263l-.01 61.423-50.689-29.26.01-61.423z" transform="translate(-1418.089 383.955)" fill="url(#j)"/></g><path data-name="Path 919" d="M263.56 232.605l45.575 26.313v-26.185L263.56 206.42z" fill="#382747"/><g data-name="Group 532"><path data-name="Path 920" d="M1779.67-217.318l-50.36 29.266-50.689-29.265 50.36-29.266z" transform="translate(-1418.09 386.744)" fill="url(#d)"/></g></g></g></g><g data-name="Group 544"><g data-name="Group 537"><g data-name="Group 536"><path data-name="Path 921" d="M1746.945-181.1a3.589 3.589 0 00-1.628 2.82l.006 2.143c0 1.037.736 1.455 1.639.934l30.327-17.51a3.587 3.587 0 001.629-2.82l-.006-2.143c0-1.037-.736-1.454-1.639-.934z" transform="translate(-1423.893 382.588)" fill="url(#k)"/></g><path data-name="Path 922" d="M322.622 206.943l30.329-17.509a3.584 3.584 0 001.628-2.82l-.006-2.143a1.561 1.561 0 00-.124-.637 1.2 1.2 0 00-1.068.15l-30.328 17.51a3.588 3.588 0 00-1.629 2.82l.006 2.143a1.549 1.549 0 00.124.637 1.2 1.2 0 001.068-.151z" fill="#6377a9"/><path data-name="Path 923" d="M338.037 194.792a.782.782 0 00-.007-.081.883.883 0 00-.082.038l-13.752 7.939.006 1.73a.743.743 0 00.007.08c.027-.012.054-.022.082-.037l13.751-7.94z" fill="#48cfff"/></g><g data-name="Group 539"><g data-name="Group 538"><path data-name="Path 924" d="M1746.945-167.257a3.588 3.588 0 00-1.628 2.82l.006 2.142c0 1.038.736 1.455 1.639.934l30.327-17.509a3.588 3.588 0 001.629-2.82l-.006-2.143c0-1.037-.736-1.455-1.639-.934z" transform="translate(-1423.893 381.385)" fill="url(#k)"/></g><path data-name="Path 925" d="M322.622 219.577l30.329-17.51a3.584 3.584 0 001.628-2.82l-.006-2.143a1.567 1.567 0 00-.124-.637 1.2 1.2 0 00-1.068.151l-30.328 17.51a3.586 3.586 0 00-1.629 2.82l.006 2.142a1.556 1.556 0 00.124.638 1.2 1.2 0 001.068-.151z" fill="#6377a9"/><path data-name="Path 926" d="M338.037 207.425a.742.742 0 00-.007-.08.871.871 0 00-.082.037l-13.752 7.94.006 1.729a.783.783 0 00.007.081c.027-.013.054-.022.082-.038l13.751-7.939z" fill="#48cfff"/></g><g data-name="Group 541"><g data-name="Group 540"><path data-name="Path 927" d="M1746.945-153.42a3.589 3.589 0 00-1.628 2.82l.006 2.143c0 1.037.736 1.455 1.639.934l30.327-17.51a3.586 3.586 0 001.629-2.82l-.006-2.142c0-1.038-.736-1.455-1.639-.934z" transform="translate(-1423.893 380.18)" fill="url(#k)"/></g><path data-name="Path 928" d="M322.622 232.209l30.329-17.509a3.584 3.584 0 001.628-2.82l-.006-2.143a1.561 1.561 0 00-.124-.637 1.2 1.2 0 00-1.068.151l-30.328 17.509a3.588 3.588 0 00-1.629 2.82l.006 2.143a1.548 1.548 0 00.124.637 1.2 1.2 0 001.068-.151z" fill="#6377a9"/><path data-name="Path 929" d="M338.037 220.058a.743.743 0 00-.007-.08.687.687 0 00-.082.037l-13.752 7.939.006 1.73a.764.764 0 00.007.08c.027-.012.054-.022.082-.037l13.751-7.94z" fill="#48cfff"/></g><g data-name="Group 543"><g data-name="Group 542"><path data-name="Path 930" d="M1746.945-139.582a3.588 3.588 0 00-1.628 2.82l.006 2.143c0 1.037.736 1.454 1.639.933l30.328-17.514a3.587 3.587 0 001.629-2.82l-.006-2.143c0-1.037-.736-1.455-1.639-.934z" transform="translate(-1423.893 378.976)" fill="url(#k)"/></g><path data-name="Path 931" d="M322.622 244.843l30.329-17.51a3.582 3.582 0 001.628-2.82l-.006-2.142a1.569 1.569 0 00-.124-.638 1.2 1.2 0 00-1.068.151l-30.328 17.51a3.586 3.586 0 00-1.629 2.82l.006 2.143a1.555 1.555 0 00.124.637 1.2 1.2 0 001.068-.151z" fill="#6377a9"/><path data-name="Path 932" d="M338.037 232.692a.759.759 0 00-.007-.081.7.7 0 00-.082.038l-13.752 7.939.006 1.729a.783.783 0 00.007.081c.027-.013.054-.022.082-.038l13.751-7.939z" fill="#48cfff"/></g></g><g data-name="Group 551" transform="translate(281.682 144.701)"><ellipse data-name="Ellipse 27" cx="28.627" cy="15.965" rx="28.627" ry="15.965" transform="translate(0 8.922)" fill="#94a3c0" opacity=".32" style="mix-blend-mode:multiply;isolation:isolate"/><g data-name="Group 550"><g data-name="Group 548"><g data-name="Group 545"><path data-name="Path 933" d="M43.325 3.582l-.009 3.277-14.871 8.642.009-3.278z" fill="#396caa"/></g><g data-name="Group 546"><path data-name="Path 934" d="M28.455 12.225l-.009 3.278L9.613 9.954l.009-3.278z" fill="#33b4ff"/></g><g data-name="Group 547"><path data-name="Path 935" d="M1746.031-238.027l-14.872 8.641-18.833-5.548c5.257-6.014 17.95-8.406 28.351-5.341a23.39 23.39 0 015.354 2.248z" transform="translate(-1702.704 241.61)" fill="url(#l)"/></g></g><path data-name="Path 936" d="M54.246 18.906c-.235 4.27-3.493 7.5-6.92 9.639a32.064 32.064 0 01-12.473 4.2 43.679 43.679 0 01-12.947-.138A31.671 31.671 0 019.64 28.139c-3.333-2.17-6.5-5.514-6.484-9.744l-.008 2.666a14.811 14.811 0 00.162 2.974c.7 3.5 3.443 6.2 6.328 8.073a31.589 31.589 0 0012 4.421 43.538 43.538 0 0012.857.226 33.083 33.083 0 0012.451-4.019c3.387-1.991 6.653-5.069 7.221-9.146a20.468 20.468 0 00.094-2.75q0-1.191.006-2.383c-.001.15-.012.3-.021.449z" fill="#265497"/><g data-name="Group 549"><path data-name="Path 937" d="M1748.823-232.919c10 5.771 10.047 15.128.116 20.9s-26.082 5.771-36.078 0c-8-4.617-9.874-11.341-4.789-17.159l22.769 6.71z" transform="translate(-1702.088 240.854)" fill="url(#m)"/></g></g></g></g><g data-name="Group 557"><g data-name="Group 553"><path data-name="Path 938" d="M1495.835-272.733c1.768 1.021 1.773 2.671.021 3.689l-58.688 34.105a7.008 7.008 0 01-6.37 0l-36.2-20.9c-1.764-1.018-1.777-2.669-.02-3.689l58.688-34.106a7.019 7.019 0 016.37 0z" transform="translate(-1393.261 390.904)" fill="url(#n)"/></g><g data-name="Group 556"><path data-name="Path 939" d="M103.893 120.162c0 .048-.007.094-.016.142s-.018.077-.028.115-.023.09-.039.135-.03.072-.046.109-.041.094-.066.141-.04.067-.061.1c-.032.052-.067.1-.1.157-.023.03-.048.06-.073.09a2.462 2.462 0 01-.191.205c-.025.025-.048.049-.075.074-.044.038-.091.076-.138.113s-.082.068-.127.1-.108.072-.163.109-.11.074-.171.11l-58.692 34.1a4.809 4.809 0 01-.629.3 3.742 3.742 0 01-.176.067c-.136.049-.28.089-.423.13a6.752 6.752 0 01-.996.206c-.046.005-.09.014-.135.018a7.431 7.431 0 01-.757.042h-.12c-.25 0-.5-.016-.748-.042l-.111-.012q-.368-.045-.723-.124l-.129-.032a5.939 5.939 0 01-.626-.191c-.036-.013-.074-.023-.11-.037a5.069 5.069 0 01-.687-.325l-36.2-20.9a2.608 2.608 0 01-1.248-1.356 1.594 1.594 0 01-.082-.5l-.012 2.077a1.461 1.461 0 00.02.252 2.414 2.414 0 001.31 1.606l36.194 20.9a4.9 4.9 0 00.653.312l.035.013c.036.014.074.024.109.037.132.048.265.1.4.136.073.021.149.036.224.055l.129.032c.04.008.078.02.118.028.147.03.3.057.447.078.052.007.107.012.16.018l.111.012c.056.006.11.015.166.019.147.012.295.02.443.024h.46q.25-.008.5-.033l.057-.008c.045 0 .089-.013.133-.018.128-.016.257-.031.382-.054.057-.01.108-.029.163-.04.154-.032.3-.071.451-.112.078-.022.162-.035.238-.059s.122-.047.184-.07.119-.043.176-.067a4.933 4.933 0 00.629-.3l58.688-34.105.056-.033c.041-.025.077-.052.117-.078s.11-.071.161-.108.085-.067.126-.1.1-.076.139-.114l.028-.024c.017-.016.03-.034.046-.05a2.457 2.457 0 00.191-.205c.013-.015.03-.029.042-.045s.019-.03.031-.046c.038-.052.073-.105.106-.158.014-.022.032-.043.045-.066s.009-.023.015-.034c.025-.047.046-.093.066-.14.012-.027.028-.055.038-.082 0-.009 0-.019.008-.028.016-.045.027-.089.038-.134s.02-.06.027-.091a.131.131 0 010-.024c.008-.047.012-.095.015-.142 0-.03.01-.061.011-.092v-.039l.012-2.077a1.273 1.273 0 010 .133z" fill="#464647"/><g data-name="Group 554"><path data-name="Path 940" d="M97.228 118.827a.627.627 0 010 1.186l-49.219 28.6a2.258 2.258 0 01-2.048 0l-32.6-18.825a.628.628 0 01-.007-1.189l49.219-28.6a2.265 2.265 0 012.052 0z" fill="#126087"/></g><g data-name="Group 555"><path data-name="Path 941" d="M28.156 142.626a.689.689 0 01.007 1.3l-.816.474a2.48 2.48 0 01-2.252 0l-4.959-2.863a.689.689 0 01-.006-1.3l.815-.475a2.486 2.486 0 012.252 0z" fill="#232323"/></g></g></g><g data-name="Group 578"><g data-name="Group 561" style="isolation:isolate"><g data-name="Group 558"><path data-name="Path 942" d="M161.184 99.571l-3.1-1.8-.026-9.316 3.1 1.8z" fill="#33b4ff"/></g><g data-name="Group 559"><path data-name="Path 943" d="M161.158 90.258l-3.1-1.8 7.8-4.5 3.1 1.8z" fill="#5c82ff"/></g><g data-name="Group 560"><path data-name="Path 944" d="M168.954 85.756l.027 9.316-7.8 4.5-.026-9.316z" fill="#396caa"/></g></g><g data-name="Group 565" style="isolation:isolate"><g data-name="Group 562"><path data-name="Path 945" d="M135.254 96.87l-3.1-1.8-.026-9.316 3.1 1.8z" fill="#33b4ff"/></g><g data-name="Group 563"><path data-name="Path 946" d="M135.228 87.554l-3.1-1.8 33.675-19.442 3.1 1.8z" fill="#5c82ff"/></g><g data-name="Group 564"><path data-name="Path 947" d="M168.902 68.11l.027 9.316-33.677 19.444-.026-9.316z" fill="#396caa"/></g></g><g data-name="Group 569" style="isolation:isolate"><g data-name="Group 566"><path data-name="Path 948" d="M150.482 70.405l-3.1-1.8-.026-9.316 3.1 1.8z" fill="#33b4ff"/></g><g data-name="Group 567"><path data-name="Path 949" d="M150.456 61.09l-3.1-1.8 18.4-10.622 3.1 1.8z" fill="#5c82ff"/></g><g data-name="Group 568"><path data-name="Path 950" d="M168.854 50.467l.027 9.316-18.4 10.622-.026-9.316z" fill="#396caa"/></g></g><g data-name="Group 573" style="isolation:isolate"><g data-name="Group 570"><path data-name="Path 951" d="M125.176 67.342l-3.1-1.8-.026-9.316 3.1 1.8z" fill="#33b4ff"/></g><g data-name="Group 571"><path data-name="Path 952" d="M125.15 58.026l-3.1-1.8 43.653-25.2 3.1 1.8z" fill="#5c82ff"/></g><g data-name="Group 572"><path data-name="Path 953" d="M168.804 32.822l.027 9.316-43.654 25.2-.026-9.316z" fill="#396caa"/></g></g><g data-name="Group 577" style="isolation:isolate"><g data-name="Group 574"><path data-name="Path 954" d="M114.838 55.633l-3.1-1.8-.026-9.316 3.1 1.8z" fill="#33b4ff"/></g><g data-name="Group 575"><path data-name="Path 955" d="M114.811 46.317l-3.1-1.8 53.941-31.143 3.1 1.8z" fill="#5c82ff"/></g><g data-name="Group 576"><path data-name="Path 956" d="M168.753 15.174l.027 9.316-53.941 31.143-.027-9.316z" fill="#396caa"/></g></g></g><g data-name="Group 581"><g data-name="Group 579"><path data-name="Path 957" d="M255.647 64.839c-9.578-5.53-18.645-4.118-22.39 4.6-4.688 10.9.642 29.25 11.927 41.944l2.617-6.1c-7.644-8.919-11.2-21.525-7.961-29.059 2.643-6.144 9.032-7.137 15.785-3.238a27.483 27.483 0 014.953 3.72l2.619-6.1a39.585 39.585 0 00-7.55-5.767z" fill="#fffaf0"/></g><g data-name="Group 580"><path data-name="Path 958" d="M263.196 70.612l-2.616 6.09c.412.385.825.788 1.231 1.21 8.689 8.953 12.933 22.706 9.485 30.729-.127.286-.26.563-.4.835a3 3 0 01-.161.287c-2.513 4.424-7.328 5.5-12.667 3.364a19.561 19.561 0 01-2.536-1.241 21.843 21.843 0 01-.686-.412c-.417-.259-.736-.476-1.048-.688l-.143-.1a27.262 27.262 0 01-2.052-1.6c-.082-.073-.17-.149-.258-.225q-.379-.333-.757-.684a34.141 34.141 0 01-1.261-1.227c-.526-.544-1.03-1.1-1.524-1.669l-2.618 6.1c.5.56 1 1.116 1.524 1.651q.7.716 1.4 1.379c.133.127.264.254.4.376.357.332.719.656 1.08.971a39.276 39.276 0 003.28 2.583c.077.057.154.108.231.158.445.314.889.6 1.328.881l.153.095q.454.282.906.543 1.078.622 2.146 1.13c.538.255 1.043.47 1.548.673 8.146 3.231 15.436 1.191 18.7-6.4 4.893-11.379-1.133-30.9-13.452-43.6q-.616-.622-1.233-1.209z" fill="#574baa"/></g></g><g data-name="Group 599"><g data-name="Group 583"><g data-name="Group 582"><path data-name="Path 959" d="M195.199 27.957v57.215l28.6 16.515V44.472z" fill="#fff"/></g></g><g data-name="Group 584"><path data-name="Path 960" d="M199.25 36.234v11.443l5.721 3.3V39.534z" fill="#dcdcdc"/></g><g data-name="Group 589"><g data-name="Group 585"><path data-name="Path 961" d="M204.585 69.873v.76a.582.582 0 01-.873.5l-3.591-2.068a.582.582 0 01-.291-.5v-.76a.582.582 0 01.873-.5l3.59 2.068a.585.585 0 01.292.5z" fill="#dcdcdc"/></g><g data-name="Group 586"><path data-name="Path 962" d="M215.954 80.161v.761a.582.582 0 01-.872.5l-14.958-8.576a.58.58 0 01-.293-.5v-.761a.582.582 0 01.871-.5l14.959 8.576a.581.581 0 01.293.5z" fill="#dcdcdc"/></g><g data-name="Group 587"><path data-name="Path 963" d="M209.788 84.191v.761a.581.581 0 01-.871.5l-8.791-5.04a.58.58 0 01-.293-.5v-.761a.582.582 0 01.871-.5l8.792 5.04a.583.583 0 01.292.5z" fill="#dcdcdc" opacity=".53"/></g><g data-name="Group 588"><path data-name="Path 964" d="M213.635 82.615v.761a.582.582 0 01-.872.5l-12.639-7.245a.583.583 0 01-.292-.5v-.761a.581.581 0 01.871-.5l12.64 7.245a.581.581 0 01.292.5z" fill="#dcdcdc" opacity=".3"/></g></g><path data-name="Path 965" d="M199.489 62.2l1.907-2.86 1.311 1.073 2.979-5.125 2.622 1.669 1.669-.358 4.052-5.721 1.907 1.549 3.695-3.575" fill="none" stroke="#574baa" stroke-miterlimit="10" stroke-width=".5"/><g data-name="Group 592"><g data-name="Group 590"><path data-name="Path 966" d="M219.519 47.802c-.657-.379-1.193-.074-1.2.682a2.614 2.614 0 001.188 2.053c.657.38 1.191.076 1.192-.679a2.617 2.617 0 00-1.18-2.056z" fill="#ff5668"/></g><g data-name="Group 591"><path data-name="Path 967" d="M219.516 48.552c-.3-.172-.539-.033-.54.308a1.185 1.185 0 00.537.929c.3.171.539.034.54-.308a1.181 1.181 0 00-.537-.929z" fill="#ff5668"/></g></g><g data-name="Group 595"><g data-name="Group 593"><path data-name="Path 968" d="M205.456 54.016c-.657-.379-1.193-.074-1.2.681a2.616 2.616 0 001.188 2.054c.657.379 1.191.076 1.192-.679a2.613 2.613 0 00-1.18-2.056z" fill="#5c82ff"/></g><g data-name="Group 594"><path data-name="Path 969" d="M205.453 54.767c-.3-.172-.54-.034-.54.308a1.18 1.18 0 00.537.929c.3.172.538.035.539-.307a1.182 1.182 0 00-.536-.93z" fill="#5c82ff"/></g></g><g data-name="Group 598"><g data-name="Group 596"><path data-name="Path 970" d="M212.915 62.983c-1.782-1.029-3.469-.766-4.166.855-.872 2.028.119 5.442 2.219 7.8l.487-1.134c-1.422-1.659-2.084-4-1.481-5.406.492-1.143 1.68-1.327 2.936-.6a5.176 5.176 0 01.922.692l.487-1.134a7.376 7.376 0 00-1.404-1.073z" fill="#dcdcdc"/></g><g data-name="Group 597"><path data-name="Path 971" d="M214.319 64.056l-.487 1.133c.077.071.153.146.229.225 1.617 1.666 2.406 4.224 1.765 5.717a2.467 2.467 0 01-.075.155l-.03.053a1.749 1.749 0 01-2.356.626 3.509 3.509 0 01-.472-.231l-.128-.077c-.078-.048-.137-.089-.194-.128l-.027-.018a4.39 4.39 0 01-.382-.3l-.047-.041a4.178 4.178 0 01-.141-.128l-.052-.048a6.161 6.161 0 01-.467-.49l-.487 1.134c.093.1.186.208.283.308a7.626 7.626 0 00.336.326c.067.062.133.122.2.181l.068.059c.181.153.362.295.543.421.014.011.028.02.043.03.082.058.165.111.247.163l.029.018a5.124 5.124 0 00.857.436c1.516.6 2.871.221 3.479-1.19.909-2.116-.211-5.748-2.5-8.11-.081-.076-.158-.151-.234-.224z" fill="#a6a8ab"/></g></g></g><g data-name="Group 612"><g data-name="Group 603" style="isolation:isolate"><g data-name="Group 600"><path data-name="Path 972" d="M67.962 123.697l-7.964-4.628-.051-18.113 7.964 4.628z" fill="#33b4ff"/></g><g data-name="Group 601"><path data-name="Path 973" d="M67.91 105.585l-7.964-4.628 6.947-4.011 7.964 4.628z" fill="#5c82ff"/></g><g data-name="Group 602"><path data-name="Path 974" d="M74.858 101.573l.051 18.113-6.948 4.011-.051-18.113z" fill="#396caa"/></g></g><g data-name="Group 607" style="isolation:isolate"><g data-name="Group 604"><path data-name="Path 975" d="M54.803 131.29l-7.964-4.628-.094-33.159 7.964 4.628z" fill="#33b4ff"/></g><g data-name="Group 605"><path data-name="Path 976" d="M54.71 98.135l-7.964-4.628 6.948-4.011 7.964 4.628z" fill="#5c82ff"/></g><g data-name="Group 606"><path data-name="Path 977" d="M61.658 94.124l.094 33.159-6.948 4.011-.094-33.163z" fill="#396caa"/></g></g><g data-name="Group 611" style="isolation:isolate"><g data-name="Group 608"><path data-name="Path 978" d="M41.644 138.892l-7.964-4.628-.022-7.676 7.964 4.628z" fill="#33b4ff"/></g><g data-name="Group 609"><path data-name="Path 979" d="M41.623 131.219l-7.964-4.628 6.947-4.011 7.964 4.628z" fill="#5c82ff"/></g><g data-name="Group 610"><path data-name="Path 980" d="M48.573 127.204l.022 7.676-6.947 4.011-.022-7.676z" fill="#396caa"/></g></g></g><g data-name="Group 615"><path data-name="Path 981" d="M370.349 149.953l-.993-42.415a.414.414 0 00-.215-.352l-59.286-32.4a.413.413 0 00-.612.372l.993 42.414a.415.415 0 00.216.353l59.287 32.4a.413.413 0 00.61-.372z" fill="#206187"/><g data-name="Group 614"><g data-name="Group 613"><path data-name="Path 982" d="M356.333 118.252a6.527 6.527 0 01.8.552c4.3 3.425 4.659 14.836 4.678 15.436l-44.876-25.909c2.668 1.3 3.287.013 4.518-.7a.936.936 0 01.963.108c1.221.7 2.87 3.108 4.771 4.387.063.043.124.081.184.116a2.347 2.347 0 002.464-.173 2.573 2.573 0 012.723-.025 6.455 6.455 0 011.4 1.156 10.384 10.384 0 002.041 1.8c1.4.806 1.57-.624 3.089-1.663 1.085-.746 2.4-.57 3.907.3a21.839 21.839 0 014.5 3.845 4.867 4.867 0 001.082.886c1.309.756 2.421.248 3.615-.211a4.3 4.3 0 014.141.095z" fill="#fff"/></g></g></g><g data-name="Group 619"><g data-name="Group 618" style="isolation:isolate"><g data-name="Group 616"><path data-name="Path 983" d="M268.612 271.1l-45.872-26.658 40.772-23.54 45.872 26.658z" fill="#848484"/></g><path data-name="Path 984" d="M222.735 244.443l45.877 26.658 28.456-16.429-45.872-26.658z" fill="#464647"/><path data-name="Path 985" d="M222.735 244.443l45.872 26.658 12.256-7.076-45.872-26.658z" fill="#848484"/><path data-name="Path 986" d="M263.687 279.624a7.527 7.527 0 01.091-1.131l.03-.178a9.258 9.258 0 01.249-1.076l.031-.1a11 11 0 01.429-1.165l.01-.022a12.2 12.2 0 01.583-1.153l.017-.031a11.975 11.975 0 01.689-1.054l.068-.093a10.967 10.967 0 01.721-.867 9.078 9.078 0 01.786-.756c.1-.084.189-.173.287-.252a7.618 7.618 0 01.927-.644l-45.872-26.657a7.62 7.62 0 00-.928.644c-.1.078-.188.167-.284.25-.146.127-.3.245-.437.383-.064.063-.124.133-.187.2l-.163.174c-.054.059-.128.131-.188.2q-.207.237-.4.488c-.046.058-.088.12-.132.179l-.069.092c-.042.058-.087.115-.128.174q-.148.21-.286.426c-.088.137-.173.277-.256.417l-.019.036-.019.034c-.065.115-.131.23-.193.347a10.835 10.835 0 00-.389.805l-.009.021-.011.022a12.144 12.144 0 00-.348.91c-.026.078-.047.156-.072.234l-.031.1c-.017.057-.036.112-.051.169q-.079.283-.139.567c-.025.114-.039.227-.059.341l-.03.178c-.009.059-.021.11-.028.164a7.226 7.226 0 00-.063.966 4.692 4.692 0 00.389 1.974 2.634 2.634 0 001.051 1.192l45.872 26.658a3.454 3.454 0 01-1.439-3.166z" fill="#464647"/><g data-name="Group 617"><path data-name="Path 987" d="M309.381 247.56l.032 11.346-40.774 23.54c-2.725 1.574-4.944.31-4.952-2.822a10.845 10.845 0 014.92-8.524z" fill="#382747"/></g></g></g><g data-name="Group 623"><g data-name="Group 620"><ellipse data-name="Ellipse 28" cx="22.329" cy="12.129" rx="22.329" ry="12.129" fill="#94a3c0" opacity=".32" style="mix-blend-mode:multiply;isolation:isolate" transform="translate(244.458 233.268)"/></g><g data-name="Group 622"><path data-name="Path 988" d="M286.915 239.471c-.157 2.863-2.1 5.225-4.336 6.849a24.2 24.2 0 01-9.66 3.844 32.7 32.7 0 01-10.8.2 25.7 25.7 0 01-10-3.4c-2.775-1.732-5.391-4.483-5.381-7.958a13.185 13.185 0 00.528 5.139c1.156 2.852 3.821 4.853 6.5 6.182a27.915 27.915 0 009.406 2.612 31.413 31.413 0 009.926-.358c4.34-.944 8.954-2.482 11.885-6.032a8.037 8.037 0 001.925-4.477c.067-.98.028-1.97.032-2.952-.013.116-.013.234-.025.351z" fill="#396caa"/><g data-name="Group 621"><path data-name="Path 989" d="M1697.77-147.6c7.875 4.548 7.917 11.916.092 16.464s-20.547 4.547-28.422 0-7.917-11.916-.093-16.464 20.547-4.546 28.423 0z" transform="translate(-1416.775 378.427)" fill="url(#l)"/></g><path data-name="Path 990" d="M279.072 231.945c6.806 3.93 6.843 10.3.08 14.229s-17.757 3.929-24.564 0-6.842-10.3-.08-14.229 17.757-3.929 24.564 0z" fill="#396caa"/><path data-name="Path 991" d="M1696.11-145.016c-6.806-3.93-17.8-3.93-24.564 0-3.106 1.8-4.774 4.125-5.013 6.487.246 2.38 1.943 4.722 5.094 6.542 6.806 3.93 17.8 3.93 24.564 0 3.106-1.806 4.774-4.126 5.014-6.488-.247-2.38-1.944-4.725-5.095-6.541z" transform="translate(-1417.039 378.162)" fill="url(#l)"/></g></g></svg>