<svg xmlns="http://www.w3.org/2000/svg" width="120" height="105.027"><g data-name="Group 632"><g data-name="Rectangle 48" fill="none" stroke="#214c85" stroke-linecap="round" stroke-linejoin="round" stroke-width="5"><path d="M20.801 40.549H82.48v43.298H20.801z" stroke="none"/><path d="M18.301 38.049H84.98v48.298H18.301z"/></g><g data-name="Group 3010" transform="translate(-53.86 -84.204)" fill="#214c85"><path data-name="Path 5489" d="M119.042 149.599a2.325 2.325 0 00-3.278 0l-5.347 5.347-9.974-9.974a2.325 2.325 0 00-3.278 0L80.89 161.249a2.325 2.325 0 001.627 3.952h46.5a2.325 2.325 0 001.651-3.976z"/><circle data-name="Ellipse 35" cx="6.975" cy="6.975" r="6.975" transform="translate(105.766 128)"/></g></g><path data-name="Path 1018" d="M20.24 100.64a11.419 11.419 0 002.443-2.052l2.569 1.483 2.339-4.052-2.564-1.48a11.281 11.281 0 00.554-3.145l2.919-.517-.816-4.6-2.916.514a11.341 11.341 0 00-1.6-2.762l1.906-2.271-3.583-3.011-1.9 2.27a11.26 11.26 0 00-3-1.095v-2.96h-4.682v2.96a11.262 11.262 0 00-3 1.095l-1.9-2.27-3.587 3.007 1.906 2.271a11.346 11.346 0 00-1.6 2.762l-2.916-.51-.812 4.6 2.916.514a11.284 11.284 0 00.554 3.145L.906 96.02l2.339 4.051 2.569-1.483a11.419 11.419 0 002.443 2.052l-1.014 2.786 4.4 1.6 1.013-2.782a11.341 11.341 0 003.194 0l1.013 2.782 4.4-1.6zm-5.992-3.648a5.974 5.974 0 115.974-5.974 5.981 5.981 0 01-5.974 5.974z" fill="#214c85"/><path data-name="Union 4" d="M116.078 30.515l-.116-.201-15.958 3.96a7.988 7.988 0 01-14.874 4.798 8.142 8.142 0 01-.485-.984l-2.77.687a1.775 1.775 0 01-3.086 1.753l-5.77-9.994a1.776 1.776 0 013.062-1.797l24.37-25.29-.117-.202a1.777 1.777 0 013.075-1.775l15.744 27.27a1.777 1.777 0 01-3.075 1.775zm-27.873 6.781a4.433 4.433 0 008.274-2.15l-8.32 2.07.046.08z" fill="#214c85"/></svg>