<svg xmlns="http://www.w3.org/2000/svg" width="120" height="105.027" viewBox="0 0 120 105.027">
  <g id="display-ads" transform="translate(-2.005 8)">
    <g id="Group_632" data-name="Group 632" transform="translate(22.806 32.549)">
      <g id="Rectangle_48" data-name="Rectangle 48" transform="translate(0)" fill="none" stroke="#214c85" stroke-linecap="round" stroke-linejoin="round" stroke-width="5">
        <rect width="61.679" height="43.298" stroke="none"/>
        <rect x="-2.5" y="-2.5" width="66.679" height="48.298" fill="none"/>
      </g>
      <g id="Group_3010" data-name="Group 3010" transform="translate(-74.661 -124.753)">
        <path id="Path_5489" data-name="Path 5489" d="M119.042,245.45a2.325,2.325,0,0,0-3.278,0l-5.347,5.347-9.974-9.974a2.325,2.325,0,0,0-3.278,0L80.89,257.1a2.325,2.325,0,0,0,1.627,3.952h46.5a2.325,2.325,0,0,0,1.651-3.976Z" transform="translate(0 -95.851)" fill="#214c85"/>
        <circle id="Ellipse_35" data-name="Ellipse 35" cx="6.975" cy="6.975" r="6.975" transform="translate(105.766 128)" fill="#214c85"/>
      </g>
    </g>
    <path id="Path_1018" data-name="Path 1018" d="M20.24,37.063a11.419,11.419,0,0,0,2.443-2.052l2.569,1.483,2.339-4.052-2.564-1.48a11.281,11.281,0,0,0,.554-3.145L28.5,27.3,27.684,22.7l-2.916.514a11.341,11.341,0,0,0-1.6-2.762l1.906-2.271L21.491,15.17l-1.9,2.27a11.26,11.26,0,0,0-3-1.095v-2.96H11.909v2.96a11.262,11.262,0,0,0-3,1.095l-1.9-2.27L3.422,18.177l1.906,2.271a11.346,11.346,0,0,0-1.6,2.762L.812,22.7,0,27.3l2.916.514a11.284,11.284,0,0,0,.554,3.145L.906,32.443l2.339,4.051,2.569-1.483a11.419,11.419,0,0,0,2.443,2.052L7.243,39.849l4.4,1.6,1.013-2.782a11.341,11.341,0,0,0,3.194,0l1.013,2.782,4.4-1.6Zm-5.992-3.648a5.974,5.974,0,1,1,5.974-5.974A5.981,5.981,0,0,1,14.248,33.415Z" transform="translate(2.005 55.577)" fill="#214c85"/>
    <g id="broadcast" transform="translate(69.186 12.423) rotate(-30)">
      <path id="Union_4" data-name="Union 4" d="M37.3,33.188v-.232l-15.8-4.55A7.988,7.988,0,0,1,6.22,25.125a8.142,8.142,0,0,1,.072-1.095l-2.742-.789A1.775,1.775,0,0,1,0,23.215V11.675a1.775,1.775,0,0,1,3.551-.025L37.3,1.934V1.7a1.777,1.777,0,0,1,3.551,0V33.188a1.777,1.777,0,0,1-3.551,0ZM9.771,25.125A4.433,4.433,0,0,0,18.011,27.4L9.772,25.032Q9.771,25.078,9.771,25.125Z" transform="translate(0 0)" fill="#214c85"/>
    </g>
  </g>
</svg>
