<svg xmlns="http://www.w3.org/2000/svg" width="306.958" height="288.831" viewBox="0 0 306.958 288.831">
  <g id="ent-sol" transform="translate(-1048.285 204.315)">
    <g id="Group_1738" data-name="Group 1738" transform="translate(1096.685 -188.619)">
      <g id="Group_1737" data-name="Group 1737">
        <g id="Group_1735" data-name="Group 1735" transform="translate(90.061)">
          <path id="Path_2871" data-name="Path 2871" d="M1325.8-116.518l-122.448-70.637a4.692,4.692,0,0,0-4.192-.564l0-.014-.2.093-.049.023-3.986,1.875,4.328,2.154c0,.082-.009.157-.009.239l.037,100.572c0,5.033,3.118,10.909,6.958,13.125L1325.421-.9l.677,5.609,4.353-2.076c1.434-.842,2.342-2.746,2.341-5.457l-.038-100.572C1332.752-108.427,1329.637-114.3,1325.8-116.518Z" transform="translate(-1192.366 187.993)" fill="#545cb3"/>
          <path id="Path_2872" data-name="Path 2872" d="M1325.8-116.518l-122.448-70.637a4.692,4.692,0,0,0-4.192-.564l0-.014-.2.093-.049.023-3.986,1.875,4.328,2.154c0,.082-.009.157-.009.239l.024,66.283,55.727,44.029,75.663-38.078A13.722,13.722,0,0,0,1325.8-116.518Z" transform="translate(-1192.366 187.993)" fill="#374999"/>
          <path id="Path_2873" data-name="Path 2873" d="M1332.661-112.024l-12,5.048,9.06,6.98,7.566-3.221A17.607,17.607,0,0,0,1332.661-112.024Z" transform="translate(-1197.185 185.082)" fill="#2c5289"/>
          <path id="Path_2874" data-name="Path 2874" d="M1321.707,4.255,1199.259-66.382c-3.841-2.216-6.956-8.092-6.958-13.125l-.037-100.571c0-5.033,3.11-7.317,6.951-5.1l122.448,70.637c3.841,2.216,6.956,8.092,6.958,13.125l.038,100.572C1328.66,4.185,1325.548,6.469,1321.707,4.255Z" transform="translate(-1192.264 187.918)" fill="#8dd6f2"/>
          <path id="Path_2875" data-name="Path 2875" d="M1317.818-2.932,1203.457-68.871c-3.514-2.027-6.365-7.4-6.366-12.01l-.035-92.031c0-4.606,2.847-6.7,6.361-4.669l114.361,65.939c3.514,2.027,6.364,7.4,6.366,12.01l.035,92.031C1324.18-3,1321.332-.9,1317.818-2.932Z" transform="translate(-1192.448 187.624)" fill="#fff"/>
          <path id="Path_2876" data-name="Path 2876" d="M1317.818-2.932,1203.457-68.871c-3.514-2.027-6.365-7.4-6.366-12.01l-.035-92.031c0-4.606,2.847-6.7,6.361-4.669l114.361,65.939c3.514,2.027,6.364,7.4,6.366,12.01l.035,92.031C1324.18-3,1321.332-.9,1317.818-2.932Z" transform="translate(-1192.448 187.624)" fill="#fff"/>
        </g>
        <path id="Path_2877" data-name="Path 2877" d="M1319.947,12.5l-16.467-2.174L1197.189-51.042c-3.408-1.968-9.36-1.72-13.3.551l-75.318,43.47-9.957-1.315v5.649l.01,0A3.876,3.876,0,0,0,1100.914.8l120.46,69.548c3.408,1.968,9.36,1.72,13.3-.551l82.025-47.341c2.214-1.278,3.317-2.924,3.252-4.471h0Z" transform="translate(-1098.614 182.796)" fill="#545cb3"/>
        <path id="Path_2878" data-name="Path 2878" d="M1240.082-25.411l-7.551-4.36h-83.025L1108.575-6.155l-9.957-1.315v5.649l.01,0a3.876,3.876,0,0,0,2.286,3.489l120.46,69.548a12.466,12.466,0,0,0,6.861,1.286Z" transform="translate(-1098.614 181.929)" fill="#374999"/>
        <path id="Path_2879" data-name="Path 2879" d="M1103.037-6l-4.419-.583V-.932l.01,0a3.876,3.876,0,0,0,2.286,3.489l2.123,1.226Z" transform="translate(-1098.614 181.041)" fill="#39b3e3"/>
        <path id="Path_2880" data-name="Path 2880" d="M1227.529,75.3a15.425,15.425,0,0,0,11.3-.7V62h-11.3Z" transform="translate(-1103.554 178.412)" fill="#2c5289"/>
        <path id="Path_2881" data-name="Path 2881" d="M1221.375,64.337,1100.914-5.211c-3.408-1.968-2.98-5.4.954-7.676l82.025-47.341c3.935-2.271,9.887-2.519,13.3-.551l120.46,69.548c3.408,1.968,2.98,5.4-.954,7.676l-82.025,47.34C1230.735,66.057,1224.783,66.3,1221.375,64.337Z" transform="translate(-1098.614 183.169)" fill="#8dd6f2"/>
        <path id="Path_2882" data-name="Path 2882" d="M1316.695,16.474,1234.67,63.815c-3.935,2.271-9.887,2.519-13.3.551L1100.915-5.182A4.479,4.479,0,0,1,1098.8-7.5c-.533,1.613.146,3.243,2.119,4.381l120.46,69.548c3.408,1.968,9.36,1.72,13.3-.551l82.025-47.341c2.645-1.527,3.7-3.579,3.073-5.359A6.4,6.4,0,0,1,1316.695,16.474Z" transform="translate(-1098.614 181.076)" fill="#fff"/>
        <g id="Group_1736" data-name="Group 1736" transform="translate(47.789 125.344)">
          <path id="Path_2883" data-name="Path 2883" d="M1154.052-27.208l-5.45-3.148c-.437-.252-.383-.693.122-.986l6.434-3.714a1.9,1.9,0,0,1,1.707-.07l5.451,3.147c.437.252.383.693-.123.986l-6.432,3.714A1.9,1.9,0,0,1,1154.052-27.208Z" transform="translate(-1148.307 56.798)" fill="#545cb3"/>
          <path id="Path_2884" data-name="Path 2884" d="M1162.805-22.155l-5.451-3.147c-.437-.253-.383-.694.123-.986L1163.91-30a1.9,1.9,0,0,1,1.708-.07l5.45,3.147c.438.253.383.694-.122.986l-6.434,3.714A1.894,1.894,0,0,1,1162.805-22.155Z" transform="translate(-1148.642 56.604)" fill="#545cb3"/>
          <path id="Path_2885" data-name="Path 2885" d="M1171.557-17.1l-5.45-3.147c-.438-.253-.383-.694.122-.986l6.434-3.714a1.9,1.9,0,0,1,1.707-.071l5.451,3.147c.438.253.383.694-.123.986l-6.433,3.715A1.9,1.9,0,0,1,1171.557-17.1Z" transform="translate(-1148.978 56.41)" fill="#545cb3"/>
          <path id="Path_2886" data-name="Path 2886" d="M1183.662-21.252l-5.45-3.147c-.437-.253-.383-.694.122-.986l5.4-3.118a1.894,1.894,0,0,1,1.707-.071l5.451,3.147c.438.253.383.694-.123.986l-5.4,3.118A1.9,1.9,0,0,1,1183.662-21.252Z" transform="translate(-1149.442 56.546)" fill="#545cb3"/>
          <path id="Path_2887" data-name="Path 2887" d="M1192.415-16.2l-5.451-3.147c-.438-.253-.383-.694.123-.986l5.4-3.118a1.9,1.9,0,0,1,1.708-.071l5.45,3.147c.438.253.383.694-.122.986l-5.4,3.119A1.9,1.9,0,0,1,1192.415-16.2Z" transform="translate(-1149.777 56.353)" fill="#545cb3"/>
          <path id="Path_2888" data-name="Path 2888" d="M1201.167-11.146l-5.45-3.147c-.437-.252-.383-.693.122-.986l5.4-3.118a1.9,1.9,0,0,1,1.707-.071l5.451,3.148c.438.252.383.693-.123.986l-5.4,3.118A1.9,1.9,0,0,1,1201.167-11.146Z" transform="translate(-1150.112 56.159)" fill="#545cb3"/>
          <path id="Path_2889" data-name="Path 2889" d="M1209.92-6.092l-5.451-3.148c-.437-.252-.383-.693.123-.986l5.4-3.118a1.9,1.9,0,0,1,1.708-.07l5.45,3.147c.438.253.383.693-.122.986l-5.4,3.118A1.9,1.9,0,0,1,1209.92-6.092Z" transform="translate(-1150.448 55.965)" fill="#545cb3"/>
          <path id="Path_2890" data-name="Path 2890" d="M1218.672-1.039l-5.45-3.147c-.439-.253-.383-.694.122-.986l5.4-3.119a1.9,1.9,0,0,1,1.707-.07l5.451,3.147c.438.253.383.694-.123.986l-5.4,3.118A1.894,1.894,0,0,1,1218.672-1.039Z" transform="translate(-1150.783 55.772)" fill="#545cb3"/>
          <path id="Path_2891" data-name="Path 2891" d="M1227.425,4.014,1221.974.868c-.437-.253-.383-.694.122-.986l5.4-3.118a1.894,1.894,0,0,1,1.707-.071l5.451,3.147c.437.253.382.694-.122.986l-5.4,3.119A1.9,1.9,0,0,1,1227.425,4.014Z" transform="translate(-1151.119 55.578)" fill="#545cb3"/>
          <path id="Path_2892" data-name="Path 2892" d="M1236.177,9.067l-5.451-3.147c-.438-.253-.383-.693.123-.986l5.4-3.118a1.9,1.9,0,0,1,1.707-.071l5.45,3.148c.439.252.383.693-.122.986L1237.884,9A1.9,1.9,0,0,1,1236.177,9.067Z" transform="translate(-1151.454 55.384)" fill="#545cb3"/>
          <path id="Path_2893" data-name="Path 2893" d="M1244.929,14.121l-5.45-3.148c-.438-.252-.383-.693.122-.986L1245,6.87a1.9,1.9,0,0,1,1.707-.07l5.451,3.147c.438.253.383.693-.123.986l-5.4,3.118A1.9,1.9,0,0,1,1244.929,14.121Z" transform="translate(-1151.79 55.191)" fill="#545cb3"/>
          <path id="Path_2894" data-name="Path 2894" d="M1253.682,19.174l-5.451-3.147c-.438-.253-.383-.694.123-.986l5.4-3.119a1.9,1.9,0,0,1,1.708-.07l5.45,3.147c.438.253.383.694-.122.986l-5.4,3.118A1.894,1.894,0,0,1,1253.682,19.174Z" transform="translate(-1152.125 54.997)" fill="#545cb3"/>
          <path id="Path_2895" data-name="Path 2895" d="M1262.434,24.227l-5.45-3.147c-.438-.253-.383-.694.122-.986l5.4-3.118a1.894,1.894,0,0,1,1.707-.071l5.451,3.147c.438.253.383.694-.123.986l-5.4,3.118A1.9,1.9,0,0,1,1262.434,24.227Z" transform="translate(-1152.461 54.803)" fill="#545cb3"/>
          <path id="Path_2896" data-name="Path 2896" d="M1196.558-23.644l-5.45-3.148c-.437-.252-.383-.693.122-.986l5.4-3.118a1.9,1.9,0,0,1,1.707-.07l5.451,3.147c.438.253.383.693-.123.986l-5.4,3.118A1.9,1.9,0,0,1,1196.558-23.644Z" transform="translate(-1149.936 56.638)" fill="#374999"/>
          <path id="Path_2897" data-name="Path 2897" d="M1187.675-28.773l-5.45-3.147c-.438-.253-.383-.694.122-.986l5.4-3.118a1.894,1.894,0,0,1,1.707-.071l5.451,3.147c.438.253.383.694-.123.986l-5.4,3.118A1.9,1.9,0,0,1,1187.675-28.773Z" transform="translate(-1149.595 56.835)" fill="#374999"/>
          <path id="Path_2898" data-name="Path 2898" d="M1178.527-34.054l-11.739-6.778c-.438-.252-.383-.693.123-.986l5.4-3.118a1.9,1.9,0,0,1,1.708-.07l11.738,6.777c.438.253.383.694-.122.986l-5.4,3.118A1.894,1.894,0,0,1,1178.527-34.054Z" transform="translate(-1149.004 57.176)" fill="#545cb3"/>
          <path id="Path_2899" data-name="Path 2899" d="M1184.835-40.25l-9.526-5.5c-.438-.252-.383-.693.123-.986l5.4-3.118a1.9,1.9,0,0,1,1.708-.07l9.526,5.5c.438.253.383.693-.123.986l-5.4,3.118A1.9,1.9,0,0,1,1184.835-40.25Z" transform="translate(-1149.33 57.365)" fill="#545cb3"/>
          <path id="Path_2900" data-name="Path 2900" d="M1205.311-18.591l-5.451-3.147c-.437-.253-.383-.694.123-.986l5.4-3.119a1.9,1.9,0,0,1,1.708-.07l5.45,3.147c.438.253.383.694-.122.986l-5.4,3.118A1.894,1.894,0,0,1,1205.311-18.591Z" transform="translate(-1150.271 56.444)" fill="#374999"/>
          <path id="Path_2901" data-name="Path 2901" d="M1214.063-13.538l-5.45-3.147c-.437-.253-.383-.694.122-.986l5.4-3.118a1.894,1.894,0,0,1,1.707-.071l5.451,3.147c.438.253.383.694-.123.986l-5.4,3.118A1.9,1.9,0,0,1,1214.063-13.538Z" transform="translate(-1150.607 56.251)" fill="#545cb3"/>
          <path id="Path_2902" data-name="Path 2902" d="M1222.816-8.485l-5.451-3.147c-.438-.253-.383-.694.123-.986l5.4-3.118a1.9,1.9,0,0,1,1.708-.071l5.45,3.147c.438.253.383.694-.122.986l-5.4,3.119A1.9,1.9,0,0,1,1222.816-8.485Z" transform="translate(-1150.942 56.057)" fill="#545cb3"/>
          <path id="Path_2903" data-name="Path 2903" d="M1231.568-3.432l-5.45-3.147c-.438-.252-.383-.693.122-.986l5.4-3.118a1.9,1.9,0,0,1,1.707-.07l5.451,3.147c.438.252.383.693-.123.986l-5.4,3.118A1.9,1.9,0,0,1,1231.568-3.432Z" transform="translate(-1151.278 55.863)" fill="#545cb3"/>
          <path id="Path_2904" data-name="Path 2904" d="M1240.321,1.622l-5.451-3.147c-.437-.253-.383-.694.123-.986l5.4-3.119a1.9,1.9,0,0,1,1.708-.07l5.45,3.147c.438.253.383.694-.122.986l-5.4,3.118A1.9,1.9,0,0,1,1240.321,1.622Z" transform="translate(-1151.613 55.67)" fill="#545cb3"/>
          <path id="Path_2905" data-name="Path 2905" d="M1249.073,6.675l-5.45-3.147c-.437-.253-.383-.694.122-.986l5.4-3.118a1.894,1.894,0,0,1,1.707-.071L1256.3,2.5c.437.253.383.694-.123.986l-5.4,3.118A1.9,1.9,0,0,1,1249.073,6.675Z" transform="translate(-1151.949 55.476)" fill="#545cb3"/>
          <path id="Path_2906" data-name="Path 2906" d="M1257.826,11.728l-5.451-3.147c-.438-.253-.383-.694.123-.986l5.4-3.118a1.9,1.9,0,0,1,1.708-.071l5.45,3.147c.438.253.383.694-.122.986l-5.4,3.119A1.9,1.9,0,0,1,1257.826,11.728Z" transform="translate(-1152.284 55.283)" fill="#545cb3"/>
          <path id="Path_2907" data-name="Path 2907" d="M1266.578,16.781l-5.45-3.147c-.438-.252-.383-.693.122-.986l5.4-3.118a1.9,1.9,0,0,1,1.707-.071l5.451,3.148c.438.252.383.693-.123.986l-5.4,3.118A1.9,1.9,0,0,1,1266.578,16.781Z" transform="translate(-1152.62 55.089)" fill="#545cb3"/>
          <path id="Path_2908" data-name="Path 2908" d="M1275.331,21.835l-5.451-3.148c-.438-.252-.383-.693.122-.986l5.4-3.118a1.9,1.9,0,0,1,1.707-.07l5.451,3.147c.438.253.383.693-.122.986l-5.4,3.118A1.9,1.9,0,0,1,1275.331,21.835Z" transform="translate(-1152.955 54.895)" fill="#545cb3"/>
          <path id="Path_2909" data-name="Path 2909" d="M1290.633,30.67,1278.741,23.8c-.437-.253-.383-.694.123-.986l5.4-3.119a1.9,1.9,0,0,1,1.708-.07l11.892,6.865c.438.253.383.694-.123.986l-5.4,3.119A1.9,1.9,0,0,1,1290.633,30.67Z" transform="translate(-1153.295 54.699)" fill="#545cb3"/>
          <path id="Path_2910" data-name="Path 2910" d="M1307.747,20.875l-10.037-5.8c-.438-.253-.383-.694.122-.986l5.4-3.118a1.9,1.9,0,0,1,1.707-.071l10.038,5.8c.438.253.383.694-.123.986l-5.4,3.119A1.9,1.9,0,0,1,1307.747,20.875Z" transform="translate(-1154.021 55.033)" fill="#545cb3"/>
          <path id="Path_2911" data-name="Path 2911" d="M1220.638-19.58l-5.45-3.147c-.438-.253-.383-.694.122-.986l5.4-3.118a1.894,1.894,0,0,1,1.707-.071l5.451,3.147c.438.253.383.694-.123.986l-5.4,3.118A1.9,1.9,0,0,1,1220.638-19.58Z" transform="translate(-1150.859 56.482)" fill="#545cb3"/>
          <path id="Path_2912" data-name="Path 2912" d="M1211.668-24.759l-5.45-3.147c-.437-.253-.383-.694.122-.986l5.4-3.118a1.894,1.894,0,0,1,1.707-.071l5.451,3.147c.438.253.383.694-.123.986l-5.4,3.119A1.9,1.9,0,0,1,1211.668-24.759Z" transform="translate(-1150.515 56.681)" fill="#545cb3"/>
          <path id="Path_2913" data-name="Path 2913" d="M1202.7-29.938l-5.451-3.147c-.438-.253-.383-.694.123-.986l5.4-3.118a1.9,1.9,0,0,1,1.707-.071l5.45,3.147c.439.253.383.694-.122.986l-5.4,3.119A1.9,1.9,0,0,1,1202.7-29.938Z" transform="translate(-1150.171 56.879)" fill="#374999"/>
          <path id="Path_2914" data-name="Path 2914" d="M1193.728-35.117l-5.451-3.147c-.438-.253-.383-.694.123-.986l5.4-3.118a1.9,1.9,0,0,1,1.708-.071l5.45,3.147c.438.253.383.694-.122.987l-5.4,3.118A1.9,1.9,0,0,1,1193.728-35.117Z" transform="translate(-1149.828 57.078)" fill="#545cb3"/>
          <path id="Path_2915" data-name="Path 2915" d="M1229.391-14.527l-5.451-3.147c-.438-.253-.383-.694.123-.986l5.4-3.118a1.9,1.9,0,0,1,1.708-.071l5.45,3.148c.438.252.383.693-.122.986l-5.4,3.118A1.9,1.9,0,0,1,1229.391-14.527Z" transform="translate(-1151.194 56.289)" fill="#545cb3"/>
          <path id="Path_2916" data-name="Path 2916" d="M1238.143-9.473l-5.45-3.148c-.438-.252-.383-.693.122-.986l5.4-3.118a1.9,1.9,0,0,1,1.707-.07l5.451,3.147c.437.252.383.693-.123.986l-5.4,3.118A1.9,1.9,0,0,1,1238.143-9.473Z" transform="translate(-1151.53 56.095)" fill="#545cb3"/>
          <path id="Path_2917" data-name="Path 2917" d="M1246.9-4.42l-5.451-3.147c-.438-.253-.383-.694.123-.986l5.4-3.119a1.9,1.9,0,0,1,1.708-.07l5.45,3.147c.438.253.383.694-.122.986l-5.4,3.118A1.894,1.894,0,0,1,1246.9-4.42Z" transform="translate(-1151.865 55.901)" fill="#545cb3"/>
          <path id="Path_2918" data-name="Path 2918" d="M1255.648.633l-5.45-3.147c-.437-.253-.383-.694.122-.986l5.4-3.118a1.894,1.894,0,0,1,1.707-.071l5.451,3.147c.438.253.383.694-.123.986l-5.4,3.118A1.9,1.9,0,0,1,1255.648.633Z" transform="translate(-1152.201 55.708)" fill="#545cb3"/>
          <path id="Path_2919" data-name="Path 2919" d="M1264.4,5.686,1258.95,2.54c-.438-.253-.383-.694.123-.986l5.4-3.118a1.9,1.9,0,0,1,1.708-.071l5.45,3.147c.438.253.383.694-.122.986l-5.4,3.119A1.9,1.9,0,0,1,1264.4,5.686Z" transform="translate(-1152.536 55.514)" fill="#545cb3"/>
          <path id="Path_2920" data-name="Path 2920" d="M1273.153,10.739l-5.45-3.147c-.438-.252-.383-.693.122-.986l5.4-3.118a1.9,1.9,0,0,1,1.707-.071l5.451,3.148c.438.252.383.693-.123.986l-5.4,3.118A1.9,1.9,0,0,1,1273.153,10.739Z" transform="translate(-1152.871 55.32)" fill="#545cb3"/>
          <path id="Path_2921" data-name="Path 2921" d="M1281.906,15.793l-5.451-3.147c-.438-.253-.383-.694.122-.986l5.4-3.119a1.9,1.9,0,0,1,1.707-.07l5.451,3.147c.438.253.383.694-.122.986l-5.4,3.118A1.9,1.9,0,0,1,1281.906,15.793Z" transform="translate(-1153.207 55.127)" fill="#545cb3"/>
          <path id="Path_2922" data-name="Path 2922" d="M1290.658,20.846l-5.451-3.147c-.437-.253-.383-.694.123-.986l5.4-3.118a1.894,1.894,0,0,1,1.707-.071l5.45,3.147c.438.253.383.694-.122.986l-5.4,3.118A1.894,1.894,0,0,1,1290.658,20.846Z" transform="translate(-1153.542 54.933)" fill="#545cb3"/>
          <path id="Path_2923" data-name="Path 2923" d="M1299.41,25.9l-5.45-3.147c-.438-.253-.383-.694.122-.986l5.4-3.118a1.894,1.894,0,0,1,1.707-.071l5.451,3.147c.438.253.383.694-.123.986l-5.4,3.119A1.9,1.9,0,0,1,1299.41,25.9Z" transform="translate(-1153.878 54.739)" fill="#545cb3"/>
          <path id="Path_2924" data-name="Path 2924" d="M1216.03-32.079l-5.451-3.147c-.437-.253-.383-.694.123-.986l5.4-3.118a1.9,1.9,0,0,1,1.708-.071l5.45,3.147c.438.253.383.694-.122.986l-5.4,3.119A1.9,1.9,0,0,1,1216.03-32.079Z" transform="translate(-1150.682 56.961)" fill="#545cb3"/>
          <path id="Path_2925" data-name="Path 2925" d="M1207.321-37.107l-5.451-3.147c-.437-.253-.383-.694.123-.986l5.4-3.118a1.9,1.9,0,0,1,1.708-.071l5.45,3.147c.438.253.383.694-.122.986l-5.4,3.119A1.9,1.9,0,0,1,1207.321-37.107Z" transform="translate(-1150.348 57.154)" fill="#545cb3"/>
          <path id="Path_2926" data-name="Path 2926" d="M1198.612-42.135l-5.451-3.147c-.438-.253-.383-.694.123-.986l5.4-3.118a1.9,1.9,0,0,1,1.708-.071l5.45,3.147c.438.253.383.694-.122.986l-5.4,3.118A1.894,1.894,0,0,1,1198.612-42.135Z" transform="translate(-1150.015 57.347)" fill="#545cb3"/>
          <path id="Path_2927" data-name="Path 2927" d="M1189.9-47.163l-5.451-3.147c-.438-.253-.383-.694.123-.986l5.4-3.118a1.9,1.9,0,0,1,1.708-.071l5.45,3.147c.438.253.383.694-.122.986l-5.4,3.118A1.894,1.894,0,0,1,1189.9-47.163Z" transform="translate(-1149.681 57.54)" fill="#545cb3"/>
          <path id="Path_2928" data-name="Path 2928" d="M1198.858-52.249l-5.45-3.148c-.437-.252-.383-.693.122-.986l1.786-1.03a1.894,1.894,0,0,1,1.707-.071l5.451,3.147c.438.253.383.694-.123.986l-1.785,1.031A1.9,1.9,0,0,1,1198.858-52.249Z" transform="translate(-1150.024 57.655)" fill="#545cb3"/>
          <path id="Path_2929" data-name="Path 2929" d="M1210.223-45.688l-5.45-3.147c-.438-.253-.383-.694.122-.986l1.786-1.031a1.9,1.9,0,0,1,1.707-.07l5.451,3.147c.438.253.383.693-.123.986l-1.785,1.031A1.9,1.9,0,0,1,1210.223-45.688Z" transform="translate(-1150.46 57.403)" fill="#545cb3"/>
          <path id="Path_2930" data-name="Path 2930" d="M1218.9-40.681l-5.451-3.147c-.438-.253-.382-.693.123-.986l1.785-1.031a1.9,1.9,0,0,1,1.708-.07l5.45,3.147c.438.253.383.694-.122.986l-1.786,1.031A1.9,1.9,0,0,1,1218.9-40.681Z" transform="translate(-1150.792 57.211)" fill="#545cb3"/>
          <path id="Path_2931" data-name="Path 2931" d="M1227.569-35.674l-5.451-3.147c-.438-.252-.383-.693.123-.986l1.785-1.03a1.894,1.894,0,0,1,1.707-.071l5.451,3.147c.437.253.383.694-.123.986l-1.785,1.031A1.9,1.9,0,0,1,1227.569-35.674Z" transform="translate(-1151.124 57.019)" fill="#545cb3"/>
          <path id="Path_2932" data-name="Path 2932" d="M1236.241-30.666l-5.45-3.148c-.438-.252-.383-.693.122-.986l1.786-1.03a1.894,1.894,0,0,1,1.707-.071l5.451,3.147c.438.253.383.694-.123.986l-1.785,1.031A1.9,1.9,0,0,1,1236.241-30.666Z" transform="translate(-1151.457 56.827)" fill="#545cb3"/>
          <path id="Path_2933" data-name="Path 2933" d="M1284.659-2.712l-5.45-3.147c-.437-.253-.383-.694.122-.986l1.786-1.031a1.894,1.894,0,0,1,1.707-.071l5.45,3.147c.439.253.383.694-.122.986l-1.785,1.031A1.9,1.9,0,0,1,1284.659-2.712Z" transform="translate(-1153.313 55.756)" fill="#545cb3"/>
          <path id="Path_2934" data-name="Path 2934" d="M1293.332,2.295l-5.451-3.147c-.437-.253-.383-.694.123-.986l1.785-1.031a1.9,1.9,0,0,1,1.707-.071l5.451,3.147c.438.253.383.694-.122.986l-1.786,1.031A1.9,1.9,0,0,1,1293.332,2.295Z" transform="translate(-1153.645 55.564)" fill="#545cb3"/>
          <path id="Path_2935" data-name="Path 2935" d="M1302,7.3l-5.45-3.147c-.438-.253-.383-.694.122-.986l1.786-1.031a1.9,1.9,0,0,1,1.707-.071l5.451,3.148c.438.252.383.693-.123.986l-1.785,1.03A1.9,1.9,0,0,1,1302,7.3Z" transform="translate(-1153.977 55.372)" fill="#545cb3"/>
          <path id="Path_2936" data-name="Path 2936" d="M1310.677,12.309l-5.45-3.147c-.439-.253-.383-.694.122-.986l1.785-1.031a1.9,1.9,0,0,1,1.708-.07l5.45,3.147c.438.252.383.693-.122.986l-1.786,1.031A1.9,1.9,0,0,1,1310.677,12.309Z" transform="translate(-1154.309 55.18)" fill="#545cb3"/>
          <path id="Path_2937" data-name="Path 2937" d="M1224.782-27.026l-5.45-3.147c-.439-.252-.383-.693.122-.986l5.4-3.118a1.9,1.9,0,0,1,1.707-.071l5.451,3.148c.437.252.383.693-.123.986l-5.4,3.118A1.9,1.9,0,0,1,1224.782-27.026Z" transform="translate(-1151.017 56.768)" fill="#545cb3"/>
          <path id="Path_2938" data-name="Path 2938" d="M1233.535-21.972l-5.451-3.147c-.438-.253-.383-.694.122-.986l5.4-3.119a1.9,1.9,0,0,1,1.707-.07l5.451,3.147c.438.253.383.694-.122.986l-5.4,3.118A1.9,1.9,0,0,1,1233.535-21.972Z" transform="translate(-1151.353 56.574)" fill="#545cb3"/>
          <path id="Path_2939" data-name="Path 2939" d="M1242.287-16.919l-5.451-3.147c-.437-.253-.383-.694.123-.986l5.4-3.118a1.894,1.894,0,0,1,1.707-.071l5.45,3.147c.438.253.383.694-.122.986l-5.4,3.118A1.894,1.894,0,0,1,1242.287-16.919Z" transform="translate(-1151.688 56.38)" fill="#545cb3"/>
          <path id="Path_2940" data-name="Path 2940" d="M1251.039-11.866l-5.45-3.147c-.438-.253-.383-.694.122-.986l5.4-3.118a1.894,1.894,0,0,1,1.707-.071l5.451,3.147c.437.253.383.694-.123.986l-5.4,3.119A1.9,1.9,0,0,1,1251.039-11.866Z" transform="translate(-1152.024 56.187)" fill="#545cb3"/>
          <path id="Path_2941" data-name="Path 2941" d="M1259.792-6.813l-5.451-3.147c-.438-.253-.383-.693.123-.986l5.4-3.118a1.9,1.9,0,0,1,1.708-.071l5.45,3.148c.438.252.383.693-.122.986l-5.4,3.118A1.9,1.9,0,0,1,1259.792-6.813Z" transform="translate(-1152.359 55.993)" fill="#545cb3"/>
          <path id="Path_2942" data-name="Path 2942" d="M1268.544-1.759l-5.45-3.148c-.437-.252-.383-.693.122-.986l5.4-3.118a1.9,1.9,0,0,1,1.707-.07l5.451,3.147c.437.253.383.693-.123.986l-5.4,3.118A1.9,1.9,0,0,1,1268.544-1.759Z" transform="translate(-1152.695 55.799)" fill="#545cb3"/>
          <path id="Path_2943" data-name="Path 2943" d="M1277.3,3.294,1271.846.148c-.438-.253-.383-.694.123-.986l5.4-3.119a1.9,1.9,0,0,1,1.708-.07l5.45,3.147c.438.253.383.694-.122.986L1279,3.223A1.894,1.894,0,0,1,1277.3,3.294Z" transform="translate(-1153.03 55.606)" fill="#545cb3"/>
          <path id="Path_2944" data-name="Path 2944" d="M1286.049,8.347,1280.6,5.2c-.437-.253-.383-.694.122-.986l5.4-3.118a1.894,1.894,0,0,1,1.707-.071l5.451,3.147c.438.253.383.694-.123.986l-5.4,3.118A1.9,1.9,0,0,1,1286.049,8.347Z" transform="translate(-1153.366 55.412)" fill="#545cb3"/>
          <path id="Path_2945" data-name="Path 2945" d="M1294.8,13.4l-5.451-3.147c-.438-.253-.383-.694.123-.986l5.4-3.118a1.9,1.9,0,0,1,1.708-.071l5.45,3.148c.438.252.383.693-.122.986l-5.4,3.118A1.9,1.9,0,0,1,1294.8,13.4Z" transform="translate(-1153.701 55.218)" fill="#545cb3"/>
          <path id="Path_2946" data-name="Path 2946" d="M1174.321-26.645l-16.052-9.268c-.438-.252-.383-.693.123-.986l5.4-3.118a1.9,1.9,0,0,1,1.708-.07l16.051,9.268c.438.252.383.693-.122.986l-5.4,3.118A1.9,1.9,0,0,1,1174.321-26.645Z" transform="translate(-1148.677 56.988)" fill="#545cb3"/>
          <path id="Path_2947" data-name="Path 2947" d="M1281.846,35.435l-16.052-9.268c-.438-.253-.383-.694.123-.986l5.4-3.119a1.9,1.9,0,0,1,1.708-.07l16.051,9.268c.438.252.383.693-.122.986l-5.4,3.118A1.9,1.9,0,0,1,1281.846,35.435Z" transform="translate(-1152.798 54.609)" fill="#545cb3"/>
          <path id="Path_2948" data-name="Path 2948" d="M1247.267,26.609l-5.451-3.147c-.437-.253-.382-.694.123-.986l6.433-3.715a1.9,1.9,0,0,1,1.708-.07l5.45,3.147c.438.253.383.694-.122.986l-6.434,3.714A1.894,1.894,0,0,1,1247.267,26.609Z" transform="translate(-1151.879 54.735)" fill="#545cb3"/>
          <path id="Path_2949" data-name="Path 2949" d="M1183.576-10.163l-8.717-5.032c-.437-.253-.383-.693.123-.986l6.432-3.714a1.9,1.9,0,0,1,1.708-.071l8.717,5.032c.438.253.383.694-.123.986l-6.433,3.715A1.9,1.9,0,0,1,1183.576-10.163Z" transform="translate(-1149.313 56.217)" fill="#545cb3"/>
          <path id="Path_2950" data-name="Path 2950" d="M1238.7,21.665l-8.717-5.032c-.438-.253-.383-.694.123-.986l6.434-3.714a1.894,1.894,0,0,1,1.707-.071l8.717,5.032c.437.253.383.694-.122.986l-6.433,3.715A1.9,1.9,0,0,1,1238.7,21.665Z" transform="translate(-1151.426 54.997)" fill="#545cb3"/>
          <path id="Path_2951" data-name="Path 2951" d="M1196.2-2.872,1187.487-7.9c-.438-.253-.383-.694.122-.986l6.434-3.714a1.9,1.9,0,0,1,1.708-.071l8.716,5.032c.438.253.383.694-.123.986l-6.434,3.714A1.894,1.894,0,0,1,1196.2-2.872Z" transform="translate(-1149.797 55.937)" fill="#545cb3"/>
          <path id="Path_2952" data-name="Path 2952" d="M1195.823-12.634l37.9,21.881a.519.519,0,0,1,0,.983l-6.561,3.787a1.878,1.878,0,0,1-1.7,0l-37.9-21.88Z" transform="translate(-1149.811 55.929)" fill="#545cb3"/>
          <path id="Path_2953" data-name="Path 2953" d="M1271.783,36.087l6.071,3.505c.359.207.314.568-.1.808l-2.632,1.519a1.552,1.552,0,0,1-1.4.058l-6.071-3.505c-.359-.207-.313-.568.1-.808l2.631-1.519A1.558,1.558,0,0,1,1271.783,36.087Z" transform="translate(-1152.871 54.067)" fill="#545cb3"/>
          <path id="Path_2954" data-name="Path 2954" d="M1262.958,30.992l6.071,3.505c.359.207.315.568-.1.808l-2.632,1.519a1.552,1.552,0,0,1-1.4.058l-6.071-3.505c-.359-.207-.314-.568.1-.808l2.631-1.519A1.558,1.558,0,0,1,1262.958,30.992Z" transform="translate(-1152.533 54.262)" fill="#545cb3"/>
          <path id="Path_2955" data-name="Path 2955" d="M1254.206,25.939l6.071,3.505c.359.207.313.568-.1.808l-2.631,1.519a1.558,1.558,0,0,1-1.4.058l-6.071-3.505c-.359-.207-.314-.568.1-.808L1252.806,26A1.552,1.552,0,0,1,1254.206,25.939Z" transform="translate(-1152.198 54.456)" fill="#545cb3"/>
          <path id="Path_2956" data-name="Path 2956" d="M1267.792,28.2l6.071,3.505c.359.208.314.569-.1.808l-2.631,1.519a1.557,1.557,0,0,1-1.4.059l-6.071-3.505c-.359-.208-.313-.569.1-.808l2.631-1.519A1.557,1.557,0,0,1,1267.792,28.2Z" transform="translate(-1152.718 54.369)" fill="#545cb3"/>
        </g>
      </g>
    </g>
    <g id="Group_1740" data-name="Group 1740" transform="translate(1205.401 -154.076)">
      <path id="Path_2957" data-name="Path 2957" d="M1253.4-92.61,1213.44-115.68a4.256,4.256,0,0,1-1.778-3.4v-31.44c0-1.309.8-1.91,1.778-1.343L1253.4-128.79a4.256,4.256,0,0,1,1.777,3.4v31.44C1255.177-92.644,1254.381-92.043,1253.4-92.61Z" transform="translate(-1211.662 152.074)" fill="#8dd6f2" opacity="0.4"/>
      <g id="Group_1739" data-name="Group 1739" transform="translate(11.694 17.83)">
        <path id="Path_2958" data-name="Path 2958" d="M1225.99-113.132l-.281-.163a4.514,4.514,0,0,1-1.887-3.6v-14.983c0-1.389.844-2.027,1.887-1.425l.281.163a4.516,4.516,0,0,1,1.886,3.6v14.982C1227.875-113.17,1227.031-112.531,1225.99-113.132Z" transform="translate(-1223.822 133.533)" fill="#b2d3ea"/>
        <path id="Path_2959" data-name="Path 2959" d="M1234.347-108.059l-.282-.163a4.516,4.516,0,0,1-1.886-3.6v-8.77c0-1.389.844-2.027,1.886-1.425l.282.162a4.518,4.518,0,0,1,1.886,3.6v8.769C1236.233-108.1,1235.388-107.458,1234.347-108.059Z" transform="translate(-1224.143 133.1)" fill="#b2d3ea"/>
        <path id="Path_2960" data-name="Path 2960" d="M1242.7-103.717l-.282-.163a4.518,4.518,0,0,1-1.886-3.6v-20.873c0-1.389.844-2.027,1.886-1.426l.282.162a4.516,4.516,0,0,1,1.886,3.6v20.873C1244.589-103.754,1243.745-103.116,1242.7-103.717Z" transform="translate(-1224.463 133.398)" fill="#374999"/>
      </g>
    </g>
    <g id="Group_1741" data-name="Group 1741" transform="translate(1258.743 -122.044)">
      <path id="Path_2961" data-name="Path 2961" d="M1293.623-99.787,1268.8-114.12a3.992,3.992,0,0,1-1.668-3.185h0c0-1.227.746-1.792,1.668-1.26l24.826,14.333a3.993,3.993,0,0,1,1.667,3.185h0C1295.29-99.82,1294.544-99.256,1293.623-99.787Z" transform="translate(-1267.13 118.765)" fill="#b2d3ea"/>
      <path id="Path_2962" data-name="Path 2962" d="M1277.653-99.929l-8.855-5.113a3.989,3.989,0,0,1-1.668-3.184h0c0-1.228.746-1.792,1.668-1.261l8.855,5.113a3.992,3.992,0,0,1,1.668,3.185h0C1279.32-99.962,1278.574-99.4,1277.653-99.929Z" transform="translate(-1267.13 118.417)" fill="#b2d3ea"/>
      <path id="Path_2963" data-name="Path 2963" d="M1293.108-91.006l-8.856-5.113a3.993,3.993,0,0,1-1.667-3.185h0c0-1.227.746-1.792,1.667-1.26l8.856,5.113a3.993,3.993,0,0,1,1.667,3.185h0C1294.774-91.039,1294.028-90.475,1293.108-91.006Z" transform="translate(-1267.722 118.075)" fill="#374999"/>
      <path id="Path_2964" data-name="Path 2964" d="M1312.376-79.848l-12.67-7.348a3.994,3.994,0,0,1-1.667-3.185h0c0-1.227.746-1.792,1.667-1.26l12.67,7.348a3.992,3.992,0,0,1,1.667,3.185h0C1314.042-79.881,1313.3-79.316,1312.376-79.848Z" transform="translate(-1268.315 117.733)" fill="#b2d3ea"/>
      <path id="Path_2965" data-name="Path 2965" d="M1299.816-78.054,1268.8-95.963a3.989,3.989,0,0,1-1.668-3.184h0c0-1.228.746-1.792,1.668-1.261L1299.816-82.5a3.99,3.99,0,0,1,1.667,3.184h0C1301.483-78.087,1300.737-77.523,1299.816-78.054Z" transform="translate(-1267.13 118.069)" fill="#b2d3ea"/>
      <path id="Path_2966" data-name="Path 2966" d="M1312.858-61.546,1268.8-86.884a3.989,3.989,0,0,1-1.668-3.184h0c0-1.228.746-1.792,1.668-1.261l44.06,25.338a3.994,3.994,0,0,1,1.666,3.185h0C1314.524-61.579,1313.778-61.014,1312.858-61.546Z" transform="translate(-1267.13 117.721)" fill="#374999"/>
      <path id="Path_2967" data-name="Path 2967" d="M1317.847-85.84,1301.74-95.1a3.994,3.994,0,0,1-1.667-3.185h0c0-1.227.746-1.792,1.667-1.26l16.107,9.261a3.991,3.991,0,0,1,1.667,3.184h0C1319.513-85.873,1318.767-85.309,1317.847-85.84Z" transform="translate(-1268.393 118.036)" fill="#b2d3ea"/>
    </g>
    <g id="Group_1742" data-name="Group 1742" transform="translate(1205.297 -94.032)">
      <path id="Path_2968" data-name="Path 2968" d="M1219.393-84.771l-7.838-4.525v9.05l7.838,4.525Z" transform="translate(-1211.555 89.623)" fill="#374999"/>
      <path id="Path_2969" data-name="Path 2969" d="M1232.268-85.111l-7.838-4.525V-73.11l7.838,4.525Z" transform="translate(-1212.048 89.637)" fill="#8dd6f2"/>
      <path id="Path_2970" data-name="Path 2970" d="M1245.143-72.768l-7.838-4.525v11.8l7.838,4.525Z" transform="translate(-1212.542 89.163)" fill="#8dd6f2"/>
      <path id="Path_2971" data-name="Path 2971" d="M1258.018-68.881l-7.838-4.525v15.215l7.838,4.525Z" transform="translate(-1213.035 89.014)" fill="#8dd6f2"/>
      <path id="Path_2972" data-name="Path 2972" d="M1270.893-60.492l-7.838-4.525v14.3l7.838,4.525Z" transform="translate(-1213.529 88.693)" fill="#374999"/>
      <path id="Path_2973" data-name="Path 2973" d="M1283.768-56.8l-7.838-4.525v17.9l7.838,4.525Z" transform="translate(-1214.022 88.552)" fill="#545cb3"/>
      <path id="Path_2974" data-name="Path 2974" d="M1296.643-51.354l-7.838-4.525v19.805l7.838,4.525Z" transform="translate(-1214.516 88.343)" fill="#8dd6f2"/>
      <path id="Path_2975" data-name="Path 2975" d="M1309.518-48.943l-7.838-4.525v24.635l7.838,4.525Z" transform="translate(-1215.009 88.25)" fill="#374999"/>
    </g>
    <g id="Group_1743" data-name="Group 1743" transform="translate(1341.709 -93.988)">
      <rect id="Rectangle_206" data-name="Rectangle 206" width="1.772" height="5.147" transform="matrix(0.248, 0.969, -0.969, 0.248, 12.617, 0)" fill="#39b3e3"/>
      <rect id="Rectangle_207" data-name="Rectangle 207" width="1.772" height="5.147" transform="matrix(0.248, 0.969, -0.969, 0.248, 10.073, 2.481)" fill="#39b3e3"/>
      <rect id="Rectangle_208" data-name="Rectangle 208" width="1.772" height="5.147" transform="matrix(0.248, 0.969, -0.969, 0.248, 7.53, 4.962)" fill="#39b3e3"/>
      <rect id="Rectangle_209" data-name="Rectangle 209" width="1.772" height="5.147" transform="translate(4.986 7.443) rotate(75.624)" fill="#39b3e3"/>
    </g>
    <path id="Path_2976" data-name="Path 2976" d="M1256.677,19.891l-15.795-9.119-15.794,9.119,15.794,9.119Z" transform="translate(-6.776 -8.243)" fill="#2c5289"/>
    <path id="Path_2977" data-name="Path 2977" d="M1204.907,21.546l-15.795-9.119-15.794,9.119,15.794,9.119Z" transform="translate(-4.792 -8.307)" fill="#2c5289"/>
    <path id="Path_2978" data-name="Path 2978" d="M1170.149,1.635l-15.795-9.119L1138.56,1.635l15.794,9.119Z" transform="translate(-3.46 -7.544)" fill="#2c5289"/>
    <g id="Group_1748" data-name="Group 1748" transform="translate(1135.101 -91.019)">
      <g id="Group_1747" data-name="Group 1747">
        <g id="Group_1744" data-name="Group 1744" transform="translate(33.425 37.386)">
          <path id="Path_2979" data-name="Path 2979" d="M1189.742,19.608V-29.027l15.795-9.119V10.489Z" transform="translate(-1173.947 47.265)" fill="#c13d1a"/>
          <path id="Path_2980" data-name="Path 2980" d="M1204.907-38.509l-15.795-9.119-15.795,9.119,15.795,9.119Z" transform="translate(-1173.318 47.628)" fill="#ef602e"/>
          <path id="Path_2981" data-name="Path 2981" d="M1189.112-29.027l-15.795-9.119V10.489l15.795,9.119Z" transform="translate(-1173.318 47.265)" fill="#39b3e3"/>
          <path id="Path_2982" data-name="Path 2982" d="M1189.742,19.608V-29.027l15.795-9.119V10.489Z" transform="translate(-1173.947 47.265)" fill="#374999"/>
          <path id="Path_2983" data-name="Path 2983" d="M1204.907-38.509l-15.795-9.119-15.795,9.119,15.795,9.119Z" transform="translate(-1173.318 47.628)" fill="#8dd6f2"/>
        </g>
        <g id="Group_1745" data-name="Group 1745" transform="translate(66.952 78.279)">
          <path id="Path_2984" data-name="Path 2984" d="M1224.6,40.853V13.5L1240.4,4.377V31.734Z" transform="translate(-1208.81 4.742)" fill="#545cb3"/>
          <path id="Path_2985" data-name="Path 2985" d="M1223.975,13.5,1208.18,4.377V31.734l15.795,9.119Z" transform="translate(-1208.18 4.742)" fill="#374999"/>
          <path id="Path_2986" data-name="Path 2986" d="M1239.77,4.014l-15.795-9.119L1208.18,4.014l15.795,9.119Z" transform="translate(-1208.18 5.105)" fill="#8dd6f2"/>
        </g>
        <g id="Group_1746" data-name="Group 1746">
          <path id="Path_2987" data-name="Path 2987" d="M1154.984-1.03V-67.9l15.795-9.119v66.872Z" transform="translate(-1139.19 86.141)" fill="#8dd6f2"/>
          <path id="Path_2988" data-name="Path 2988" d="M1154.355-67.9l-15.795-9.119v66.872l15.795,9.119Z" transform="translate(-1138.56 86.141)" fill="#374999"/>
          <path id="Path_2989" data-name="Path 2989" d="M1170.15-77.385,1154.355-86.5l-15.795,9.119,15.795,9.119Z" transform="translate(-1138.56 86.504)" fill="#39b3e3"/>
        </g>
      </g>
    </g>
    <g id="Group_1753" data-name="Group 1753" transform="translate(1121.498 -152.6)">
      <g id="Group_1750" data-name="Group 1750" transform="translate(1.963)">
        <path id="Path_2990" data-name="Path 2990" d="M1144.876-37.728s-2.608-1.315-4.209.643-3.892,6.582-3.962,9.705,2.472,2.913,3.983,2.173,5.928-7.145,6.2-8.4a4.354,4.354,0,0,0-.74-3.284C1145.718-37.222,1144.876-37.728,1144.876-37.728Z" transform="translate(-1126.85 146.232)" fill="#39b3e3"/>
        <path id="Path_2991" data-name="Path 2991" d="M1145.6-38.389l.12,2.7a1.532,1.532,0,0,1-.764,1.406,3,3,0,0,1-2.012.313c-1.965-.315-2.14-.877-2.28-3.578S1145.6-38.389,1145.6-38.389Z" transform="translate(-1127.002 146.264)" fill="#8dd6f2"/>
        <g id="Group_1749" data-name="Group 1749" transform="translate(0 47.935)">
          <path id="Path_2992" data-name="Path 2992" d="M1134.949-43.13s-2.608-1.316-4.209.643-3.891,6.581-3.962,9.705,2.473,2.913,3.983,2.173,5.928-7.145,6.2-8.4a4.36,4.36,0,0,0-.74-3.284C1135.792-42.624,1134.949-43.13,1134.949-43.13Z" transform="translate(-1126.47 98.504)" fill="#39b3e3"/>
          <path id="Path_2993" data-name="Path 2993" d="M1135.67-43.792l.12,2.7a1.532,1.532,0,0,1-.763,1.406,3.015,3.015,0,0,1-2.012.313c-1.965-.315-2.141-.877-2.281-3.578S1135.67-43.792,1135.67-43.792Z" transform="translate(-1126.622 98.536)" fill="#8dd6f2"/>
          <path id="Path_2994" data-name="Path 2994" d="M1158.777-95.553c-.772-12.559-13.6,1.847-13.6,1.847L1136.4-85.1l-7.907,8.686a7.79,7.79,0,0,0-1.964,6.261l3.2,24.355a2.394,2.394,0,0,0,2.4,2.081,8.286,8.286,0,0,0,1.185-.1,2.976,2.976,0,0,0,2.643-3.158l-.585-22.779,16.605-10.01S1159.548-82.994,1158.777-95.553Z" transform="translate(-1126.458 100.693)" fill="#545cb3"/>
        </g>
        <path id="Path_2995" data-name="Path 2995" d="M1168.7-90.577c-.772-12.559-13.6,1.847-13.6,1.847l-8.78,8.606-7.907,8.687a7.788,7.788,0,0,0-1.964,6.261l3.2,24.355a2.393,2.393,0,0,0,2.4,2.08,8.019,8.019,0,0,0,1.186-.1A2.975,2.975,0,0,0,1145.878-42l-.585-22.779,16.605-10.01S1169.475-78.018,1168.7-90.577Z" transform="translate(-1126.838 148.438)" fill="#545cb3"/>
        <path id="Path_2996" data-name="Path 2996" d="M1161.351-132.35c9.726,4.032,9.532,9.782,9.532,9.782s-1.906,21.078-1.255,35.155c.271,5.884-31.267,6.334-26.563-9.366,5.546-18.511,3.467-33.5,6.063-35.758S1158.836-133.393,1161.351-132.35Z" transform="translate(-1127.076 149.895)" fill="#39b3e3"/>
        <path id="Path_2997" data-name="Path 2997" d="M1164.962-127.194c-.509,1.975-3.1,3.016-5.779,2.324s-4.446-2.852-3.937-4.827,3.1-3.016,5.779-2.324S1165.471-129.168,1164.962-127.194Z" transform="translate(-1127.558 149.837)" fill="#ffc2b0"/>
        <path id="Path_2998" data-name="Path 2998" d="M1160.806-124.211a7.045,7.045,0,0,1-1.758-.227c-2.925-.753-4.842-3.173-4.271-5.392s3.417-3.415,6.346-2.659a6.466,6.466,0,0,1,3.409,2.088,3.718,3.718,0,0,1,.862,3.306C1164.938-125.328,1163.04-124.211,1160.806-124.211Zm-1.464-7.578c-1.806,0-3.316.84-3.665,2.191-.443,1.723,1.173,3.634,3.6,4.261s4.769-.267,5.213-1.992a2.819,2.819,0,0,0-.682-2.485,5.542,5.542,0,0,0-2.922-1.775A6.222,6.222,0,0,0,1159.342-131.789Z" transform="translate(-1127.539 149.856)" fill="#fff"/>
        <path id="Path_2999" data-name="Path 2999" d="M1158.041-132.827a24.075,24.075,0,0,1-.085,3.473c-.053.968,3.34,1.873,4.217,1s.526-1.789.737-5.086S1158.041-132.827,1158.041-132.827Z" transform="translate(-1127.665 149.934)" fill="#ffc2b0"/>
        <path id="Path_3000" data-name="Path 3000" d="M1162.91-133.392s-.836,3.057-4.954,4.23l.063-2.779Z" transform="translate(-1127.665 149.882)" fill="#ea9c92"/>
        <path id="Path_3001" data-name="Path 3001" d="M1165.233-141.694a7.485,7.485,0,0,1-5.374,9.122,7.487,7.487,0,0,1-9.122-5.375,7.487,7.487,0,0,1,5.374-9.122A7.487,7.487,0,0,1,1165.233-141.694Z" transform="translate(-1127.379 150.415)" fill="#ffc2b0"/>
        <path id="Path_3002" data-name="Path 3002" d="M1159.7-139.308s-4.122,1.766-6.976,1.786-2.225-2.37-2.225-2.37l8.472-1.224Z" transform="translate(-1127.377 150.178)" fill="#ea9c92"/>
        <path id="Path_3003" data-name="Path 3003" d="M1151.745-139.2a13.373,13.373,0,0,1,6.741-.889,3.3,3.3,0,0,1,1.9,1.131,1.128,1.128,0,0,0,.576.417c.559.126,1.473-2.192,2.559-2.245s1.81.716.92,2.142-.589,3.021-.18,3.249,4.754-3.1.921-10.69-13.567-3.5-15.081-1.965c0,0-1.6,1.39-2.893.153C1147.213-147.9,1145.759-137.008,1151.745-139.2Z" transform="translate(-1127.247 150.539)" fill="#61b3ff"/>
        <path id="Path_3004" data-name="Path 3004" d="M1165.841-106.238v5.7a2.323,2.323,0,0,1-.757,1.715l-11.7,10.667,1.329,2.033,15.452-11.206a3.14,3.14,0,0,0,1.279-2.214l1.044-9.933Z" transform="translate(-1127.49 148.965)" fill="#ffc2b0"/>
        <path id="Path_3005" data-name="Path 3005" d="M1170.935-125.084s3.549,5.338,4.872,19.39c0,0-6.063,1.961-9.5.847S1170.935-125.084,1170.935-125.084Z" transform="translate(-1127.952 149.563)" fill="#39b3e3"/>
        <path id="Path_3006" data-name="Path 3006" d="M1165.6-118.065a99.026,99.026,0,0,0-1.468,10.932,2.23,2.23,0,0,0,1.468,2.155h0Z" transform="translate(-1127.902 149.294)" fill="#374999"/>
      </g>
      <g id="Group_1751" data-name="Group 1751" transform="translate(1.87 56.552)">
        <path id="Path_3007" data-name="Path 3007" d="M1161.121-80.016l-2.586-.341L1141.842-90a2.321,2.321,0,0,0-2.088.087l-11.829,6.827-1.564-.207v1.557h0a.608.608,0,0,0,.359.548l18.919,10.923a2.321,2.321,0,0,0,2.088-.087l12.882-7.435a.842.842,0,0,0,.511-.7h0Z" transform="translate(-1126.361 91.674)" fill="#39b3e3"/>
        <path id="Path_3008" data-name="Path 3008" d="M1148.578-85.969l-1.187-.685h-13.038l-6.429,3.708-1.564-.207V-81.6h0a.608.608,0,0,0,.359.548l18.919,10.923a1.951,1.951,0,0,0,1.077.2Z" transform="translate(-1126.361 91.538)" fill="#374999"/>
        <path id="Path_3009" data-name="Path 3009" d="M1127.055-82.921l-.694-.092v1.557h0a.608.608,0,0,0,.359.548l.334.192Z" transform="translate(-1126.361 91.399)" fill="#39b3e3"/>
        <path id="Path_3010" data-name="Path 3010" d="M1146.607-69.484a2.421,2.421,0,0,0,1.773-.11v-2.648h-1.773Z" transform="translate(-1127.137 90.986)" fill="#fff"/>
        <path id="Path_3011" data-name="Path 3011" d="M1145.641-71.875,1126.722-82.8c-.535-.31-.467-.849.15-1.206l12.883-7.435a2.321,2.321,0,0,1,2.088-.087L1160.76-80.6c.536.309.468.848-.15,1.2l-12.882,7.435A2.318,2.318,0,0,1,1145.641-71.875Z" transform="translate(-1126.361 91.733)" fill="#fff"/>
        <path id="Path_3012" data-name="Path 3012" d="M1145.437-73.371l-15.731-9.082c-.444-.257-.388-.706.125-1l6.9-3.882a1.933,1.933,0,0,1,1.737-.072l15.73,9.082c.445.257.389.706-.125,1l-6.9,3.881A1.928,1.928,0,0,1,1145.437-73.371Z" transform="translate(-1126.478 91.574)" fill="#8dd6f2"/>
      </g>
      <path id="Path_3013" data-name="Path 3013" d="M1141.036-91.825l-.2,1.306a9.64,9.64,0,0,0,.085,3.347l.233,1.15a1.618,1.618,0,0,0,1.3,1.27h0a.891.891,0,0,0,1.046-.778l.313-2.791s.715.936,1.059.936-.386-2.795-1.166-4.377S1141.036-91.825,1141.036-91.825Z" transform="translate(-1125.041 148.314)" fill="#ffc2b0"/>
      <path id="Path_3014" data-name="Path 3014" d="M1147.412-113.529l-2.03,4.018a7.894,7.894,0,0,0-.831,3.049l-.882,13.742L1141-92.783l-1.212-15.433a5.628,5.628,0,0,1,.069-1.426l1.384-7.826Z" transform="translate(-1125.005 149.271)" fill="#ffc2b0"/>
      <g id="Group_1752" data-name="Group 1752" transform="translate(0 48.369)">
        <path id="Path_3015" data-name="Path 3015" d="M1144.938-71.152l-1.586-2.07-16.682-9.658a2.319,2.319,0,0,1-.966-1.852l.014-13.658-.959-1.252.9-.522h0a.61.61,0,0,1,.654.038l18.906,10.945a2.321,2.321,0,0,1,.966,1.853l-.016,14.873a.842.842,0,0,1-.353.793h0Z" transform="translate(-1124.429 100.242)" fill="#545cb3"/>
        <path id="Path_3016" data-name="Path 3016" d="M1133.4-78.983l-1.186-.687-6.506-11.3.007-7.421-.959-1.252.9-.522h0a.61.61,0,0,1,.654.038l18.906,10.945a1.956,1.956,0,0,1,.713.834Z" transform="translate(-1124.429 100.242)" fill="#374999"/>
        <path id="Path_3017" data-name="Path 3017" d="M1125.184-99.087l-.425-.556.9-.522h0a.61.61,0,0,1,.654.038l.334.192Z" transform="translate(-1124.429 100.242)" fill="#39b3e3"/>
        <path id="Path_3018" data-name="Path 3018" d="M1146.137-88.614a2.42,2.42,0,0,1,.79,1.593l-1.847,1.066-.885-1.538Z" transform="translate(-1125.174 99.796)" fill="#2c5289"/>
        <path id="Path_3019" data-name="Path 3019" d="M1144.306-88.639l-18.9-10.945c-.535-.31-.969.017-.97.731l-.015,14.874a2.32,2.32,0,0,0,.966,1.852l18.906,10.946c.535.31.968-.018.969-.732l.016-14.873A2.32,2.32,0,0,0,1144.306-88.639Z" transform="translate(-1124.416 100.221)" fill="#39b3e3"/>
      </g>
      <path id="Path_3020" data-name="Path 3020" d="M1154.517-85.278l-.3.628a4.2,4.2,0,0,1-1.58,1.751l-1.878,1.158a1.87,1.87,0,0,1-1.917.044l-.063-.038a1.13,1.13,0,0,1-.16-1.736l1.962-2.018s-1.1.845-1.412.5c-.226-.249,1.069-1.466,2.065-1.506a3.922,3.922,0,0,0,1.957-.821Z" transform="translate(-1125.331 148.115)" fill="#ffc2b0"/>
      <path id="Path_3021" data-name="Path 3021" d="M1149.189-132.518s-7.193,7.827-10.1,15.008a14.689,14.689,0,0,0,8.482,6.171C1153.6-109.6,1149.189-132.518,1149.189-132.518Z" transform="translate(-1124.979 149.848)" fill="#39b3e3"/>
      <path id="Path_3022" data-name="Path 3022" d="M1146.441-111.427l1.167-11.264-2.748,10.553A15.916,15.916,0,0,0,1146.441-111.427Z" transform="translate(-1125.2 149.471)" fill="#374999"/>
      <path id="Path_3023" data-name="Path 3023" d="M1155.117-134.182l-1.933-.531a4.668,4.668,0,0,0,2.271,1.821c1.347.37,1.557-.77,1.557-.77Z" transform="translate(-1125.519 149.932)" fill="#fff"/>
    </g>
    <g id="Group_1759" data-name="Group 1759" transform="translate(1071.928 22.622)">
      <g id="Group_1758" data-name="Group 1758" transform="translate(0 0)">
        <g id="Group_1754" data-name="Group 1754" transform="translate(4.524)">
          <path id="Path_3024" data-name="Path 3024" d="M1083.259,67.49l11.877.186a12.614,12.614,0,0,1,3.75-3.154c6.532-3.771,16.8-4.062,23.917-.88L1129.861,57l10.866.169c-.537-.352-1.088-.7-1.669-1.034-15.1-8.72-39.586-8.72-54.688,0a28.74,28.74,0,0,0-6.794,5.294Z" transform="translate(-1077.575 -32.354)" fill="#545cb3"/>
          <path id="Path_3025" data-name="Path 3025" d="M1142.811,39.535V56.782l-10.867-.169V39.365Z" transform="translate(-1079.658 -31.962)" fill="#39b3e3"/>
          <path id="Path_3026" data-name="Path 3026" d="M1124.606,46V63.25l7.057-6.637V39.365Z" transform="translate(-1079.377 -31.962)" fill="#545cb3"/>
          <path id="Path_3027" data-name="Path 3027" d="M1095.834,50.086V67.334L1111.458,54.6l12.044,8.7V46.053l-11.09-5.38s-15.266,4.674-16.06,4.872S1095.834,50.086,1095.834,50.086Z" transform="translate(-1078.273 -32.012)" fill="#545cb3"/>
          <path id="Path_3028" data-name="Path 3028" d="M1083.486,50.269V67.516l11.876.185V50.454Z" transform="translate(-1077.801 -32.379)" fill="#545cb3"/>
          <path id="Path_3029" data-name="Path 3029" d="M1077.575,43.971V61.218l5.685,6.057V50.027Z" transform="translate(-1077.575 -32.138)" fill="#39b3e3"/>
          <path id="Path_3030" data-name="Path 3030" d="M1083.259,49.556l11.877.185a12.627,12.627,0,0,1,3.75-3.153c6.532-3.771,16.8-4.062,23.917-.88l7.058-6.637,10.866.169c-.537-.351-1.088-.7-1.669-1.034-15.1-8.719-39.586-8.719-54.688,0a28.691,28.691,0,0,0-6.794,5.294Z" transform="translate(-1077.575 -31.667)" fill="#8dd6f2"/>
        </g>
        <g id="Group_1756" data-name="Group 1756" transform="translate(45.551 10.317)">
          <path id="Path_3031" data-name="Path 3031" d="M1128.326,48.473V64.327l10.28-2.463s-.6-9.277-.822-9.524S1128.326,48.473,1128.326,48.473Z" transform="translate(-1120.546 -42.628)" fill="#39b3e3"/>
          <g id="Group_1755" data-name="Group 1755">
            <path id="Path_3032" data-name="Path 3032" d="M1120.236,64.959V82.207l1.111,1.183,7.247-4.178s-1.123-13.165-1.256-13.43S1120.236,64.959,1120.236,64.959Z" transform="translate(-1120.236 -43.26)" fill="#545cb3"/>
            <path id="Path_3033" data-name="Path 3033" d="M1134.231,60.33l-6.215,5.844c5.178,4.1,4.565,9.872-1.84,13.569a22.1,22.1,0,0,1-5.94,2.286l6.424,6.844-5.692,5.353a51.721,51.721,0,0,0,19.726-6.1c12.982-7.5,14.792-18.991,5.454-27.61Z" transform="translate(-1120.236 -43.082)" fill="#374999"/>
            <path id="Path_3034" data-name="Path 3034" d="M1121,76.739V93.986l14.094-5.443,16.951-16.172-.063-18.314-17.934,14.215Z" transform="translate(-1120.265 -42.842)" fill="#374999"/>
            <path id="Path_3035" data-name="Path 3035" d="M1134.231,42.4l-6.215,5.845c5.178,4.1,4.565,9.872-1.84,13.569a22.1,22.1,0,0,1-5.94,2.285l6.424,6.844-5.692,5.354a51.738,51.738,0,0,0,19.726-6.1c12.982-7.5,14.792-18.991,5.454-27.611Z" transform="translate(-1120.236 -42.395)" fill="#8dd6f2"/>
          </g>
        </g>
        <g id="Group_1757" data-name="Group 1757" transform="translate(0 15.19)">
          <path id="Path_3036" data-name="Path 3036" d="M1119.106,88.978l-5.662-6.033c-5.257.319-10.708-.682-14.737-3.008-4.161-2.4-5.875-5.682-5.148-8.807l-13.484-.211-5.184-5.524c-4.535,7.784-1.441,16.723,9.3,22.923,7.892,4.555,18.345,6.726,28.683,6.52Z" transform="translate(-1072.87 -48.149)" fill="#374999"/>
          <path id="Path_3037" data-name="Path 3037" d="M1112.873,77.2V94.442l-40-22.166V55.021l5.84,2.361Z" transform="translate(-1072.87 -47.752)" fill="#374999"/>
          <path id="Path_3038" data-name="Path 3038" d="M1120.7,71.983V89.23l-6.233,5.862V77.845Z" transform="translate(-1074.464 -48.402)" fill="#545cb3"/>
          <path id="Path_3039" data-name="Path 3039" d="M1119.106,71.043l-5.662-6.032c-5.257.319-10.708-.683-14.737-3.008-4.161-2.4-5.875-5.682-5.148-8.808l-13.484-.21-5.184-5.524c-4.535,7.783-1.441,16.723,9.3,22.922,7.892,4.556,18.345,6.727,28.683,6.521Z" transform="translate(-1072.87 -47.462)" fill="#39b3e3"/>
        </g>
      </g>
    </g>
    <g id="Group_1760" data-name="Group 1760" transform="translate(1141.529 -179.536)">
      <path id="Path_3040" data-name="Path 3040" d="M1145.245-171.168l1.028-1.744a2.5,2.5,0,0,0,1.781.184,3.462,3.462,0,0,0,1.9-1.978,6.082,6.082,0,0,1,6.766-3.717l-.485,1.967.242-.983-.235.985c-.294-.068-2.924-.566-4.466,2.628a5.332,5.332,0,0,1-3.151,3.042A4.464,4.464,0,0,1,1145.245-171.168Z" transform="translate(-1145.245 178.548)" fill="#39b3e3"/>
    </g>
    <path id="Path_3041" data-name="Path 3041" d="M1111.391-102.53a9.291,9.291,0,0,1-9.281-9.282,9.291,9.291,0,0,1,9.281-9.281,9.291,9.291,0,0,1,9.282,9.281A9.292,9.292,0,0,1,1111.391-102.53Zm0-16.539a7.265,7.265,0,0,0-7.257,7.257,7.265,7.265,0,0,0,7.257,7.257,7.265,7.265,0,0,0,7.257-7.257A7.265,7.265,0,0,0,1111.391-119.069Z" transform="translate(-2.063 -3.19)" fill="#8dd6f2"/>
    <path id="Path_3042" data-name="Path 3042" d="M1054.866,31.023a6.582,6.582,0,1,1,6.582-6.582A6.589,6.589,0,0,1,1054.866,31.023Zm0-11.138a4.556,4.556,0,1,0,4.557,4.556A4.562,4.562,0,0,0,1054.866,19.885Z" transform="translate(0 -8.515)" fill="#39b3e3"/>
    <path id="Path_3043" data-name="Path 3043" d="M1097.449-45.863l-4.466-9.087,9.086-4.467,4.468,9.087Zm-1.756-8.163,2.68,5.453,5.453-2.681-2.681-5.453Z" transform="translate(-1.713 -5.553)" fill="#39b3e3"/>
    <rect id="Rectangle_210" data-name="Rectangle 210" width="4.655" height="4.655" transform="matrix(0.897, -0.441, 0.441, 0.897, 1315.419, -148.918)" fill="#39b3e3"/>
    <g id="Group_1761" data-name="Group 1761" transform="translate(1231.64 -204.315)">
      <rect id="Rectangle_211" data-name="Rectangle 211" width="9.62" height="2.024" transform="translate(0 6.802) rotate(-45)" fill="#8dd6f2"/>
      <rect id="Rectangle_212" data-name="Rectangle 212" width="2.024" height="9.62" transform="matrix(0.707, -0.707, 0.707, 0.707, 0, 1.431)" fill="#8dd6f2"/>
    </g>
    <path id="Path_3044" data-name="Path 3044" d="M1318.141-196.687a4.777,4.777,0,0,1-4.776,4.777,4.777,4.777,0,0,1-4.778-4.777,4.777,4.777,0,0,1,4.778-4.778A4.777,4.777,0,0,1,1318.141-196.687Z" transform="translate(-9.976 -0.109)" fill="#8dd6f2"/>
    <path id="Path_3045" data-name="Path 3045" d="M1184.6,81.667a2.777,2.777,0,1,1-2.776-2.776A2.776,2.776,0,0,1,1184.6,81.667Z" transform="translate(-5.011 -10.854)" fill="#8dd6f2"/>
    <g id="Group_1764" data-name="Group 1764" transform="translate(1063.648 -49.749)">
      <g id="Group_1762" data-name="Group 1762">
        <path id="Path_3046" data-name="Path 3046" d="M1088.257-31.662,1067.928-43.4a1.045,1.045,0,0,0-1.051-.085l0-.013-1.972,1.14s.873.317,1.386.506v14.8a3.917,3.917,0,0,0,1.636,3.125L1087.359-12.7v1.737l1.992-1.146-.01,0a1.451,1.451,0,0,0,.553-1.3V-28.538A3.917,3.917,0,0,0,1088.257-31.662Z" transform="translate(-1064.285 43.589)" fill="#4ac7e0"/>
        <path id="Path_3047" data-name="Path 3047" d="M1086.225-10.982,1065.9-22.719a3.917,3.917,0,0,1-1.636-3.124V-40.959c0-1.2.733-1.759,1.636-1.237l20.329,11.736a3.92,3.92,0,0,1,1.636,3.125v15.116C1087.861-11.014,1087.128-10.461,1086.225-10.982Z" transform="translate(-1064.26 43.543)" fill="#61b3ff"/>
      </g>
      <g id="Group_1763" data-name="Group 1763" transform="translate(5.729 13.053)">
        <path id="Path_3048" data-name="Path 3048" d="M1072.961-27.453c0,.875-.614,1.229-1.371.791a3.029,3.029,0,0,1-1.372-2.375c0-.875.614-1.229,1.372-.791A3.03,3.03,0,0,1,1072.961-27.453Z" transform="translate(-1070.217 30.016)" fill="#fff"/>
        <path id="Path_3049" data-name="Path 3049" d="M1077.282-24.958c0,.874-.615,1.229-1.372.791a3.034,3.034,0,0,1-1.371-2.375c0-.875.615-1.23,1.371-.792A3.032,3.032,0,0,1,1077.282-24.958Z" transform="translate(-1070.383 29.92)" fill="#fff"/>
        <path id="Path_3050" data-name="Path 3050" d="M1081.6-22.464c0,.875-.615,1.229-1.372.792a3.034,3.034,0,0,1-1.371-2.376c0-.874.615-1.229,1.371-.791A3.032,3.032,0,0,1,1081.6-22.464Z" transform="translate(-1070.548 29.825)" fill="#fff"/>
      </g>
    </g>
    <g id="Group_1767" data-name="Group 1767" transform="translate(1258.607 -188.619)">
      <g id="Group_1765" data-name="Group 1765">
        <path id="Path_3051" data-name="Path 3051" d="M1290.986-176.066,1270.658-187.8a1.042,1.042,0,0,0-1.051-.084l0-.013-1.972,1.14,1.386.506v14.8a3.917,3.917,0,0,0,1.636,3.125l19.431,11.218v1.738l1.992-1.147-.011,0a1.451,1.451,0,0,0,.553-1.3v-15.116A3.917,3.917,0,0,0,1290.986-176.066Z" transform="translate(-1267.014 187.993)" fill="#39b3e3"/>
        <path id="Path_3052" data-name="Path 3052" d="M1288.954-155.386l-20.329-11.736a3.92,3.92,0,0,1-1.636-3.125v-15.116c0-1.2.733-1.758,1.636-1.237l20.329,11.737a3.917,3.917,0,0,1,1.636,3.124v15.117C1290.59-155.418,1289.857-154.864,1288.954-155.386Z" transform="translate(-1266.989 187.947)" fill="#8dd6f2"/>
      </g>
      <g id="Group_1766" data-name="Group 1766" transform="translate(5.729 13.053)">
        <path id="Path_3053" data-name="Path 3053" d="M1275.69-171.857c0,.875-.615,1.229-1.372.792a3.034,3.034,0,0,1-1.371-2.376c0-.874.614-1.229,1.371-.791A3.032,3.032,0,0,1,1275.69-171.857Z" transform="translate(-1272.946 174.42)" fill="#fff"/>
        <path id="Path_3054" data-name="Path 3054" d="M1280.011-169.362c0,.874-.615,1.229-1.372.791a3.034,3.034,0,0,1-1.371-2.375c0-.875.615-1.229,1.371-.792A3.033,3.033,0,0,1,1280.011-169.362Z" transform="translate(-1273.112 174.324)" fill="#fff"/>
        <path id="Path_3055" data-name="Path 3055" d="M1284.331-166.868c0,.875-.614,1.23-1.371.792a3.031,3.031,0,0,1-1.371-2.375c0-.875.614-1.23,1.371-.792A3.031,3.031,0,0,1,1284.331-166.868Z" transform="translate(-1273.277 174.229)" fill="#fff"/>
      </g>
    </g>
    <g id="Group_1773" data-name="Group 1773" transform="translate(1280.783 -16.119)">
      <g id="Group_1772" data-name="Group 1772">
        <g id="Group_1771" data-name="Group 1771">
          <g id="Group_1768" data-name="Group 1768" transform="translate(25.334 35.14)">
            <path id="Path_3056" data-name="Path 3056" d="M1328.327,71.561V34.812l-11.935-6.89V64.671Z" transform="translate(-1316.392 -27.921)" fill="#c13d1a"/>
            <path id="Path_3057" data-name="Path 3057" d="M1328.8,34.812l11.935-6.89V64.671l-11.935,6.89Z" transform="translate(-1316.868 -27.921)" fill="#4ac7e0"/>
            <path id="Path_3058" data-name="Path 3058" d="M1328.327,71.561V34.812l-11.935-6.89V64.671Z" transform="translate(-1316.392 -27.921)" fill="#61b3ff"/>
          </g>
          <g id="Group_1769" data-name="Group 1769" transform="translate(0 59.15)">
            <path id="Path_3059" data-name="Path 3059" d="M1301.984,87.615V66.943l-11.935-6.89V80.724Z" transform="translate(-1290.049 -53.162)" fill="#61b3ff"/>
            <path id="Path_3060" data-name="Path 3060" d="M1302.459,66.943l11.935-6.89V80.724l-11.935,6.891Z" transform="translate(-1290.525 -53.162)" fill="#4ac7e0"/>
            <path id="Path_3061" data-name="Path 3061" d="M1290.049,59.778l11.935-6.89,11.935,6.89-11.935,6.89Z" transform="translate(-1290.049 -52.888)" fill="#61b3ff"/>
          </g>
          <g id="Group_1770" data-name="Group 1770" transform="translate(50.59)">
            <path id="Path_3062" data-name="Path 3062" d="M1354.591,55.967V5.436l-11.935-6.891V49.076Z" transform="translate(-1342.656 8.345)" fill="#61b3ff"/>
            <path id="Path_3063" data-name="Path 3063" d="M1355.066,5.436,1367-1.454V49.076l-11.935,6.89Z" transform="translate(-1343.131 8.345)" fill="#4ac7e0"/>
            <path id="Path_3064" data-name="Path 3064" d="M1342.656-1.729l11.935-6.89,11.935,6.89-11.935,6.891Z" transform="translate(-1342.656 8.619)" fill="#61b3ff"/>
          </g>
        </g>
        <path id="Path_3065" data-name="Path 3065" d="M1316.392,27.647l11.935-6.891,11.935,6.891-11.935,6.89Z" transform="translate(-1291.059 7.493)" fill="#61b3ff"/>
      </g>
    </g>
  </g>
</svg>
