<svg xmlns="http://www.w3.org/2000/svg" width="306.958" height="288.831"><g data-name="Group 1738"><g data-name="Group 1737"><g data-name="Group 1735"><path data-name="Path 2871" d="M271.895 87.171L149.447 16.534a4.692 4.692 0 00-4.192-.564v-.014l-.2.093-.049.023-3.986 1.875 4.328 2.154c0 .082-.009.157-.009.239l.037 100.572c0 5.033 3.118 10.909 6.958 13.125l119.182 68.752.677 5.609 4.353-2.076c1.434-.842 2.342-2.746 2.341-5.457l-.038-100.572c-.002-5.031-3.117-10.904-6.954-13.122z" fill="#545cb3"/><path data-name="Path 2872" d="M271.895 87.171L149.447 16.534a4.692 4.692 0 00-4.192-.564v-.014l-.2.093-.049.023-3.986 1.875 4.328 2.154c0 .082-.009.157-.009.239l.024 66.283 55.727 44.029 75.663-38.078a13.722 13.722 0 00-4.858-5.403z" fill="#374999"/><path data-name="Path 2873" d="M273.937 88.754l-12 5.048 9.06 6.98 7.566-3.221a17.607 17.607 0 00-4.626-8.807z" fill="#2c5289"/><path data-name="Path 2874" d="M267.904 207.869l-122.448-70.637c-3.841-2.216-6.956-8.092-6.958-13.125l-.037-100.571c0-5.033 3.11-7.317 6.951-5.1L267.86 89.073c3.841 2.216 6.956 8.092 6.958 13.125l.038 100.572c.001 5.029-3.111 7.313-6.952 5.099z" fill="#8dd6f2"/><path data-name="Path 2875" d="M263.831 200.388L149.47 134.449c-3.514-2.027-6.365-7.4-6.366-12.01l-.035-92.031c0-4.606 2.847-6.7 6.361-4.669l114.361 65.939c3.514 2.027 6.364 7.4 6.366 12.01l.035 92.031c.001 4.601-2.847 6.701-6.361 4.669z" fill="#fff"/><path data-name="Path 2876" d="M263.831 200.388L149.47 134.449c-3.514-2.027-6.365-7.4-6.366-12.01l-.035-92.031c0-4.606 2.847-6.7 6.361-4.669l114.361 65.939c3.514 2.027 6.364 7.4 6.366 12.01l.035 92.031c.001 4.601-2.847 6.701-6.361 4.669z" fill="#fff"/></g><path data-name="Path 2877" d="M269.733 210.992l-16.467-2.174-106.291-61.368c-3.408-1.968-9.36-1.72-13.3.551l-75.318 43.47-9.957-1.315v5.649h.01a3.876 3.876 0 002.29 3.487l120.46 69.548c3.408 1.968 9.36 1.72 13.3-.551l82.025-47.341c2.214-1.278 3.317-2.924 3.252-4.471z" fill="#545cb3"/><path data-name="Path 2878" d="M189.868 172.214l-7.551-4.36H99.292L58.361 191.47l-9.957-1.315v5.649h.01a3.876 3.876 0 002.286 3.489l120.46 69.548a12.466 12.466 0 006.861 1.286z" fill="#374999"/><path data-name="Path 2879" d="M52.823 190.737l-4.419-.583v5.651h.01a3.876 3.876 0 002.286 3.489l2.123 1.226z" fill="#39b3e3"/><path data-name="Path 2880" d="M172.375 269.408a15.425 15.425 0 0011.3-.7v-12.6h-11.3z" fill="#2c5289"/><path data-name="Path 2881" d="M171.161 263.202L50.7 193.654c-3.408-1.968-2.98-5.4.954-7.676l82.025-47.341c3.935-2.271 9.887-2.519 13.3-.551l120.46 69.548c3.408 1.968 2.98 5.4-.954 7.676l-82.025 47.34c-3.939 2.272-9.891 2.515-13.299.552z" fill="#8dd6f2"/><path data-name="Path 2882" d="M266.481 213.246l-82.025 47.341c-3.935 2.271-9.887 2.519-13.3.551L50.701 191.59a4.479 4.479 0 01-2.115-2.318c-.533 1.613.146 3.243 2.119 4.381l120.46 69.548c3.408 1.968 9.36 1.72 13.3-.551l82.025-47.341c2.645-1.527 3.7-3.579 3.073-5.359a6.4 6.4 0 01-3.082 3.296z" fill="#fff"/><g data-name="Group 1736"><path data-name="Path 2883" d="M101.934 170.63l-5.45-3.148c-.437-.252-.383-.693.122-.986l6.434-3.714a1.9 1.9 0 011.707-.07l5.451 3.147c.437.252.383.693-.123.986l-6.432 3.714a1.9 1.9 0 01-1.709.071z" fill="#545cb3"/><path data-name="Path 2884" d="M110.352 175.489l-5.451-3.147c-.437-.253-.383-.694.123-.986l6.433-3.712a1.9 1.9 0 011.708-.07l5.45 3.147c.438.253.383.694-.122.986l-6.434 3.714a1.894 1.894 0 01-1.707.068z" fill="#545cb3"/><path data-name="Path 2885" d="M118.768 180.35l-5.45-3.147c-.438-.253-.383-.694.122-.986l6.434-3.714a1.9 1.9 0 011.707-.071l5.451 3.147c.438.253.383.694-.123.986l-6.433 3.715a1.9 1.9 0 01-1.708.07z" fill="#545cb3"/><path data-name="Path 2886" d="M130.409 176.334l-5.45-3.147c-.437-.253-.383-.694.122-.986l5.4-3.118a1.894 1.894 0 011.707-.071l5.451 3.147c.438.253.383.694-.123.986l-5.4 3.118a1.9 1.9 0 01-1.707.071z" fill="#545cb3"/><path data-name="Path 2887" d="M138.827 181.193l-5.451-3.147c-.438-.253-.383-.694.123-.986l5.4-3.118a1.9 1.9 0 011.708-.071l5.45 3.147c.438.253.383.694-.122.986l-5.4 3.119a1.9 1.9 0 01-1.708.07z" fill="#545cb3"/><path data-name="Path 2888" d="M147.244 186.053l-5.45-3.147c-.437-.252-.383-.693.122-.986l5.4-3.118a1.9 1.9 0 011.707-.071l5.451 3.148c.438.252.383.693-.123.986l-5.4 3.118a1.9 1.9 0 01-1.707.07z" fill="#545cb3"/><path data-name="Path 2889" d="M155.661 190.913l-5.451-3.148c-.437-.252-.383-.693.123-.986l5.4-3.118a1.9 1.9 0 011.708-.07l5.45 3.147c.438.253.383.693-.122.986l-5.4 3.118a1.9 1.9 0 01-1.708.071z" fill="#545cb3"/><path data-name="Path 2890" d="M164.078 195.773l-5.45-3.147c-.439-.253-.383-.694.122-.986l5.4-3.119a1.9 1.9 0 011.707-.07l5.451 3.147c.438.253.383.694-.123.986l-5.4 3.118a1.894 1.894 0 01-1.707.071z" fill="#545cb3"/><path data-name="Path 2891" d="M172.495 200.632l-5.451-3.146c-.437-.253-.383-.694.122-.986l5.4-3.118a1.894 1.894 0 011.707-.071l5.451 3.147c.437.253.382.694-.122.986l-5.4 3.119a1.9 1.9 0 01-1.707.069z" fill="#545cb3"/><path data-name="Path 2892" d="M180.912 205.491l-5.451-3.147c-.438-.253-.383-.693.123-.986l5.4-3.118a1.9 1.9 0 011.707-.071l5.45 3.148c.439.252.383.693-.122.986l-5.4 3.121a1.9 1.9 0 01-1.707.067z" fill="#545cb3"/><path data-name="Path 2893" d="M189.328 210.352l-5.45-3.148c-.438-.252-.383-.693.122-.986l5.399-3.117a1.9 1.9 0 011.707-.07l5.451 3.147c.438.253.383.693-.123.986l-5.4 3.118a1.9 1.9 0 01-1.706.07z" fill="#545cb3"/><path data-name="Path 2894" d="M197.746 215.211l-5.451-3.147c-.438-.253-.383-.694.123-.986l5.4-3.119a1.9 1.9 0 011.708-.07l5.45 3.147c.438.253.383.694-.122.986l-5.4 3.118a1.894 1.894 0 01-1.708.071z" fill="#545cb3"/><path data-name="Path 2895" d="M206.162 220.07l-5.45-3.147c-.438-.253-.383-.694.122-.986l5.4-3.118a1.894 1.894 0 011.707-.071l5.451 3.147c.438.253.383.694-.123.986l-5.4 3.118a1.9 1.9 0 01-1.707.071z" fill="#545cb3"/><path data-name="Path 2896" d="M142.811 174.034l-5.45-3.148c-.437-.252-.383-.693.122-.986l5.4-3.118a1.9 1.9 0 011.707-.07l5.451 3.147c.438.253.383.693-.123.986l-5.4 3.118a1.9 1.9 0 01-1.707.071z" fill="#374999"/><path data-name="Path 2897" d="M134.269 169.102l-5.45-3.147c-.438-.253-.383-.694.122-.986l5.4-3.118a1.894 1.894 0 011.707-.071l5.451 3.147c.438.253.383.694-.123.986l-5.4 3.118a1.9 1.9 0 01-1.707.071z" fill="#374999"/><path data-name="Path 2898" d="M125.712 164.162l-11.739-6.778c-.438-.252-.383-.693.123-.986l5.4-3.118a1.9 1.9 0 011.708-.07l11.738 6.777c.438.253.383.694-.122.986l-5.4 3.118a1.894 1.894 0 01-1.708.071z" fill="#545cb3"/><path data-name="Path 2899" d="M131.694 158.155l-9.526-5.5c-.438-.252-.383-.693.123-.986l5.4-3.118a1.9 1.9 0 011.708-.07l9.526 5.5c.438.253.383.693-.123.986l-5.4 3.118a1.9 1.9 0 01-1.708.07z" fill="#545cb3"/><path data-name="Path 2900" d="M151.229 178.893l-5.451-3.147c-.437-.253-.383-.694.123-.986l5.4-3.119a1.9 1.9 0 011.708-.07l5.45 3.147c.438.253.383.694-.122.986l-5.4 3.118a1.894 1.894 0 01-1.708.071z" fill="#374999"/><path data-name="Path 2901" d="M159.645 183.753l-5.45-3.147c-.437-.253-.383-.694.122-.986l5.4-3.118a1.894 1.894 0 011.707-.071l5.451 3.147c.438.253.383.694-.123.986l-5.4 3.118a1.9 1.9 0 01-1.707.071z" fill="#545cb3"/><path data-name="Path 2902" d="M168.063 188.612l-5.451-3.147c-.438-.253-.383-.694.123-.986l5.4-3.118a1.9 1.9 0 011.708-.071l5.45 3.147c.438.253.383.694-.122.986l-5.4 3.119a1.9 1.9 0 01-1.708.07z" fill="#545cb3"/><path data-name="Path 2903" d="M176.479 193.471l-5.45-3.147c-.438-.252-.383-.693.122-.986l5.4-3.118a1.9 1.9 0 011.707-.07l5.451 3.147c.438.252.383.693-.123.986l-5.4 3.118a1.9 1.9 0 01-1.707.07z" fill="#545cb3"/><path data-name="Path 2904" d="M184.897 198.332l-5.451-3.147c-.437-.253-.383-.694.123-.986l5.4-3.119a1.9 1.9 0 011.708-.07l5.45 3.147c.438.253.383.694-.122.986l-5.4 3.118a1.9 1.9 0 01-1.708.071z" fill="#545cb3"/><path data-name="Path 2905" d="M193.313 203.191l-5.45-3.147c-.437-.253-.383-.694.122-.986l5.4-3.118a1.894 1.894 0 011.707-.071l5.448 3.147c.437.253.383.694-.123.986l-5.4 3.118a1.9 1.9 0 01-1.704.071z" fill="#545cb3"/><path data-name="Path 2906" d="M201.731 208.051l-5.451-3.147c-.438-.253-.383-.694.123-.986l5.4-3.118a1.9 1.9 0 011.708-.071l5.45 3.147c.438.253.383.694-.122.986l-5.4 3.119a1.9 1.9 0 01-1.708.07z" fill="#545cb3"/><path data-name="Path 2907" d="M210.147 212.91l-5.45-3.147c-.438-.252-.383-.693.122-.986l5.4-3.118a1.9 1.9 0 011.707-.071l5.451 3.148c.438.252.383.693-.123.986l-5.4 3.118a1.9 1.9 0 01-1.707.07z" fill="#545cb3"/><path data-name="Path 2908" d="M218.565 217.77l-5.451-3.148c-.438-.252-.383-.693.122-.986l5.4-3.118a1.9 1.9 0 011.707-.07l5.451 3.147c.438.253.383.693-.122.986l-5.4 3.118a1.9 1.9 0 01-1.707.071z" fill="#545cb3"/><path data-name="Path 2909" d="M233.527 226.409l-11.892-6.87c-.437-.253-.383-.694.123-.986l5.4-3.119a1.9 1.9 0 011.708-.07l11.892 6.865c.438.253.383.694-.123.986l-5.4 3.119a1.9 1.9 0 01-1.708.075z" fill="#545cb3"/><path data-name="Path 2910" d="M249.915 216.948l-10.037-5.8c-.438-.253-.383-.694.122-.986l5.4-3.118a1.9 1.9 0 011.707-.071l10.038 5.8c.438.253.383.694-.123.986l-5.4 3.119a1.9 1.9 0 01-1.707.07z" fill="#545cb3"/><path data-name="Path 2911" d="M165.968 177.942l-5.45-3.147c-.438-.253-.383-.694.122-.986l5.4-3.118a1.894 1.894 0 011.707-.071l5.451 3.147c.438.253.383.694-.123.986l-5.4 3.118a1.9 1.9 0 01-1.707.071z" fill="#545cb3"/><path data-name="Path 2912" d="M157.342 172.962l-5.45-3.147c-.437-.253-.383-.694.122-.986l5.4-3.118a1.894 1.894 0 011.707-.071l5.451 3.147c.438.253.383.694-.123.986l-5.4 3.119a1.9 1.9 0 01-1.707.07z" fill="#545cb3"/><path data-name="Path 2913" d="M148.718 167.981l-5.451-3.147c-.438-.253-.383-.694.123-.986l5.4-3.118a1.9 1.9 0 011.707-.071l5.45 3.147c.439.253.383.694-.122.986l-5.4 3.119a1.9 1.9 0 01-1.707.07z" fill="#374999"/><path data-name="Path 2914" d="M140.089 163.001l-5.451-3.147c-.438-.253-.383-.694.123-.986l5.4-3.118a1.9 1.9 0 011.708-.071l5.45 3.147c.438.253.383.694-.122.987l-5.4 3.118a1.9 1.9 0 01-1.708.07z" fill="#545cb3"/><path data-name="Path 2915" d="M174.386 182.802l-5.451-3.147c-.438-.253-.383-.694.123-.986l5.4-3.118a1.9 1.9 0 011.708-.071l5.45 3.148c.438.252.383.693-.122.986l-5.4 3.118a1.9 1.9 0 01-1.708.07z" fill="#545cb3"/><path data-name="Path 2916" d="M182.802 187.662l-5.45-3.148c-.438-.252-.383-.693.122-.986l5.4-3.118a1.9 1.9 0 011.707-.07l5.451 3.147c.437.252.383.693-.123.986l-5.4 3.118a1.9 1.9 0 01-1.707.071z" fill="#545cb3"/><path data-name="Path 2917" d="M191.224 192.521l-5.451-3.147c-.438-.253-.383-.694.123-.986l5.4-3.119a1.9 1.9 0 011.708-.07l5.45 3.147c.438.253.383.694-.122.986l-5.4 3.118a1.894 1.894 0 01-1.708.071z" fill="#545cb3"/><path data-name="Path 2918" d="M199.636 197.381l-5.45-3.147c-.437-.253-.383-.694.122-.986l5.4-3.118a1.894 1.894 0 011.707-.071l5.451 3.147c.438.253.383.694-.123.986l-5.4 3.118a1.9 1.9 0 01-1.707.071z" fill="#545cb3"/><path data-name="Path 2919" d="M208.053 202.24l-5.45-3.146c-.438-.253-.383-.694.123-.986l5.4-3.118a1.9 1.9 0 011.708-.071l5.45 3.147c.438.253.383.694-.122.986l-5.4 3.119a1.9 1.9 0 01-1.709.069z" fill="#545cb3"/><path data-name="Path 2920" d="M216.471 207.099l-5.45-3.147c-.438-.252-.383-.693.122-.986l5.4-3.118a1.9 1.9 0 011.707-.071l5.451 3.148c.438.252.383.693-.123.986l-5.4 3.118a1.9 1.9 0 01-1.707.07z" fill="#545cb3"/><path data-name="Path 2921" d="M224.888 211.96l-5.451-3.147c-.438-.253-.383-.694.122-.986l5.4-3.119a1.9 1.9 0 011.707-.07l5.451 3.147c.438.253.383.694-.122.986l-5.4 3.118a1.9 1.9 0 01-1.707.071z" fill="#545cb3"/><path data-name="Path 2922" d="M233.305 216.819l-5.451-3.147c-.437-.253-.383-.694.123-.986l5.4-3.118a1.894 1.894 0 011.707-.071l5.45 3.147c.438.253.383.694-.122.986l-5.4 3.118a1.894 1.894 0 01-1.707.071z" fill="#545cb3"/><path data-name="Path 2923" d="M241.721 221.679l-5.45-3.147c-.438-.253-.383-.694.122-.986l5.4-3.118a1.894 1.894 0 011.707-.071l5.451 3.147c.438.253.383.694-.123.986l-5.4 3.119a1.9 1.9 0 01-1.707.07z" fill="#545cb3"/><path data-name="Path 2924" d="M161.537 165.922l-5.451-3.147c-.437-.253-.383-.694.123-.986l5.4-3.118a1.9 1.9 0 011.708-.071l5.45 3.147c.438.253.383.694-.122.986l-5.4 3.119a1.9 1.9 0 01-1.708.07z" fill="#545cb3"/><path data-name="Path 2925" d="M153.162 161.087l-5.451-3.147c-.437-.253-.383-.694.123-.986l5.4-3.118a1.9 1.9 0 011.708-.071l5.45 3.147c.438.253.383.694-.122.986l-5.4 3.119a1.9 1.9 0 01-1.708.07z" fill="#545cb3"/><path data-name="Path 2926" d="M144.786 156.252l-5.451-3.147c-.438-.253-.383-.694.123-.986l5.4-3.118a1.9 1.9 0 011.708-.071l5.45 3.147c.438.253.383.694-.122.986l-5.4 3.118a1.894 1.894 0 01-1.708.071z" fill="#545cb3"/><path data-name="Path 2927" d="M136.408 151.417l-5.451-3.147c-.438-.253-.383-.694.123-.986l5.4-3.118a1.9 1.9 0 011.708-.071l5.45 3.147c.438.253.383.694-.122.986l-5.4 3.118a1.894 1.894 0 01-1.708.071z" fill="#545cb3"/><path data-name="Path 2928" d="M145.023 146.446l-5.45-3.148c-.437-.252-.383-.693.122-.986l1.786-1.03a1.894 1.894 0 011.707-.071l5.451 3.147c.438.253.383.694-.123.986l-1.785 1.031a1.9 1.9 0 01-1.708.071z" fill="#545cb3"/><path data-name="Path 2929" d="M155.952 152.755l-5.45-3.147c-.438-.253-.383-.694.122-.986l1.786-1.031a1.9 1.9 0 011.707-.07l5.451 3.147c.438.253.383.693-.123.986l-1.785 1.031a1.9 1.9 0 01-1.708.07z" fill="#545cb3"/><path data-name="Path 2930" d="M164.297 157.57l-5.451-3.147c-.438-.253-.382-.693.123-.986l1.785-1.031a1.9 1.9 0 011.708-.07l5.45 3.147c.438.253.383.694-.122.986l-1.786 1.031a1.9 1.9 0 01-1.707.07z" fill="#545cb3"/><path data-name="Path 2931" d="M172.634 162.385l-5.451-3.147c-.438-.252-.383-.693.123-.986l1.785-1.03a1.894 1.894 0 011.707-.071l5.451 3.147c.437.253.383.694-.123.986l-1.785 1.031a1.9 1.9 0 01-1.707.07z" fill="#545cb3"/><path data-name="Path 2932" d="M180.973 167.201l-5.45-3.148c-.438-.252-.383-.693.122-.986l1.786-1.03a1.894 1.894 0 011.707-.071l5.451 3.147c.438.253.383.694-.123.986l-1.785 1.031a1.9 1.9 0 01-1.708.071z" fill="#545cb3"/><path data-name="Path 2933" d="M227.535 194.084l-5.45-3.147c-.437-.253-.383-.694.122-.986l1.786-1.031a1.894 1.894 0 011.707-.071l5.45 3.147c.439.253.383.694-.122.986l-1.785 1.031a1.9 1.9 0 01-1.708.071z" fill="#545cb3"/><path data-name="Path 2934" d="M235.876 198.899l-5.451-3.147c-.437-.253-.383-.694.123-.986l1.785-1.031a1.9 1.9 0 011.707-.071l5.451 3.147c.438.253.383.694-.122.986l-1.786 1.031a1.9 1.9 0 01-1.707.071z" fill="#545cb3"/><path data-name="Path 2935" d="M244.212 203.712l-5.45-3.147c-.438-.253-.383-.694.122-.986l1.786-1.031a1.9 1.9 0 011.707-.071l5.451 3.148c.438.252.383.693-.123.986l-1.785 1.03a1.9 1.9 0 01-1.708.071z" fill="#545cb3"/><path data-name="Path 2936" d="M252.557 208.529l-5.45-3.147c-.439-.253-.383-.694.122-.986l1.785-1.031a1.9 1.9 0 011.708-.07l5.45 3.147c.438.252.383.693-.122.986l-1.786 1.031a1.9 1.9 0 01-1.707.07z" fill="#545cb3"/><path data-name="Path 2937" d="M169.954 170.782l-5.45-3.147c-.439-.252-.383-.693.122-.986l5.4-3.118a1.9 1.9 0 011.707-.071l5.451 3.148c.437.252.383.693-.123.986l-5.4 3.118a1.9 1.9 0 01-1.707.07z" fill="#545cb3"/><path data-name="Path 2938" d="M178.371 175.642l-5.451-3.147c-.438-.253-.383-.694.122-.986l5.4-3.119a1.9 1.9 0 011.707-.07l5.451 3.147c.438.253.383.694-.122.986l-5.4 3.118a1.9 1.9 0 01-1.707.071z" fill="#545cb3"/><path data-name="Path 2939" d="M186.788 180.501l-5.451-3.147c-.437-.253-.383-.694.123-.986l5.4-3.118a1.894 1.894 0 011.707-.071l5.45 3.147c.438.253.383.694-.122.986l-5.4 3.118a1.894 1.894 0 01-1.707.071z" fill="#545cb3"/><path data-name="Path 2940" d="M195.204 185.361l-5.45-3.147c-.438-.253-.383-.694.122-.986l5.4-3.118a1.894 1.894 0 011.707-.071l5.451 3.147c.437.253.383.694-.123.986l-5.4 3.119a1.9 1.9 0 01-1.707.07z" fill="#545cb3"/><path data-name="Path 2941" d="M203.622 190.22l-5.451-3.147c-.438-.253-.383-.693.123-.986l5.4-3.118a1.9 1.9 0 011.708-.071l5.45 3.148c.438.252.383.693-.122.986l-5.4 3.118a1.9 1.9 0 01-1.708.07z" fill="#545cb3"/><path data-name="Path 2942" d="M212.038 195.08l-5.45-3.148c-.437-.252-.383-.693.122-.986l5.4-3.118a1.9 1.9 0 011.707-.07l5.451 3.147c.437.253.383.693-.123.986l-5.4 3.118a1.9 1.9 0 01-1.707.071z" fill="#545cb3"/><path data-name="Path 2943" d="M220.459 199.94l-5.454-3.146c-.438-.253-.383-.694.123-.986l5.4-3.119a1.9 1.9 0 011.708-.07l5.45 3.147c.438.253.383.694-.122.986l-5.405 3.117a1.894 1.894 0 01-1.7.071z" fill="#545cb3"/><path data-name="Path 2944" d="M228.872 204.799l-5.449-3.147c-.437-.253-.383-.694.122-.986l5.4-3.118a1.894 1.894 0 011.707-.071l5.451 3.147c.438.253.383.694-.123.986l-5.4 3.118a1.9 1.9 0 01-1.708.071z" fill="#545cb3"/><path data-name="Path 2945" d="M237.288 209.658l-5.451-3.147c-.438-.253-.383-.694.123-.986l5.4-3.118a1.9 1.9 0 011.708-.071l5.45 3.148c.438.252.383.693-.122.986l-5.4 3.118a1.9 1.9 0 01-1.708.07z" fill="#545cb3"/><path data-name="Path 2946" d="M121.833 171.383l-16.052-9.268c-.438-.252-.383-.693.123-.986l5.4-3.118a1.9 1.9 0 011.708-.07l16.051 9.268c.438.252.383.693-.122.986l-5.4 3.118a1.9 1.9 0 01-1.708.07z" fill="#545cb3"/><path data-name="Path 2947" d="M225.237 231.084l-16.052-9.268c-.438-.253-.383-.694.123-.986l5.4-3.119a1.9 1.9 0 011.708-.07l16.051 9.268c.438.252.383.693-.122.986l-5.4 3.118a1.9 1.9 0 01-1.708.071z" fill="#545cb3"/><path data-name="Path 2948" d="M191.577 222.384l-5.451-3.147c-.437-.253-.382-.694.123-.986l6.433-3.715a1.9 1.9 0 011.708-.07l5.45 3.147c.438.253.383.694-.122.986l-6.434 3.714a1.894 1.894 0 01-1.707.071z" fill="#545cb3"/><path data-name="Path 2949" d="M130.452 187.094l-8.717-5.032c-.437-.253-.383-.693.123-.986l6.432-3.714a1.9 1.9 0 011.708-.071l8.717 5.032c.438.253.383.694-.123.986l-6.433 3.715a1.9 1.9 0 01-1.707.07z" fill="#545cb3"/><path data-name="Path 2950" d="M183.463 217.702l-8.717-5.032c-.438-.253-.383-.694.123-.986l6.434-3.714a1.894 1.894 0 011.707-.071l8.717 5.032c.437.253.383.694-.122.986l-6.433 3.715a1.9 1.9 0 01-1.709.07z" fill="#545cb3"/><path data-name="Path 2951" d="M142.592 194.105l-8.713-5.028c-.438-.253-.383-.694.122-.986l6.434-3.714a1.9 1.9 0 011.708-.071l8.716 5.032c.438.253.383.694-.123.986l-6.434 3.714a1.894 1.894 0 01-1.71.067z" fill="#545cb3"/><path data-name="Path 2952" d="M142.201 184.335l37.9 21.881a.519.519 0 010 .983l-6.561 3.787a1.878 1.878 0 01-1.7 0l-37.9-21.88z" fill="#545cb3"/><path data-name="Path 2953" d="M215.101 231.194l6.071 3.505c.359.207.314.568-.1.808l-2.632 1.519a1.552 1.552 0 01-1.4.058l-6.071-3.505c-.359-.207-.313-.568.1-.808l2.631-1.519a1.558 1.558 0 011.401-.058z" fill="#545cb3"/><path data-name="Path 2954" d="M206.614 226.294l6.071 3.505c.359.207.315.568-.1.808l-2.632 1.519a1.552 1.552 0 01-1.4.058l-6.071-3.505c-.359-.207-.314-.568.1-.808l2.631-1.519a1.558 1.558 0 011.401-.058z" fill="#545cb3"/><path data-name="Path 2955" d="M198.197 221.435l6.071 3.505c.359.207.313.568-.1.808l-2.631 1.519a1.558 1.558 0 01-1.4.058l-6.071-3.505c-.359-.207-.314-.568.1-.808l2.631-1.516a1.552 1.552 0 011.4-.061z" fill="#545cb3"/><path data-name="Path 2956" d="M211.263 223.609l6.071 3.505c.359.208.314.569-.1.808l-2.631 1.519a1.557 1.557 0 01-1.4.059l-6.071-3.505c-.359-.208-.313-.569.1-.808l2.631-1.519a1.557 1.557 0 011.4-.059z" fill="#545cb3"/></g></g></g><g data-name="Group 1740"><path data-name="Path 2957" d="M198.854 109.703l-39.96-23.07a4.256 4.256 0 01-1.778-3.4v-31.44c0-1.309.8-1.91 1.778-1.343l39.96 23.073a4.256 4.256 0 011.777 3.4v31.44c0 1.306-.796 1.907-1.777 1.34z" fill="#8dd6f2" opacity=".4"/><g data-name="Group 1739"><path data-name="Path 2958" d="M170.978 88.47l-.281-.163a4.514 4.514 0 01-1.887-3.6V69.724c0-1.389.844-2.027 1.887-1.425l.281.163a4.516 4.516 0 011.886 3.6v14.982c-.001 1.388-.845 2.027-1.886 1.426z" fill="#b2d3ea"/><path data-name="Path 2959" d="M179.014 93.11l-.282-.163a4.516 4.516 0 01-1.886-3.6v-8.77c0-1.389.844-2.027 1.886-1.425l.282.162a4.518 4.518 0 011.886 3.6v8.769c0 1.386-.845 2.028-1.886 1.427z" fill="#b2d3ea"/><path data-name="Path 2960" d="M187.047 97.75l-.282-.163a4.518 4.518 0 01-1.886-3.6V73.114c0-1.389.844-2.027 1.886-1.426l.282.162a4.516 4.516 0 011.886 3.6v20.873c.003 1.39-.841 2.028-1.886 1.427z" fill="#374999"/></g></g><g data-name="Group 1741"><path data-name="Path 2961" d="M236.951 101.249l-24.823-14.333a3.992 3.992 0 01-1.668-3.185c0-1.227.746-1.792 1.668-1.26l24.826 14.333a3.993 3.993 0 011.667 3.185c-.003 1.227-.749 1.791-1.67 1.26z" fill="#b2d3ea"/><path data-name="Path 2962" d="M220.981 100.759l-8.855-5.113a3.989 3.989 0 01-1.668-3.184c0-1.228.746-1.792 1.668-1.261l8.855 5.113a3.992 3.992 0 011.668 3.185c-.001 1.227-.747 1.789-1.668 1.26z" fill="#b2d3ea"/><path data-name="Path 2963" d="M235.844 109.34l-8.856-5.113a3.993 3.993 0 01-1.667-3.185c0-1.227.746-1.792 1.667-1.26l8.856 5.113a3.993 3.993 0 011.667 3.185c-.001 1.227-.747 1.791-1.667 1.26z" fill="#374999"/><path data-name="Path 2964" d="M254.519 120.156l-12.67-7.348a3.994 3.994 0 01-1.667-3.185c0-1.227.746-1.792 1.667-1.26l12.67 7.348a3.992 3.992 0 011.667 3.185c-.001 1.227-.743 1.792-1.667 1.26z" fill="#b2d3ea"/><path data-name="Path 2965" d="M243.144 122.286l-31.016-17.909a3.989 3.989 0 01-1.668-3.184c0-1.228.746-1.792 1.668-1.261l31.016 17.908a3.99 3.99 0 011.667 3.184c0 1.229-.746 1.793-1.667 1.262z" fill="#b2d3ea"/><path data-name="Path 2966" d="M256.186 138.446l-44.058-25.338a3.989 3.989 0 01-1.668-3.184c0-1.228.746-1.792 1.668-1.261l44.06 25.338a3.994 3.994 0 011.666 3.185c-.002 1.227-.748 1.792-1.668 1.26z" fill="#374999"/><path data-name="Path 2967" d="M259.912 114.467l-16.107-9.26a3.994 3.994 0 01-1.667-3.185c0-1.227.746-1.792 1.667-1.26l16.107 9.261a3.991 3.991 0 011.667 3.184c-.001 1.227-.747 1.791-1.667 1.26z" fill="#b2d3ea"/></g><g data-name="Group 1742"><path data-name="Path 2968" d="M164.85 115.135l-7.838-4.525v9.05l7.838 4.525z" fill="#374999"/><path data-name="Path 2969" d="M177.232 114.809l-7.838-4.525v16.526l7.838 4.525z" fill="#8dd6f2"/><path data-name="Path 2970" d="M189.613 126.678l-7.838-4.525v11.8l7.838 4.525z" fill="#8dd6f2"/><path data-name="Path 2971" d="M201.995 130.416l-7.838-4.525v15.215l7.838 4.525z" fill="#8dd6f2"/><path data-name="Path 2972" d="M214.376 138.484l-7.838-4.525v14.3l7.838 4.525z" fill="#374999"/><path data-name="Path 2973" d="M226.758 142.035l-7.838-4.525v17.9l7.838 4.525z" fill="#545cb3"/><path data-name="Path 2974" d="M239.139 147.272l-7.838-4.525v19.805l7.838 4.525z" fill="#8dd6f2"/><path data-name="Path 2975" d="M251.521 149.59l-7.838-4.525V169.7l7.838 4.525z" fill="#374999"/></g><g data-name="Group 1743" fill="#39b3e3"><path data-name="Rectangle 206" d="M306.041 110.327l.44 1.717-4.988 1.277-.44-1.718z"/><path data-name="Rectangle 207" d="M303.497 112.808l.44 1.717-4.988 1.277-.44-1.718z"/><path data-name="Rectangle 208" d="M300.954 115.289l.44 1.717-4.988 1.277-.44-1.718z"/><path data-name="Rectangle 209" d="M298.41 117.77l.44 1.717-4.986 1.277-.44-1.716z"/></g><path data-name="Path 2976" d="M201.616 215.963l-15.795-9.119-15.794 9.119 15.794 9.119z" fill="#2c5289"/><path data-name="Path 2977" d="M151.83 217.554l-15.795-9.119-15.794 9.119 15.794 9.119z" fill="#2c5289"/><path data-name="Path 2978" d="M118.404 198.406l-15.795-9.119-15.794 9.119 15.794 9.119z" fill="#2c5289"/><g data-name="Group 1748"><g data-name="Group 1747"><g data-name="Group 1744"><path data-name="Path 2979" d="M136.036 217.555V168.92l15.795-9.119v48.635z" fill="#c13d1a"/><path data-name="Path 2980" d="M151.83 159.801l-15.795-9.119-15.795 9.119 15.795 9.119z" fill="#ef602e"/><path data-name="Path 2981" d="M136.035 168.92l-15.795-9.119v48.635l15.795 9.119z" fill="#39b3e3"/><path data-name="Path 2982" d="M136.036 217.555V168.92l15.795-9.119v48.635z" fill="#374999"/><path data-name="Path 2983" d="M151.83 159.801l-15.795-9.119-15.795 9.119 15.795 9.119z" fill="#8dd6f2"/></g><g data-name="Group 1745"><path data-name="Path 2984" d="M169.558 237.17v-27.353l15.8-9.123v27.357z" fill="#545cb3"/><path data-name="Path 2985" d="M169.563 209.817l-15.795-9.123v27.357l15.795 9.119z" fill="#374999"/><path data-name="Path 2986" d="M185.358 200.694l-15.795-9.119-15.795 9.119 15.795 9.119z" fill="#8dd6f2"/></g><g data-name="Group 1746"><path data-name="Path 2987" d="M102.61 198.407v-66.87l15.795-9.119v66.872z" fill="#8dd6f2"/><path data-name="Path 2988" d="M102.611 131.537l-15.795-9.119v66.872l15.795 9.119z" fill="#374999"/><path data-name="Path 2989" d="M118.406 122.415l-15.795-9.115-15.795 9.119 15.795 9.119z" fill="#39b3e3"/></g></g></g><g data-name="Group 1753"><g data-name="Group 1750"><path data-name="Path 2990" d="M93.202 160.219s-2.608-1.315-4.209.643-3.892 6.582-3.962 9.705 2.472 2.913 3.983 2.173 5.928-7.145 6.2-8.4a4.354 4.354 0 00-.74-3.284c-.43-.331-1.272-.837-1.272-.837z" fill="#39b3e3"/><path data-name="Path 2991" d="M93.774 159.59l.12 2.7a1.532 1.532 0 01-.764 1.406 3 3 0 01-2.012.313c-1.965-.315-2.14-.877-2.28-3.578s4.936-.841 4.936-.841z" fill="#8dd6f2"/><g data-name="Group 1749"><path data-name="Path 2992" d="M83.655 155.024s-2.608-1.316-4.209.643-3.891 6.581-3.962 9.705 2.473 2.913 3.983 2.173 5.928-7.145 6.2-8.4a4.36 4.36 0 00-.74-3.284c-.429-.331-1.272-.837-1.272-.837z" fill="#39b3e3"/><path data-name="Path 2993" d="M84.224 154.394l.12 2.7a1.532 1.532 0 01-.763 1.406 3.015 3.015 0 01-2.012.313c-1.965-.315-2.141-.877-2.281-3.578s4.936-.841 4.936-.841z" fill="#8dd6f2"/><path data-name="Path 2994" d="M107.495 104.79c-.772-12.559-13.6 1.847-13.6 1.847l-8.777 8.606-7.907 8.686a7.79 7.79 0 00-1.964 6.261l3.2 24.355a2.394 2.394 0 002.4 2.081 8.286 8.286 0 001.185-.1 2.976 2.976 0 002.643-3.158l-.585-22.779 16.605-10.01s7.571-3.23 6.8-15.789z" fill="#545cb3"/></g><path data-name="Path 2995" d="M117.038 109.576c-.772-12.559-13.6 1.847-13.6 1.847l-8.78 8.606-7.907 8.687a7.788 7.788 0 00-1.964 6.261l3.2 24.355a2.393 2.393 0 002.4 2.08 8.019 8.019 0 001.186-.1 2.975 2.975 0 002.643-3.159l-.585-22.779 16.605-10.01s7.577-3.229 6.802-15.788z" fill="#545cb3"/><path data-name="Path 2996" d="M109.451 69.26c9.726 4.032 9.532 9.782 9.532 9.782s-1.906 21.078-1.255 35.155c.271 5.884-31.267 6.334-26.563-9.366 5.546-18.511 3.467-33.5 6.063-35.758s9.708-.856 12.223.187z" fill="#39b3e3"/><path data-name="Path 2997" d="M112.58 74.358c-.509 1.975-3.1 3.016-5.779 2.324s-4.446-2.852-3.937-4.827 3.1-3.016 5.779-2.324 4.446 2.853 3.937 4.827z" fill="#ffc2b0"/><path data-name="Path 2998" d="M108.443 77.36a7.045 7.045 0 01-1.758-.227c-2.925-.753-4.842-3.173-4.271-5.392s3.417-3.415 6.346-2.659a6.466 6.466 0 013.409 2.088 3.718 3.718 0 01.862 3.306c-.456 1.767-2.354 2.884-4.588 2.884zm-1.464-7.578c-1.806 0-3.316.84-3.665 2.191-.443 1.723 1.173 3.634 3.6 4.261s4.769-.267 5.213-1.992a2.819 2.819 0 00-.682-2.485 5.542 5.542 0 00-2.922-1.775 6.222 6.222 0 00-1.544-.2z" fill="#fff"/><path data-name="Path 2999" d="M105.552 68.822a24.075 24.075 0 01-.085 3.473c-.053.968 3.34 1.873 4.217 1s.526-1.789.737-5.086-4.869.613-4.869.613z" fill="#ffc2b0"/><path data-name="Path 3000" d="M110.421 68.205s-.836 3.057-4.954 4.23l.063-2.779z" fill="#ea9c92"/><path data-name="Path 3001" d="M113.03 60.436a7.485 7.485 0 01-5.374 9.122 7.487 7.487 0 01-9.122-5.375 7.487 7.487 0 015.374-9.122 7.487 7.487 0 019.122 5.375z" fill="#ffc2b0"/><path data-name="Path 3002" d="M107.499 62.585s-4.122 1.766-6.976 1.786-2.225-2.37-2.225-2.37l8.472-1.224z" fill="#ea9c92"/><path data-name="Path 3003" d="M99.674 63.054a13.373 13.373 0 016.741-.889 3.3 3.3 0 011.9 1.131 1.128 1.128 0 00.576.417c.559.126 1.473-2.192 2.559-2.245s1.81.716.92 2.142-.589 3.021-.18 3.249 4.754-3.1.921-10.69-13.567-3.5-15.081-1.965c0 0-1.6 1.39-2.893.153.005-.003-1.449 10.889 4.537 8.697z" fill="#61b3ff"/><path data-name="Path 3004" d="M113.527 94.442v5.7a2.323 2.323 0 01-.757 1.715l-11.7 10.667 1.329 2.033 15.452-11.206a3.14 3.14 0 001.279-2.214l1.044-9.933z" fill="#ffc2b0"/><path data-name="Path 3005" d="M118.159 76.194s3.549 5.338 4.872 19.39c0 0-6.063 1.961-9.5.847s4.628-20.237 4.628-20.237z" fill="#39b3e3"/><path data-name="Path 3006" d="M112.874 82.944a99.026 99.026 0 00-1.468 10.932 2.23 2.23 0 001.468 2.155z" fill="#374999"/></g><g data-name="Group 1751"><path data-name="Path 3007" d="M109.843 119.925l-2.586-.341-16.693-9.643a2.321 2.321 0 00-2.088.087l-11.829 6.827-1.564-.207v1.557a.608.608 0 00.359.548l18.919 10.923a2.321 2.321 0 002.088-.087l12.882-7.435a.842.842 0 00.511-.7z" fill="#39b3e3"/><path data-name="Path 3008" d="M97.3 113.836l-1.187-.685H83.075l-6.429 3.708-1.564-.207v1.553a.608.608 0 00.359.548l18.919 10.923a1.951 1.951 0 001.077.2z" fill="#374999"/><path data-name="Path 3009" d="M75.777 116.745l-.694-.092v1.557a.608.608 0 00.359.548l.334.192z" fill="#39b3e3"/><path data-name="Path 3010" d="M94.553 129.769a2.421 2.421 0 001.773-.11v-2.648h-1.773z" fill="#fff"/><path data-name="Path 3011" d="M94.363 128.125L75.444 117.2c-.535-.31-.467-.849.15-1.206l12.883-7.435a2.321 2.321 0 012.088-.087l18.917 10.928c.536.309.468.848-.15 1.2l-12.882 7.435a2.318 2.318 0 01-2.087.09z" fill="#fff"/><path data-name="Path 3012" d="M94.042 126.47l-15.731-9.082c-.444-.257-.388-.706.125-1l6.9-3.882a1.933 1.933 0 011.737-.072l15.73 9.082c.445.257.389.706-.125 1l-6.9 3.881a1.928 1.928 0 01-1.736.073z" fill="#8dd6f2"/></g><path data-name="Path 3013" d="M89.208 108.204l-.2 1.306a9.64 9.64 0 00.085 3.347l.233 1.15a1.618 1.618 0 001.3 1.27.891.891 0 001.046-.778l.313-2.791s.715.936 1.059.936-.386-2.795-1.166-4.377-2.67-.063-2.67-.063z" fill="#ffc2b0"/><path data-name="Path 3014" d="M95.62 87.457l-2.03 4.018a7.894 7.894 0 00-.831 3.049l-.882 13.742-2.669-.063-1.212-15.433a5.628 5.628 0 01.069-1.426l1.384-7.826z" fill="#ffc2b0"/><g data-name="Group 1752"><path data-name="Path 3015" d="M93.722 129.174l-1.586-2.07-16.682-9.658a2.319 2.319 0 01-.966-1.852l.014-13.658-.959-1.252.9-.522a.61.61 0 01.654.038l18.906 10.945a2.321 2.321 0 01.966 1.853l-.016 14.873a.842.842 0 01-.353.793z" fill="#545cb3"/><path data-name="Path 3016" d="M82.184 121.343l-1.186-.687-6.506-11.3.007-7.421-.959-1.252.9-.522a.61.61 0 01.654.038L94 111.144a1.956 1.956 0 01.713.834z" fill="#374999"/><path data-name="Path 3017" d="M73.968 101.239l-.425-.556.9-.522a.61.61 0 01.654.038l.334.192z" fill="#39b3e3"/><path data-name="Path 3018" d="M94.176 111.266a2.42 2.42 0 01.79 1.593l-1.847 1.066-.885-1.538z" fill="#2c5289"/><path data-name="Path 3019" d="M93.103 111.666l-18.9-10.945c-.535-.31-.969.017-.97.731l-.015 14.874a2.32 2.32 0 00.966 1.852l18.906 10.946c.535.31.968-.018.969-.732l.016-14.873a2.32 2.32 0 00-.972-1.853z" fill="#39b3e3"/></g><path data-name="Path 3020" d="M102.399 114.552l-.3.628a4.2 4.2 0 01-1.58 1.751l-1.878 1.158a1.87 1.87 0 01-1.917.044l-.063-.038a1.13 1.13 0 01-.16-1.736l1.962-2.018s-1.1.845-1.412.5c-.226-.249 1.069-1.466 2.065-1.506a3.922 3.922 0 001.957-.821z" fill="#ffc2b0"/><path data-name="Path 3021" d="M97.423 69.045s-7.193 7.827-10.1 15.008a14.689 14.689 0 008.482 6.171c6.029 1.739 1.618-21.179 1.618-21.179z" fill="#39b3e3"/><path data-name="Path 3022" d="M94.454 89.759l1.167-11.264-2.748 10.553a15.916 15.916 0 001.581.711z" fill="#374999"/><path data-name="Path 3023" d="M102.811 67.465l-1.933-.531a4.668 4.668 0 002.271 1.821c1.347.37 1.557-.77 1.557-.77z" fill="#fff"/></g><g data-name="Group 1759"><g data-name="Group 1758"><g data-name="Group 1754"><path data-name="Path 3024" d="M33.851 262.073l11.877.186a12.614 12.614 0 013.75-3.154c6.532-3.771 16.8-4.062 23.917-.88l7.058-6.642 10.866.169a33.4 33.4 0 00-1.669-1.034c-15.1-8.72-39.586-8.72-54.688 0a28.74 28.74 0 00-6.794 5.294z" fill="#545cb3"/><path data-name="Path 3025" d="M91.32 234.51v17.247l-10.867-.169V234.34z" fill="#39b3e3"/><path data-name="Path 3026" d="M73.396 240.975v17.25l7.057-6.637V234.34z" fill="#545cb3"/><path data-name="Path 3027" d="M45.728 245.011v17.248l15.624-12.734 12.044 8.7v-17.247l-11.09-5.38s-15.266 4.674-16.06 4.872-.518 4.541-.518 4.541z" fill="#545cb3"/><path data-name="Path 3028" d="M33.852 244.827v17.247l11.876.185v-17.247z" fill="#545cb3"/><path data-name="Path 3029" d="M28.167 238.77v17.247l5.685 6.057v-17.248z" fill="#39b3e3"/><path data-name="Path 3030" d="M33.851 244.826l11.877.185a12.627 12.627 0 013.75-3.153c6.532-3.771 16.8-4.062 23.917-.88l7.058-6.637 10.866.169c-.537-.351-1.088-.7-1.669-1.034-15.1-8.719-39.586-8.719-54.688 0a28.691 28.691 0 00-6.794 5.294z" fill="#8dd6f2"/></g><g data-name="Group 1756"><path data-name="Path 3031" d="M76.974 243.099v15.854l10.28-2.463s-.6-9.277-.822-9.524-9.458-3.867-9.458-3.867z" fill="#39b3e3"/><g data-name="Group 1755"><path data-name="Path 3032" d="M69.194 258.953v17.248l1.111 1.183 7.247-4.178s-1.123-13.165-1.256-13.43-7.102-.823-7.102-.823z" fill="#545cb3"/><path data-name="Path 3033" d="M83.189 254.502l-6.215 5.844c5.178 4.1 4.565 9.872-1.84 13.569a22.1 22.1 0 01-5.94 2.286l6.424 6.844-5.692 5.353a51.721 51.721 0 0019.726-6.1c12.982-7.5 14.792-18.991 5.454-27.61z" fill="#374999"/><path data-name="Path 3034" d="M69.929 271.151v17.247l14.094-5.443 16.951-16.172-.063-18.314-17.934 14.215z" fill="#374999"/><path data-name="Path 3035" d="M83.189 237.259l-6.215 5.845c5.178 4.1 4.565 9.872-1.84 13.569a22.1 22.1 0 01-5.94 2.285l6.424 6.844-5.692 5.354a51.738 51.738 0 0019.726-6.1c12.982-7.5 14.792-18.991 5.454-27.611z" fill="#8dd6f2"/></g></g><g data-name="Group 1757"><path data-name="Path 3036" d="M69.879 282.956l-5.662-6.033c-5.257.319-10.708-.682-14.737-3.008-4.161-2.4-5.875-5.682-5.148-8.807l-13.484-.211-5.184-5.524c-4.535 7.784-1.441 16.723 9.3 22.923 7.892 4.555 18.345 6.726 28.683 6.52z" fill="#374999"/><path data-name="Path 3037" d="M63.646 271.575v17.242l-40-22.166v-17.255l5.84 2.361z" fill="#374999"/><path data-name="Path 3038" d="M69.879 265.708v17.247l-6.233 5.862V271.57z" fill="#545cb3"/><path data-name="Path 3039" d="M69.879 265.708l-5.662-6.032c-5.257.319-10.708-.683-14.737-3.008-4.161-2.4-5.875-5.682-5.148-8.808l-13.484-.21-5.184-5.524c-4.535 7.783-1.441 16.723 9.3 22.922 7.892 4.556 18.345 6.727 28.683 6.521z" fill="#39b3e3"/></g></g></g><g data-name="Group 1760"><path data-name="Path 3040" d="M93.244 32.159l1.028-1.744a2.5 2.5 0 001.781.184 3.462 3.462 0 001.9-1.978 6.082 6.082 0 016.766-3.717l-.485 1.967.242-.983-.235.985c-.294-.068-2.924-.566-4.466 2.628a5.332 5.332 0 01-3.151 3.042 4.464 4.464 0 01-3.38-.384z" fill="#39b3e3"/></g><path data-name="Path 3041" d="M61.043 98.595a9.291 9.291 0 01-9.281-9.282 9.291 9.291 0 019.281-9.281 9.291 9.291 0 019.282 9.281 9.292 9.292 0 01-9.282 9.282zm0-16.539a7.265 7.265 0 00-7.257 7.257 7.265 7.265 0 007.257 7.257 7.265 7.265 0 007.257-7.257 7.265 7.265 0 00-7.257-7.257z" fill="#8dd6f2"/><path data-name="Path 3042" d="M6.581 226.823a6.582 6.582 0 116.582-6.582 6.589 6.589 0 01-6.582 6.582zm0-11.138a4.556 4.556 0 104.557 4.556 4.562 4.562 0 00-4.557-4.556z" fill="#39b3e3"/><path data-name="Path 3043" d="M47.451 152.899l-4.466-9.087 9.086-4.467 4.468 9.087zm-1.756-8.163l2.68 5.453 5.453-2.681-2.681-5.453z" fill="#39b3e3"/><path data-name="Rectangle 210" fill="#39b3e3" d="M267.134 55.397l4.176-2.053 2.052 4.176-4.175 2.053z"/><g data-name="Group 1761" fill="#8dd6f2"><path data-name="Rectangle 211" d="M183.355 6.802L190.157 0l1.432 1.43-6.803 6.803z"/><path data-name="Rectangle 212" d="M183.355 1.431L184.786 0l6.801 6.801-1.43 1.431z"/></g><path data-name="Path 3044" d="M259.88 7.519a4.777 4.777 0 01-4.776 4.777 4.777 4.777 0 01-4.778-4.777 4.777 4.777 0 014.778-4.778 4.777 4.777 0 014.776 4.778z" fill="#8dd6f2"/><path data-name="Path 3045" d="M131.304 275.128a2.777 2.777 0 11-2.776-2.776 2.776 2.776 0 012.776 2.776z" fill="#8dd6f2"/><g data-name="Group 1764"><g data-name="Group 1762"><path data-name="Path 3046" d="M39.335 166.493l-20.329-11.738a1.045 1.045 0 00-1.051-.085v-.013l-1.972 1.14s.873.317 1.386.506v14.8a3.917 3.917 0 001.636 3.125l19.432 11.227v1.737l1.992-1.146h-.01a1.451 1.451 0 00.553-1.3v-15.129a3.917 3.917 0 00-1.637-3.124z" fill="#4ac7e0"/><path data-name="Path 3047" d="M37.328 187.127L17.003 175.39a3.917 3.917 0 01-1.636-3.124V157.15c0-1.2.733-1.759 1.636-1.237l20.329 11.736a3.92 3.92 0 011.636 3.125v15.116c-.004 1.205-.737 1.758-1.64 1.237z" fill="#61b3ff"/></g><g data-name="Group 1763" fill="#fff"><path data-name="Path 3048" d="M23.836 170.182c0 .875-.614 1.229-1.371.791a3.029 3.029 0 01-1.372-2.375c0-.875.614-1.229 1.372-.791a3.03 3.03 0 011.371 2.375z"/><path data-name="Path 3049" d="M27.991 172.581c0 .874-.615 1.229-1.372.791a3.034 3.034 0 01-1.371-2.375c0-.875.615-1.23 1.371-.792a3.032 3.032 0 011.372 2.376z"/><path data-name="Path 3050" d="M32.144 174.98c0 .875-.615 1.229-1.372.792a3.034 3.034 0 01-1.371-2.376c0-.874.615-1.229 1.371-.791a3.032 3.032 0 011.372 2.375z"/></g></g><g data-name="Group 1767"><g data-name="Group 1765"><path data-name="Path 3051" d="M234.294 27.623l-20.328-11.734a1.042 1.042 0 00-1.051-.084v-.013l-1.972 1.14 1.386.506v14.8a3.917 3.917 0 001.636 3.125l19.431 11.218v1.738l1.992-1.147h-.011a1.451 1.451 0 00.553-1.3V30.756a3.917 3.917 0 00-1.636-3.133z" fill="#39b3e3"/><path data-name="Path 3052" d="M232.287 48.257l-20.329-11.736a3.92 3.92 0 01-1.636-3.125V18.28c0-1.2.733-1.758 1.636-1.237l20.329 11.737a3.917 3.917 0 011.636 3.124v15.117c0 1.204-.733 1.758-1.636 1.236z" fill="#8dd6f2"/></g><g data-name="Group 1766" fill="#fff"><path data-name="Path 3053" d="M218.795 31.312c0 .875-.615 1.229-1.372.792a3.034 3.034 0 01-1.371-2.376c0-.874.614-1.229 1.371-.791a3.032 3.032 0 011.372 2.375z"/><path data-name="Path 3054" d="M222.95 33.711c0 .874-.615 1.229-1.372.791a3.034 3.034 0 01-1.371-2.375c0-.875.615-1.229 1.371-.792a3.033 3.033 0 011.372 2.376z"/><path data-name="Path 3055" d="M227.105 36.11c0 .875-.614 1.23-1.371.792a3.031 3.031 0 01-1.371-2.375c0-.875.614-1.23 1.371-.792a3.031 3.031 0 011.371 2.375z"/></g></g><g data-name="Group 1773"><g data-name="Group 1772"><g data-name="Group 1771"><g data-name="Group 1768"><path data-name="Path 3056" d="M269.767 266.976v-36.749l-11.935-6.89v36.749z" fill="#c13d1a"/><path data-name="Path 3057" d="M269.764 230.227l11.935-6.89v36.749l-11.935 6.89z" fill="#4ac7e0"/><path data-name="Path 3058" d="M269.767 266.976v-36.749l-11.935-6.89v36.749z" fill="#61b3ff"/></g><g data-name="Group 1769"><path data-name="Path 3059" d="M244.433 281.799v-20.672l-11.935-6.89v20.671z" fill="#61b3ff"/><path data-name="Path 3060" d="M244.432 261.127l11.935-6.89v20.671l-11.935 6.891z" fill="#4ac7e0"/><path data-name="Path 3061" d="M232.498 254.236l11.935-6.89 11.935 6.89-11.935 6.89z" fill="#61b3ff"/></g><g data-name="Group 1770"><path data-name="Path 3062" d="M295.023 252.508v-50.531l-11.935-6.891v50.531z" fill="#61b3ff"/><path data-name="Path 3063" d="M295.023 201.977l11.934-6.89v50.53l-11.935 6.89z" fill="#4ac7e0"/><path data-name="Path 3064" d="M283.088 195.086l11.935-6.89 11.935 6.89-11.935 6.891z" fill="#61b3ff"/></g></g><path data-name="Path 3065" d="M257.831 223.336l11.935-6.891 11.935 6.891-11.935 6.89z" fill="#61b3ff"/></g></g></svg>