<svg xmlns="http://www.w3.org/2000/svg" width="84.683" height="120" viewBox="0 0 84.683 120">
  <g id="fb-ads" transform="translate(-113.692)">
    <g id="Group_3012" data-name="Group 3012" transform="translate(113.692)">
      <g id="Group_3011" data-name="Group 3011" transform="translate(0)">
        <path id="Path_5490" data-name="Path 5490" d="M154.475,0H123.449a9.75,9.75,0,0,0-9.757,9.574v72.7a9.658,9.658,0,0,0,9.662,9.563l31.077-.034a9.6,9.6,0,0,0,9.589-9.565l.045-72.673A9.576,9.576,0,0,0,154.475,0Zm-20,5.74h9a1.435,1.435,0,0,1,0,2.87h-9a1.435,1.435,0,0,1,0-2.87Zm-5.409.457a1.486,1.486,0,0,1,2.031,0,1.439,1.439,0,0,1-1.012,2.454,1.469,1.469,0,0,1-1.019-.423,1.448,1.448,0,0,1,0-2.031Zm9.62,82.8a4.294,4.294,0,1,1,4.294-4.294A4.3,4.3,0,0,1,138.691,89Zm20.92-11.507h-40.9V13.633h40.9V77.489Z" transform="translate(-113.692)" fill="#214c85"/>
      </g>
    </g>
    <path id="Path_5491" data-name="Path 5491" d="M366.739,384.069h-.075a2.717,2.717,0,0,0-2.644,2.788v2.174a.785.785,0,0,1-1.569,0v-4.014a2.59,2.59,0,1,0-5.156,0v4.254a.785.785,0,1,1-1.569,0v-5.422a2.714,2.714,0,0,0-2.619-2.806h-.08a2.625,2.625,0,0,0-2.569,2.688v6.106a.785.785,0,1,1-1.569,0v-5.929c0-.019,0-.039,0-.059,0-.048,0-.1,0-.144V369.844a2.628,2.628,0,1,0-5.237,0l-.016,22.986a.785.785,0,0,1-1.391.5l-2.745-3.341a4.178,4.178,0,0,0-2.949-1.559,4.089,4.089,0,0,0-3.072,1.1l-.03.028-.537.449,9.516,18.287a8.441,8.441,0,0,0,7.412,4.694h11c4.681,0,8.493-4.118,8.5-9.163,0-2.671.005-4.675.007-6.289.006-4.315.008-5.9,0-10.655A2.709,2.709,0,0,0,366.739,384.069Z" transform="translate(-170.975 -292.986)" fill="#214c85"/>
    <path id="Path_5492" data-name="Path 5492" d="M160.22,90.5v26.9h33.971V90.5Zm4.58,23.89h-2.045v-1.611H164.8Zm3.131,0h-2.045v-1.611h2.045Zm3.283,0h-2.045v-1.611h2.045Zm20.5-4.286H162.755V92.324h28.958Z" transform="translate(-38.043 -73.996)" fill="#214c85"/>
    <path id="Path_5493" data-name="Path 5493" d="M160.22,257.833v26.9h33.971v-26.9Zm4.58,23.89h-2.045v-1.611H164.8Zm3.131,0h-2.045v-1.611h2.045Zm3.283,0h-2.045v-1.611h2.045Zm20.5-4.286H162.755V259.657h28.958Z" transform="translate(-38.043 -210.813)" fill="#214c85"/>
    <g id="Group_3013" data-name="Group 3013" transform="translate(131.708 21.774)">
      <path id="Path_5494" data-name="Path 5494" d="M223.846,147.1a.681.681,0,0,0-.96,0l-1.565,1.565-2.919-2.919a.68.68,0,0,0-.959,0l-4.764,4.764a.68.68,0,0,0,.476,1.157h13.61a.681.681,0,0,0,.483-1.164Z" transform="translate(-212.485 -140.783)" fill="#214c85"/>
      <circle id="Ellipse_36" data-name="Ellipse 36" cx="2.042" cy="2.042" r="2.042" transform="translate(7.476)" fill="#214c85"/>
    </g>
    <g id="Group_3014" data-name="Group 3014" transform="translate(131.708 51.864)">
      <path id="Path_5495" data-name="Path 5495" d="M223.846,312.1a.681.681,0,0,0-.96,0l-1.565,1.565-2.919-2.919a.68.68,0,0,0-.959,0l-4.764,4.764a.68.68,0,0,0,.476,1.157h13.61a.681.681,0,0,0,.483-1.164Z" transform="translate(-212.485 -305.783)" fill="#214c85"/>
      <circle id="Ellipse_37" data-name="Ellipse 37" cx="2.042" cy="2.042" r="2.042" transform="translate(7.476)" fill="#214c85"/>
    </g>
  </g>
</svg>
