<svg xmlns="http://www.w3.org/2000/svg" width="84.683" height="120"><g data-name="Group 3012"><g data-name="Group 3011"><path data-name="Path 5490" d="M40.783 0H9.757A9.75 9.75 0 000 9.574v72.7a9.658 9.658 0 009.662 9.563l31.077-.034a9.6 9.6 0 009.589-9.565l.045-72.673A9.576 9.576 0 0040.783 0zm-20 5.74h9a1.435 1.435 0 010 2.87h-9a1.435 1.435 0 010-2.87zm-5.409.457a1.486 1.486 0 012.031 0 1.439 1.439 0 01-1.012 2.454 1.469 1.469 0 01-1.019-.423 1.448 1.448 0 010-2.031zm9.62 82.8a4.294 4.294 0 114.294-4.294A4.3 4.3 0 0124.999 89zm20.92-11.507h-40.9V13.633h40.9v63.856z" fill="#214c85"/></g></g><path data-name="Path 5491" d="M82.072 91.083h-.075a2.717 2.717 0 00-2.644 2.788v2.174a.785.785 0 01-1.569 0v-4.014a2.59 2.59 0 10-5.156 0v4.254a.785.785 0 11-1.569 0v-5.422a2.714 2.714 0 00-2.619-2.806h-.08a2.625 2.625 0 00-2.569 2.688v6.106a.785.785 0 11-1.569 0V76.858a2.628 2.628 0 10-5.237 0l-.016 22.986a.785.785 0 01-1.391.5l-2.745-3.341a4.178 4.178 0 00-2.949-1.559 4.089 4.089 0 00-3.072 1.1l-.03.028-.537.449 9.516 18.287a8.441 8.441 0 007.412 4.694h11c4.681 0 8.493-4.118 8.5-9.163 0-2.671.005-4.675.007-6.289.006-4.315.008-5.9 0-10.655a2.709 2.709 0 00-2.608-2.812z" fill="#214c85"/><path data-name="Path 5492" d="M8.485 16.504v26.9h33.971v-26.9zm4.58 23.89H11.02v-1.611h2.045zm3.131 0h-2.045v-1.611h2.045zm3.283 0h-2.045v-1.611h2.045zm20.5-4.286H11.02v-17.78h28.958z" fill="#214c85"/><path data-name="Path 5493" d="M8.485 47.02v26.9h33.971v-26.9zm4.58 23.89H11.02v-1.611h2.045zm3.131 0h-2.045v-1.611h2.045zm3.283 0h-2.045v-1.611h2.045zm20.5-4.286H11.02v-17.78h28.958z" fill="#214c85"/><g data-name="Group 3013" transform="translate(18.016 21.774)" fill="#214c85"><path data-name="Path 5494" d="M11.361 6.317a.681.681 0 00-.96 0L8.836 7.882 5.917 4.963a.68.68 0 00-.959 0L.194 9.727a.68.68 0 00.476 1.157h13.61a.681.681 0 00.483-1.164z"/><circle data-name="Ellipse 36" cx="2.042" cy="2.042" r="2.042" transform="translate(7.476)"/></g><g data-name="Group 3014" transform="translate(18.016 51.864)" fill="#214c85"><path data-name="Path 5495" d="M11.361 6.317a.681.681 0 00-.96 0L8.836 7.882 5.917 4.963a.68.68 0 00-.959 0L.194 9.727a.68.68 0 00.476 1.157h13.61a.681.681 0 00.483-1.164z"/><circle data-name="Ellipse 37" cx="2.042" cy="2.042" r="2.042" transform="translate(7.476)"/></g></svg>