<svg xmlns="http://www.w3.org/2000/svg" width="323.991" height="298.16"><defs><linearGradient id="a" x1=".512" y1=".268" x2=".471" y2="1.034" gradientUnits="objectBoundingBox"><stop offset="0" stop-color="#b1d9df"/><stop offset=".704" stop-color="#eaeeee"/></linearGradient><linearGradient id="b" x1=".875" y1=".108" x2=".095" y2=".923" gradientUnits="objectBoundingBox"><stop offset="0" stop-color="#c5e4ff"/><stop offset=".704" stop-color="#eaeeee"/></linearGradient><clipPath id="c"><path data-name="Path 5388" d="M4056.865-320.471a8.971 8.971 0 004.282 6.89c2.364 1.36 4.281.48 4.281-1.965a8.977 8.977 0 00-4.281-6.89c-2.366-1.364-4.282-.48-4.282 1.965z" transform="translate(-4056.865 323.076)" fill="none"/></clipPath></defs><g data-name="Group 2767"><g data-name="Group 2756"><path data-name="Path 5218" d="M4150.156-193.205l-2.123-90.6c-.12-5.095-1.842-7.53-5.2-9.392l-121.422-66.359a3.806 3.806 0 00-3.225-.536s1.991-1.216 2.175-1.291a3.851 3.851 0 013.186.552l121.422 66.359c3.356 1.862 5.081 4.3 5.2 9.393l2.122 90.594c.058 2.436-.581 3.822-1.627 4.328l-1.782 1.056c.835-.628 1.324-1.959 1.274-4.104z" transform="translate(-3914.521 417.178)" fill="url(#a)"/></g><path data-name="Path 5220" d="M232.769 235.797a2.541 2.541 0 00-.011-.46l-.107-4.576a4.629 4.629 0 01-2.532 3.3l-77.4 47.136c-3.131 1.907-7.927 2.218-10.713.7L20.584 215.538a3.255 3.255 0 01-1.9-2.476h-.009l.115 4.908a3.188 3.188 0 001.913 2.625l121.422 66.36c2.785 1.522 7.582 1.211 10.712-.7l77.4-47.136a4.647 4.647 0 002.533-3.286z" fill="#464647"/><path data-name="Path 5221" d="M4147.178-191.685l-121.421-66.359c-2.787-1.523-7.583-1.211-10.713.7l-45.825 27.908-31.571 19.227a7.811 7.811 0 00-1.01.728c-2.138 1.835-2.059 4.141.388 5.479l121.422 66.359c2.785 1.522 7.582 1.211 10.713-.7l31.58-19.232 45.815-27.9c3.128-1.907 3.407-4.686.622-6.21z" transform="translate(-3916.432 419.535)" fill="url(#b)"/><path data-name="Path 5222" d="M72.332 242.735l19.805 10.823a.577.577 0 01.032 1.093l-21.737-11.872a2.092 2.092 0 011.9-.044z" fill="#464647"/><path data-name="Path 5223" d="M117.334 167.448l102.669 56.111 1.367-.832-102.669-56.11z" fill="#464647"/><g data-name="Group 2757"><path data-name="Path 5224" d="M233.512 133.377c-.12-5.095-1.841-7.53-5.2-9.392l-121.42-66.359c-2.786-1.523-5-.769-4.889 3.878l2.124 90.6c.139 5.919 2.153 7.735 5.2 9.392l121.415 66.354c2.786 1.523 4.993.565 4.888-3.878z" fill="#464647"/><path data-name="Path 5225" d="M230.17 215.59l-2-85.243a.832.832 0 00-.433-.71L108.584 64.518a.831.831 0 00-1.229.749l2 85.243a.832.832 0 00.432.709l119.153 65.12a.832.832 0 001.23-.749z" fill="#33b4ff"/><path data-name="Path 5226" d="M200.495 114.747l-55.06-30.091-36.848-20.138a.831.831 0 00-1.229.748l2 85.244a.832.832 0 00.432.709l16.274 8.894z" fill="#fff" opacity=".2" style="mix-blend-mode:overlay;isolation:isolate"/></g><g data-name="Group 2759"><path data-name="Path 5227" d="M74.831 227.088l16.322-9.939a3.956 3.956 0 013.581-.078l40.611 22.194a1.092 1.092 0 01.059 2.067l-16.322 9.94z" fill="#7b7b7c" opacity=".4"/><g data-name="Group 2758" opacity=".4" fill="#7a7a7a"><path data-name="Path 5228" d="M96.627 239.783l21.776 11.9-8.834 5.381a3.961 3.961 0 01-3.582.078l-19.955-10.907z" opacity=".4"/><path data-name="Path 5229" d="M95.927 239.402l-10.6 6.453-19.957-10.906a1.092 1.092 0 01-.059-2.067l8.835-5.381z" opacity=".4"/></g></g><g data-name="Group 2766" fill="#232323"><g data-name="Group 2760"><path data-name="Path 5230" d="M203.554 234.669l6.076 3.321a1.588 1.588 0 001.428-.093l5.667-3.451c.417-.255.454-.625.083-.828l-6.075-3.321a1.59 1.59 0 00-1.429.092l-5.666 3.452c-.419.254-.456.625-.084.828z"/><path data-name="Path 5231" d="M195.334 230.176l6.076 3.321a1.589 1.589 0 001.428-.093l5.667-3.451c.418-.254.455-.625.083-.828l-6.075-3.321a1.59 1.59 0 00-1.429.092l-5.666 3.452c-.419.252-.456.625-.084.828z"/><path data-name="Path 5232" d="M187.113 225.683l6.076 3.321a1.589 1.589 0 001.428-.093l5.666-3.451c.417-.254.455-.625.083-.828l-6.075-3.321a1.586 1.586 0 00-1.428.093l-5.667 3.451c-.417.255-.455.626-.083.828z"/><path data-name="Path 5233" d="M178.892 221.19l6.076 3.321a1.587 1.587 0 001.429-.093l5.666-3.451c.417-.254.454-.625.083-.828l-6.076-3.321a1.591 1.591 0 00-1.429.093l-5.665 3.451c-.417.254-.456.626-.084.828z"/><path data-name="Path 5234" d="M170.67 216.697l6.076 3.321a1.589 1.589 0 001.428-.092l5.666-3.452c.417-.254.455-.625.083-.828l-6.076-3.321a1.59 1.59 0 00-1.429.093l-5.665 3.451c-.416.254-.454.628-.083.828z"/><path data-name="Path 5235" d="M162.45 212.205l6.076 3.32a1.59 1.59 0 001.429-.092l5.666-3.452c.417-.254.454-.625.083-.828l-6.075-3.321a1.591 1.591 0 00-1.429.093l-5.667 3.451c-.418.254-.455.626-.083.829z"/><path data-name="Path 5236" d="M154.228 207.711l6.076 3.321a1.591 1.591 0 001.429-.092l5.665-3.452c.417-.254.455-.624.084-.828l-6.077-3.321a1.59 1.59 0 00-1.428.093l-5.666 3.451c-.417.255-.454.626-.083.828z"/><path data-name="Path 5237" d="M146.009 203.219l6.076 3.321a1.592 1.592 0 001.428-.093l5.666-3.451c.417-.255.455-.625.084-.829l-6.077-3.321a1.592 1.592 0 00-1.428.093l-5.666 3.455c-.418.251-.455.622-.083.825z"/><path data-name="Path 5238" d="M137.787 198.726l6.076 3.321a1.591 1.591 0 001.428-.093l5.667-3.451c.417-.255.455-.625.083-.829l-6.076-3.32a1.589 1.589 0 00-1.428.092l-5.666 3.451c-.418.255-.455.626-.084.829z"/><path data-name="Path 5239" d="M129.567 194.233l6.075 3.321a1.59 1.59 0 001.428-.093l5.666-3.451c.417-.255.455-.625.083-.828l-6.076-3.321a1.589 1.589 0 00-1.428.092l-5.666 3.451c-.417.255-.455.626-.082.829z"/><path data-name="Path 5240" d="M121.346 189.74l6.075 3.321a1.589 1.589 0 001.428-.093l5.667-3.451c.417-.255.454-.625.083-.829l-6.076-3.32a1.588 1.588 0 00-1.428.092l-5.667 3.452c-.417.254-.457.625-.082.828z"/><path data-name="Path 5241" d="M113.125 185.247l6.077 3.321a1.588 1.588 0 001.428-.093l5.666-3.451c.418-.254.455-.625.083-.828l-6.076-3.321a1.588 1.588 0 00-1.428.092l-5.667 3.452c-.421.254-.455.625-.083.828z"/><path data-name="Path 5242" d="M104.901 180.754l6.075 3.321a1.591 1.591 0 001.429-.093l5.667-3.451c.417-.254.454-.625.082-.828l-6.075-3.321a1.586 1.586 0 00-1.428.093l-5.666 3.451c-.415.254-.453.626-.084.828z"/><path data-name="Path 5243" d="M92.967 174.231l9.79 5.35a1.588 1.588 0 001.429-.093l5.667-3.451c.417-.254.454-.625.083-.828l-9.791-5.35a1.587 1.587 0 00-1.427.092l-5.667 3.451c-.418.255-.455.626-.084.829z"/></g><g data-name="Group 2761"><path data-name="Path 5244" d="M98.269 178.023l-6.076-3.321a1.59 1.59 0 00-1.429.093l-5.665 3.451c-.418.255-.456.625-.084.829l6.076 3.321a1.592 1.592 0 001.428-.093l5.667-3.451c.418-.256.455-.626.083-.829z"/><path data-name="Path 5245" d="M106.49 182.516l-6.075-3.321a1.592 1.592 0 00-1.428.093l-5.666 3.451c-.417.255-.456.625-.084.828l6.076 3.321a1.588 1.588 0 001.428-.092l5.667-3.451c.417-.256.454-.626.082-.829z"/><path data-name="Path 5246" d="M114.711 187.009l-6.075-3.321a1.588 1.588 0 00-1.428.093l-5.667 3.451c-.418.255-.455.625-.083.828l6.075 3.321a1.588 1.588 0 001.428-.092l5.667-3.452c.418-.255.454-.626.083-.828z"/><path data-name="Path 5247" d="M122.933 191.502l-6.077-3.321a1.589 1.589 0 00-1.428.093l-5.666 3.451c-.418.254-.455.625-.083.828l6.075 3.321a1.59 1.59 0 001.429-.092l5.667-3.452c.416-.255.453-.626.083-.828z"/><path data-name="Path 5248" d="M131.154 195.995l-6.077-3.321a1.589 1.589 0 00-1.428.093l-5.666 3.451c-.417.254-.454.625-.083.828l6.076 3.321a1.588 1.588 0 001.429-.093l5.665-3.451c.417-.255.455-.626.084-.828z"/><path data-name="Path 5249" d="M139.378 200.488l-6.077-3.321a1.588 1.588 0 00-1.428.092l-5.667 3.452c-.417.254-.454.625-.083.828l6.076 3.321a1.584 1.584 0 001.427-.093l5.667-3.451c.415-.255.453-.626.085-.828z"/><path data-name="Path 5250" d="M147.595 204.981l-6.076-3.321a1.591 1.591 0 00-1.429.092l-5.665 3.452c-.419.254-.455.624-.084.828l6.075 3.321a1.591 1.591 0 001.429-.093l5.665-3.451c.419-.252.453-.626.085-.828z"/><path data-name="Path 5251" d="M155.816 209.474l-6.075-3.322a1.594 1.594 0 00-1.429.093l-5.666 3.452c-.417.254-.455.624-.084.828l6.076 3.321a1.589 1.589 0 001.428-.093l5.666-3.451c.416-.256.456-.626.084-.828z"/><path data-name="Path 5252" d="M164.032 213.966l-6.075-3.321a1.594 1.594 0 00-1.429.093l-5.666 3.452c-.417.254-.455.624-.083.828l6.076 3.321a1.591 1.591 0 001.428-.093l5.667-3.451c.421-.256.457-.626.082-.829z"/><path data-name="Path 5253" d="M172.258 218.46l-6.075-3.322a1.589 1.589 0 00-1.428.093l-5.667 3.451c-.417.255-.456.625-.084.828l6.076 3.322a1.592 1.592 0 001.428-.093l5.667-3.452c.417-.255.454-.627.083-.827z"/><path data-name="Path 5254" d="M180.478 222.952l-6.075-3.321a1.589 1.589 0 00-1.428.093l-5.666 3.451c-.417.255-.455.625-.084.829l6.077 3.32a1.587 1.587 0 001.427-.092l5.667-3.451c.417-.256.454-.626.082-.829z"/><path data-name="Path 5255" d="M188.7 227.445l-6.076-3.321a1.589 1.589 0 00-1.428.093l-5.667 3.451c-.417.255-.454.625-.083.828l6.076 3.321a1.587 1.587 0 001.427-.092l5.667-3.452c.418-.255.456-.626.084-.828z"/><path data-name="Path 5256" d="M196.92 231.938l-6.077-3.321a1.589 1.589 0 00-1.428.093l-5.666 3.451c-.417.254-.454.625-.083.828l6.076 3.321a1.586 1.586 0 001.428-.093l5.666-3.451c.418-.255.455-.626.084-.828z"/><path data-name="Path 5257" d="M208.856 238.464l-9.792-5.35a1.586 1.586 0 00-1.428.093l-5.666 3.451c-.417.254-.454.625-.083.828l9.79 5.351a1.6 1.6 0 001.429-.093l5.666-3.451c.417-.259.455-.629.084-.829z"/></g><g data-name="Group 2762"><path data-name="Path 5258" d="M96.252 186.108l-12.01-6.564a1.589 1.589 0 00-1.428.093l-5.667 3.451c-.417.255-.454.625-.083.828l12.01 6.565a1.593 1.593 0 001.428-.093l5.666-3.451c.419-.255.455-.625.084-.829z"/><path data-name="Path 5259" d="M200.838 243.266l-12.01-6.564a1.586 1.586 0 00-1.428.093l-5.667 3.45c-.417.255-.454.625-.083.828l12.011 6.564a1.588 1.588 0 001.428-.092l5.666-3.452c.418-.248.455-.624.083-.827z"/><path data-name="Path 5260" d="M104.473 190.602l-6.075-3.321a1.59 1.59 0 00-1.428.093l-5.666 3.451c-.417.255-.456.625-.084.828l6.076 3.321a1.588 1.588 0 001.428-.092l5.667-3.451c.417-.256.454-.626.082-.829z"/><path data-name="Path 5261" d="M112.693 195.095l-6.075-3.321a1.586 1.586 0 00-1.428.093l-5.667 3.451c-.417.255-.455.625-.084.828l6.076 3.321a1.588 1.588 0 001.428-.092l5.666-3.452c.419-.255.456-.625.084-.828z"/><path data-name="Path 5262" d="M120.914 199.588l-6.075-3.321a1.59 1.59 0 00-1.428.093l-5.666 3.451c-.417.254-.455.625-.083.828l6.076 3.321a1.585 1.585 0 001.427-.093l5.667-3.451c.417-.255.455-.626.082-.828z"/><path data-name="Path 5263" d="M129.137 204.081l-6.077-3.321a1.589 1.589 0 00-1.428.092l-5.666 3.452c-.417.254-.454.625-.083.828l6.076 3.321a1.589 1.589 0 001.428-.093l5.666-3.451c.417-.255.455-.626.084-.828z"/><path data-name="Path 5264" d="M137.358 208.574l-6.077-3.321a1.589 1.589 0 00-1.428.092l-5.666 3.452c-.417.254-.454.624-.083.828l6.076 3.321a1.591 1.591 0 001.429-.093l5.665-3.451c.417-.256.459-.626.084-.828z"/><path data-name="Path 5265" d="M145.579 213.067l-6.077-3.321a1.587 1.587 0 00-1.427.092l-5.666 3.451c-.419.255-.455.626-.084.829l6.076 3.321a1.591 1.591 0 001.429-.093l5.665-3.451c.417-.256.455-.626.084-.828z"/><path data-name="Path 5266" d="M153.803 217.559l-6.077-3.321a1.593 1.593 0 00-1.428.093l-5.666 3.451c-.417.255-.454.625-.082.829l6.075 3.32a1.588 1.588 0 001.429-.092l5.665-3.451c.415-.256.452-.626.084-.829z"/><path data-name="Path 5267" d="M162.02 222.053l-6.075-3.322a1.594 1.594 0 00-1.429.093l-5.666 3.451c-.417.255-.455.625-.084.829l6.076 3.321a1.594 1.594 0 001.429-.093l5.666-3.451c.418-.256.451-.626.083-.828z"/><path data-name="Path 5268" d="M170.24 226.542l-6.075-3.321a1.592 1.592 0 00-1.428.093l-5.667 3.451c-.417.255-.455.625-.084.828l6.077 3.321a1.589 1.589 0 001.428-.092l5.667-3.451c.414-.253.454-.623.082-.829z"/><path data-name="Path 5269" d="M178.457 231.038l-6.075-3.321a1.589 1.589 0 00-1.428.093l-5.666 3.451c-.417.255-.456.625-.084.828l6.076 3.321a1.588 1.588 0 001.428-.092l5.667-3.451c.421-.256.458-.624.082-.829z"/><path data-name="Path 5270" d="M186.682 235.531l-6.076-3.321a1.589 1.589 0 00-1.428.093l-5.667 3.451c-.417.255-.455.625-.083.828l6.076 3.321a1.587 1.587 0 001.427-.092l5.666-3.452c.42-.255.457-.625.085-.828z"/></g><g data-name="Group 2763"><path data-name="Path 5271" d="M92.382 193.181l-16.092-8.794a1.585 1.585 0 00-1.428.093l-5.667 3.451c-.417.254-.454.625-.083.828l16.091 8.795a1.6 1.6 0 001.429-.093l5.665-3.451c.419-.256.457-.626.085-.829z"/><path data-name="Path 5272" d="M100.607 197.674l-6.077-3.321a1.589 1.589 0 00-1.428.093l-5.666 3.451c-.417.255-.455.625-.084.828l6.076 3.321a1.59 1.59 0 001.429-.092l5.666-3.452c.415-.255.452-.626.084-.828z"/><path data-name="Path 5273" d="M108.824 202.167l-6.075-3.321a1.591 1.591 0 00-1.429.093l-5.667 3.454c-.417.255-.454.625-.083.828l6.076 3.321a1.587 1.587 0 001.428-.093l5.666-3.451c.419-.258.452-.629.084-.831z"/><path data-name="Path 5274" d="M117.045 206.66l-6.076-3.321a1.591 1.591 0 00-1.429.093l-5.665 3.451c-.417.254-.455.625-.084.828l6.077 3.321a1.587 1.587 0 001.428-.093l5.666-3.451c.414-.255.454-.626.083-.828z"/><path data-name="Path 5275" d="M125.261 211.153l-6.076-3.321a1.585 1.585 0 00-1.428.093l-5.667 3.451c-.417.254-.455.625-.084.828l6.077 3.321a1.592 1.592 0 001.428-.092l5.667-3.452c.422-.255.459-.626.083-.828z"/><path data-name="Path 5276" d="M133.487 215.646l-6.076-3.321a1.585 1.585 0 00-1.428.093l-5.667 3.451c-.417.254-.454.625-.083.828l6.075 3.321a1.589 1.589 0 001.428-.093l5.667-3.451c.418-.256.455-.626.084-.828z"/><path data-name="Path 5277" d="M141.708 220.139l-6.076-3.321a1.589 1.589 0 00-1.428.092l-5.667 3.452c-.417.254-.455.624-.083.828l6.075 3.321a1.589 1.589 0 001.428-.093l5.666-3.451c.419-.256.456-.626.085-.828z"/><path data-name="Path 5278" d="M149.928 224.632l-6.076-3.321a1.589 1.589 0 00-1.428.092l-5.667 3.452c-.417.254-.454.624-.083.828l6.076 3.321a1.593 1.593 0 001.429-.093l5.666-3.451c.417-.256.454-.626.083-.828z"/><path data-name="Path 5279" d="M158.149 229.125l-6.075-3.322a1.593 1.593 0 00-1.428.093l-5.666 3.451c-.417.255-.454.625-.083.829l6.076 3.321a1.594 1.594 0 001.427-.098l5.666-3.452c.418-.248.455-.62.083-.822z"/><path data-name="Path 5280" d="M166.37 233.617l-6.076-3.321a1.589 1.589 0 00-1.428.093l-5.667 3.451c-.416.255-.454.625-.083.828l6.075 3.322a1.594 1.594 0 001.429-.093l5.667-3.451c.417-.256.455-.626.083-.829z"/><path data-name="Path 5281" d="M174.592 238.11l-6.077-3.321a1.59 1.59 0 00-1.428.093l-5.666 3.451c-.417.255-.454.625-.083.828l6.075 3.321a1.59 1.59 0 001.429-.092l5.667-3.452c.416-.255.454-.625.083-.828z"/><path data-name="Path 5282" d="M192.886 248.108l-16.15-8.826a1.591 1.591 0 00-1.429.093l-5.665 3.451c-.417.254-.455.625-.084.828l16.149 8.826a1.586 1.586 0 001.428-.093l5.666-3.451c.418-.254.453-.625.085-.828z"/></g><g data-name="Group 2764"><path data-name="Path 5283" d="M150.198 233.967l-38.959-21.292a1.589 1.589 0 00-1.428.092l-5.667 3.451c-.417.255-.455.625-.083.829l38.959 21.292a1.591 1.591 0 001.429-.092l5.665-3.452c.418-.255.455-.625.084-.828z"/><path data-name="Path 5284" d="M99.077 206.029l-6.076-3.321a1.588 1.588 0 00-1.428.093l-5.667 3.451c-.417.255-.454.625-.084.828l6.077 3.321a1.587 1.587 0 001.427-.092l5.667-3.452c.419-.255.456-.625.084-.828z"/><path data-name="Path 5285" d="M109.092 211.503l-7.87-4.3a1.589 1.589 0 00-1.428.093l-5.666 3.451c-.417.255-.455.625-.083.829l7.87 4.3a1.589 1.589 0 001.428-.093l5.666-3.451c.418-.257.456-.627.083-.829z"/><path data-name="Path 5286" d="M162.358 240.612l6.076 3.321c.371.2.334.574-.083.829l-5.667 3.451a1.589 1.589 0 01-1.428.093l-6.076-3.321c-.371-.2-.333-.574.084-.829l5.665-3.451a1.6 1.6 0 011.429-.093z"/><path data-name="Path 5287" d="M152.343 235.139l7.87 4.3c.371.2.335.573-.083.828l-5.667 3.451a1.587 1.587 0 01-1.427.093l-7.872-4.3c-.371-.2-.333-.573.083-.828l5.667-3.451a1.59 1.59 0 011.429-.093z"/><path data-name="Path 5288" d="M74.418 192.551l-6.075-3.321a1.591 1.591 0 00-1.429.092l-5.666 3.452c-.417.254-.455.624-.083.828l6.076 3.321a1.59 1.59 0 001.429-.093l5.666-3.451c.414-.256.451-.626.082-.828z"/><path data-name="Path 5289" d="M82.637 197.043l-6.076-3.32a1.588 1.588 0 00-1.428.092l-5.667 3.451c-.418.255-.455.625-.083.829l6.075 3.321a1.593 1.593 0 001.428-.093l5.667-3.451c.418-.256.45-.626.084-.829z"/><path data-name="Path 5290" d="M90.856 201.536l-6.075-3.321a1.591 1.591 0 00-1.429.093l-5.665 3.451c-.417.255-.456.625-.083.829l6.075 3.321a1.592 1.592 0 001.428-.093l5.667-3.451c.413-.256.454-.626.082-.829z"/><path data-name="Path 5291" d="M184.934 252.951l-14.355-7.846a1.592 1.592 0 00-1.428.093l-5.667 3.451c-.417.255-.455.625-.083.829l14.355 7.845a1.589 1.589 0 001.428-.093l5.666-3.451c.418-.254.456-.625.084-.828z"/></g><g data-name="Group 2765"><path data-name="Path 5292" d="M211.506 229.831l6.076 3.321a1.591 1.591 0 001.429-.093l2.817-1.716c.418-.254.454-.625.083-.828l-6.075-3.321a1.585 1.585 0 00-1.428.093l-2.817 1.716c-.421.249-.457.621-.085.828z"/><path data-name="Path 5293" d="M203.284 225.33l6.077 3.321a1.588 1.588 0 001.428-.092l2.817-1.717c.417-.254.455-.625.083-.828l-6.075-3.321a1.588 1.588 0 00-1.428.093l-2.818 1.716c-.417.257-.455.628-.084.828z"/><path data-name="Path 5294" d="M195.064 220.84l6.077 3.321a1.589 1.589 0 001.428-.092l2.817-1.717c.417-.254.454-.624.083-.828l-6.076-3.321a1.588 1.588 0 00-1.428.093l-2.819 1.716c-.418.255-.453.626-.082.828z"/><path data-name="Path 5295" d="M186.843 216.347l6.075 3.322a1.594 1.594 0 001.429-.093l2.816-1.717c.418-.254.455-.625.083-.828l-6.075-3.321a1.591 1.591 0 00-1.429.093l-2.817 1.716c-.417.255-.454.626-.082.828z"/><path data-name="Path 5296" d="M178.622 211.854l6.076 3.322a1.6 1.6 0 001.429-.093l2.816-1.716c.419-.255.456-.626.084-.829l-6.076-3.321a1.59 1.59 0 00-1.429.093l-2.817 1.716c-.417.255-.454.626-.083.828z"/><path data-name="Path 5297" d="M170.401 207.362l6.076 3.321a1.592 1.592 0 001.428-.093l2.817-1.717c.417-.254.455-.624.084-.828l-6.076-3.321a1.591 1.591 0 00-1.429.093l-2.817 1.716c-.417.255-.454.626-.083.829z"/><path data-name="Path 5298" d="M162.181 202.869l6.076 3.321a1.588 1.588 0 001.427-.093l2.819-1.716c.416-.255.454-.625.083-.828l-6.076-3.322a1.591 1.591 0 00-1.429.093l-2.817 1.716c-.418.255-.455.626-.083.829z"/><path data-name="Path 5299" d="M153.958 198.376l6.077 3.321a1.592 1.592 0 001.428-.093l2.817-1.716c.417-.255.455-.625.083-.828l-6.076-3.322a1.592 1.592 0 00-1.428.093l-2.817 1.717c-.417.254-.454.625-.084.828z"/><path data-name="Path 5300" d="M145.739 193.883l6.076 3.321a1.59 1.59 0 001.428-.093l2.818-1.716c.417-.255.455-.625.084-.828l-6.077-3.321a1.589 1.589 0 00-1.428.092l-2.817 1.716c-.418.255-.456.627-.084.829z"/><path data-name="Path 5301" d="M137.518 189.39l6.076 3.321a1.585 1.585 0 001.428-.093l2.818-1.716c.417-.255.455-.625.083-.828l-6.076-3.321a1.588 1.588 0 00-1.428.092l-2.818 1.717c-.417.254-.454.626-.083.828z"/><path data-name="Path 5302" d="M129.297 184.897l6.077 3.321a1.588 1.588 0 001.428-.093l2.817-1.716c.417-.254.455-.625.083-.828l-6.076-3.321a1.585 1.585 0 00-1.428.093l-2.818 1.716c-.417.252-.455.626-.083.828z"/><path data-name="Path 5303" d="M121.076 180.404l6.076 3.321a1.589 1.589 0 001.428-.092l2.817-1.717c.417-.254.455-.624.083-.828l-6.075-3.321a1.591 1.591 0 00-1.429.093l-2.816 1.716c-.418.254-.456.626-.084.828z"/><path data-name="Path 5304" d="M112.855 175.911l6.075 3.321a1.591 1.591 0 001.429-.092l2.816-1.717c.418-.254.455-.624.084-.828l-6.076-3.321a1.589 1.589 0 00-1.428.093l-2.818 1.716c-.417.255-.457.626-.082.828z"/><path data-name="Path 5305" d="M100.92 169.388l9.79 5.35a1.591 1.591 0 001.429-.092l2.816-1.716c.419-.255.455-.625.084-.829l-9.79-5.35a1.591 1.591 0 00-1.429.092l-2.817 1.717c-.418.254-.456.625-.083.828z"/></g></g></g><g data-name="Group 2836"><g data-name="Group 2789"><g data-name="Group 2774"><g data-name="Group 2773" style="isolation:isolate"><g data-name="Group 2768"><path data-name="Path 5306" d="M256.272 214.194l2.658-1.545-6.139-2.519-2.659 1.545z" fill="#d8cd8d"/></g><g data-name="Group 2769"><path data-name="Path 5307" d="M264.471 231.967l2.658-1.545-1.028-7.628-2.658 1.545z" fill="#d8cd8d"/></g><g data-name="Group 2770"><path data-name="Path 5308" d="M261.762 217.362l2.659-1.545-2.726-7.974-2.659 1.545z" fill="#d8cd8d"/></g><g data-name="Group 2771"><path data-name="Path 5309" d="M267.895 221.929l2.658-1.545-6.133-4.567-2.659 1.545z" fill="#d8cd8d"/></g><g data-name="Group 2772"><path data-name="Path 5310" d="M259.036 209.388l-2.762 4.806-6.139-2.519 4.425 7.537-1.067 6.422 5.5-.147 5.479 6.485-1.028-7.628 4.454-2.411-6.133-4.567z" fill="#f2ecc0"/></g></g></g><g data-name="Group 2781"><g data-name="Group 2780" style="isolation:isolate"><g data-name="Group 2775"><path data-name="Path 5311" d="M282.301 229.052l2.658-1.545-6.139-2.523-2.659 1.545z" fill="#d8cd8d"/></g><g data-name="Group 2776"><path data-name="Path 5312" d="M290.496 246.826l2.659-1.545-1.029-7.628-2.658 1.545z" fill="#d8cd8d"/></g><g data-name="Group 2777"><path data-name="Path 5313" d="M287.788 232.221l2.659-1.545-2.726-7.974-2.658 1.545z" fill="#d8cd8d"/></g><g data-name="Group 2778"><path data-name="Path 5314" d="M293.919 236.787l2.658-1.545-6.133-4.567-2.658 1.545z" fill="#d8cd8d"/></g><g data-name="Group 2779"><path data-name="Path 5315" d="M285.063 224.246l-2.762 4.806-6.14-2.519 4.426 7.537-1.068 6.417 5.5-.147 5.479 6.485-1.028-7.628 4.454-2.411-6.134-4.567z" fill="#f2ecc0"/></g></g></g><g data-name="Group 2788"><g data-name="Group 2787" style="isolation:isolate"><g data-name="Group 2782"><path data-name="Path 5316" d="M309.711 244.982l2.659-1.545-6.14-2.519-2.659 1.545z" fill="#d8cd8d"/></g><g data-name="Group 2783"><path data-name="Path 5317" d="M317.908 262.757l2.659-1.545-1.028-7.628-2.659 1.545z" fill="#d8cd8d"/></g><g data-name="Group 2784"><path data-name="Path 5318" d="M315.199 248.151l2.659-1.545-2.726-7.974-2.659 1.545z" fill="#d8cd8d"/></g><g data-name="Group 2785"><path data-name="Path 5319" d="M321.336 252.718l2.658-1.545-6.134-4.567-2.658 1.545z" fill="#d8cd8d"/></g><g data-name="Group 2786"><path data-name="Path 5320" d="M312.474 240.177l-2.762 4.806-6.139-2.519 4.426 7.537-1.068 6.417 5.5-.147 5.479 6.485-1.028-7.628 4.454-2.411-6.134-4.567z" fill="#f2ecc0"/></g></g></g></g><g data-name="Group 2804"><g data-name="Group 2796"><g data-name="Group 2795" style="isolation:isolate"><g data-name="Group 2790"><path data-name="Path 5321" d="M61.98 32.665l1.671-.971-3.859-1.583-1.671.971z" fill="#d8cd8d"/></g><g data-name="Group 2791"><path data-name="Path 5322" d="M67.134 43.839l1.671-.971-.646-4.8-1.672.971z" fill="#d8cd8d"/></g><g data-name="Group 2792"><path data-name="Path 5323" d="M65.431 34.656l1.671-.971-1.713-5.013-1.672.971z" fill="#d8cd8d"/></g><g data-name="Group 2793"><path data-name="Path 5324" d="M69.286 37.527l1.671-.971-3.855-2.872-1.672.971z" fill="#d8cd8d"/></g><g data-name="Group 2794"><path data-name="Path 5325" d="M63.717 29.643l-1.736 3.021-3.859-1.583 2.782 4.738-.671 4.035 3.457-.093 3.445 4.077-.647-4.8 2.8-1.516-3.856-2.871z" fill="#f2ecc0"/></g></g></g><g data-name="Group 2803"><g data-name="Group 2802" style="isolation:isolate"><g data-name="Group 2797"><path data-name="Path 5326" d="M79.213 42.68l1.671-.971-3.859-1.584-1.671.971z" fill="#d8cd8d"/></g><g data-name="Group 2798"><path data-name="Path 5327" d="M84.366 53.854l1.671-.971-.646-4.8-1.671.971z" fill="#d8cd8d"/></g><g data-name="Group 2799"><path data-name="Path 5328" d="M82.663 44.671l1.671-.971-1.713-5.013-1.671.971z" fill="#d8cd8d"/></g><g data-name="Group 2800"><path data-name="Path 5329" d="M86.519 47.542l1.671-.971-3.856-2.871-1.671.971z" fill="#d8cd8d"/></g><g data-name="Group 2801"><path data-name="Path 5330" d="M80.949 39.658l-1.737 3.021-3.86-1.584 2.783 4.738-.672 4.034 3.457-.092 3.445 4.077-.646-4.8 2.8-1.516-3.855-2.871z" fill="#f2ecc0"/></g></g></g></g><g data-name="Group 2835"><g data-name="Group 2819"><g data-name="Group 2811"><g data-name="Group 2810" style="isolation:isolate"><g data-name="Group 2805"><path data-name="Path 5331" d="M38.998 75.255l1.671-.971L36.81 72.7l-1.671.971z" fill="#d8cd8d"/></g><g data-name="Group 2806"><path data-name="Path 5332" d="M44.15 86.428l1.671-.971-.646-4.8-1.671.971z" fill="#d8cd8d"/></g><g data-name="Group 2807"><path data-name="Path 5333" d="M42.449 77.247l1.671-.971-1.713-5.013-1.671.971z" fill="#d8cd8d"/></g><g data-name="Group 2808"><path data-name="Path 5334" d="M46.303 80.117l1.671-.971-3.856-2.871-1.671.971z" fill="#d8cd8d"/></g><g data-name="Group 2809"><path data-name="Path 5335" d="M40.738 72.233l-1.736 3.021-3.859-1.584 2.782 4.739-.672 4.034 3.457-.093 3.445 4.077-.646-4.8 2.8-1.516-3.856-2.871z" fill="#f2ecc0"/></g></g></g><g data-name="Group 2818"><g data-name="Group 2817" style="isolation:isolate"><g data-name="Group 2812"><path data-name="Path 5336" d="M56.226 85.27l1.671-.971-3.86-1.584-1.671.971z" fill="#d8cd8d"/></g><g data-name="Group 2813"><path data-name="Path 5337" d="M61.383 96.444l1.671-.971-.646-4.8-1.671.971z" fill="#d8cd8d"/></g><g data-name="Group 2814"><path data-name="Path 5338" d="M59.681 87.261l1.671-.971-1.714-5.013-1.671.971z" fill="#d8cd8d"/></g><g data-name="Group 2815"><path data-name="Path 5339" d="M63.537 90.132l1.671-.971-3.856-2.871-1.671.971z" fill="#d8cd8d"/></g><g data-name="Group 2816"><path data-name="Path 5340" d="M57.968 82.248l-1.737 3.021-3.859-1.584 2.782 4.739-.671 4.034 3.457-.092 3.444 4.077-.646-4.8 2.8-1.516-3.856-2.871z" fill="#f2ecc0"/></g></g></g></g><g data-name="Group 2834"><g data-name="Group 2826"><g data-name="Group 2825" style="isolation:isolate"><g data-name="Group 2820"><path data-name="Path 5341" d="M5.094 54.963l1.671-.971-3.86-1.584-1.671.971z" fill="#d8cd8d"/></g><g data-name="Group 2821"><path data-name="Path 5342" d="M10.247 66.137l1.671-.971-.646-4.8-1.671.971z" fill="#d8cd8d"/></g><g data-name="Group 2822"><path data-name="Path 5343" d="M8.544 56.954l1.671-.971-1.713-5.011-1.671.971z" fill="#d8cd8d"/></g><g data-name="Group 2823"><path data-name="Path 5344" d="M12.399 59.825l1.672-.971-3.856-2.871-1.671.971z" fill="#d8cd8d"/></g><g data-name="Group 2824"><path data-name="Path 5345" d="M6.83 51.941l-1.736 3.021-3.86-1.584 2.782 4.738-.672 4.034 3.457-.092 3.445 4.077-.646-4.8 2.8-1.516-3.856-2.871z" fill="#f2ecc0"/></g></g></g><g data-name="Group 2833"><g data-name="Group 2832" style="isolation:isolate"><g data-name="Group 2827"><path data-name="Path 5346" d="M22.326 64.978l1.671-.971-3.86-1.584-1.671.971z" fill="#d8cd8d"/></g><g data-name="Group 2828"><path data-name="Path 5347" d="M27.479 76.152l1.671-.971-.646-4.8-1.672.971z" fill="#d8cd8d"/></g><g data-name="Group 2829"><path data-name="Path 5348" d="M25.776 66.969l1.671-.971-1.714-5.013-1.671.971z" fill="#d8cd8d"/></g><g data-name="Group 2830"><path data-name="Path 5349" d="M29.629 69.841l1.671-.971-3.856-2.871-1.671.971z" fill="#d8cd8d"/></g><g data-name="Group 2831"><path data-name="Path 5350" d="M24.064 61.956l-1.736 3.021-3.86-1.584 2.782 4.739-.671 4.034 3.457-.093 3.445 4.077-.647-4.8 2.8-1.516-3.856-2.871z" fill="#f2ecc0"/></g></g></g></g></g></g><g data-name="Group 2867"><g data-name="Group 2866"><g data-name="Group 2838"><path data-name="Path 5352" d="M193.386 298.083h.014z" fill="#525252"/></g><g data-name="Group 2839"><path data-name="Path 5353" d="M193.153 298.128l.026-.005z" fill="#525252"/></g><g data-name="Group 2841"><path data-name="Path 5355" d="M192.12 298.04a1.817 1.817 0 00.382.1 1.817 1.817 0 01-.382-.1z" fill="#525252"/></g><g data-name="Group 2843"><path data-name="Path 5357" d="M240.24 237.897l-.064.027z" fill="#525252"/></g><g data-name="Group 2844"><path data-name="Path 5358" d="M240.326 237.86l-.087.037z" fill="#525252"/></g><g data-name="Group 2845"><path data-name="Path 5359" d="M240.408 237.831l-.082.03z" fill="#525252"/></g><g data-name="Group 2846"><path data-name="Path 5360" d="M240.474 237.807l-.066.024z" fill="#525252"/></g><g data-name="Group 2847"><path data-name="Path 5361" d="M240.567 237.777l-.093.031z" fill="#525252"/></g><g data-name="Group 2848"><path data-name="Path 5362" d="M240.614 237.763l-.047.013z" fill="#525252"/></g><g data-name="Group 2850"><path data-name="Path 5364" d="M240.733 237.731h-.011z" fill="#525252"/></g><g data-name="Group 2851"><path data-name="Path 5365" d="M240.489 270.981c-.032.026-.064.05-.1.075.036-.025.065-.049.1-.075z" fill="#525252"/></g><g data-name="Group 2865" style="isolation:isolate"><g data-name="Group 2852"><path data-name="Path 5366" d="M240.652 270.848l-.111.092z" fill="#525252"/></g><g data-name="Group 2853"><path data-name="Path 5367" d="M240.309 271.121c-.023.017-.048.036-.073.052a.366.366 0 01.073-.052z" fill="#525252"/></g><g data-name="Group 2854"><path data-name="Path 5368" d="M240.733 237.731a2.091 2.091 0 011.327.064l-18.984 26.593 19.123 4.633a7.778 7.778 0 01-1.378 1.679 7.756 7.756 0 002.521-5.312l-.072-25.265c-.006-1.83-1.077-2.754-2.537-2.392z" fill="#cfdae2"/></g><g data-name="Group 2856"><path data-name="Path 5370" d="M193.618 298.016l.045-.016z" fill="#525252"/></g><g data-name="Group 2857"><path data-name="Path 5371" d="M223.076 264.388l-6 8.4-5.912-1.432-19.047 26.681a2.355 2.355 0 001.767-.123c.087-.038.135-.059.184-.083l45.8-26.429a7.338 7.338 0 002.332-2.384z" fill="#dfe9ef"/></g><g data-name="Group 2858"><path data-name="Path 5372" d="M193.896 264.639c.052-.037.1-.072.158-.106-.054.035-.106.07-.158.106z" fill="#525252"/></g><g data-name="Group 2859"><path data-name="Path 5373" d="M193.745 264.75c.026-.019.051-.039.078-.057l-.078.057z" fill="#525252"/></g><g data-name="Group 2860"><path data-name="Path 5374" d="M193.651 264.821l.094-.071a3.303 3.303 0 00-.094.071z" fill="#525252"/></g><g data-name="Group 2861"><path data-name="Path 5375" d="M193.455 264.982l.038-.032z" fill="#525252"/></g><g data-name="Group 2862"><path data-name="Path 5376" d="M193.335 265.083q.06-.054.12-.1l-.12.1z" fill="#525252"/></g><g data-name="Group 2863"><path data-name="Path 5377" d="M194.265 264.406a7.286 7.286 0 00-2.284 2.3l19.188 4.649 5.912 1.432 6-8.4 18.983-26.593a2.44 2.44 0 00-2.04.2z" fill="#fff"/></g><g data-name="Group 2864"><path data-name="Path 5378" d="M193.332 265.085a7.759 7.759 0 00-2.544 5.335l.071 25.265a2.3 2.3 0 001.259 2.351l19.048-26.681-19.187-4.648a7.777 7.777 0 011.353-1.622z" fill="#cfdae2"/></g></g></g></g><g data-name="Group 2893"><g data-name="Group 2875"><path data-name="Path 5379" d="M192.071 114.864l-50.462-29.013c-.855-.492-1.548-.174-1.548.711v63.655a3.247 3.247 0 001.548 2.493l50.462 29.064c.856.493 1.55.175 1.55-.71v-63.706a3.247 3.247 0 00-1.55-2.494z" fill="#61bcb5"/><path data-name="Path 5380" d="M193.621 131.964l-53.56-30.809v58.309a2.585 2.585 0 001.233 1.985l51.093 29.436c.682.393 1.234.14 1.234-.565z" fill="#61bcb5"/><path data-name="Path 5381" d="M190.817 115.429l-50.462-29.013c-.854-.492-1.548-.173-1.548.711v63.656a3.249 3.249 0 001.548 2.492l50.462 29.064c.856.493 1.551.176 1.551-.709v-63.707a3.249 3.249 0 00-1.551-2.494z" fill="#fff"/><g data-name="Group 2868"><path data-name="Path 5382" d="M192.369 132.528l-53.561-30.807v48.539l53.561 30.253z" fill="#acccf9"/><path data-name="Path 5383" d="M138.807 150.26v9.77a2.591 2.591 0 001.233 1.986l51.094 29.434c.681.393 1.234.14 1.234-.565v-10.369z" fill="#f9f9f7"/></g><g data-name="Group 2872"><g data-name="Group 2871" clip-path="url(#c)" transform="translate(143.233 94.986)"><path data-name="Path 5384" d="M0 2.605a8.971 8.971 0 004.282 6.89c2.364 1.36 4.281.48 4.281-1.965A8.977 8.977 0 004.282.64C1.916-.724 0 .16 0 2.605z" fill="#fff"/><g data-name="Group 2870"><g data-name="Group 2869" fill="#acccf9"><path data-name="Path 5386" d="M1.88 6.511h.007a5.024 5.024 0 00.469-2.475 1.275 1.275 0 01-.112-.445c-.02-.343.03-.451.115-.462-.244-1.832.831-1.272.831-1.272s.229-.341 1.118.172a3.736 3.736 0 012 3.42 1.037 1.037 0 01.066.518.664.664 0 01-.042.2 9.286 9.286 0 00.412 3.138.873.873 0 01.067.1A2.1 2.1 0 008.05 7.234a7.908 7.908 0 00-3.771-6.068C2.196-.034.508.744.508 2.897a6.892 6.892 0 001.28 3.658.2.2 0 01.092-.044z"/><path data-name="Path 5387" d="M6.813 9.406a.839.839 0 00-.066-.1 9.311 9.311 0 01-.412-3.138.656.656 0 00.042-.2 1.037 1.037 0 00-.066-.518 3.735 3.735 0 00-2-3.42c-.888-.513-1.117-.172-1.117-.172s-1.076-.561-.831 1.272c-.085.011-.135.12-.115.462a1.249 1.249 0 00.112.445 5.032 5.032 0 01-.469 2.475h-.007a.2.2 0 00-.091.046 7.8 7.8 0 002.491 2.41 3.061 3.061 0 002.529.438z"/></g></g></g></g><path data-name="Path 5389" d="M171.697 112.458l-17.439-10.028a.609.609 0 01-.289-.464v-.613c0-.165.13-.224.289-.132l17.439 10.028a.6.6 0 01.288.464v.612c0 .165-.128.224-.288.133z" fill="#cfdae2"/><path data-name="Path 5390" d="M164.435 110.992l-10.244-5.89a.469.469 0 01-.222-.357v-.75c0-.127.1-.173.222-.1l10.244 5.89a.469.469 0 01.222.358v.749c0 .125-.1.169-.222.1z" fill="#cfdae2"/><g data-name="Group 2873" fill="#fff"><path data-name="Path 5391" d="M188.053 119.996c0-.245.193-.333.43-.2a.9.9 0 01.429.691c0 .246-.192.333-.429.2a.9.9 0 01-.43-.691z"/><path data-name="Path 5392" d="M188.053 122.065c0-.246.193-.334.43-.2a.9.9 0 01.429.692c0 .244-.192.332-.429.2a.9.9 0 01-.43-.692z"/><path data-name="Path 5393" d="M188.053 124.132c0-.245.193-.332.43-.2a.9.9 0 01.429.69c0 .246-.192.334-.429.2a.9.9 0 01-.43-.69z"/></g><g data-name="Group 2874"><path data-name="Path 5394" d="M184.998 179.472v5.434l1.877-.275 1.876 2.437v-5.434z" fill="#cfdae2"/></g><path data-name="Path 5395" d="M146.782 158.026a1.352 1.352 0 00-1.978-.007c0 .011-.022 0-.027-.015a5 5 0 00-1.119-1.683 2.505 2.505 0 00-.724-.538 1.27 1.27 0 00-.133-.05c-.868-.255-1.375.339-1 1.688a2.958 2.958 0 00.161.426 22.186 22.186 0 002.287 3.446c.238.307.42.535.5.629a.1.1 0 00.078.045c.328-.028 2.59-.253 2.947-1.107a2.664 2.664 0 00-.992-2.834z" fill="#3d71f4"/><path data-name="Path 5396" d="M155.886 165.812c0-1.369-1.421-3.3-3.173-4.307s-3.174-.718-3.174.651 1.421 3.3 3.174 4.306a4.949 4.949 0 00.988.434l-.023.005 1.212.878v-.746a1.123 1.123 0 00.996-1.221z" fill="#cfdae2"/></g><g data-name="Group 2892"><path data-name="Path 5397" d="M157.392 129.835s-2.029 3.994-.728 15.037c1.3 11.027-1.08 8.928-1.08 8.928l9.422 4.868s2.661-16.186 2.907-15.827-2.689-14.239-2.689-14.239z" fill="#683b32"/><path data-name="Path 5398" d="M171.702 131.175c4.77 8.824 1.321 20.223 1.282 31.546l-7.454-5.705z" fill="#683b32"/><path data-name="Path 5399" d="M149.514 149.062c.551-3.5 5.371-2.89 8.536-.119l3.633 4.97 10.947 2.822a14.776 14.776 0 016.457 5.6c2.082 3.753.745 11.1.745 11.1l-30.756-17.356a57.6 57.6 0 01.438-7.017z" fill="#192428"/><path data-name="Path 5400" d="M164.819 153.929l-5.437 2.349 3.46 7.664 4.256 2.194 3.778-4.254z" fill="#f9f9f7"/><g data-name="Group 2876"><path data-name="Path 5401" d="M160.228 156.047l1.664-.171 1.429 1.825z" fill="#192428"/></g><g data-name="Group 2877"><path data-name="Path 5402" d="M165.441 160.408l.087.111a.787.787 0 01-.087-.111z" fill="#f2ad97"/></g><g data-name="Group 2878"><path data-name="Path 5403" d="M163.333 155.76l1.23 4.666-1.241-2.724z" fill="#f5f5f5"/></g><g data-name="Group 2879"><path data-name="Path 5404" d="M161.888 155.876l1.43-.14.011.024-.008 1.944z" fill="#192428"/></g><g data-name="Group 2880"><path data-name="Path 5405" d="M163.32 155.736h.011v.025z" fill="#edc7b3"/></g><g data-name="Group 2882"><path data-name="Path 5407" d="M163.336 155.725l-1.44.151-1.667.164-.386.038a11.137 11.137 0 01.437-6.131c.048-.149.1-.3.149-.449.153-.443.322-.886.5-1.327.106.163.214.321.32.478a14.488 14.488 0 002.087 7.076z" fill="#fff"/></g><g data-name="Group 2883"><path data-name="Path 5408" d="M167.299 157.809h.007l.032-.007-.018.015-.013.011z" fill="#f3f3f3"/></g><g data-name="Group 2884"><path data-name="Path 5409" d="M165.074 152.588a4.621 4.621 0 004.33-.107c.031 2.625-.531 4.093-2.079 5.337l.017-.015-.033.007-2.313 4.825-1.66-6.875a14.7 14.7 0 01-2.083-7.111 12.674 12.674 0 003.821 3.939z" fill="#f2ad97"/></g><g data-name="Group 2885"><path data-name="Path 5410" d="M167.335 157.874v2.085l.015.009-1.4.879 1.356-3.036.007.02.013-.011a.123.123 0 01-.018.016z" fill="#f5f5f5"/></g><g data-name="Group 2886"><path data-name="Path 5411" d="M167.332 157.866l1.385 1.677-1.366.421-.017-.009z" fill="#192428"/></g><g data-name="Group 2887"><path data-name="Path 5412" d="M159.84 156.078l.386-.038 3.1 1.661 1.5 6.8 2.531-4.537 3.241 1.884c.551-1.438.332-3.8-.269-6.533.785.486 1.574.972 2.308 1.42l-.049-.945-14.451-7.1s-.032.088-.08.252c.718.326 1.479.669 2.226 1a11.139 11.139 0 00-.443 6.136z" fill="none"/><path data-name="Path 5413" d="M171.778 163.584l-.858-1.263 1.412.571a15.167 15.167 0 00.3-6.155c-.734-.448-1.523-.934-2.308-1.42.6 2.732.82 5.094.269 6.533l-3.241-1.884-2.53 4.537-1.5-6.8-3.1-1.661-.386.038a11.135 11.135 0 01.437-6.131l-2.226-1a12.46 12.46 0 00-.193 5.316l1.2 1.176-1.157-.3a25.831 25.831 0 002.06 7.072q.166.14.334.275l.074.06q.2.163.4.32l.086.066a32.418 32.418 0 00.919.688l.424.3.081.057c.138.1.278.189.417.281l.082.054c.144.094.288.188.47.3l.481.3c.145.087.288.172.434.256l.085.049q.214.123.431.242l.072.039q.227.124.455.243c.151.079.3.154.454.229l.073.036c.143.071.286.138.428.2l.085.039a25.374 25.374 0 00.947.409c.144.058.286.114.428.168l.081.031c.138.051.276.1.415.149l.076.027a15.073 15.073 0 003.589-3.447z" fill="#2e3f47"/></g><g data-name="Group 2888"><path data-name="Path 5414" d="M167.35 159.964l1.367-.42 1.882 2.281a.032.032 0 01-.008.024z" fill="#192428"/></g><g data-name="Group 2889"><path data-name="Path 5415" d="M170.11 154.421q.109.453.208.9c.6 2.732.82 5.095.318 6.559l-.041-.05-1.883-2.281-1.382-1.674-.032-.038.018-.015c1.548-1.244 2.111-2.712 2.079-5.337.059-.03.118-.061.176-.093.202.686.382 1.366.539 2.029z" fill="#fff"/></g><g data-name="Group 2890" fill="#ffc9b6"><path data-name="Path 5416" d="M155.998 133.106l-.014-.007a.246.246 0 00-.066-.02c-.316-.041-.537.742-.478 1.851.059 1.159.187 2.138.732 2.435l.038.019a.417.417 0 00.219.046c.365-.047.38-.865.325-1.877a7.167 7.167 0 00-.166-1.2 4 4 0 00-.309-.9.827.827 0 00-.281-.347z"/><path data-name="Path 5417" d="M174.306 144.232a1.3 1.3 0 00-.39-.768l-.013-.008c-.191-.1-.386.081-.529.461-.153-.074-.322-.16-.5-.258a18.905 18.905 0 01-6.373-5.929 13.293 13.293 0 01-3.869-3.068 13.831 13.831 0 01-2.3-4.363c-1.252 2.72-2.813 3.85-3.891 3.259a1.306 1.306 0 01-.163-.105 3.973 3.973 0 01.309.9 7.051 7.051 0 01.166 1.2c.054 1.012.04 1.83-.325 1.877a32.379 32.379 0 004.5 10.741c.106.163.214.321.321.478a12.67 12.67 0 003.82 3.939 4.622 4.622 0 004.33-.107c.059-.03.118-.061.176-.093a8.721 8.721 0 003.9-5.136.873.873 0 00.2.169l.036.021c.527.286.652-.538.719-1.605a5.662 5.662 0 00-.124-1.605zm-1.118.517c0-.025.007-.047.01-.071z"/></g><g data-name="Group 2891"><path data-name="Path 5418" d="M171.702 131.17c1.948 3.208 3.03 7.44 2.671 13.017 0 .028-.024.042-.067.046a1.3 1.3 0 00-.39-.768c-.2-.113-.4.073-.542.453-.153-.074-.322-.16-.5-.258a18.9 18.9 0 01-6.373-5.929 13.293 13.293 0 01-3.869-3.068 13.831 13.831 0 01-2.3-4.363c-1.252 2.72-2.813 3.85-3.891 3.259a1.244 1.244 0 01-.163-.105.826.826 0 00-.282-.347.266.266 0 00-.08-.028c-.021-.029-.042-.058-.062-.09-.572-5 .455-8.254 2.5-9.2a4.283 4.283 0 013.827.413 5.1 5.1 0 012.97.774 17.532 17.532 0 016.551 6.194z" fill="#683b32"/></g><path data-name="Path 5419" d="M160.332 130.299s.354 5.246 6.766 10.53a25.656 25.656 0 01-.675-6.313z" fill="#683b32"/><path data-name="Path 5420" d="M156.609 137.321c.032.321-.089.6-.27.617s-.356-.225-.389-.547.089-.6.27-.617.356.227.389.547z" fill="#f9f9f7"/><path data-name="Path 5421" d="M173.849 147.386c.032.318-.087.592-.265.613s-.35-.221-.382-.539.086-.592.265-.613.35.221.382.539z" fill="#f9f9f7"/><path data-name="Path 5422" d="M158.051 149.687l.379-.2.088.444a.348.348 0 01-.467-.244z" fill="#fff"/><path data-name="Path 5423" d="M158.051 151.585l.379-.2.088.444a.348.348 0 01-.467-.244z" fill="#fff"/><path data-name="Path 5424" d="M158.138 153.698l.379-.2.087.444a.348.348 0 01-.466-.244z" fill="#fff"/><path data-name="Path 5425" d="M158.751 156.529l.379-.2.087.444a.347.347 0 01-.466-.244z" fill="#fff"/><path data-name="Path 5426" d="M159.382 158.735l.379-.2.087.444a.347.347 0 01-.466-.244z" fill="#fff"/><path data-name="Path 5427" d="M160.334 161.151l.378-.2.087.444a.346.346 0 01-.465-.244z" fill="#fff"/><path data-name="Path 5428" d="M167.794 166.079l.375-.2.086.441a.34.34 0 01-.461-.241z" fill="#fff"/><path data-name="Path 5429" d="M169.267 164.89l.375-.2.086.441a.341.341 0 01-.461-.241z" fill="#fff"/><path data-name="Path 5430" d="M170.417 163.622l.373-.2.086.441a.34.34 0 01-.459-.241z" fill="#fff"/><path data-name="Path 5431" d="M171.564 161.696l.374-.2.086.441a.341.341 0 01-.46-.241z" fill="#fff"/><path data-name="Path 5432" d="M171.794 159.277l.374-.2.085.44a.34.34 0 01-.459-.24z" fill="#fff"/><path data-name="Path 5433" d="M171.692 157.061l.373-.2.086.441a.34.34 0 01-.459-.241z" fill="#fff"/></g></g><g data-name="Group 2909"><g data-name="Group 2898"><g data-name="Group 2897"><g data-name="Group 2894"><path data-name="Path 5434" d="M212.237 82.302l1.759-1.022-11.7-6.756-1.759 1.022z" fill="#e6e6e6"/></g><g data-name="Group 2896"><g data-name="Group 2895" style="isolation:isolate"><path data-name="Path 5435" d="M295.562 54.698L202.319 1.07c-2.168-1.252-4.131-1.368-5.549-.544l-2.4 1.394c1.418-.824 3.381-.707 5.548.544l93.239 53.628c4.308 2.487 7.788 8.513 7.774 13.463l-.054 54.865c-.007 2.458-.875 4.189-2.275 5l2.4-1.4c1.4-.813 2.268-2.543 2.275-5l.054-54.864c.019-4.945-3.461-10.972-7.769-13.458z" fill="#1166ce"/><path data-name="Path 5436" d="M293.166 56.093L199.927 2.465c-4.307-2.487-7.809-.491-7.824 4.458l-.053 54.865c-.014 4.949 3.465 10.976 7.773 13.464l.716.413 4.436 12.21 7.153-5.519 11.655 6.728 69.278 39.794c4.308 2.487 7.81.491 7.824-4.458l.054-54.865c.01-4.949-3.473-10.976-7.773-13.462z" fill="#3d8ff4"/></g></g></g></g><g data-name="Group 2902" style="mix-blend-mode:screen;isolation:isolate"><g data-name="Group 2899"><path data-name="Path 5437" d="M276.388 80.968a3.213 3.213 0 011.457 2.525c0 .928-.66 1.3-1.467.837l-71.165-41.088a3.212 3.212 0 01-1.458-2.525c0-.928.66-1.3 1.467-.836z" fill="#fff"/></g><g data-name="Group 2900"><path data-name="Path 5438" d="M269.208 97.72a3.211 3.211 0 011.458 2.525c0 .928-.66 1.3-1.467.836l-64.665-37.333a3.216 3.216 0 01-1.458-2.525c0-.931.661-1.3 1.468-.836z" fill="#fff"/></g><g data-name="Group 2901"><path data-name="Path 5439" d="M288.735 98.897a3.206 3.206 0 011.457 2.524c0 .928-.66 1.3-1.467.837l-84.162-48.591a3.22 3.22 0 01-1.458-2.525c0-.931.66-1.3 1.468-.836z" fill="#fff"/></g></g><g data-name="Group 2908"><g data-name="Group 2903"><path data-name="Path 5440" d="M210.887 18.553l2.26 6.3 4.834 3.738-3.437 2.055.693 5.988-4.388-5.038-4.406-.04.729-5.167-3.417-6.012 4.839 1.846z" fill="#f2ecc0"/></g><g data-name="Group 2904"><path data-name="Path 5441" d="M228.936 28.978l2.265 6.307 4.833 3.738-3.44 2.053.694 5.988-4.388-5.038-4.407-.04.729-5.167-3.418-6.013 4.839 1.846z" fill="#f2ecc0"/></g><g data-name="Group 2905"><path data-name="Path 5442" d="M246.99 39.397l2.264 6.307 4.834 3.738-3.44 2.053.693 5.988-4.388-5.038-4.4-.038.725-5.169-3.417-6.013 4.839 1.846z" fill="#f2ecc0"/></g><g data-name="Group 2906"><path data-name="Path 5443" d="M265.042 49.82l2.265 6.307 4.834 3.738-3.44 2.053.7 5.99-4.393-5.04-4.4-.038.725-5.169-3.417-6.013 4.839 1.846z" fill="#f2ecc0"/></g><g data-name="Group 2907"><path data-name="Path 5444" d="M283.095 60.242l2.264 6.307 4.834 3.738-3.44 2.053.7 5.99-4.392-5.04-4.4-.038.726-5.169-3.415-6.01 4.839 1.846z" fill="#f2ecc0"/></g></g></g><g data-name="Group 2912"><path data-name="Path 5445" d="M51.279 127.047l-43.2-24.942c-3.211-1.855-5.827-.364-5.837 3.327l-.065 22.929a12.79 12.79 0 005.8 10.046l43.2 24.942c3.211 1.855 5.827.364 5.837-3.327l.065-22.929a12.789 12.789 0 00-5.8-10.046z" fill="#1166ce"/><g data-name="Group 2911"><path data-name="Path 5446" d="M49.104 129.223l-43.2-24.942c-3.212-1.855-5.828-.364-5.838 3.327L0 130.537a12.793 12.793 0 005.8 10.046L49 165.525c3.212 1.854 5.827.363 5.838-3.327l.064-22.929a12.789 12.789 0 00-5.798-10.046z" fill="#3d8ff4"/><g data-name="Group 2910"><path data-name="Path 5447" d="M18.655 118.201l8.811 10.947 8.81 10.956-8.844.754-8.844.763.033-11.71z" fill="#fff"/></g></g></g></svg>