<svg xmlns="http://www.w3.org/2000/svg" xmlns:xlink="http://www.w3.org/1999/xlink" width="323.991" height="298.16" viewBox="0 0 323.991 298.16">
  <defs>
    <linearGradient id="linear-gradient" x1="0.512" y1="0.268" x2="0.471" y2="1.034" gradientUnits="objectBoundingBox">
      <stop offset="0" stop-color="#b1d9df"/>
      <stop offset="0.704" stop-color="#eaeeee"/>
    </linearGradient>
    <linearGradient id="linear-gradient-2" x1="0.875" y1="0.108" x2="0.095" y2="0.923" gradientUnits="objectBoundingBox">
      <stop offset="0" stop-color="#c5e4ff"/>
      <stop offset="0.704" stop-color="#eaeeee"/>
    </linearGradient>
    <clipPath id="clip-path">
      <path id="Path_5388" data-name="Path 5388" d="M4056.865-320.471a8.971,8.971,0,0,0,4.282,6.89c2.364,1.36,4.281.48,4.281-1.965a8.977,8.977,0,0,0-4.281-6.89C4058.781-323.8,4056.865-322.916,4056.865-320.471Z" transform="translate(-4056.865 323.076)" fill="none"/>
    </clipPath>
  </defs>
  <g id="influencer" transform="translate(-3916.851 415.927)">
    <g id="Group_2767" data-name="Group 2767" transform="translate(3935.524 -360.287)">
      <g id="Group_2756" data-name="Group 2756" transform="translate(84.992)">
        <path id="Path_5218" data-name="Path 5218" d="M4150.156-193.205l-2.123-90.6c-.12-5.095-1.842-7.53-5.2-9.392l-121.422-66.359a3.806,3.806,0,0,0-3.225-.536h0s1.991-1.216,2.175-1.291h0a3.851,3.851,0,0,1,3.186.552l121.422,66.359c3.356,1.862,5.081,4.3,5.2,9.393l2.122,90.594c.058,2.436-.581,3.822-1.627,4.328l-1.782,1.056C4149.717-189.729,4150.206-191.06,4150.156-193.205Z" transform="translate(-4018.186 361.538)" fill="url(#linear-gradient)"/>
        <path id="Path_5219" data-name="Path 5219" d="M4145.522-192.721Z" transform="translate(-4015.258 365.42)" fill="#a6a8ab"/>
      </g>
      <path id="Path_5220" data-name="Path 5220" d="M4149.2-184.919a2.541,2.541,0,0,0-.011-.46l-.107-4.576h0a4.629,4.629,0,0,1-2.532,3.3l-77.4,47.136c-3.131,1.907-7.927,2.218-10.713.7l-121.422-66.359a3.255,3.255,0,0,1-1.9-2.476h-.009l.115,4.908h0a3.188,3.188,0,0,0,1.913,2.625l121.422,66.36c2.785,1.522,7.582,1.211,10.712-.7l77.4-47.136a4.647,4.647,0,0,0,2.533-3.286h0Z" transform="translate(-3935.104 365.076)" fill="#464647"/>
      <path id="Path_5221" data-name="Path 5221" d="M4147.178-191.685l-121.421-66.359c-2.787-1.523-7.583-1.211-10.713.7l-45.825,27.908-31.571,19.227a7.811,7.811,0,0,0-1.01.728l0,0c-2.138,1.835-2.059,4.141.388,5.479l121.422,66.359c2.785,1.522,7.582,1.211,10.713-.7l31.58-19.232h0l45.815-27.9C4149.684-187.382,4149.963-190.161,4147.178-191.685Z" transform="translate(-3935.105 363.895)" fill="url(#linear-gradient-2)"/>
      <path id="Path_5222" data-name="Path 5222" d="M3987.6-178.644l19.805,10.823a.577.577,0,0,1,.032,1.093L3985.7-178.6A2.092,2.092,0,0,1,3987.6-178.644Z" transform="translate(-3933.941 365.739)" fill="#464647"/>
      <path id="Path_5223" data-name="Path 5223" d="M4031.548-252.224l102.669,56.111,1.367-.832-102.669-56.11Z" transform="translate(-3932.887 364.032)" fill="#464647"/>
      <g id="Group_2757" data-name="Group 2757" transform="translate(83.325 1.274)">
        <path id="Path_5224" data-name="Path 5224" d="M4148.07-283.829c-.12-5.095-1.841-7.53-5.2-9.392l-121.42-66.359c-2.786-1.523-5-.769-4.889,3.878l2.124,90.6c.139,5.919,2.153,7.735,5.2,9.392L4145.3-189.356c2.786,1.523,4.993.565,4.888-3.878Z" transform="translate(-4016.556 360.292)" fill="#464647"/>
        <path id="Path_5225" data-name="Path 5225" d="M4144.608-201.785l-2-85.243a.832.832,0,0,0-.433-.71l-119.153-65.119a.831.831,0,0,0-1.229.749l2,85.243a.832.832,0,0,0,.432.709l119.153,65.12A.832.832,0,0,0,4144.608-201.785Z" transform="translate(-4016.436 360.461)" fill="#33b4ff"/>
        <path id="Path_5226" data-name="Path 5226" d="M4114.933-302.628l-55.06-30.091-36.848-20.138a.831.831,0,0,0-1.229.748l2,85.244a.832.832,0,0,0,.432.709l16.274,8.894Z" transform="translate(-4016.436 360.461)" fill="#fff" opacity="0.2" style="mix-blend-mode: overlay;isolation: isolate"/>
      </g>
      <g id="Group_2759" data-name="Group 2759" transform="translate(45.931 161.04)">
        <path id="Path_5227" data-name="Path 5227" d="M3990-193.71l16.322-9.939a3.956,3.956,0,0,1,3.581-.078l40.611,22.194a1.092,1.092,0,0,1,.059,2.067l-16.322,9.94Z" transform="translate(-3979.773 204.118)" fill="#7b7b7c" opacity="0.4"/>
        <g id="Group_2758" data-name="Group 2758" transform="translate(0 10.82)" opacity="0.4">
          <path id="Path_5228" data-name="Path 5228" d="M4011.544-181.534l21.776,11.9-8.834,5.381a3.961,3.961,0,0,1-3.582.078l-19.955-10.907Z" transform="translate(-3979.521 193.817)" fill="#7a7a7a" opacity="0.4"/>
          <path id="Path_5229" data-name="Path 5229" d="M4011.326-181.639l-10.6,6.453-19.957-10.906a1.092,1.092,0,0,1-.059-2.067l8.835-5.381Z" transform="translate(-3980.003 193.541)" fill="#7a7a7a" opacity="0.4"/>
        </g>
      </g>
      <g id="Group_2766" data-name="Group 2766" transform="translate(42.233 110.983)">
        <g id="Group_2760" data-name="Group 2760" transform="translate(31.806 3.108)">
          <path id="Path_5230" data-name="Path 5230" d="M4115.835-186.432l6.076,3.321a1.588,1.588,0,0,0,1.428-.093l5.667-3.451c.417-.255.454-.625.083-.828l-6.075-3.321a1.59,1.59,0,0,0-1.429.092l-5.666,3.452C4115.5-187.006,4115.463-186.635,4115.835-186.432Z" transform="translate(-4004.993 251.37)" fill="#232323"/>
          <path id="Path_5231" data-name="Path 5231" d="M4107.8-190.824l6.076,3.321a1.589,1.589,0,0,0,1.428-.093l5.667-3.451c.418-.254.455-.625.083-.828l-6.075-3.321a1.59,1.59,0,0,0-1.429.092l-5.666,3.452C4107.465-191.4,4107.428-191.027,4107.8-190.824Z" transform="translate(-4005.178 251.269)" fill="#232323"/>
          <path id="Path_5232" data-name="Path 5232" d="M4099.763-195.216l6.076,3.321a1.589,1.589,0,0,0,1.428-.093l5.666-3.451c.417-.254.455-.625.083-.828l-6.075-3.321a1.586,1.586,0,0,0-1.428.093l-5.667,3.451C4099.429-195.789,4099.391-195.418,4099.763-195.216Z" transform="translate(-4005.362 251.168)" fill="#232323"/>
          <path id="Path_5233" data-name="Path 5233" d="M4091.727-199.608l6.076,3.321a1.587,1.587,0,0,0,1.429-.093l5.666-3.451c.417-.254.454-.625.083-.828l-6.076-3.321a1.591,1.591,0,0,0-1.429.093l-5.665,3.451C4091.394-200.182,4091.355-199.81,4091.727-199.608Z" transform="translate(-4005.547 251.067)" fill="#232323"/>
          <path id="Path_5234" data-name="Path 5234" d="M4083.69-204l6.076,3.321a1.589,1.589,0,0,0,1.428-.092l5.666-3.452c.417-.254.455-.625.083-.828l-6.076-3.321a1.59,1.59,0,0,0-1.429.093l-5.665,3.451C4083.357-204.574,4083.319-204.2,4083.69-204Z" transform="translate(-4005.732 250.966)" fill="#232323"/>
          <path id="Path_5235" data-name="Path 5235" d="M4075.655-208.391l6.076,3.32a1.59,1.59,0,0,0,1.429-.092l5.666-3.452c.417-.254.454-.625.083-.828l-6.075-3.321a1.591,1.591,0,0,0-1.429.093l-5.667,3.451C4075.32-208.966,4075.283-208.594,4075.655-208.391Z" transform="translate(-4005.917 250.865)" fill="#232323"/>
          <path id="Path_5236" data-name="Path 5236" d="M4067.618-212.784l6.076,3.321a1.591,1.591,0,0,0,1.429-.092l5.665-3.452c.417-.254.455-.624.084-.828l-6.077-3.321a1.59,1.59,0,0,0-1.428.093l-5.666,3.451C4067.284-213.357,4067.247-212.986,4067.618-212.784Z" transform="translate(-4006.102 250.764)" fill="#232323"/>
          <path id="Path_5237" data-name="Path 5237" d="M4059.583-217.175l6.076,3.321a1.592,1.592,0,0,0,1.428-.093l5.666-3.451c.417-.255.455-.625.084-.829l-6.077-3.321a1.592,1.592,0,0,0-1.428.093L4059.666-218C4059.248-217.749,4059.211-217.378,4059.583-217.175Z" transform="translate(-4006.286 250.663)" fill="#232323"/>
          <path id="Path_5238" data-name="Path 5238" d="M4051.546-221.567l6.076,3.321a1.591,1.591,0,0,0,1.428-.093l5.667-3.451c.417-.255.455-.625.083-.829l-6.076-3.32a1.589,1.589,0,0,0-1.428.092l-5.666,3.451C4051.212-222.141,4051.175-221.77,4051.546-221.567Z" transform="translate(-4006.471 250.562)" fill="#232323"/>
          <path id="Path_5239" data-name="Path 5239" d="M4043.511-225.959l6.075,3.321a1.59,1.59,0,0,0,1.428-.093l5.666-3.451c.417-.255.455-.625.083-.828l-6.076-3.321a1.589,1.589,0,0,0-1.428.092l-5.666,3.451C4043.176-226.533,4043.138-226.162,4043.511-225.959Z" transform="translate(-4006.656 250.461)" fill="#232323"/>
          <path id="Path_5240" data-name="Path 5240" d="M4035.475-230.351l6.075,3.321a1.589,1.589,0,0,0,1.428-.093l5.667-3.451c.417-.255.454-.625.083-.829l-6.076-3.32a1.588,1.588,0,0,0-1.428.092l-5.667,3.452C4035.14-230.925,4035.1-230.554,4035.475-230.351Z" transform="translate(-4006.841 250.36)" fill="#232323"/>
          <path id="Path_5241" data-name="Path 5241" d="M4027.438-234.743l6.077,3.321a1.588,1.588,0,0,0,1.428-.093l5.666-3.451c.418-.254.455-.625.083-.828l-6.076-3.321a1.588,1.588,0,0,0-1.428.092l-5.667,3.452C4027.1-235.317,4027.066-234.946,4027.438-234.743Z" transform="translate(-4007.025 250.259)" fill="#232323"/>
          <path id="Path_5242" data-name="Path 5242" d="M4019.4-239.135l6.075,3.321a1.591,1.591,0,0,0,1.429-.093l5.667-3.451c.417-.254.454-.625.082-.828l-6.075-3.321a1.586,1.586,0,0,0-1.428.093l-5.666,3.451C4019.069-239.709,4019.031-239.337,4019.4-239.135Z" transform="translate(-4007.211 250.158)" fill="#232323"/>
          <path id="Path_5243" data-name="Path 5243" d="M4007.734-245.511l9.79,5.35a1.588,1.588,0,0,0,1.429-.093l5.667-3.451c.417-.254.454-.625.083-.828l-9.791-5.35a1.587,1.587,0,0,0-1.427.092l-5.667,3.451C4007.4-246.085,4007.363-245.714,4007.734-245.511Z" transform="translate(-4007.479 250.011)" fill="#232323"/>
        </g>
        <g id="Group_2761" data-name="Group 2761" transform="translate(23.854 7.95)">
          <path id="Path_5244" data-name="Path 5244" d="M4013.215-241.828l-6.076-3.321a1.59,1.59,0,0,0-1.429.093l-5.665,3.451c-.418.255-.456.625-.084.829l6.076,3.321a1.592,1.592,0,0,0,1.428-.093l5.667-3.451C4013.55-241.255,4013.587-241.625,4013.215-241.828Z" transform="translate(-3999.706 245.278)" fill="#232323"/>
          <path id="Path_5245" data-name="Path 5245" d="M4021.251-237.436l-6.075-3.321a1.592,1.592,0,0,0-1.428.093l-5.666,3.451c-.417.255-.456.625-.084.828l6.076,3.321a1.588,1.588,0,0,0,1.428-.092l5.667-3.451C4021.586-236.863,4021.623-237.233,4021.251-237.436Z" transform="translate(-3999.521 245.379)" fill="#232323"/>
          <path id="Path_5246" data-name="Path 5246" d="M4029.287-233.044l-6.075-3.321a1.588,1.588,0,0,0-1.428.093l-5.667,3.451c-.418.255-.455.625-.083.828l6.075,3.321a1.588,1.588,0,0,0,1.428-.092l5.667-3.452C4029.622-232.471,4029.658-232.842,4029.287-233.044Z" transform="translate(-3999.336 245.48)" fill="#232323"/>
          <path id="Path_5247" data-name="Path 5247" d="M4037.325-228.652l-6.077-3.321a1.589,1.589,0,0,0-1.428.093l-5.666,3.451c-.418.254-.455.625-.083.828l6.075,3.321a1.59,1.59,0,0,0,1.429-.092l5.667-3.452C4037.658-228.079,4037.695-228.45,4037.325-228.652Z" transform="translate(-3999.152 245.581)" fill="#232323"/>
          <path id="Path_5248" data-name="Path 5248" d="M4045.361-224.26l-6.077-3.321a1.589,1.589,0,0,0-1.428.093l-5.666,3.451c-.417.254-.454.625-.083.828l6.076,3.321a1.588,1.588,0,0,0,1.429-.093l5.665-3.451C4045.694-223.687,4045.732-224.058,4045.361-224.26Z" transform="translate(-3998.967 245.682)" fill="#232323"/>
          <path id="Path_5249" data-name="Path 5249" d="M4053.4-219.868l-6.077-3.321a1.588,1.588,0,0,0-1.428.092l-5.667,3.452c-.417.254-.454.625-.083.828l6.076,3.321a1.584,1.584,0,0,0,1.427-.093l5.667-3.451C4053.73-219.295,4053.768-219.666,4053.4-219.868Z" transform="translate(-3998.782 245.783)" fill="#232323"/>
          <path id="Path_5250" data-name="Path 5250" d="M4061.432-215.476l-6.076-3.321a1.591,1.591,0,0,0-1.429.092l-5.665,3.452c-.419.254-.455.624-.084.828l6.075,3.321a1.591,1.591,0,0,0,1.429-.093l5.665-3.451C4061.766-214.9,4061.8-215.274,4061.432-215.476Z" transform="translate(-3998.597 245.884)" fill="#232323"/>
          <path id="Path_5251" data-name="Path 5251" d="M4069.468-211.084l-6.075-3.322a1.594,1.594,0,0,0-1.429.093l-5.666,3.452c-.417.254-.455.624-.084.828l6.076,3.321a1.589,1.589,0,0,0,1.428-.093l5.666-3.451C4069.8-210.512,4069.84-210.882,4069.468-211.084Z" transform="translate(-3998.412 245.985)" fill="#232323"/>
          <path id="Path_5252" data-name="Path 5252" d="M4077.5-206.693l-6.075-3.321a1.594,1.594,0,0,0-1.429.093l-5.666,3.452c-.417.254-.455.624-.083.828l6.076,3.321a1.591,1.591,0,0,0,1.428-.093l5.667-3.451C4077.839-206.12,4077.875-206.49,4077.5-206.693Z" transform="translate(-3998.228 246.086)" fill="#232323"/>
          <path id="Path_5253" data-name="Path 5253" d="M4085.541-202.3l-6.075-3.322a1.589,1.589,0,0,0-1.428.093l-5.667,3.451c-.417.255-.456.625-.084.828l6.076,3.322a1.592,1.592,0,0,0,1.428-.093l5.667-3.452C4085.875-201.728,4085.912-202.1,4085.541-202.3Z" transform="translate(-3998.043 246.187)" fill="#232323"/>
          <path id="Path_5254" data-name="Path 5254" d="M4093.576-197.909l-6.075-3.321a1.589,1.589,0,0,0-1.428.093l-5.666,3.451c-.417.255-.455.625-.084.829l6.077,3.32a1.587,1.587,0,0,0,1.427-.092l5.667-3.451C4093.911-197.336,4093.948-197.706,4093.576-197.909Z" transform="translate(-3997.858 246.288)" fill="#232323"/>
          <path id="Path_5255" data-name="Path 5255" d="M4101.613-193.517l-6.076-3.321a1.589,1.589,0,0,0-1.428.093l-5.667,3.451c-.417.255-.454.625-.083.828l6.076,3.321a1.587,1.587,0,0,0,1.427-.092l5.667-3.452C4101.947-192.944,4101.985-193.315,4101.613-193.517Z" transform="translate(-3997.673 246.389)" fill="#232323"/>
          <path id="Path_5256" data-name="Path 5256" d="M4109.649-189.125l-6.077-3.321a1.589,1.589,0,0,0-1.428.093l-5.666,3.451c-.417.254-.454.625-.083.828l6.076,3.321a1.586,1.586,0,0,0,1.428-.093l5.666-3.451C4109.983-188.552,4110.02-188.923,4109.649-189.125Z" transform="translate(-3997.489 246.49)" fill="#232323"/>
          <path id="Path_5257" data-name="Path 5257" d="M4121.4-182.7l-9.792-5.35a1.586,1.586,0,0,0-1.428.093l-5.666,3.451c-.417.254-.454.625-.083.828l9.79,5.351a1.6,1.6,0,0,0,1.429-.093l5.666-3.451C4121.733-182.13,4121.771-182.5,4121.4-182.7Z" transform="translate(-3997.304 246.591)" fill="#232323"/>
        </g>
        <g id="Group_2762" data-name="Group 2762" transform="translate(15.903 12.793)">
          <path id="Path_5258" data-name="Path 5258" d="M4011.377-233.852l-12.01-6.564a1.589,1.589,0,0,0-1.428.093l-5.667,3.451c-.417.255-.454.625-.083.828l12.01,6.565a1.593,1.593,0,0,0,1.428-.093l5.666-3.451C4011.712-233.278,4011.748-233.648,4011.377-233.852Z" transform="translate(-3991.934 240.544)" fill="#232323"/>
          <path id="Path_5259" data-name="Path 5259" d="M4113.611-177.979l-12.01-6.564a1.586,1.586,0,0,0-1.428.093L4094.506-181c-.417.255-.454.625-.083.828l12.011,6.564a1.588,1.588,0,0,0,1.428-.092l5.666-3.452C4113.946-177.4,4113.983-177.776,4113.611-177.979Z" transform="translate(-3989.582 241.829)" fill="#232323"/>
          <path id="Path_5260" data-name="Path 5260" d="M4019.279-229.532l-6.075-3.321a1.59,1.59,0,0,0-1.428.093l-5.666,3.451c-.417.255-.456.625-.084.828l6.076,3.321a1.588,1.588,0,0,0,1.428-.092l5.667-3.451C4019.614-228.959,4019.651-229.329,4019.279-229.532Z" transform="translate(-3991.615 240.718)" fill="#232323"/>
          <path id="Path_5261" data-name="Path 5261" d="M4027.315-225.14l-6.075-3.321a1.586,1.586,0,0,0-1.428.093l-5.667,3.451c-.417.255-.455.625-.084.828l6.076,3.321a1.588,1.588,0,0,0,1.428-.092l5.666-3.452C4027.65-224.567,4027.687-224.937,4027.315-225.14Z" transform="translate(-3991.431 240.819)" fill="#232323"/>
          <path id="Path_5262" data-name="Path 5262" d="M4035.351-220.748l-6.075-3.321a1.59,1.59,0,0,0-1.428.093l-5.666,3.451c-.417.254-.455.625-.083.828l6.076,3.321a1.585,1.585,0,0,0,1.427-.093l5.667-3.451C4035.686-220.175,4035.724-220.546,4035.351-220.748Z" transform="translate(-3991.246 240.92)" fill="#232323"/>
          <path id="Path_5263" data-name="Path 5263" d="M4043.389-216.356l-6.077-3.321a1.589,1.589,0,0,0-1.428.092l-5.666,3.452c-.417.254-.454.625-.083.828l6.076,3.321a1.589,1.589,0,0,0,1.428-.093l5.666-3.451C4043.722-215.783,4043.76-216.154,4043.389-216.356Z" transform="translate(-3991.061 241.021)" fill="#232323"/>
          <path id="Path_5264" data-name="Path 5264" d="M4051.425-211.964l-6.077-3.321a1.589,1.589,0,0,0-1.428.092l-5.666,3.452c-.417.254-.454.624-.083.828l6.076,3.321a1.591,1.591,0,0,0,1.429-.093l5.665-3.451C4051.758-211.392,4051.8-211.762,4051.425-211.964Z" transform="translate(-3990.876 241.122)" fill="#232323"/>
          <path id="Path_5265" data-name="Path 5265" d="M4059.461-207.572l-6.077-3.321a1.587,1.587,0,0,0-1.427.092l-5.666,3.451c-.419.255-.455.626-.084.829l6.076,3.321a1.591,1.591,0,0,0,1.429-.093l5.665-3.451C4059.794-207,4059.832-207.37,4059.461-207.572Z" transform="translate(-3990.691 241.223)" fill="#232323"/>
          <path id="Path_5266" data-name="Path 5266" d="M4067.5-203.181l-6.077-3.321a1.593,1.593,0,0,0-1.428.093l-5.666,3.451c-.417.255-.454.625-.082.829l6.075,3.32a1.588,1.588,0,0,0,1.429-.092l5.665-3.451C4067.831-202.608,4067.868-202.978,4067.5-203.181Z" transform="translate(-3990.506 241.324)" fill="#232323"/>
          <path id="Path_5267" data-name="Path 5267" d="M4075.532-198.788l-6.075-3.322a1.594,1.594,0,0,0-1.429.093l-5.666,3.451c-.417.255-.455.625-.084.829l6.076,3.321a1.594,1.594,0,0,0,1.429-.093l5.666-3.451C4075.867-198.216,4075.9-198.586,4075.532-198.788Z" transform="translate(-3990.321 241.425)" fill="#232323"/>
          <path id="Path_5268" data-name="Path 5268" d="M4083.568-194.4l-6.075-3.321a1.592,1.592,0,0,0-1.428.093l-5.667,3.451c-.417.255-.455.625-.084.828l6.077,3.321a1.589,1.589,0,0,0,1.428-.092l5.667-3.451C4083.9-193.824,4083.94-194.194,4083.568-194.4Z" transform="translate(-3990.137 241.526)" fill="#232323"/>
          <path id="Path_5269" data-name="Path 5269" d="M4091.6-190.005l-6.075-3.321a1.589,1.589,0,0,0-1.428.093l-5.666,3.451c-.417.255-.456.625-.084.828l6.076,3.321a1.588,1.588,0,0,0,1.428-.092l5.667-3.451C4091.939-189.432,4091.976-189.8,4091.6-190.005Z" transform="translate(-3989.952 241.627)" fill="#232323"/>
          <path id="Path_5270" data-name="Path 5270" d="M4099.641-185.613l-6.076-3.321a1.589,1.589,0,0,0-1.428.093l-5.667,3.451c-.417.255-.455.625-.083.828l6.076,3.321a1.587,1.587,0,0,0,1.427-.092l5.666-3.452C4099.976-185.04,4100.013-185.41,4099.641-185.613Z" transform="translate(-3989.768 241.728)" fill="#232323"/>
        </g>
        <g id="Group_2763" data-name="Group 2763" transform="translate(7.951 17.635)">
          <path id="Path_5271" data-name="Path 5271" d="M4007.685-226.887l-16.092-8.794a1.585,1.585,0,0,0-1.428.093l-5.667,3.451c-.417.254-.454.625-.083.828l16.091,8.795a1.6,1.6,0,0,0,1.429-.093l5.665-3.451C4008.019-226.314,4008.057-226.684,4007.685-226.887Z" transform="translate(-3984.16 235.81)" fill="#232323"/>
          <path id="Path_5272" data-name="Path 5272" d="M4015.5-222.618l-6.077-3.321a1.589,1.589,0,0,0-1.428.093l-5.666,3.451c-.417.255-.455.625-.084.828l6.076,3.321a1.59,1.59,0,0,0,1.429-.092l5.666-3.452C4015.831-222.045,4015.868-222.416,4015.5-222.618Z" transform="translate(-3983.75 236.034)" fill="#232323"/>
          <path id="Path_5273" data-name="Path 5273" d="M4023.532-218.226l-6.075-3.321a1.591,1.591,0,0,0-1.429.093L4010.361-218c-.417.255-.454.625-.083.828l6.076,3.321a1.587,1.587,0,0,0,1.428-.093l5.666-3.451C4023.867-217.653,4023.9-218.024,4023.532-218.226Z" transform="translate(-3983.565 236.135)" fill="#232323"/>
          <path id="Path_5274" data-name="Path 5274" d="M4031.569-213.834l-6.076-3.321a1.591,1.591,0,0,0-1.429.093l-5.665,3.451c-.417.254-.455.625-.084.828l6.077,3.321a1.587,1.587,0,0,0,1.428-.093l5.666-3.451C4031.9-213.261,4031.94-213.632,4031.569-213.834Z" transform="translate(-3983.381 236.236)" fill="#232323"/>
          <path id="Path_5275" data-name="Path 5275" d="M4039.6-209.442l-6.076-3.321a1.585,1.585,0,0,0-1.428.093l-5.667,3.451c-.417.254-.455.625-.084.828l6.077,3.321a1.592,1.592,0,0,0,1.428-.092l5.667-3.452C4039.939-208.869,4039.976-209.24,4039.6-209.442Z" transform="translate(-3983.196 236.337)" fill="#232323"/>
          <path id="Path_5276" data-name="Path 5276" d="M4047.641-205.05l-6.076-3.321a1.585,1.585,0,0,0-1.428.093l-5.667,3.451c-.417.254-.454.625-.083.828l6.075,3.321a1.589,1.589,0,0,0,1.428-.093l5.667-3.451C4047.975-204.478,4048.012-204.848,4047.641-205.05Z" transform="translate(-3983.011 236.438)" fill="#232323"/>
          <path id="Path_5277" data-name="Path 5277" d="M4055.677-200.658l-6.076-3.321a1.589,1.589,0,0,0-1.428.092l-5.667,3.452c-.417.254-.455.624-.083.828l6.075,3.321a1.589,1.589,0,0,0,1.428-.093l5.666-3.451C4056.011-200.086,4056.048-200.456,4055.677-200.658Z" transform="translate(-3982.826 236.539)" fill="#232323"/>
          <path id="Path_5278" data-name="Path 5278" d="M4063.713-196.266l-6.076-3.321a1.589,1.589,0,0,0-1.428.092l-5.667,3.452c-.417.254-.454.624-.083.828l6.076,3.321a1.593,1.593,0,0,0,1.429-.093l5.666-3.451C4064.047-195.694,4064.084-196.064,4063.713-196.266Z" transform="translate(-3982.642 236.64)" fill="#232323"/>
          <path id="Path_5279" data-name="Path 5279" d="M4071.749-191.874l-6.075-3.322a1.593,1.593,0,0,0-1.428.093l-5.666,3.451c-.417.255-.454.625-.083.829l6.076,3.321A1.594,1.594,0,0,0,4066-187.6l5.666-3.452C4072.084-191.3,4072.121-191.672,4071.749-191.874Z" transform="translate(-3982.457 236.741)" fill="#232323"/>
          <path id="Path_5280" data-name="Path 5280" d="M4079.785-187.483l-6.076-3.321a1.589,1.589,0,0,0-1.428.093l-5.667,3.451c-.416.255-.454.625-.083.828l6.075,3.322a1.594,1.594,0,0,0,1.429-.093l5.667-3.451C4080.119-186.91,4080.157-187.28,4079.785-187.483Z" transform="translate(-3982.272 236.842)" fill="#232323"/>
          <path id="Path_5281" data-name="Path 5281" d="M4087.822-183.091l-6.077-3.321a1.59,1.59,0,0,0-1.428.093l-5.666,3.451c-.417.255-.454.625-.083.828l6.075,3.321a1.59,1.59,0,0,0,1.429-.092l5.667-3.452C4088.155-182.518,4088.193-182.888,4087.822-183.091Z" transform="translate(-3982.087 236.943)" fill="#232323"/>
          <path id="Path_5282" data-name="Path 5282" d="M4105.932-173.194l-16.15-8.826a1.591,1.591,0,0,0-1.429.093l-5.665,3.451c-.417.254-.455.625-.084.828l16.149,8.826a1.586,1.586,0,0,0,1.428-.093l5.666-3.451C4106.265-172.62,4106.3-172.991,4105.932-173.194Z" transform="translate(-3981.903 237.044)" fill="#232323"/>
        </g>
        <g id="Group_2764" data-name="Group 2764" transform="translate(0 22.478)">
          <path id="Path_5283" data-name="Path 5283" d="M4064.716-186.737l-38.959-21.292a1.589,1.589,0,0,0-1.428.092l-5.667,3.451c-.417.255-.455.625-.083.829l38.959,21.292a1.591,1.591,0,0,0,1.429-.092l5.665-3.452C4065.05-186.164,4065.087-186.534,4064.716-186.737Z" transform="translate(-3975.424 231.603)" fill="#232323"/>
          <path id="Path_5284" data-name="Path 5284" d="M4014.005-214.451l-6.076-3.321a1.588,1.588,0,0,0-1.428.093l-5.667,3.451c-.417.255-.454.625-.084.828l6.077,3.321a1.587,1.587,0,0,0,1.427-.092l5.667-3.452C4014.34-213.878,4014.377-214.248,4014.005-214.451Z" transform="translate(-3975.834 231.379)" fill="#232323"/>
          <path id="Path_5285" data-name="Path 5285" d="M4023.835-209.078l-7.87-4.3a1.589,1.589,0,0,0-1.428.093l-5.666,3.451c-.417.255-.455.625-.083.829l7.87,4.3a1.589,1.589,0,0,0,1.428-.093l5.666-3.451C4024.17-208.506,4024.208-208.876,4023.835-209.078Z" transform="translate(-3975.649 231.48)" fill="#232323"/>
          <path id="Path_5286" data-name="Path 5286" d="M4075.727-180.72l6.076,3.321c.371.2.334.574-.083.829l-5.667,3.451a1.589,1.589,0,0,1-1.428.093l-6.076-3.321c-.371-.2-.333-.574.084-.829l5.665-3.451A1.6,1.6,0,0,1,4075.727-180.72Z" transform="translate(-3974.275 232.231)" fill="#232323"/>
          <path id="Path_5287" data-name="Path 5287" d="M4065.937-186.07l7.87,4.3c.371.2.335.573-.083.828l-5.667,3.451a1.587,1.587,0,0,1-1.427.093l-7.872-4.3c-.371-.2-.333-.573.083-.828l5.667-3.451A1.59,1.59,0,0,1,4065.937-186.07Z" transform="translate(-3974.5 232.108)" fill="#232323"/>
          <path id="Path_5288" data-name="Path 5288" d="M3989.9-227.626l-6.075-3.321a1.591,1.591,0,0,0-1.429.092l-5.666,3.452c-.417.254-.455.624-.083.828l6.076,3.321a1.59,1.59,0,0,0,1.429-.093l5.666-3.451C3990.232-227.054,3990.269-227.424,3989.9-227.626Z" transform="translate(-3976.388 231.076)" fill="#232323"/>
          <path id="Path_5289" data-name="Path 5289" d="M3997.934-223.235l-6.076-3.32a1.588,1.588,0,0,0-1.428.092l-5.667,3.451c-.418.255-.455.625-.083.829l6.075,3.321a1.593,1.593,0,0,0,1.428-.093l5.667-3.451C3998.268-222.662,3998.3-223.032,3997.934-223.235Z" transform="translate(-3976.203 231.177)" fill="#232323"/>
          <path id="Path_5290" data-name="Path 5290" d="M4005.969-218.843l-6.075-3.321a1.591,1.591,0,0,0-1.429.093l-5.665,3.451c-.417.255-.456.625-.083.829l6.075,3.321a1.592,1.592,0,0,0,1.428-.093l5.667-3.451C4006.3-218.27,4006.341-218.64,4005.969-218.843Z" transform="translate(-3976.019 231.278)" fill="#232323"/>
          <path id="Path_5291" data-name="Path 5291" d="M4098.118-168.482l-14.355-7.846a1.592,1.592,0,0,0-1.428.093l-5.667,3.451c-.417.255-.455.625-.083.829l14.355,7.845a1.589,1.589,0,0,0,1.428-.093l5.666-3.451C4098.452-167.908,4098.49-168.279,4098.118-168.482Z" transform="translate(-3974.09 232.332)" fill="#232323"/>
        </g>
        <g id="Group_2765" data-name="Group 2765" transform="translate(39.757)">
          <path id="Path_5292" data-name="Path 5292" d="M4123.608-191.2l6.076,3.321a1.591,1.591,0,0,0,1.429-.093l2.817-1.716c.418-.254.454-.625.083-.828l-6.075-3.321a1.585,1.585,0,0,0-1.428.093l-2.817,1.716C4123.272-191.779,4123.236-191.407,4123.608-191.2Z" transform="translate(-4012.765 254.408)" fill="#232323"/>
          <path id="Path_5293" data-name="Path 5293" d="M4115.571-195.6l6.077,3.321a1.588,1.588,0,0,0,1.428-.092l2.817-1.717c.417-.254.455-.625.083-.828l-6.075-3.321a1.588,1.588,0,0,0-1.428.093l-2.818,1.716C4115.238-196.171,4115.2-195.8,4115.571-195.6Z" transform="translate(-4012.95 254.307)" fill="#232323"/>
          <path id="Path_5294" data-name="Path 5294" d="M4107.536-199.989l6.077,3.321a1.589,1.589,0,0,0,1.428-.092l2.817-1.717c.417-.254.454-.624.083-.828l-6.076-3.321a1.588,1.588,0,0,0-1.428.093l-2.819,1.716C4107.2-200.562,4107.165-200.191,4107.536-199.989Z" transform="translate(-4013.135 254.206)" fill="#232323"/>
          <path id="Path_5295" data-name="Path 5295" d="M4099.5-204.381l6.075,3.322a1.594,1.594,0,0,0,1.429-.093l2.816-1.717c.418-.254.455-.625.083-.828l-6.075-3.321a1.591,1.591,0,0,0-1.429.093l-2.817,1.716C4099.165-204.954,4099.128-204.583,4099.5-204.381Z" transform="translate(-4013.32 254.105)" fill="#232323"/>
          <path id="Path_5296" data-name="Path 5296" d="M4091.463-208.773l6.076,3.322a1.6,1.6,0,0,0,1.429-.093l2.816-1.716c.419-.255.456-.626.084-.829l-6.076-3.321a1.59,1.59,0,0,0-1.429.093l-2.817,1.716C4091.129-209.346,4091.092-208.975,4091.463-208.773Z" transform="translate(-4013.504 254.004)" fill="#232323"/>
          <path id="Path_5297" data-name="Path 5297" d="M4083.427-213.164l6.076,3.321a1.592,1.592,0,0,0,1.428-.093l2.817-1.717c.417-.254.455-.624.084-.828l-6.076-3.321a1.591,1.591,0,0,0-1.429.093l-2.817,1.716C4083.093-213.738,4083.056-213.367,4083.427-213.164Z" transform="translate(-4013.689 253.903)" fill="#232323"/>
          <path id="Path_5298" data-name="Path 5298" d="M4075.392-217.556l6.076,3.321a1.588,1.588,0,0,0,1.427-.093l2.819-1.716c.416-.255.454-.625.083-.828l-6.076-3.322a1.591,1.591,0,0,0-1.429.093l-2.817,1.716C4075.057-218.13,4075.02-217.759,4075.392-217.556Z" transform="translate(-4013.874 253.802)" fill="#232323"/>
          <path id="Path_5299" data-name="Path 5299" d="M4067.354-221.948l6.077,3.321a1.592,1.592,0,0,0,1.428-.093l2.817-1.716c.417-.255.455-.625.083-.828l-6.076-3.322a1.592,1.592,0,0,0-1.428.093l-2.817,1.717C4067.021-222.522,4066.984-222.151,4067.354-221.948Z" transform="translate(-4014.059 253.701)" fill="#232323"/>
          <path id="Path_5300" data-name="Path 5300" d="M4059.319-226.34l6.076,3.321a1.59,1.59,0,0,0,1.428-.093l2.818-1.716c.417-.255.455-.625.084-.828l-6.077-3.321a1.589,1.589,0,0,0-1.428.092l-2.817,1.716C4058.985-226.914,4058.947-226.542,4059.319-226.34Z" transform="translate(-4014.243 253.6)" fill="#232323"/>
          <path id="Path_5301" data-name="Path 5301" d="M4051.283-230.732l6.076,3.321a1.585,1.585,0,0,0,1.428-.093l2.818-1.716c.417-.255.455-.625.083-.828l-6.076-3.321a1.588,1.588,0,0,0-1.428.092l-2.818,1.717C4050.949-231.306,4050.912-230.934,4051.283-230.732Z" transform="translate(-4014.428 253.499)" fill="#232323"/>
          <path id="Path_5302" data-name="Path 5302" d="M4043.247-235.124l6.077,3.321a1.588,1.588,0,0,0,1.428-.093l2.817-1.716c.417-.254.455-.625.083-.828l-6.076-3.321a1.585,1.585,0,0,0-1.428.093l-2.818,1.716C4042.913-235.7,4042.875-235.326,4043.247-235.124Z" transform="translate(-4014.613 253.398)" fill="#232323"/>
          <path id="Path_5303" data-name="Path 5303" d="M4035.211-239.516l6.076,3.321a1.589,1.589,0,0,0,1.428-.092l2.817-1.717c.417-.254.455-.624.083-.828l-6.075-3.321a1.591,1.591,0,0,0-1.429.093l-2.816,1.716C4034.877-240.09,4034.839-239.718,4035.211-239.516Z" transform="translate(-4014.798 253.297)" fill="#232323"/>
          <path id="Path_5304" data-name="Path 5304" d="M4027.175-243.908l6.075,3.321a1.591,1.591,0,0,0,1.429-.092l2.816-1.717c.418-.254.455-.624.084-.828l-6.076-3.321a1.589,1.589,0,0,0-1.428.093l-2.818,1.716C4026.84-244.481,4026.8-244.11,4027.175-243.908Z" transform="translate(-4014.983 253.196)" fill="#232323"/>
          <path id="Path_5305" data-name="Path 5305" d="M4015.508-250.284l9.79,5.35a1.591,1.591,0,0,0,1.429-.092l2.816-1.716c.419-.255.455-.625.084-.829l-9.79-5.35a1.591,1.591,0,0,0-1.429.092l-2.817,1.717C4015.173-250.858,4015.135-250.487,4015.508-250.284Z" transform="translate(-4015.251 253.049)" fill="#232323"/>
        </g>
      </g>
    </g>
    <g id="Group_2836" data-name="Group 2836" transform="translate(3918.085 -387.255)">
      <g id="Group_2789" data-name="Group 2789" transform="translate(248.901 179.171)">
        <g id="Group_2774" data-name="Group 2774">
          <g id="Group_2773" data-name="Group 2773" style="isolation: isolate">
            <g id="Group_2768" data-name="Group 2768" transform="translate(0 2.287)">
              <path id="Path_5306" data-name="Path 5306" d="M4167.5-206.457l2.658-1.545-6.139-2.519-2.659,1.545Z" transform="translate(-4161.363 210.521)" fill="#d8cd8d"/>
            </g>
            <g id="Group_2769" data-name="Group 2769" transform="translate(13.307 14.952)">
              <path id="Path_5307" data-name="Path 5307" d="M4175.4-188.968l2.658-1.545-1.028-7.628-2.658,1.545Z" transform="translate(-4174.371 198.14)" fill="#d8cd8d"/>
            </g>
            <g id="Group_2770" data-name="Group 2770" transform="translate(8.901)">
              <path id="Path_5308" data-name="Path 5308" d="M4172.79-203.237l2.659-1.545-2.726-7.974-2.659,1.545Z" transform="translate(-4170.064 212.756)" fill="#d8cd8d"/>
            </g>
            <g id="Group_2771" data-name="Group 2771" transform="translate(11.627 7.974)">
              <path id="Path_5309" data-name="Path 5309" d="M4178.862-198.849l2.658-1.545-6.133-4.567-2.659,1.545Z" transform="translate(-4172.729 204.961)" fill="#d8cd8d"/>
            </g>
            <g id="Group_2772" data-name="Group 2772" transform="translate(0 1.545)">
              <path id="Path_5310" data-name="Path 5310" d="M4170.264-211.246l-2.762,4.806-6.139-2.519,4.425,7.537L4164.721-195l5.5-.147,5.479,6.485-1.028-7.628,4.454-2.411-6.133-4.567Z" transform="translate(-4161.363 211.246)" fill="#f2ecc0"/>
            </g>
          </g>
        </g>
        <g id="Group_2781" data-name="Group 2781" transform="translate(26.026 14.858)">
          <g id="Group_2780" data-name="Group 2780" style="isolation: isolate">
            <g id="Group_2775" data-name="Group 2775" transform="translate(0 2.287)">
              <path id="Path_5311" data-name="Path 5311" d="M4192.944-191.932l2.658-1.545L4189.463-196l-2.659,1.545Z" transform="translate(-4186.804 195.996)" fill="#d8cd8d"/>
            </g>
            <g id="Group_2776" data-name="Group 2776" transform="translate(13.307 14.952)">
              <path id="Path_5312" data-name="Path 5312" d="M4200.84-174.443l2.659-1.545-1.029-7.628-2.658,1.545Z" transform="translate(-4199.812 183.616)" fill="#d8cd8d"/>
            </g>
            <g id="Group_2777" data-name="Group 2777" transform="translate(8.902)">
              <path id="Path_5313" data-name="Path 5313" d="M4198.231-188.712l2.659-1.545-2.726-7.974-2.658,1.545Z" transform="translate(-4195.506 198.232)" fill="#d8cd8d"/>
            </g>
            <g id="Group_2778" data-name="Group 2778" transform="translate(11.628 7.974)">
              <path id="Path_5314" data-name="Path 5314" d="M4204.3-184.325l2.658-1.545-6.133-4.567-2.658,1.545Z" transform="translate(-4198.17 190.437)" fill="#d8cd8d"/>
            </g>
            <g id="Group_2779" data-name="Group 2779" transform="translate(0 1.545)">
              <path id="Path_5315" data-name="Path 5315" d="M4195.706-196.721l-2.762,4.806-6.14-2.519,4.426,7.537-1.068,6.417,5.5-.147,5.479,6.485-1.028-7.628,4.454-2.411-6.134-4.567Z" transform="translate(-4186.804 196.721)" fill="#f2ecc0"/>
            </g>
          </g>
        </g>
        <g id="Group_2788" data-name="Group 2788" transform="translate(53.437 30.789)">
          <g id="Group_2787" data-name="Group 2787" style="isolation: isolate">
            <g id="Group_2782" data-name="Group 2782" transform="translate(0 2.287)">
              <path id="Path_5316" data-name="Path 5316" d="M4219.737-176.36l2.659-1.545-6.14-2.519-2.659,1.545Z" transform="translate(-4213.598 180.423)" fill="#d8cd8d"/>
            </g>
            <g id="Group_2783" data-name="Group 2783" transform="translate(13.307 14.952)">
              <path id="Path_5317" data-name="Path 5317" d="M4227.635-158.87l2.659-1.545-1.028-7.628-2.659,1.545Z" transform="translate(-4226.606 168.043)" fill="#d8cd8d"/>
            </g>
            <g id="Group_2784" data-name="Group 2784" transform="translate(8.901)">
              <path id="Path_5318" data-name="Path 5318" d="M4225.025-173.14l2.659-1.545-2.726-7.974-2.659,1.545Z" transform="translate(-4222.299 182.659)" fill="#d8cd8d"/>
            </g>
            <g id="Group_2785" data-name="Group 2785" transform="translate(11.628 7.974)">
              <path id="Path_5319" data-name="Path 5319" d="M4231.1-168.752l2.658-1.545-6.134-4.567-2.658,1.545Z" transform="translate(-4224.964 174.864)" fill="#d8cd8d"/>
            </g>
            <g id="Group_2786" data-name="Group 2786" transform="translate(0 1.545)">
              <path id="Path_5320" data-name="Path 5320" d="M4222.5-181.149l-2.762,4.806-6.139-2.519,4.426,7.537-1.068,6.417,5.5-.147,5.479,6.485-1.028-7.628,4.454-2.411-6.134-4.567Z" transform="translate(-4213.598 181.149)" fill="#f2ecc0"/>
            </g>
          </g>
        </g>
      </g>
      <g id="Group_2804" data-name="Group 2804" transform="translate(56.887)">
        <g id="Group_2796" data-name="Group 2796">
          <g id="Group_2795" data-name="Group 2795" style="isolation: isolate">
            <g id="Group_2790" data-name="Group 2790" transform="translate(0 1.438)">
              <path id="Path_5321" data-name="Path 5321" d="M3977.525-383.939l1.671-.971-3.859-1.583-1.671.971Z" transform="translate(-3973.666 386.494)" fill="#d8cd8d"/>
            </g>
            <g id="Group_2791" data-name="Group 2791" transform="translate(8.366 9.4)">
              <path id="Path_5322" data-name="Path 5322" d="M3982.49-372.944l1.671-.971-.646-4.8-1.672.971Z" transform="translate(-3981.843 378.711)" fill="#d8cd8d"/>
            </g>
            <g id="Group_2792" data-name="Group 2792" transform="translate(5.596)">
              <path id="Path_5323" data-name="Path 5323" d="M3980.85-381.915l1.671-.971-1.713-5.013-1.672.971Z" transform="translate(-3979.136 387.899)" fill="#d8cd8d"/>
            </g>
            <g id="Group_2793" data-name="Group 2793" transform="translate(7.31 5.013)">
              <path id="Path_5324" data-name="Path 5324" d="M3984.667-379.157l1.671-.971L3982.483-383l-1.672.971Z" transform="translate(-3980.812 382.999)" fill="#d8cd8d"/>
            </g>
            <g id="Group_2794" data-name="Group 2794" transform="translate(0 0.971)">
              <path id="Path_5325" data-name="Path 5325" d="M3979.262-386.95l-1.736,3.021-3.859-1.583,2.782,4.738-.671,4.035,3.457-.093,3.445,4.077-.647-4.8,2.8-1.516-3.856-2.871Z" transform="translate(-3973.666 386.95)" fill="#f2ecc0"/>
            </g>
          </g>
        </g>
        <g id="Group_2803" data-name="Group 2803" transform="translate(17.232 10.015)">
          <g id="Group_2802" data-name="Group 2802" style="isolation: isolate">
            <g id="Group_2797" data-name="Group 2797" transform="translate(0 1.438)">
              <path id="Path_5326" data-name="Path 5326" d="M3994.371-374.149l1.671-.971-3.859-1.584-1.671.971Z" transform="translate(-3990.511 376.704)" fill="#d8cd8d"/>
            </g>
            <g id="Group_2798" data-name="Group 2798" transform="translate(8.366 9.4)">
              <path id="Path_5327" data-name="Path 5327" d="M3999.335-363.154l1.671-.971-.646-4.8-1.671.971Z" transform="translate(-3998.688 368.921)" fill="#d8cd8d"/>
            </g>
            <g id="Group_2799" data-name="Group 2799" transform="translate(5.596)">
              <path id="Path_5328" data-name="Path 5328" d="M3997.695-372.125l1.671-.971-1.713-5.013-1.671.971Z" transform="translate(-3995.981 378.109)" fill="#d8cd8d"/>
            </g>
            <g id="Group_2800" data-name="Group 2800" transform="translate(7.31 5.013)">
              <path id="Path_5329" data-name="Path 5329" d="M4001.512-369.367l1.671-.971-3.856-2.871-1.671.971Z" transform="translate(-3997.656 373.209)" fill="#d8cd8d"/>
            </g>
            <g id="Group_2801" data-name="Group 2801" transform="translate(0 0.971)">
              <path id="Path_5330" data-name="Path 5330" d="M3996.107-377.16l-1.737,3.021-3.86-1.584,2.783,4.738-.672,4.034,3.457-.092,3.445,4.077-.646-4.8,2.8-1.516-3.855-2.871Z" transform="translate(-3990.511 377.16)" fill="#f2ecc0"/>
            </g>
          </g>
        </g>
      </g>
      <g id="Group_2835" data-name="Group 2835" transform="translate(0 22.298)">
        <g id="Group_2819" data-name="Group 2819" transform="translate(33.905 20.292)">
          <g id="Group_2811" data-name="Group 2811">
            <g id="Group_2810" data-name="Group 2810" style="isolation: isolate">
              <g id="Group_2805" data-name="Group 2805" transform="translate(0 1.438)">
                <path id="Path_5331" data-name="Path 5331" d="M3955.06-342.306l1.671-.971-3.859-1.584-1.671.971Z" transform="translate(-3951.201 344.861)" fill="#d8cd8d"/>
              </g>
              <g id="Group_2806" data-name="Group 2806" transform="translate(8.365 9.4)">
                <path id="Path_5332" data-name="Path 5332" d="M3960.024-331.312l1.671-.971-.646-4.8-1.671.971Z" transform="translate(-3959.378 337.078)" fill="#d8cd8d"/>
              </g>
              <g id="Group_2807" data-name="Group 2807" transform="translate(5.596)">
                <path id="Path_5333" data-name="Path 5333" d="M3958.385-340.282l1.671-.971-1.713-5.013-1.671.971Z" transform="translate(-3956.671 346.267)" fill="#d8cd8d"/>
              </g>
              <g id="Group_2808" data-name="Group 2808" transform="translate(7.31 5.013)">
                <path id="Path_5334" data-name="Path 5334" d="M3962.2-337.524l1.671-.971-3.856-2.871-1.671.971Z" transform="translate(-3958.346 341.366)" fill="#d8cd8d"/>
              </g>
              <g id="Group_2809" data-name="Group 2809" transform="translate(0 0.971)">
                <path id="Path_5335" data-name="Path 5335" d="M3956.8-345.317l-1.736,3.021-3.859-1.584,2.782,4.739-.672,4.034,3.457-.093,3.445,4.077-.646-4.8,2.8-1.516-3.856-2.871Z" transform="translate(-3951.201 345.317)" fill="#f2ecc0"/>
              </g>
            </g>
          </g>
          <g id="Group_2818" data-name="Group 2818" transform="translate(17.232 10.015)">
            <g id="Group_2817" data-name="Group 2817" style="isolation: isolate">
              <g id="Group_2812" data-name="Group 2812" transform="translate(0 1.438)">
                <path id="Path_5336" data-name="Path 5336" d="M3971.9-332.516l1.671-.971-3.86-1.584-1.671.971Z" transform="translate(-3968.045 335.071)" fill="#d8cd8d"/>
              </g>
              <g id="Group_2813" data-name="Group 2813" transform="translate(8.366 9.4)">
                <path id="Path_5337" data-name="Path 5337" d="M3976.869-321.521l1.671-.971-.646-4.8-1.671.971Z" transform="translate(-3976.223 327.288)" fill="#d8cd8d"/>
              </g>
              <g id="Group_2814" data-name="Group 2814" transform="translate(5.596)">
                <path id="Path_5338" data-name="Path 5338" d="M3975.229-330.492l1.671-.971-1.714-5.013-1.671.971Z" transform="translate(-3973.515 336.476)" fill="#d8cd8d"/>
              </g>
              <g id="Group_2815" data-name="Group 2815" transform="translate(7.31 5.013)">
                <path id="Path_5339" data-name="Path 5339" d="M3979.046-327.734l1.671-.971-3.856-2.871-1.671.971Z" transform="translate(-3975.19 331.576)" fill="#d8cd8d"/>
              </g>
              <g id="Group_2816" data-name="Group 2816" transform="translate(0 0.971)">
                <path id="Path_5340" data-name="Path 5340" d="M3973.642-335.527l-1.737,3.021-3.859-1.584,2.782,4.739-.671,4.034,3.457-.092,3.444,4.077-.646-4.8,2.8-1.516-3.856-2.871Z" transform="translate(-3968.045 335.527)" fill="#f2ecc0"/>
              </g>
            </g>
          </g>
        </g>
        <g id="Group_2834" data-name="Group 2834">
          <g id="Group_2826" data-name="Group 2826">
            <g id="Group_2825" data-name="Group 2825" style="isolation: isolate">
              <g id="Group_2820" data-name="Group 2820" transform="translate(0 1.438)">
                <path id="Path_5341" data-name="Path 5341" d="M3921.917-362.142l1.671-.971-3.86-1.584-1.671.971Z" transform="translate(-3918.057 364.697)" fill="#d8cd8d"/>
              </g>
              <g id="Group_2821" data-name="Group 2821" transform="translate(8.366 9.4)">
                <path id="Path_5342" data-name="Path 5342" d="M3926.882-351.147l1.671-.971-.646-4.8-1.671.971Z" transform="translate(-3926.235 356.914)" fill="#d8cd8d"/>
              </g>
              <g id="Group_2822" data-name="Group 2822" transform="translate(5.596)">
                <path id="Path_5343" data-name="Path 5343" d="M3925.242-360.118l1.671-.971L3925.2-366.1l-1.671.971Z" transform="translate(-3923.528 366.102)" fill="#d8cd8d"/>
              </g>
              <g id="Group_2823" data-name="Group 2823" transform="translate(7.31 5.013)">
                <path id="Path_5344" data-name="Path 5344" d="M3929.058-357.36l1.672-.971-3.856-2.871-1.671.971Z" transform="translate(-3925.203 361.202)" fill="#d8cd8d"/>
              </g>
              <g id="Group_2824" data-name="Group 2824" transform="translate(0 0.971)">
                <path id="Path_5345" data-name="Path 5345" d="M3923.653-365.153l-1.736,3.021-3.86-1.584,2.782,4.738-.672,4.034,3.457-.092,3.445,4.077-.646-4.8,2.8-1.516-3.856-2.871Z" transform="translate(-3918.057 365.153)" fill="#f2ecc0"/>
              </g>
            </g>
          </g>
          <g id="Group_2833" data-name="Group 2833" transform="translate(17.232 10.015)">
            <g id="Group_2832" data-name="Group 2832" style="isolation: isolate">
              <g id="Group_2827" data-name="Group 2827" transform="translate(0 1.438)">
                <path id="Path_5346" data-name="Path 5346" d="M3938.762-352.352l1.671-.971-3.86-1.584-1.671.971Z" transform="translate(-3934.902 354.907)" fill="#d8cd8d"/>
              </g>
              <g id="Group_2828" data-name="Group 2828" transform="translate(8.366 9.4)">
                <path id="Path_5347" data-name="Path 5347" d="M3943.727-341.357l1.671-.971-.646-4.8-1.672.971Z" transform="translate(-3943.08 347.124)" fill="#d8cd8d"/>
              </g>
              <g id="Group_2829" data-name="Group 2829" transform="translate(5.596)">
                <path id="Path_5348" data-name="Path 5348" d="M3942.086-350.328l1.671-.971-1.714-5.013-1.671.971Z" transform="translate(-3940.372 356.312)" fill="#d8cd8d"/>
              </g>
              <g id="Group_2830" data-name="Group 2830" transform="translate(7.31 5.013)">
                <path id="Path_5349" data-name="Path 5349" d="M3945.9-347.569l1.671-.971-3.856-2.871-1.671.971Z" transform="translate(-3942.047 351.412)" fill="#d8cd8d"/>
              </g>
              <g id="Group_2831" data-name="Group 2831" transform="translate(0 0.971)">
                <path id="Path_5350" data-name="Path 5350" d="M3940.5-355.363l-1.736,3.021-3.86-1.584,2.782,4.739-.671,4.034,3.457-.093,3.445,4.077-.647-4.8,2.8-1.516-3.856-2.871Z" transform="translate(-3934.902 355.363)" fill="#f2ecc0"/>
              </g>
            </g>
          </g>
        </g>
      </g>
    </g>
    <g id="Group_2867" data-name="Group 2867" transform="translate(4107.638 -178.274)">
      <g id="Group_2866" data-name="Group 2866" transform="translate(0)">
        <g id="Group_2837" data-name="Group 2837" transform="translate(2.613 60.364)">
          <path id="Path_5351" data-name="Path 5351" d="M4105.9-124.546c.072-.018.143-.04.217-.063C4106.047-124.585,4105.976-124.564,4105.9-124.546Z" transform="translate(-4105.904 124.609)" fill="#525252"/>
        </g>
        <g id="Group_2838" data-name="Group 2838" transform="translate(2.599 60.427)">
          <path id="Path_5352" data-name="Path 5352" d="M4105.89-124.544l.014,0Z" transform="translate(-4105.89 124.547)" fill="#525252"/>
        </g>
        <g id="Group_2839" data-name="Group 2839" transform="translate(2.366 60.472)">
          <path id="Path_5353" data-name="Path 5353" d="M4105.662-124.5l.026-.005Z" transform="translate(-4105.662 124.503)" fill="#525252"/>
        </g>
        <g id="Group_2840" data-name="Group 2840" transform="translate(1.714 60.485)">
          <path id="Path_5354" data-name="Path 5354" d="M4105.024-124.49h0Z" transform="translate(-4105.024 124.49)" fill="#525252"/>
        </g>
        <g id="Group_2841" data-name="Group 2841" transform="translate(1.333 60.387)">
          <path id="Path_5355" data-name="Path 5355" d="M4104.651-124.586a1.817,1.817,0,0,0,.382.1A1.817,1.817,0,0,1,4104.651-124.586Z" transform="translate(-4104.651 124.586)" fill="#525252"/>
        </g>
        <g id="Group_2842" data-name="Group 2842" transform="translate(1.33 60.386)">
          <path id="Path_5356" data-name="Path 5356" d="M4104.648-124.587h0Z" transform="translate(-4104.648 124.587)" fill="#525252"/>
        </g>
        <g id="Group_2843" data-name="Group 2843" transform="translate(49.389 0.244)">
          <path id="Path_5357" data-name="Path 5357" d="M4151.691-183.377l-.064.027Z" transform="translate(-4151.627 183.377)" fill="#525252"/>
        </g>
        <g id="Group_2844" data-name="Group 2844" transform="translate(49.452 0.207)">
          <path id="Path_5358" data-name="Path 5358" d="M4151.777-183.413l-.087.037Z" transform="translate(-4151.69 183.413)" fill="#525252"/>
        </g>
        <g id="Group_2845" data-name="Group 2845" transform="translate(49.539 0.178)">
          <path id="Path_5359" data-name="Path 5359" d="M4151.857-183.442l-.082.03Z" transform="translate(-4151.775 183.442)" fill="#525252"/>
        </g>
        <g id="Group_2846" data-name="Group 2846" transform="translate(49.621 0.154)">
          <path id="Path_5360" data-name="Path 5360" d="M4151.92-183.465l-.066.024Z" transform="translate(-4151.854 183.465)" fill="#525252"/>
        </g>
        <g id="Group_2847" data-name="Group 2847" transform="translate(49.687 0.124)">
          <path id="Path_5361" data-name="Path 5361" d="M4152.012-183.495l-.093.031Z" transform="translate(-4151.919 183.495)" fill="#525252"/>
        </g>
        <g id="Group_2848" data-name="Group 2848" transform="translate(49.78 0.11)">
          <path id="Path_5362" data-name="Path 5362" d="M4152.057-183.508l-.047.013Z" transform="translate(-4152.01 183.508)" fill="#525252"/>
        </g>
        <g id="Group_2849" data-name="Group 2849" transform="translate(49.826 0.081)">
          <path id="Path_5363" data-name="Path 5363" d="M4152.165-183.537c-.037.008-.073.018-.11.03C4152.092-183.519,4152.127-183.528,4152.165-183.537Z" transform="translate(-4152.055 183.537)" fill="#525252"/>
        </g>
        <g id="Group_2850" data-name="Group 2850" transform="translate(49.935 0.078)">
          <path id="Path_5364" data-name="Path 5364" d="M4152.173-183.54l-.011,0Z" transform="translate(-4152.162 183.54)" fill="#525252"/>
        </g>
        <g id="Group_2851" data-name="Group 2851" transform="translate(49.605 33.328)">
          <path id="Path_5365" data-name="Path 5365" d="M4151.935-151.037c-.032.026-.064.05-.1.075C4151.871-150.987,4151.9-151.011,4151.935-151.037Z" transform="translate(-4151.838 151.037)" fill="#525252"/>
        </g>
        <g id="Group_2865" data-name="Group 2865" style="isolation: isolate">
          <g id="Group_2852" data-name="Group 2852" transform="translate(49.753 33.195)">
            <path id="Path_5366" data-name="Path 5366" d="M4152.095-151.167l-.111.092Z" transform="translate(-4151.983 151.167)" fill="#525252"/>
          </g>
          <g id="Group_2853" data-name="Group 2853" transform="translate(49.449 33.463)">
            <path id="Path_5367" data-name="Path 5367" d="M4151.76-150.9c-.023.017-.048.036-.073.052C4151.711-150.869,4151.736-150.888,4151.76-150.9Z" transform="translate(-4151.687 150.905)" fill="#525252"/>
          </g>
          <g id="Group_2854" data-name="Group 2854" transform="translate(32.289)">
            <path id="Path_5368" data-name="Path 5368" d="M4152.569-183.538a2.091,2.091,0,0,1,1.327.064l-18.984,26.593,19.123,4.633a7.778,7.778,0,0,1-1.378,1.679,7.756,7.756,0,0,0,2.521-5.312l-.072-25.265C4155.1-182.976,4154.029-183.9,4152.569-183.538Z" transform="translate(-4134.912 183.616)" fill="#cfdae2"/>
          </g>
          <g id="Group_2855" data-name="Group 2855" transform="translate(2.876 60.263)">
            <path id="Path_5369" data-name="Path 5369" d="M4106.16-124.623c.073-.025.147-.052.222-.084C4106.308-124.675,4106.233-124.648,4106.16-124.623Z" transform="translate(-4106.16 124.707)" fill="#525252"/>
          </g>
          <g id="Group_2856" data-name="Group 2856" transform="translate(2.831 60.347)">
            <path id="Path_5370" data-name="Path 5370" d="M4106.116-124.609l.045-.016Z" transform="translate(-4106.116 124.625)" fill="#525252"/>
          </g>
          <g id="Group_2857" data-name="Group 2857" transform="translate(1.331 26.735)">
            <path id="Path_5371" data-name="Path 5371" d="M4135.607-157.482l-6,8.4-5.912-1.432-19.047,26.681a2.355,2.355,0,0,0,1.767-.123c.087-.038.135-.059.184-.083l45.8-26.429a7.338,7.338,0,0,0,2.332-2.384Z" transform="translate(-4104.649 157.482)" fill="#dfe9ef"/>
          </g>
          <g id="Group_2858" data-name="Group 2858" transform="translate(3.109 26.88)">
            <path id="Path_5372" data-name="Path 5372" d="M4106.388-157.234c.052-.037.1-.072.158-.106C4106.492-157.305,4106.44-157.27,4106.388-157.234Z" transform="translate(-4106.388 157.34)" fill="#525252"/>
          </g>
          <g id="Group_2859" data-name="Group 2859" transform="translate(2.958 27.04)">
            <path id="Path_5373" data-name="Path 5373" d="M4106.24-157.127c.026-.019.051-.039.078-.057C4106.292-157.166,4106.266-157.146,4106.24-157.127Z" transform="translate(-4106.24 157.184)" fill="#525252"/>
          </g>
          <g id="Group_2860" data-name="Group 2860" transform="translate(2.864 27.097)">
            <path id="Path_5374" data-name="Path 5374" d="M4106.148-157.057c.031-.024.062-.048.094-.071C4106.21-157.105,4106.179-157.081,4106.148-157.057Z" transform="translate(-4106.148 157.128)" fill="#525252"/>
          </g>
          <g id="Group_2861" data-name="Group 2861" transform="translate(2.668 27.296)">
            <path id="Path_5375" data-name="Path 5375" d="M4105.957-156.9l.038-.032Z" transform="translate(-4105.957 156.933)" fill="#525252"/>
          </g>
          <g id="Group_2862" data-name="Group 2862" transform="translate(2.548 27.328)">
            <path id="Path_5376" data-name="Path 5376" d="M4105.839-156.8q.06-.054.12-.1Q4105.9-156.851,4105.839-156.8Z" transform="translate(-4105.839 156.902)" fill="#525252"/>
          </g>
          <g id="Group_2863" data-name="Group 2863" transform="translate(1.191 0.001)">
            <path id="Path_5377" data-name="Path 5377" d="M4106.8-156.863a7.286,7.286,0,0,0-2.284,2.3l19.188,4.649,5.912,1.432,6-8.4,18.983-26.593a2.44,2.44,0,0,0-2.04.2Z" transform="translate(-4104.513 183.615)" fill="#fff"/>
          </g>
          <g id="Group_2864" data-name="Group 2864" transform="translate(0 27.435)">
            <path id="Path_5378" data-name="Path 5378" d="M4105.894-156.8a7.759,7.759,0,0,0-2.544,5.335l.071,25.265a2.3,2.3,0,0,0,1.259,2.351l19.048-26.681-19.187-4.648A7.777,7.777,0,0,1,4105.894-156.8Z" transform="translate(-4103.349 156.797)" fill="#cfdae2"/>
          </g>
        </g>
      </g>
    </g>
    <g id="Group_2893" data-name="Group 2893" transform="translate(4055.658 -330.307)">
      <g id="Group_2875" data-name="Group 2875">
        <path id="Path_5379" data-name="Path 5379" d="M4105.774-302.987,4055.312-332c-.855-.492-1.548-.174-1.548.711v63.655a3.247,3.247,0,0,0,1.548,2.493l50.462,29.064c.856.493,1.55.175,1.55-.71v-63.706A3.247,3.247,0,0,0,4105.774-302.987Z" transform="translate(-4052.51 332.231)" fill="#61bcb5"/>
        <path id="Path_5380" data-name="Path 5380" d="M4107.324-286.236l-53.56-30.809v58.309a2.585,2.585,0,0,0,1.233,1.985l51.093,29.436c.682.393,1.234.14,1.234-.565Z" transform="translate(-4052.51 332.58)" fill="#61bcb5"/>
        <path id="Path_5381" data-name="Path 5381" d="M4104.548-302.435l-50.462-29.013c-.854-.492-1.548-.173-1.548.711v63.656a3.249,3.249,0,0,0,1.548,2.492l50.462,29.064c.856.493,1.551.176,1.551-.709v-63.707A3.249,3.249,0,0,0,4104.548-302.435Z" transform="translate(-4052.538 332.244)" fill="#fff"/>
        <g id="Group_2868" data-name="Group 2868" transform="translate(0 16.101)">
          <path id="Path_5382" data-name="Path 5382" d="M4106.1-285.685l-53.561-30.807v48.539L4106.1-237.7Z" transform="translate(-4052.538 316.492)" fill="#acccf9"/>
          <path id="Path_5383" data-name="Path 5383" d="M4052.538-269.044v9.77a2.591,2.591,0,0,0,1.233,1.986l51.094,29.434c.681.393,1.234.14,1.234-.565v-10.369Z" transform="translate(-4052.538 317.583)" fill="#f9f9f7"/>
        </g>
        <g id="Group_2872" data-name="Group 2872" transform="translate(4.426 9.366)">
          <g id="Group_2871" data-name="Group 2871" clip-path="url(#clip-path)">
            <path id="Path_5384" data-name="Path 5384" d="M4056.865-320.471a8.971,8.971,0,0,0,4.282,6.89c2.364,1.36,4.281.48,4.281-1.965a8.977,8.977,0,0,0-4.281-6.89C4058.781-323.8,4056.865-322.916,4056.865-320.471Z" transform="translate(-4056.865 323.076)" fill="#fff"/>
            <g id="Group_2870" data-name="Group 2870" transform="translate(0.51 0.604)">
              <path id="Path_5385" data-name="Path 5385" d="M4059.155-321h0v0Z" transform="translate(-4057.323 322.52)" fill="#cfdae2"/>
              <g id="Group_2869" data-name="Group 2869">
                <path id="Path_5386" data-name="Path 5386" d="M4058.734-316.579h.007a5.024,5.024,0,0,0,.469-2.475,1.275,1.275,0,0,1-.112-.445c-.02-.343.03-.451.115-.462h0c-.244-1.832.831-1.272.831-1.272s.229-.341,1.118.172a3.736,3.736,0,0,1,2,3.42,1.037,1.037,0,0,1,.066.518.664.664,0,0,1-.042.2,9.286,9.286,0,0,0,.412,3.138h0v0a.873.873,0,0,1,.067.1,2.1,2.1,0,0,0,1.239-2.171,7.908,7.908,0,0,0-3.771-6.068c-2.083-1.2-3.771-.422-3.771,1.731a6.892,6.892,0,0,0,1.28,3.658A.2.2,0,0,1,4058.734-316.579Z" transform="translate(-4057.364 322.486)" fill="#acccf9"/>
                <path id="Path_5387" data-name="Path 5387" d="M4063.638-313.709a.839.839,0,0,0-.066-.1l0,0h0a9.311,9.311,0,0,1-.412-3.138.656.656,0,0,0,.042-.2,1.037,1.037,0,0,0-.066-.518,3.735,3.735,0,0,0-2-3.42c-.888-.513-1.117-.172-1.117-.172s-1.076-.561-.831,1.272h0c-.085.011-.135.12-.115.462a1.249,1.249,0,0,0,.112.445,5.032,5.032,0,0,1-.469,2.475h-.007a.2.2,0,0,0-.091.046,7.8,7.8,0,0,0,2.491,2.41A3.061,3.061,0,0,0,4063.638-313.709Z" transform="translate(-4057.335 322.511)" fill="#acccf9"/>
              </g>
            </g>
          </g>
        </g>
        <path id="Path_5389" data-name="Path 5389" d="M4085.087-305.743l-17.439-10.028a.609.609,0,0,1-.289-.464v-.613c0-.165.13-.224.289-.132l17.439,10.028a.6.6,0,0,1,.288.464v.612C4085.375-305.711,4085.247-305.652,4085.087-305.743Z" transform="translate(-4052.197 332.581)" fill="#cfdae2"/>
        <path id="Path_5390" data-name="Path 5390" d="M4077.825-307.269l-10.244-5.89a.469.469,0,0,1-.222-.357v-.75c0-.127.1-.173.222-.1l10.244,5.89a.469.469,0,0,1,.222.358v.749C4078.047-307.244,4077.947-307.2,4077.825-307.269Z" transform="translate(-4052.197 332.641)" fill="#cfdae2"/>
        <g id="Group_2873" data-name="Group 2873" transform="translate(49.246 34.115)">
          <path id="Path_5391" data-name="Path 5391" d="M4100.677-298.622c0-.245.193-.333.43-.2a.9.9,0,0,1,.429.691c0,.246-.192.333-.429.2A.9.9,0,0,1,4100.677-298.622Z" transform="translate(-4100.677 298.883)" fill="#fff"/>
          <path id="Path_5392" data-name="Path 5392" d="M4100.677-296.6c0-.246.193-.334.43-.2a.9.9,0,0,1,.429.692c0,.244-.192.332-.429.2A.9.9,0,0,1,4100.677-296.6Z" transform="translate(-4100.677 298.93)" fill="#fff"/>
          <path id="Path_5393" data-name="Path 5393" d="M4100.677-294.579c0-.245.193-.332.43-.2a.9.9,0,0,1,.429.69c0,.246-.192.334-.429.2A.9.9,0,0,1,4100.677-294.579Z" transform="translate(-4100.677 298.976)" fill="#fff"/>
        </g>
        <g id="Group_2874" data-name="Group 2874" transform="translate(46.191 93.852)">
          <path id="Path_5394" data-name="Path 5394" d="M4097.69-240.489v5.434l1.877-.275,1.876,2.437v-5.434Z" transform="translate(-4097.69 240.489)" fill="#cfdae2"/>
        </g>
        <path id="Path_5395" data-name="Path 5395" d="M4060.448-261.4a1.352,1.352,0,0,0-1.978-.007c0,.011-.022,0-.027-.015a5,5,0,0,0-1.119-1.683,2.505,2.505,0,0,0-.724-.538,1.27,1.27,0,0,0-.133-.05c-.868-.255-1.375.339-1,1.688a2.958,2.958,0,0,0,.161.426,22.186,22.186,0,0,0,2.287,3.446c.238.307.42.535.5.629a.1.1,0,0,0,.078.045c.328-.028,2.59-.253,2.947-1.107A2.664,2.664,0,0,0,4060.448-261.4Z" transform="translate(-4052.473 333.806)" fill="#3d71f4"/>
        <path id="Path_5396" data-name="Path 5396" d="M4069.376-253.732c0-1.369-1.421-3.3-3.173-4.307s-3.174-.718-3.174.651,1.421,3.3,3.174,4.306a4.949,4.949,0,0,0,.988.434l-.023.005,1.212.878v-.746A1.123,1.123,0,0,0,4069.376-253.732Z" transform="translate(-4052.297 333.924)" fill="#cfdae2"/>
      </g>
      <g id="Group_2892" data-name="Group 2892" transform="translate(10.269 37.884)">
        <path id="Path_5397" data-name="Path 5397" d="M4070.745-288.982s-2.029,3.994-.728,15.037c1.3,11.027-1.08,8.928-1.08,8.928l9.422,4.868s2.661-16.186,2.907-15.827-2.689-14.239-2.689-14.239Z" transform="translate(-4062.429 295.313)" fill="#683b32"/>
        <path id="Path_5398" data-name="Path 5398" d="M4084.832-287.7c4.77,8.824,1.321,20.223,1.282,31.546l-7.454-5.705Z" transform="translate(-4062.206 295.371)" fill="#683b32"/>
        <path id="Path_5399" data-name="Path 5399" d="M4063.014-270.161c.551-3.5,5.371-2.89,8.536-.119l3.633,4.97,10.947,2.822a14.776,14.776,0,0,1,6.457,5.6c2.082,3.753.745,11.1.745,11.1l-30.756-17.356A57.6,57.6,0,0,1,4063.014-270.161Z" transform="translate(-4062.576 295.719)" fill="#192428"/>
        <path id="Path_5400" data-name="Path 5400" d="M4078.087-265.458l-5.437,2.349,3.46,7.664,4.256,2.194,3.778-4.254Z" transform="translate(-4062.344 295.883)" fill="#f9f9f7"/>
        <g id="Group_2876" data-name="Group 2876" transform="translate(11.152 32.372)">
          <path id="Path_5401" data-name="Path 5401" d="M4073.478-263.383l1.664-.171,1.429,1.825Z" transform="translate(-4073.478 263.554)" fill="#192428"/>
        </g>
        <g id="Group_2877" data-name="Group 2877" transform="translate(16.365 36.904)">
          <path id="Path_5402" data-name="Path 5402" d="M4078.573-259.124l.087.111v0A.787.787,0,0,1,4078.573-259.124Z" transform="translate(-4078.573 259.124)" fill="#f2ad97"/>
        </g>
        <g id="Group_2878" data-name="Group 2878" transform="translate(14.245 32.256)">
          <path id="Path_5403" data-name="Path 5403" d="M4076.513-263.668l1.23,4.666h0l-1.241-2.724Z" transform="translate(-4076.501 263.668)" fill="#f5f5f5"/>
        </g>
        <g id="Group_2879" data-name="Group 2879" transform="translate(12.816 32.232)">
          <path id="Path_5404" data-name="Path 5404" d="M4075.1-263.551l1.43-.14.011.024-.008,1.944Z" transform="translate(-4075.104 263.691)" fill="#192428"/>
        </g>
        <g id="Group_2880" data-name="Group 2880" transform="translate(14.246 32.231)">
          <path id="Path_5405" data-name="Path 5405" d="M4076.5-263.691h.011v.025Z" transform="translate(-4076.502 263.692)" fill="#edc7b3"/>
        </g>
        <g id="Group_2881" data-name="Group 2881" transform="translate(14.256 32.221)">
          <path id="Path_5406" data-name="Path 5406" d="M4076.512-263.7v0h0Z" transform="translate(-4076.511 263.702)" fill="#e5c1b0"/>
        </g>
        <g id="Group_2882" data-name="Group 2882" transform="translate(10.507 24.667)">
          <path id="Path_5407" data-name="Path 5407" d="M4076.6-263.532l-1.44.151-1.667.164-.386.038a11.137,11.137,0,0,1,.437-6.131c.048-.149.1-.3.149-.449.153-.443.322-.886.5-1.327.106.163.214.321.32.478A14.488,14.488,0,0,0,4076.6-263.532Z" transform="translate(-4072.847 271.086)" fill="#fff"/>
        </g>
        <g id="Group_2883" data-name="Group 2883" transform="translate(18.223 34.297)">
          <path id="Path_5408" data-name="Path 5408" d="M4080.389-261.664h.007l.032-.007-.018.015-.013.011Z" transform="translate(-4080.389 261.672)" fill="#f3f3f3"/>
        </g>
        <g id="Group_2884" data-name="Group 2884" transform="translate(12.174 25.145)">
          <path id="Path_5409" data-name="Path 5409" d="M4078.3-266.68a4.621,4.621,0,0,0,4.33-.107c.031,2.625-.531,4.093-2.079,5.337l.017-.015-.033.007-2.313,4.825-1.66-6.875a14.7,14.7,0,0,1-2.083-7.111A12.674,12.674,0,0,0,4078.3-266.68Z" transform="translate(-4074.476 270.619)" fill="#f2ad97"/>
        </g>
        <g id="Group_2885" data-name="Group 2885" transform="translate(16.869 34.303)">
          <path id="Path_5410" data-name="Path 5410" d="M4080.455-261.6v2.085l.015.009-1.4.879,1.356-3.036.007.02.013-.011a.123.123,0,0,1-.018.016Z" transform="translate(-4079.065 261.667)" fill="#f5f5f5"/>
        </g>
        <g id="Group_2886" data-name="Group 2886" transform="translate(18.256 34.362)">
          <path id="Path_5411" data-name="Path 5411" d="M4080.421-261.609l1.385,1.677-1.366.421-.017-.009Z" transform="translate(-4080.421 261.609)" fill="#192428"/>
        </g>
        <g id="Group_2887" data-name="Group 2887" transform="translate(8.595 25.188)">
          <path id="Path_5412" data-name="Path 5412" d="M4073.138-263.191l.386-.038,3.1,1.661,1.5,6.8,2.531-4.537,3.241,1.884c.551-1.438.332-3.8-.269-6.533.785.486,1.574.972,2.308,1.42l-.049-.945-14.451-7.1s-.032.088-.08.252c.718.326,1.479.669,2.226,1A11.139,11.139,0,0,0,4073.138-263.191Z" transform="translate(-4070.969 270.577)" fill="none"/>
          <path id="Path_5413" data-name="Path 5413" d="M4085.084-255.691l-.858-1.263,1.412.571a15.167,15.167,0,0,0,.3-6.155h0c-.734-.448-1.523-.934-2.308-1.42.6,2.732.82,5.094.269,6.533l-3.241-1.884-2.53,4.537-1.5-6.8-3.1-1.661-.386.038a11.135,11.135,0,0,1,.437-6.131c-.747-.335-1.508-.677-2.226-1a12.46,12.46,0,0,0-.193,5.316l1.2,1.176-1.157-.3a25.831,25.831,0,0,0,2.06,7.072q.166.14.334.275l.074.06q.2.163.4.32l.086.066c.136.106.274.211.471.359.135.1.271.2.448.329.141.1.281.2.424.3l.081.057c.138.1.278.189.417.281l.082.054c.144.094.288.188.47.3.141.089.283.177.481.3.145.087.288.172.434.256l.085.049q.214.123.431.242l.072.039q.227.124.455.243c.151.079.3.154.454.229l.073.036c.143.071.286.138.428.2l.085.039c.145.066.288.131.487.217.141.061.283.121.46.192.144.058.286.114.428.168l.081.031c.138.051.276.1.415.149l.076.027A15.073,15.073,0,0,0,4085.084-255.691Z" transform="translate(-4070.977 270.583)" fill="#2e3f47"/>
        </g>
        <g id="Group_2888" data-name="Group 2888" transform="translate(18.274 36.04)">
          <path id="Path_5414" data-name="Path 5414" d="M4080.439-259.549l1.367-.42,1.882,2.281a.032.032,0,0,1-.008.024Z" transform="translate(-4080.439 259.969)" fill="#192428"/>
        </g>
        <g id="Group_2889" data-name="Group 2889" transform="translate(18.227 28.883)">
          <path id="Path_5415" data-name="Path 5415" d="M4083.2-264.931q.109.453.208.9c.6,2.732.82,5.095.318,6.559l-.041-.05-1.883-2.281-1.382-1.674-.032-.038.018-.015c1.548-1.244,2.111-2.712,2.079-5.337.059-.03.118-.061.176-.093C4082.863-266.274,4083.043-265.594,4083.2-264.931Z" transform="translate(-4080.393 266.965)" fill="#fff"/>
        </g>
        <g id="Group_2890" data-name="Group 2890" transform="translate(6.354 6.795)">
          <path id="Path_5416" data-name="Path 5416" d="M4069.354-285.811l-.014-.007a.246.246,0,0,0-.066-.02c-.316-.041-.537.742-.478,1.851.059,1.159.187,2.138.732,2.435l.038.019a.417.417,0,0,0,.219.046c.365-.047.38-.865.325-1.877a7.167,7.167,0,0,0-.166-1.2,4,4,0,0,0-.309-.9A.827.827,0,0,0,4069.354-285.811Z" transform="translate(-4068.786 288.618)" fill="#ffc9b6"/>
          <path id="Path_5417" data-name="Path 5417" d="M4087.643-274.623a1.3,1.3,0,0,0-.39-.768l-.013-.008c-.191-.1-.386.081-.529.461-.153-.074-.322-.16-.5-.258a18.905,18.905,0,0,1-6.373-5.929,13.293,13.293,0,0,1-3.869-3.068,13.831,13.831,0,0,1-2.3-4.363c-1.252,2.72-2.813,3.85-3.891,3.259a1.306,1.306,0,0,1-.163-.105,3.973,3.973,0,0,1,.309.9,7.051,7.051,0,0,1,.166,1.2c.054,1.012.04,1.83-.325,1.877a32.379,32.379,0,0,0,4.5,10.741c.106.163.214.321.321.478a12.67,12.67,0,0,0,3.82,3.939,4.622,4.622,0,0,0,4.33-.107c.059-.03.118-.061.176-.093a8.721,8.721,0,0,0,3.9-5.136.873.873,0,0,0,.2.169l.036.021c.527.286.652-.538.719-1.605A5.662,5.662,0,0,0,4087.643-274.623Zm-1.118.517c0-.025.007-.047.01-.071Z" transform="translate(-4068.767 288.556)" fill="#ffc9b6"/>
        </g>
        <g id="Group_2891" data-name="Group 2891" transform="translate(6.621)">
          <path id="Path_5418" data-name="Path 5418" d="M4085.053-287.533c1.948,3.208,3.03,7.44,2.671,13.017,0,.028-.024.042-.067.046a1.3,1.3,0,0,0-.39-.768c-.2-.113-.4.073-.542.453-.153-.074-.322-.16-.5-.258a18.9,18.9,0,0,1-6.373-5.929,13.293,13.293,0,0,1-3.869-3.068,13.831,13.831,0,0,1-2.3-4.363c-1.252,2.72-2.813,3.85-3.891,3.259a1.244,1.244,0,0,1-.163-.105.826.826,0,0,0-.282-.347.266.266,0,0,0-.08-.028c-.021-.029-.042-.058-.062-.09-.572-5,.455-8.254,2.5-9.2a4.283,4.283,0,0,1,3.827.413,5.1,5.1,0,0,1,2.97.774A17.532,17.532,0,0,1,4085.053-287.533Z" transform="translate(-4069.048 295.199)" fill="#683b32"/>
        </g>
        <path id="Path_5419" data-name="Path 5419" d="M4073.579-288.556s.354,5.246,6.766,10.53a25.656,25.656,0,0,1-.675-6.313Z" transform="translate(-4062.323 295.351)" fill="#683b32"/>
        <path id="Path_5420" data-name="Path 5420" d="M4069.954-281.68c.032.321-.089.6-.27.617s-.356-.225-.389-.547.089-.6.27-.617S4069.921-282,4069.954-281.68Z" transform="translate(-4062.421 295.497)" fill="#f9f9f7"/>
        <path id="Path_5421" data-name="Path 5421" d="M4086.806-271.841c.032.318-.087.592-.265.613s-.35-.221-.382-.539.086-.592.265-.613S4086.774-272.159,4086.806-271.841Z" transform="translate(-4062.033 295.723)" fill="#f9f9f7"/>
        <path id="Path_5422" data-name="Path 5422" d="M4071.349-269.6l.379-.2.088.444A.348.348,0,0,1,4071.349-269.6Z" transform="translate(-4062.374 295.783)" fill="#fff"/>
        <path id="Path_5423" data-name="Path 5423" d="M4071.349-267.744l.379-.2.088.444A.348.348,0,0,1,4071.349-267.744Z" transform="translate(-4062.374 295.825)" fill="#fff"/>
        <path id="Path_5424" data-name="Path 5424" d="M4071.434-265.679l.379-.2.087.444A.348.348,0,0,1,4071.434-265.679Z" transform="translate(-4062.372 295.873)" fill="#fff"/>
        <path id="Path_5425" data-name="Path 5425" d="M4072.033-262.911l.379-.2.087.444A.347.347,0,0,1,4072.033-262.911Z" transform="translate(-4062.358 295.936)" fill="#fff"/>
        <path id="Path_5426" data-name="Path 5426" d="M4072.65-260.755l.379-.2.087.444A.347.347,0,0,1,4072.65-260.755Z" transform="translate(-4062.344 295.986)" fill="#fff"/>
        <path id="Path_5427" data-name="Path 5427" d="M4073.581-258.393l.378-.2.087.444A.346.346,0,0,1,4073.581-258.393Z" transform="translate(-4062.323 296.04)" fill="#fff"/>
        <path id="Path_5428" data-name="Path 5428" d="M4080.873-253.576l.375-.2.086.441A.34.34,0,0,1,4080.873-253.576Z" transform="translate(-4062.155 296.151)" fill="#fff"/>
        <path id="Path_5429" data-name="Path 5429" d="M4082.313-254.738l.375-.2.086.441A.341.341,0,0,1,4082.313-254.738Z" transform="translate(-4062.122 296.124)" fill="#fff"/>
        <path id="Path_5430" data-name="Path 5430" d="M4083.437-255.978l.373-.2.086.441A.34.34,0,0,1,4083.437-255.978Z" transform="translate(-4062.096 296.096)" fill="#fff"/>
        <path id="Path_5431" data-name="Path 5431" d="M4084.558-257.861l.374-.2.086.441A.341.341,0,0,1,4084.558-257.861Z" transform="translate(-4062.07 296.053)" fill="#fff"/>
        <path id="Path_5432" data-name="Path 5432" d="M4084.783-260.225l.374-.2.085.44A.34.34,0,0,1,4084.783-260.225Z" transform="translate(-4062.065 295.998)" fill="#fff"/>
        <path id="Path_5433" data-name="Path 5433" d="M4084.684-262.391l.373-.2.086.441A.34.34,0,0,1,4084.684-262.391Z" transform="translate(-4062.068 295.948)" fill="#fff"/>
      </g>
    </g>
    <g id="Group_2909" data-name="Group 2909" transform="translate(4108.897 -415.927)">
      <g id="Group_2898" data-name="Group 2898" transform="translate(0)">
        <g id="Group_2897" data-name="Group 2897">
          <g id="Group_2894" data-name="Group 2894" transform="translate(8.489 74.525)">
            <path id="Path_5434" data-name="Path 5434" d="M4124.58-335.3l1.759-1.022-11.7-6.756-1.759,1.022Z" transform="translate(-4112.878 343.077)" fill="#e6e6e6"/>
          </g>
          <g id="Group_2896" data-name="Group 2896">
            <g id="Group_2895" data-name="Group 2895" style="isolation: isolate">
              <path id="Path_5435" data-name="Path 5435" d="M4208.043-361.229,4114.8-414.857c-2.168-1.252-4.131-1.368-5.549-.544l-2.4,1.394c1.418-.824,3.381-.707,5.548.544l93.239,53.628c4.308,2.487,7.788,8.513,7.774,13.463l-.054,54.865c-.007,2.458-.875,4.189-2.275,5l2.4-1.4c1.4-.813,2.268-2.543,2.275-5l.054-54.864C4215.831-352.716,4212.351-358.743,4208.043-361.229Z" transform="translate(-4104.527 415.927)" fill="#1166ce"/>
              <path id="Path_5436" data-name="Path 5436" d="M4205.7-359.865l-93.239-53.628c-4.307-2.487-7.809-.491-7.824,4.458l-.053,54.865c-.014,4.949,3.465,10.976,7.773,13.464l.716.413,4.436,12.21,7.153-5.519,11.655,6.728,69.278,39.794c4.308,2.487,7.81.491,7.824-4.458l.054-54.865C4213.483-351.352,4210-357.379,4205.7-359.865Z" transform="translate(-4104.58 415.958)" fill="#3d8ff4"/>
            </g>
          </g>
        </g>
      </g>
      <g id="Group_2902" data-name="Group 2902" transform="translate(11.03 39.681)" style="mix-blend-mode: screen;isolation: isolate">
        <g id="Group_2899" data-name="Group 2899" transform="translate(0.679)">
          <path id="Path_5437" data-name="Path 5437" d="M4188.659-335.851a3.213,3.213,0,0,1,1.457,2.525c0,.928-.66,1.3-1.467.837l-71.165-41.088a3.212,3.212,0,0,1-1.458-2.525c0-.928.66-1.3,1.467-.836Z" transform="translate(-4116.026 377.138)" fill="#fff"/>
        </g>
        <g id="Group_2900" data-name="Group 2900" transform="translate(0 20.504)">
          <path id="Path_5438" data-name="Path 5438" d="M4181.493-319.56a3.211,3.211,0,0,1,1.458,2.525c0,.928-.66,1.3-1.467.836l-64.665-37.333a3.216,3.216,0,0,1-1.458-2.525c0-.931.661-1.3,1.468-.836Z" transform="translate(-4115.361 357.095)" fill="#fff"/>
        </g>
        <g id="Group_2901" data-name="Group 2901" transform="translate(0.029 10.423)">
          <path id="Path_5439" data-name="Path 5439" d="M4201.02-318.157a3.206,3.206,0,0,1,1.457,2.524c0,.928-.66,1.3-1.467.837l-84.162-48.591a3.22,3.22,0,0,1-1.458-2.525c0-.931.66-1.3,1.468-.836Z" transform="translate(-4115.39 366.95)" fill="#fff"/>
        </g>
      </g>
      <g id="Group_2908" data-name="Group 2908" transform="translate(11.709 18.553)">
        <g id="Group_2903" data-name="Group 2903">
          <path id="Path_5440" data-name="Path 5440" d="M4123.158-397.791l2.26,6.3,4.834,3.738-3.437,2.055.693,5.988-4.388-5.038-4.406-.04.729-5.167-3.417-6.012,4.839,1.846Z" transform="translate(-4116.026 397.791)" fill="#f2ecc0"/>
        </g>
        <g id="Group_2904" data-name="Group 2904" transform="translate(18.051 10.422)">
          <path id="Path_5441" data-name="Path 5441" d="M4140.8-387.6l2.265,6.307,4.833,3.738-3.44,2.053.694,5.988-4.388-5.038-4.407-.04.729-5.167-3.418-6.013,4.839,1.846Z" transform="translate(-4133.67 387.603)" fill="#f2ecc0"/>
        </g>
        <g id="Group_2905" data-name="Group 2905" transform="translate(36.104 20.844)">
          <path id="Path_5442" data-name="Path 5442" d="M4158.449-377.416l2.264,6.307,4.834,3.738-3.44,2.053.693,5.988-4.388-5.038-4.4-.038.725-5.169-3.417-6.013,4.839,1.846Z" transform="translate(-4151.318 377.416)" fill="#f2ecc0"/>
        </g>
        <g id="Group_2906" data-name="Group 2906" transform="translate(54.155 31.267)">
          <path id="Path_5443" data-name="Path 5443" d="M4176.095-367.228l2.265,6.307,4.834,3.738-3.44,2.053.7,5.99-4.393-5.04-4.4-.038.725-5.169-3.417-6.013,4.839,1.846Z" transform="translate(-4168.963 367.228)" fill="#f2ecc0"/>
        </g>
        <g id="Group_2907" data-name="Group 2907" transform="translate(72.211 41.689)">
          <path id="Path_5444" data-name="Path 5444" d="M4193.741-357.04l2.264,6.307,4.834,3.738-3.44,2.053.7,5.99-4.392-5.04-4.4-.038.726-5.169-3.415-6.01,4.839,1.846Z" transform="translate(-4186.612 357.04)" fill="#f2ecc0"/>
        </g>
      </g>
    </g>
    <g id="Group_2912" data-name="Group 2912" transform="translate(3916.851 -314.62)">
      <path id="Path_5445" data-name="Path 5445" d="M3968.081-291.158l-43.2-24.942c-3.211-1.855-5.827-.364-5.837,3.327l-.065,22.929a12.79,12.79,0,0,0,5.8,10.046l43.2,24.942c3.211,1.855,5.827.364,5.837-3.327l.065-22.929A12.789,12.789,0,0,0,3968.081-291.158Z" transform="translate(-3916.802 316.898)" fill="#1166ce"/>
      <g id="Group_2911" data-name="Group 2911" transform="translate(0 2.176)">
        <path id="Path_5446" data-name="Path 5446" d="M3965.955-289.031l-43.2-24.942c-3.212-1.855-5.828-.364-5.838,3.327l-.066,22.929a12.793,12.793,0,0,0,5.8,10.046l43.2,24.942c3.212,1.854,5.827.363,5.838-3.327l.064-22.929A12.789,12.789,0,0,0,3965.955-289.031Z" transform="translate(-3916.851 314.771)" fill="#3d8ff4"/>
        <g id="Group_2910" data-name="Group 2910" transform="translate(18.589 14.718)">
          <path id="Path_5447" data-name="Path 5447" d="M3935.088-300.383l8.811,10.947,8.81,10.956-8.844.754-8.844.763.033-11.71Z" transform="translate(-3935.022 300.383)" fill="#fff"/>
        </g>
      </g>
    </g>
  </g>
</svg>
