<svg xmlns="http://www.w3.org/2000/svg" xmlns:xlink="http://www.w3.org/1999/xlink" width="344.094" height="300"><defs><linearGradient id="c" x1=".249" y1=".19" x2="-.337" y2="-.532" gradientUnits="objectBoundingBox"><stop offset="0" stop-color="#fff"/><stop offset="1"/></linearGradient><linearGradient id="a" x1=".528" y1=".552" x2=".072" y2="-.312" gradientUnits="objectBoundingBox"><stop offset="0" stop-color="#fff"/><stop offset=".087" stop-color="#f7f7f7"/><stop offset=".217" stop-color="#e3e3e3"/><stop offset=".375" stop-color="#c1c1c1"/><stop offset=".553" stop-color="#929292"/><stop offset=".75" stop-color="#565656"/><stop offset=".959" stop-color="#0f0f0f"/><stop offset="1"/></linearGradient><linearGradient id="d" x1=".542" y1=".576" x2=".174" y2="-.114" xlink:href="#a"/><linearGradient id="b" x1="1.048" y1="1.107" x2="-.729" y2="-.867" gradientUnits="objectBoundingBox"><stop offset="0" stop-color="#fff"/><stop offset=".09" stop-color="#f2f2f2"/><stop offset=".256" stop-color="#cfcfcf"/><stop offset=".48" stop-color="#979797"/><stop offset=".751" stop-color="#4c4c4c"/><stop offset="1"/></linearGradient><linearGradient id="e" x1=".762" y1=".79" x2="-.474" y2="-.583" xlink:href="#b"/><linearGradient id="f" x1=".729" y1=".659" x2="-.311" y2="-1.073" xlink:href="#b"/></defs><g data-name="Group 945"><path data-name="Path 1458" d="M344.091 190.246c0 1.688-1.1 3.375-3.329 4.666l-3.1 1.8h-.008l-18.657 10.849-23.316 13.851-16.106 9.558-97.416 57.854c-4.456 2.59-11.7 2.59-16.177.008L25.295 208.814l-18.852-10.88-3.057-1.765c-2.255-1.3-3.383-3-3.383-4.713a4.959 4.959 0 012.061-3.78 8.865 8.865 0 011.268-.879l158.606-93.908c4.456-2.6 11.7-2.6 16.184 0l162.6 92.648a10.579 10.579 0 011.283.879 5.036 5.036 0 012.086 3.83z" fill="#dae5ef"/><path data-name="Path 1459" d="M340.761 194.911l-3.1 1.8h-.008l-17.114 9.953-1.546.9-136.837 81.259c-4.45 2.6-11.694 2.6-16.176.008L27.164 209.875l-1.869-1.058L6.44 197.933l-3.055-1.764c-2.252-1.291-3.385-3-3.385-4.706v9.228a4.8 4.8 0 001.7 3.468 8 8 0 001.216.946h.008a5.493 5.493 0 00.465.3l162.6 92.655c4.481 2.589 11.725 2.582 16.176 0l158.6-93.915c.165-.1.323-.2.473-.292a8.638 8.638 0 001.254-.991 5.909 5.909 0 001.088-1.434 4.153 4.153 0 00.518-1.951v-9.229c-.005 1.69-1.115 3.372-3.337 4.663z" fill="#91d1f4"/></g><g data-name="Group 1079"><g data-name="Group 946"><path data-name="Path 1460" d="M-1824.034 546.964l-38.885 22.942 132.312 74.609a12.04 12.04 0 001.064-.54l37.77-22.431z" transform="translate(1911.699 -355.148)" fill="url(#c)" style="mix-blend-mode:multiply;isolation:isolate"/><path data-name="Path 1461" d="M-1756.995 501.766l-39.257 23.161 133.574 75.322a11.843 11.843 0 001.076-.546l38.131-22.645z" transform="translate(1896.879 -345.1)" fill="url(#c)" style="mix-blend-mode:multiply;isolation:isolate"/><path data-name="Path 1462" d="M-1705.728 641.938l69.3-41.155-79.958-45.087-69.532 41.023z" transform="translate(1894.582 -357.089)" fill="url(#a)" style="mix-blend-mode:multiply;isolation:isolate"/><path data-name="Path 1463" d="M-1620.577 612.066l-19.137-10.792a7.87 7.87 0 01.49 3.025c.008-.093.015-.195.015-.288l-.023 6.2v.2a1.657 1.657 0 01-.015.194l-.023.334c-.007.108-.023.2-.039.3a16.89 16.89 0 01-.047.334c-.008.039-.016.078-.023.124s-.031.117-.039.171c-.031.109-.055.218-.086.327s-.054.2-.086.3c-.031.109-.07.218-.109.327-.015.047-.023.086-.039.132s-.047.1-.07.156a3.092 3.092 0 01-.14.334c-.039.1-.085.194-.132.288-.054.109-.109.225-.171.334-.031.054-.054.109-.085.163a1.234 1.234 0 00-.07.109c-.07.132-.156.264-.241.4-.054.078-.1.156-.155.241-.1.14-.21.288-.319.428-.039.054-.07.109-.117.163l-.023.023a7.9 7.9 0 01-.583.677c-.047.062-.109.117-.156.171-.163.171-.334.342-.513.505a1.408 1.408 0 01-.109.109 1.954 1.954 0 00-.132.117c-.109.1-.218.194-.327.288l-.3.257c-.117.085-.233.179-.358.272-.109.086-.218.163-.327.249-.124.093-.257.179-.381.265s-.233.163-.358.241-.272.171-.4.257c-.085.054-.163.109-.249.156s-.179.109-.272.163c-.443.257-.9.5-1.369.731-.14.07-.288.132-.436.2a21.42 21.42 0 01-1.042.459 22.965 22.965 0 01-1.687.63c-.109.039-.218.086-.334.124a.436.436 0 00-.094.031c-.14.047-.288.078-.436.124q-.688.21-1.4.4c-.241.062-.482.109-.723.171-.42.093-.84.187-1.268.264-.109.023-.218.055-.334.07-.249.047-.5.086-.755.124-.155.023-.311.054-.466.078a34.18 34.18 0 01-1.641.2h-.047c-.739.078-1.485.124-2.24.148a1.507 1.507 0 01-.187.016c-.179.008-.35 0-.521 0-.474.016-.949.016-1.415.008-.117 0-.241.008-.358 0-.155 0-.311-.016-.459-.023a34.689 34.689 0 01-1.267-.07c-.156-.008-.319-.008-.475-.023a5.201 5.201 0 01-.35-.039 35.045 35.045 0 01-1.276-.14c-.187-.023-.365-.039-.544-.062-.078-.008-.148-.031-.226-.039a27.51 27.51 0 01-1.594-.28c-.132-.023-.265-.039-.389-.062a.241.241 0 00-.062-.016 37.31 37.31 0 01-2.115-.521c-.055-.016-.117-.023-.171-.039a29.005 29.005 0 01-1.275-.4c-.031-.016-.055-.016-.085-.031a20.16 20.16 0 01-1.338-.49c-.109-.039-.218-.086-.327-.132l-6.517 3.671v.016c0 .031-.008.07-.008.1a1.233 1.233 0 01-.031.179.232.232 0 01-.016.078.1.1 0 01-.008.047.153.153 0 01-.015.062l-.047.2a.112.112 0 00-.016.055.373.373 0 00-.023.054.422.422 0 01-.031.093 1.933 1.933 0 01-.078.187.029.029 0 00-.008.023l-.008.008a2.918 2.918 0 01-.14.264c-.008 0-.008 0-.008.008s-.023.023-.031.039a1.212 1.212 0 01-.148.187c-.016.023-.039.047-.054.07-.047.047-.093.093-.148.14a.438.438 0 01-.062.054 1.641 1.641 0 01-.225.156l-22.787 13.276a1.319 1.319 0 00.132-.086 1.973 1.973 0 01-1.174.342l19.678 11.1z" transform="translate(1876.793 -367.22)" fill="url(#d)" style="mix-blend-mode:multiply;isolation:isolate"/><path data-name="Path 1464" d="M-1587.331 563.83l-16.106 9.558-130.422-74.4 16.573-9.3z" transform="translate(1883.01 -342.415)" fill="url(#b)" style="mix-blend-mode:multiply;isolation:isolate"/><path data-name="Path 1465" d="M-1536.533 564.46l5.972-3.548-42.727-24.378-6.148 3.451z" transform="translate(1848.683 -352.829)" fill="url(#e)" style="mix-blend-mode:multiply;isolation:isolate"/></g><g data-name="Group 1002"><g data-name="Group 948"><path data-name="Path 1466" d="M300.909 100.142l-.288 101.409a4.269 4.269 0 01-.077.811v.022a3.031 3.031 0 01-.214.666v.009a2.254 2.254 0 01-.283.437l-.1.13a1.851 1.851 0 01-.412.34l3.256-1.892a1.875 1.875 0 00.412-.339c.037-.04.07-.086.1-.13a1.913 1.913 0 00.137-.17 2.48 2.48 0 00.142-.257v-.02a2.627 2.627 0 00.197-.586l.017-.082v-.023l.016-.08a3.384 3.384 0 00.046-.361c.006-.061.008-.117.011-.177s0-.12 0-.182v-.01l.288-101.409z" fill="#96bcda"/><g data-name="Group 947"><path data-name="Path 1467" d="M149.466 8.241l-.012 4.459 151.455 87.442-.288 101.409c-.006 2.392-1.7 3.354-3.787 2.151l-143.912-83.087a8.275 8.275 0 01-3.756-6.506z" fill="#cef9f9"/></g></g><g data-name="Group 965"><g data-name="Group 949"><path data-name="Path 1468" d="M273.12 148.952l-.007 2.511-18.684-10.787.007-2.511z" fill="#7bbde9"/></g><g data-name="Group 950"><path data-name="Path 1469" d="M286.684 180.85l-.007 2.511-32.318-18.659.007-2.511z" fill="#7bbde9"/></g><g data-name="Group 951"><path data-name="Path 1470" d="M286.706 173.049l-.007 2.511-32.319-18.659.007-2.511z" fill="#7bbde9"/></g><g data-name="Group 952"><path data-name="Path 1471" d="M273.093 157.557l-.007 2.511-18.684-10.787.007-2.511z" fill="#7bbde9"/></g><g data-name="Group 963"><g data-name="Group 953"><path data-name="Path 1472" d="M285.185 140.498c.253 2.909.412 5.872.519 6.67l-12.729-7.349-1.367-10.177 1.309-1.4 1.317 1.769 1.292-5.215c.11.1.229.2.353.313l.271.247.37.344a47.5 47.5 0 014.252 4.51 22.828 22.828 0 013.517 5.623 10.039 10.039 0 01.7 2.616c.069.661.136 1.351.196 2.049z" fill="#fff"/></g><g data-name="Group 954"><path data-name="Path 1473" d="M290.773 105.591l-.126 44.25-4.966-2.867c-.1-1.006-.256-3.761-.5-6.476-.061-.7-.127-1.392-.2-2.053a10.043 10.043 0 00-.7-2.616 22.684 22.684 0 00-3.518-5.623 47.24 47.24 0 00-4.252-4.511 40.828 40.828 0 00-.641-.591c-.441-.4-.828-.739-1.139-1-.479-.412-.777-.649-.806-.673v-1.058c3.355 1.233 5.145-.249 5.239-.327.022-.194.444-3.869-1.192-12.352-1.318-6.838-4.08-9.871-6.4-11.21a6.776 6.776 0 00-3.807-1.038 5.059 5.059 0 00-.978-.735c-1.285-.743-3.382-1.079-3.383 4.624 0 7.779-1.366 11.025-1.439 11.2a22.8 22.8 0 005.564 6.2v1l-.147-.051a17.67 17.67 0 00-.931-.287c-.338-.1-.74-.2-1.188-.311a20.893 20.893 0 00-2.4-.408 12.25 12.25 0 00-2.237-.051c-1.9.138-3.572.864-4.067 2.823a4.786 4.786 0 00-.1.526c-.375 2.813-.612 6.589-.748 7.7l-3.584-2.069.125-44.249z" fill="#68b6f4"/></g><g data-name="Group 955"><path data-name="Path 1474" d="M268.609 125.749l1.292 2.906-1.471 8.539-12.724-7.346c.126-.839.369-4.895.765-7.867a4.682 4.682 0 01.092-.494c.5-2 2.179-2.724 4.076-2.861a12.31 12.31 0 012.237.05 20.9 20.9 0 012.4.408c.253.062.489.121.709.183l1.247 6.694 1.447-.289z" fill="#fff"/></g><g data-name="Group 962"><g data-name="Group 956"><path data-name="Path 1475" d="M267.54 119.735l2.542 4.383.528.908.133.229-2.066.418-1.447.289-1.247-6.694a18.308 18.308 0 011.411.415z" fill="#a4dae8"/></g><g data-name="Group 957"><path data-name="Path 1476" d="M272.975 139.818l-4.545-2.624 1.47-8.539-1.292-2.905.069-.076 2.065-.412 2.15 2.92.025.056-1.31 1.4z" fill="#18181a"/></g><g data-name="Group 958"><path data-name="Path 1477" d="M273.933 123.437c.031.012.329.25.808.662.225.194.49.425.786.692l-1.292 5.215-1.342-1.825-2.145-2.917z" fill="#a4dae8"/></g><g data-name="Group 959"><path data-name="Path 1478" d="M267.549 116.321a10.345 10.345 0 003.092 2.9l.247.142a4.421 4.421 0 003.053.683l-.006 2.321v1.056l-3.185 1.84-.139-.239-.528-.908-2.536-4.368v-1.019z" fill="#b5d5ff"/></g><g data-name="Group 960"><path data-name="Path 1479" d="M271.584 98.48c2.319 1.339 5.082 4.372 6.4 11.21 1.636 8.483 1.214 12.159 1.192 12.352-.094.078-1.884 1.559-5.239.327l.006-2.321c1.427-.292 2.373-1.622 2.4-3.737.883.257 1.455-1.19 1.458-2.1a2.843 2.843 0 00-1.372-2.576l-.067-.033v-.82a64.377 64.377 0 01-7.861-7.958c-1.618 2.415-3.128 1.614-3.254 1.541l-.01.815-.068-.046c-1-.577-1.379.006-1.381.988a6.338 6.338 0 001.441 3.773 11.638 11.638 0 002.322 6.425l-.007 2.41a22.792 22.792 0 01-5.564-6.2c.072-.171 1.439-3.417 1.439-11.2 0-5.7 2.1-5.367 3.383-4.624a5.064 5.064 0 01.978.735 6.776 6.776 0 013.804 1.039z" fill="#799bd1"/></g><g data-name="Group 961"><path data-name="Path 1480" d="M268.499 102.824a64.384 64.384 0 007.861 7.958v.82l.067.033a2.842 2.842 0 011.372 2.576c0 .91-.575 2.357-1.458 2.1-.023 2.115-.969 3.444-2.4 3.737a4.421 4.421 0 01-3.053-.683l-.247-.142a10.346 10.346 0 01-3.092-2.9 11.638 11.638 0 01-2.322-6.425 6.338 6.338 0 01-1.441-3.773c0-.981.381-1.565 1.381-.988l.068.046v-.82c.136.075 1.646.876 3.264-1.539z" fill="#b5d5ff"/></g></g></g><g data-name="Group 964"><path data-name="Path 1481" d="M277.759 151.36l9.134 5.274-.033 11.658-9.134-5.274z" fill="#6b9bde"/><path data-name="Path 1482" d="M285.438 163.644l-1.769-3.065 1.781-1.015-1.053-1.823-1.781 1.015-1.769-3.065-1.065.6 1.769 3.065-1.781 1.015 1.058 1.833 1.781-1.015 1.769 3.065 1.06-.61" fill="#fff"/></g></g><g data-name="Group 984"><g data-name="Group 970" style="isolation:isolate"><g data-name="Group 966"><path data-name="Path 1483" d="M192.049 126.212l-.008 2.511-32.318-18.659.007-2.511z" fill="#7bbde9"/></g><g data-name="Group 967"><path data-name="Path 1484" d="M192.071 118.416l-.007 2.511-32.319-18.659.007-2.511z" fill="#7bbde9"/></g><g data-name="Group 968"><path data-name="Path 1485" d="M183.124 96.723l9.134 5.274-.033 11.658-9.134-5.274z" fill="#8eccf9"/></g><g data-name="Group 969"><path data-name="Path 1486" d="M189.766 103.698l1.058 1.827-4 2.28-2.548-4.406 1.059-.61 1.5 2.583z" fill="#fff"/></g></g><g data-name="Group 971"><path data-name="Path 1487" d="M178.463 102.923l-.007 2.511-18.69-10.791.007-2.511z" fill="#7bbde9"/></g><g data-name="Group 972"><path data-name="Path 1488" d="M178.488 94.317l-.007 2.511-18.69-10.791.007-2.511z" fill="#7bbde9"/></g><g data-name="Group 983"><path data-name="Path 1489" d="M158.876 29.44l-.125 44.25 38.509 22.233.125-44.25z" fill="#68b6f4"/><g data-name="Group 982"><g data-name="Group 973"><path data-name="Path 1490" d="M177.579 72.701l1.971 2.777-.714 1.418-2.562-1.479-.7-2.21z" fill="#18181a"/></g><g data-name="Group 974"><path data-name="Path 1491" d="M183.461 58.886A2.694 2.694 0 01184.528 60a3.358 3.358 0 01.349 1.546c0 .946-.594 2.448-1.5 2.185v-.058l.013-4.827z" fill="#a2bcff"/></g><g data-name="Group 975"><path data-name="Path 1492" d="M180.877 71.115c0-.012.011 0 .03.011.126.1.572.462 1.222 1.029a17.99 17.99 0 01-1.4 4.976l-1.176-1.656-1.971-2.777z" fill="#a4dae8"/></g><g data-name="Group 976"><path data-name="Path 1493" d="M192.325 86.646c.252 2.267.436 4.9.566 6.78l-12.96-7.483-1.094-9.049.714-1.419 1.176 1.656a17.971 17.971 0 001.4-4.974c2.843 2.481 9.579 8.905 10.198 14.489z" fill="#fff"/></g><g data-name="Group 977"><path data-name="Path 1494" d="M177.592 45.082a15.823 15.823 0 013.262 2.556 25.193 25.193 0 011.464 1.583c1.306 1.369 2.415 5.442 2.63 7.266a9.585 9.585 0 01-.42 3.514 2.7 2.7 0 00-1.067-1.114l-.073-.04v-.819a6.907 6.907 0 00-.488-2.664 18.929 18.929 0 01-5.255-1.993 16.19 16.19 0 01-3.879-3.28 7.257 7.257 0 01-1.895 1.279v.828l-.073-.044c-.573-.331-.949-.293-1.172-.023a14.566 14.566 0 01-.437-4.164c.224-1.571 1.352-4.354 2.662-4.211a8.136 8.136 0 011.474.114 9.4 9.4 0 013.267 1.212z" fill="#799bd1"/></g><g data-name="Group 978"><path data-name="Path 1495" d="M178.836 76.893l1.094 9.05-4.792-2.767 1.136-7.762z" fill="#18181a"/></g><g data-name="Group 979"><path data-name="Path 1496" d="M174.26 67.281l3.318 5.41-2 .513-1.148.29a40.474 40.474 0 01-1.371-6.589c.74.207 1.178.368 1.201.376z" fill="#a4dae8"/></g><g data-name="Group 980"><path data-name="Path 1497" d="M175.576 73.204l.7 2.21-1.135 7.762-12.949-7.476c.146-1.72.338-4.137.6-6.1.651-4.88 7.456-3.484 10.266-2.69a40.446 40.446 0 001.371 6.59z" fill="#fff"/></g><path data-name="Path 1498" d="M171.87 52.962l-.012 4.06v.059a12.057 12.057 0 002.412 6.666l-.01 3.545 3.322 5.4 3.3-1.6.01-3.5c1.483-.3 2.463-1.678 2.487-3.873v-.058l.013-4.827v-.819h.006a6.875 6.875 0 00-.494-2.664 18.93 18.93 0 01-5.255-1.993 16.194 16.194 0 01-3.879-3.28 7.259 7.259 0 01-1.895 1.279v1.594m5.768 3.957l-.31-.062.31.062.309.295z" fill="#b5d5ff"/><g data-name="Group 981"><path data-name="Path 1499" d="M171.8 52.153l.072.044-.013 4.826v.059a6.594 6.594 0 01-1.492-3.913 1.682 1.682 0 01.261-1.04c.218-.269.598-.306 1.172.024z" fill="#a2bcff"/></g></g></g></g><g data-name="Group 997"><g data-name="Group 985"><path data-name="Path 1500" d="M238.859 153.239l-.007 2.511-32.318-18.659.007-2.511z" fill="#7bbde9"/></g><g data-name="Group 986"><path data-name="Path 1501" d="M238.883 145.44l-.007 2.511-32.318-18.659.007-2.511z" fill="#7bbde9"/></g><g data-name="Group 987"><path data-name="Path 1502" d="M225.275 129.95l-.007 2.511-18.69-10.791.007-2.511z" fill="#7bbde9"/></g><g data-name="Group 988"><path data-name="Path 1503" d="M225.3 121.344l-.007 2.511-18.69-10.791.007-2.511z" fill="#7bbde9"/></g><g data-name="Group 995"><g data-name="Group 994"><g data-name="Group 989"><path data-name="Path 1504" d="M225.662 72.737c3.3 1.907 6 6.785 5.984 10.845a18.78 18.78 0 00.782 5.69c.853 2.945 1.853 9.952-2.056 10.238-.088-.085-.127-.12-.166-.156l-.253-.236a39.35 39.35 0 00-2.217-1.92l.01-3.376c1.429-.292 2.376-1.623 2.4-3.744.883.257 1.455-1.19 1.457-2.1a2.83 2.83 0 00-1.371-2.57l-.068-.032v-.82a21.477 21.477 0 01-5.468-6.376c-2.418 1.429-5.488.032-5.649-.042v.82l-.073-.048c-1-.578-1.378 0-1.381.981a6.349 6.349 0 001.441 3.773 11.65 11.65 0 002.328 6.438l-.01 3.41a20.821 20.821 0 00-2.266-.649c-.1-.029-.2-.047-.3-.069a12.978 12.978 0 01-1.945-12.521 12.143 12.143 0 00.807-4.771c.012-4.06 2.723-5.819 6.027-3.911z" fill="#799bd1"/></g><g data-name="Group 990"><path data-name="Path 1505" d="M239.444 120.279c.024.288.045.514.065.664l-30-17.32c.019-.127.042-.327.067-.588.14-1.454.362-4.759.7-7.285.316-2.352 2.113-3.2 4.168-3.355a15.383 15.383 0 014.3.393l-.583 3.178 2.2 1.268-.838 1.7 4.985 8.025 5.014-2.252-.83-2.658 2.2 1.271-.569-3.85a47.949 47.949 0 014.252 4.509c2.086 2.556 3.906 5.494 4.214 8.239.322 2.901.524 6.45.655 8.061z" fill="#fff"/></g><g data-name="Group 991"><path data-name="Path 1506" d="M224.696 78.181a21.483 21.483 0 005.468 6.376v.82l.068.032a2.83 2.83 0 011.371 2.57c0 .91-.575 2.357-1.457 2.1-.02 2.121-.968 3.452-2.4 3.744a4.426 4.426 0 01-3.054-.683l-.241-.14a10.336 10.336 0 01-3.092-2.9 11.649 11.649 0 01-2.328-6.438 6.349 6.349 0 01-1.441-3.773c0-.981.382-1.559 1.381-.981l.073.048v-.82c.164.077 3.234 1.474 5.652.045z" fill="#b5d5ff"/></g><g data-name="Group 992"><path data-name="Path 1507" d="M221.359 90.102a10.338 10.338 0 003.093 2.9l.241.14a4.425 4.425 0 003.054.683l-.01 3.376-3.206 9.677-3.181-13.352z" fill="#b5d5ff"/></g><g data-name="Group 993"><path data-name="Path 1508" d="M227.736 97.213c.046.023.916.709 2.217 1.907.082.079.167.156.253.236l.117.107.57 3.853-2.2-1.272.831 2.658-5.014 2.252-4.985-8.025.838-1.7-2.2-1.268.583-3.178a.172.172 0 01.04.006c.1.022.2.04.3.069a20.827 20.827 0 012.266.649l3.181 13.365z" fill="#a4dae8"/></g></g><path data-name="Path 1509" d="M243.574 78.342l-.126 44.25-4-2.311c-.131-1.611-.333-5.16-.654-8.066-.307-2.745-2.127-5.684-4.213-8.239a47.6 47.6 0 00-4.2-4.463c3.909-.286 2.909-7.293 2.056-10.238a18.78 18.78 0 01-.782-5.69c.012-4.06-2.681-8.938-5.984-10.845l-1.989-1.148c-3.3-1.908-6.015-.149-6.026 3.911a12.155 12.155 0 01-.807 4.771 12.977 12.977 0 001.945 12.521 15.578 15.578 0 00-4.343-.4c-2.055.159-3.852 1-4.168 3.355-.337 2.526-.558 5.83-.7 7.285l-4.638-2.678.126-44.25z" fill="#4cadd2"/></g><path data-name="Path 1510" d="M229.935 123.75l-.033 11.658 9.134 5.274.033-11.658z" fill="#8eccf9"/><g data-name="Group 996"><path data-name="Path 1511" d="M236.87 130.895l1.058 1.827-4.007 2.277-2.548-4.406 1.065-.607 1.489 2.58z" fill="#fff"/></g></g><g data-name="Group 1001"><path data-name="Path 1512" d="M304.174 93.388c0-.143-.011-.288-.02-.432 0-.066-.011-.132-.015-.2 0-.029-.005-.058-.007-.086 0-.05-.007-.1-.012-.15a13.389 13.389 0 00-.113-.888V91.6q-.034-.21-.073-.42-.044-.233-.095-.467c-.012-.056-.026-.111-.039-.167l-.022-.1-.047-.2c-.04-.159-.081-.317-.125-.475-.032-.117-.067-.233-.1-.349l-.018-.062-.018-.062c-.047-.154-.1-.309-.148-.463s-.1-.3-.16-.456l-.032-.085-.025-.069c-.036-.095-.07-.19-.108-.285q-.085-.218-.175-.435l-.134-.313-.023-.054-.026-.06a12.02 12.02 0 00-.2-.432 20.62 20.62 0 00-.23-.473c-.012-.024-.025-.047-.036-.072s-.032-.061-.048-.093c-.064-.125-.127-.25-.193-.373-.083-.156-.171-.308-.258-.461-.044-.078-.085-.155-.13-.233-.018-.031-.034-.063-.052-.093-.079-.135-.166-.263-.248-.4-.119-.191-.235-.383-.359-.571-.02-.03-.037-.062-.057-.092-.182-.272-.37-.54-.564-.8q-.2-.265-.4-.523c-.109-.138-.22-.275-.332-.41l-.009-.012v-.005q-.172-.205-.346-.405a18.393 18.393 0 00-.349-.386l-.057-.06-.062-.065a15.158 15.158 0 00-.248-.259q-.187-.19-.377-.373l-.117-.109-.089-.082c-.062-.058-.124-.118-.187-.175q-.2-.177-.4-.347c-.058-.049-.117-.1-.176-.144l-.089-.073c-.044-.036-.088-.073-.133-.108l-.392-.3a6.435 6.435 0 00-.286-.2l-.053-.037-.05-.036a11.869 11.869 0 00-.759-.483l-.088-.051L161.711 1.234q-.143-.083-.285-.159-.183-.1-.366-.19c-.079-.04-.157-.075-.236-.112l-.056-.026-.069-.033c-.12-.054-.24-.1-.358-.152s-.242-.093-.361-.135l-.062-.02-.053-.018c-.081-.027-.163-.055-.243-.079a5.784 5.784 0 00-.369-.1c-.059-.015-.118-.026-.177-.04L159 .154l-.114-.026a7.078 7.078 0 00-.391-.065c-.08-.011-.159-.016-.237-.024l-.082-.009c-.026 0-.053-.006-.079-.008a5.422 5.422 0 00-.42-.014c-.062 0-.12.006-.181.009l-.139.007c-.047 0-.1 0-.143.006a4.792 4.792 0 00-.516.075h-.01c-.038.008-.073.022-.11.03a4.7 4.7 0 00-.506.139c-.013 0-.025.013-.038.018a4.226 4.226 0 00-.686.317L152.093 2.5a4.283 4.283 0 01.686-.317 4.326 4.326 0 01.544-.157c.037-.009.072-.023.11-.03a4.892 4.892 0 01.669-.085c.047 0 .094 0 .14-.006a5.542 5.542 0 01.68.013l.082.008a6.582 6.582 0 01.742.114l.076.017a7.919 7.919 0 01.789.22l.054.018q.418.144.85.341l.056.027c.292.135.587.287.887.46l133.555 77.108q.454.262.9.57l.052.037q.412.288.812.612l.09.073q.387.317.761.666l.088.082q.379.357.743.743l.061.064q.389.414.757.858l.007.009q.377.455.731.935c.215.292.421.591.622.9.124.187.241.381.36.573.1.162.2.321.3.485.045.078.087.157.131.236.156.275.307.551.451.831l.049.095q.258.512.488 1.036l.023.054q.223.513.416 1.032l.026.07q.2.531.358 1.065l.018.063q.155.514.275 1.028c.008.033.016.065.022.1.081.352.151.7.207 1.054v.018a13.084 13.084 0 01.134 1.137c.027.349.043.694.041 1.035l-.012 4.459 3.255-1.891.012-4.459c-.017-.143-.017-.278-.017-.413z" fill="#2b4674"/><g data-name="Group 1000"><g data-name="Group 998"><path data-name="Path 1513" d="M291.998 80.226c4.942 2.853 8.94 9.778 8.923 15.457l-.012 4.459L149.454 12.7l.012-4.459c.017-5.68 4.034-7.976 8.977-5.122z" fill="#2a476b"/></g><g data-name="Group 999"><path data-name="Path 1514" d="M269.719 71.447a6.613 6.613 0 013 5.194c-.005 1.9-1.358 2.675-3.019 1.716a6.612 6.612 0 01-3-5.188c.01-1.908 1.362-2.679 3.019-1.722z" fill="#2090d3"/><path data-name="Path 1515" d="M279.19 76.912a6.612 6.612 0 013 5.194c-.005 1.9-1.358 2.675-3.019 1.716a6.61 6.61 0 01-2.995-5.188c.005-1.905 1.357-2.676 3.014-1.722z" fill="#9cb7ff"/><path data-name="Path 1516" d="M288.803 82.465a6.613 6.613 0 012.995 5.193c-.005 1.9-1.357 2.675-3.015 1.718a6.611 6.611 0 01-3-5.19c.006-1.909 1.359-2.68 3.02-1.721z" fill="#6b9bde"/></g></g></g></g><g data-name="Group 1030"><g data-name="Group 1011"><g data-name="Group 1005"><g data-name="Group 1004"><path data-name="Path 1517" d="M91.569 132.623a.733.733 0 01.185-.068.011.011 0 00.009 0 .76.76 0 01.207-.009.04.04 0 01.019 0 1.056 1.056 0 01.21.044.4.4 0 00.043.016 1.488 1.488 0 01.238.11l14.986 8.65 1.25-.726 1.914-1.112 1.251-.727-14.982-8.65a1.82 1.82 0 00-.182-.091l-.056-.019c-.017-.006-.032-.009-.044-.016s-.034-.012-.05-.016a.759.759 0 00-.113-.025.243.243 0 00-.047 0 .039.039 0 00-.019 0h-.116l-.075.009h-.025l-.047.009c-.021.009-.047.016-.069.026a.566.566 0 00-.062.031h-.007z" fill="#648fc6"/><path data-name="Path 1518" d="M107.647 141.456a1.5 1.5 0 01-.181-.089l4.417-2.566a1.519 1.519 0 00.232.107l.044.015a1 1 0 00.208.047h.02a.773.773 0 00.208-.009h.008a.633.633 0 00.19-.071l-4.416 2.566h-.007a.538.538 0 01-.064.031.71.71 0 01-.067.024l-.052.012h-.019c-.026 0-.052.007-.077.009a.6.6 0 01-.085 0h-.096a1.021 1.021 0 01-.114-.024c-.017 0-.036-.012-.054-.019l-.044-.015-.051-.018z" fill="#74a4ff"/><path data-name="Path 1519" d="M112.488 137.909a1 1 0 00-.209-.047h-.019a.748.748 0 00-.209.009h-.009a.619.619 0 00-.19.072l4.416-2.566h.007a.607.607 0 01.065-.032.616.616 0 01.068-.024l.051-.012h.021a.626.626 0 01.078-.009h.182a.868.868 0 01.113.024c.017 0 .035.012.052.018l.044.015c.018.007.035.011.052.018a1.594 1.594 0 01.18.089l8.624 4.979-4.417 2.566-8.624-4.979a1.5 1.5 0 00-.232-.107z" fill="#648fc6"/><path data-name="Path 1520" d="M122.599 168.477l.066-23.255a1.98 1.98 0 00-.024-.293c0-.016-.005-.031-.008-.047a2.661 2.661 0 00-.064-.279l-.008-.026a2.884 2.884 0 00-.112-.3v-.006a3.2 3.2 0 00-.151-.3v-.008a3.122 3.122 0 00-.179-.274l-.018-.024a3.14 3.14 0 00-.229-.27c-.052-.054-.107-.1-.161-.151-.025-.022-.049-.045-.075-.065a1.9 1.9 0 00-.24-.166l4.417-2.566a1.893 1.893 0 01.24.166c.026.02.049.044.074.065s.077.064.114.1l.047.051.043.045.05.053q.053.061.1.126l.034.046.017.024.034.046a2.642 2.642 0 01.14.218v.017a2.08 2.08 0 01.106.2l.046.1v.012q.025.057.046.114c.016.04.031.081.044.121l.018.06.009.026c0 .014.009.029.013.044.013.049.026.1.036.147l.015.089.008.046.007.043a1.833 1.833 0 01.017.251l-.066 23.255a.9.9 0 01-.374.819l-4.416 2.566a.893.893 0 00.384-.82z" fill="#74a4ff"/><path data-name="Path 1521" d="M112.279 137.862h-.019a.093.093 0 01.041 0z" fill="#96bcda"/><g data-name="Group 1003"><path data-name="Path 1522" d="M112.765 138.033a.83.83 0 00-1.044.014l-3.211 3.3a.824.824 0 01-1.045.016l-14.985-8.651c-.708-.409-1.282-.082-1.284.732l-.048 16.872a2.81 2.81 0 001.276 2.208l28.889 16.68c.706.407 1.282.082 1.285-.73l.066-23.255a2.813 2.813 0 00-1.276-2.21z" fill="#9cb7ff"/></g></g></g><g data-name="Group 1010"><g data-name="Group 1006"><path data-name="Path 1523" d="M116.601 150.906v-.722c.307-.063.511-.348.516-.8.188.056.31-.256.31-.451a.689.689 0 00-.073-.318 1.994 1.994 0 00.089-.728 3.548 3.548 0 00-.544-1.5 5.523 5.523 0 00-.3-.327 3.236 3.236 0 00-.675-.529 1.948 1.948 0 00-.675-.251 1.668 1.668 0 00-.306-.023c-.269-.029-.5.546-.549.872a3 3 0 00.09.861.341.341 0 00-.054.214 1.368 1.368 0 00.309.81 2.512 2.512 0 00.5 1.379v.729s-.095-.034-.249-.077c-.58-.164-1.988-.453-2.123.557-.054.405-.093.9-.123 1.256l-.711-.41.023-8.2a.55.55 0 01.826-.475l6.33 3.656a1.611 1.611 0 01.807 1.4l-.022 8.218-.9-.523c-.027-.388-.064-.931-.117-1.4-.127-1.155-1.521-2.482-2.108-3-.134-.117-.228-.191-.252-.214h-.007" fill="#fff"/></g><g data-name="Group 1007"><path data-name="Path 1526" d="M119.948 159.081l-8.672-5.006v.531l8.672 5.006z" fill="#fff"/></g><g data-name="Group 1008"><path data-name="Path 1527" d="M119.947 161.629l-5.639-3.255v.531l5.637 3.255z" fill="#fff"/></g><g data-name="Group 1009"><path data-name="Path 1528" d="M119.947 164.041l-5.639-3.256v.531l5.637 3.255z" fill="#fff"/></g></g></g><g data-name="Group 1020"><g data-name="Group 1014"><g data-name="Group 1013"><path data-name="Path 1529" d="M81.852 138.56a.739.739 0 01.185-.069.011.011 0 00.009 0 .756.756 0 01.207-.009.039.039 0 01.019 0 1.009 1.009 0 01.21.044.393.393 0 00.044.016 1.375 1.375 0 01.238.11l14.986 8.65 1.25-.727 1.915-1.112 1.25-.727-14.983-8.65a2.374 2.374 0 00-.182-.091l-.056-.019c-.015-.006-.032-.009-.044-.016s-.034-.012-.05-.016a.74.74 0 00-.113-.025.243.243 0 00-.047 0 .039.039 0 00-.019 0h-.116l-.075.009h-.025l-.047.009-.069.025a.541.541 0 00-.062.031h-.007z" fill="#648fc6"/><path data-name="Path 1530" d="M97.929 147.393a1.534 1.534 0 01-.18-.089l4.416-2.566a1.5 1.5 0 00.232.107l.044.016a1.119 1.119 0 00.208.047h.019a.766.766 0 00.208-.009h.008a.594.594 0 00.19-.071l-4.416 2.567h-.007a.667.667 0 01-.064.031.509.509 0 01-.067.023c-.017.006-.035.009-.052.012h-.02a.636.636 0 01-.077.009h-.181a1.201 1.201 0 01-.113-.024l-.054-.019-.044-.016c-.016-.007-.032-.011-.05-.018z" fill="#74a4ff"/><path data-name="Path 1531" d="M102.771 143.847a1.052 1.052 0 00-.208-.046h-.019a.809.809 0 00-.209.009h-.009a.618.618 0 00-.19.072l4.412-2.57h.007a.654.654 0 01.065-.031.678.678 0 01.068-.024l.051-.012h.021a.618.618 0 01.078-.009.768.768 0 01.085 0h.097a1 1 0 01.113.024c.017 0 .035.013.052.018l.044.016c.018.006.035.01.052.018a1.482 1.482 0 01.18.089l8.624 4.979-4.417 2.566-8.624-4.979a1.485 1.485 0 00-.232-.107z" fill="#648fc6"/><path data-name="Path 1532" d="M112.882 174.414l.066-23.256a1.989 1.989 0 00-.024-.293l-.008-.047a2.382 2.382 0 00-.064-.279l-.008-.026a2.775 2.775 0 00-.112-.3v-.005a3.187 3.187 0 00-.152-.3v-.008a3.128 3.128 0 00-.179-.273l-.018-.025a2.918 2.918 0 00-.187-.224l-.043-.046c-.052-.054-.107-.1-.161-.15-.025-.022-.049-.045-.075-.065a2.041 2.041 0 00-.24-.167l4.417-2.566a1.95 1.95 0 01.24.167c.026.02.05.044.074.065s.077.063.114.1l.047.051.043.046.05.052c.036.041.07.083.1.127a.78.78 0 01.034.046l.017.023.034.046c.026.037.05.073.074.111s.045.071.066.108v.017a2.08 2.08 0 01.105.2l.046.1v.012l.047.115.044.121.019.061.008.026c0 .015.009.03.013.044.014.049.026.1.036.147l.016.088.008.047a.95.95 0 01.007.043 1.812 1.812 0 01.017.25l-.066 23.255a.893.893 0 01-.373.819l-4.416 2.566a.891.891 0 00.384-.823z" fill="#74a4ff"/><path data-name="Path 1533" d="M102.562 143.799h-.02a.091.091 0 01.041 0z" fill="#96bcda"/><g data-name="Group 1012"><path data-name="Path 1534" d="M103.047 143.969a.829.829 0 00-1.044.015l-3.211 3.3a.823.823 0 01-1.044.017l-14.986-8.652c-.707-.409-1.282-.082-1.284.732l-.048 16.872a2.81 2.81 0 001.276 2.208l28.89 16.68c.706.408 1.282.082 1.285-.73l.066-23.256a2.813 2.813 0 00-1.276-2.21z" fill="#9cb7ff"/></g></g></g><g data-name="Group 1019"><g data-name="Group 1015"><path data-name="Path 1535" d="M110.23 165.018l-8.672-5.006v.53l8.672 5.006z" fill="#fff"/></g><g data-name="Group 1016"><path data-name="Path 1536" d="M110.23 167.566l-5.639-3.255v.531l5.637 3.255z" fill="#fff"/></g><g data-name="Group 1017"><path data-name="Path 1537" d="M110.23 169.979l-5.639-3.256v.531l5.637 3.255z" fill="#fff"/></g><g data-name="Group 1018"><path data-name="Path 1538" d="M110.254 153.579l-.024 8.61-1.048-.6c-.021-.212-.053-.793-.1-1.366a22.71 22.71 0 00-.042-.432 2.136 2.136 0 00-.147-.552 4.813 4.813 0 00-.741-1.185 10.007 10.007 0 00-.9-.95l-.078-.073-.057-.052a8.99 8.99 0 00-.24-.212c-.1-.087-.164-.137-.17-.142v-.223a1.108 1.108 0 001.1-.069 9.457 9.457 0 00-.251-2.6 3.216 3.216 0 00-1.349-2.363 1.433 1.433 0 00-.8-.219 1.082 1.082 0 00-.206-.155c-.271-.156-.714-.228-.714.974a6.491 6.491 0 01-.3 2.36 4.824 4.824 0 001.173 1.308v.211l-.031-.011c-.037-.012-.106-.035-.2-.061a5.75 5.75 0 00-.25-.065 4.393 4.393 0 00-.506-.086 2.571 2.571 0 00-.471-.01.84.84 0 00-.857.595.941.941 0 00-.022.11c-.079.593-.129 1.389-.157 1.624l-.756-.436.024-8.368a.555.555 0 01.834-.48l6.664 3.847a1.24 1.24 0 01.622 1.071z" fill="#fff"/></g></g></g><g data-name="Group 1029"><g data-name="Group 1023"><g data-name="Group 1022"><path data-name="Path 1539" d="M71.271 144.558a.716.716 0 01.185-.069.012.012 0 00.009 0 .728.728 0 01.207-.01.039.039 0 01.019 0 1.116 1.116 0 01.21.044.382.382 0 00.044.016 1.433 1.433 0 01.238.11l14.986 8.65 1.25-.726 1.914-1.113 1.25-.726-14.983-8.65a1.818 1.818 0 00-.182-.091l-.056-.019c-.016-.006-.032-.009-.044-.016s-.034-.013-.05-.016a.763.763 0 00-.113-.025.241.241 0 00-.047 0 .04.04 0 00-.019 0h-.116l-.075.009h-.025l-.047.009-.069.025a.7.7 0 00-.063.032h-.006z" fill="#648fc6"/><path data-name="Path 1540" d="M87.348 153.395a1.5 1.5 0 01-.181-.089l4.417-2.566a1.418 1.418 0 00.232.107l.045.016a1.065 1.065 0 00.208.047h.02a.771.771 0 00.208-.009h.008a.64.64 0 00.19-.071l-4.416 2.566h-.007a.654.654 0 01-.064.031.48.48 0 01-.068.023.5.5 0 01-.052.012h-.019c-.026 0-.051.007-.077.009a.77.77 0 01-.085 0h-.097a1.1 1.1 0 01-.114-.024c-.017 0-.036-.012-.053-.019s-.03-.009-.045-.016-.033-.017-.05-.017z" fill="#74a4ff"/><path data-name="Path 1541" d="M92.191 149.845a1.014 1.014 0 00-.208-.047h-.019a.742.742 0 00-.209.009h-.008a.632.632 0 00-.192.072l4.417-2.566h.007a.56.56 0 01.064-.032.803.803 0 01.069-.024l.051-.012h.021a.659.659 0 01.078-.009.753.753 0 01.085 0h.097a1.064 1.064 0 01.114.025c.017 0 .035.012.052.017l.044.016c.018.006.035.011.052.018a1.628 1.628 0 01.18.089l8.624 4.98-4.417 2.566-8.624-4.979a1.437 1.437 0 00-.232-.107z" fill="#648fc6"/><path data-name="Path 1542" d="M102.301 180.412l.066-23.255a2 2 0 00-.024-.294c0-.015-.005-.03-.008-.046a2.6 2.6 0 00-.065-.279l-.008-.026a2.829 2.829 0 00-.111-.3v-.005a3.167 3.167 0 00-.152-.3v-.007a3.144 3.144 0 00-.179-.274l-.018-.024a2.935 2.935 0 00-.187-.225l-.043-.046c-.052-.054-.106-.1-.161-.15-.025-.022-.049-.045-.075-.065a1.93 1.93 0 00-.24-.166l4.417-2.566a2 2 0 01.24.166c.026.02.049.044.074.065s.077.063.114.1l.047.051.043.046.05.052a1.507 1.507 0 01.134.173l.017.024.034.046a4.221 4.221 0 01.14.218v.017l.051.091c.017.031.038.072.055.109s.031.065.045.1v.011l.047.115c.015.038.029.08.043.121l.018.061.009.026c0 .015.009.03.013.044.013.049.026.1.036.147l.015.088.008.047c.003.016.006.029.007.043a1.691 1.691 0 01.017.251l-.065 23.255a.9.9 0 01-.373.819l-4.417 2.567a.9.9 0 00.386-.825z" fill="#74a4ff"/><path data-name="Path 1543" d="M91.981 149.797h-.019a.093.093 0 01.041 0z" fill="#96bcda"/><g data-name="Group 1021"><path data-name="Path 1544" d="M92.466 149.968a.83.83 0 00-1.044.014l-3.211 3.3a.825.825 0 01-1.045.016l-14.985-8.652c-.708-.408-1.281-.082-1.284.733l-.048 16.872a2.809 2.809 0 001.276 2.208l28.89 16.679c.706.408 1.283.082 1.285-.729l.066-23.255a2.811 2.811 0 00-1.276-2.21z" fill="#9cb7ff"/></g></g></g><g data-name="Group 1028"><g data-name="Group 1024"><path data-name="Path 1545" d="M99.649 171.016l-8.672-5.006v.531l8.672 5.006z" fill="#fff"/></g><g data-name="Group 1025"><path data-name="Path 1546" d="M99.649 173.564l-5.639-3.255v.531l5.637 3.255z" fill="#fff"/></g><g data-name="Group 1026"><path data-name="Path 1547" d="M99.649 175.977l-5.639-3.256v.531l5.637 3.255z" fill="#fff"/></g><g data-name="Group 1027"><path data-name="Path 1548" d="M99.679 159.577l-.025 8.61-1.047-.6c-.021-.212-.054-.793-.1-1.366a22.71 22.71 0 00-.042-.432 2.115 2.115 0 00-.147-.551 4.792 4.792 0 00-.742-1.186 10 10 0 00-.9-.95l-.079-.072-.057-.052a7.498 7.498 0 00-.24-.212c-.1-.087-.163-.137-.169-.142v-.227a1.107 1.107 0 001.1-.068 9.438 9.438 0 00-.251-2.6 3.215 3.215 0 00-1.349-2.363 1.435 1.435 0 00-.8-.219 1.135 1.135 0 00-.206-.155c-.271-.156-.713-.228-.713.975a6.518 6.518 0 01-.3 2.36 4.793 4.793 0 001.173 1.308v.212l-.03-.011c-.037-.012-.106-.035-.2-.061a5.75 5.75 0 00-.25-.065 4.289 4.289 0 00-.506-.086 2.521 2.521 0 00-.471-.011.841.841 0 00-.858.595 1.034 1.034 0 00-.021.11c-.08.593-.129 1.389-.158 1.624l-.755-.436.023-8.368a.556.556 0 01.834-.48l6.664 3.847a1.242 1.242 0 01.622 1.072z" fill="#fff"/></g></g></g></g><g data-name="Group 1040"><g data-name="Group 1037"><path data-name="Path 1549" d="M232.735 236.412a6.124 6.124 0 00-.29-1.59c-.052-.156-.13-.307-.195-.461a8.1 8.1 0 00-1.5-2.343 13.033 13.033 0 00-3.159-2.476 17.754 17.754 0 00-1.287-.672c-.148-.07-.3-.131-.454-.2-.262-.117-.52-.238-.79-.345-.046-.018-.095-.034-.141-.051-.1-.039-.2-.074-.306-.111q-.524-.195-1.066-.365c-.124-.039-.246-.078-.37-.115-.083-.025-.164-.053-.248-.077-.147-.042-.3-.071-.449-.11-.361-.1-.723-.187-1.092-.268-.1-.022-.191-.051-.29-.072-.144-.03-.292-.048-.436-.076a26.17 26.17 0 00-.93-.162c-.125-.019-.247-.047-.373-.065s-.276-.029-.412-.046q-.437-.056-.876-.1c-.14-.013-.278-.035-.418-.047s-.262-.012-.393-.021q-.443-.03-.889-.047c-.149-.006-.3-.02-.446-.024h-1.798c-.095 0-.188.015-.283.019-.4.017-.791.046-1.185.079-.159.013-.32.016-.478.031-.049.005-.1.016-.146.021q-1.009.1-1.995.278l-.1.013c-.191.035-.376.083-.566.121-.325.066-.65.13-.969.207-.233.057-.459.124-.69.186-.3.082-.607.165-.9.258-.064.019-.131.034-.194.055q-.541.176-1.065.377c-.052.019-.1.042-.151.061a20.15 20.15 0 00-1.445.632c-.405.2-.8.4-1.184.621l-.214.127c-.068.041-.124.086-.191.127a14.565 14.565 0 00-1.945 1.447c-.026.023-.058.046-.084.069l-.02.02c-.054.05-.1.1-.153.152-.159.153-.316.308-.46.466-.07.077-.133.155-.2.233-.086.1-.177.2-.256.3-.031.039-.056.079-.086.117-.049.064-.094.128-.14.193q-.163.226-.306.456c-.039.061-.079.123-.115.185-.019.033-.041.065-.06.1-.1.173-.186.347-.268.523-.012.028-.022.057-.036.085a6.579 6.579 0 00-.164.39c-.012.033-.017.068-.03.1-.019.053-.044.1-.062.157v.059a6.225 6.225 0 00-.192.67l-.869 1.644.851 4.56a6.418 6.418 0 01.254-.886c.058-.164.121-.328.194-.492.012-.028.022-.057.036-.085.1-.208.207-.414.326-.62.037-.062.077-.124.116-.186q.143-.23.3-.456c.046-.065.092-.128.14-.192.107-.14.223-.279.341-.416.067-.078.129-.156.2-.232.145-.157.3-.312.46-.466l.153-.152c.033-.03.071-.059.1-.089.255-.231.53-.457.821-.677.1-.074.2-.146.3-.218q.392-.281.825-.551c.135-.084.263-.172.405-.254.38-.221.778-.425 1.184-.621.106-.051.214-.1.321-.152.366-.169.739-.33 1.122-.479l.152-.062a21.426 21.426 0 012.164-.69c.23-.062.456-.129.689-.185.32-.078.646-.142.971-.208.22-.045.438-.095.66-.135q.986-.174 2-.278c.207-.022.415-.035.624-.052.394-.033.789-.062 1.187-.079a31.958 31.958 0 011.722-.021q.4.006.8.023.446.017.89.047c.271.019.541.042.81.068q.44.043.877.1.393.05.783.111.469.072.931.162c.244.046.487.094.727.147.369.081.731.172 1.091.268.233.062.469.119.7.187.124.037.247.077.371.115q.541.17 1.066.365c.1.037.205.072.306.111.318.123.624.26.93.4.152.068.308.128.456.2.442.211.873.433 1.287.672a14.97 14.97 0 011.5 1 11.807 11.807 0 011.619 1.437c.012.012.027.024.038.037.133.146.239.3.359.448s.26.3.369.46a6.991 6.991 0 011.165 2.684c.011.061.036.123.046.185.03.181.03.363.044.544.01.145.035.291.035.436l.017-6.2c.005-.127-.018-.248-.025-.368z" fill="#86b7f4"/><g data-name="Group 1031"><path data-name="Path 1550" d="M197.867 243.84l-.018 6.2-.765.445.018-6.2z" fill="#3f5374"/></g><g data-name="Group 1032"><path data-name="Path 1551" d="M203.114 246.87l-.018 6.2-5.248-3.03.018-6.2z" fill="#2c3e76"/></g><g data-name="Group 1033"><path data-name="Path 1552" d="M203.114 246.87l-.018 6.2-.746.433.018-6.2z" fill="#3f5374"/></g><path data-name="Path 1553" d="M227.587 229.541c6.871 3.967 6.908 10.4.076 14.373s-17.937 3.967-24.807 0-6.912-10.406-.086-14.373 17.941-3.969 24.817 0z" fill="#fff" opacity=".29" style="mix-blend-mode:overlay;isolation:isolate"/><g data-name="Group 1034" fill="#48afd6"><path data-name="Path 1554" d="M192.857 236.661l-.018 6.2a8.472 8.472 0 001.653 4.92 13.245 13.245 0 002.591 2.7l.017-6.2c-2.836-2.266-4.251-4.946-4.243-7.62z"/><path data-name="Path 1555" d="M237.564 237.184a5.563 5.563 0 01-.062.636c-.015.1-.032.222-.052.333s-.04.2-.062.3-.05.217-.079.325-.057.2-.087.3-.069.215-.107.323-.072.193-.109.289q-.068.169-.143.338c-.043.094-.086.189-.132.283a10.418 10.418 0 01-.325.606c-.077.132-.16.264-.244.4-.052.08-.1.16-.157.24-.1.145-.206.288-.314.431-.048.064-.093.128-.143.19q-.271.343-.58.677c-.053.057-.11.113-.164.17q-.243.255-.507.5c-.08.076-.161.152-.244.227q-.157.142-.323.282c-.1.086-.2.172-.308.257s-.231.183-.35.274-.22.168-.334.25-.249.177-.376.265-.236.163-.358.242-.269.173-.406.257c-.171.107-.34.213-.518.317-.442.257-.9.5-1.371.727-.143.071-.291.137-.437.205q-.511.239-1.039.459l-.486.2q-.591.231-1.2.436c-.113.039-.222.08-.336.117-.174.057-.354.1-.53.156-.463.142-.929.278-1.4.4-.238.061-.481.114-.722.169a31.756 31.756 0 01-2.354.462c-.156.025-.312.052-.469.075-.558.08-1.119.151-1.684.206-.741.073-1.49.12-2.238.149-.238.009-.478.01-.715.015-.471.01-.942.014-1.412.007-.273 0-.546-.013-.819-.023q-.632-.023-1.262-.068a37.85 37.85 0 01-.827-.064 38.571 38.571 0 01-1.276-.142c-.256-.033-.512-.062-.767-.1a35.39 35.39 0 01-1.6-.278c-.15-.03-.3-.052-.452-.083a31.809 31.809 0 01-2.114-.518c-.489-.136-.972-.28-1.447-.438l-.085-.026q-.853-.287-1.669-.621l-.017 6.2c.109.045.219.09.329.132q.658.26 1.34.489c.027.009.056.016.083.026q.631.211 1.277.4c.056.015.115.026.171.041.693.194 1.4.369 2.114.519.02 0 .04.01.061.015.129.026.262.043.392.068.528.1 1.059.2 1.6.278.073.011.146.028.219.038.181.026.364.038.545.061.426.054.851.1 1.28.143.116.01.231.029.348.039.158.012.317.014.475.025q.631.044 1.264.068c.154.006.307.021.46.025h.358c.471.008.942 0 1.413-.006h.521c.066 0 .129-.011.194-.013.75-.03 1.5-.076 2.24-.149h.045c.55-.054 1.095-.124 1.637-.2.158-.023.313-.051.47-.075.252-.04.506-.075.756-.121.113-.02.221-.05.333-.071.426-.082.847-.174 1.265-.271.241-.055.483-.107.721-.168.476-.121.942-.257 1.406-.4.144-.044.293-.078.436-.124l.093-.033c.114-.037.223-.079.336-.117q.609-.206 1.2-.437c.164-.064.324-.13.485-.2q.528-.219 1.039-.459c.146-.068.294-.135.438-.205.468-.231.929-.471 1.37-.727.092-.054.184-.107.273-.162s.162-.1.244-.154c.137-.086.275-.172.408-.259s.239-.16.355-.24a16.455 16.455 0 001.371-1.047c.1-.086.219-.188.324-.283.043-.039.091-.077.134-.116s.072-.074.111-.11c.177-.167.345-.335.508-.506.054-.057.111-.113.163-.169q.308-.335.581-.677l.025-.029c.042-.053.076-.107.116-.159.109-.144.216-.288.316-.433.054-.079.1-.16.156-.24.085-.131.167-.264.245-.4.021-.036.046-.072.067-.109.031-.054.054-.108.084-.162a7.619 7.619 0 00.305-.618q.075-.169.142-.338c.02-.051.045-.1.065-.152s.028-.091.045-.137a9.387 9.387 0 00.193-.623c.026-.1.055-.217.079-.326.013-.058.031-.117.043-.177.009-.04.012-.079.019-.119.021-.111.037-.222.053-.334s.028-.2.038-.295.018-.224.024-.336c0-.066.012-.132.014-.2s0-.131 0-.2l.017-6.2c-.003.122-.012.254-.02.385z"/></g><path data-name="Path 1556" d="M230.98 227.568c-8.766-5.061-22.918-5.061-31.627 0-7.837 4.554-8.579 11.653-2.253 16.717l-9.454 5.328 5.248 3.03 9.474-5.34c8.749 3.585 20.915 3.112 28.711-1.418 8.709-5.061 8.663-13.259-.099-18.317zm-3.318 16.345c-6.826 3.966-17.937 3.967-24.807 0s-6.913-10.406-.087-14.373 17.942-3.969 24.818 0 6.908 10.403.077 14.378z" fill="#4cadd2"/><g data-name="Group 1035"><path data-name="Path 1557" d="M202.368 247.304l-.017 6.2-9.474 5.34.018-6.2z" fill="#48afd6"/></g><g data-name="Group 1036"><path data-name="Path 1558" d="M192.894 252.644l-.018 6.2-5.248-3.03.018-6.2z" fill="#48afd6"/></g></g><g data-name="Group 1039"><path data-name="Path 1559" d="M195.86 256.561c0-.061 0-.123-.009-.184l-.007-.087v-.099a6.356 6.356 0 00-.048-.38v-.019a5.273 5.273 0 00-.071-.374l-.017-.076-.01-.041a4.423 4.423 0 00-.073-.283q-.021-.078-.046-.157l-.006-.023-.007-.024c-.02-.066-.042-.132-.064-.2s-.045-.132-.069-.2l-.015-.039-.012-.031-.044-.119c-.024-.063-.05-.125-.076-.187l-.059-.138-.009-.023-.011-.025a7.725 7.725 0 00-.185-.387l-.016-.031-.021-.039a4.94 4.94 0 00-.083-.162l-.11-.2c-.019-.034-.038-.069-.058-.1l-.023-.041c-.033-.056-.069-.11-.1-.166-.052-.084-.1-.168-.156-.25-.009-.013-.017-.028-.027-.041a9.13 9.13 0 00-.224-.32l-.019-.026a9.5 9.5 0 00-.171-.225l-.134-.166-.009-.011-.006-.007c-.049-.059-.1-.117-.149-.174s-.1-.111-.149-.166l-.021-.022-.023-.025-.114-.118a6.11 6.11 0 00-.162-.16l-.046-.043-.037-.035-.086-.079c-.056-.051-.113-.1-.17-.149l-.071-.058-.038-.032-.061-.049c-.056-.044-.112-.086-.168-.128l-.119-.085-.023-.016-.023-.016c-.053-.037-.107-.072-.161-.107l-.161-.1-.037-.022-1.81-1.045-.121-.068-.156-.081-.1-.048-.023-.011-.027-.013a4.082 4.082 0 00-.307-.123l-.029-.01-.025-.008-.1-.032a3.42 3.42 0 00-.158-.044l-.081-.018-.033-.007-.044-.01a2.658 2.658 0 00-.168-.027c-.037-.005-.073-.008-.108-.011h-.062c-.061 0-.122-.006-.182-.006h-.2c-.075.007-.15.018-.223.032h-.005c-.021 0-.041.012-.061.017a2.012 2.012 0 00-.2.056l-.017.008a1.8 1.8 0 00-.3.138l-22.787 13.278a1.8 1.8 0 01.3-.137 1.847 1.847 0 01.222-.065c.02 0 .04-.013.061-.017a2.261 2.261 0 01.287-.036h.06a2.461 2.461 0 01.292 0h.034a2.831 2.831 0 01.32.048l.033.007c.11.025.223.056.338.094l.025.008a3.692 3.692 0 01.364.145l.023.011q.188.086.381.2l1.81 1.046c.129.075.257.156.383.243l.023.017c.117.082.233.17.347.261l.04.032c.11.091.219.187.326.285l.037.035c.109.1.216.211.321.322l.024.024q.166.179.325.369l.009.011q.159.192.308.394l.02.03c.086.117.168.236.249.358.054.082.105.166.156.25s.087.138.127.208c.021.033.038.068.058.1.067.118.132.237.193.358l.021.041q.111.221.21.446l.01.023c.065.147.123.295.179.443l.011.03c.056.152.108.306.154.459l.008.026c.044.147.083.295.118.443l.01.042c.034.151.064.3.088.45v.012c.024.152.042.3.055.45v.037q.017.224.018.443c0 .145-.008.285-.02.42v.037a4.636 4.636 0 01-.052.357l-.009.046c-.023.11-.051.216-.083.318-.005.019-.012.038-.019.057a2.69 2.69 0 01-.11.281l-.009.022a2.383 2.383 0 01-.156.279l-.028.04a2.1 2.1 0 01-.145.191l-.06.066a1.34 1.34 0 01-.144.139c-.021.018-.041.037-.063.054a1.744 1.744 0 01-.223.156l22.787-13.278a1.864 1.864 0 00.223-.156c.022-.017.042-.036.063-.054.05-.044.1-.09.144-.139l.06-.066a2.1 2.1 0 00.145-.191c.009-.014.02-.026.029-.041l.007-.009a2.569 2.569 0 00.146-.264v-.006l.009-.022c.029-.062.056-.124.081-.191.011-.029.019-.06.029-.09l.019-.057c.006-.019.014-.036.019-.054a2.533 2.533 0 00.065-.268l.009-.045c0-.025.01-.049.015-.074.01-.059.019-.12.027-.182 0-.033.007-.067.01-.1v-.082c0-.059.008-.119.011-.18s0-.121 0-.184v-.011a.83.83 0 01-.014-.167z" fill="#2a476b"/><g data-name="Group 1038"><path data-name="Path 1560" d="M169.242 263.369a8.476 8.476 0 013.833 6.642c-.007 2.43-1.741 3.421-3.858 2.2l-1.812-1.045a8.484 8.484 0 01-3.836-6.641c.007-2.433 1.744-3.423 3.861-2.2z" fill="#2b4674"/></g></g></g><g data-name="Group 1061"><g data-name="Group 1044"><g data-name="Group 1042"><g data-name="Group 1041"><path data-name="Path 1561" d="M165.087 139.471c1.878 1.084 1.887 2.838.022 3.921l-10.982 6.383a7.457 7.457 0 01-6.77 0l-11.058-6.385c-1.874-1.081-1.883-2.835-.018-3.919l10.982-6.382a7.45 7.45 0 016.765 0z" fill="#6b9bde"/></g><path data-name="Path 1562" d="M166.503 141.445c0 .047-.008.093-.012.141s-.008.1-.017.149-.02.082-.031.124-.024.095-.041.142-.033.079-.05.117-.043.1-.069.149-.043.071-.064.106a1.96 1.96 0 01-.113.167c-.024.033-.051.065-.077.1a2.729 2.729 0 01-.2.218c-.027.026-.052.053-.081.079-.046.041-.1.081-.147.121s-.086.071-.134.106-.115.078-.173.116-.118.079-.181.116l-10.982 6.383a5.245 5.245 0 01-.669.317l-.186.07c-.145.053-.3.095-.45.138a6.837 6.837 0 01-1.061.22c-.047.006-.093.015-.141.019a7.96 7.96 0 01-.8.045h-.127c-.266 0-.532-.017-.795-.044l-.118-.013a7.53 7.53 0 01-.769-.132c-.047-.01-.092-.023-.137-.033a6.5 6.5 0 01-.666-.2c-.038-.013-.078-.024-.116-.039a5.2 5.2 0 01-.73-.345l-11.058-6.385a2.761 2.761 0 01-1.323-1.438 1.643 1.643 0 01-.087-.533l-.017 5.876a2.392 2.392 0 001.411 1.971l11.058 6.384a5.258 5.258 0 00.692.332l.039.013c.037.015.078.025.116.039.14.051.281.1.427.145.078.022.159.039.239.058l.136.033c.042.009.083.022.125.03.156.033.314.06.474.082.057.008.114.012.17.019l.119.013c.059.006.117.015.176.019.156.013.313.021.47.025h.49q.266-.009.53-.036c.02 0 .04-.006.061-.009.048 0 .095-.014.142-.019.137-.017.274-.033.408-.057.059-.011.114-.031.173-.043.163-.034.321-.075.479-.119.083-.023.172-.037.253-.063s.13-.051.2-.075.125-.046.187-.071a5.156 5.156 0 00.669-.317l10.967-6.389.059-.034c.044-.027.081-.055.122-.082.059-.039.119-.076.174-.117s.089-.07.134-.1.1-.08.147-.121l.03-.026c.019-.017.032-.036.051-.054a2.683 2.683 0 00.2-.218c.014-.016.032-.031.045-.048s.021-.032.033-.048c.041-.055.078-.11.113-.167.014-.023.034-.047.047-.07s.01-.024.016-.036c.027-.05.048-.1.07-.149.012-.029.029-.057.04-.087 0-.009.005-.019.009-.03.017-.047.029-.095.041-.143.009-.032.021-.064.028-.1v-.026c.009-.05.013-.1.018-.15 0-.033.01-.065.011-.1v-.042z" fill="#6494e0"/></g><g data-name="Group 1043"><path data-name="Path 1563" d="M154.834 138.354a4.934 4.934 0 00-4.469 0c-.88.512-1.122 1.25-.745 1.89a9.667 9.667 0 00-6.492 1l6.762 3.9c1.887-1.156 2.516-2.671 1.7-3.764a4.93 4.93 0 003.259-.438c1.228-.713 1.221-1.874-.019-2.591" fill="#fff"/></g></g><g data-name="Group 1048"><g data-name="Group 1046"><g data-name="Group 1045"><path data-name="Path 1564" d="M191.418 154.669c1.877 1.083 1.887 2.837.022 3.921l-10.982 6.382a7.453 7.453 0 01-6.77 0l-11.058-6.384c-1.873-1.082-1.883-2.835-.018-3.919l10.982-6.382a7.453 7.453 0 016.766 0z" fill="#9cb7ff"/></g><path data-name="Path 1565" d="M192.832 156.644c0 .047-.008.094-.012.141s-.008.1-.017.15-.02.082-.03.123-.024.095-.041.142-.032.078-.049.117-.043.1-.07.149-.043.071-.065.106a2.117 2.117 0 01-.112.167c-.025.033-.052.065-.078.1a2.923 2.923 0 01-.2.218c-.027.026-.051.053-.08.079-.046.042-.1.082-.148.121s-.086.072-.134.106-.115.078-.173.116-.117.079-.181.117l-10.982 6.382a5.093 5.093 0 01-.669.317 5.118 5.118 0 01-.186.071c-.145.053-.3.095-.45.138s-.316.086-.478.119c-.192.04-.385.076-.582.1-.047.005-.094.014-.141.019a7.96 7.96 0 01-.8.045h-.128a7.52 7.52 0 01-.795-.044l-.118-.013a7.8 7.8 0 01-.769-.132l-.137-.033a6.68 6.68 0 01-.666-.2c-.038-.014-.078-.025-.116-.039a5.251 5.251 0 01-.73-.345l-11.058-6.384a2.764 2.764 0 01-1.323-1.439 1.661 1.661 0 01-.087-.532l-.016 5.875a2.391 2.391 0 001.41 1.972l11.058 6.384a5.253 5.253 0 00.693.332l.038.012c.037.015.078.026.116.04.141.051.281.1.428.144.078.023.159.039.238.058.046.012.09.023.137.033s.082.023.125.031c.156.032.314.06.474.082.056.008.113.012.17.019l.12.013c.058.006.117.015.175.02.156.012.313.021.471.025h.489a8.55 8.55 0 00.531-.035l.06-.009c.048-.005.095-.014.143-.02.136-.017.273-.033.407-.057.06-.01.114-.03.174-.043.164-.033.321-.075.479-.12.083-.023.173-.037.254-.063s.13-.05.2-.074.125-.046.188-.071a5.279 5.279 0 00.668-.317l10.982-6.382.058-.035c.044-.026.081-.054.122-.082.059-.038.12-.076.175-.116s.089-.07.134-.106.1-.08.147-.121l.03-.025c.02-.018.032-.037.051-.054a2.789 2.789 0 00.2-.217c.013-.016.032-.032.044-.048s.021-.033.033-.048c.041-.055.078-.111.113-.167.015-.024.034-.047.047-.071s.01-.023.017-.036c.027-.049.048-.1.07-.149.013-.03.03-.057.041-.087 0-.01 0-.02.009-.03.016-.047.028-.1.04-.143s.022-.065.028-.1v-.026c.009-.05.012-.1.017-.151 0-.033.01-.065.011-.1v-.042z" fill="#50769b"/></g><g data-name="Group 1047"><path data-name="Path 1566" d="M173.99 155.406a.42.42 0 010-.795 1.515 1.515 0 011.371 0 .42.42 0 010 .795 1.513 1.513 0 01-1.372 0m2.382 1.375a.42.42 0 010-.794 1.512 1.512 0 011.372 0 .42.42 0 010 .794 1.512 1.512 0 01-1.372 0m2.3 1.327a.42.42 0 010-.794 1.513 1.513 0 011.372 0 .42.42 0 010 .794 1.512 1.512 0 01-1.372 0m2.9-4.48a10.108 10.108 0 00-9.171 0c-1.582.92-2.164 2.2-1.757 3.382l-1.689.619 2.217.28a4.64 4.64 0 001.259 1.031 10.105 10.105 0 009.17 0c2.525-1.467 2.511-3.846-.029-5.312" fill="#fff"/></g></g><g data-name="Group 1052"><g data-name="Group 1050"><g data-name="Group 1049"><path data-name="Path 1567" d="M269.682 199.186c1.878 1.084 1.887 2.838.022 3.922l-10.982 6.382a7.453 7.453 0 01-6.77 0l-11.061-6.388c-1.873-1.082-1.883-2.836-.018-3.919l10.982-6.382a7.452 7.452 0 016.765 0z" fill="#68b6f4"/></g><path data-name="Path 1568" d="M271.096 201.162c0 .047-.008.094-.012.141s-.008.1-.017.15-.02.082-.031.123-.024.095-.041.142-.033.078-.05.117-.043.1-.069.149-.043.071-.065.106a2.452 2.452 0 01-.113.167c-.024.033-.051.065-.077.1a2.763 2.763 0 01-.2.217c-.027.026-.052.054-.081.079-.046.041-.1.082-.147.121s-.086.071-.134.106-.115.078-.174.116-.117.079-.18.117l-10.982 6.382a5.255 5.255 0 01-.669.317c-.061.025-.124.048-.186.071-.146.053-.3.095-.45.138s-.316.085-.479.119a6.86 6.86 0 01-.582.1c-.047.006-.094.014-.141.019a7.878 7.878 0 01-.8.044h-.128a7.951 7.951 0 01-.794-.044l-.119-.013a7.476 7.476 0 01-.769-.131l-.137-.034a6.469 6.469 0 01-.666-.2c-.038-.014-.079-.025-.116-.04a5.188 5.188 0 01-.73-.345l-11.058-6.384a2.761 2.761 0 01-1.323-1.439 1.628 1.628 0 01-.087-.532l-.017 5.875a2.392 2.392 0 001.411 1.971l11.058 6.385a5.27 5.27 0 00.692.332l.038.012c.038.015.079.026.117.04.14.051.281.1.427.144.078.023.159.039.239.058.045.012.09.023.136.033s.083.022.125.031c.156.032.315.06.474.082.057.008.114.012.17.019l.119.013c.059.006.116.015.176.02q.234.019.47.025h.49q.266-.009.53-.035l.061-.009c.048-.005.095-.014.142-.02.137-.017.274-.033.407-.057.059-.011.115-.031.174-.043.163-.033.321-.075.479-.12.083-.023.172-.036.253-.063s.13-.05.2-.074.125-.046.187-.071a5.264 5.264 0 00.668-.317l10.981-6.382.059-.035c.043-.026.081-.054.122-.082.059-.038.119-.076.174-.116s.089-.07.134-.106.1-.08.147-.121l.03-.025c.019-.018.032-.036.051-.055a2.572 2.572 0 00.2-.217c.014-.016.032-.032.045-.048s.021-.033.033-.048c.041-.055.078-.111.113-.167.014-.024.034-.047.048-.071s.01-.024.016-.036c.026-.049.048-.1.07-.148.013-.029.03-.058.041-.087 0-.01.005-.02.009-.03.017-.047.029-.1.041-.143s.021-.065.028-.1v-.026c.009-.051.013-.1.018-.151 0-.033.01-.065.011-.1v-.042z" fill="#127fc6"/></g><g data-name="Group 1051"><path data-name="Path 1569" d="M252.803 202.354c-1.317-.761-1.324-1.995-.02-2.753a5.245 5.245 0 014.758 0c1.313.758 1.32 1.992.011 2.753a5.241 5.241 0 01-4.749 0m9.137-4.055l-2.17-1.254-.951.552a10.173 10.173 0 00-2.143-.514v-.779h-3.057v.779a9.985 9.985 0 00-2.138.514l-.956-.552-2.157 1.254.957.552a3.335 3.335 0 00-.881 1.24h-1.345l.01 1.771h1.345a3.421 3.421 0 00.9 1.24l-.95.552 2.171 1.253.95-.552a9.974 9.974 0 002.143.515v.779h3.056v-.779a10.02 10.02 0 002.138-.515l.957.552 2.157-1.253-.957-.552a3.343 3.343 0 00.881-1.24h1.345l-.01-1.77h-1.345a3.353 3.353 0 00-.9-1.24l.95-.552" fill="#fff"/></g></g><g data-name="Group 1056"><g data-name="Group 1054"><g data-name="Group 1053"><path data-name="Path 1570" d="M217.027 169.388c1.878 1.084 1.887 2.837.022 3.921l-10.982 6.382a7.452 7.452 0 01-6.77 0l-11.055-6.384c-1.873-1.082-1.883-2.835-.018-3.919l10.982-6.382a7.454 7.454 0 016.766 0z" fill="#4cadd2"/></g><path data-name="Path 1571" d="M218.446 171.363c0 .047-.008.094-.013.141a1.372 1.372 0 01-.017.15c-.007.041-.02.082-.03.123s-.024.1-.041.142l-.049.117c-.016.039-.044.1-.07.149s-.043.071-.065.106a2.117 2.117 0 01-.112.167l-.078.1a2.871 2.871 0 01-.2.218c-.027.026-.051.053-.08.078-.046.042-.1.082-.148.122s-.086.071-.134.105-.114.078-.173.117-.117.078-.181.116l-10.982 6.382a5.019 5.019 0 01-.669.317c-.06.025-.123.048-.186.071-.145.053-.3.095-.45.138s-.316.086-.478.119a7.44 7.44 0 01-.582.1c-.047.005-.094.015-.141.019a7.977 7.977 0 01-.805.045h-.127a7.52 7.52 0 01-.795-.044l-.118-.013a7.78 7.78 0 01-.769-.132l-.137-.033a6.652 6.652 0 01-.666-.2c-.038-.014-.078-.025-.116-.039a5.3 5.3 0 01-.73-.345l-11.058-6.384a2.765 2.765 0 01-1.323-1.439 1.658 1.658 0 01-.087-.532l-.016 5.876a2.391 2.391 0 001.41 1.971l11.058 6.384a5.188 5.188 0 00.693.332l.038.012c.037.015.078.026.116.04.141.051.281.1.428.144.078.023.159.039.238.059l.137.033c.041.009.082.022.124.03.156.032.314.06.475.082.056.008.113.012.169.019l.12.013c.058.006.116.015.175.02q.235.019.471.025h.489c.177-.006.355-.018.53-.035l.06-.009c.048-.005.095-.014.143-.02.136-.017.273-.032.407-.056.06-.011.114-.031.173-.044a6.7 6.7 0 00.479-.119c.083-.024.173-.037.254-.064s.13-.05.2-.074.125-.046.187-.071a5.273 5.273 0 00.668-.317l10.982-6.382.058-.035c.044-.026.081-.054.122-.082.06-.038.12-.076.174-.116s.089-.07.134-.106.1-.08.147-.121c.01-.009.021-.016.03-.025s.033-.037.051-.054a2.785 2.785 0 00.2-.217c.013-.016.032-.032.045-.048s.021-.033.033-.048c.041-.055.078-.111.113-.167.015-.023.034-.047.047-.071s.01-.023.016-.036a1.637 1.637 0 00.07-.149c.013-.03.03-.057.041-.087 0-.01 0-.019.009-.03.016-.047.028-.1.041-.143s.021-.065.027-.1v-.026c.009-.05.012-.1.017-.151 0-.033.01-.065.011-.1v-.042z" fill="#48afd6"/></g><g data-name="Group 1055" fill="#fff"><path data-name="Path 1572" d="M200.424 172.512c-.206-.119-.212-.312-.007-.431a.823.823 0 01.749 0 .228.228 0 010 .431.817.817 0 01-.74 0m-3.037-3.392l4.251-2.471 8.9 5.141-4.25 2.47-8.9-5.141m14.931 2.668l-10.686-6.17-7.1 4.128 10.687 6.17 7.1-4.128"/><path data-name="Path 1573" d="M200.625 173.883l-2.57-1.484-1.069.622-.935-.54-.765.444 4.439 2.563.764-.444-.934-.54 1.069-.621"/></g></g><g data-name="Group 1060"><g data-name="Group 1058"><g data-name="Group 1057"><path data-name="Path 1574" d="M243.355 184.586c1.877 1.084 1.887 2.838.022 3.922l-10.981 6.382a7.454 7.454 0 01-6.771 0l-11.058-6.385c-1.873-1.081-1.883-2.835-.017-3.919l10.981-6.382a7.452 7.452 0 016.766 0z" fill="#57c4ff"/></g><path data-name="Path 1575" d="M244.769 186.561c0 .047-.008.094-.012.141s-.009.1-.017.15-.02.082-.031.123-.024.095-.041.142-.032.078-.049.117-.044.1-.07.149-.042.071-.064.107a2.452 2.452 0 01-.113.167l-.077.1a2.744 2.744 0 01-.2.217c-.027.026-.052.054-.081.079-.046.041-.1.081-.147.121s-.086.071-.134.106-.115.078-.174.116-.116.079-.181.117l-10.981 6.382a5.3 5.3 0 01-.669.317l-.187.071c-.145.052-.3.095-.45.137a7.444 7.444 0 01-1.061.22c-.047.006-.093.015-.141.02a8.282 8.282 0 01-.8.044h-.128a7.943 7.943 0 01-.8-.044l-.117-.013a7.518 7.518 0 01-.77-.132c-.046-.01-.091-.022-.136-.033a6.444 6.444 0 01-.666-.2c-.038-.014-.078-.025-.116-.04a5.257 5.257 0 01-.731-.345l-11.058-6.385a2.763 2.763 0 01-1.324-1.438 1.689 1.689 0 01-.087-.533l-.016 5.876a2.39 2.39 0 001.411 1.971l11.058 6.385a5.215 5.215 0 00.692.331l.038.013c.038.015.078.026.116.039.141.051.281.1.428.145.078.023.159.039.238.058.046.012.091.023.137.033s.083.022.125.03c.156.033.314.06.474.083.056.008.114.012.17.019l.12.013c.058.006.117.015.176.02q.235.02.471.026h.49q.267-.009.53-.036c.02 0 .041-.006.061-.008.048-.005.094-.014.142-.02.136-.017.273-.033.407-.057.06-.011.114-.031.173-.043.164-.034.322-.075.48-.12.083-.023.172-.037.254-.063s.13-.051.2-.074.126-.047.187-.072a5.118 5.118 0 00.668-.316l10.982-6.382.058-.035c.044-.026.081-.055.123-.082.059-.038.119-.076.173-.116s.09-.071.134-.106.1-.08.148-.121c.009-.009.021-.016.031-.026l.05-.054a2.837 2.837 0 00.2-.217c.014-.017.032-.032.045-.048s.02-.033.033-.049c.041-.055.078-.11.112-.166.015-.024.034-.047.047-.071s.011-.024.017-.036c.026-.049.048-.1.07-.149.013-.029.03-.057.041-.087 0-.009.005-.019.009-.029.017-.048.029-.1.041-.144.008-.032.021-.064.027-.1a.222.222 0 000-.025c.009-.051.013-.1.017-.151 0-.033.01-.065.012-.1v-.042z" fill="#488ad5"/></g><g data-name="Group 1059" fill="#fff"><path data-name="Path 1576" d="M233.778 183.136l-9.647-1.081 1.9 5.581 9.637 1.081-1.893-5.581"/><path data-name="Path 1577" d="M224.02 184.713l-1.716 1 1.164 3.419 5.906.663c-.02-.011.936-.561 1.7-1l-5.892-.66-1.164-3.42"/><path data-name="Path 1578" d="M234.774 188.956l-1-.121-3.731 2.168.6.349 4.123-2.4"/><path data-name="Path 1579" d="M230.215 191.611l-.6-.349-1.647.159 1.982 1.145.268-.954"/></g></g></g><g data-name="Group 1072"><g data-name="Group 1066"><path data-name="Path 1580" d="M23.687 190.25l-.014 6.988 25.341 14.624 35.167-20.51c.029-2.563.092-5.19.148-7.051l-35.3 20.579-1.419-.821z" fill="#81d7f2"/><path data-name="Path 1581" d="M48.988 211.847l-25.316-14.609.014-6.989 23.923 13.809 1.379.8z" fill="#91d1f4"/><g data-name="Group 1065"><g data-name="Group 1062"><path data-name="Path 1582" d="M49.01 211.865l38.4-22.395-.005 2.547-38.4 22.395z" fill="#48afd6"/></g><g data-name="Group 1063"><path data-name="Path 1583" d="M49.033 202.467l-.005 2.414-1.419-.82-23.919-13.81-.017 6.985 25.339 14.63v2.547l-27.824-16.064a4.111 4.111 0 01-1.866-3.233l.016-7.641c0-1.187.844-1.668 1.877-1.072z" fill="#48afd6"/></g><g data-name="Group 1064"><path data-name="Path 1584" d="M49.029 202.467l38.4-22.394-.005 2.414-38.4 22.394z" fill="#48afd6"/></g><path data-name="Path 1585" d="M59.613 164.009l-.059-.033-.076-.04-.049-.023-.012-.006-.015-.007-.075-.032-.076-.028h-.024l-.051-.016-.078-.021-.036-.009h-.016l-.023-.005c-.028-.005-.055-.01-.082-.013l-.05-.005h-.218a.973.973 0 00-.108.016l-.024.006c-.035.009-.071.017-.1.029h-.008a.91.91 0 00-.143.066l-38.4 22.395a.857.857 0 01.143-.066.917.917 0 01.113-.033l.024-.007a1.039 1.039 0 01.14-.018h.029a1.1 1.1 0 01.142 0h.017a1.4 1.4 0 01.156.023h.015a1.556 1.556 0 01.166.046h.011a1.915 1.915 0 01.178.071l.012.005c.061.029.123.061.185.1l27.824 16.064 38.4-22.395z" fill="#4cadd2"/></g></g><g data-name="Group 1071"><path data-name="Path 1586" d="M23.687 176.565l-.014 6.988 25.341 14.623 35.167-20.509c.029-2.564.092-5.19.148-7.052l-35.3 20.58-1.419-.821z" fill="#81d7f2"/><path data-name="Path 1587" d="M48.988 198.162l-25.316-14.609.014-6.989 23.923 13.809 1.379.8z" fill="#91d1f4"/><g data-name="Group 1070"><g data-name="Group 1067"><path data-name="Path 1588" d="M49.01 198.181l38.4-22.394-.005 2.547-38.4 22.394z" fill="#6494e0"/></g><g data-name="Group 1068"><path data-name="Path 1589" d="M49.033 188.785l-.005 2.415-1.419-.82-23.919-13.81-.017 6.984 25.339 14.63v2.547l-27.824-16.064a4.113 4.113 0 01-1.866-3.233l.016-7.641c0-1.187.844-1.668 1.877-1.072z" fill="#6494e0"/></g><g data-name="Group 1069"><path data-name="Path 1590" d="M49.029 188.782l38.4-22.395-.005 2.414-38.4 22.395z" fill="#6494e0"/></g><path data-name="Path 1591" d="M59.613 150.323l-.059-.033-.076-.04-.049-.023-.012-.006-.015-.006c-.025-.012-.05-.022-.075-.032l-.076-.029h-.024l-.051-.016-.078-.021-.036-.009h-.039l-.082-.014h-.268a.966.966 0 00-.108.016l-.024.007c-.035.009-.071.017-.1.029h-.008a.851.851 0 00-.143.066l-38.4 22.395a.923.923 0 01.143-.067.893.893 0 01.113-.032l.024-.007a1.01 1.01 0 01.14-.018h.029a1.252 1.252 0 01.142 0h.017c.051.005.1.013.156.024h.015a1.549 1.549 0 01.166.047h.011c.058.02.117.044.178.072l.012.005c.061.028.123.06.185.1l27.812 16.055 38.4-22.394z" fill="#6b9bde"/></g></g></g><g data-name="Group 1078"><g data-name="Group 1077"><g data-name="Group 1074"><path data-name="Path 1592" d="M185.994 206.187v14.794c0 7.149-4.686 14.286-14.056 19.73-18.839 10.943-49.479 10.943-68.44 0-9.524-5.5-14.285-12.7-14.285-19.906v-14.793c0-7.149 4.685-14.286 14.066-19.73 18.84-10.942 49.479-10.942 68.44 0 9.512 5.499 14.275 12.699 14.275 19.905z" fill="#9dbedd"/><g data-name="Group 1073"><path data-name="Path 1593" d="M185.994 206.187c0 7.149-4.686 14.286-14.056 19.741-18.839 10.943-49.479 10.943-68.44 0-9.524-5.5-14.285-12.713-14.285-19.917 0-7.149 4.685-14.286 14.066-19.73 18.84-10.942 49.479-10.942 68.44 0 9.512 5.5 14.275 12.7 14.275 19.906z" fill="#91d1f4"/></g></g><g data-name="Group 1076"><g data-name="Group 1075"><path data-name="Path 1594" d="M138.477 211.905c.25 1.608-3.3 2.47-5.858 3.8a5.938 5.938 0 01-5.3.124 4.614 4.614 0 01-1.75-1.116c-.616-.885.2-3.762.2-3.762 2.349-.39 4.473-.815 5.915-1.169.763-.179 6.385-.503 6.793 2.123z" fill="#2b4674"/><path data-name="Path 1595" d="M151.65 212.324c.25 1.608-3.3 2.47-5.858 3.8a5.94 5.94 0 01-5.3.124 4.612 4.612 0 01-1.75-1.116c-.616-.885.2-3.762.2-3.762 2.349-.39 4.472-.815 5.915-1.169.768-.179 6.393-.503 6.793 2.123z" fill="#2b4674"/><path data-name="Path 1596" d="M125.461 211.545h7.286l6.636-70.684-20.709 3.143s-1.294 5.177 2.589 14.607c3.164 7.687 3.998 41.984 4.198 52.934z" fill="#2b4674"/><path data-name="Path 1597" d="M138.504 211.546h7.275c.173-13.576.705-63.49.076-67.819-.74-5.085-20.339-2.5-20.339-2.5s5.177 12.758 7.581 19.415c2.169 6.001 4.889 44.185 5.407 50.904z" fill="#2a476b"/></g><path data-name="Path 1598" d="M168.358 100.692l-5.915-3c.243-2.083.787-5.756 1.54-5.789 1.347-.067 1.255 2.828 1.255 2.828s3.949-8.566 5.212-7.989c.9.41-.661 3.706-1.548 5.4a.829.829 0 00.552 1.18c.753.2 1.648.636 1.766 1.572a7.027 7.027 0 01-2.862 5.798z" fill="#81aedb"/><path data-name="Path 1599" d="M121.322 103.471a11.99 11.99 0 00-1.206 9.67c1.7 5.557 3.85 14.552 2 19.911-2.818 8.173-3.664 11.273-3.664 11.273s22.828 5.919 27.62-.282l-1.128-17.859-.307-4.863 7.459 5.295a3.669 3.669 0 005.543-1.66l10.72-24.261-6.2-3.137-8.993 15.982a1.017 1.017 0 01-1.644.163c-2.482-2.819-9.189-10.623-13.1-11.8l-14.894-2.108z" fill="#9cc8ea"/><path data-name="Path 1600" d="M125.813 94.278l.053.036z" fill="#a4b7fb"/><path data-name="Path 1601" d="M127.347 95.244l.084.048z" fill="#a4b7fb"/><path data-name="Path 1602" d="M130.914 96.683l.117.026z" fill="#a4b7fb"/><path data-name="Path 1603" d="M125.395 93.978l.126.092z" fill="#a4b7fb"/><path data-name="Path 1604" d="M125.098 93.754l.107.082z" fill="#a4b7fb"/><path data-name="Path 1605" d="M124.937 93.628l.066.054z" fill="#a4b7fb"/><path data-name="Path 1606" d="M128.015 95.605l.09.045z" fill="#a4b7fb"/><path data-name="Path 1607" d="M132.588 96.841c-.023 0-.047.005-.07.005.023 0 .046-.004.07-.005z" fill="#a4b7fb"/><path data-name="Path 1608" d="M131.691 96.808l.171.015a2.867 2.867 0 01-.171-.015z" fill="#a4b7fb"/><path data-name="Path 1609" d="M125.003 93.681l.095.073z" fill="#a4b7fb"/><path data-name="Path 1610" d="M125.204 93.837l.19.141z" fill="#a4b7fb"/><path data-name="Path 1611" d="M125.521 94.07c.091.066.182.131.292.208-.108-.075-.202-.143-.292-.208z" fill="#a4b7fb"/><path data-name="Path 1613" d="M134.004 96.57a4.587 4.587 0 01-1.416.271 4.566 4.566 0 001.416-.271z" fill="#a4b7fb"/><path data-name="Path 1615" d="M128.106 95.65a11.943 11.943 0 002.809 1.033 11.961 11.961 0 01-2.809-1.033z" fill="#a4b7fb"/><path data-name="Path 1616" d="M132.517 96.847a6.014 6.014 0 01-.656-.023 5.822 5.822 0 00.656.023z" fill="#a4b7fb"/><path data-name="Path 1618" d="M141.31 85.663l-1.393 2.089-1.323-.557c-.021-.138-2.19-6.945-1.74-2.855.183 1.667 1.259 3.581.055 3.906s-1.824 1.9-1.387 3.52a3.476 3.476 0 001.449 2.062l-.55.511a4.512 4.512 0 01-2.418 2.231l.7 3.893.293.239c-.26-.094-.293-.239-.293-.239s-1.193-1 2.36-.946c4.386.071 4.646-10.453 4.247-13.854z" fill="#a4b7fb"/><path data-name="Path 1619" d="M134.704 100.464l-.7-3.893a4.563 4.563 0 01-1.415.271c-.024 0-.047.005-.071.005a5.819 5.819 0 01-.656-.023c-.057 0-.114-.009-.171-.015a7.493 7.493 0 01-.659-.1l-.117-.026a11.936 11.936 0 01-2.809-1.033l-.09-.045c-.2-.1-.395-.207-.584-.313l-.084-.048c-.524-.3-.974-.588-1.352-.845v6.837c2.889 1.338 6.153 2.286 8.972.879z" fill="#a4b7fb"/><path data-name="Path 1620" d="M141.959 84.513s-.338 3.629-2.279 5.4-3.544 4.81-1.688 10.463a37.6 37.6 0 011.188 4.441c1.427 7.225-4.012 14.181-11.374 13.992a9.583 9.583 0 01-1.256-.111 8.206 8.206 0 01-2.139-.724 11.281 11.281 0 01-5.156-15.1 21.219 21.219 0 002.282-8.3c.124-5.938 1.182-18.388 11.139-17.545 10.995.932 9.283 7.484 9.283 7.484z" fill="#799bd1"/></g></g><path data-name="Path 1621" d="M-1738.1 573.333l-26.084 2.388 27.354 18.01a60.708 60.708 0 0019.016-6.793 37.385 37.385 0 007.167-5.329z" transform="translate(1889.751 -361.009)" fill="url(#f)" style="mix-blend-mode:multiply;isolation:isolate"/></g></g></svg>