<svg xmlns="http://www.w3.org/2000/svg" xmlns:xlink="http://www.w3.org/1999/xlink" width="344.094" height="300" viewBox="0 0 344.094 300">
  <defs>
    <linearGradient id="linear-gradient" x1="0.249" y1="0.19" x2="-0.337" y2="-0.532" gradientUnits="objectBoundingBox">
      <stop offset="0" stop-color="#fff"/>
      <stop offset="1"/>
    </linearGradient>
    <linearGradient id="linear-gradient-3" x1="0.528" y1="0.552" x2="0.072" y2="-0.312" gradientUnits="objectBoundingBox">
      <stop offset="0" stop-color="#fff"/>
      <stop offset="0.087" stop-color="#f7f7f7"/>
      <stop offset="0.217" stop-color="#e3e3e3"/>
      <stop offset="0.375" stop-color="#c1c1c1"/>
      <stop offset="0.553" stop-color="#929292"/>
      <stop offset="0.75" stop-color="#565656"/>
      <stop offset="0.959" stop-color="#0f0f0f"/>
      <stop offset="1"/>
    </linearGradient>
    <linearGradient id="linear-gradient-4" x1="0.542" y1="0.576" x2="0.174" y2="-0.114" xlink:href="#linear-gradient-3"/>
    <linearGradient id="linear-gradient-5" x1="1.048" y1="1.107" x2="-0.729" y2="-0.867" gradientUnits="objectBoundingBox">
      <stop offset="0" stop-color="#fff"/>
      <stop offset="0.09" stop-color="#f2f2f2"/>
      <stop offset="0.256" stop-color="#cfcfcf"/>
      <stop offset="0.48" stop-color="#979797"/>
      <stop offset="0.751" stop-color="#4c4c4c"/>
      <stop offset="1"/>
    </linearGradient>
    <linearGradient id="linear-gradient-6" x1="0.762" y1="0.79" x2="-0.474" y2="-0.583" xlink:href="#linear-gradient-5"/>
    <linearGradient id="linear-gradient-7" x1="0.729" y1="0.659" x2="-0.311" y2="-1.073" xlink:href="#linear-gradient-5"/>
  </defs>
  <g id="it-aug" transform="translate(1925.642 -300.321)">
    <g id="Group_945" data-name="Group 945" transform="translate(-1925.642 391.265)">
      <path id="Path_1458" data-name="Path 1458" d="M-1581.55,516.561c0,1.688-1.1,3.375-3.329,4.666l-3.1,1.8h-.008l-18.657,10.849-23.316,13.851-16.106,9.558-97.416,57.854c-4.456,2.59-11.7,2.59-16.177.008l-140.687-80.018-18.852-10.88-3.057-1.765c-2.255-1.3-3.383-3-3.383-4.713a4.959,4.959,0,0,1,2.061-3.78,8.865,8.865,0,0,1,1.268-.879l158.606-93.908c4.456-2.6,11.7-2.6,16.184,0l162.6,92.648a10.579,10.579,0,0,1,1.283.879A5.036,5.036,0,0,1-1581.55,516.561Z" transform="translate(1925.641 -417.259)" fill="#dae5ef"/>
      <path id="Path_1459" data-name="Path 1459" d="M-1584.881,549.61l-3.1,1.8h-.008l-17.114,9.953-1.546.9-136.837,81.259c-4.45,2.6-11.694,2.6-16.176.008l-138.816-78.956-1.869-1.058-18.855-10.884-3.055-1.764c-2.252-1.291-3.385-3-3.385-4.706v9.228a4.8,4.8,0,0,0,1.7,3.468,8,8,0,0,0,1.216.946h.008a5.493,5.493,0,0,0,.465.3l162.6,92.655c4.481,2.589,11.725,2.582,16.176,0l158.6-93.915c.165-.1.323-.2.473-.292a8.638,8.638,0,0,0,1.254-.991,5.909,5.909,0,0,0,1.088-1.434,4.153,4.153,0,0,0,.518-1.951v-9.229C-1581.549,546.637-1582.659,548.319-1584.881,549.61Z" transform="translate(1925.642 -445.643)" fill="#91d1f4"/>
    </g>
    <g id="Group_1079" data-name="Group 1079" transform="translate(-1906.326 300.321)">
      <g id="Group_946" data-name="Group 946" transform="translate(29.464 147.269)">
        <path id="Path_1460" data-name="Path 1460" d="M-1824.034,546.964l-38.885,22.942,132.312,74.609c.368-.167.726-.344,1.064-.54l37.77-22.431Z" transform="translate(1862.919 -502.417)" fill="url(#linear-gradient)" style="mix-blend-mode: multiply;isolation: isolate"/>
        <path id="Path_1461" data-name="Path 1461" d="M-1756.995,501.766l-39.257,23.161,133.574,75.322a11.843,11.843,0,0,0,1.076-.546l38.131-22.645Z" transform="translate(1848.099 -492.369)" fill="url(#linear-gradient)" style="mix-blend-mode: multiply;isolation: isolate"/>
        <path id="Path_1462" data-name="Path 1462" d="M-1705.728,641.938l69.3-41.155-79.958-45.087-69.532,41.023Z" transform="translate(1845.802 -504.358)" fill="url(#linear-gradient-3)" style="mix-blend-mode: multiply;isolation: isolate"/>
        <path id="Path_1463" data-name="Path 1463" d="M-1620.577,612.066l-19.137-10.792a7.87,7.87,0,0,1,.49,3.025c.008-.093.015-.195.015-.288l-.023,6.2v.2a1.657,1.657,0,0,1-.015.194c-.008.117-.016.226-.023.334s-.023.2-.039.3c-.015.117-.031.226-.047.334-.008.039-.016.078-.023.124s-.031.117-.039.171c-.031.109-.055.218-.086.327s-.054.2-.086.3c-.031.109-.07.218-.109.327-.015.047-.023.086-.039.132s-.047.1-.07.156a3.092,3.092,0,0,1-.14.334c-.039.1-.085.194-.132.288-.054.109-.109.225-.171.334-.031.054-.054.109-.085.163a1.234,1.234,0,0,0-.07.109c-.07.132-.156.264-.241.4-.054.078-.1.156-.155.241-.1.14-.21.288-.319.428-.039.054-.07.109-.117.163l-.023.023a7.9,7.9,0,0,1-.583.677c-.047.062-.109.117-.156.171-.163.171-.334.342-.513.505a1.408,1.408,0,0,1-.109.109c-.047.039-.093.078-.132.117-.109.1-.218.194-.327.288l-.3.257c-.117.085-.233.179-.358.272-.109.086-.218.163-.327.249-.124.093-.257.179-.381.265s-.233.163-.358.241-.272.171-.4.257c-.085.054-.163.109-.249.156s-.179.109-.272.163c-.443.257-.9.5-1.369.731-.14.07-.288.132-.436.2-.342.163-.684.311-1.042.459-.163.07-.319.132-.482.195-.4.156-.793.3-1.205.435-.109.039-.218.086-.334.124a.436.436,0,0,0-.094.031c-.14.047-.288.078-.436.124q-.688.21-1.4.4c-.241.062-.482.109-.723.171-.42.093-.84.187-1.268.264-.109.023-.218.055-.334.07-.249.047-.5.086-.755.124-.155.023-.311.054-.466.078-.545.078-1.089.148-1.641.2h-.047c-.739.078-1.485.124-2.24.148a1.507,1.507,0,0,1-.187.016c-.179.008-.35,0-.521,0-.474.016-.949.016-1.415.008-.117,0-.241.008-.358,0-.155,0-.311-.016-.459-.023-.428-.016-.848-.039-1.267-.07-.156-.008-.319-.008-.475-.023-.117-.008-.233-.023-.35-.039-.428-.039-.855-.086-1.276-.14-.187-.023-.365-.039-.544-.062-.078-.008-.148-.031-.226-.039-.536-.078-1.065-.171-1.594-.28-.132-.023-.265-.039-.389-.062a.241.241,0,0,0-.062-.016c-.715-.156-1.423-.327-2.115-.521-.055-.016-.117-.023-.171-.039-.428-.124-.855-.257-1.275-.4-.031-.016-.055-.016-.085-.031-.451-.148-.9-.311-1.338-.49-.109-.039-.218-.086-.327-.132l-6.517,3.671v.016c0,.031-.008.07-.008.1a1.233,1.233,0,0,1-.031.179.232.232,0,0,1-.016.078.1.1,0,0,1-.008.047.153.153,0,0,1-.015.062c-.016.07-.031.132-.047.2a.112.112,0,0,0-.016.055.373.373,0,0,0-.023.054.422.422,0,0,1-.031.093,1.933,1.933,0,0,1-.078.187.029.029,0,0,0-.008.023l-.008.008a2.918,2.918,0,0,1-.14.264c-.008,0-.008,0-.008.008s-.023.023-.031.039a1.212,1.212,0,0,1-.148.187c-.016.023-.039.047-.054.07-.047.047-.093.093-.148.14a.438.438,0,0,1-.062.054,1.641,1.641,0,0,1-.225.156l-22.787,13.276a1.319,1.319,0,0,0,.132-.086,1.973,1.973,0,0,1-1.174.342l19.678,11.1Z" transform="translate(1828.013 -514.489)" fill="url(#linear-gradient-4)" style="mix-blend-mode: multiply;isolation: isolate"/>
        <path id="Path_1464" data-name="Path 1464" d="M-1587.331,563.83l-16.106,9.558-130.422-74.4,16.573-9.3Z" transform="translate(1834.23 -489.684)" fill="url(#linear-gradient-5)" style="mix-blend-mode: multiply;isolation: isolate"/>
        <path id="Path_1465" data-name="Path 1465" d="M-1536.533,564.46l5.972-3.548-42.727-24.378-6.148,3.451Z" transform="translate(1799.903 -500.098)" fill="url(#linear-gradient-6)" style="mix-blend-mode: multiply;isolation: isolate"/>
      </g>
      <g id="Group_1002" data-name="Group 1002" transform="translate(129.85)">
        <g id="Group_948" data-name="Group 948" transform="translate(0 8.241)">
          <path id="Path_1466" data-name="Path 1466" d="M-1539.121,428.546l-.288,101.409a4.269,4.269,0,0,1-.077.811l0,.022a3.031,3.031,0,0,1-.214.666l0,.009a2.254,2.254,0,0,1-.283.437c-.035.044-.068.09-.1.13a1.851,1.851,0,0,1-.412.34l3.256-1.892a1.875,1.875,0,0,0,.412-.339c.037-.04.07-.086.1-.13a1.913,1.913,0,0,0,.137-.17,2.48,2.48,0,0,0,.142-.257l0-.011,0-.009c.029-.062.057-.127.082-.194s.045-.13.065-.2.035-.127.05-.192c.006-.027.011-.054.017-.082l0-.023c.005-.026.011-.053.016-.08.01-.059.02-.119.027-.18s.013-.12.019-.181.008-.117.011-.177,0-.12,0-.182v-.01l.288-101.409Z" transform="translate(1690.864 -336.645)" fill="#96bcda"/>
          <g id="Group_947" data-name="Group 947">
            <path id="Path_1467" data-name="Path 1467" d="M-1733.54,310.917l-.012,4.459,151.455,87.442-.288,101.409c-.006,2.392-1.7,3.354-3.787,2.151l-143.912-83.087a8.275,8.275,0,0,1-3.756-6.506Z" transform="translate(1733.84 -310.917)" fill="#cef9f9"/>
          </g>
        </g>
        <g id="Group_965" data-name="Group 965" transform="translate(102.973 83.358)">
          <g id="Group_949" data-name="Group 949" transform="translate(2.287 54.807)">
            <path id="Path_1468" data-name="Path 1468" d="M-1579.8,488.765l-.007,2.511-18.684-10.787.007-2.511Z" transform="translate(1598.494 -477.978)" fill="#7bbde9"/>
          </g>
          <g id="Group_950" data-name="Group 950" transform="translate(2.219 78.833)">
            <path id="Path_1469" data-name="Path 1469" d="M-1566.255,527.53l-.007,2.511-32.318-18.659.007-2.511Z" transform="translate(1598.581 -508.871)" fill="#7bbde9"/>
          </g>
          <g id="Group_951" data-name="Group 951" transform="translate(2.241 71.035)">
            <path id="Path_1470" data-name="Path 1470" d="M-1566.227,517.5l-.007,2.511-32.319-18.659.007-2.511Z" transform="translate(1598.553 -498.844)" fill="#7bbde9"/>
          </g>
          <g id="Group_952" data-name="Group 952" transform="translate(2.262 63.412)">
            <path id="Path_1471" data-name="Path 1471" d="M-1579.833,499.829l-.007,2.511-18.684-10.787.007-2.511Z" transform="translate(1598.525 -489.042)" fill="#7bbde9"/>
          </g>
          <g id="Group_963" data-name="Group 963">
            <g id="Group_953" data-name="Group 953" transform="translate(19.469 41.433)">
              <path id="Path_1472" data-name="Path 1472" d="M-1562.823,476.488c.253,2.909.412,5.872.519,6.67l-12.729-7.349-1.367-10.177,1.309-1.4,1.317,1.769,1.292-5.215c.11.1.229.2.353.313.088.079.179.162.271.247q.18.166.37.344a47.5,47.5,0,0,1,4.252,4.51,22.828,22.828,0,0,1,3.517,5.623,10.039,10.039,0,0,1,.7,2.616C-1562.95,475.1-1562.883,475.79-1562.823,476.488Z" transform="translate(1576.4 -460.781)" fill="#fff"/>
            </g>
            <g id="Group_954" data-name="Group 954">
              <path id="Path_1473" data-name="Path 1473" d="M-1562.8,429.738l-.126,44.25-4.966-2.867c-.1-1.006-.256-3.761-.5-6.476-.061-.7-.127-1.392-.2-2.053a10.043,10.043,0,0,0-.7-2.616,22.684,22.684,0,0,0-3.518-5.623,47.24,47.24,0,0,0-4.252-4.511c-.129-.121-.253-.237-.37-.344-.092-.086-.183-.168-.271-.247-.441-.4-.828-.739-1.139-1-.479-.412-.777-.649-.806-.673v-1.058c3.355,1.233,5.145-.249,5.239-.327.022-.194.444-3.869-1.192-12.352-1.318-6.838-4.08-9.871-6.4-11.21a6.776,6.776,0,0,0-3.807-1.038,5.059,5.059,0,0,0-.978-.735c-1.285-.743-3.382-1.079-3.383,4.624,0,7.779-1.366,11.025-1.439,11.2a22.8,22.8,0,0,0,5.564,6.2l0,1-.147-.051c-.178-.061-.5-.166-.931-.287-.338-.1-.74-.2-1.188-.311a20.893,20.893,0,0,0-2.4-.408,12.25,12.25,0,0,0-2.237-.051c-1.9.138-3.572.864-4.067,2.823a4.786,4.786,0,0,0-.1.526c-.375,2.813-.612,6.589-.748,7.7l-3.584-2.069.125-44.249Z" transform="translate(1601.434 -407.505)" fill="#68b6f4"/>
            </g>
            <g id="Group_955" data-name="Group 955" transform="translate(3.567 35.238)">
              <path id="Path_1474" data-name="Path 1474" d="M-1583.945,459.968l1.292,2.906-1.471,8.539-12.724-7.346c.126-.839.369-4.895.765-7.867a4.682,4.682,0,0,1,.092-.494c.5-2,2.179-2.724,4.076-2.861a12.31,12.31,0,0,1,2.237.05,20.9,20.9,0,0,1,2.4.408c.253.062.489.121.709.183l1.247,6.694,1.447-.289Z" transform="translate(1596.848 -452.815)" fill="#fff"/>
            </g>
            <g id="Group_962" data-name="Group 962" transform="translate(9.839 12.942)">
              <g id="Group_956" data-name="Group 956" transform="translate(4.004 22.968)">
                <path id="Path_1475" data-name="Path 1475" d="M-1582.076,454.146l2.542,4.383.528.908.133.229-2.066.418-1.447.289-1.247-6.694c.171.044.331.087.48.128.429.121.753.226.931.287Z" transform="translate(1583.634 -453.679)" fill="#a4dae8"/>
              </g>
              <g id="Group_957" data-name="Group 957" transform="translate(6.452 28.962)">
                <path id="Path_1476" data-name="Path 1476" d="M-1575.942,475.942l-4.545-2.624,1.47-8.539-1.292-2.905.069-.076,2.065-.412,2.15,2.92.025.056-1.31,1.4Z" transform="translate(1580.487 -461.386)" fill="#18181a"/>
              </g>
              <g id="Group_958" data-name="Group 958" transform="translate(8.77 27.137)">
                <path id="Path_1477" data-name="Path 1477" d="M-1574.321,459.04c.031.012.329.25.808.662.225.194.49.425.786.692l-1.292,5.215-1.342-1.825-2.145-2.917Z" transform="translate(1577.506 -459.04)" fill="#a4dae8"/>
              </g>
              <g id="Group_959" data-name="Group 959" transform="translate(5.564 20.021)">
                <path id="Path_1478" data-name="Path 1478" d="M-1581.621,449.89a10.345,10.345,0,0,0,3.092,2.9l.247.142a4.421,4.421,0,0,0,3.053.683l-.006,2.321,0,1.056-3.185,1.84-.139-.239-.528-.908-2.536-4.368,0-1.019Z" transform="translate(1581.628 -449.89)" fill="#b5d5ff"/>
              </g>
              <g id="Group_960" data-name="Group 960">
                <path id="Path_1479" data-name="Path 1479" d="M-1579.177,426.326c2.319,1.339,5.082,4.372,6.4,11.21,1.636,8.483,1.214,12.159,1.192,12.352-.094.078-1.884,1.559-5.239.327l.006-2.321c1.427-.292,2.373-1.622,2.4-3.737.883.257,1.455-1.19,1.458-2.1a2.843,2.843,0,0,0-1.372-2.576l-.067-.033,0-.82a64.377,64.377,0,0,1-7.861-7.958c-1.618,2.415-3.128,1.614-3.254,1.541l-.01.815-.068-.046c-1-.577-1.379.006-1.381.988a6.338,6.338,0,0,0,1.441,3.773,11.638,11.638,0,0,0,2.322,6.425l-.007,2.41a22.792,22.792,0,0,1-5.564-6.2c.072-.171,1.439-3.417,1.439-11.2,0-5.7,2.1-5.367,3.383-4.624a5.064,5.064,0,0,1,.978.735A6.776,6.776,0,0,1-1579.177,426.326Z" transform="translate(1588.783 -424.146)" fill="#799bd1"/>
              </g>
              <g id="Group_961" data-name="Group 961" transform="translate(1.808 6.524)">
                <path id="Path_1480" data-name="Path 1480" d="M-1581.745,432.535a64.384,64.384,0,0,0,7.861,7.958l0,.82.067.033a2.842,2.842,0,0,1,1.372,2.576c0,.91-.575,2.357-1.458,2.1-.023,2.115-.969,3.444-2.4,3.737a4.421,4.421,0,0,1-3.053-.683l-.247-.142a10.346,10.346,0,0,1-3.092-2.9,11.638,11.638,0,0,1-2.322-6.425,6.338,6.338,0,0,1-1.441-3.773c0-.981.381-1.565,1.381-.988l.068.046,0-.82C-1584.873,434.149-1583.363,434.95-1581.745,432.535Z" transform="translate(1586.458 -432.535)" fill="#b5d5ff"/>
              </g>
            </g>
          </g>
          <g id="Group_964" data-name="Group 964" transform="translate(25.586 68.002)">
            <path id="Path_1481" data-name="Path 1481" d="M-1568.5,494.945l9.134,5.274-.033,11.658-9.134-5.274Z" transform="translate(1568.534 -494.945)" fill="#6b9bde"/>
            <path id="Path_1482" data-name="Path 1482" d="M-1560.237,508.466l-1.769-3.065,1.781-1.015-1.053-1.823-1.781,1.015-1.769-3.065-1.065.6,1.769,3.065-1.781,1.015,1.058,1.833,1.781-1.015,1.769,3.065,1.06-.61" transform="translate(1567.95 -496.182)" fill="#fff"/>
          </g>
        </g>
        <g id="Group_984" data-name="Group 984" transform="translate(9.585 29.44)">
          <g id="Group_970" data-name="Group 970" transform="translate(0.972 67.283)" style="isolation: isolate">
            <g id="Group_966" data-name="Group 966" transform="translate(0 10.83)">
              <path id="Path_1483" data-name="Path 1483" d="M-1687.94,457.275l-.008,2.511-32.318-18.659.007-2.511Z" transform="translate(1720.266 -438.616)" fill="#7bbde9"/>
            </g>
            <g id="Group_967" data-name="Group 967" transform="translate(0.022 3.033)">
              <path id="Path_1484" data-name="Path 1484" d="M-1687.912,447.249l-.007,2.511-32.319-18.659.007-2.511Z" transform="translate(1720.238 -428.589)" fill="#7bbde9"/>
            </g>
            <g id="Group_968" data-name="Group 968" transform="translate(23.368)">
              <path id="Path_1485" data-name="Path 1485" d="M-1690.186,424.69l9.134,5.274-.033,11.658-9.134-5.274Z" transform="translate(1690.219 -424.69)" fill="#8eccf9"/>
            </g>
            <g id="Group_969" data-name="Group 969" transform="translate(24.552 6.067)">
              <path id="Path_1486" data-name="Path 1486" d="M-1683.205,433.4l1.058,1.827-4,2.28-2.548-4.406,1.059-.61,1.5,2.583Z" transform="translate(1688.696 -432.492)" fill="#fff"/>
            </g>
          </g>
          <g id="Group_971" data-name="Group 971" transform="translate(1.015 62.692)">
            <path id="Path_1487" data-name="Path 1487" d="M-1701.513,429.578l-.007,2.511-18.69-10.791.007-2.511Z" transform="translate(1720.21 -418.787)" fill="#7bbde9"/>
          </g>
          <g id="Group_972" data-name="Group 972" transform="translate(1.04 54.087)">
            <path id="Path_1488" data-name="Path 1488" d="M-1701.481,418.513l-.007,2.511-18.69-10.791.007-2.511Z" transform="translate(1720.178 -407.723)" fill="#7bbde9"/>
          </g>
          <g id="Group_983" data-name="Group 983">
            <path id="Path_1489" data-name="Path 1489" d="M-1721.39,338.176l-.125,44.25,38.509,22.233.125-44.25Z" transform="translate(1721.515 -338.176)" fill="#68b6f4"/>
            <g id="Group_982" data-name="Group 982" transform="translate(3.438 14.309)">
              <g id="Group_973" data-name="Group 973" transform="translate(13.387 28.949)">
                <path id="Path_1490" data-name="Path 1490" d="M-1697.878,393.8l1.971,2.777-.714,1.418-2.562-1.479-.7-2.21Z" transform="translate(1699.881 -393.797)" fill="#18181a"/>
              </g>
              <g id="Group_974" data-name="Group 974" transform="translate(21.185 15.097)">
                <path id="Path_1491" data-name="Path 1491" d="M-1689.767,376.026a2.694,2.694,0,0,1,1.067,1.114,3.358,3.358,0,0,1,.349,1.546c0,.946-.594,2.448-1.5,2.185,0-.02,0-.039,0-.058l.013-4.827Z" transform="translate(1689.854 -375.986)" fill="#a2bcff"/>
              </g>
              <g id="Group_975" data-name="Group 975" transform="translate(15.389 27.36)">
                <path id="Path_1492" data-name="Path 1492" d="M-1694.007,391.76c0-.012.011,0,.03.011.126.1.572.462,1.222,1.029a17.99,17.99,0,0,1-1.4,4.976l-1.176-1.656-1.971-2.777Z" transform="translate(1697.306 -391.754)" fill="#a4dae8"/>
              </g>
              <g id="Group_976" data-name="Group 976" transform="translate(16.646 28.407)">
                <path id="Path_1493" data-name="Path 1493" d="M-1682.2,407.591c.252,2.267.436,4.9.566,6.78l-12.96-7.483-1.094-9.049.714-1.419,1.176,1.656a17.971,17.971,0,0,0,1.4-4.974C-1689.555,395.583-1682.819,402.007-1682.2,407.591Z" transform="translate(1695.69 -393.101)" fill="#fff"/>
              </g>
              <g id="Group_977" data-name="Group 977" transform="translate(7.959)">
                <path id="Path_1494" data-name="Path 1494" d="M-1699.416,357.907a15.823,15.823,0,0,1,3.262,2.556c.886.887,1.435,1.548,1.464,1.583,1.306,1.369,2.415,5.442,2.63,7.266a9.585,9.585,0,0,1-.42,3.514,2.7,2.7,0,0,0-1.067-1.114l-.073-.04,0-.819a6.907,6.907,0,0,0-.488-2.664,18.929,18.929,0,0,1-5.255-1.993,16.19,16.19,0,0,1-3.879-3.28,7.257,7.257,0,0,1-1.895,1.279l0,.828-.073-.044c-.573-.331-.949-.293-1.172-.023a14.566,14.566,0,0,1-.437-4.164c.224-1.571,1.352-4.354,2.662-4.211a8.136,8.136,0,0,1,1.474.114A9.4,9.4,0,0,1-1699.416,357.907Z" transform="translate(1706.86 -356.574)" fill="#799bd1"/>
              </g>
              <g id="Group_978" data-name="Group 978" transform="translate(12.949 31.665)">
                <path id="Path_1495" data-name="Path 1495" d="M-1696.747,398.769l1.094,9.05-4.792-2.767,1.136-7.762Z" transform="translate(1700.445 -397.29)" fill="#18181a"/>
              </g>
              <g id="Group_979" data-name="Group 979" transform="translate(10.868 23.156)">
                <path id="Path_1496" data-name="Path 1496" d="M-1701.917,386.725l3.318,5.41-2,.513-1.148.29a40.474,40.474,0,0,1-1.371-6.589C-1702.378,386.556-1701.94,386.717-1701.917,386.725Z" transform="translate(1703.12 -386.349)" fill="#a4dae8"/>
              </g>
              <g id="Group_980" data-name="Group 980" transform="translate(0 22.344)">
                <path id="Path_1497" data-name="Path 1497" d="M-1703.707,392.416l.7,2.21-1.135,7.762-12.949-7.476c.146-1.72.338-4.137.6-6.1.651-4.88,7.456-3.484,10.266-2.69a40.446,40.446,0,0,0,1.371,6.59Z" transform="translate(1717.094 -385.305)" fill="#fff"/>
              </g>
              <path id="Path_1498" data-name="Path 1498" d="M-1704.649,367.6l-.012,4.06v.059a12.057,12.057,0,0,0,2.412,6.666l-.01,3.545,3.322,5.4,3.3-1.6.01-3.5c1.483-.3,2.463-1.678,2.487-3.873,0-.019,0-.039,0-.058l.013-4.827,0-.819h.006a6.875,6.875,0,0,0-.494-2.664,18.93,18.93,0,0,1-5.255-1.993,16.194,16.194,0,0,1-3.879-3.28,7.259,7.259,0,0,1-1.895,1.279v.755h0l0,.839m5.768,3.957-.31-.062.31.062.309.295Z" transform="translate(1714.33 -358.387)" fill="#b5d5ff"/>
              <g id="Group_981" data-name="Group 981" transform="translate(8.178 8.167)">
                <path id="Path_1499" data-name="Path 1499" d="M-1705.146,367.312l.072.044-.013,4.826v.059a6.594,6.594,0,0,1-1.492-3.913,1.682,1.682,0,0,1,.261-1.04C-1706.1,367.019-1705.72,366.982-1705.146,367.312Z" transform="translate(1706.579 -367.075)" fill="#a2bcff"/>
              </g>
            </g>
          </g>
        </g>
        <g id="Group_997" data-name="Group 997" transform="translate(55.773 56.107)">
          <g id="Group_985" data-name="Group 985" transform="translate(1.595 78.473)">
            <path id="Path_1500" data-name="Path 1500" d="M-1627.748,492.027l-.007,2.511-32.318-18.659.007-2.511Z" transform="translate(1660.073 -473.368)" fill="#7bbde9"/>
          </g>
          <g id="Group_986" data-name="Group 986" transform="translate(1.618 70.675)">
            <path id="Path_1501" data-name="Path 1501" d="M-1627.719,482l-.007,2.511-32.318-18.659.007-2.511Z" transform="translate(1660.045 -463.342)" fill="#7bbde9"/>
          </g>
          <g id="Group_987" data-name="Group 987" transform="translate(1.639 63.052)">
            <path id="Path_1502" data-name="Path 1502" d="M-1641.32,464.33l-.007,2.511-18.69-10.791.007-2.511Z" transform="translate(1660.017 -453.539)" fill="#7bbde9"/>
          </g>
          <g id="Group_988" data-name="Group 988" transform="translate(1.664 54.447)">
            <path id="Path_1503" data-name="Path 1503" d="M-1641.289,453.265l-.007,2.511-18.69-10.791.007-2.511Z" transform="translate(1659.986 -442.475)" fill="#7bbde9"/>
          </g>
          <g id="Group_995" data-name="Group 995">
            <g id="Group_994" data-name="Group 994" transform="translate(4.571 14.713)">
              <g id="Group_989" data-name="Group 989" transform="translate(6.517)">
                <path id="Path_1504" data-name="Path 1504" d="M-1638.232,393.3c3.3,1.907,6,6.785,5.984,10.845a18.78,18.78,0,0,0,.782,5.69c.853,2.945,1.853,9.952-2.056,10.238-.088-.085-.127-.12-.166-.156l-.253-.236c-1.3-1.2-2.171-1.884-2.217-1.92l.01-3.376c1.429-.292,2.376-1.623,2.4-3.744.883.257,1.455-1.19,1.457-2.1a2.83,2.83,0,0,0-1.371-2.57l-.068-.032,0-.82a21.477,21.477,0,0,1-5.468-6.376c-2.418,1.429-5.488.032-5.649-.042l0,.82-.073-.048c-1-.578-1.378,0-1.381.981a6.349,6.349,0,0,0,1.441,3.773,11.65,11.65,0,0,0,2.328,6.438l-.01,3.41a20.821,20.821,0,0,0-2.266-.649c-.1-.029-.2-.047-.3-.069a12.978,12.978,0,0,1-1.945-12.521,12.143,12.143,0,0,0,.807-4.771c.012-4.06,2.723-5.819,6.027-3.911Z" transform="translate(1647.867 -391.383)" fill="#799bd1"/>
              </g>
              <g id="Group_990" data-name="Group 990" transform="translate(0 21.545)">
                <path id="Path_1505" data-name="Path 1505" d="M-1626.313,447c.024.288.045.514.065.664l-30-17.32c.019-.127.042-.327.067-.588.14-1.454.362-4.759.7-7.285.316-2.352,2.113-3.2,4.168-3.355a15.383,15.383,0,0,1,4.3.393l-.583,3.178,2.2,1.268-.838,1.7,4.985,8.025,5.014-2.252-.83-2.658,2.2,1.271-.569-3.85a47.949,47.949,0,0,1,4.252,4.509c2.086,2.556,3.906,5.494,4.214,8.239C-1626.646,441.84-1626.444,445.389-1626.313,447Z" transform="translate(1656.247 -419.086)" fill="#fff"/>
              </g>
              <g id="Group_991" data-name="Group 991" transform="translate(8.08 7.319)">
                <path id="Path_1506" data-name="Path 1506" d="M-1638.752,400.836a21.483,21.483,0,0,0,5.468,6.376l0,.82.068.032a2.83,2.83,0,0,1,1.371,2.57c0,.91-.575,2.357-1.457,2.1-.02,2.121-.968,3.452-2.4,3.744a4.426,4.426,0,0,1-3.054-.683l-.241-.14a10.336,10.336,0,0,1-3.092-2.9,11.649,11.649,0,0,1-2.328-6.438,6.349,6.349,0,0,1-1.441-3.773c0-.981.382-1.559,1.381-.981l.073.048,0-.82C-1644.24,400.868-1641.17,402.265-1638.752,400.836Z" transform="translate(1645.858 -400.794)" fill="#b5d5ff"/>
              </g>
              <g id="Group_992" data-name="Group 992" transform="translate(11.839 19.282)">
                <path id="Path_1507" data-name="Path 1507" d="M-1641.014,416.177a10.338,10.338,0,0,0,3.093,2.9l.241.14a4.425,4.425,0,0,0,3.054.683l-.01,3.376-3.206,9.677-3.181-13.352Z" transform="translate(1641.024 -416.177)" fill="#b5d5ff"/>
              </g>
              <g id="Group_993" data-name="Group 993" transform="translate(8.653 21.968)">
                <path id="Path_1508" data-name="Path 1508" d="M-1635.548,424.055c.046.023.916.709,2.217,1.907.082.079.167.156.253.236l.117.107.57,3.853-2.2-1.272.831,2.658-5.014,2.252-4.985-8.025.838-1.7-2.2-1.268.583-3.178a.172.172,0,0,1,.04.006c.1.022.2.04.3.069a20.827,20.827,0,0,1,2.266.649l3.181,13.365Z" transform="translate(1645.121 -419.63)" fill="#a4dae8"/>
              </g>
            </g>
            <path id="Path_1509" data-name="Path 1509" d="M-1623.49,394.7l-.126,44.25-4-2.311c-.131-1.611-.333-5.16-.654-8.066-.307-2.745-2.127-5.684-4.213-8.239a47.6,47.6,0,0,0-4.2-4.463c3.909-.286,2.909-7.293,2.056-10.238a18.78,18.78,0,0,1-.782-5.69c.012-4.06-2.681-8.938-5.984-10.845l-1.989-1.148c-3.3-1.908-6.015-.149-6.026,3.911a12.155,12.155,0,0,1-.807,4.771,12.977,12.977,0,0,0,1.945,12.521,15.578,15.578,0,0,0-4.343-.4c-2.055.159-3.852,1-4.168,3.355-.337,2.526-.558,5.83-.7,7.285l-4.638-2.678.126-44.25Z" transform="translate(1662.125 -372.465)" fill="#4cadd2"/>
          </g>
          <path id="Path_1510" data-name="Path 1510" d="M-1629.994,459.442l-.033,11.658,9.134,5.274.033-11.658Z" transform="translate(1654.99 -391.799)" fill="#8eccf9"/>
          <g id="Group_996" data-name="Group 996" transform="translate(26.434 73.879)">
            <path id="Path_1511" data-name="Path 1511" d="M-1622.639,468.37l1.058,1.827-4.007,2.277-2.548-4.406,1.065-.607,1.489,2.58Z" transform="translate(1628.136 -467.461)" fill="#fff"/>
          </g>
        </g>
        <g id="Group_1001" data-name="Group 1001" transform="translate(0.288)">
          <path id="Path_1512" data-name="Path 1512" d="M-1578,393.709c0-.143-.011-.288-.02-.432,0-.066-.011-.132-.015-.2,0-.029-.005-.058-.007-.086,0-.05-.007-.1-.012-.15-.014-.146-.03-.292-.049-.439s-.041-.3-.064-.449l0-.013,0-.019q-.034-.21-.073-.42-.044-.233-.095-.467c-.012-.056-.026-.111-.039-.167-.007-.033-.015-.065-.022-.1-.016-.068-.031-.136-.047-.2-.04-.159-.081-.317-.125-.475-.032-.117-.067-.233-.1-.349-.006-.021-.012-.041-.018-.062s-.011-.041-.018-.062c-.047-.154-.1-.309-.148-.463s-.1-.3-.16-.456c-.01-.028-.022-.057-.032-.085l-.025-.069c-.036-.095-.07-.19-.108-.285q-.085-.218-.175-.435c-.043-.1-.089-.209-.134-.313l-.023-.054-.026-.06c-.064-.145-.13-.289-.2-.432-.075-.159-.151-.316-.23-.473-.012-.024-.025-.047-.036-.072s-.032-.061-.048-.093c-.064-.125-.127-.25-.193-.373-.083-.156-.171-.308-.258-.461-.044-.078-.085-.155-.13-.233-.018-.031-.034-.063-.052-.093-.079-.135-.166-.263-.248-.4-.119-.191-.235-.383-.359-.571-.02-.03-.037-.062-.057-.092-.182-.272-.37-.54-.564-.8l0,0h0q-.2-.265-.4-.523c-.109-.138-.22-.275-.332-.41l-.009-.012,0-.005q-.172-.205-.346-.405c-.115-.131-.231-.259-.349-.386l-.057-.06-.062-.065c-.082-.087-.164-.174-.248-.259q-.187-.19-.377-.373c-.039-.037-.078-.072-.117-.109l-.089-.082c-.062-.058-.124-.118-.187-.175q-.2-.177-.4-.347c-.058-.049-.117-.1-.176-.144l-.089-.073c-.044-.036-.088-.073-.133-.108q-.2-.154-.392-.3c-.095-.07-.19-.137-.286-.2l-.053-.037-.05-.036c-.125-.086-.252-.17-.38-.251s-.252-.157-.379-.232l-.088-.051-133.554-77.108q-.143-.083-.285-.159-.183-.1-.366-.19c-.079-.04-.157-.075-.236-.112l-.056-.026-.069-.033c-.12-.054-.24-.1-.358-.152s-.242-.093-.361-.135l-.062-.02-.053-.018c-.081-.027-.163-.055-.243-.079-.123-.037-.247-.072-.369-.1-.059-.015-.118-.026-.177-.04l-.076-.016-.114-.026c-.132-.026-.262-.047-.391-.065-.08-.011-.159-.016-.237-.024l-.082-.009c-.026,0-.053-.006-.079-.008-.142-.01-.282-.015-.42-.014-.062,0-.12.006-.181.009l-.139.007c-.047,0-.1,0-.143.006a4.792,4.792,0,0,0-.516.075l-.01,0c-.038.008-.073.022-.11.03a4.7,4.7,0,0,0-.506.139c-.013,0-.025.013-.038.018a4.226,4.226,0,0,0-.686.317l-3.255,1.891a4.283,4.283,0,0,1,.686-.317,4.326,4.326,0,0,1,.544-.157c.037-.009.072-.023.11-.03a4.892,4.892,0,0,1,.669-.085c.047,0,.094,0,.14-.006a5.542,5.542,0,0,1,.68.013l.082.008a6.582,6.582,0,0,1,.742.114l.076.017a7.919,7.919,0,0,1,.789.22l.054.018q.418.144.85.341l.056.027c.292.135.587.287.887.46l133.555,77.108q.454.262.9.57l.052.037q.412.288.812.612l.09.073q.387.317.761.666l.088.082q.379.357.743.743l.061.064q.389.414.757.858l.007.009q.377.455.731.935l0,0c.215.292.421.591.622.9.124.187.241.381.36.573.1.162.2.321.3.485.045.078.087.157.131.236.156.275.307.551.451.831.015.031.033.063.049.095q.258.512.488,1.036l.023.054q.223.513.416,1.032l.026.07q.2.531.358,1.065c.006.021.012.042.018.063q.155.514.275,1.028c.008.033.016.065.022.1.081.352.151.7.207,1.054l0,.018c.056.354.1.7.127,1.053,0,.028,0,.056.007.084.027.349.043.694.041,1.035l-.012,4.459,3.255-1.891.012-4.459C-1578,393.979-1578,393.844-1578,393.709Z" transform="translate(1732.72 -300.321)" fill="#2b4674"/>
          <g id="Group_1000" data-name="Group 1000" transform="translate(0 1.892)">
            <g id="Group_998" data-name="Group 998">
              <path id="Path_1513" data-name="Path 1513" d="M-1590.926,381.088c4.942,2.853,8.94,9.778,8.923,15.457l-.012,4.459-151.455-87.442.012-4.459c.017-5.68,4.034-7.976,8.977-5.122Z" transform="translate(1733.47 -302.754)" fill="#2a476b"/>
            </g>
            <g id="Group_999" data-name="Group 999" transform="translate(117.25 69.144)">
              <path id="Path_1514" data-name="Path 1514" d="M-1579.691,392.072a6.613,6.613,0,0,1,3,5.194c-.005,1.9-1.358,2.675-3.019,1.716a6.612,6.612,0,0,1-3-5.188C-1582.7,391.886-1581.348,391.115-1579.691,392.072Z" transform="translate(1582.706 -391.661)" fill="#2090d3"/>
              <path id="Path_1515" data-name="Path 1515" d="M-1567.513,399.1a6.612,6.612,0,0,1,3,5.194c-.005,1.9-1.358,2.675-3.019,1.716a6.61,6.61,0,0,1-2.995-5.188C-1570.522,398.917-1569.17,398.146-1567.513,399.1Z" transform="translate(1579.999 -393.224)" fill="#9cb7ff"/>
              <path id="Path_1516" data-name="Path 1516" d="M-1555.153,406.239a6.613,6.613,0,0,1,2.995,5.193c-.005,1.9-1.357,2.675-3.015,1.718a6.611,6.611,0,0,1-3-5.19C-1558.167,406.051-1556.814,405.28-1555.153,406.239Z" transform="translate(1577.252 -394.81)" fill="#6b9bde"/>
            </g>
          </g>
        </g>
      </g>
      <g id="Group_1030" data-name="Group 1030" transform="translate(51.534 129.973)">
        <g id="Group_1011" data-name="Group 1011" transform="translate(20.298)">
          <g id="Group_1005" data-name="Group 1005">
            <g id="Group_1004" data-name="Group 1004">
              <path id="Path_1517" data-name="Path 1517" d="M-1807.9,470.094a.733.733,0,0,1,.185-.068.011.011,0,0,0,.009,0,.76.76,0,0,1,.207-.009.04.04,0,0,1,.019,0,1.056,1.056,0,0,1,.21.044.4.4,0,0,0,.043.016,1.488,1.488,0,0,1,.238.11l14.986,8.65,1.25-.726,1.914-1.112,1.251-.727-14.982-8.65a1.82,1.82,0,0,0-.182-.091l-.056-.019c-.017-.006-.032-.009-.044-.016s-.034-.012-.05-.016a.759.759,0,0,0-.113-.025.243.243,0,0,0-.047,0,.039.039,0,0,0-.019,0l-.031,0h-.085l-.075.009c-.006,0-.01,0-.016,0l-.009,0-.047.009c-.021.009-.047.016-.069.026a.566.566,0,0,0-.062.031l-.007,0Z" transform="translate(1808.321 -467.444)" fill="#648fc6"/>
              <path id="Path_1518" data-name="Path 1518" d="M-1787.279,481.45a1.5,1.5,0,0,1-.181-.089l4.417-2.566a1.519,1.519,0,0,0,.232.107l.044.015a1,1,0,0,0,.208.047l.02,0a.773.773,0,0,0,.208-.009l.008,0a.633.633,0,0,0,.19-.071l-4.416,2.566-.007,0c-.021.012-.042.022-.064.031a.71.71,0,0,1-.067.024l-.052.012-.009,0-.01,0c-.026,0-.052.007-.077.009a.6.6,0,0,1-.085,0c-.012,0-.023,0-.035,0l-.021,0-.04,0a1.021,1.021,0,0,1-.114-.024c-.017,0-.036-.012-.054-.019l-.044-.015C-1787.246,481.462-1787.262,481.457-1787.279,481.45Z" transform="translate(1803.778 -469.967)" fill="#74a4ff"/>
              <path id="Path_1519" data-name="Path 1519" d="M-1781.183,476.9a1,1,0,0,0-.209-.047l-.019,0a.748.748,0,0,0-.209.009l-.009,0a.619.619,0,0,0-.19.072l4.416-2.566.007,0a.607.607,0,0,1,.065-.032.616.616,0,0,1,.068-.024l.051-.012.008,0,.013,0a.626.626,0,0,1,.078-.009c.027,0,.056,0,.084,0l.034,0,.021,0,.043,0a.868.868,0,0,1,.113.024c.017,0,.035.012.052.018l.044.015c.018.007.035.011.052.018a1.594,1.594,0,0,1,.18.089l8.624,4.979-4.417,2.566-8.624-4.979a1.5,1.5,0,0,0-.232-.107Z" transform="translate(1802.523 -468.964)" fill="#648fc6"/>
              <path id="Path_1520" data-name="Path 1520" d="M-1768.347,508.941l.066-23.255a1.98,1.98,0,0,0-.024-.293c0-.016-.005-.031-.008-.047a2.661,2.661,0,0,0-.064-.279l-.008-.026a2.884,2.884,0,0,0-.112-.3l0-.006a3.2,3.2,0,0,0-.151-.3l0-.008a3.122,3.122,0,0,0-.179-.274l-.018-.024c-.059-.079-.122-.153-.187-.225-.015-.015-.029-.03-.042-.045-.052-.054-.107-.1-.161-.151-.025-.022-.049-.045-.075-.065a1.9,1.9,0,0,0-.24-.166l4.417-2.566a1.893,1.893,0,0,1,.24.166c.026.02.049.044.074.065s.077.064.114.1c.016.016.032.034.047.051l.043.045c.016.018.033.034.05.053q.053.061.1.126l.034.046.017.024c.012.016.023.03.034.046.026.036.05.073.074.11s.045.071.066.108l0,.009,0,.008c.018.03.035.061.051.091s.038.072.055.109.031.065.046.1l0,.006,0,.006q.025.057.046.114c.016.04.031.081.044.121.006.019.011.04.018.06l.009.026c0,.014.009.029.013.044.013.049.026.1.036.147.006.03.01.059.015.089s.006.031.008.046.005.029.007.043a1.833,1.833,0,0,1,.017.251l-.066,23.255a.9.9,0,0,1-.374.819l-4.416,2.566A.893.893,0,0,0-1768.347,508.941Z" transform="translate(1799.798 -470.437)" fill="#74a4ff"/>
              <path id="Path_1521" data-name="Path 1521" d="M-1781.276,477.588h-.019a.093.093,0,0,1,.041,0Z" transform="translate(1802.407 -469.699)" fill="#96bcda"/>
              <g id="Group_1003" data-name="Group 1003" transform="translate(0 2.566)">
                <path id="Path_1522" data-name="Path 1522" d="M-1786.824,476.237a.83.83,0,0,0-1.044.014l-3.211,3.3a.824.824,0,0,1-1.045.016l-14.985-8.651c-.708-.409-1.282-.082-1.284.732l-.048,16.872a2.81,2.81,0,0,0,1.276,2.208l28.889,16.68c.706.407,1.282.082,1.285-.73l.066-23.255a2.813,2.813,0,0,0-1.276-2.21Z" transform="translate(1808.441 -470.743)" fill="#9cb7ff"/>
              </g>
            </g>
          </g>
          <g id="Group_1010" data-name="Group 1010" transform="translate(20.126 12.718)">
            <g id="Group_1006" data-name="Group 1006" transform="translate(0.752)">
              <path id="Path_1523" data-name="Path 1523" d="M-1777.02,492.013v-.722c.307-.063.511-.348.516-.8.188.056.31-.256.31-.451a.689.689,0,0,0-.073-.318,1.994,1.994,0,0,0,.089-.728,3.548,3.548,0,0,0-.544-1.5c-.007-.009-.12-.144-.3-.327a3.236,3.236,0,0,0-.675-.529,1.948,1.948,0,0,0-.675-.251,1.668,1.668,0,0,0-.306-.023c-.269-.029-.5.546-.549.872a3,3,0,0,0,.09.861.341.341,0,0,0-.054.214,1.368,1.368,0,0,0,.309.81,2.512,2.512,0,0,0,.5,1.379l0,.729s-.095-.034-.249-.077c-.58-.164-1.988-.453-2.123.557-.054.405-.093.9-.123,1.256l-.711-.41.023-8.2a.55.55,0,0,1,.826-.475l6.33,3.656a1.611,1.611,0,0,1,.807,1.4l-.022,8.218-.9-.523c-.027-.388-.064-.931-.117-1.4-.127-1.155-1.521-2.482-2.108-3-.134-.117-.228-.191-.252-.214-.006,0-.007,0-.007,0" transform="translate(1781.595 -483.798)" fill="#fff"/>
              <path id="Path_1524" data-name="Path 1524" d="M-1777.792,493.246" transform="translate(1780.75 -485.898)" fill="#fff"/>
              <path id="Path_1525" data-name="Path 1525" d="M-1775.048,492.386" transform="translate(1780.14 -485.707)" fill="#fff"/>
            </g>
            <g id="Group_1007" data-name="Group 1007" transform="translate(0 11.384)">
              <path id="Path_1526" data-name="Path 1526" d="M-1773.889,503.441l-8.672-5.006,0,.531,8.672,5.006Z" transform="translate(1782.563 -498.435)" fill="#fff"/>
            </g>
            <g id="Group_1008" data-name="Group 1008" transform="translate(3.034 15.683)">
              <path id="Path_1527" data-name="Path 1527" d="M-1773.022,507.218l-5.639-3.255v.531l5.637,3.255Z" transform="translate(1778.661 -503.963)" fill="#fff"/>
            </g>
            <g id="Group_1009" data-name="Group 1009" transform="translate(3.034 18.095)">
              <path id="Path_1528" data-name="Path 1528" d="M-1773.022,510.32l-5.639-3.256v.531l5.637,3.255Z" transform="translate(1778.661 -507.065)" fill="#fff"/>
            </g>
          </g>
        </g>
        <g id="Group_1020" data-name="Group 1020" transform="translate(10.581 5.937)">
          <g id="Group_1014" data-name="Group 1014">
            <g id="Group_1013" data-name="Group 1013">
              <path id="Path_1529" data-name="Path 1529" d="M-1820.394,477.728a.739.739,0,0,1,.185-.069.011.011,0,0,0,.009,0,.756.756,0,0,1,.207-.009.039.039,0,0,1,.019,0,1.009,1.009,0,0,1,.21.044.393.393,0,0,0,.044.016,1.375,1.375,0,0,1,.238.11l14.986,8.65,1.25-.727,1.915-1.112,1.25-.727-14.983-8.65c-.063-.034-.122-.065-.182-.091l-.056-.019c-.015-.006-.032-.009-.044-.016s-.034-.012-.05-.016a.74.74,0,0,0-.113-.025.243.243,0,0,0-.047,0,.039.039,0,0,0-.019,0l-.031,0h-.085l-.075.009c-.006,0-.01,0-.016,0l-.009,0-.047.009c-.022.009-.047.016-.069.025a.541.541,0,0,0-.062.031l-.007,0Z" transform="translate(1820.815 -475.078)" fill="#648fc6"/>
              <path id="Path_1530" data-name="Path 1530" d="M-1799.773,489.084a1.534,1.534,0,0,1-.18-.089l4.416-2.566a1.5,1.5,0,0,0,.232.107l.044.016a1.119,1.119,0,0,0,.208.047l.019,0a.766.766,0,0,0,.208-.009l.008,0a.594.594,0,0,0,.19-.071l-4.416,2.567-.007,0a.667.667,0,0,1-.064.031.509.509,0,0,1-.067.023c-.017.006-.035.009-.052.012l-.009,0-.011,0a.636.636,0,0,1-.077.009c-.028,0-.056,0-.085,0l-.035,0-.021,0-.04,0c-.037-.006-.075-.014-.113-.024l-.054-.019-.044-.016C-1799.739,489.095-1799.755,489.091-1799.773,489.084Z" transform="translate(1816.271 -477.601)" fill="#74a4ff"/>
              <path id="Path_1531" data-name="Path 1531" d="M-1793.677,484.535a1.052,1.052,0,0,0-.208-.046l-.019,0a.809.809,0,0,0-.209.009l-.009,0a.618.618,0,0,0-.19.072L-1789.9,482l.007,0a.654.654,0,0,1,.065-.031.678.678,0,0,1,.068-.024l.051-.012.008,0,.013,0a.618.618,0,0,1,.078-.009.768.768,0,0,1,.085,0c.011,0,.022,0,.034,0l.02,0,.043,0a1,1,0,0,1,.113.024c.017,0,.035.013.052.018l.044.016c.018.006.035.01.052.018a1.482,1.482,0,0,1,.18.089l8.624,4.979-4.417,2.566-8.624-4.979a1.485,1.485,0,0,0-.232-.107Z" transform="translate(1815.017 -476.598)" fill="#648fc6"/>
              <path id="Path_1532" data-name="Path 1532" d="M-1780.841,516.575l.066-23.256a1.989,1.989,0,0,0-.024-.293l-.008-.047a2.382,2.382,0,0,0-.064-.279l-.008-.026a2.775,2.775,0,0,0-.112-.3l0-.005a3.187,3.187,0,0,0-.152-.3l0-.008c-.055-.094-.115-.186-.179-.273l-.018-.025c-.059-.079-.122-.153-.187-.224l-.043-.046c-.052-.054-.107-.1-.161-.15-.025-.022-.049-.045-.075-.065a2.041,2.041,0,0,0-.24-.167l4.417-2.566a1.95,1.95,0,0,1,.24.167c.026.02.05.044.074.065s.077.063.114.1c.016.016.032.034.047.051s.029.03.043.046l.05.052c.036.041.07.083.1.127.012.015.023.03.034.046l.017.023.034.046c.026.037.05.073.074.111s.045.071.066.108l0,.009,0,.008c.018.03.035.061.051.091s.037.072.054.109.031.066.046.1l0,.006,0,.006c.016.038.032.076.047.115s.03.08.044.121l.019.061.008.026c0,.015.009.03.013.044.014.049.026.1.036.147.006.03.01.058.016.088s.005.031.008.047.005.029.007.043a1.812,1.812,0,0,1,.017.25l-.066,23.255a.893.893,0,0,1-.373.819l-4.416,2.566A.891.891,0,0,0-1780.841,516.575Z" transform="translate(1812.292 -478.071)" fill="#74a4ff"/>
              <path id="Path_1533" data-name="Path 1533" d="M-1793.77,485.222h-.02a.091.091,0,0,1,.041,0Z" transform="translate(1814.901 -477.333)" fill="#96bcda"/>
              <g id="Group_1012" data-name="Group 1012" transform="translate(0 2.565)">
                <path id="Path_1534" data-name="Path 1534" d="M-1799.319,483.87a.829.829,0,0,0-1.044.015l-3.211,3.3a.823.823,0,0,1-1.044.017l-14.986-8.652c-.707-.409-1.282-.082-1.284.732l-.048,16.872a2.81,2.81,0,0,0,1.276,2.208l28.89,16.68c.706.408,1.282.082,1.285-.73l.066-23.256a2.813,2.813,0,0,0-1.276-2.21Z" transform="translate(1820.935 -478.376)" fill="#9cb7ff"/>
              </g>
            </g>
          </g>
          <g id="Group_1019" data-name="Group 1019" transform="translate(20.126 12.668)">
            <g id="Group_1015" data-name="Group 1015" transform="translate(0 11.433)">
              <path id="Path_1535" data-name="Path 1535" d="M-1786.383,511.075l-8.672-5.006v.53l8.672,5.006Z" transform="translate(1795.056 -506.068)" fill="#fff"/>
            </g>
            <g id="Group_1016" data-name="Group 1016" transform="translate(3.034 15.733)">
              <path id="Path_1536" data-name="Path 1536" d="M-1785.516,514.852l-5.639-3.255v.531l5.637,3.255Z" transform="translate(1791.155 -511.597)" fill="#fff"/>
            </g>
            <g id="Group_1017" data-name="Group 1017" transform="translate(3.034 18.145)">
              <path id="Path_1537" data-name="Path 1537" d="M-1785.516,517.954l-5.639-3.256v.531l5.637,3.255Z" transform="translate(1791.155 -514.698)" fill="#fff"/>
            </g>
            <g id="Group_1018" data-name="Group 1018" transform="translate(0.556)">
              <path id="Path_1538" data-name="Path 1538" d="M-1786.2,496.368l-.024,8.61-1.048-.6c-.021-.212-.053-.793-.1-1.366-.013-.147-.027-.293-.042-.432a2.136,2.136,0,0,0-.147-.552,4.813,4.813,0,0,0-.741-1.185,10.007,10.007,0,0,0-.9-.95l-.078-.073-.057-.052c-.092-.084-.174-.156-.24-.212-.1-.087-.164-.137-.17-.142v-.223a1.108,1.108,0,0,0,1.1-.069,9.457,9.457,0,0,0-.251-2.6,3.216,3.216,0,0,0-1.349-2.363,1.433,1.433,0,0,0-.8-.219,1.082,1.082,0,0,0-.206-.155c-.271-.156-.714-.228-.714.974a6.491,6.491,0,0,1-.3,2.36,4.824,4.824,0,0,0,1.173,1.308v.211l-.031-.011c-.037-.012-.106-.035-.2-.061-.071-.02-.156-.043-.25-.065a4.393,4.393,0,0,0-.506-.086,2.571,2.571,0,0,0-.471-.01.84.84,0,0,0-.857.595.941.941,0,0,0-.022.11c-.079.593-.129,1.389-.157,1.624l-.756-.436.024-8.368a.555.555,0,0,1,.834-.48l6.664,3.847A1.24,1.24,0,0,1-1786.2,496.368Z" transform="translate(1794.341 -491.367)" fill="#fff"/>
            </g>
          </g>
        </g>
        <g id="Group_1029" data-name="Group 1029" transform="translate(0 11.935)">
          <g id="Group_1023" data-name="Group 1023">
            <g id="Group_1022" data-name="Group 1022">
              <path id="Path_1539" data-name="Path 1539" d="M-1834,485.44a.716.716,0,0,1,.185-.069.012.012,0,0,0,.009,0,.728.728,0,0,1,.207-.01.039.039,0,0,1,.019,0,1.116,1.116,0,0,1,.21.044.382.382,0,0,0,.044.016,1.433,1.433,0,0,1,.238.11l14.986,8.65,1.25-.726,1.914-1.113,1.25-.726-14.983-8.65a1.818,1.818,0,0,0-.182-.091l-.056-.019c-.016-.006-.032-.009-.044-.016s-.034-.013-.05-.016a.763.763,0,0,0-.113-.025.241.241,0,0,0-.047,0,.04.04,0,0,0-.019,0l-.031,0h-.085l-.075.009c-.006,0-.01,0-.016,0l-.009,0-.047.009c-.022.009-.047.016-.069.025a.7.7,0,0,0-.063.032l-.006,0Z" transform="translate(1834.421 -482.79)" fill="#648fc6"/>
              <path id="Path_1540" data-name="Path 1540" d="M-1813.379,496.8a1.5,1.5,0,0,1-.181-.089l4.417-2.566a1.418,1.418,0,0,0,.232.107l.045.016a1.065,1.065,0,0,0,.208.047l.02,0a.771.771,0,0,0,.208-.009l.008,0a.64.64,0,0,0,.19-.071l-4.416,2.566-.007,0a.654.654,0,0,1-.064.031.48.48,0,0,1-.068.023.5.5,0,0,1-.052.012l-.008,0-.011,0c-.026,0-.051.007-.077.009a.77.77,0,0,1-.085,0l-.036,0-.02,0-.041,0a1.1,1.1,0,0,1-.114-.024c-.017,0-.036-.012-.053-.019s-.03-.009-.045-.016S-1813.362,496.8-1813.379,496.8Z" transform="translate(1829.877 -485.313)" fill="#74a4ff"/>
              <path id="Path_1541" data-name="Path 1541" d="M-1807.283,492.247a1.014,1.014,0,0,0-.208-.047l-.019,0a.742.742,0,0,0-.209.009l-.008,0a.632.632,0,0,0-.192.072l4.417-2.566.007,0a.56.56,0,0,1,.064-.032c.023-.009.045-.017.069-.024l.051-.012.009,0,.012,0a.659.659,0,0,1,.078-.009.753.753,0,0,1,.085,0l.033,0,.021,0,.043,0a1.064,1.064,0,0,1,.114.025c.017,0,.035.012.052.017l.044.016c.018.006.035.011.052.018a1.628,1.628,0,0,1,.18.089l8.624,4.98-4.417,2.566-8.624-4.979a1.437,1.437,0,0,0-.232-.107Z" transform="translate(1828.624 -484.31)" fill="#648fc6"/>
              <path id="Path_1542" data-name="Path 1542" d="M-1794.447,524.287l.066-23.255a2,2,0,0,0-.024-.294c0-.015-.005-.03-.008-.046a2.6,2.6,0,0,0-.065-.279l-.008-.026a2.829,2.829,0,0,0-.111-.3l0-.005a3.167,3.167,0,0,0-.152-.3l0-.007c-.055-.095-.115-.186-.179-.274l-.018-.024c-.059-.079-.122-.154-.187-.225l-.043-.046c-.052-.054-.106-.1-.161-.15-.025-.022-.049-.045-.075-.065a1.93,1.93,0,0,0-.24-.166l4.417-2.566a2,2,0,0,1,.24.166c.026.02.049.044.074.065s.077.063.114.1c.016.016.032.035.047.051l.043.046.05.052c.035.041.07.083.1.127.012.015.023.03.034.046l.017.024.034.046c.025.036.05.073.074.11s.045.072.066.108l0,.009,0,.008c.017.03.034.06.051.091s.038.072.055.109.031.065.045.1l0,.006,0,.005c.016.038.032.077.047.115s.029.08.043.121c.006.02.012.04.018.061l.009.026c0,.015.009.03.013.044.013.049.026.1.036.147.006.03.01.059.015.088s.005.031.008.047.006.029.007.043a1.691,1.691,0,0,1,.017.251l-.065,23.255a.9.9,0,0,1-.373.819l-4.417,2.567A.9.9,0,0,0-1794.447,524.287Z" transform="translate(1825.898 -485.783)" fill="#74a4ff"/>
              <path id="Path_1543" data-name="Path 1543" d="M-1807.376,492.934h-.019a.093.093,0,0,1,.041,0Z" transform="translate(1828.507 -485.045)" fill="#96bcda"/>
              <g id="Group_1021" data-name="Group 1021" transform="translate(0 2.566)">
                <path id="Path_1544" data-name="Path 1544" d="M-1812.925,491.583a.83.83,0,0,0-1.044.014l-3.211,3.3a.825.825,0,0,1-1.045.016l-14.985-8.652c-.708-.408-1.281-.082-1.284.733l-.048,16.872a2.809,2.809,0,0,0,1.276,2.208l28.89,16.679c.706.408,1.283.082,1.285-.729l.066-23.255a2.811,2.811,0,0,0-1.276-2.21Z" transform="translate(1834.541 -486.089)" fill="#9cb7ff"/>
              </g>
            </g>
          </g>
          <g id="Group_1028" data-name="Group 1028" transform="translate(20.126 12.668)">
            <g id="Group_1024" data-name="Group 1024" transform="translate(0 11.434)">
              <path id="Path_1545" data-name="Path 1545" d="M-1799.989,518.787l-8.672-5.006,0,.531,8.672,5.006Z" transform="translate(1808.662 -513.781)" fill="#fff"/>
            </g>
            <g id="Group_1025" data-name="Group 1025" transform="translate(3.034 15.733)">
              <path id="Path_1546" data-name="Path 1546" d="M-1799.122,522.564l-5.639-3.255v.531l5.637,3.255Z" transform="translate(1804.761 -519.309)" fill="#fff"/>
            </g>
            <g id="Group_1026" data-name="Group 1026" transform="translate(3.034 18.145)">
              <path id="Path_1547" data-name="Path 1547" d="M-1799.122,525.666l-5.639-3.256v.531l5.637,3.255Z" transform="translate(1804.761 -522.41)" fill="#fff"/>
            </g>
            <g id="Group_1027" data-name="Group 1027" transform="translate(0.556)">
              <path id="Path_1548" data-name="Path 1548" d="M-1799.8,504.08l-.025,8.61-1.047-.6c-.021-.212-.054-.793-.1-1.366-.013-.147-.027-.293-.042-.432a2.115,2.115,0,0,0-.147-.551,4.792,4.792,0,0,0-.742-1.186,10,10,0,0,0-.9-.95l-.079-.072-.057-.052c-.092-.085-.174-.156-.24-.212-.1-.087-.163-.137-.169-.142V506.9a1.107,1.107,0,0,0,1.1-.068,9.438,9.438,0,0,0-.251-2.6,3.215,3.215,0,0,0-1.349-2.363,1.435,1.435,0,0,0-.8-.219,1.135,1.135,0,0,0-.206-.155c-.271-.156-.713-.228-.713.975a6.518,6.518,0,0,1-.3,2.36,4.793,4.793,0,0,0,1.173,1.308v.212l-.03-.011c-.037-.012-.106-.035-.2-.061-.071-.02-.156-.043-.25-.065a4.289,4.289,0,0,0-.506-.086,2.521,2.521,0,0,0-.471-.011.841.841,0,0,0-.858.595,1.034,1.034,0,0,0-.021.11c-.08.593-.129,1.389-.158,1.624l-.755-.436.023-8.368a.556.556,0,0,1,.834-.48l6.664,3.847A1.242,1.242,0,0,1-1799.8,504.08Z" transform="translate(1807.947 -499.079)" fill="#fff"/>
            </g>
          </g>
        </g>
      </g>
      <g id="Group_1040" data-name="Group 1040" transform="translate(144.254 223.773)">
        <g id="Group_1037" data-name="Group 1037" transform="translate(24.059)">
          <path id="Path_1549" data-name="Path 1549" d="M-1636.621,601.494a6.124,6.124,0,0,0-.29-1.59c-.052-.156-.13-.307-.195-.461a8.1,8.1,0,0,0-1.5-2.343,13.033,13.033,0,0,0-3.159-2.476c-.413-.239-.844-.462-1.287-.672-.148-.07-.3-.131-.454-.2-.262-.117-.52-.238-.79-.345-.046-.018-.095-.034-.141-.051-.1-.039-.2-.074-.306-.111q-.524-.195-1.066-.365c-.124-.039-.246-.078-.37-.115-.083-.025-.164-.053-.248-.077-.147-.042-.3-.071-.449-.11-.361-.1-.723-.187-1.092-.268-.1-.022-.191-.051-.29-.072-.144-.03-.292-.048-.436-.076-.309-.059-.618-.114-.93-.162-.125-.019-.247-.047-.373-.065s-.276-.029-.412-.046q-.437-.056-.876-.1c-.14-.013-.278-.035-.418-.047s-.262-.012-.393-.021q-.443-.03-.889-.047c-.149-.006-.3-.02-.446-.024-.119,0-.238,0-.358,0-.32,0-.641,0-.961,0-.16,0-.319,0-.479,0-.095,0-.188.015-.283.019-.4.017-.791.046-1.185.079-.159.013-.32.016-.478.031-.049.005-.1.016-.146.021q-1.009.1-1.995.278c-.032.005-.066.008-.1.013-.191.035-.376.083-.566.121-.325.066-.65.13-.969.207-.233.057-.459.124-.69.186-.3.082-.607.165-.9.258-.064.019-.131.034-.194.055q-.541.176-1.065.377c-.052.019-.1.042-.151.061-.383.15-.756.31-1.123.48-.108.05-.215.1-.322.152-.405.2-.8.4-1.184.621l-.214.127c-.068.041-.124.086-.191.127-.288.18-.563.362-.824.551-.1.072-.2.145-.3.219-.29.221-.565.446-.821.677-.026.023-.058.046-.084.069l-.02.02c-.054.05-.1.1-.153.152-.159.153-.316.308-.46.466-.07.077-.133.155-.2.233-.086.1-.177.2-.256.3-.031.039-.056.079-.086.117-.049.064-.094.128-.14.193q-.163.226-.306.456c-.039.061-.079.123-.115.185-.019.033-.041.065-.06.1-.1.173-.186.347-.268.523-.012.028-.022.057-.036.085-.058.129-.115.259-.164.39-.012.033-.017.068-.03.1-.019.053-.044.1-.062.157v.059a6.225,6.225,0,0,0-.192.67l-.869,1.644.851,4.56a6.418,6.418,0,0,1,.254-.886c.058-.164.121-.328.194-.492.012-.028.022-.057.036-.085.1-.208.207-.414.326-.62.037-.062.077-.124.116-.186q.143-.23.3-.456c.046-.065.092-.128.14-.192.107-.14.223-.279.341-.416.067-.078.129-.156.2-.232.145-.157.3-.312.46-.466.052-.051.1-.1.153-.152.033-.03.071-.059.1-.089.255-.231.53-.457.821-.677.1-.074.2-.146.3-.218q.392-.281.825-.551c.135-.084.263-.172.405-.254.38-.221.778-.425,1.184-.621.106-.051.214-.1.321-.152.366-.169.739-.33,1.122-.479l.152-.062c.411-.156.833-.3,1.259-.432.3-.093.6-.175.905-.258.23-.062.456-.129.689-.185.32-.078.646-.142.971-.208.22-.045.438-.095.66-.135q.986-.174,2-.278c.207-.022.415-.035.624-.052.394-.033.789-.062,1.187-.079.253-.011.505-.016.758-.021.321-.006.642-.009.964,0q.4.006.8.023.446.017.89.047c.271.019.541.042.81.068q.44.043.877.1.393.05.783.111.469.072.931.162c.244.046.487.094.727.147.369.081.731.172,1.091.268.233.062.469.119.7.187.124.037.247.077.371.115q.541.17,1.066.365c.1.037.205.072.306.111.318.123.624.26.93.4.152.068.308.128.456.2.442.211.873.433,1.287.672a14.97,14.97,0,0,1,1.5,1,11.807,11.807,0,0,1,1.619,1.437c.012.012.027.024.038.037.133.146.239.3.359.448s.26.3.369.46a6.991,6.991,0,0,1,1.165,2.684c.011.061.036.123.046.185.03.181.03.363.044.544.01.145.035.291.035.436l.017-6.2h0C-1636.591,601.735-1636.614,601.614-1636.621,601.494Z" transform="translate(1681.727 -588.855)" fill="#86b7f4"/>
          <g id="Group_1031" data-name="Group 1031" transform="translate(9.455 20.067)">
            <path id="Path_1550" data-name="Path 1550" d="M-1671.443,613.858l-.018,6.2-.765.445.018-6.2Z" transform="translate(1672.226 -613.858)" fill="#3f5374"/>
          </g>
          <g id="Group_1032" data-name="Group 1032" transform="translate(10.22 20.067)">
            <path id="Path_1551" data-name="Path 1551" d="M-1665.977,616.888l-.018,6.2-5.248-3.03.018-6.2Z" transform="translate(1671.242 -613.858)" fill="#2c3e76"/>
          </g>
          <g id="Group_1033" data-name="Group 1033" transform="translate(14.722 23.097)">
            <path id="Path_1552" data-name="Path 1552" d="M-1664.69,617.754l-.018,6.2-.746.433.018-6.2Z" transform="translate(1665.453 -617.754)" fill="#3f5374"/>
          </g>
          <path id="Path_1553" data-name="Path 1553" d="M-1641.554,594.62c6.871,3.967,6.908,10.4.076,14.373s-17.937,3.967-24.807,0-6.912-10.406-.086-14.373S-1648.43,590.651-1641.554,594.62Z" transform="translate(1681.512 -588.852)" fill="#fff" opacity="0.29" style="mix-blend-mode: overlay;isolation: isolate"/>
          <g id="Group_1034" data-name="Group 1034" transform="translate(5.21 12.888)">
            <path id="Path_1554" data-name="Path 1554" d="M-1677.666,604.626l-.018,6.2a8.472,8.472,0,0,0,1.653,4.92,13.245,13.245,0,0,0,2.591,2.7l.017-6.2C-1676.259,609.98-1677.674,607.3-1677.666,604.626Z" transform="translate(1677.684 -604.626)" fill="#48afd6"/>
            <path id="Path_1555" data-name="Path 1555" d="M-1630.24,605.185c-.006.112-.013.224-.024.336s-.023.2-.038.3-.032.222-.052.333-.04.2-.062.3-.05.217-.079.325-.057.2-.087.3-.069.215-.107.323-.072.193-.109.289q-.068.169-.143.338c-.043.094-.086.189-.132.283-.054.112-.113.223-.173.334-.049.091-.1.182-.152.272-.077.132-.16.264-.244.4-.052.08-.1.16-.157.24-.1.145-.206.288-.314.431-.048.064-.093.128-.143.19q-.271.343-.58.677c-.053.057-.11.113-.164.17q-.243.255-.507.5c-.08.076-.161.152-.244.227q-.157.142-.323.282c-.1.086-.2.172-.308.257s-.231.183-.35.274-.22.168-.334.25-.249.177-.376.265-.236.163-.358.242-.269.173-.406.257c-.171.107-.34.213-.518.317-.442.257-.9.5-1.371.727-.143.071-.291.137-.437.205q-.511.239-1.039.459c-.162.066-.323.133-.486.2q-.591.231-1.2.436c-.113.039-.222.08-.336.117-.174.057-.354.1-.53.156-.463.142-.929.278-1.4.4-.238.061-.481.114-.722.169-.418.1-.839.189-1.264.27-.361.069-.723.135-1.09.192-.156.025-.312.052-.469.075-.558.08-1.119.151-1.684.206-.741.073-1.49.12-2.238.149-.238.009-.478.01-.715.015-.471.01-.942.014-1.412.007-.273,0-.546-.013-.819-.023q-.632-.023-1.262-.068c-.276-.019-.552-.039-.827-.064-.427-.039-.852-.089-1.276-.142-.256-.033-.512-.062-.767-.1-.537-.079-1.07-.175-1.6-.278-.15-.03-.3-.052-.452-.083-.717-.149-1.422-.324-2.114-.518-.489-.136-.972-.28-1.447-.438l-.085-.026q-.853-.287-1.669-.621h0l-.017,6.2c.109.045.219.09.329.132q.658.26,1.34.489c.027.009.056.016.083.026q.631.211,1.277.4c.056.015.115.026.171.041.693.194,1.4.369,2.114.519.02,0,.04.01.061.015.129.026.262.043.392.068.528.1,1.059.2,1.6.278.073.011.146.028.219.038.181.026.364.038.545.061.426.054.851.1,1.28.143.116.01.231.029.348.039.158.012.317.014.475.025q.631.044,1.264.068c.154.006.307.021.46.025.12,0,.239,0,.358,0,.471.008.942,0,1.413-.006.173,0,.348,0,.521,0,.066,0,.129-.011.194-.013.75-.03,1.5-.076,2.24-.149l.045,0c.55-.054,1.095-.124,1.637-.2.158-.023.313-.051.47-.075.252-.04.506-.075.756-.121.113-.02.221-.05.333-.071.426-.082.847-.174,1.265-.271.241-.055.483-.107.721-.168.476-.121.942-.257,1.406-.4.144-.044.293-.078.436-.124l.093-.033c.114-.037.223-.079.336-.117q.609-.206,1.2-.437c.164-.064.324-.13.485-.2q.528-.219,1.039-.459c.146-.068.294-.135.438-.205.468-.231.929-.471,1.37-.727.092-.054.184-.107.273-.162s.162-.1.244-.154c.137-.086.275-.172.408-.259s.239-.16.355-.24.256-.177.38-.268.223-.165.332-.248.238-.183.352-.275.207-.17.307-.256.219-.188.324-.283c.043-.039.091-.077.134-.116s.072-.074.111-.11c.177-.167.345-.335.508-.506.054-.057.111-.113.163-.169q.308-.335.581-.677l.025-.029c.042-.053.076-.107.116-.159.109-.144.216-.288.316-.433.054-.079.1-.16.156-.24.085-.131.167-.264.245-.4.021-.036.046-.072.067-.109.031-.054.054-.108.084-.162.06-.111.119-.223.173-.336.046-.093.09-.188.132-.282q.075-.169.142-.338c.02-.051.045-.1.065-.152s.028-.091.045-.137c.038-.107.073-.215.107-.323s.06-.2.086-.3.055-.217.079-.326c.013-.058.031-.117.043-.177.009-.04.012-.079.019-.119.021-.111.037-.222.053-.334s.028-.2.038-.295.018-.224.024-.336c0-.066.012-.132.014-.2s0-.131,0-.2l.017-6.2C-1630.223,604.922-1630.232,605.054-1630.24,605.185Z" transform="translate(1674.965 -604.662)" fill="#48afd6"/>
          </g>
          <path id="Path_1556" data-name="Path 1556" d="M-1641.027,591.85c-8.766-5.061-22.918-5.061-31.627,0-7.837,4.554-8.579,11.653-2.253,16.717l-9.454,5.328,5.248,3.03,9.474-5.34h0c8.749,3.585,20.915,3.112,28.711-1.418C-1632.219,605.106-1632.265,596.908-1641.027,591.85Zm-3.318,16.345c-6.826,3.966-17.937,3.967-24.807,0s-6.913-10.406-.087-14.373,17.942-3.969,24.818,0S-1637.513,604.225-1644.344,608.2Z" transform="translate(1684.378 -588.055)" fill="#4cadd2"/>
          <g id="Group_1035" data-name="Group 1035" transform="translate(5.248 23.531)">
            <path id="Path_1557" data-name="Path 1557" d="M-1668.144,618.311l-.017,6.2-9.474,5.34.018-6.2Z" transform="translate(1677.635 -618.311)" fill="#48afd6"/>
          </g>
          <g id="Group_1036" data-name="Group 1036" transform="translate(0 25.841)">
            <path id="Path_1558" data-name="Path 1558" d="M-1679.118,624.311l-.018,6.2-5.248-3.03.018-6.2Z" transform="translate(1684.383 -621.281)" fill="#48afd6"/>
          </g>
        </g>
        <g id="Group_1039" data-name="Group 1039" transform="translate(0 24.748)">
          <path id="Path_1559" data-name="Path 1559" d="M-1682.707,627.917c0-.061,0-.123-.009-.184l-.007-.087,0-.037c0-.021,0-.041,0-.062-.006-.062-.013-.125-.021-.188s-.017-.128-.027-.192l0-.009,0-.01c-.009-.058-.019-.116-.03-.174s-.026-.134-.041-.2c-.005-.025-.012-.051-.017-.076l-.01-.041c-.006-.028-.012-.055-.019-.083-.017-.069-.035-.136-.054-.2q-.021-.078-.046-.157l-.006-.023-.007-.024c-.02-.066-.042-.132-.064-.2s-.045-.132-.069-.2l-.015-.039-.012-.031c-.015-.04-.029-.079-.044-.119-.024-.063-.05-.125-.076-.187-.02-.046-.039-.092-.059-.138l-.009-.023-.011-.025c-.027-.062-.056-.125-.085-.187s-.065-.136-.1-.2l-.016-.031-.021-.039c-.027-.055-.054-.108-.083-.162s-.073-.131-.11-.2c-.019-.034-.038-.069-.058-.1l-.023-.041c-.033-.056-.069-.11-.1-.166-.052-.084-.1-.168-.156-.25-.009-.013-.017-.028-.027-.041-.072-.109-.148-.215-.224-.32l-.019-.026,0,0c-.056-.076-.113-.151-.171-.225l-.134-.166-.009-.011-.006-.007c-.049-.059-.1-.117-.149-.174s-.1-.111-.149-.166l-.021-.022-.023-.025-.114-.118c-.053-.054-.107-.108-.162-.16l-.046-.043-.037-.035-.086-.079c-.056-.051-.113-.1-.17-.149l-.071-.058-.038-.032-.061-.049c-.056-.044-.112-.086-.168-.128l-.119-.085-.023-.016-.023-.016c-.053-.037-.107-.072-.161-.107l-.161-.1-.037-.022-1.81-1.045-.121-.068-.156-.081-.1-.048-.023-.011-.027-.013c-.051-.023-.1-.044-.152-.065s-.1-.04-.155-.058l-.029-.01-.025-.008c-.033-.011-.066-.022-.1-.032-.053-.016-.106-.031-.158-.044l-.081-.018-.033-.007-.044-.01c-.057-.011-.113-.02-.168-.027-.037-.005-.073-.008-.108-.011l-.032,0-.03,0c-.061,0-.122-.006-.182-.006-.027,0-.054,0-.081,0l-.06,0-.059,0c-.075.007-.15.018-.223.032l-.005,0c-.021,0-.041.012-.061.017a2.012,2.012,0,0,0-.2.056l-.017.008a1.8,1.8,0,0,0-.3.138l-22.787,13.278a1.8,1.8,0,0,1,.3-.137,1.847,1.847,0,0,1,.222-.065c.02,0,.04-.013.061-.017a2.261,2.261,0,0,1,.287-.036l.06,0a2.461,2.461,0,0,1,.292,0l.034,0a2.831,2.831,0,0,1,.32.048l.033.007c.11.025.223.056.338.094l.025.008a3.692,3.692,0,0,1,.364.145l.023.011q.188.086.381.2l1.81,1.046c.129.075.257.156.383.243l.023.017c.117.082.233.17.347.261l.04.032c.11.091.219.187.326.285l.037.035c.109.1.216.211.321.322l.024.024q.166.179.325.369l.009.011q.159.192.308.394l.02.03c.086.117.168.236.249.358.054.082.105.166.156.25s.087.138.127.208c.021.033.038.068.058.1.067.118.132.237.193.358l.021.041q.111.221.21.446l.01.023c.065.147.123.295.179.443l.011.03c.056.152.108.306.154.459l.008.026c.044.147.083.295.118.443l.01.042c.034.151.064.3.088.45l0,.012c.024.152.042.3.055.45l0,.037q.017.224.018.443c0,.145-.008.285-.02.42l0,.037c-.013.124-.031.243-.052.357l-.009.046c-.023.11-.051.216-.083.318-.005.019-.012.038-.019.057a2.69,2.69,0,0,1-.11.281l-.009.022a2.383,2.383,0,0,1-.156.279c-.009.014-.019.026-.028.04a2.1,2.1,0,0,1-.145.191l-.06.066c-.046.049-.094.1-.144.139-.021.018-.041.037-.063.054a1.744,1.744,0,0,1-.223.156l22.787-13.278a1.864,1.864,0,0,0,.223-.156c.022-.017.042-.036.063-.054.05-.044.1-.09.144-.139l.06-.066a2.1,2.1,0,0,0,.145-.191c.009-.014.02-.026.029-.041l.007-.009a2.569,2.569,0,0,0,.146-.264l0-.006.009-.022c.029-.062.056-.124.081-.191.011-.029.019-.06.029-.09s.013-.038.019-.057.014-.036.019-.054c.019-.064.036-.129.051-.2.005-.022.01-.046.014-.068l.009-.045c0-.025.01-.049.015-.074.01-.059.019-.12.027-.182,0-.033.007-.067.01-.1l0-.037c0-.016,0-.029,0-.045,0-.059.008-.119.011-.18s0-.121,0-.184v-.011C-1682.705,628.031-1682.706,627.974-1682.707,627.917Z" transform="translate(1714.997 -619.877)" fill="#2a476b"/>
          <g id="Group_1038" data-name="Group 1038" transform="translate(0 13.278)">
            <path id="Path_1560" data-name="Path 1560" d="M-1709.647,638.52a8.476,8.476,0,0,1,3.833,6.642c-.007,2.43-1.741,3.421-3.858,2.2l-1.812-1.045a8.484,8.484,0,0,1-3.836-6.641c.007-2.433,1.744-3.423,3.861-2.2Z" transform="translate(1715.319 -636.95)" fill="#2b4674"/>
          </g>
        </g>
      </g>
      <g id="Group_1061" data-name="Group 1061" transform="translate(115.557 132.275)">
        <g id="Group_1044" data-name="Group 1044">
          <g id="Group_1042" data-name="Group 1042">
            <g id="Group_1041" data-name="Group 1041" transform="translate(0.017)">
              <path id="Path_1561" data-name="Path 1561" d="M-1722,477.6c1.878,1.084,1.887,2.838.022,3.921l-10.982,6.383a7.457,7.457,0,0,1-6.77,0l-11.058-6.385c-1.874-1.081-1.883-2.835-.018-3.919l10.982-6.382a7.45,7.45,0,0,1,6.765,0Z" transform="translate(1752.197 -470.404)" fill="#6b9bde"/>
            </g>
            <path id="Path_1562" data-name="Path 1562" d="M-1720.589,482.188c0,.047-.008.093-.012.141s-.008.1-.017.149-.02.082-.031.124-.024.095-.041.142-.033.079-.05.117-.043.1-.069.149-.043.071-.064.106c-.035.057-.071.112-.113.167-.024.033-.051.065-.077.1a2.729,2.729,0,0,1-.2.218c-.027.026-.052.053-.081.079-.046.041-.1.081-.147.121s-.086.071-.134.106-.115.078-.173.116-.118.079-.181.116l-10.982,6.383a5.245,5.245,0,0,1-.669.317c-.061.024-.124.047-.186.07-.145.053-.3.095-.45.138s-.316.086-.479.12c-.191.039-.384.075-.582.1-.047.006-.093.015-.141.019-.266.029-.535.043-.8.045h-.127c-.266,0-.532-.017-.795-.044l-.118-.013a7.53,7.53,0,0,1-.769-.132c-.047-.01-.092-.023-.137-.033a6.5,6.5,0,0,1-.666-.2c-.038-.013-.078-.024-.116-.039a5.2,5.2,0,0,1-.73-.345l-11.058-6.385a2.761,2.761,0,0,1-1.323-1.438,1.643,1.643,0,0,1-.087-.533h0l-.017,5.876a2.392,2.392,0,0,0,1.411,1.971l11.058,6.384a5.258,5.258,0,0,0,.692.332l.039.013c.037.015.078.025.116.039.14.051.281.1.427.145.078.022.159.039.239.058l.136.033c.042.009.083.022.125.03.156.033.314.06.474.082.057.008.114.012.17.019l.119.013c.059.006.117.015.176.019.156.013.313.021.47.025.05,0,.1,0,.148,0h.128c.071,0,.142,0,.214,0q.266-.009.53-.036c.02,0,.04-.006.061-.009.048,0,.095-.014.142-.019.137-.017.274-.033.408-.057.059-.011.114-.031.173-.043.163-.034.321-.075.479-.119.083-.023.172-.037.253-.063s.13-.051.2-.075.125-.046.187-.071a5.156,5.156,0,0,0,.669-.317L-1722,490.01l.059-.034c.044-.027.081-.055.122-.082.059-.039.119-.076.174-.117s.089-.07.134-.1.1-.08.147-.121l.03-.026c.019-.017.032-.036.051-.054a2.683,2.683,0,0,0,.2-.218c.014-.016.032-.031.045-.048s.021-.032.033-.048c.041-.055.078-.11.113-.167.014-.023.034-.047.047-.07s.01-.024.016-.036c.027-.05.048-.1.07-.149.012-.029.029-.057.04-.087,0-.009.005-.019.009-.03.017-.047.029-.095.041-.143.009-.032.021-.064.028-.1,0-.009,0-.017,0-.026.009-.05.013-.1.018-.15,0-.033.01-.065.011-.1v-.042h0Z" transform="translate(1752.219 -473.018)" fill="#6494e0"/>
          </g>
          <g id="Group_1043" data-name="Group 1043" transform="translate(8.251 5.544)">
            <path id="Path_1563" data-name="Path 1563" d="M-1729.9,478.067a4.934,4.934,0,0,0-4.469,0c-.88.512-1.122,1.25-.745,1.89a9.667,9.667,0,0,0-6.492,1l6.762,3.9c1.887-1.156,2.516-2.671,1.7-3.764a4.93,4.93,0,0,0,3.259-.438c1.228-.713,1.221-1.874-.019-2.591" transform="translate(1741.61 -477.532)" fill="#fff"/>
          </g>
        </g>
        <g id="Group_1048" data-name="Group 1048" transform="translate(26.329 15.199)">
          <g id="Group_1046" data-name="Group 1046">
            <g id="Group_1045" data-name="Group 1045" transform="translate(0.017)">
              <path id="Path_1564" data-name="Path 1564" d="M-1688.145,497.142c1.877,1.083,1.887,2.837.022,3.921l-10.982,6.382a7.453,7.453,0,0,1-6.77,0l-11.058-6.384c-1.873-1.082-1.883-2.835-.018-3.919l10.982-6.382a7.453,7.453,0,0,1,6.766,0Z" transform="translate(1718.344 -489.947)" fill="#9cb7ff"/>
            </g>
            <path id="Path_1565" data-name="Path 1565" d="M-1686.735,501.73c0,.047-.008.094-.012.141s-.008.1-.017.15-.02.082-.03.123-.024.095-.041.142-.032.078-.049.117-.043.1-.07.149-.043.071-.065.106c-.034.056-.071.112-.112.167-.025.033-.052.065-.078.1a2.923,2.923,0,0,1-.2.218c-.027.026-.051.053-.08.079-.046.042-.1.082-.148.121s-.086.072-.134.106-.115.078-.173.116-.117.079-.181.117l-10.982,6.382a5.093,5.093,0,0,1-.669.317c-.061.025-.123.048-.186.071-.145.053-.3.095-.45.138s-.316.086-.478.119c-.192.04-.385.076-.582.1-.047.005-.094.014-.141.019-.266.029-.535.043-.8.045h-.128c-.266,0-.532-.016-.795-.044l-.118-.013a7.8,7.8,0,0,1-.769-.132l-.137-.033a6.68,6.68,0,0,1-.666-.2c-.038-.014-.078-.025-.116-.039a5.251,5.251,0,0,1-.73-.345l-11.058-6.384a2.764,2.764,0,0,1-1.323-1.439,1.661,1.661,0,0,1-.087-.532h0l-.016,5.875a2.391,2.391,0,0,0,1.41,1.972l11.058,6.384a5.253,5.253,0,0,0,.693.332l.038.012c.037.015.078.026.116.04.141.051.281.1.428.144.078.023.159.039.238.058.046.012.09.023.137.033s.082.023.125.031c.156.032.314.06.474.082.056.008.113.012.17.019l.12.013c.058.006.117.015.175.02.156.012.313.021.471.025.049,0,.1,0,.148,0h.127c.072,0,.142,0,.214,0,.177-.006.355-.018.531-.035l.06-.009c.048-.005.095-.014.143-.02.136-.017.273-.033.407-.057.06-.01.114-.03.174-.043.164-.033.321-.075.479-.12.083-.023.173-.037.254-.063s.13-.05.2-.074.125-.046.188-.071a5.279,5.279,0,0,0,.668-.317l10.982-6.382.058-.035c.044-.026.081-.054.122-.082.059-.038.12-.076.175-.116s.089-.07.134-.106.1-.08.147-.121l.03-.025c.02-.018.032-.037.051-.054a2.789,2.789,0,0,0,.2-.217c.013-.016.032-.032.044-.048s.021-.033.033-.048c.041-.055.078-.111.113-.167.015-.024.034-.047.047-.071s.01-.023.017-.036c.027-.049.048-.1.07-.149.013-.03.03-.057.041-.087,0-.01,0-.02.009-.03.016-.047.028-.1.04-.143s.022-.065.028-.1c0-.009,0-.017,0-.026.009-.05.012-.1.017-.151,0-.033.01-.065.011-.1v-.042h0Z" transform="translate(1718.365 -492.56)" fill="#50769b"/>
          </g>
          <g id="Group_1047" data-name="Group 1047" transform="translate(7.749 5.055)">
            <path id="Path_1566" data-name="Path 1566" d="M-1703.362,499.324a.42.42,0,0,1,0-.795,1.515,1.515,0,0,1,1.371,0,.42.42,0,0,1,0,.795,1.513,1.513,0,0,1-1.372,0m2.382,1.375a.42.42,0,0,1,0-.794,1.512,1.512,0,0,1,1.372,0,.42.42,0,0,1,0,.794,1.512,1.512,0,0,1-1.372,0m2.3,1.327a.42.42,0,0,1,0-.794,1.513,1.513,0,0,1,1.372,0,.42.42,0,0,1,0,.794,1.512,1.512,0,0,1-1.372,0m2.9-4.48a10.108,10.108,0,0,0-9.171,0c-1.582.92-2.164,2.2-1.757,3.382l-1.689.619,2.217.28a4.64,4.64,0,0,0,1.259,1.031,10.105,10.105,0,0,0,9.17,0c2.525-1.467,2.511-3.846-.029-5.312" transform="translate(1708.401 -496.447)" fill="#fff"/>
          </g>
        </g>
        <g id="Group_1052" data-name="Group 1052" transform="translate(104.594 59.717)">
          <g id="Group_1050" data-name="Group 1050">
            <g id="Group_1049" data-name="Group 1049" transform="translate(0.017)">
              <path id="Path_1567" data-name="Path 1567" d="M-1587.509,554.384c1.878,1.084,1.887,2.838.022,3.922l-10.982,6.382a7.453,7.453,0,0,1-6.77,0L-1616.3,558.3c-1.873-1.082-1.883-2.836-.018-3.919l10.982-6.382a7.452,7.452,0,0,1,6.765,0Z" transform="translate(1617.707 -547.19)" fill="#68b6f4"/>
            </g>
            <path id="Path_1568" data-name="Path 1568" d="M-1586.1,558.973c0,.047-.008.094-.012.141s-.008.1-.017.15-.02.082-.031.123-.024.095-.041.142-.033.078-.05.117-.043.1-.069.149-.043.071-.065.106c-.035.056-.072.112-.113.167-.024.033-.051.065-.077.1a2.763,2.763,0,0,1-.2.217c-.027.026-.052.054-.081.079-.046.041-.1.082-.147.121s-.086.071-.134.106-.115.078-.174.116-.117.079-.18.117l-10.982,6.382a5.255,5.255,0,0,1-.669.317c-.061.025-.124.048-.186.071-.146.053-.3.095-.45.138s-.316.085-.479.119c-.191.04-.384.076-.582.1-.047.006-.094.014-.141.019a7.878,7.878,0,0,1-.8.044c-.043,0-.086,0-.128,0a7.951,7.951,0,0,1-.794-.044l-.119-.013a7.476,7.476,0,0,1-.769-.131l-.137-.034a6.469,6.469,0,0,1-.666-.2c-.038-.014-.079-.025-.116-.04a5.188,5.188,0,0,1-.73-.345l-11.058-6.384a2.761,2.761,0,0,1-1.323-1.439,1.628,1.628,0,0,1-.087-.532h0l-.017,5.875a2.392,2.392,0,0,0,1.411,1.971l11.058,6.385a5.27,5.27,0,0,0,.692.332l.038.012c.038.015.079.026.117.04.14.051.281.1.427.144.078.023.159.039.239.058.045.012.09.023.136.033s.083.022.125.031c.156.032.315.06.474.082.057.008.114.012.17.019l.119.013c.059.006.116.015.176.02q.234.019.47.025c.05,0,.1,0,.148,0h.128c.071,0,.142,0,.214,0q.266-.009.53-.035l.061-.009c.048-.005.095-.014.142-.02.137-.017.274-.033.407-.057.059-.011.115-.031.174-.043.163-.033.321-.075.479-.12.083-.023.172-.036.253-.063s.13-.05.2-.074.125-.046.187-.071a5.264,5.264,0,0,0,.668-.317l10.981-6.382.059-.035c.043-.026.081-.054.122-.082.059-.038.119-.076.174-.116s.089-.07.134-.106.1-.08.147-.121l.03-.025c.019-.018.032-.036.051-.055a2.572,2.572,0,0,0,.2-.217c.014-.016.032-.032.045-.048s.021-.033.033-.048c.041-.055.078-.111.113-.167.014-.024.034-.047.048-.071s.01-.024.016-.036c.026-.049.048-.1.07-.148.013-.029.03-.058.041-.087,0-.01.005-.02.009-.03.017-.047.029-.1.041-.143s.021-.065.028-.1c0-.008,0-.017,0-.026.009-.051.013-.1.018-.151,0-.033.01-.065.011-.1v-.042h0Z" transform="translate(1617.729 -549.803)" fill="#127fc6"/>
          </g>
          <g id="Group_1051" data-name="Group 1051" transform="translate(7.632 4.312)">
            <path id="Path_1569" data-name="Path 1569" d="M-1602.211,558.784c-1.317-.761-1.324-1.995-.02-2.753a5.245,5.245,0,0,1,4.758,0c1.313.758,1.32,1.992.011,2.753a5.241,5.241,0,0,1-4.749,0m9.137-4.055-2.17-1.254-.951.552a10.173,10.173,0,0,0-2.143-.514l0-.779h-3.057l0,.779a9.985,9.985,0,0,0-2.138.514l-.956-.552-2.157,1.254.957.552a3.335,3.335,0,0,0-.881,1.24h-1.345l.01,1.771h1.345a3.421,3.421,0,0,0,.9,1.24l-.95.552,2.171,1.253.95-.552a9.974,9.974,0,0,0,2.143.515l0,.779h3.056l0-.779a10.02,10.02,0,0,0,2.138-.515l.957.552,2.157-1.253-.957-.552a3.343,3.343,0,0,0,.881-1.24h1.345l-.01-1.77h-1.345a3.353,3.353,0,0,0-.9-1.24l.95-.552" transform="translate(1607.915 -552.734)" fill="#fff"/>
          </g>
        </g>
        <g id="Group_1056" data-name="Group 1056" transform="translate(51.938 29.918)">
          <g id="Group_1054" data-name="Group 1054">
            <g id="Group_1053" data-name="Group 1053" transform="translate(0.017)">
              <path id="Path_1570" data-name="Path 1570" d="M-1655.215,516.069c1.878,1.084,1.887,2.837.022,3.921l-10.982,6.382a7.452,7.452,0,0,1-6.77,0L-1684,519.988c-1.873-1.082-1.883-2.835-.018-3.919l10.982-6.382a7.454,7.454,0,0,1,6.766,0Z" transform="translate(1685.414 -508.874)" fill="#4cadd2"/>
            </g>
            <path id="Path_1571" data-name="Path 1571" d="M-1653.8,520.657c0,.047-.008.094-.013.141a1.372,1.372,0,0,1-.017.15c-.007.041-.02.082-.03.123s-.024.1-.041.142-.033.078-.049.117-.044.1-.07.149-.043.071-.065.106c-.034.056-.071.112-.112.167-.025.033-.051.065-.078.1a2.871,2.871,0,0,1-.2.218c-.027.026-.051.053-.08.078-.046.042-.1.082-.148.122s-.086.071-.134.105-.114.078-.173.117-.117.078-.181.116l-10.982,6.382a5.019,5.019,0,0,1-.669.317c-.06.025-.123.048-.186.071-.145.053-.3.095-.45.138s-.316.086-.478.119c-.192.04-.385.075-.582.1-.047.005-.094.015-.141.019-.266.029-.535.043-.805.045h-.127c-.266,0-.532-.016-.795-.044l-.118-.013a7.78,7.78,0,0,1-.769-.132l-.137-.033a6.652,6.652,0,0,1-.666-.2c-.038-.014-.078-.025-.116-.039a5.3,5.3,0,0,1-.73-.345l-11.058-6.384a2.765,2.765,0,0,1-1.323-1.439,1.658,1.658,0,0,1-.087-.532h0l-.016,5.876a2.391,2.391,0,0,0,1.41,1.971l11.058,6.384a5.188,5.188,0,0,0,.693.332l.038.012c.037.015.078.026.116.04.141.051.281.1.428.144.078.023.159.039.238.059l.137.033c.041.009.082.022.124.03.156.032.314.06.475.082.056.008.113.012.169.019.04.005.079.009.12.013.058.006.116.015.175.02q.235.019.471.025c.049,0,.1,0,.148,0s.085,0,.127,0c.072,0,.143,0,.214,0,.177-.006.355-.018.53-.035l.06-.009c.048-.005.095-.014.143-.02.136-.017.273-.032.407-.056.06-.011.114-.031.173-.044.164-.033.321-.075.479-.119.083-.024.173-.037.254-.064s.13-.05.2-.074.125-.046.187-.071a5.273,5.273,0,0,0,.668-.317l10.982-6.382.058-.035c.044-.026.081-.054.122-.082.06-.038.12-.076.174-.116s.089-.07.134-.106.1-.08.147-.121c.01-.009.021-.016.03-.025s.033-.037.051-.054a2.785,2.785,0,0,0,.2-.217c.013-.016.032-.032.045-.048s.021-.033.033-.048c.041-.055.078-.111.113-.167.015-.023.034-.047.047-.071s.01-.023.016-.036a1.637,1.637,0,0,0,.07-.149c.013-.03.03-.057.041-.087,0-.01,0-.019.009-.03.016-.047.028-.1.041-.143s.021-.065.027-.1c0-.009,0-.017,0-.026.009-.05.012-.1.017-.151,0-.033.01-.065.011-.1v-.042h0Z" transform="translate(1685.435 -511.487)" fill="#48afd6"/>
          </g>
          <g id="Group_1055" data-name="Group 1055" transform="translate(7.717 3.425)">
            <path id="Path_1572" data-name="Path 1572" d="M-1669.617,520.172c-.206-.119-.212-.312-.007-.431a.823.823,0,0,1,.749,0,.228.228,0,0,1,0,.431.817.817,0,0,1-.74,0m-3.037-3.392,4.251-2.471,8.9,5.141-4.25,2.47-8.9-5.141m14.931,2.668-10.686-6.17-7.1,4.128,10.687,6.17,7.1-4.128" transform="translate(1675.513 -513.278)" fill="#fff"/>
            <path id="Path_1573" data-name="Path 1573" d="M-1669.2,523.481l-2.57-1.484-1.069.622-.935-.54-.765.444,4.439,2.563.764-.444-.934-.54,1.069-.621" transform="translate(1675.297 -515.216)" fill="#fff"/>
          </g>
        </g>
        <g id="Group_1060" data-name="Group 1060" transform="translate(78.266 45.116)">
          <g id="Group_1058" data-name="Group 1058">
            <g id="Group_1057" data-name="Group 1057" transform="translate(0.017)">
              <path id="Path_1574" data-name="Path 1574" d="M-1621.362,535.611c1.877,1.084,1.887,2.838.022,3.922l-10.981,6.382a7.454,7.454,0,0,1-6.771,0l-11.058-6.385c-1.873-1.081-1.883-2.835-.017-3.919l10.981-6.382a7.452,7.452,0,0,1,6.766,0Z" transform="translate(1651.561 -528.416)" fill="#57c4ff"/>
            </g>
            <path id="Path_1575" data-name="Path 1575" d="M-1619.952,540.2c0,.047-.008.094-.012.141s-.009.1-.017.15-.02.082-.031.123-.024.095-.041.142-.032.078-.049.117-.044.1-.07.149-.042.071-.064.107c-.035.056-.072.112-.113.167-.024.032-.05.065-.077.1a2.744,2.744,0,0,1-.2.217c-.027.026-.052.054-.081.079-.046.041-.1.081-.147.121s-.086.071-.134.106-.115.078-.174.116-.116.079-.181.117l-10.981,6.382a5.3,5.3,0,0,1-.669.317l-.187.071c-.145.052-.3.095-.45.137s-.316.086-.479.12c-.191.039-.384.076-.582.1-.047.006-.093.015-.141.02-.266.028-.536.042-.8.044h-.128a7.943,7.943,0,0,1-.8-.044l-.117-.013a7.518,7.518,0,0,1-.77-.132c-.046-.01-.091-.022-.136-.033a6.444,6.444,0,0,1-.666-.2c-.038-.014-.078-.025-.116-.04a5.257,5.257,0,0,1-.731-.345l-11.058-6.385a2.763,2.763,0,0,1-1.324-1.438,1.689,1.689,0,0,1-.087-.533h0l-.016,5.876a2.39,2.39,0,0,0,1.411,1.971l11.058,6.385a5.215,5.215,0,0,0,.692.331c.012.005.026.009.038.013.038.015.078.026.116.039.141.051.281.1.428.145.078.023.159.039.238.058.046.012.091.023.137.033s.083.022.125.03c.156.033.314.06.474.083.056.008.114.012.17.019l.12.013c.058.006.117.015.176.02q.235.02.471.026c.049,0,.1,0,.148,0h.128c.072,0,.143,0,.214,0q.267-.009.53-.036c.02,0,.041-.006.061-.008.048-.005.094-.014.142-.02.136-.017.273-.033.407-.057.06-.011.114-.031.173-.043.164-.034.322-.075.48-.12.083-.023.172-.037.254-.063s.13-.051.2-.074.126-.047.187-.072a5.118,5.118,0,0,0,.668-.316l10.982-6.382.058-.035c.044-.026.081-.055.123-.082.059-.038.119-.076.173-.116s.09-.071.134-.106.1-.08.148-.121c.009-.009.021-.016.031-.026s.032-.036.05-.054a2.837,2.837,0,0,0,.2-.217c.014-.017.032-.032.045-.048s.02-.033.033-.049c.041-.055.078-.11.112-.166.015-.024.034-.047.047-.071s.011-.024.017-.036c.026-.049.048-.1.07-.149.013-.029.03-.057.041-.087,0-.009.005-.019.009-.029.017-.048.029-.1.041-.144.008-.032.021-.064.027-.1a.222.222,0,0,0,0-.025c.009-.051.013-.1.017-.151,0-.033.01-.065.012-.1v-.042h0Z" transform="translate(1651.582 -531.03)" fill="#488ad5"/>
          </g>
          <g id="Group_1059" data-name="Group 1059" transform="translate(9.165 4.664)">
            <path id="Path_1576" data-name="Path 1576" d="M-1627.8,535.495l-9.647-1.081,1.9,5.581,9.637,1.081-1.893-5.581" transform="translate(1639.274 -534.414)" fill="#fff"/>
            <path id="Path_1577" data-name="Path 1577" d="M-1638.081,537.831l-1.716,1,1.164,3.419,5.906.663h0c-.02-.011.936-.561,1.7-1l-5.892-.66-1.164-3.42" transform="translate(1639.797 -535.173)" fill="#fff"/>
            <path id="Path_1578" data-name="Path 1578" d="M-1625.113,543.253l-1-.121-3.731,2.168.6.349,4.123-2.4" transform="translate(1637.583 -536.352)" fill="#fff"/>
            <path id="Path_1579" data-name="Path 1579" d="M-1630.268,546.6l-.6-.349-1.647.159,1.982,1.145.268-.954" transform="translate(1638.179 -537.044)" fill="#fff"/>
          </g>
        </g>
      </g>
      <g id="Group_1072" data-name="Group 1072" transform="translate(0 150.067)">
        <g id="Group_1066" data-name="Group 1066" transform="translate(0 13.685)">
          <path id="Path_1580" data-name="Path 1580" d="M-1895.189,543.25l-.014,6.988,25.341,14.624,35.167-20.51c.029-2.563.092-5.19.148-7.051l-35.3,20.579-1.419-.821Z" transform="translate(1899.56 -516.752)" fill="#81d7f2"/>
          <path id="Path_1581" data-name="Path 1581" d="M-1869.888,566.547l-25.316-14.609.014-6.989,23.923,13.809,1.379.8Z" transform="translate(1899.56 -518.452)" fill="#91d1f4"/>
          <g id="Group_1065" data-name="Group 1065">
            <g id="Group_1062" data-name="Group 1062" transform="translate(29.689 25.719)">
              <path id="Path_1582" data-name="Path 1582" d="M-1862.625,566.343l38.4-22.395-.005,2.547-38.4,22.395Z" transform="translate(1862.63 -543.949)" fill="#48afd6"/>
            </g>
            <g id="Group_1063" data-name="Group 1063" transform="translate(0 22.395)">
              <path id="Path_1583" data-name="Path 1583" d="M-1871.088,555.994l-.005,2.414-1.419-.82-23.919-13.81-.017,6.985,25.339,14.63,0,2.547-27.824-16.064a4.111,4.111,0,0,1-1.866-3.233l.016-7.641c0-1.187.844-1.668,1.877-1.072Z" transform="translate(1900.805 -539.674)" fill="#48afd6"/>
            </g>
            <g id="Group_1064" data-name="Group 1064" transform="translate(29.712 16.32)">
              <path id="Path_1584" data-name="Path 1584" d="M-1862.6,554.258l38.4-22.394-.005,2.414-38.4,22.394Z" transform="translate(1862.601 -531.863)" fill="#48afd6"/>
            </g>
            <path id="Path_1585" data-name="Path 1585" d="M-1860.347,511.135l-.059-.033-.076-.04-.049-.023-.012-.006-.015-.007-.075-.032-.076-.028-.013,0-.011,0-.051-.016-.078-.021-.036-.009-.016,0-.023-.005c-.028-.005-.055-.01-.082-.013l-.05-.005-.017,0-.016,0c-.03,0-.059,0-.088,0l-.038,0-.029,0-.03,0a.973.973,0,0,0-.108.016h0l-.024.006c-.035.009-.071.017-.1.029l-.008,0a.91.91,0,0,0-.143.066l-38.4,22.395a.857.857,0,0,1,.143-.066.917.917,0,0,1,.113-.033l.024-.007a1.039,1.039,0,0,1,.14-.018h.029a1.1,1.1,0,0,1,.142,0l.017,0a1.4,1.4,0,0,1,.156.023l.015,0a1.556,1.556,0,0,1,.166.046l.011,0a1.915,1.915,0,0,1,.178.071l.012.005c.061.029.123.061.185.1l27.824,16.064,38.4-22.395Z" transform="translate(1900.644 -510.878)" fill="#4cadd2"/>
          </g>
        </g>
        <g id="Group_1071" data-name="Group 1071">
          <path id="Path_1586" data-name="Path 1586" d="M-1895.189,525.652l-.014,6.988,25.341,14.623,35.167-20.509c.029-2.564.092-5.19.148-7.052l-35.3,20.58-1.419-.821Z" transform="translate(1899.56 -499.154)" fill="#81d7f2"/>
          <path id="Path_1587" data-name="Path 1587" d="M-1869.888,548.95l-25.316-14.609.014-6.989,23.923,13.809,1.379.8Z" transform="translate(1899.56 -500.855)" fill="#91d1f4"/>
          <g id="Group_1070" data-name="Group 1070">
            <g id="Group_1067" data-name="Group 1067" transform="translate(29.689 25.719)">
              <path id="Path_1588" data-name="Path 1588" d="M-1862.625,548.746l38.4-22.394-.005,2.547-38.4,22.394Z" transform="translate(1862.63 -526.351)" fill="#6494e0"/>
            </g>
            <g id="Group_1068" data-name="Group 1068" transform="translate(0 22.395)">
              <path id="Path_1589" data-name="Path 1589" d="M-1871.088,538.4l-.005,2.415-1.419-.82-23.919-13.81-.017,6.984,25.339,14.63,0,2.547-27.824-16.064a4.113,4.113,0,0,1-1.866-3.233l.016-7.641c0-1.187.844-1.668,1.877-1.072Z" transform="translate(1900.805 -522.077)" fill="#6494e0"/>
            </g>
            <g id="Group_1069" data-name="Group 1069" transform="translate(29.712 16.32)">
              <path id="Path_1590" data-name="Path 1590" d="M-1862.6,536.661l38.4-22.395-.005,2.414-38.4,22.395Z" transform="translate(1862.601 -514.266)" fill="#6494e0"/>
            </g>
            <path id="Path_1591" data-name="Path 1591" d="M-1860.347,493.537l-.059-.033-.076-.04-.049-.023-.012-.006-.015-.006c-.025-.012-.05-.022-.075-.032l-.076-.029-.013,0-.011,0-.051-.016-.078-.021-.036-.009-.016,0-.023,0-.082-.014-.05,0-.017,0-.016,0-.088,0-.038,0-.029,0-.03,0a.966.966,0,0,0-.108.016h0l-.024.007c-.035.009-.071.017-.1.029l-.008,0a.851.851,0,0,0-.143.066l-38.4,22.395a.923.923,0,0,1,.143-.067.893.893,0,0,1,.113-.032l.024-.007a1.01,1.01,0,0,1,.14-.018l.029,0a1.252,1.252,0,0,1,.142,0l.017,0c.051.005.1.013.156.024l.015,0a1.549,1.549,0,0,1,.166.047l.011,0c.058.02.117.044.178.072l.012.005c.061.028.123.06.185.1L-1870.927,532l38.4-22.394Z" transform="translate(1900.644 -493.281)" fill="#6b9bde"/>
          </g>
        </g>
      </g>
      <g id="Group_1078" data-name="Group 1078" transform="translate(69.897 76.989)">
        <g id="Group_1077" data-name="Group 1077">
          <g id="Group_1074" data-name="Group 1074" transform="translate(0 101.085)">
            <path id="Path_1592" data-name="Path 1592" d="M-1714.148,557.406V572.2c0,7.149-4.686,14.286-14.056,19.73-18.839,10.943-49.479,10.943-68.44,0-9.524-5.5-14.285-12.7-14.285-19.906V557.231c0-7.149,4.685-14.286,14.066-19.73,18.84-10.942,49.479-10.942,68.44,0C-1718.911,543-1714.148,550.2-1714.148,557.406Z" transform="translate(1810.929 -529.293)" fill="#9dbedd"/>
            <g id="Group_1073" data-name="Group 1073">
              <path id="Path_1593" data-name="Path 1593" d="M-1714.148,557.406c0,7.149-4.686,14.286-14.056,19.741-18.839,10.943-49.479,10.943-68.44,0-9.524-5.5-14.285-12.713-14.285-19.917,0-7.149,4.685-14.286,14.066-19.73,18.84-10.942,49.479-10.942,68.44,0C-1718.911,543-1714.148,550.2-1714.148,557.406Z" transform="translate(1810.929 -529.293)" fill="#91d1f4"/>
            </g>
          </g>
          <g id="Group_1076" data-name="Group 1076" transform="translate(28.912)">
            <g id="Group_1075" data-name="Group 1075" transform="translate(0.342 63.583)">
              <path id="Path_1594" data-name="Path 1594" d="M-1751.339,572.155c.25,1.608-3.3,2.47-5.858,3.8a5.938,5.938,0,0,1-5.3.124,4.614,4.614,0,0,1-1.75-1.116c-.616-.885.2-3.762.2-3.762,2.349-.39,4.473-.815,5.915-1.169C-1757.369,569.853-1751.747,569.529-1751.339,572.155Z" transform="translate(1771.349 -500.822)" fill="#2b4674"/>
              <path id="Path_1595" data-name="Path 1595" d="M-1734.4,572.693c.25,1.608-3.3,2.47-5.858,3.8a5.94,5.94,0,0,1-5.3.124,4.612,4.612,0,0,1-1.75-1.116c-.616-.885.2-3.762.2-3.762,2.349-.39,4.472-.815,5.915-1.169C-1740.425,570.391-1734.8,570.067-1734.4,572.693Z" transform="translate(1767.583 -500.941)" fill="#2b4674"/>
              <path id="Path_1596" data-name="Path 1596" d="M-1766.319,552.129h7.286l6.636-70.684-20.709,3.143s-1.294,5.177,2.589,14.607C-1767.353,506.882-1766.519,541.179-1766.319,552.129Z" transform="translate(1773.313 -481.156)" fill="#2b4674"/>
              <path id="Path_1597" data-name="Path 1597" d="M-1751.262,552.047h7.275c.173-13.576.705-63.49.076-67.819-.74-5.085-20.339-2.5-20.339-2.5s5.177,12.758,7.581,19.415C-1754.5,507.144-1751.78,545.328-1751.262,552.047Z" transform="translate(1771.299 -481.073)" fill="#2a476b"/>
            </g>
            <path id="Path_1598" data-name="Path 1598" d="M-1710.852,425.8l-5.915-3c.243-2.083.787-5.756,1.54-5.789,1.347-.067,1.255,2.828,1.255,2.828s3.949-8.566,5.212-7.989c.9.41-.661,3.706-1.548,5.4a.829.829,0,0,0,.552,1.18c.753.2,1.648.636,1.766,1.572A7.027,7.027,0,0,1-1710.852,425.8Z" transform="translate(1761.085 -402.097)" fill="#81aedb"/>
            <path id="Path_1599" data-name="Path 1599" d="M-1770.462,431.676a11.99,11.99,0,0,0-1.206,9.67c1.7,5.557,3.85,14.552,2,19.911-2.818,8.173-3.664,11.273-3.664,11.273s22.828,5.919,27.62-.282l-1.128-17.859-.307-4.863,7.459,5.295a3.669,3.669,0,0,0,5.543-1.66l10.72-24.261-6.2-3.137-8.993,15.982a1.017,1.017,0,0,1-1.644.163c-2.482-2.819-9.189-10.623-13.1-11.8L-1768.256,428Z" transform="translate(1773.659 -405.194)" fill="#9cc8ea"/>
            <path id="Path_1600" data-name="Path 1600" d="M-1763.868,421.546l.053.036Z" transform="translate(1771.556 -404.257)" fill="#a4b7fb"/>
            <path id="Path_1601" data-name="Path 1601" d="M-1761.895,422.789l.084.048Z" transform="translate(1771.117 -404.534)" fill="#a4b7fb"/>
            <path id="Path_1602" data-name="Path 1602" d="M-1757.308,424.639l.117.026Z" transform="translate(1770.097 -404.945)" fill="#a4b7fb"/>
            <path id="Path_1603" data-name="Path 1603" d="M-1764.405,421.161l.126.092Z" transform="translate(1771.675 -404.172)" fill="#a4b7fb"/>
            <path id="Path_1604" data-name="Path 1604" d="M-1764.787,420.873l.107.082Z" transform="translate(1771.76 -404.108)" fill="#a4b7fb"/>
            <path id="Path_1605" data-name="Path 1605" d="M-1764.994,420.71l.066.054Z" transform="translate(1771.806 -404.071)" fill="#a4b7fb"/>
            <path id="Path_1606" data-name="Path 1606" d="M-1761.036,423.253l.09.045Z" transform="translate(1770.926 -404.637)" fill="#a4b7fb"/>
            <path id="Path_1607" data-name="Path 1607" d="M-1755.176,424.842c-.023,0-.047.005-.07.005C-1755.223,424.847-1755.2,424.843-1755.176,424.842Z" transform="translate(1769.639 -404.99)" fill="#a4b7fb"/>
            <path id="Path_1608" data-name="Path 1608" d="M-1756.31,424.8c.057.006.114.01.171.015C-1756.2,424.811-1756.254,424.807-1756.31,424.8Z" transform="translate(1769.876 -404.981)" fill="#a4b7fb"/>
            <path id="Path_1609" data-name="Path 1609" d="M-1764.909,420.779l.095.073Z" transform="translate(1771.787 -404.087)" fill="#a4b7fb"/>
            <path id="Path_1610" data-name="Path 1610" d="M-1764.65,420.979l.19.141Z" transform="translate(1771.729 -404.131)" fill="#a4b7fb"/>
            <path id="Path_1611" data-name="Path 1611" d="M-1764.243,421.279c.091.066.182.131.292.208C-1764.059,421.412-1764.153,421.344-1764.243,421.279Z" transform="translate(1771.639 -404.198)" fill="#a4b7fb"/>
            <path id="Path_1612" data-name="Path 1612" d="M-1761.787,422.851c.189.106.383.208.584.313C-1761.4,423.061-1761.6,422.956-1761.787,422.851Z" transform="translate(1771.093 -404.547)" fill="#a4b7fb"/>
            <path id="Path_1613" data-name="Path 1613" d="M-1753.74,424.494a4.587,4.587,0,0,1-1.416.271,4.566,4.566,0,0,0,1.416-.271Z" transform="translate(1769.619 -404.913)" fill="#a4b7fb"/>
            <path id="Path_1614" data-name="Path 1614" d="M-1757.158,424.672c.22.044.439.076.66.1C-1756.718,424.749-1756.939,424.716-1757.158,424.672Z" transform="translate(1770.064 -404.952)" fill="#a4b7fb"/>
            <path id="Path_1615" data-name="Path 1615" d="M-1760.92,423.311a11.943,11.943,0,0,0,2.809,1.033A11.961,11.961,0,0,1-1760.92,423.311Z" transform="translate(1770.901 -404.65)" fill="#a4b7fb"/>
            <path id="Path_1616" data-name="Path 1616" d="M-1755.435,424.843a6.014,6.014,0,0,1-.656-.023A5.822,5.822,0,0,0-1755.435,424.843Z" transform="translate(1769.827 -404.985)" fill="#a4b7fb"/>
            <path id="Path_1617" data-name="Path 1617" d="M-1763.8,421.592c.4.275.9.6,1.481.931C-1762.9,422.194-1763.4,421.867-1763.8,421.592Z" transform="translate(1771.541 -404.268)" fill="#a4b7fb"/>
            <path id="Path_1618" data-name="Path 1618" d="M-1746.029,409.717l-1.393,2.089-1.323-.557c-.021-.138-2.19-6.945-1.74-2.855.183,1.667,1.259,3.581.055,3.906s-1.824,1.9-1.387,3.52a3.476,3.476,0,0,0,1.449,2.062l-.55.511a4.512,4.512,0,0,1-2.418,2.231l.7,3.893.293.239c-.26-.094-.293-.239-.293-.239s-1.193-1,2.36-.946C-1745.89,423.642-1745.63,413.118-1746.029,409.717Z" transform="translate(1769.214 -401.043)" fill="#a4b7fb"/>
            <path id="Path_1619" data-name="Path 1619" d="M-1754.924,427.767l-.7-3.893a4.563,4.563,0,0,1-1.415.271c-.024,0-.047.005-.071.005a5.819,5.819,0,0,1-.656-.023c-.057,0-.114-.009-.171-.015-.22-.024-.439-.056-.659-.1l-.117-.026a11.936,11.936,0,0,1-2.809-1.033l-.09-.045c-.2-.1-.395-.207-.584-.313l-.084-.048c-.524-.3-.974-.588-1.352-.845v6.837c2.889,1.338,6.153,2.286,8.972.879Z" transform="translate(1771.503 -404.292)" fill="#a4b7fb"/>
            <path id="Path_1620" data-name="Path 1620" d="M-1749.919,406.84s-.338,3.629-2.279,5.4-3.544,4.81-1.688,10.463a37.6,37.6,0,0,1,1.188,4.441c1.427,7.225-4.012,14.181-11.374,13.992a9.583,9.583,0,0,1-1.256-.111,8.206,8.206,0,0,1-2.139-.724,11.281,11.281,0,0,1-5.156-15.1,21.219,21.219,0,0,0,2.282-8.3c.124-5.938,1.182-18.388,11.139-17.545C-1748.207,400.288-1749.919,406.84-1749.919,406.84Z" transform="translate(1773.753 -399.316)" fill="#799bd1"/>
          </g>
        </g>
        <path id="Path_1621" data-name="Path 1621" d="M-1738.1,573.333l-26.084,2.388,27.354,18.01a60.708,60.708,0,0,0,19.016-6.793,37.385,37.385,0,0,0,7.167-5.329Z" transform="translate(1800.538 -437.998)" fill="url(#linear-gradient-7)" style="mix-blend-mode: multiply;isolation: isolate"/>
      </g>
    </g>
  </g>
</svg>
