<svg xmlns="http://www.w3.org/2000/svg" width="98.917" height="120"><g data-name="Group 1898"><g data-name="Group 1891"><g data-name="Group 1890"><path data-name="Path 3180" d="M51.544 10.764h-4.972a4.064 4.064 0 00-4.059 4.059v8.219a.812.812 0 00.812.812h11.467a.812.812 0 00.812-.812v-8.219a4.064 4.064 0 00-4.06-4.059z" fill="#214c85"/></g></g><g data-name="Group 1893"><g data-name="Group 1892"><path data-name="Path 3181" d="M49.062 0a4.881 4.881 0 104.882 4.882A4.887 4.887 0 0049.062 0z" fill="#214c85"/></g></g></g><g data-name="Group 1899"><g data-name="Group 1891"><g data-name="Group 1890"><path data-name="Path 3180" d="M53.622 98.075h-8.327a6.807 6.807 0 00-6.8 6.8v13.766a1.36 1.36 0 001.36 1.36h19.206a1.36 1.36 0 001.36-1.36v-13.767a6.807 6.807 0 00-6.799-6.799z" fill="#214c85"/></g></g><g data-name="Group 1893"><g data-name="Group 1892"><path data-name="Path 3181" d="M49.459 80.047a8.175 8.175 0 108.177 8.177 8.186 8.186 0 00-8.177-8.177z" fill="#214c85"/></g></g></g><g data-name="Group 1900"><g data-name="Group 1891"><g data-name="Group 1890"><path data-name="Path 3180" d="M15.126 98.075H6.799a6.807 6.807 0 00-6.8 6.8v13.766a1.36 1.36 0 001.36 1.36h19.206a1.36 1.36 0 001.36-1.36v-13.767a6.807 6.807 0 00-6.799-6.799z" fill="#214c85"/></g></g><g data-name="Group 1893"><g data-name="Group 1892"><path data-name="Path 3181" d="M10.963 80.047a8.175 8.175 0 108.177 8.177 8.186 8.186 0 00-8.177-8.177z" fill="#214c85"/></g></g></g><g data-name="Group 1901"><g data-name="Group 1891"><g data-name="Group 1890"><path data-name="Path 3180" d="M92.118 98.075h-8.327a6.807 6.807 0 00-6.8 6.8v13.766a1.36 1.36 0 001.36 1.36h19.206a1.36 1.36 0 001.36-1.36v-13.767a6.807 6.807 0 00-6.799-6.799z" fill="#214c85"/></g></g><g data-name="Group 1893"><g data-name="Group 1892"><path data-name="Path 3181" d="M87.955 80.047a8.175 8.175 0 108.177 8.177 8.186 8.186 0 00-8.177-8.177z" fill="#214c85"/></g></g></g><path data-name="Line 27" fill="none" stroke="#214c85" stroke-linecap="round" stroke-width="5" d="M49.14 31.646v22.313"/><path data-name="Line 28" fill="none" stroke="#214c85" stroke-linecap="round" stroke-width="5" d="M87.636 54.142H11.385"/><path data-name="Line 29" fill="none" stroke="#214c85" stroke-linecap="round" stroke-width="5" d="M87.636 71.383V54.142"/><path data-name="Line 30" fill="none" stroke="#214c85" stroke-linecap="round" stroke-width="5" d="M49.14 71.383V54.142"/><path data-name="Line 31" fill="none" stroke="#214c85" stroke-linecap="round" stroke-width="5" d="M11.385 71.383V54.142"/></svg>