<svg xmlns="http://www.w3.org/2000/svg" width="485.24" height="300"><defs><linearGradient id="a" y1=".5" x2="1" y2=".5" gradientUnits="objectBoundingBox"><stop offset="0" stop-color="#7bdaff"/><stop offset="1" stop-color="#59bdef"/></linearGradient><linearGradient id="b" y1=".5" x2="1" y2=".5" gradientUnits="objectBoundingBox"><stop offset=".017" stop-color="#0d316b"/><stop offset=".424" stop-color="#3170ca"/><stop offset=".675" stop-color="#3170ca"/><stop offset=".868" stop-color="#1a488e"/><stop offset="1" stop-color="#0d316b"/></linearGradient><linearGradient id="c" y1=".5" x2="1" y2=".5" gradientUnits="objectBoundingBox"><stop offset="0" stop-color="#134097"/><stop offset=".267" stop-color="#14449a"/><stop offset=".566" stop-color="#1952a3"/><stop offset=".879" stop-color="#2168b2"/><stop offset="1" stop-color="#2573ba"/></linearGradient><linearGradient id="f" y1=".5" x2="1" y2=".5" gradientUnits="objectBoundingBox"><stop offset=".017" stop-color="#0d1f3e"/><stop offset=".424" stop-color="#31619f"/><stop offset=".619" stop-color="#31619f"/><stop offset=".849" stop-color="#1a3761"/><stop offset="1" stop-color="#0d1f3e"/></linearGradient><linearGradient id="g" y1=".5" x2="1" y2=".5" gradientUnits="objectBoundingBox"><stop offset="0" stop-color="#1375ae"/><stop offset=".256" stop-color="#1578b2"/><stop offset=".543" stop-color="#1c82c0"/><stop offset=".844" stop-color="#2893d6"/><stop offset="1" stop-color="#319fe5"/></linearGradient><clipPath id="d"><path data-name="Path 3616" d="M3612.688 1329.278l.17-35.511 16.255 9.561-.17 35.511z" transform="translate(-3612.688 -1293.767)" fill="none"/></clipPath><clipPath id="e"><path data-name="Path 3618" d="M3506.153 1269.086l.173-36.014 34.746 20.436-.173 36.014z" transform="translate(-3506.153 -1233.072)" fill="none"/></clipPath></defs><g data-name="Group 2066"><g data-name="Group 2054"><g data-name="Group 2023"><path data-name="Path 3456" d="M402.248 224.88l-151.806-87.646c-5.64-3.255-14.851-3.255-20.481 0l-74.347 42.914c-5.639 3.255-5.639 8.588 0 11.834l41.2 23.789a14.981 14.981 0 00-2.463 1.112l-45.775 26.425c-5.644 3.246-5.644 8.576 0 11.834l45.775 26.428c5.633 3.263 14.848 3.263 20.472 0l45.792-26.438a11.474 11.474 0 001.949-1.4l44.859 25.889c5.622 3.261 14.841 3.261 20.478 0l74.342-42.923c5.626-3.241 5.626-8.562.005-11.818z" opacity=".3"/><g data-name="Group 2018"><path data-name="Path 3457" d="M159.805 194.396l-4.191-2.412V92.271l94.825-54.745 4.2 2.427z" fill="#7fafd9"/><path data-name="Path 3458" d="M254.638 139.654l-94.833 54.742v-99.7l94.833-54.741z" fill="#62add5"/></g><g data-name="Group 2019"><path data-name="Path 3459" d="M263.559 152.897l-.281-.795c.259-.1 25.942-9.481 23.946-38.895l.858-.064c2.046 30.081-24.245 39.672-24.523 39.754z" fill="#307bcb"/><path data-name="Path 3460" d="M266.841 159.213c-.526 0-.823-.025-.847-.025l.07-.86c.239.015 25.216 1.576 41.818-27.559l.745.409c-15.147 26.589-37.203 28.035-41.786 28.035z" fill="#307bcb"/><path data-name="Path 3461" d="M264.094 154.781l-.188-.854c.188-.024 18.779-4.424 35.42-33.626l.748.424c-16.841 29.569-35.791 34.024-35.98 34.056z" fill="#307bcb"/><path data-name="Path 3462" d="M206.177 202.759l-29.424-16.991v-73.933l29.424 16.989z" fill="#307bcb"/><path data-name="Path 3463" d="M270.76 165.464l-64.583 37.292V128.82l64.583-37.277z" fill="#121214"/><path data-name="Path 3464" d="M206.177 128.821l-29.424-16.989 64.586-37.283 29.421 16.994z" fill="#1a4880"/><path data-name="Path 3465" d="M201.683 167.537l-20.43-11.788v-2.037l20.43 11.806z" fill="#1a4880"/><path data-name="Path 3466" d="M201.683 149.616l-20.43-11.786v-15.906l20.43 11.782z" fill="#1a4880"/><path data-name="Path 3467" d="M201.683 139.079l-20.43-11.782v-.712l20.43 11.786z" fill="#121214"/><path data-name="Path 3468" d="M201.683 144.482l-20.43-11.786v-.721l20.43 11.776z" fill="#121214"/><path data-name="Path 3469" d="M201.683 170.513l-20.43-11.792v-2.028l20.43 11.8z" fill="#2470b7"/><path data-name="Path 3470" d="M198.714 198.432l-14.494-8.371v-27.813l14.493 8.358z" fill="#1a4880"/><path data-name="Path 3471" d="M202.668 156.667c0 1.273-.9 1.776-2 1.127a4.393 4.393 0 01-1.986-3.445c0-1.249.893-1.776 1.986-1.134a4.378 4.378 0 012 3.452z" fill="#3576ab"/><path data-name="Path 3472" d="M201.859 161.4c0 .761-.532 1.067-1.2.679a2.584 2.584 0 01-1.186-2.046c0-.755.532-1.063 1.186-.688a2.6 2.6 0 011.2 2.055z" fill="#121214"/><path data-name="Path 3473" d="M195.848 156.358l-14.6-8.428v-5.042l14.6 8.431z" fill="#1a4880"/><path data-name="Path 3474" d="M194.713 153.54l-12.555-7.176v-.812l12.555 7.194z" fill="#121214"/></g><g data-name="Group 2020"><path data-name="Path 3475" d="M384.843 194.218l-4.254 2.452L234.618 77.129l4.249-2.461 145.977 84.273z" fill="#649dd9"/><path data-name="Path 3476" d="M380.588 196.669l-145.971-84.27V77.128l145.971 84.273z" fill="#7fafd9"/></g><g data-name="Group 2021"><path data-name="Path 3477" d="M307.427 279.626l-4.192-2.427v-99.7l94.828-54.748 4.185 2.427z" fill="#7fafd9"/><path data-name="Path 3478" d="M3665.685 1584.255l-94.82 54.745v-99.695l94.82-54.757z" transform="translate(-3263.438 -1359.374)" fill="url(#a)"/></g><g data-name="Group 2022"><path data-name="Path 3479" d="M404.549 126.924a10.592 10.592 0 00-2.3-1.749L250.443 37.526c-5.64-3.261-14.85-3.261-20.48 0L155.616 80.44a11.074 11.074 0 00-2.3 1.746h-1.929l.014 4.44c.112 2.057 1.5 4.082 4.212 5.646l151.813 87.661c5.621 3.239 14.842 3.239 20.478 0l74.342-42.929c2.779-1.612 4.188-3.73 4.222-5.845v-4.233z" fill="#629bd7"/><path data-name="Path 3480" d="M3378.116 1406.4c-5.636 3.246-14.856 3.246-20.478 0l-151.813-87.655c-5.639-3.251-5.639-8.573 0-11.822l74.347-42.92c5.63-3.261 14.841-3.261 20.48 0l151.806 87.637c5.622 3.264 5.622 8.582 0 11.828z" transform="translate(-3050.21 -1230.61)" fill="url(#b)"/></g></g><g data-name="Group 2026"><path data-name="Path 3481" d="M300.063 69.397c-26.89-.443-32.435-4.464-38.865-9.119-4.221-3.061-9.006-6.531-21.093-9.4l.274-1.148c12.316 2.915 17.2 6.464 21.521 9.591 6.254 4.536 11.663 8.449 38.188 8.894z"/><g data-name="Group 2024"><path data-name="Path 3482" d="M241.49 64.215a2.18 2.18 0 01-2.181 2.167h-33.545a2.169 2.169 0 01-2.17-2.167v-2.037h37.9z" fill="#121214"/><path data-name="Path 3483" d="M241.49 62.851a2.189 2.189 0 01-2.181 2.179h-33.545a2.177 2.177 0 01-2.17-2.179V50.086a2.169 2.169 0 012.17-2.169h33.545a2.18 2.18 0 012.181 2.169z" fill="#1a4880"/><path data-name="Rectangle 290" fill="#121214" d="M209.021 44.911h27.036v14.407h-27.036z"/></g><g data-name="Group 2025"><path data-name="Path 3484" d="M173.3 49.957h98.469V2.513A2.527 2.527 0 00269.253 0h-93.426a2.532 2.532 0 00-2.527 2.513z" fill="#121214"/><path data-name="Path 3485" d="M173.3 51.842a2.529 2.529 0 002.527 2.512h93.426a2.524 2.524 0 002.516-2.512V4.404a2.53 2.53 0 00-2.516-2.519h-93.426a2.535 2.535 0 00-2.527 2.519z" fill="#307bcb"/><path data-name="Rectangle 291" transform="translate(176.267 4.194)" fill="url(#c)" d="M0 0h92.543v48.126H0z"/><path data-name="Rectangle 292" fill="#fff" d="M180.106 6.785h43.644v1.67h-43.644z"/><path data-name="Rectangle 293" fill="#fff" d="M180.106 21.771h6.679v7.91h-6.679z"/><path data-name="Rectangle 294" fill="#fff" d="M189.546 21.771h6.667v7.91h-6.667z"/><path data-name="Rectangle 295" fill="#fff" d="M209.89 21.771h6.67v7.91h-6.67z"/><path data-name="Rectangle 296" fill="#fff" d="M180.106 10.316h63.019v1.679h-63.019z"/><path data-name="Rectangle 297" fill="#fff" d="M180.106 13.852h63.019v1.679h-63.019z"/><path data-name="Rectangle 298" fill="#fff" d="M180.106 34.804h63.019v1.673h-63.019z"/><path data-name="Rectangle 299" fill="#fff" d="M180.106 38.335h83.253v1.679h-83.253z"/><path data-name="Rectangle 300" fill="#fff" d="M180.106 41.872h83.253v1.688h-83.253z"/><path data-name="Rectangle 301" fill="#fff" d="M180.106 45.414h83.253v1.676h-83.253z"/><path data-name="Rectangle 302" fill="#121214" d="M176.267 51.205h92.543v1.115h-92.543z"/></g></g><g data-name="Group 2029"><path data-name="Path 3486" d="M252.011 88.725l-.285-.524c8.182-4.715 14.023-11.034 18.705-16.115 4.421-4.773 7.9-8.534 11.764-9.573l.149.578c-3.692.979-7.126 4.7-11.481 9.394-4.716 5.109-10.585 11.461-18.852 16.24z" fill="#307bcb"/><g data-name="Group 2027"><path data-name="Path 3487" d="M249.618 90.658a1.3 1.3 0 01-.459-.485l-.115-.227a1.069 1.069 0 01-.091-.424c0-.421.3-.606.665-.382a1.442 1.442 0 01.661 1.145c0 .406-.291.576-.661.373z" fill="#307bcb"/><path data-name="Path 3488" d="M249.618 89.139a1.444 1.444 0 01.661 1.146.421.421 0 01-.18.4l2.309-1.321a.5.5 0 00.206-.449 1.48 1.48 0 00-.662-1.13.457.457 0 00-.489-.024l-2.035 1.154-.271.167a.466.466 0 01.461.057z" fill="#121214"/></g><path data-name="Path 3489" d="M220.703 100.72v-2.579a3.432 3.432 0 013.311.015l16.888-9.746a3.617 3.617 0 013.236-.127l54.376 31.341a3.671 3.671 0 013.45-.045v2.488h-.009a1.337 1.337 0 01-.783 1.094l-19.4 11.218a3.576 3.576 0 01-3.212.112l-57.291-32.977a.973.973 0 01-.542-.793z" fill="#3262be"/><path data-name="Path 3490" d="M220.703 100.72v-2.579a3.432 3.432 0 013.311.015l16.888-9.746a3.617 3.617 0 013.236-.127l54.376 31.341a3.671 3.671 0 013.45-.045v2.488h-.009a1.337 1.337 0 01-.783 1.094l-19.4 11.218a3.576 3.576 0 01-3.212.112l-57.291-32.977a.973.973 0 01-.542-.793z" fill="#121214"/><path data-name="Path 3491" d="M221.27 98.971l57.291 33a3.577 3.577 0 003.212-.118l19.4-11.255c.955-.512 1.046-1.379.238-1.851L244.14 85.761a3.523 3.523 0 00-3.236.124l-19.415 11.207c-.947.561-1.06 1.394-.219 1.879z" fill="#1a4880"/><g data-name="Group 2028"><path data-name="Path 3492" d="M294.487 117.326l4.053 2.364.372-.215-4.076-2.336z" fill="#1a4880"/><path data-name="Path 3493" d="M293.648 117.838l4.076 2.333.336-.218-4.061-2.339z" fill="#1a4880"/><path data-name="Path 3494" d="M292.79 118.329l4.1 2.336.336-.209-4.077-2.364z" fill="#1a4880"/><path data-name="Path 3495" d="M296.122 118.295l.764.439.36-.215-.729-.442z" fill="#56a6d5"/></g><path data-name="Path 3496" d="M276.853 116.823l2.2 1.242 2.391-1.388-2.209-1.257z" fill="#2281cb"/><path data-name="Path 3497" d="M282.267 116.722l2.215 1.276 2.4-1.382-2.218-1.249z" fill="#2281cb"/><path data-name="Path 3498" d="M279.551 115.198l2.245 1.264 2.382-1.379-2.186-1.267z" fill="#2281cb"/><path data-name="Path 3499" d="M277.015 113.602l2.2 1.264 2.406-1.379-2.2-1.285z" fill="#2281cb"/><path data-name="Path 3500" d="M271.244 120.023l2.206 1.276 2.415-1.436-2.221-1.24z" fill="#2281cb"/><path data-name="Path 3501" d="M276.902 113.629l2.209 1.27 2.385-1.373-2.2-1.3z" fill="#2281cb"/><path data-name="Path 3502" d="M271.157 123.171l2.2 1.27 2.413-1.388-2.208-1.285z" fill="#2281cb"/><path data-name="Path 3503" d="M268.47 121.623l2.209 1.279 2.406-1.4-2.235-1.267z" fill="#2281cb"/><path data-name="Path 3504" d="M265.776 120.081l2.215 1.258 2.38-1.385-2.187-1.273z" fill="#2281cb"/><path data-name="Path 3505" d="M279.529 118.342l2.2 1.264 2.4-1.388-2.208-1.285z" fill="#2281cb"/><path data-name="Path 3506" d="M274.155 115.241l2.209 1.267 2.384-1.379-2.189-1.279z" fill="#2281cb"/><path data-name="Path 3507" d="M288.023 120.063l2.209 1.27 2.4-1.388-2.2-1.264z" fill="#2281cb"/><path data-name="Path 3508" d="M285.336 118.516l2.194 1.273 2.406-1.418-2.184-1.242z" fill="#2281cb"/><path data-name="Path 3509" d="M290.706 121.635l2.212 1.267 2.418-1.37-2.215-1.3z" fill="#2281cb"/><path data-name="Path 3510" d="M285.244 121.66l2.2 1.276 2.42-1.379-2.22-1.294z" fill="#2281cb"/><path data-name="Path 3511" d="M282.569 120.117l2.189 1.261 2.4-1.379-2.2-1.257z" fill="#2281cb"/><path data-name="Path 3512" d="M282.409 123.317l2.2 1.27 2.432-1.4-2.209-1.27z" fill="#2281cb"/><path data-name="Path 3513" d="M279.726 121.768l2.212 1.27 2.416-1.4-2.209-1.264z" fill="#2281cb"/><path data-name="Path 3514" d="M290.343 121.86l2.209 1.252-5.241 3.024-2.206-1.248z" fill="#2281cb"/><path data-name="Path 3515" d="M279.64 124.911l2.21 1.285 2.417-1.4-2.223-1.279z" fill="#2281cb"/><path data-name="Path 3516" d="M276.962 123.372l2.206 1.255 2.387-1.388-2.2-1.261z" fill="#2281cb"/><path data-name="Path 3517" d="M274.228 124.932l2.39-1.376 4.887 2.818-2.4 1.388z" fill="#2281cb"/><path data-name="Path 3518" d="M284.738 125.103l2.2 1.257-5.131 2.952-2.209-1.23z" fill="#2281cb"/><path data-name="Path 3519" d="M230.442 99.668l13.239 7.633 2.409-1.415-13.232-7.594z" fill="#2281cb"/><path data-name="Path 3520" d="M240.242 87.943l2.183 1.279 2.058-1.194-2.218-1.258z" fill="#2281cb"/><path data-name="Path 3521" d="M276.904 109.165l10.872 6.255 2.044-1.17-10.872-6.27z" fill="#2281cb"/><path data-name="Path 3522" d="M264.188 101.844l10.873 6.261 2.035-1.179-10.87-6.264z" fill="#2281cb"/><path data-name="Path 3523" d="M251.565 94.586l10.866 6.222 2.038-1.161-10.871-6.27z" fill="#2281cb"/><path data-name="Path 3524" d="M243.069 89.652l7.568 4.364 2.054-1.158-7.591-4.4z" fill="#2281cb"/><path data-name="Path 3525" d="M265.455 107.047l2.207 1.3 2.4-1.4-2.209-1.294z" fill="#2281cb"/><path data-name="Path 3526" d="M271.015 110.293l5.118 2.925 2.38-1.388-5.083-2.939z" fill="#2281cb"/><path data-name="Path 3527" d="M262.669 108.656l2.212 1.285 2.4-1.376-2.212-1.285z" fill="#2281cb"/><path data-name="Path 3528" d="M259.908 110.259l2.187 1.282 2.409-1.394-2.2-1.285z" fill="#2281cb"/><path data-name="Path 3529" d="M270.656 110.502l-2.424 1.385 2.75 1.6-2.757 1.582 2.358 1.346 5.152-2.97z" fill="#2281cb"/><path data-name="Path 3530" d="M268.028 108.548l2.209 1.294 2.41-1.4-2.215-1.279z" fill="#2281cb"/><path data-name="Path 3531" d="M265.25 110.147l2.209 1.258 2.4-1.376-2.206-1.282z" fill="#2281cb"/><path data-name="Path 3532" d="M262.472 111.765l2.2 1.242 2.41-1.361-2.2-1.276z" fill="#2281cb"/><path data-name="Path 3533" d="M259.683 113.368l2.22 1.264 2.39-1.4-2.2-1.258z" fill="#2281cb"/><path data-name="Path 3534" d="M257.114 111.877l2.207 1.281 2.392-1.394-2.209-1.294z" fill="#2281cb"/><path data-name="Path 3535" d="M262.697 115.123l5.082 2.93 2.413-1.382-5.108-2.973z" fill="#2281cb"/><path data-name="Path 3536" d="M239.002 91.752l2.219 1.288 2.418-1.406-2.23-1.27z" fill="#2281cb"/><path data-name="Path 3537" d="M236.309 90.204l2.206 1.267 2.4-1.37-2.2-1.285z" fill="#2281cb"/><path data-name="Path 3538" d="M233.536 91.797l2.394-1.409 4.927 2.87-2.4 1.4z" fill="#2281cb"/><path data-name="Path 3539" d="M230.759 93.42l2.4-1.394 4.919 2.846-2.4 1.37z" fill="#2281cb"/><path data-name="Path 3540" d="M227.989 94.992l2.415-1.382 4.239 2.43-2.418 1.4z" fill="#2281cb"/><path data-name="Path 3541" d="M225.186 96.631l2.2 1.273 2.406-1.409-2.2-1.258z" fill="#2281cb"/><path data-name="Path 3542" d="M227.832 98.156l2.215 1.264 2.4-1.388-2.2-1.273z" fill="#2281cb"/><path data-name="Path 3543" d="M256.906 114.983l2.214 1.27 2.421-1.388-2.215-1.279z" fill="#2281cb"/><path data-name="Path 3544" d="M254.338 113.498l2.209 1.255 2.395-1.385-2.2-1.273z" fill="#2281cb"/><path data-name="Path 3545" d="M262.885 105.578l2.2 1.282 2.4-1.388-2.192-1.282z" fill="#2281cb"/><path data-name="Path 3546" d="M260.092 107.186l2.209 1.276 2.42-1.4-2.212-1.267z" fill="#2281cb"/><path data-name="Path 3547" d="M257.313 108.801l2.209 1.249 2.4-1.394-2.193-1.258z" fill="#2281cb"/><path data-name="Path 3548" d="M254.532 110.401l2.22 1.257 2.4-1.367-2.222-1.285z" fill="#2281cb"/><path data-name="Path 3549" d="M251.759 112.003l2.2 1.285 2.42-1.412-2.214-1.249z" fill="#2281cb"/><path data-name="Path 3550" d="M260.302 104.107l2.206 1.243 2.4-1.373-2.212-1.257z" fill="#2281cb"/><path data-name="Path 3551" d="M257.513 105.696l2.215 1.267 2.406-1.373-2.212-1.27z" fill="#2281cb"/><path data-name="Path 3552" d="M254.736 107.316l2.2 1.249 2.413-1.379-2.206-1.276z" fill="#2281cb"/><path data-name="Path 3553" d="M265.475 113.471l2.208 1.27 2.4-1.382-2.2-1.264z" fill="#2281cb"/><path data-name="Path 3554" d="M251.959 108.904l2.2 1.294 2.423-1.4-2.212-1.267z" fill="#2281cb"/><path data-name="Path 3555" d="M249.188 110.532l2.2 1.257 2.4-1.388-2.2-1.276z" fill="#2281cb"/><path data-name="Path 3556" d="M257.771 102.589l2.212 1.288 2.393-1.394-2.2-1.273z" fill="#2281cb"/><path data-name="Path 3557" d="M254.981 104.201l2.206 1.285 2.438-1.4-2.229-1.291z" fill="#2281cb"/><path data-name="Path 3558" d="M252.217 105.816l2.2 1.252 2.409-1.391-2.2-1.258z" fill="#2281cb"/><path data-name="Path 3559" d="M249.427 107.41l2.209 1.276 2.4-1.37-2.223-1.294z" fill="#2281cb"/><path data-name="Path 3560" d="M246.653 109.02l2.195 1.291 2.412-1.412-2.2-1.258z" fill="#2281cb"/><path data-name="Path 3561" d="M255.187 101.129l2.209 1.242 2.406-1.391-2.218-1.243z" fill="#2281cb"/><path data-name="Path 3562" d="M252.407 102.71l2.212 1.27 2.4-1.376-2.2-1.27z" fill="#2281cb"/><path data-name="Path 3563" d="M249.618 104.319l2.212 1.27 2.418-1.388-2.223-1.273z" fill="#2281cb"/><path data-name="Path 3564" d="M246.854 105.926l2.209 1.276 2.412-1.385-2.209-1.267z" fill="#2281cb"/><path data-name="Path 3565" d="M252.592 99.608l2.219 1.281 2.4-1.4-2.212-1.282z" fill="#2281cb"/><path data-name="Path 3566" d="M249.819 101.217l2.207 1.276 2.406-1.379-2.2-1.285z" fill="#2281cb"/><path data-name="Path 3567" d="M247.047 102.81l2.209 1.285 2.386-1.394-2.192-1.273z" fill="#2281cb"/><path data-name="Path 3568" d="M244.26 104.42l2.216 1.294 2.391-1.394-2.209-1.294z" fill="#2281cb"/><path data-name="Path 3569" d="M250.033 98.134l2.209 1.279 2.4-1.391-2.2-1.276z" fill="#2281cb"/><path data-name="Path 3570" d="M247.235 99.743l2.216 1.279 2.421-1.4-2.207-1.276z" fill="#2281cb"/><path data-name="Path 3571" d="M244.475 101.346l2.192 1.258 2.415-1.388-2.2-1.255z" fill="#2281cb"/><path data-name="Path 3572" d="M241.691 102.958l2.215 1.255 2.39-1.367-2.2-1.279z" fill="#2281cb"/><path data-name="Path 3573" d="M247.451 96.661l2.215 1.249 2.4-1.385-2.222-1.243z" fill="#2281cb"/><path data-name="Path 3574" d="M244.668 98.258l2.212 1.264 2.408-1.382-2.2-1.264z" fill="#2281cb"/><path data-name="Path 3575" d="M241.877 99.855l2.22 1.273 2.4-1.385-2.212-1.27z" fill="#2281cb"/><path data-name="Path 3576" d="M239.107 101.473l2.215 1.261 2.416-1.388-2.215-1.258z" fill="#2281cb"/><path data-name="Path 3577" d="M244.919 95.143l2.215 1.285 2.389-1.4-2.186-1.269z" fill="#2281cb"/><path data-name="Path 3578" d="M242.133 96.755l2.2 1.276 2.429-1.4-2.206-1.276z" fill="#2281cb"/><path data-name="Path 3579" d="M239.362 98.364l2.2 1.26 2.406-1.394-2.2-1.249z" fill="#2281cb"/><path data-name="Path 3580" d="M236.575 99.972l2.205 1.258 2.406-1.366-2.221-1.285z" fill="#2281cb"/><path data-name="Path 3581" d="M242.351 93.686l2.206 1.242 2.39-1.382-2.212-1.257z" fill="#2281cb"/><path data-name="Path 3582" d="M239.556 95.283l2.206 1.249 2.406-1.37-2.186-1.282z" fill="#2281cb"/><path data-name="Path 3583" d="M236.769 96.876l2.221 1.264 2.4-1.385-2.207-1.267z" fill="#2281cb"/><path data-name="Path 3584" d="M233.992 98.485l2.214 1.279 2.412-1.4-2.2-1.246z" fill="#2281cb"/><path data-name="Path 3585" d="M244.08 107.544l2.2 1.267 2.412-1.4-2.212-1.276z" fill="#2281cb"/><path data-name="Path 3586" d="M262.792 118.401l2.209 1.246 2.406-1.4-2.209-1.27z" fill="#2281cb"/><path data-name="Path 3587" d="M260.019 116.768l2.192 1.23 2.421-1.382-2.218-1.282z" fill="#2281cb"/></g><g data-name="Group 2031"><path data-name="Path 3588" d="M314.567 132.56l-.257-.527c16.2-7.812 17.957-17.692 19.64-27.235 1.269-7.188 2.6-14.609 10-21.058l.388.446c-7.253 6.315-8.492 13.316-9.8 20.725-1.714 9.691-3.5 19.716-19.971 27.649z" fill="#307bcb"/><path data-name="Path 3589" d="M315.485 138.288l-4.555-2.633 5.335-2.552v2.979a3.731 3.731 0 01-.78 2.206z" fill="#307bcb"/><path data-name="Path 3590" d="M315.485 138.288a7.319 7.319 0 00-.289.361v-2.967l.289-.358z" fill="#121214"/><path data-name="Path 3591" d="M312.675 140.67c-3.932 2.264-9.5 2.752-12.417 1.055a3.042 3.042 0 01-1.756-2.646v-2.964a61.684 61.684 0 017.1-3.012l9.6 2.579v2.967a9.275 9.275 0 01-2.527 2.021z" fill="#307bcb"/><path data-name="Path 3592" d="M312.676 137.7c-3.932 2.27-9.5 2.755-12.418 1.063s-2.1-4.894 1.835-7.179a15.455 15.455 0 013.506-1.442l9.6 5.54a9.435 9.435 0 01-2.523 2.018z" fill="#1a4880"/><path data-name="Path 3593" d="M306.222 130.211l9.136 5.27c.041-.061.081-.1.126-.158l-9.262-5.36z" fill="#307bcb"/><path data-name="Path 3594" d="M305.87 130.303l9.326 5.379c.058-.064.106-.13.162-.2l-9.137-5.27c-.116.032-.236.06-.351.091z" fill="#121214"/><path data-name="Path 3595" d="M315.485 135.323l-4.555-2.642 3.658-2.1c1.928 1.146 2.157 2.979.897 4.742z" fill="#1a4880"/><path data-name="Path 3596" d="M314.43 130.484l-3.658 2.121-4.55-2.642c3.056-.722 6.224-.574 8.208.521z" fill="#1a4880"/><path data-name="Path 3597" d="M313.525 130.902l.106.061.8-.479c.032.009.061.036.086.042a.2.2 0 00.071.055l-.823.467.1.052a.24.24 0 010 .458l-1.552.912a.889.889 0 01-.792 0l-.1-.06-.494.273-.158-.076.495-.282-.1-.06a.241.241 0 010-.458l1.561-.9a.9.9 0 01.8-.005z" fill="#307bcb"/><g data-name="Group 2030"><path data-name="Path 3598" d="M311.334 131.572l.3.176a.727.727 0 00.7 0l1.386-.785a.265.265 0 00.14-.2v.618a.226.226 0 01-.14.188l-1.386.794a.7.7 0 01-.7 0l-.3-.167a.233.233 0 01-.148-.209v-.615a.218.218 0 00.148.2z" fill="#5098dc"/><path data-name="Path 3599" d="M313.719 130.963l-1.386.785a.727.727 0 01-.7 0l-.3-.176a.2.2 0 010-.394l1.384-.806a.851.851 0 01.7 0l.309.179a.251.251 0 01.14.191v.024a.265.265 0 01-.147.197z" fill="#2d7add"/></g></g><g data-name="Group 2032"><path data-name="Path 3600" d="M372.855 107.156l-.02-1.179c1.123-.021 3.815-.079 5.609-.2-.9-.234-2.083-.513-3.3-.8-9.42-2.218-29.024-6.846-33.988-16.746l1.057-.533c4.717 9.415 23.954 13.949 33.208 16.14 4.884 1.149 5.755 1.354 5.67 2.194-.074.745-.45.976-8.236 1.124z" fill="#307bcb"/><path data-name="Path 3601" d="M369.694 107.805h3.389l.008-.006a.588.588 0 00.515-.364 1.91 1.91 0 00.011-1.739.617.617 0 00-.534-.36l-3.407.012z"/><path data-name="Rectangle 303" fill="#1a4880" d="M359.443 22.459h3.167v59.184h-3.167z"/><path data-name="Rectangle 304" fill="#121214" d="M352.906 115.475h25.41v24.365h-25.41z"/><path data-name="Rectangle 305" fill="#1a4880" d="M352.906 113.414h25.41v24.367h-25.41z"/><path data-name="Rectangle 306" fill="#121214" d="M359.443 81.643h3.167v49.026h-3.167z"/><path data-name="Rectangle 307" d="M362.609 112.45h5.999v22.195h-5.999z"/><path data-name="Path 3602" d="M362.609 85.28h8.411V57.548l-8.411-11.943z" fill="#307bcb"/><path data-name="Path 3603" d="M362.609 112.45h8.411V84.728l-8.411-11.952z" fill="#121214"/></g><g data-name="Group 2052"><g data-name="Group 2033"><path data-name="Path 3604" d="M287.356 79.27a1.829 1.829 0 011.818.052l9.339-5.421a1.936 1.936 0 011.774-.055l30.091 17.325a1.993 1.993 0 011.906 0v2.134a.628.628 0 01-.435.588l-10.714 6.228a2.021 2.021 0 01-1.8.082l-31.7-18.268a.448.448 0 01-.283-.412z" fill="#121214"/><path data-name="Path 3605" d="M287.639 79.76l31.7 18.249a2 2 0 001.8-.079l10.714-6.231c.541-.273.6-.745.123-1.015l-31.685-18.27a1.992 1.992 0 00-1.774.1l-10.738 6.182c-.534.285-.588.782-.14 1.064z" fill="#1a4880"/></g><g data-name="Group 2034"><path data-name="Path 3606" d="M323.619 72.206l-.015 19.519 3.344-1.864.016-24.077-1.267.6z" fill="#121214"/><path data-name="Path 3607" d="M299.046 58.045v19.5l24.559 14.176.015-19.519z" fill="#307bcb"/><path data-name="Path 3608" d="M301.126 52.214l-2.063 5.8 24.557 14.188 2.078-5.825z" fill="#307bcb"/><path data-name="Path 3609" d="M302.387 51.614l-1.247.579 24.557 14.188 1.267-.6z" fill="#1a4880"/></g><g data-name="Group 2035"><path data-name="Path 3610" d="M347.532 47.413L278.78 7.702a.858.858 0 00-.922-.054v-.027l-1.974 1.172 1.394 1.979.377-.34v46.769a2.758 2.758 0 001.25 2.128L346.014 98.1l.469 2.194 1.921-1.16h.017a.871.871 0 00.37-.806V49.556a2.681 2.681 0 00-1.259-2.143z" fill="#121214"/><path data-name="Path 3611" d="M345.585 100.216l-68.732-39.683a2.8 2.8 0 01-1.255-2.176V9.57c0-.8.548-1.127 1.255-.737l68.732 39.7a2.815 2.815 0 011.241 2.155v48.79c0 .817-.58 1.102-1.241.738z" fill="#307bcb"/></g><path data-name="Path 3612" d="M345.201 94.868v.564l-68.154-39.356V11.029l.5.288v44.488z" fill="#121214"/><path data-name="Path 3613" d="M3567.816 1254.176v44.48l-67.649-39.065V1215.1z" transform="translate(-3222.613 -1203.789)" fill="url(#c)"/><path data-name="Path 3614" d="M310.318 35.083l-29.98-17.328v-1.666l29.98 17.313z" fill="#fff"/><g data-name="Group 2043"><g data-name="Group 2042"><g data-name="Group 2041"><g data-name="Group 2040" clip-path="url(#d)" transform="translate(325.101 44.556)"><g data-name="Group 2039"><g data-name="Group 2038"><g data-name="Group 2037"><g data-name="Group 2036"><path data-name="Path 3615" d="M16.426 9.561L.171 0l-.17 35.511 16.255 9.561.17-35.511" fill="#fff"/></g></g></g></g></g></g></g></g><g data-name="Group 2051"><g data-name="Group 2050"><g data-name="Group 2049"><g data-name="Group 2048" clip-path="url(#e)" transform="translate(280.082 18.908)"><g data-name="Group 2047"><g data-name="Group 2046"><g data-name="Group 2045"><g data-name="Group 2044"><path data-name="Path 3617" d="M34.919 20.436L.173 0 0 36.014 34.746 56.45l.173-36.014" fill="#fff"/></g></g></g></g></g></g></g></g></g><g data-name="Group 2053"><path data-name="Path 3619" d="M330.433 138.806a11.637 11.637 0 00-3.849-1.285l-2.285-.164a12.333 12.333 0 00-5.984 1.448c-3.367 1.93-3.367 5.073 0 7.009a13.362 13.362 0 0012.118 0c3.346-1.935 3.346-5.078 0-7.008z" fill="#fff"/><path data-name="Path 3620" d="M329.651 139.111a10.212 10.212 0 00-3.363-1.1l-1.986-.137a10.957 10.957 0 00-5.2 1.24c-2.45 1.433-2.833 3.588-1.169 5.224a5.919 5.919 0 011.169-.909 10.864 10.864 0 015.2-1.257l1.986.151a10.3 10.3 0 013.363 1.106 7.159 7.159 0 011.184.909c1.642-1.639 1.242-3.808-1.184-5.227z" fill="#386dba"/><path data-name="Path 3621" d="M326.287 142.32l-1.986-.151a10.86 10.86 0 00-5.2 1.257 5.891 5.891 0 00-1.169.909 4.861 4.861 0 001.169.879 11.664 11.664 0 0010.551 0 5.7 5.7 0 001.184-.879 7.144 7.144 0 00-1.184-.909 10.293 10.293 0 00-3.365-1.106z" fill="#608be8"/><path data-name="Path 3622" d="M330.435 145.815a13.363 13.363 0 01-12.117 0 4.338 4.338 0 01-2.5-3.288l-.025 14.246v.021c0 1.26.844 2.518 2.527 3.488a13.344 13.344 0 0012.117 0c1.775-1.015 2.6-2.363 2.5-3.7v-11.328l.008-2.918c-.01 1.267-.847 2.521-2.51 3.479z" fill="#fff"/><path data-name="Path 3623" d="M308.56 147.066v6.825a3.293 3.293 0 003.3 3.288h3.952v-2.188h-3.952a1.1 1.1 0 01-1.1-1.1v-6.825a1.09 1.09 0 011.1-1.106h3.952v-2.188h-3.952a3.3 3.3 0 00-3.3 3.294z" fill="#fff"/></g></g><g data-name="Group 2065"><g data-name="Group 2055"><path data-name="Path 3624" d="M238.204 208.597c2.651 1.112 6.428.088 7.47 2.388a5.934 5.934 0 01-1.949 5.873c-2.464 1.885-8.914 4.1-10.884 5.461-1.942 1.355-5.8 5.618-7.525 6.379s-6.324 1.055-8.406-.5 1.857-11.373 1.983-13.067 16.663-7.64 19.311-6.534z" fill="#608be8"/><path data-name="Path 3625" d="M244.557 145.776c-4.027-2.852-33.636-1.716-33.636-1.716l.771 21.6 15.851-2.764c-2.252 1.764-4.235 3.567-3.906 4.251-6.185 22.574-5.408 43.711-5.55 46.99.054 5.861 15.2 7.985 20.727-3.536.322-20.535 12.328-60.137 5.743-64.825z" fill="#0f2034"/><path data-name="Path 3626" d="M258.278 222.906c4.433 1.766 12.5 1.921 13.626 3.985a5.9 5.9 0 01-3.821 8.543 118.084 118.084 0 01-16.133 2.3c-5.246 1.179-10.029 1.924-13.085.352-5.4-2.827-1.223-15.479-1.223-15.479s18.073-.813 20.636.299z" fill="#608be8"/><path data-name="Path 3627" d="M245.728 180.129c-6.173 22.57-8.928 42.81-9.088 46.1.051 5.858 17.2 8.295 22.732-3.218.377-25.131 9.875-53.644 9.875-53.644l-15.409 1.806s-8.827 7.471-8.11 8.956z" fill="#1d374e"/></g><g data-name="Group 2056"><path data-name="Path 3628" d="M156.488 239.528a5.559 5.559 0 015.553 5.561v3.313h-1.1a5.558 5.558 0 01-4.454 2.251 5.616 5.616 0 01-4.477-2.251h-1.083v-3.312a5.565 5.565 0 015.561-5.562z" fill="#244ec7"/><path data-name="Path 3629" d="M156.488 242.825a5.558 5.558 0 11-5.56 5.576 5.569 5.569 0 015.56-5.576z" fill="#2f59be"/><path data-name="Path 3630" d="M156.488 245.089a3.236 3.236 0 11-3.25 3.255 3.237 3.237 0 013.25-3.255z" fill="#231f20"/></g><g data-name="Group 2057"><path data-name="Path 3631" d="M253.784 239.528a5.563 5.563 0 015.579 5.561v3.313h-1.1a5.554 5.554 0 01-8.931 0h-1.1v-3.312a5.551 5.551 0 015.552-5.562z" fill="#244ec7"/><path data-name="Path 3632" d="M253.784 242.825a5.558 5.558 0 11-5.543 5.576 5.572 5.572 0 015.543-5.576z" fill="#2f59be"/><path data-name="Path 3633" d="M253.784 245.089a3.237 3.237 0 110 6.473 3.237 3.237 0 010-6.473z" fill="#231f20"/></g><path data-name="Rectangle 308" fill="#231f20" d="M201.363 269.132h6.469v13.373h-6.469z"/><g data-name="Group 2058"><path data-name="Path 3634" d="M198.548 212.048c0-1.936 2.733-3.524 6.053-3.524s6.026 1.588 6.026 3.524v24.085h48.735v4.022c0 1.9-2.75 3.461-6.107 3.461h-42.627v24.61c0 1.954-2.7 3.53-6.026 3.53s-6.035-1.576-6.053-3.53v-24.61h-42.612c-3.354 0-6.108-1.564-6.108-3.461v-4.022h48.72z"/><path data-name="Path 3635" d="M3204.017 1700.448h42.612v-24.61c0-1.939 2.733-3.527 6.053-3.527s6.026 1.588 6.026 3.527v24.61h42.627c3.358 0 6.107 1.564 6.107 3.479s-2.75 3.477-6.107 3.477h-42.627v24.613c0 1.939-2.7 3.522-6.026 3.522s-6.035-1.582-6.053-3.522V1707.4h-42.612c-3.354 0-6.108-1.57-6.108-3.477s2.754-3.475 6.108-3.475z" transform="translate(-3048.081 -1467.793)" fill="url(#f)"/></g><g data-name="Group 2061"><g data-name="Group 2059"><path data-name="Path 3636" d="M200.304 202.03a7.812 7.812 0 012.723-.9l1.6-.106a8.684 8.684 0 014.259 1.01c2.372 1.385 2.372 3.588 0 4.967a9.482 9.482 0 01-8.585 0c-2.37-1.383-2.37-3.602.003-4.971z" fill="#244ec7"/><path data-name="Path 3637" d="M200.304 206.994a9.483 9.483 0 008.584 0 3.06 3.06 0 001.755-2.315l.023 31.9a2.986 2.986 0 01-1.778 2.472 9.389 9.389 0 01-8.584 0 2.89 2.89 0 01-1.773-2.6v-29.868l-.011-2.061a3.064 3.064 0 001.784 2.472z"/></g><g data-name="Group 2060"><path data-name="Path 3638" d="M199.916 189.101a9.3 9.3 0 012.975-.988l1.75-.127a9.776 9.776 0 014.63 1.115c2.594 1.506 2.594 3.919 0 5.422a10.342 10.342 0 01-9.354 0c-2.58-1.503-2.58-3.916-.001-5.422z" fill="#244ec7"/><path data-name="Path 3639" d="M199.913 194.523a10.343 10.343 0 009.355 0 3.387 3.387 0 001.929-2.54l.017 13.374a3.308 3.308 0 01-1.946 2.7 10.3 10.3 0 01-9.355 0 3.12 3.12 0 01-1.921-2.855v-11.119l-.011-2.245a3.279 3.279 0 001.932 2.685z" fill="#231f20"/></g></g><g data-name="Group 2062"><path data-name="Path 3640" d="M178.159 169.694c14.68-8.51 26.312-13.84 28.069-11.346l53.133 31.3-56.705 35.289s-53.331-30.459-53.331-31.507c0-3.911 12.904-14.55 28.834-23.736z" fill="#121214"/><path data-name="Path 3641" d="M231.047 200.226c15.913-9.179 28.819-13.458 28.819-9.534s-12.894 14.537-28.819 23.735-28.826 13.458-28.826 9.54 12.904-14.547 28.826-23.741z"/></g><g data-name="Group 2063"><path data-name="Path 3642" d="M165.218 162.146s-2.364 13.819 11.964 23.406c8.82 5.907 19.995 14.107 33.113 10.065 8.288-2.546 35.434-15.489 35.434-15.489s17.82-.131 23.093-9.346c.455-1.667 4.625-12.519-7.782-14.288a248.787 248.787 0 00-46.017 1.667z" fill="#1d374e"/><path data-name="Path 3643" d="M198.28 96.747l19.686-5.355s12.09-3.782 15.06-3.125c2.952.648 10.652 4.694 8.742 8.794-.792 1.7-7.958-2.548-9.414-2.27-1.476.288-3.669 2.715-3.215 3.736s6.511 3 5.841 4.731c-.66 1.748-7.375-.215-10.548-.136-3.147.076-4.722-3.325-7.337-3.252-2.4.121-13.644 6.643-13.644 6.643l-8.317-3.782z" fill="#5d9bd9"/><path data-name="Path 3644" d="M162.26 82.22c-7.217 10.23 4.335 20.755 4.335 20.755s18.9 11.985 21.173 13.483c15.444-5.921 12.426-15.376 12.426-15.376l-19.049-18.377s-12.432-9.641-18.885-.485z" fill="#163884"/><path data-name="Path 3645" d="M184.445 76.773s1.311-3.067 3.749-3.316a32.965 32.965 0 00-.477 5.161l-3.738 1.521z" fill="#4179c0"/><path data-name="Path 3646" d="M217.278 61.797c1.025 1.133-2.029 11.619-2.767 14.631-.687 2.8-7.676 3.246-7.676 3.246s-1.878 6.07-1.283 10.573-8.513 4.649-16.409 1.258c-10.864-4.658-5.553-10.358-5.553-10.358a22.451 22.451 0 003.141-6.591c1.738-1.685 11.13-17.152 11.13-17.152s20.6-4.006 20.646-2.424c.442 2.734-1.229 6.817-1.229 6.817z" fill="#5d9bd9"/><path data-name="Path 3647" d="M217.814 48.684c3.656 8.479-4.592 12.519-4.677 17.983-1.718-.194-3.261-1.909-5.127 1-1.876 2.885-.267 6.63-2.458 8.652-4.808 4.452-16.417 1.664-18.821-1.761s-3.893-11.546-3.753-20.4 5.708-10.807 13.894-13.795c6.342-2.309 15.685-.339 19.709 2.073 3.3 1.967 3.735 4.36 1.233 6.248z" fill="#1a4880"/><path data-name="Path 3648" d="M218.768 157.691s2.934 10.17-3.423 15.44c-6.666 5.558-16.285 6.079-22.277 4.394-16.341-4.573-27.7-12.324-27.85-15.379-.171-3.048 1.75-9.346 1.75-9.346z" fill="#608be8"/><path data-name="Path 3649" d="M220.89 103.208s-10.535-6.482-15.338-12.961c0 3.667-8.169 3.646-17.114-.66-7.5-3.628-4.848-8.44-4.848-8.44a27.243 27.243 0 01-7.114 1.291c-3.263.224-14.676 6.33-10.271 33.162 3.419 20.828-.18 30.623.026 38.908s21 20.27 40.79 16.7c9.037-1.618 12.79-5.439 11.552-15.8-2.075-17.476 4.73-22.073 4.768-33.44a77.392 77.392 0 00-2.451-18.76z" fill="#163884"/><path data-name="Path 3650" d="M182.426 81.443s-3.524 8.379 11.387 12.167c10.285 2.618 13.109-1.636 13.109-1.636z" fill="#4179c0"/><path data-name="Path 3651" d="M184.451 76.773s-.767 3.242-2.024 4.67c-3.044 10.5 21.587 14.237 24.813 10.04 0 0-.131-4.255-.317-5.8-10.713 3.283-23.301-3.576-22.472-8.91z" fill="#163884"/><path data-name="Path 3652" d="M221.545 132.054v-2.906l-7.852-1.445 6.408 8.894z" fill="#4179c0"/><path data-name="Path 3653" d="M242.446 127.153a86.5 86.5 0 016.924 7.637c8.343-.248 35.583-1.6 42.249-2.1 1.632-.546 8.419-8 11.246-8.764 2.858-.761 12.484 1.191 13.455 2.567a6.639 6.639 0 01.167 6.588c-.783 1.494-7.64 4.036-7.64 4.036s-6.7 4.625-11.264 5.409c-1.986.343-6.121-1.348-6.121-1.348s-31.836 14.11-49.022 9.315c-2.641-.734-11.784-10.937-11.784-10.937z" fill="#5d9bd9"/><path data-name="Path 3654" d="M206.961 104.374c-8.078 9.549 2.494 19.767 2.494 19.767s17.747 14.9 19.907 16.589c15.9-4.524 13.726-14.206 13.726-14.206l-18.911-20.816s-9.966-9.865-17.216-1.334z" fill="#163884"/></g><g data-name="Group 2064"><path data-name="Path 3655" d="M3195.811 1415.842a1.681 1.681 0 011.163-.112l51.762 29.713-7.864 98.128-50.766-28.892c-5.641-3.667-6.534-16.292-5.27-40.887 1.37-27.067 5.943-55.465 10.975-57.95z" transform="translate(-3040.242 -1319.604)" fill="url(#g)"/><path data-name="Path 3656" d="M207.21 125.96c5.025-2.473 6.012 19.1 4.635 46.162-1.374 27.077-4.59 49.369-9.626 51.844-5.019 2.495-4.193-16.495-2.82-43.553s2.79-51.944 7.811-54.453z"/></g></g></g><g data-name="Group 2310"><g data-name="Group 2309" style="isolation:isolate"><g data-name="Group 2068"><g data-name="Group 2067"><path data-name="Path 3657" d="M441.625 255.993v2.027a8.605 8.605 0 00-1.519-1.417l.007-2.032a8.449 8.449 0 011.515 1.421z" fill="#aec0d0"/></g></g><g data-name="Group 2070"><g data-name="Group 2069"><path data-name="Path 3658" d="M442.61 257.51v2.028a6.262 6.262 0 00-.983-1.519v-2.027a5.983 5.983 0 01.986 1.517z" fill="#aec0d0"/></g></g><g data-name="Group 2072"><g data-name="Group 2071"><path data-name="Path 3659" d="M442.61 257.51v2.028a6.262 6.262 0 00-.983-1.519v-2.027a5.983 5.983 0 01.986 1.517z" fill="#aec0d0"/></g></g><g data-name="Group 2074"><g data-name="Group 2073"><path data-name="Path 3660" d="M442.525 257.459l-.006 2.032a5.925 5.925 0 00-.9-1.471v-2.027a5.917 5.917 0 01.9 1.466z" fill="#999998"/></g></g><g data-name="Group 2075"><path data-name="Path 3661" d="M442.61 257.511v2.029l-.087-.049.006-2.032z" fill="#838382"/></g><g data-name="Group 2076"><path data-name="Path 3662" d="M441.625 255.993a5.986 5.986 0 01.986 1.517l-.085-.052a5.934 5.934 0 00-.901-1.465z" fill="#e0dfde"/></g><g data-name="Group 2077"><path data-name="Path 3663" d="M447.192 260.168l-.007 2.027-4.579-2.655v-2.029z" fill="#c9d6e5"/></g><g data-name="Group 2079"><g data-name="Group 2078"><path data-name="Path 3664" d="M442.824 258.445v2.031a4.636 4.636 0 00-.3-.986l.007-2.032a4.838 4.838 0 01.3.987z" fill="#94524b"/></g></g><g data-name="Group 2080"><path data-name="Path 3665" d="M444.386 261.799l-.007 2.034-1.559-3.356v-2.032z" fill="#75403a"/></g><g data-name="Group 2082"><g data-name="Group 2081"><path data-name="Path 3666" d="M442.905 259.298l-.005 2.031a4.754 4.754 0 00-.079-.852v-2.032a4.437 4.437 0 01.082.853z" fill="#999998"/></g></g><g data-name="Group 2083"><path data-name="Path 3667" d="M420.131 255.587l-.006 2.03-7.563 4.416v-2.029z" fill="#aec0d0"/></g><g data-name="Group 2084"><path data-name="Path 3668" d="M438.993 253.845v2.031l-10.937 6.342v-2.03z" fill="#aec0d0"/></g><g data-name="Group 2085"><path data-name="Path 3669" d="M428.057 260.189v2.03l-7.927-4.6.006-2.03z" fill="#787878"/></g><g data-name="Group 2086"><path data-name="Path 3670" d="M447.191 260.168l-.006 2.027-2.8 1.639.006-2.034z" fill="#ad6158"/></g><g data-name="Group 2087"><path data-name="Path 3671" d="M442.525 257.459l.086.052 4.581 2.657-2.8 1.632-1.562-3.354a4.809 4.809 0 00-.305-.987z" fill="#d8796e"/></g><g data-name="Group 2088"><path data-name="Path 3672" d="M444.913 262.933l-.007 2.032-.526-1.128.006-2.034z" fill="#7e7e7e"/></g><g data-name="Group 2089"><path data-name="Path 3673" d="M448.422 260.882l-.006 2.032-3.51 2.048.006-2.032z" fill="#aec0d0"/></g><g data-name="Group 2090"><path data-name="Path 3674" d="M428.057 260.189l-.005 2.03-7.587 4.4.007-2.03z" fill="#a88e26"/></g><g data-name="Group 2091"><path data-name="Path 3675" d="M420.133 255.587l7.925 4.6-7.585 4.4-7.906-4.585z" fill="#d1b031"/></g><g data-name="Group 2092"><path data-name="Path 3676" d="M420.471 264.586l-.007 2.03-7.9-4.587V260z" fill="#7b671a"/></g><g data-name="Group 2094"><g data-name="Group 2093" style="isolation:isolate"><path data-name="Path 3677" d="M442.909 259.298v2.031a4.8 4.8 0 01-.546 2.169 6.014 6.014 0 01-.6.936l-.148.186.006-2.029.149-.188a6 6 0 00.6-.939 4.753 4.753 0 00.544-2.166z" fill="#999998"/><path data-name="Path 3678" d="M441.615 262.591l-.006 2.029a9.349 9.349 0 01-2.516 2.063l.006-2.027a9.515 9.515 0 002.516-2.064z" fill="#b9b9b7"/></g></g><g data-name="Group 2095"><path data-name="Path 3679" d="M439.097 264.656l-.005 2.027-.314.183.006-2.031z" fill="#b4b3b2"/></g><g data-name="Group 2096"><path data-name="Path 3680" d="M436.145 264.884l-.006 2.027-8.087-4.692v-2.03z" fill="#838382"/></g><g data-name="Group 2097"><path data-name="Path 3681" d="M444.073 265.149l-.007 2.031-1.711-3.68.006-2.034z" fill="#7a7978"/></g><g data-name="Group 2098"><path data-name="Path 3682" d="M411.339 260.721l-.006 2.027-7.563 4.415.007-2.029z" fill="#aec0d0"/></g><g data-name="Group 2099"><path data-name="Path 3683" d="M456.031 265.303v2.027l-7.611-4.417.006-2.032z" fill="#c9d6e5"/></g><g data-name="Group 2100"><path data-name="Path 3684" d="M420.472 264.589l-.006 2.03-1.232.714.007-2.03z" fill="#aec0d0"/></g><g data-name="Group 2101"><path data-name="Path 3685" d="M419.239 265.305l-.007 2.03-7.9-4.585.006-2.027z" fill="#787878"/></g><g data-name="Group 2102"><path data-name="Path 3686" d="M441.764 262.408l-.006 2.03-1.523 3.34.007-2.027z" fill="#9b9a99"/></g><g data-name="Group 2103"><path data-name="Path 3687" d="M442.361 261.464l1.711 3.683-3.833.6 1.523-3.343a6.018 6.018 0 00.599-.94z" fill="#78b0dd"/></g><g data-name="Group 2104"><path data-name="Path 3688" d="M444.073 265.148l-.006 2.031-3.832.6.007-2.027z" fill="#5e89ad"/></g><g data-name="Group 2105"><path data-name="Path 3689" d="M440.24 265.747l-.007 2.027-.511 1.13.006-2.031z" fill="#9b9a99"/></g><g data-name="Group 2106"><path data-name="Path 3690" d="M444.531 266.128v2.03l-4.8.746.006-2.03z" fill="#b0afad"/></g><g data-name="Group 2107"><path data-name="Path 3691" d="M436.146 264.884l-.006 2.027-7.565 4.415v-2.027z" fill="#b19629"/></g><g data-name="Group 2108"><path data-name="Path 3692" d="M438.785 264.835l-.006 2.031-5.378 3.138v-2.031z" fill="#b4b3b2"/></g><g data-name="Group 2109"><path data-name="Path 3693" d="M438.788 264.835l-.006 2.031-1.692 3.714.006-2.032z" fill="#508d84"/></g><g data-name="Group 2110"><path data-name="Path 3694" d="M438.784 264.835l-1.692 3.713-3.688-.575z" fill="#76ccc0"/></g><g data-name="Group 2111"><path data-name="Path 3695" d="M437.093 268.548l-.007 2.032-3.686-.576v-2.03z" fill="#508e85"/></g><g data-name="Group 2112"><path data-name="Path 3696" d="M433.405 267.973v2.03l-1.415.827v-2.03z" fill="#b4b3b2"/></g><g data-name="Group 2113"><path data-name="Path 3697" d="M447.896 269.346v2.029l-2.985-6.413.006-2.032z" fill="#753027"/></g><g data-name="Group 2114"><path data-name="Path 3698" d="M428.578 269.299v2.027l-8.11-4.707.007-2.03z" fill="#816d1c"/></g><g data-name="Group 2115"><path data-name="Path 3699" d="M428.057 260.189l8.088 4.7-7.567 4.415-8.106-4.71z" fill="#ddba34"/></g><g data-name="Group 2116"><path data-name="Path 3700" d="M436.646 269.526l-.006 2.031-4.655-.726v-2.03z" fill="#9c9b9a"/></g><g data-name="Group 2117"><path data-name="Path 3701" d="M456.032 265.303v2.027l-7.53 4.4.007-2.032z" fill="#ad483d"/></g><g data-name="Group 2118"><path data-name="Path 3702" d="M448.423 260.882l7.608 4.422-7.527 4.391-.607-.348-2.984-6.417z" fill="#d85c4d"/></g><g data-name="Group 2119"><path data-name="Path 3703" d="M448.504 269.694l-.006 2.032-.605-.351v-2.029z" fill="#7e342c"/></g><g data-name="Group 2120"><path data-name="Path 3704" d="M411.653 269.706l-.007 2.029-7.877-4.571.007-2.029z" fill="#7b5315"/></g><g data-name="Group 2121"><path data-name="Path 3705" d="M411.339 260.721l7.9 4.582-7.587 4.4-7.877-4.571z" fill="#d29027"/></g><g data-name="Group 2122"><path data-name="Path 3706" d="M419.239 265.303l-.006 2.03-7.587 4.4.007-2.029z" fill="#a9721e"/></g><g data-name="Group 2123"><path data-name="Path 3707" d="M448.505 269.694l-.006 2.032-.345.2v-2.032z" fill="#ad483d"/></g><g data-name="Group 2124"><path data-name="Path 3708" d="M449.737 270.412l-.007 2.029-1.232-.716.007-2.032z" fill="#c9d6e5"/></g><g data-name="Group 2125"><path data-name="Path 3709" d="M448.504 269.694l1.232.719-1.054.614-.528-1.128z" fill="#ccc"/></g><g data-name="Group 2126"><path data-name="Path 3710" d="M448.154 269.898v2.032l-.261-.555v-2.029z" fill="#753027"/></g><g data-name="Group 2127"><path data-name="Path 3711" d="M447.897 269.346l.607.348-.35.2z" fill="#d85c4d"/></g><g data-name="Group 2128"><path data-name="Path 3712" d="M427.353 270.011l-.007 2.032-8.111-4.71.007-2.03z" fill="#838382"/></g><g data-name="Group 2129"><path data-name="Path 3713" d="M464.881 270.436l-.006 2.03-7.613-4.422.006-2.027z" fill="#c9d6e5"/></g><g data-name="Group 2130"><path data-name="Path 3714" d="M457.268 266.018l-.006 2.027-7.532 4.4.006-2.029z" fill="#aec0d0"/></g><g data-name="Group 2131"><path data-name="Path 3715" d="M402.545 265.849v2.03l-7.564 4.412.005-2.025z" fill="#aec0d0"/></g><g data-name="Group 2132"><path data-name="Path 3716" d="M411.651 269.706l-.006 2.029-1.23.712v-2.027z" fill="#aec0d0"/></g><g data-name="Group 2133"><path data-name="Path 3717" d="M410.42 270.42v2.027l-7.875-4.567v-2.03z" fill="#787878"/></g><g data-name="Group 2134"><path data-name="Path 3718" d="M448.683 271.026l-.006 2.034-.523-1.133v-2.029z" fill="#6e6e6e"/></g><g data-name="Group 2135"><path data-name="Path 3719" d="M449.736 270.413l-.006 2.029-1.054.618.007-2.033z" fill="#aec0d0"/></g><g data-name="Group 2136"><path data-name="Path 3720" d="M447.34 272.161l-.007 2.03-2.808-6.032v-2.03z" fill="#7a7978"/></g><g data-name="Group 2137"><path data-name="Path 3721" d="M439.728 266.874l-.007 2.03-3.173 6.968v-2.029z" fill="#9b9a99"/></g><g data-name="Group 2138"><path data-name="Path 3722" d="M444.531 266.128l2.809 6.032-10.786 1.684 3.175-6.97z" fill="#469fc3"/></g><g data-name="Group 2139"><path data-name="Path 3723" d="M447.339 272.16l-.006 2.03-10.784 1.682v-2.029z" fill="#357d99"/></g><g data-name="Group 2140"><path data-name="Path 3724" d="M427.352 270.011l-.006 2.032-7.564 4.417v-2.033z" fill="#b27a21"/></g><g data-name="Group 2141"><path data-name="Path 3725" d="M431.989 268.801v2.03l-8.736 5.1.006-2.027z" fill="#b4b3b2"/></g><g data-name="Group 2142"><path data-name="Path 3726" d="M436.554 273.844v2.029l-.052.108.007-2.027z" fill="#9b9a99"/></g><g data-name="Group 2143"><path data-name="Path 3727" d="M419.787 274.43v2.033l-8.136-4.726.007-2.029z" fill="#825817"/></g><g data-name="Group 2144"><path data-name="Path 3728" d="M419.243 265.303l8.111 4.708-7.566 4.415-8.134-4.721z" fill="#de982b"/></g><g data-name="Group 2145"><path data-name="Path 3729" d="M423.254 273.899l-.006 2.027-1.417.831.007-2.029z" fill="#b4b3b2"/></g><g data-name="Group 2146"><path data-name="Path 3730" d="M457.268 266.018l7.613 4.418-7.532 4.394-7.613-4.417z" fill="#d83c2c"/></g><g data-name="Group 2147"><path data-name="Path 3731" d="M457.35 274.83l-.006 2.025-7.613-4.414.006-2.029z" fill="#7e2117"/></g><g data-name="Group 2148"><path data-name="Path 3732" d="M464.881 270.431l-.006 2.03-7.532 4.389.006-2.025z" fill="#ad2f21"/></g><g data-name="Group 2149"><path data-name="Path 3733" d="M436.909 274.836l-.005 2.026-.406-.881.007-2.027z" fill="#7a7978"/></g><g data-name="Group 2150"><path data-name="Path 3734" d="M447.793 273.139l-.007 2.033-10.883 1.69.005-2.025z" fill="#b0afad"/></g><g data-name="Group 2151"><path data-name="Path 3735" d="M423.199 273.932l-.434.941-.927-.144z" fill="#ccc"/></g><g data-name="Group 2152"><path data-name="Path 3736" d="M423.2 273.932v2.029l-.436.937.006-2.025z" fill="#8e8e8e"/></g><g data-name="Group 2153"><path data-name="Path 3737" d="M422.765 274.872l-.006 2.025-.928-.141.007-2.029z" fill="#8f8f8f"/></g><g data-name="Group 2154"><path data-name="Path 3738" d="M410.42 270.42v2.027l-7.59 4.4.007-2.027z" fill="#a76805"/></g><g data-name="Group 2155"><path data-name="Path 3739" d="M402.545 265.849l7.875 4.571-7.589 4.4-7.851-4.558z" fill="#d08208"/></g><g data-name="Group 2156"><path data-name="Path 3740" d="M402.831 274.824l-.007 2.027-7.849-4.559.005-2.025z" fill="#7a4b02"/></g><g data-name="Group 2157"><path data-name="Path 3741" d="M436.503 273.954l-.006 2.027-.461 1.021v-2.029z" fill="#9b9a99"/></g><g data-name="Group 2158"><path data-name="Path 3742" d="M436.041 274.972l.463-1.018.405.882z" fill="#ccc"/></g><g data-name="Group 2159"><path data-name="Path 3743" d="M436.908 274.837v2.029l-.868.136v-2.029z" fill="#aec0d0"/></g><g data-name="Group 2160"><path data-name="Path 3744" d="M418.559 275.148l-.006 2.027-8.138-4.728.007-2.027z" fill="#838382"/></g><g data-name="Group 2161"><path data-name="Path 3745" d="M473.721 275.571l-.006 2.03-7.6-4.422.006-2.027z" fill="#c9d6e5"/></g><g data-name="Group 2162"><path data-name="Path 3746" d="M466.116 271.151l-.007 2.027-7.533 4.4.006-2.031z" fill="#aec0d0"/></g><g data-name="Group 2163"><path data-name="Path 3747" d="M458.583 275.548l-.006 2.031-1.233-.722.006-2.025z" fill="#c9d6e5"/></g><g data-name="Group 2164"><path data-name="Path 3748" d="M393.751 270.986v2.031l-7.571 4.415.006-2.032z" fill="#aec0d0"/></g><g data-name="Group 2165"><path data-name="Path 3749" d="M436.651 269.526l-.006 2.03-2.746 6.034.007-2.029z" fill="#12784d"/></g><g data-name="Group 2166"><path data-name="Path 3750" d="M436.647 269.526l-2.746 6.036-10.646-1.663 8.735-5.1z" fill="#1cae70"/></g><g data-name="Group 2167"><path data-name="Path 3751" d="M433.897 275.562l-.006 2.029-10.645-1.665.006-2.027z" fill="#12794d"/></g><g data-name="Group 2168"><path data-name="Path 3752" d="M401.605 275.537l-.006 2.027-7.844-4.553v-2.031z" fill="#787878"/></g><g data-name="Group 2169"><path data-name="Path 3753" d="M402.832 274.824l-.007 2.027-1.23.714.006-2.027z" fill="#aec0d0"/></g><g data-name="Group 2170"><path data-name="Path 3754" d="M433.457 276.539l-.007 2.029-10.691-1.671.006-2.025z" fill="#9c9b9a"/></g><g data-name="Group 2171"><path data-name="Path 3755" d="M422.766 274.869l-.006 2.025-1.336 2.9v-2.027z" fill="#9b9a99"/></g><g data-name="Group 2172"><path data-name="Path 3756" d="M422.766 274.869l-.006 2.025-1.336 2.9v-2.027z" fill="#15723c"/></g><g data-name="Group 2173"><path data-name="Path 3757" d="M451.926 277.994l-.007 2.032-3.243-6.965.007-2.033z" fill="#6c1a11"/></g><g data-name="Group 2174"><path data-name="Path 3758" d="M449.735 270.413l7.613 4.417-5.424 3.164-3.243-6.967z" fill="#c83423"/></g><g data-name="Group 2175"><path data-name="Path 3759" d="M457.349 274.827l-.006 2.025-5.424 3.17.007-2.032z" fill="#a0291b"/></g><g data-name="Group 2176"><path data-name="Path 3760" d="M457.349 274.827l1.234.719-6.133 3.576-.524-1.132z" fill="#ccc"/></g><g data-name="Group 2177"><path data-name="Path 3761" d="M452.45 279.126l-.007 2.03-.525-1.13.007-2.032z" fill="#6e6e6e"/></g><g data-name="Group 2178"><path data-name="Path 3762" d="M458.583 275.544l-.006 2.029-6.133 3.578.007-2.03z" fill="#aec0d0"/></g><g data-name="Group 2179"><path data-name="Path 3763" d="M450.603 279.172l-.007 2.029-2.81-6.03.007-2.033z" fill="#7a7978"/></g><g data-name="Group 2180"><path data-name="Path 3764" d="M410.422 270.42l8.138 4.728-7.566 4.412-8.162-4.736z" fill="#dc8a09"/></g><g data-name="Group 2181"><path data-name="Path 3765" d="M418.559 275.147l-.007 2.027-7.566 4.415.006-2.031z" fill="#b06e06"/></g><g data-name="Group 2182"><path data-name="Path 3766" d="M410.994 279.559l-.007 2.031-8.162-4.739.007-2.027z" fill="#805003"/></g><g data-name="Group 2183"><path data-name="Path 3767" d="M473.722 275.572l-.006 2.03-7.527 4.391.006-2.029z" fill="#af1607"/></g><g data-name="Group 2184"><path data-name="Path 3768" d="M466.193 279.964l-.006 2.029-7.611-4.415.006-2.031z" fill="#800d03"/></g><g data-name="Group 2185"><path data-name="Path 3769" d="M466.115 271.151l7.6 4.418-7.526 4.393-7.612-4.417z" fill="#db1c0a"/></g><g data-name="Group 2186"><path data-name="Path 3770" d="M421.839 274.728l-.007 2.029-8.736 5.1.006-2.031z" fill="#b4b3b2"/></g><g data-name="Group 2187"><path data-name="Path 3771" d="M393.755 270.986l7.846 4.556-7.588 4.4-7.827-4.546z" fill="#d06f08"/></g><g data-name="Group 2188"><path data-name="Path 3772" d="M401.601 275.537l-.006 2.027-7.589 4.4.007-2.027z" fill="#a75805"/></g><g data-name="Group 2189"><path data-name="Path 3773" d="M394.013 279.942l-.007 2.027-7.826-4.542.006-2.032z" fill="#7a3f02"/></g><g data-name="Group 2190"><path data-name="Path 3774" d="M409.767 280.276v2.029l-8.168-4.741.006-2.027z" fill="#838382"/></g><g data-name="Group 2191"><path data-name="Path 3775" d="M482.566 280.701v2.032l-7.614-4.419.006-2.027z" fill="#c9d6e5"/></g><g data-name="Group 2192"><path data-name="Path 3776" d="M466.194 279.964l-.006 2.029-8.389 4.895v-2.027z" fill="#a21102"/></g><g data-name="Group 2193"><path data-name="Path 3777" d="M467.422 280.677v2.031l-1.235-.716.006-2.029z" fill="#888"/></g><g data-name="Group 2194"><path data-name="Path 3778" d="M474.954 276.287l-.006 2.027-7.526 4.394v-2.03z" fill="#aec0d0"/></g><g data-name="Group 2195"><path data-name="Path 3779" d="M384.964 276.112l-.007 2.029-7.566 4.414.006-2.027z" fill="#aec0d0"/></g><g data-name="Group 2196"><path data-name="Path 3780" d="M413.1 279.823l-.006 2.031-1.417.826.007-2.03z" fill="#b4b3b2"/></g><g data-name="Group 2197"><path data-name="Path 3781" d="M392.781 280.65v2.03l-7.822-4.54.006-2.029z" fill="#787878"/></g><g data-name="Group 2198"><path data-name="Path 3782" d="M394.011 279.938l-.007 2.031-1.229.712v-2.027z" fill="#aec0d0"/></g><g data-name="Group 2199"><path data-name="Path 3783" d="M450.602 279.172l-.007 2.029-10.906 1.7v-2.032z" fill="#1274aa"/></g><g data-name="Group 2200"><path data-name="Path 3784" d="M439.694 280.872v2.032l-2.787-6.042.005-2.026z" fill="#0a4f76"/></g><g data-name="Group 2201"><path data-name="Path 3785" d="M447.793 273.139l2.809 6.034-10.908 1.7-2.786-6.036z" fill="#1994d9"/></g><g data-name="Group 2202"><path data-name="Path 3786" d="M421.428 277.769v2.027l-1.444 3.133.006-2.032z" fill="#15723c"/></g><g data-name="Group 2203"><path data-name="Path 3787" d="M419.986 280.897l-.007 2.032-6.884-1.075.006-2.031z" fill="#15743c"/></g><g data-name="Group 2204"><path data-name="Path 3788" d="M422.763 274.872l-1.338 2.9-1.442 3.128-6.885-1.074 8.737-5.095z" fill="#20a759"/></g><g data-name="Group 2205"><path data-name="Path 3789" d="M392.78 280.65v2.031l-1.256.727.006-2.027z" fill="#a74005"/></g><g data-name="Group 2206"><path data-name="Path 3790" d="M392.78 280.654v2.027l-1.256.727.006-2.027z" fill="#aec0d0"/></g><g data-name="Group 2207"><path data-name="Path 3791" d="M451.057 280.15l-.006 2.032-10.913 1.7.006-2.029z" fill="#b0afad"/></g><g data-name="Group 2208"><path data-name="Path 3792" d="M436.041 274.972v2.029l-3.175 6.964.006-2.028z" fill="#9b9a99"/></g><g data-name="Group 2209"><path data-name="Path 3793" d="M439.695 280.87v2.032l-6.83 1.061.006-2.028z" fill="#116da0"/></g><g data-name="Group 2210"><path data-name="Path 3794" d="M440.145 281.853l-.007 2.029-.448-.978v-2.032z" fill="#7a7978"/></g><g data-name="Group 2211"><path data-name="Path 3795" d="M419.534 281.876l-7.849-1.227 1.416-.826 6.885 1.074z" fill="#ccc"/></g><g data-name="Group 2212"><path data-name="Path 3796" d="M419.533 281.875l-.006 2.03-7.849-1.227.007-2.03z" fill="#8f8f8f"/></g><g data-name="Group 2213"><path data-name="Path 3797" d="M419.982 280.897l-.006 2.032-.452.978.006-2.03z" fill="#8e8e8e"/></g><g data-name="Group 2214"><path data-name="Path 3798" d="M436.909 274.837l2.786 6.036-6.828 1.065 3.173-6.965z" fill="#178bcd"/></g><g data-name="Group 2215"><path data-name="Path 3799" d="M433.457 276.54l-.006 2.029-2.746 6.032.007-2.033z" fill="#177e43"/></g><g data-name="Group 2216"><path data-name="Path 3800" d="M433.456 276.539l-2.746 6.028-10.725-1.671 1.442-3.128 1.337-2.9z" fill="#1cae70"/></g><g data-name="Group 2217"><path data-name="Path 3801" d="M430.711 282.568l-.006 2.033-10.723-1.672v-2.032z" fill="#177f44"/></g><g data-name="Group 2218"><path data-name="Path 3802" d="M454.126 282.725l-.007 2.029-1.676-3.6.007-2.03z" fill="#6d0900"/></g><g data-name="Group 2219"><path data-name="Path 3803" d="M432.864 281.938l-.006 2.027-.513 1.132.007-2.03z" fill="#9b9a99"/></g><g data-name="Group 2220"><path data-name="Path 3804" d="M439.695 280.87l.45.981-7.791 1.213.513-1.129z" fill="#ccc"/></g><g data-name="Group 2221"><path data-name="Path 3805" d="M440.145 281.853l-.007 2.029-7.791 1.214.007-2.03z" fill="#aec0d0"/></g><g data-name="Group 2222"><path data-name="Path 3806" d="M409.765 280.276v2.029l-7.568 4.413v-2.027z" fill="#b05f06"/></g><g data-name="Group 2223"><path data-name="Path 3807" d="M411.686 280.649l-.007 2.03-4.741 2.769v-2.032z" fill="#b4b3b2"/></g><g data-name="Group 2224"><path data-name="Path 3808" d="M430.26 283.551v2.027l-10.728-1.672.006-2.03z" fill="#9c9b9a"/></g><g data-name="Group 2225"><path data-name="Path 3809" d="M457.805 284.86v2.027l-3.681-2.134.007-2.029z" fill="#770a00"/></g><g data-name="Group 2226"><path data-name="Path 3810" d="M455.071 284.756l-.006 2.031-.946-2.034.007-2.029z" fill="#6e6e6e"/></g><g data-name="Group 2227"><path data-name="Path 3811" d="M402.2 284.693v2.027l-8.189-4.75.007-2.027z" fill="#804403"/></g><g data-name="Group 2228"><path data-name="Path 3812" d="M401.601 275.537l8.166 4.739-7.566 4.415-8.187-4.75z" fill="#dc7709"/></g><g data-name="Group 2229"><path data-name="Path 3813" d="M458.583 275.544l7.612 4.415-8.391 4.9-3.678-2.136-1.676-3.6z" fill="#cb1705"/></g><g data-name="Group 2230"><path data-name="Path 3814" d="M474.955 276.287l7.611 4.414-7.527 4.4-7.613-4.419z" fill="#b90007"/></g><g data-name="Group 2231"><path data-name="Path 3815" d="M475.034 285.096l-.006 2.031-7.61-4.419v-2.03z" fill="#6c0001"/></g><g data-name="Group 2232"><path data-name="Path 3816" d="M482.566 280.705v2.032l-7.53 4.394.006-2.031z" fill="#950004"/></g><g data-name="Group 2233"><path data-name="Path 3817" d="M406.942 283.416l-.005 2.032-2.548 1.486.007-2.029z" fill="#b4b3b2"/></g><g data-name="Group 2234"><path data-name="Path 3818" d="M391.525 281.381l-.006 2.027-6.332 3.677.007-2.032z" fill="#a74005"/></g><g data-name="Group 2235"><path data-name="Path 3819" d="M385.193 285.053l-.006 2.032-7.8-4.53.006-2.027z" fill="#7a2e02"/></g><g data-name="Group 2236"><path data-name="Path 3820" d="M384.956 276.112l7.82 4.538-1.255.73-6.332 3.672-7.8-4.526z" fill="#d05208"/></g><g data-name="Group 2237"><path data-name="Path 3821" d="M391.525 281.381l-.006 2.027-6.332 3.677.007-2.032z" fill="#b4b3b2"/></g><g data-name="Group 2238"><path data-name="Path 3822" d="M400.975 285.409l-.007 2.03-8.192-4.759v-2.027z" fill="#838382"/></g><g data-name="Group 2239"><path data-name="Path 3823" d="M467.427 280.678v2.03l-8.389 4.9.007-2.033z" fill="#aec0d0"/></g><g data-name="Group 2240"><path data-name="Path 3824" d="M485.24 280.772v2.03l-8.8 5.134.005-2.027z" fill="#a2afbb"/></g><g data-name="Group 2241"><path data-name="Path 3825" d="M475.039 285.098l-.007 2.03-8.391 4.9.006-2.029z" fill="#880003"/></g><g data-name="Group 2242"><path data-name="Path 3826" d="M476.436 285.91v2.027l-1.4-.809.006-2.027z" fill="#c9d6e5"/></g><g data-name="Group 2243"><path data-name="Path 3827" d="M467.425 280.678l7.613 4.418-8.392 4.9-7.608-4.42z" fill="#aa0006"/></g><g data-name="Group 2244"><path data-name="Path 3828" d="M440.109 254.572l45.13 26.2-8.805 5.137-1.4-.81 7.527-4.4-7.611-4.414-7.528 4.391-1.232-.714 7.527-4.393-7.6-4.418-7.534 4.394-1.234-.718 7.532-4.394-7.612-4.419-7.532 4.4-1.232-.719 7.527-4.391-7.608-4.422-3.51 2.048-.526-1.131 2.8-1.632-4.581-2.657a5.992 5.992 0 00-.986-1.517 8.453 8.453 0 00-1.512-1.421z" fill="#e5e8eb"/></g><g data-name="Group 2245"><path data-name="Path 3829" d="M438.994 253.846l-10.937 6.343-7.926-4.6-7.566 4.417 7.906 4.585-1.232.714-7.9-4.582-7.563 4.413 7.877 4.571-1.232.714-7.875-4.571-7.564 4.417 7.85 4.558-1.23.714-7.845-4.556-7.57 4.414 7.826 4.543-1.23.715-1.255.727 1.255-.731-7.82-4.538-7.566 4.415 7.8 4.525-1.391.808-9.078-5.267 45.8-26.724c5.078-2.969 13.333-2.976 18.466-.024z" fill="#d3d6d9"/></g><g data-name="Group 2246"><path data-name="Path 3830" d="M383.801 285.861l-.006 2.029-9.077-5.267v-2.029z" fill="#66788a"/></g><g data-name="Group 2247"><path data-name="Path 3831" d="M385.193 285.057l-.005 2.029-1.393.808.007-2.029z" fill="#aec0d0"/></g><g data-name="Group 2248"><path data-name="Path 3832" d="M453.865 286.184l-.006 2.028-2.807-6.031.006-2.032z" fill="#7a7978"/></g><g data-name="Group 2249"><path data-name="Path 3833" d="M406.942 283.416v2.032l-1.256 2.759.006-2.031z" fill="#8d8d8d"/></g><g data-name="Group 2250"><path data-name="Path 3834" d="M432.353 283.066l-.007 2.03-1.636 3.6v-2.03z" fill="#9b9a99"/></g><g data-name="Group 2251"><path data-name="Path 3835" d="M453.865 286.185l-.006 2.028-10.939 1.7.007-2.027z" fill="#0e6189"/></g><g data-name="Group 2252"><path data-name="Path 3836" d="M451.058 280.15l2.808 6.034-10.939 1.7-2.781-6.036z" fill="#157cb0"/></g><g data-name="Group 2253"><path data-name="Path 3837" d="M442.925 287.889l-.006 2.027-2.781-6.034.006-2.029z" fill="#08425f"/></g><g data-name="Group 2254"><path data-name="Path 3838" d="M419.533 281.876l-.005 2.03-2.782 6.024.007-2.032z" fill="#58ad4c"/></g><g data-name="Group 2255"><path data-name="Path 3839" d="M419.533 281.875l-2.78 6.023-11.065-1.723 1.255-2.759 4.742-2.767z" fill="#198346"/></g><g data-name="Group 2256"><path data-name="Path 3840" d="M416.752 287.899l-.006 2.032-11.065-1.725.006-2.031z" fill="#58ad4c"/></g><g data-name="Group 2257"><path data-name="Path 3841" d="M430.715 286.665v2.03l-.927 2.031.005-2.027z" fill="#9b9a99"/></g><g data-name="Group 2258"><path data-name="Path 3842" d="M443.378 288.865v2.034l-.455-.983.007-2.027z" fill="#7a7978"/></g><g data-name="Group 2259"><path data-name="Path 3843" d="M454.321 287.162v2.029l-10.941 1.708v-2.034z" fill="#b0afad"/></g><g data-name="Group 2260"><path data-name="Path 3844" d="M416.302 288.878l-.006 2.034-11.06-1.728.006-2.032z" fill="#8f8f8f"/></g><g data-name="Group 2261"><path data-name="Path 3845" d="M416.753 287.899l-.007 2.032-.45.981.006-2.034z" fill="#8e8e8e"/></g><g data-name="Group 2262"><path data-name="Path 3846" d="M432.068 289.581v2.032l-1.354-2.918v-2.03z" fill="#073d58"/></g><g data-name="Group 2263"><path data-name="Path 3847" d="M442.926 287.889l-.006 2.027-10.855 1.7v-2.032z" fill="#0d5981"/></g><g data-name="Group 2264"><path data-name="Path 3848" d="M440.145 281.853l2.781 6.036-10.857 1.692-1.354-2.916 1.639-3.6z" fill="#1374a6"/></g><g data-name="Group 2265"><path data-name="Path 3849" d="M430.26 283.552v2.028l-2.746 6.031.006-2.029z" fill="#126534"/></g><g data-name="Group 2266"><path data-name="Path 3850" d="M427.516 289.581l-.006 2.029-10.761-1.679.006-2.032z" fill="#126635"/></g><g data-name="Group 2267"><path data-name="Path 3851" d="M430.261 283.551l-2.744 6.03-10.761-1.682 2.777-6.023z" fill="#1c944e"/></g><g data-name="Group 2268"><path data-name="Path 3852" d="M466.648 289.994l-.006 2.029-7.608-4.415.007-2.034z" fill="#630001"/></g><g data-name="Group 2269"><path data-name="Path 3853" d="M393.407 289.821v2.03l-8.217-4.767.007-2.032z" fill="#803103"/></g><g data-name="Group 2270"><path data-name="Path 3854" d="M400.979 285.409l-.007 2.03-7.564 4.412v-2.03z" fill="#b04506"/></g><g data-name="Group 2271"><path data-name="Path 3855" d="M392.781 280.65l8.194 4.759-7.568 4.412-8.214-4.768 6.333-3.672z" fill="#dc5609"/></g><g data-name="Group 2272"><path data-name="Path 3856" d="M443.378 288.866v2.034l-10.853 1.688.006-2.029z" fill="#aec0d0"/></g><g data-name="Group 2273"><path data-name="Path 3857" d="M427.071 290.56v2.029l-10.77-1.676.006-2.033z" fill="#9c9b9a"/></g><g data-name="Group 2274"><path data-name="Path 3858" d="M475.04 285.099l1.4.81-9.664 5.639-11.7-6.792-.945-2.032 3.679 2.136 8.39-4.9 1.232.714-8.387 4.9 7.608 4.42z" fill="#c4ccd4"/></g><g data-name="Group 2275"><path data-name="Path 3859" d="M476.43 285.909v2.027l-9.663 5.639v-2.027z" fill="#7e8fa0"/></g><g data-name="Group 2276"><path data-name="Path 3860" d="M466.77 291.548v2.027l-11.7-6.789.006-2.03z" fill="#66788a"/></g><g data-name="Group 2277"><path data-name="Path 3861" d="M404.397 284.905l-.007 2.029-11.094 6.473.006-2.029z" fill="#a8b3be"/></g><g data-name="Group 2278"><path data-name="Path 3862" d="M393.303 291.379l-.006 2.029-9.5-5.518.007-2.029z" fill="#708395"/></g><g data-name="Group 2279"><path data-name="Path 3863" d="M438.993 253.846a12.388 12.388 0 011.116.727 8.469 8.469 0 011.516 1.421 5.947 5.947 0 01.9 1.465 4.745 4.745 0 01.3.986 4.632 4.632 0 01-.463 3.019 6.007 6.007 0 01-.6.939 9.235 9.235 0 01-2.665 2.252l-.314.18-5.38 3.138-1.415.827-8.735 5.1-1.417.829-8.737 5.095-1.417.826-4.742 2.767-2.547 1.49-11.094 6.474-9.5-5.518 1.391-.808 6.334-3.672-6.333 3.672 8.213 4.768 7.568-4.412-8.194-4.755 1.23-.716 8.189 4.753 7.566-4.415-8.166-4.739 1.231-.714 8.162 4.736 7.565-4.412-8.137-4.728 1.231-.714 8.134 4.721 7.565-4.415-8.111-4.708 1.23-.714 8.106 4.71 7.567-4.415-8.088-4.7z" fill="#e7e7e7"/></g><g data-name="Group 2280"><path data-name="Path 3864" d="M457.126 293.198l-.006 2.027-2.8-6.034v-2.029z" fill="#7a7978"/></g><g data-name="Group 2281"><path data-name="Path 3865" d="M405.243 287.153l-.006 2.032-2.747 6.029.007-2.027z" fill="#8d8d8d"/></g><g data-name="Group 2282"><path data-name="Path 3866" d="M416.302 288.879l-.006 2.033-2.294 4.976.006-2.031z" fill="#094324"/></g><g data-name="Group 2283"><path data-name="Path 3867" d="M446.053 294.667l-.006 2.029-2.675-5.8.007-2.03z" fill="#0a314a"/></g><g data-name="Group 2284"><path data-name="Path 3868" d="M446.163 294.909l-.006 2.029-.11-.242.007-2.029z" fill="#0a314a"/></g><g data-name="Group 2285"><path data-name="Path 3869" d="M457.127 293.198l-.006 2.027-10.965 1.711.007-2.029z" fill="#12486c"/></g><g data-name="Group 2286"><path data-name="Path 3870" d="M446.672 296.014l-.006 2.03-.51-1.107.007-2.029z" fill="#7a7978"/></g><g data-name="Group 2287"><path data-name="Path 3871" d="M446.164 294.908l-.007 2.029-10.827 1.687.007-2.031z" fill="#104263"/></g><g data-name="Group 2288"><path data-name="Path 3872" d="M443.378 288.869l2.675 5.8.109.241-10.826 1.684-2.808-6.033z" fill="#165480"/></g><g data-name="Group 2289"><path data-name="Path 3873" d="M435.336 296.592l-.007 2.032-2.807-6.036.006-2.029z" fill="#092c44"/></g><g data-name="Group 2290"><path data-name="Path 3874" d="M446.159 294.908l.51 1.106-12.565 1.959-4.318-9.274.926-2.034 1.354 2.916 10.857-1.692.452.976-10.85 1.694 2.808 6.033z" fill="#c4ccd4"/></g><g data-name="Group 2291"><path data-name="Path 3875" d="M454.321 287.162l2.806 6.036-10.964 1.71-.11-.241-2.674-5.8z" fill="#195d8a"/></g><g data-name="Group 2292"><path data-name="Path 3876" d="M414.008 293.857l-.006 2.031-.484 1.049.006-2.029z" fill="#9b9a99"/></g><g data-name="Group 2293"><path data-name="Path 3877" d="M416.302 288.878l-2.294 4.979-.484 1.051-11.027-1.721 2.746-6.034z" fill="#116236"/></g><g data-name="Group 2294"><path data-name="Path 3878" d="M413.524 294.908l-.006 2.029-11.028-1.723.007-2.027z" fill="#0a4324"/></g><g data-name="Group 2295"><path data-name="Path 3879" d="M414.008 293.857l-.006 2.031-.484 1.049.006-2.029z" fill="#094324"/></g><g data-name="Group 2296"><path data-name="Path 3880" d="M455.071 284.756l4.318 9.276-12.716 1.981-.51-1.106 10.964-1.71-2.805-6.035-10.943 1.7-.452-.976 10.938-1.7-2.807-6.034-10.913 1.7-.45-.981 10.908-1.7-2.81-6.034-10.885 1.7-.4-.882.05-.11 10.786-1.684-2.809-6.033-4.8.747.512-1.128 3.833-.6-1.711-3.683a4.632 4.632 0 00.463-3.019l1.563 3.354.526 1.134 2.984 6.413.257.552.528 1.128 3.243 6.967.524 1.132 1.676 3.6z" fill="#e5e8eb"/></g><g data-name="Group 2297"><path data-name="Path 3881" d="M459.391 294.032l-.007 2.027-12.716 1.985.007-2.03z" fill="#a2afbb"/></g><g data-name="Group 2298"><path data-name="Path 3882" d="M413.524 294.908l-.51 1.1-12.77-1.991 4.151-9.116 2.547-1.49-1.255 2.759 11.065 1.724-.451.979-11.06-1.726-2.746 6.034z" fill="#c4ccd4"/></g><g data-name="Group 2299"><path data-name="Path 3883" d="M413.525 294.908l-.006 2.029-.511 1.106.006-2.03z" fill="#8e8e8e"/></g><g data-name="Group 2300"><path data-name="Path 3884" d="M413.015 296.012l-.006 2.03-12.768-1.991v-2.03z" fill="#7e8fa0"/></g><g data-name="Group 2301"><path data-name="Path 3885" d="M427.07 290.559v2.029l-2.748 6.033v-2.03z" fill="#0c4d2b"/></g><g data-name="Group 2302"><path data-name="Path 3886" d="M427.071 290.56l-2.75 6.031-10.8-1.683.484-1.051 2.294-4.978z" fill="#15713f"/></g><g data-name="Group 2303"><path data-name="Path 3887" d="M424.322 296.591v2.03l-10.8-1.684.006-2.029z" fill="#0c4e2b"/></g><g data-name="Group 2304"><path data-name="Path 3888" d="M434.107 297.975l-.006 2.027-4.317-9.274.005-2.027z" fill="#5d6e7f"/></g><g data-name="Group 2305"><path data-name="Path 3889" d="M446.668 296.014l-.006 2.03L434.097 300l.006-2.027z" fill="#7e8fa0"/></g><g data-name="Group 2306"><path data-name="Path 3890" d="M429.789 288.699v2.027L425.566 300v-2.027z" fill="#8b9aa9"/></g><g data-name="Group 2307"><path data-name="Path 3891" d="M441.764 262.407l-1.523 3.344-.512 1.127-3.175 6.97-.05.11-.463 1.018-3.174 6.965-.513 1.129-1.639 3.6-.926 2.034-4.223 9.274-12.553-1.961.51-1.1.484-1.051-.484 1.051 10.8 1.683 2.75-6.031-10.769-1.681.454-.979 10.761 1.682 2.744-6.03-10.727-1.676.452-.979 10.725 1.671 2.746-6.028-10.69-1.667-1.337 2.9 1.337-2.9.434-.941 10.7 1.63 2.746-6.035-4.657-.726 1.415-.827 3.688.575 1.692-3.713.314-.179a9.236 9.236 0 002.663-2.259z" fill="#e5e8eb"/></g><g data-name="Group 2308"><path data-name="Path 3892" d="M425.568 297.974v2.027l-12.555-1.958.006-2.03z" fill="#8c9baa"/></g></g></g><g data-name="Group 2521"><g data-name="Group 2467"><g data-name="Group 2338"><g data-name="Group 2337" style="isolation:isolate"><g data-name="Group 2311"><path data-name="Path 3893" d="M32.801 188.937l.007 2.253.893.522v-2.256z" fill="#131d27"/></g><g data-name="Group 2312"><path data-name="Path 3894" d="M23.725 188.598l.007 2.256 2.21 1.291-.007-2.253z" fill="#1c7dd8"/></g><g data-name="Group 2313"><path data-name="Path 3895" d="M32.497 190.154v2.256l1.2-.7v-2.256z" fill="#1c7dd8"/></g><path data-name="Path 3896" d="M20.556 190.23l.179.1v2.257l-.176-.1a.852.852 0 01-.494-.7l-.006-2.256a.844.844 0 00.497.699z" fill="#8e6f00"/><g data-name="Group 2315"><g data-name="Group 2314"><path data-name="Path 3897" d="M25.935 189.892l.007 2.253a.848.848 0 01.493.695l-.006-2.257a.836.836 0 00-.494-.692z" fill="#133ab0"/></g></g><g data-name="Group 2317"><g data-name="Group 2316"><path data-name="Path 3898" d="M25.926 191.286l.007 2.253a.853.853 0 00.5-.7l-.006-2.256a.858.858 0 01-.5.7z" fill="#bf9600"/></g></g><g data-name="Group 2318"><path data-name="Path 3899" d="M20.735 190.335v2.256l2.209 1.291-.007-2.256z" fill="#8e6f00"/></g><g data-name="Group 2319"><path data-name="Path 3900" d="M25.342 191.625l.007 2.256.586-.342-.008-2.253z" fill="#8f6f00"/></g><g data-name="Group 2320"><path data-name="Path 3901" d="M20.562 188.832a.74.74 0 00-.007 1.4l.179.1 2.207 1.291a2.627 2.627 0 002.4 0l.585-.339a.739.739 0 00.008-1.4l-2.21-1.293-.178-.1a2.648 2.648 0 00-2.4 0z" fill="#ffc400"/></g><g data-name="Group 2322"><g data-name="Group 2321"><path data-name="Path 3902" d="M22.942 191.623l.007 2.256a2.662 2.662 0 002.4 0l-.007-2.256a2.626 2.626 0 01-2.4 0z" fill="#bf9600"/></g></g><g data-name="Group 2323"><path data-name="Path 3903" d="M7.191 198.19l.007 2.259 2.207 1.288v-2.256z" fill="#1c7dd8"/></g><path data-name="Path 3904" d="M4.019 199.823l.179.1.006 2.256-.178-.1a.857.857 0 01-.5-.695v-2.254a.843.843 0 00.493.693z" fill="#8e6f00"/><g data-name="Group 2325"><g data-name="Group 2324"><path data-name="Path 3905" d="M9.401 199.481v2.257a.849.849 0 01.494.692l-.009-2.251a.849.849 0 00-.49-.7z" fill="#133ab0"/></g></g><g data-name="Group 2327"><g data-name="Group 2326"><path data-name="Path 3906" d="M9.392 200.878l.006 2.256a.862.862 0 00.5-.706l-.008-2.25a.85.85 0 01-.5.7z" fill="#bf9600"/></g></g><g data-name="Group 2328"><path data-name="Path 3907" d="M4.198 199.927l.006 2.256 2.211 1.288-.007-2.253z" fill="#8e6f00"/></g><g data-name="Group 2329"><path data-name="Path 3908" d="M8.808 201.218l.007 2.254.583-.336-.006-2.256z" fill="#8f6f00"/></g><g data-name="Group 2330"><path data-name="Path 3909" d="M4.027 198.427a.738.738 0 00-.009 1.395l.179.1 2.21 1.29a2.629 2.629 0 002.4 0l.584-.339a.741.741 0 00.009-1.4l-2.21-1.29-.18-.1a2.625 2.625 0 00-2.4 0z" fill="#ffc400"/></g><g data-name="Group 2332"><g data-name="Group 2331"><path data-name="Path 3910" d="M6.407 201.215l.007 2.254a2.646 2.646 0 002.4 0l-.007-2.254a2.629 2.629 0 01-2.4 0z" fill="#bf9600"/></g></g><g data-name="Group 2333"><path data-name="Path 3911" d="M6.207 205.403l.007 2.259 26.287-15.251v-2.256z" fill="#1c7dd8"/></g><path data-name="Path 3912" d="M.494 203.472l2.627 1.536.685.4 1.2.7.006 2.256-1.2-.7-.686-.4L.5 205.728a.833.833 0 01-.493-.689l-.008-2.259a.849.849 0 00.495.692z" fill="#1c7dd8"/><g data-name="Group 2334"><path data-name="Path 3913" d="M5.004 206.102l.006 2.256 1.2-.7-.007-2.259z" fill="#1c7dd8"/></g><g data-name="Group 2335"><path data-name="Path 3914" d="M32.801 188.937l.9.52-1.2.7L6.21 205.405l-1.2.7 17.033 9.945a2.644 2.644 0 002.4 0l26.288-15.251a.737.737 0 000-1.392z" fill="#3d4b50"/></g><g data-name="Group 2336"><path data-name="Path 3915" d="M.502 202.076a.74.74 0 00-.007 1.4l2.628 1.536.684.4 1.2.7 1.2-.7 26.291-15.248 1.2-.7-.9-.519-.3-.181-.685-.4-2.629-1.533a2.637 2.637 0 00-2.4-.006l-3.063 1.777 2.209 1.293a.738.738 0 01-.007 1.4l-.586.339a2.626 2.626 0 01-2.4 0l-2.207-1.291-13.544 7.856 2.209 1.291a.741.741 0 01-.008 1.4l-.584.339a2.63 2.63 0 01-2.4 0l-2.21-1.291z" fill="#395ef2"/></g></g></g><g data-name="Group 2466"><g data-name="Group 2462" style="isolation:isolate"><g data-name="Group 2339"><path data-name="Path 3916" d="M33.868 195.435v1.127l2.63-1.522-.006-1.126z" fill="#8f8f90"/></g><g data-name="Group 2340"><path data-name="Path 3917" d="M36.489 193.913l.006 1.126 2.611 1.528v-1.13z" fill="#8f8f90"/></g><g data-name="Group 2341"><path data-name="Path 3918" d="M36.479 196.962v1.127l2.627-1.522v-1.129z" fill="#696c6e"/></g><g data-name="Group 2342"><path data-name="Path 3919" d="M33.868 195.435v1.127l2.615 1.528v-1.127z" fill="#696c6e"/></g><g data-name="Group 2343"><path data-name="Path 3920" d="M36.987 197.259v1.13l2.627-1.528-.005-1.129z" fill="#8f8f90"/></g><g data-name="Group 2344"><path data-name="Path 3921" d="M39.613 195.731l.006 1.129 2.615 1.531v-1.127z" fill="#8f8f90"/></g><g data-name="Group 2345"><path data-name="Path 3922" d="M30.56 197.352v1.129l2.63-1.528v-1.13z" fill="#8f8f90"/></g><g data-name="Group 2346"><path data-name="Path 3923" d="M33.192 195.824v1.13l2.617 1.528v-1.129z" fill="#8f8f90"/></g><g data-name="Group 2347"><path data-name="Path 3924" d="M36.987 197.259l2.613 1.528 2.63-1.522-2.617-1.533z" fill="#aec0d0"/></g><g data-name="Group 2348"><path data-name="Path 3925" d="M39.6 198.787v1.126l2.629-1.522v-1.127z" fill="#696c6e"/></g><g data-name="Group 2349"><path data-name="Path 3926" d="M36.987 197.259v1.13l2.613 1.525v-1.126z" fill="#696c6e"/></g><g data-name="Group 2350"><path data-name="Path 3927" d="M30.56 197.352v1.129l2.616 1.525v-1.127z" fill="#696c6e"/></g><g data-name="Group 2351"><path data-name="Path 3928" d="M30.56 197.352l2.616 1.528 2.633-1.528-2.617-1.528z" fill="#aec0d0"/></g><g data-name="Group 2352"><path data-name="Path 3929" d="M33.176 198.879v1.127l2.632-1.525v-1.129z" fill="#696c6e"/></g><g data-name="Group 2353"><path data-name="Path 3930" d="M40.109 199.082v1.127l2.631-1.522-.006-1.133z" fill="#8f8f90"/></g><g data-name="Group 2354"><path data-name="Path 3931" d="M42.738 197.555l.006 1.133 2.606 1.522v-1.127z" fill="#8f8f90"/></g><g data-name="Group 2355"><path data-name="Path 3932" d="M33.682 199.179l.006 1.124 2.629-1.528v-1.127z" fill="#8f8f90"/></g><g data-name="Group 2356"><path data-name="Path 3933" d="M36.315 197.648v1.127l2.616 1.528v-1.124z" fill="#8f8f90"/></g><g data-name="Group 2357"><path data-name="Path 3934" d="M27.261 199.27v1.127l2.63-1.522v-1.132z" fill="#8f8f90"/></g><g data-name="Group 2358"><path data-name="Path 3935" d="M29.892 197.739v1.132l2.617 1.522v-1.127z" fill="#8f8f90"/></g><g data-name="Group 2359"><path data-name="Path 3936" d="M20.841 199.36v1.126l2.633-1.527v-1.127z" fill="#8f8f90"/></g><g data-name="Group 2360"><path data-name="Path 3937" d="M23.471 197.832v1.127l2.613 1.527v-1.126z" fill="#8f8f90"/></g><g data-name="Group 2361"><path data-name="Path 3938" d="M40.109 199.083v1.126l2.611 1.522v-1.127z" fill="#696c6e"/></g><g data-name="Group 2362"><path data-name="Path 3939" d="M40.109 199.082l2.612 1.522 2.627-1.522-2.61-1.528z" fill="#aec0d0"/></g><g data-name="Group 2363"><path data-name="Path 3940" d="M42.721 200.605v1.127l2.626-1.522v-1.126z" fill="#696c6e"/></g><g data-name="Group 2364"><path data-name="Path 3941" d="M33.682 199.179l.006 1.124 2.612 1.531v-1.132z" fill="#696c6e"/></g><g data-name="Group 2365"><path data-name="Path 3942" d="M36.297 200.702v1.132l2.633-1.531v-1.124z" fill="#696c6e"/></g><g data-name="Group 2366"><path data-name="Path 3943" d="M27.261 199.266v1.127l2.615 1.53v-1.13z" fill="#696c6e"/></g><g data-name="Group 2367"><path data-name="Path 3944" d="M27.261 199.27l2.615 1.528 2.632-1.528-2.615-1.528z" fill="#aec0d0"/></g><g data-name="Group 2368"><path data-name="Path 3945" d="M29.875 200.793v1.13l2.633-1.53v-1.127z" fill="#696c6e"/></g><g data-name="Group 2369"><path data-name="Path 3946" d="M20.841 199.355v1.126l2.616 1.531v-1.132z" fill="#696c6e"/></g><g data-name="Group 2370"><path data-name="Path 3947" d="M23.454 200.885v1.132l2.63-1.531v-1.131z" fill="#696c6e"/></g><g data-name="Group 2371"><path data-name="Path 3948" d="M36.803 201.005v1.127l2.632-1.528v-1.13z" fill="#8f8f90"/></g><g data-name="Group 2372"><path data-name="Path 3949" d="M39.437 199.47v1.13l2.61 1.525v-1.124z" fill="#8f8f90"/></g><g data-name="Group 2373"><path data-name="Path 3950" d="M30.382 201.091v1.127l2.634-1.528v-1.127z" fill="#8f8f90"/></g><g data-name="Group 2374"><path data-name="Path 3951" d="M33.015 199.563v1.127l2.615 1.528v-1.127z" fill="#8f8f90"/></g><g data-name="Group 2375"><path data-name="Path 3952" d="M23.961 201.18v1.127l2.632-1.525v-1.129z" fill="#8f8f90"/></g><g data-name="Group 2376"><path data-name="Path 3953" d="M26.591 199.653v1.129l2.615 1.525v-1.127z" fill="#8f8f90"/></g><g data-name="Group 2377"><path data-name="Path 3954" d="M17.537 201.274l.006 1.127 2.63-1.525v-1.127z" fill="#8f8f90"/></g><g data-name="Group 2378"><path data-name="Path 3955" d="M20.17 199.749v1.127l2.616 1.525v-1.127z" fill="#8f8f90"/></g><g data-name="Group 2379"><path data-name="Path 3956" d="M36.803 201v1.126l2.61 1.528v-1.132z" fill="#696c6e"/></g><g data-name="Group 2380"><path data-name="Path 3957" d="M36.803 201.005l2.612 1.522 2.63-1.522-2.609-1.531z" fill="#aec0d0"/></g><g data-name="Group 2381"><path data-name="Path 3958" d="M39.415 202.521v1.132l2.632-1.531v-1.124z" fill="#696c6e"/></g><g data-name="Group 2382"><path data-name="Path 3959" d="M30.382 201.09v1.127l2.616 1.531v-1.13z" fill="#696c6e"/></g><g data-name="Group 2383"><path data-name="Path 3960" d="M32.999 202.619v1.13l2.632-1.531v-1.127z" fill="#696c6e"/></g><g data-name="Group 2384"><path data-name="Path 3961" d="M26.576 202.711v1.124l2.63-1.528v-1.127z" fill="#696c6e"/></g><g data-name="Group 2385"><path data-name="Path 3962" d="M23.961 201.181v1.127l2.616 1.528v-1.124z" fill="#696c6e"/></g><g data-name="Group 2386"><path data-name="Path 3963" d="M23.961 201.18l2.615 1.531 2.632-1.531-2.616-1.528z" fill="#aec0d0"/></g><g data-name="Group 2387"><path data-name="Path 3964" d="M17.537 201.274l2.616 1.528 2.633-1.528-2.616-1.525z" fill="#aec0d0"/></g><g data-name="Group 2388"><path data-name="Path 3965" d="M17.537 201.274l.006 1.127 2.613 1.528v-1.127z" fill="#696c6e"/></g><g data-name="Group 2389"><path data-name="Path 3966" d="M20.153 202.802v1.127l2.633-1.528v-1.127z" fill="#696c6e"/></g><g data-name="Group 2390"><path data-name="Path 3967" d="M33.504 202.912v1.129l2.633-1.528v-1.13z" fill="#8f8f90"/></g><g data-name="Group 2391"><path data-name="Path 3968" d="M36.136 201.388v1.13l2.61 1.525-.005-1.126z" fill="#8f8f90"/></g><g data-name="Group 2392"><path data-name="Path 3969" d="M27.083 203.005v1.127l2.633-1.528v-1.124z" fill="#8f8f90"/></g><g data-name="Group 2393"><path data-name="Path 3970" d="M29.716 201.48v1.124l2.614 1.528v-1.127z" fill="#8f8f90"/></g><g data-name="Group 2394"><path data-name="Path 3971" d="M20.66 203.095l.006 1.13 2.631-1.528v-1.129z" fill="#8f8f90"/></g><g data-name="Group 2395"><path data-name="Path 3972" d="M23.293 201.568v1.129l2.615 1.528-.005-1.13z" fill="#8f8f90"/></g><g data-name="Group 2396"><path data-name="Path 3973" d="M14.243 203.186v1.127l2.628-1.522v-1.13z" fill="#8f8f90"/></g><g data-name="Group 2397"><path data-name="Path 3974" d="M16.869 201.661v1.13l2.616 1.527v-1.129z" fill="#8f8f90"/></g><g data-name="Group 2398"><path data-name="Path 3975" d="M33.504 202.912l2.612 1.525 2.629-1.525-2.609-1.528z" fill="#aec0d0"/></g><g data-name="Group 2399"><path data-name="Path 3976" d="M36.116 204.437v1.127l2.632-1.525-.005-1.126z" fill="#696c6e"/></g><g data-name="Group 2400"><path data-name="Path 3977" d="M33.504 202.912v1.129l2.612 1.522v-1.127z" fill="#696c6e"/></g><g data-name="Group 2401"><path data-name="Path 3978" d="M27.083 203.005l2.613 1.528 2.633-1.528-2.613-1.525z" fill="#395ef2"/></g><g data-name="Group 2402"><path data-name="Path 3979" d="M23.276 204.626v1.121l2.634-1.522-.006-1.13z" fill="#696c6e"/></g><g data-name="Group 2403"><path data-name="Path 3980" d="M20.66 203.095l.006 1.13 2.61 1.522v-1.121z" fill="#696c6e"/></g><g data-name="Group 2404"><path data-name="Path 3981" d="M16.859 204.714v1.127l2.629-1.522v-1.129z" fill="#696c6e"/></g><g data-name="Group 2405"><path data-name="Path 3982" d="M14.243 203.186l2.616 1.528 2.626-1.525-2.616-1.528z" fill="#aec0d0"/></g><g data-name="Group 2406"><path data-name="Path 3983" d="M14.243 203.186v1.127l2.615 1.528v-1.127z" fill="#696c6e"/></g><g data-name="Group 2407"><path data-name="Path 3984" d="M30.202 204.827v1.129l2.633-1.528v-1.13z" fill="#8f8f90"/></g><g data-name="Group 2408"><path data-name="Path 3985" d="M32.836 203.299v1.13l2.612 1.525v-1.13z" fill="#8f8f90"/></g><g data-name="Group 2409"><path data-name="Path 3986" d="M23.782 204.92v1.129l2.635-1.528v-1.126z" fill="#8f8f90"/></g><g data-name="Group 2410"><path data-name="Path 3987" d="M26.415 203.395v1.126l2.616 1.528-.005-1.129z" fill="#8f8f90"/></g><g data-name="Group 2411"><path data-name="Path 3988" d="M17.365 205.007v1.132l2.631-1.531v-1.126z" fill="#8f8f90"/></g><g data-name="Group 2412"><path data-name="Path 3989" d="M19.992 203.482v1.126l2.615 1.531v-1.129z" fill="#8f8f90"/></g><g data-name="Group 2413"><path data-name="Path 3990" d="M10.944 205.1v1.127l2.629-1.525-.006-1.124z" fill="#8f8f90"/></g><g data-name="Group 2414"><path data-name="Path 3991" d="M13.57 203.578l.005 1.124 2.611 1.53v-1.129z" fill="#8f8f90"/></g><g data-name="Group 2415"><path data-name="Path 3992" d="M30.202 204.826v1.129l2.613 1.525v-1.13z" fill="#696c6e"/></g><g data-name="Group 2416"><path data-name="Path 3993" d="M32.817 206.351l.005 1.129 2.632-1.528v-1.13z" fill="#696c6e"/></g><g data-name="Group 2417"><path data-name="Path 3994" d="M30.202 204.827l2.612 1.525 2.636-1.528-2.613-1.525z" fill="#aec0d0"/></g><g data-name="Group 2418"><path data-name="Path 3995" d="M23.782 204.919v1.129l2.616 1.525v-1.126z" fill="#696c6e"/></g><g data-name="Group 2419"><path data-name="Path 3996" d="M26.397 206.447v1.126l2.635-1.525-.006-1.129z" fill="#696c6e"/></g><g data-name="Group 2420"><path data-name="Path 3997" d="M17.365 205.007l2.616 1.528 2.626-1.525-2.615-1.528z" fill="#aec0d0"/></g><g data-name="Group 2421"><path data-name="Path 3998" d="M17.365 205.007v1.133l2.618 1.522v-1.127z" fill="#696c6e"/></g><g data-name="Group 2422"><path data-name="Path 3999" d="M19.981 206.534v1.127l2.628-1.522v-1.129z" fill="#696c6e"/></g><g data-name="Group 2423"><path data-name="Path 4000" d="M10.944 205.1v1.127l2.615 1.528v-1.127z" fill="#1c7dd8"/></g><g data-name="Group 2424"><path data-name="Path 4001" d="M13.557 206.628v1.127l2.625-1.522v-1.127z" fill="#1c7dd8"/></g><g data-name="Group 2425"><path data-name="Path 4002" d="M26.903 206.741v1.127l2.633-1.525v-1.127z" fill="#8f8f90"/></g><g data-name="Group 2426"><path data-name="Path 4003" d="M29.535 205.216v1.127l2.611 1.522v-1.126z" fill="#8f8f90"/></g><g data-name="Group 2427"><path data-name="Path 4004" d="M20.486 206.832v1.126l2.628-1.525v-1.124z" fill="#8f8f90"/></g><g data-name="Group 2428"><path data-name="Path 4005" d="M23.113 205.309v1.124l2.618 1.531v-1.129z" fill="#8f8f90"/></g><g data-name="Group 2429"><path data-name="Path 4006" d="M14.061 206.925l.005 1.127 2.626-1.528v-1.127z" fill="#8f8f90"/></g><g data-name="Group 2430"><path data-name="Path 4007" d="M16.691 205.397v1.127l2.617 1.528v-1.121z" fill="#8f8f90"/></g><g data-name="Group 2431"><path data-name="Path 4008" d="M26.903 206.741v1.127l2.61 1.528v-1.127z" fill="#696c6e"/></g><g data-name="Group 2432"><path data-name="Path 4009" d="M26.903 206.741l2.611 1.528 2.631-1.53-2.61-1.522z" fill="#aec0d0"/></g><g data-name="Group 2433"><path data-name="Path 4010" d="M29.514 208.272v1.127l2.633-1.531v-1.126z" fill="#696c6e"/></g><g data-name="Group 2434"><path data-name="Path 4011" d="M20.486 206.831v1.127l2.615 1.527v-1.127z" fill="#696c6e"/></g><g data-name="Group 2435"><path data-name="Path 4012" d="M23.103 208.359v1.127l2.63-1.522v-1.129z" fill="#696c6e"/></g><g data-name="Group 2436"><path data-name="Path 4013" d="M20.486 206.832l2.616 1.528 2.627-1.525-2.617-1.525z" fill="#aec0d0"/></g><g data-name="Group 2437"><path data-name="Path 4014" d="M16.679 208.449l.006 1.126 2.626-1.524v-1.121z" fill="#1c7dd8"/></g><g data-name="Group 2438"><path data-name="Path 4015" d="M14.061 206.924l.005 1.126 2.617 1.525-.005-1.126z" fill="#1c7dd8"/></g><g data-name="Group 2439"><path data-name="Path 4016" d="M17.184 208.746l.005 1.127 2.626-1.525v-1.127z" fill="#8f8f90"/></g><g data-name="Group 2440"><path data-name="Path 4017" d="M19.813 207.221v1.127l2.615 1.527v-1.126z" fill="#8f8f90"/></g><g data-name="Group 2441"><path data-name="Path 4018" d="M17.184 208.746l.005 1.126 2.615 1.528v-1.127z" fill="#1c7dd8"/></g><g data-name="Group 2442"><path data-name="Path 4019" d="M19.798 210.274v1.127l2.626-1.525v-1.127z" fill="#1c7dd8"/></g><g data-name="Group 2443"><path data-name="Path 4020" d="M33.868 195.435l2.61 1.528 2.63-1.525-2.616-1.524z" fill="#aec0d0"/></g><g data-name="Group 2444"><path data-name="Path 4021" d="M33.682 199.179l2.615 1.522 2.633-1.522-2.615-1.531z" fill="#aec0d0"/></g><g data-name="Group 2445"><path data-name="Path 4022" d="M20.841 199.36l2.613 1.525 2.632-1.525-2.615-1.528z" fill="#aec0d0"/></g><g data-name="Group 2446"><path data-name="Path 4023" d="M30.382 201.091l2.617 1.528 2.63-1.528-2.613-1.528z" fill="#aec0d0"/></g><g data-name="Group 2447"><path data-name="Path 4024" d="M20.66 203.095l2.616 1.531 2.629-1.531-2.612-1.527z" fill="#aec0d0"/></g><g data-name="Group 2448"><path data-name="Path 4025" d="M23.782 204.92l2.615 1.528 2.631-1.528-2.613-1.525z" fill="#aec0d0"/></g><path data-name="Path 4026" d="M8.415 205.179l11.863 6.927 2.517-1.463 2.5 1.463 22.577-13.1-14.361-8.387zm5.155-1.6l2.615 1.525zm3.3-1.917l2.616 1.527-2.626 1.525-2.616-1.528zm.5 3.346l2.628-1.525 2.615 1.527-2.626 1.525zm3.3-1.912l2.633-1.528 2.612 1.528-2.629 1.53zm-.49-3.346l2.616 1.525-2.64 1.522-2.616-1.528zm5.916-.39l-2.632 1.525-2.613-1.525 2.631-1.528zm.505.294l2.617 1.528-2.632 1.531-2.615-1.531zm3.3-1.915l2.615 1.528-2.632 1.528-2.615-1.528zm5.737 3.352l-2.63 1.528-2.617-1.528 2.634-1.528zm-1.947-1.912l2.633-1.531 2.615 1.531-2.634 1.522zm2.128-1.827l-2.633 1.528-2.616-1.528 2.632-1.528zm3.3-1.915l-2.631 1.525-2.61-1.528 2.625-1.522zm3.122 1.827l-2.631 1.522-2.614-1.528 2.626-1.528zm.49 3.34l-2.612-1.522 2.628-1.528 2.611 1.528zm-3.305 1.917l-2.612-1.522 2.633-1.53 2.609 1.53zm-3.3 1.915l-2.612-1.525 2.631-1.528 2.609 1.528zm-3.3 1.914l-2.612-1.525 2.634-1.527 2.614 1.524zm-5.91.389l2.632-1.525 2.611 1.522-2.632 1.53zm-.507-.293l-2.615-1.528 2.633-1.525 2.613 1.525zm-5.911.384l2.626-1.522 2.618 1.525-2.627 1.525zm-6.425.094l2.63-1.528 2.616 1.53-2.616-1.53-2.63 1.528 2.617 1.525z" fill="#fff"/><g data-name="Group 2451"><g data-name="Group 2449"><path data-name="Path 4027" d="M19.808 209.841v.438l2.632-1.525v-.44z" fill="#1c7dd8"/></g><g data-name="Group 2450"><path data-name="Path 4028" d="M17.193 208.314v.44l2.615 1.525v-.438z" fill="#1c7dd8"/></g><path data-name="Path 4029" d="M19.808 209.841l-2.615-1.528 2.632-1.527 2.616 1.527-2.633 1.528z" fill="#395ef2"/></g><g data-name="Group 2454"><g data-name="Group 2452"><path data-name="Path 4030" d="M16.667 208.025v.441l2.634-1.528-.005-.441z" fill="#1c7dd8"/></g><g data-name="Group 2453"><path data-name="Path 4031" d="M14.055 206.5v.441l2.615 1.528v-.441z" fill="#1c7dd8"/></g><path data-name="Path 4032" d="M16.668 208.025l-2.616-1.528 2.633-1.528 2.613 1.528-2.63 1.528z" fill="#395ef2"/></g><g data-name="Group 2457"><g data-name="Group 2455"><path data-name="Path 4033" d="M13.541 206.182v.438l2.631-1.525v-.441z" fill="#1c7dd8"/></g><g data-name="Group 2456"><path data-name="Path 4034" d="M10.926 204.654v.441l2.615 1.525v-.438z" fill="#1c7dd8"/></g><path data-name="Path 4035" d="M13.541 206.181l-2.616-1.528 2.633-1.53 2.615 1.53-2.632 1.528z" fill="#395ef2"/></g><g data-name="Group 2458"><path data-name="Path 4036" d="M20.277 212.105v1.126l2.517-1.457v-1.132z" fill="#8f8f90"/></g><g data-name="Group 2459"><path data-name="Path 4037" d="M22.795 210.643v1.132l2.5 1.457v-1.126z" fill="#8f8f90"/></g><g data-name="Group 2460" fill="#818588"><path data-name="Path 4038" d="M20.277 212.103h5.018v1.127h-5.019l-11.861-6.924v-1.13z"/><path data-name="Path 4039" d="M47.873 199.007l.005 1.13-22.579 13.1v-1.127z"/></g><g data-name="Group 2461"><path data-name="Path 4040" d="M20.277 212.105h5.018l-2.5-1.463z" fill="#d9dee3"/></g></g><g data-name="Group 2465"><g data-name="Group 2463"><path data-name="Path 4041" d="M29.758 204.195v.44l2.633-1.527v-.441z" fill="#1c7dd8"/></g><g data-name="Group 2464"><path data-name="Path 4042" d="M27.143 202.666l.005.441 2.612 1.527v-.44z" fill="#1c7dd8"/></g><path data-name="Path 4043" d="M29.757 204.193l-2.615-1.528 2.635-1.525 2.613 1.525-2.633 1.528z" fill="#395ef2"/></g></g><path data-name="Path 4044" d="M22.037 216.048a2.644 2.644 0 002.4 0l26.288-15.251a.844.844 0 00.494-.7l.008 2.256a.849.849 0 01-.495.7l-26.289 15.246a2.591 2.591 0 01-2.4 0l-17.034-9.94-.005-2.256z" fill="#151719"/></g><g data-name="Group 2474"><path data-name="Path 4045" d="M79.931 235.798a7.139 7.139 0 01-6.474 0l-.015 5.71a7.117 7.117 0 006.472-.025v-.681l30.238-16.8.017-5.873z" fill="#fbfcff"/><g data-name="Group 2470"><g data-name="Group 2468"><path data-name="Path 4046" d="M80.989 235.243l-1.076.63a7.14 7.14 0 01-6.47 0L25.137 207.85c-1.785-1.036-1.793-2.736-.021-3.77l1.077-.629z" fill="#191f21"/></g><g data-name="Group 2469"><path data-name="Path 4047" d="M112.405 213.125c1.783 1.037 1.793 2.728.014 3.764l-24.013 14.023-4.517 2.637-2.9 1.695-54.8-31.79-1.077.629c-1.772 1.034-1.764 2.734.021 3.77l48.306 28.023a7.139 7.139 0 006.47 0 7.139 7.139 0 01-6.47 0l-48.306-28.023c-1.785-1.036-1.793-2.736-.021-3.77L57.619 185.1a7.133 7.133 0 016.478 0z" fill="#191f21"/></g></g><g data-name="Group 2471"><path data-name="Path 4048" d="M113.76 214.941l-.015 5.873a2.281 2.281 0 01-1.32 1.869l.015-5.871a2.277 2.277 0 001.32-1.871z" fill="#fbfcff"/></g><g data-name="Group 2472"><path data-name="Path 4049" d="M112.441 216.813l-2.269 1.321-54.8-31.787 2.263-1.322z" fill="#395ef2"/></g><path data-name="Path 4050" d="M73.456 235.799l-48.3-28.02a2.305 2.305 0 01-1.345-1.9q-.013 2.932-.02 5.871a2.3 2.3 0 001.347 1.9l48.305 28.023a6.758 6.758 0 003.548.759v-5.873a6.7 6.7 0 01-3.535-.76z" fill="#121719"/><path data-name="Path 4051" d="M112.43 216.81l-24.013 14.02-4.517 2.635-2.9 1.7-1.074.627a7.143 7.143 0 01-6.477 0l-48.3-28.02a2.3 2.3 0 01-1.344-1.9q0 .653-.006 1.3a2.3 2.3 0 001.345 1.9l48.3 28.023a7.128 7.128 0 006.473 0l1.075-.63 2.9-1.695 4.515-2.634 24.012-14.023a2.288 2.288 0 001.33-1.872v-1.3a2.29 2.29 0 01-1.319 1.869z" fill="#121719"/><path data-name="Path 4052" d="M112.433 216.81L88.42 230.83l-4.517 2.635-2.9 1.7-1.074.627a6.472 6.472 0 01-3.073.768v1.3a6.47 6.47 0 003.068-.768l1.074-.63 2.9-1.694 4.515-2.635 24.011-14.023a2.287 2.287 0 001.33-1.872v-1.3a2.291 2.291 0 01-1.321 1.872z" fill="#20272b"/><path data-name="Path 4053" d="M113.759 219.521v1.3a2.269 2.269 0 01-1.319 1.866l-.011.009-2.256 1.316-21.755 12.707-4.514 2.635-2.9 1.691-1.074.63a6.467 6.467 0 01-3.068.771v-1.3a6.512 6.512 0 003.073-.768l1.074-.63 2.9-1.694 4.517-2.637 21.751-12.7 2.262-1.319h.005a2.28 2.28 0 001.315-1.877z" fill="#20272b"/><g data-name="Group 2473"><path data-name="Path 4054" d="M93.322 233.371l-.006 1.3-3.668.5.006-1.3z" fill="#555bff"/><path data-name="Path 4055" d="M89.654 233.871l-.006 1.3-.847 2.137v-1.3z" fill="#555bff"/><path data-name="Path 4056" d="M88.804 236.008v1.3l-3.058-1.776.006-1.3z" fill="#005495"/><path data-name="Path 4057" d="M93.322 233.371l-3.668.5-.85 2.137-3.055-1.773 4.515-2.637z" fill="#395ef2"/></g><path data-name="Path 4058" d="M112.44 216.813v5.876a.048.048 0 01-.012.009l-2.256 1.316v-5.876z" fill="#395ef2"/></g><g data-name="Group 2498"><g data-name="Group 2479"><g data-name="Group 2475"><path data-name="Path 4059" d="M64.647 198.823a.423.423 0 00.569.042 1.513 1.513 0 00.689-1.174c0-.285-.125-.463-.319-.491l-2.508-.378c.522.662 1.046 1.332 1.569 2.001z" fill="#395ef2"/></g><g data-name="Group 2476"><path data-name="Path 4060" d="M63.075 196.823c.525.663 1.049 1.333 1.572 2a.578.578 0 01-.1-.37z" fill="#395ef2"/></g><g data-name="Group 2477"><path data-name="Path 4061" d="M65.585 197.199l-2.508-.378 1.466 1.632a1.511 1.511 0 01.691-1.172.558.558 0 01.351-.082z" fill="#395ef2"/></g><g data-name="Group 2478"><path data-name="Path 4062" d="M64.543 198.453c-.006.438.3.621.672.412a1.512 1.512 0 00.689-1.174c0-.435-.295-.618-.67-.409a1.51 1.51 0 00-.691 1.171z" fill="#395ef2"/></g></g><g data-name="Group 2485"><g data-name="Group 2480"><path data-name="Path 4063" d="M64.543 198.453c-.006.438.3.621.672.412a1.512 1.512 0 00.689-1.174c0-.435-.295-.618-.67-.409a1.51 1.51 0 00-.691 1.171z" fill="#ffc400"/></g><g data-name="Group 2481"><path data-name="Path 4064" d="M66.999 201.824a1.048 1.048 0 001.42.11A3.748 3.748 0 0070.141 199c.011-.714-.309-1.158-.8-1.234-1.252-.192-2.507-.378-3.76-.567.194.028.321.206.319.491a1.512 1.512 0 01-.689 1.174.42.42 0 01-.569-.045z" fill="#ffc400"/></g><g data-name="Group 2482"><path data-name="Path 4065" d="M64.646 198.82q1.173 1.5 2.353 3a1.442 1.442 0 01-.256-.917l-2.2-2.454a.563.563 0 00.103.371z" fill="#ffc400"/></g><g data-name="Group 2483"><path data-name="Path 4066" d="M69.344 197.767c-1.251-.192-2.506-.378-3.759-.567a.551.551 0 00-.352.082 1.508 1.508 0 00-.69 1.172l2.2 2.454a3.746 3.746 0 011.724-2.934 1.4 1.4 0 01.877-.207z" fill="#ffc400"/></g><g data-name="Group 2484"><path data-name="Path 4067" d="M66.744 200.907c-.014 1.09.739 1.553 1.676 1.028a3.748 3.748 0 001.722-2.934c.014-1.093-.737-1.556-1.675-1.028a3.745 3.745 0 00-1.723 2.934z" fill="#ffc400"/></g></g><g data-name="Group 2491"><g data-name="Group 2486"><path data-name="Path 4068" d="M66.744 200.906c-.014 1.09.739 1.553 1.676 1.028A3.748 3.748 0 0070.142 199c.014-1.093-.737-1.556-1.675-1.028a3.745 3.745 0 00-1.723 2.934z" fill="#395ef2"/></g><g data-name="Group 2487"><path data-name="Path 4069" d="M91.829 216.395a1.172 1.172 0 001.179-.1 3.757 3.757 0 001.724-2.931 1.206 1.206 0 00-.5-1.129l-24.591-14.359a1.211 1.211 0 01.5 1.13 3.747 3.747 0 01-1.722 2.934 1.174 1.174 0 01-1.179.1c7.376 4.302 17.212 10.048 24.589 14.355z" fill="#395ef2"/></g><g data-name="Group 2488"><path data-name="Path 4070" d="M67.241 202.032l24.589 14.362a1.222 1.222 0 01-.5-1.132l-24.589-14.356a1.206 1.206 0 00.5 1.126z" fill="#395ef2"/></g><g data-name="Group 2489"><path data-name="Path 4071" d="M94.236 212.229L69.645 197.87a1.177 1.177 0 00-1.179.1 3.745 3.745 0 00-1.724 2.934l24.589 14.356a3.746 3.746 0 011.724-2.931 1.163 1.163 0 011.181-.1z" fill="#395ef2"/></g><g data-name="Group 2490"><path data-name="Path 4072" d="M91.332 215.263c-.014 1.1.737 1.553 1.676 1.028a3.756 3.756 0 001.724-2.931c.014-1.093-.736-1.553-1.676-1.028a3.749 3.749 0 00-1.724 2.931z" fill="#395ef2"/></g></g><g data-name="Group 2497"><g data-name="Group 2492"><path data-name="Path 4073" d="M91.332 215.263c-.014 1.1.737 1.553 1.676 1.028a3.756 3.756 0 001.724-2.931c.014-1.093-.736-1.553-1.676-1.028a3.749 3.749 0 00-1.724 2.931z" fill="#ffc400"/></g><g data-name="Group 2493"><path data-name="Path 4074" d="M95.456 218.513a1.175 1.175 0 001.181-.1 3.747 3.747 0 001.723-2.931 1.215 1.215 0 00-.494-1.13l-3.63-2.118a1.2 1.2 0 01.5 1.13 3.758 3.758 0 01-1.724 2.931 1.17 1.17 0 01-1.179.1c1.083.632 2.539 1.48 3.623 2.118z" fill="#ffc400"/></g><g data-name="Group 2494"><path data-name="Path 4075" d="M91.83 216.394l3.627 2.118a1.21 1.21 0 01-.494-1.13l-3.631-2.12a1.222 1.222 0 00.498 1.132z" fill="#ffc400"/></g><g data-name="Group 2495"><path data-name="Path 4076" d="M97.866 214.347l-3.63-2.117a1.165 1.165 0 00-1.181.1 3.75 3.75 0 00-1.724 2.931l3.63 2.121a3.756 3.756 0 011.724-2.934 1.186 1.186 0 011.181-.101z" fill="#ffc400"/></g><g data-name="Group 2496"><path data-name="Path 4077" d="M94.962 217.383c-.014 1.093.735 1.553 1.675 1.025a3.748 3.748 0 001.723-2.931c.015-1.093-.737-1.553-1.675-1.028a3.757 3.757 0 00-1.723 2.934z" fill="#d89100"/></g></g></g><g data-name="Group 2520"><g data-name="Group 2503"><g data-name="Group 2502" style="isolation:isolate"><g data-name="Group 2499"><path data-name="Path 4078" d="M10.942 225.578l.007 1.009 46.352 26.877-.007-1.007z" fill="#555bff"/></g><g data-name="Group 2500"><path data-name="Path 4079" d="M57.294 252.457l.007 1.007 7.475-4.365-.007-1.009z" fill="#005495"/></g><g data-name="Group 2501"><path data-name="Path 4080" d="M10.942 225.578l46.352 26.879 7.475-4.367-46.355-26.878z" fill="#395ef2"/></g></g></g><g data-name="Group 2519"><g data-name="Group 2504"><path data-name="Path 4081" d="M64.147 247.607l-2.542 1.5a.967.967 0 01-.87.061c-.217-.125-.176-.349.09-.506l2.543-1.5z" fill="#f5f6f7"/></g><g data-name="Group 2505"><path data-name="Path 4082" d="M61.038 245.816l-2.557 1.509a.963.963 0 01-.87.059c-.216-.123-.175-.348.091-.5l2.559-1.51z" fill="#f5f6f7"/></g><g data-name="Group 2506"><path data-name="Path 4083" d="M57.929 244.026l-2.571 1.518a.972.972 0 01-.869.06c-.216-.124-.178-.35.09-.5l2.574-1.52z" fill="#f5f6f7"/></g><g data-name="Group 2507"><path data-name="Path 4084" d="M54.823 242.237l-2.587 1.524a.963.963 0 01-.87.062c-.217-.123-.176-.35.091-.507l2.59-1.527z" fill="#f5f6f7"/></g><g data-name="Group 2508"><path data-name="Path 4085" d="M51.715 240.448l-2.6 1.533a.968.968 0 01-.87.061c-.215-.121-.176-.349.092-.506l2.6-1.538z" fill="#f5f6f7"/></g><g data-name="Group 2509"><path data-name="Path 4086" d="M48.61 238.657l-2.615 1.545a.969.969 0 01-.87.06c-.218-.124-.179-.349.087-.506l2.622-1.547z" fill="#f5f6f7"/></g><g data-name="Group 2510"><path data-name="Path 4087" d="M45.503 236.867l-2.632 1.555a.978.978 0 01-.872.059c-.217-.122-.174-.349.089-.5l2.64-1.556z" fill="#f5f6f7"/></g><g data-name="Group 2511"><path data-name="Path 4088" d="M42.394 235.078l-2.647 1.563a.971.971 0 01-.87.061c-.214-.125-.174-.349.091-.506l2.65-1.565z" fill="#f5f6f7"/></g><g data-name="Group 2512"><path data-name="Path 4089" d="M39.286 233.287l-2.663 1.57a.971.971 0 01-.871.063c-.216-.122-.174-.35.09-.507l2.668-1.573z" fill="#f5f6f7"/></g><g data-name="Group 2513"><path data-name="Path 4090" d="M36.185 231.498l-2.68 1.581a.968.968 0 01-.87.061c-.217-.122-.177-.348.091-.506l2.679-1.583z" fill="#f5f6f7"/></g><g data-name="Group 2514"><path data-name="Path 4091" d="M33.075 229.709l-2.693 1.588a.969.969 0 01-.87.06c-.215-.123-.177-.348.09-.505l2.7-1.592z" fill="#f5f6f7"/></g><g data-name="Group 2515"><path data-name="Path 4092" d="M29.97 227.918l-2.709 1.6a.978.978 0 01-.87.06c-.215-.123-.177-.351.087-.5l2.716-1.6z" fill="#f5f6f7"/></g><g data-name="Group 2516"><path data-name="Path 4093" d="M26.86 226.127l-2.722 1.609a.972.972 0 01-.873.06c-.213-.123-.173-.35.089-.505l2.729-1.61z" fill="#f5f6f7"/></g><g data-name="Group 2517"><path data-name="Path 4094" d="M23.756 224.34l-2.743 1.615a.974.974 0 01-.87.063c-.217-.123-.174-.351.091-.508l2.744-1.619z" fill="#f5f6f7"/></g><g data-name="Group 2518"><path data-name="Path 4095" d="M20.648 222.548l-2.758 1.626a.968.968 0 01-.87.062c-.215-.123-.174-.349.09-.506l2.758-1.629z" fill="#f5f6f7"/></g></g></g></g></svg>