<svg xmlns="http://www.w3.org/2000/svg" width="120" height="109.114"><g fill="#214c85"><path data-name="Union 4" d="M80.975 50.542l-.191-.332-26.437 6.56a13.229 13.229 0 01-24.62 7.942 13.483 13.483 0 01-.804-1.63l-4.585 1.137a2.94 2.94 0 01-5.114 2.903L9.667 50.57a2.94 2.94 0 015.071-2.978l40.355-41.88-.19-.33a2.943 2.943 0 015.092-2.94l26.073 45.16a2.943 2.943 0 01-5.093 2.94zM34.82 61.771a7.343 7.343 0 0013.705-3.555l-13.78 3.42q.036.067.075.135z"/><path d="M75.482 72.698a4.576 4.576 0 105.935 5.935h-5.935zm8.72-5.364v2.58h2.58a4.6 4.6 0 00-2.58-2.58zm35.797 32.214V92H93.151v2.2h-3.352V92H62.951v7.548z"/><path d="M119.999 88.644V58.866H62.951v29.778zm-11.073-21.4v-2.4h3.356v2.4zm3.356 2.781v4.7h-3.356v-4.7zm-10.067-2.785v-2.4h3.356v2.4zm3.356 2.781v4.7h-3.356v-4.7zm-6.711-5.182v2.4h-3.356v-2.4zM85.091 76.956a7.931 7.931 0 11-7.931-7.931h1.678v6.254h6.253zm5.36-3.69h-9.6V63.66h1.678a7.94 7.94 0 017.922 7.932zm5.048-3.249h3.356v4.7h-3.351zm11.1 14.126l-4.107-2.339-4.441 2.685-1.731-2.875 6.131-3.694 3.947 2.246 4.735-3.4 1.956 2.726zm-16.924 18.76v2.854H72.907v3.356h37.136v-3.356H93.031v-2.854z"/></g></svg>