<svg xmlns="http://www.w3.org/2000/svg" width="120" height="109.114" viewBox="0 0 120 109.114">
  <g id="marketing" transform="translate(-122.792 -494.428)">
    <path id="Union_4" data-name="Union 4" d="M61.768,54.965v-.383L35.593,47.045A13.229,13.229,0,0,1,10.3,41.612a13.483,13.483,0,0,1,.12-1.813L5.88,38.491A2.94,2.94,0,0,1,0,38.448V19.335a2.94,2.94,0,0,1,5.88-.043L61.768,3.2V2.819a2.943,2.943,0,0,1,5.881,0V54.965a2.943,2.943,0,0,1-5.881,0ZM16.182,41.612a7.343,7.343,0,0,0,13.646,3.774L16.184,41.457Q16.182,41.534,16.182,41.612Z" transform="translate(122.792 528.253) rotate(-30)" fill="#214c85"/>
    <g id="dashboard" transform="translate(185.743 553.293)">
      <path id="XMLID_864_" d="M89.022,154.073a4.576,4.576,0,1,0,5.935,5.935H89.022Z" transform="translate(-76.491 -140.24)" fill="#214c85"/>
      <path id="XMLID_865_" d="M189.989,106.118v2.58h2.58A4.6,4.6,0,0,0,189.989,106.118Z" transform="translate(-168.738 -97.649)" fill="#214c85"/>
      <path id="XMLID_877_" d="M57.048,334.183v-7.548H30.2v2.2H26.848v-2.2H0v7.548Z" transform="translate(0 -293.5)" fill="#214c85"/>
      <path id="XMLID_884_" d="M57.048,60.178V30.4H0V60.178Zm-11.073-21.4v-2.4h3.356v2.4Zm3.356,2.781v4.7H45.975v-4.7ZM39.264,38.774v-2.4H42.62v2.4Zm3.356,2.781v4.7H39.264v-4.7Zm-6.711-5.182v2.4H32.553v-2.4ZM22.14,48.49a7.931,7.931,0,1,1-7.931-7.931h1.678v6.254H22.14ZM27.5,44.8H17.9V35.194h1.678A7.94,7.94,0,0,1,27.5,43.126Zm5.048-3.249h3.356v4.7H32.553Zm11.1,14.126-4.107-2.339L35.1,56.023l-1.731-2.875L39.5,49.454,43.447,51.7l4.735-3.4,1.956,2.726Z" transform="translate(0 -30.399)" fill="#214c85"/>
      <path id="XMLID_894_" d="M105.782,424.115v2.854H89.014v3.356H126.15v-3.356H109.138v-2.854Z" transform="translate(-79.058 -380.077)" fill="#214c85"/>
    </g>
  </g>
</svg>
