<svg xmlns="http://www.w3.org/2000/svg" width="72.656" height="120"><path data-name="Path 3161" d="M63.232 0h-8.866v8.009a6.081 6.081 0 01-6.07 6.077H24.384a6.079 6.079 0 01-6.068-6.077V0H9.424A9.435 9.435 0 000 9.424v101.152A9.435 9.435 0 009.424 120h53.808a9.434 9.434 0 009.424-9.424V9.424A9.434 9.434 0 0063.232 0zM45.959 110.648H26.721a3.516 3.516 0 110-7.031h19.237a3.516 3.516 0 010 7.031z" fill="#214c85"/><path data-name="Path 3162" d="M25.348 0h21.987v7.055H25.348z" fill="#214c85"/><g data-name="Group 1869"><g data-name="Group 1868"><path data-name="Path 3164" d="M58.859 66.657l-4.952-4.144a16.4 16.4 0 000-4.943l4.952-4.145a.978.978 0 00.22-1.241l-4.509-7.809a.981.981 0 00-1.185-.43l-6.056 2.213a17.58 17.58 0 00-4.289-2.467l-1.114-6.363a.981.981 0 00-.966-.811h-9.017a.981.981 0 00-.966.811l-1.114 6.363a17.577 17.577 0 00-4.289 2.467l-6.057-2.213a.977.977 0 00-1.185.431l-4.509 7.809a.978.978 0 00.22 1.241l4.952 4.145a16.394 16.394 0 000 4.943l-4.952 4.144a.979.979 0 00-.22 1.241l4.509 7.809a.982.982 0 001.185.431l6.056-2.213a17.58 17.58 0 004.29 2.467l1.114 6.363a.981.981 0 00.966.811h9.017a.981.981 0 00.966-.811l1.114-6.363a17.58 17.58 0 004.289-2.467l6.056 2.213a.985.985 0 001.185-.431l4.509-7.809a.979.979 0 00-.22-1.242zm-22.408 3.186a9.8 9.8 0 119.8-9.8 9.814 9.814 0 01-9.8 9.8z" fill="#fff"/></g></g></svg>