<svg xmlns="http://www.w3.org/2000/svg" width="72.656" height="120" viewBox="0 0 72.656 120">
  <g id="mobile-app" transform="translate(-101)">
    <path id="Path_3161" data-name="Path 3161" d="M164.232,0h-8.866V8.009a6.081,6.081,0,0,1-6.07,6.077H125.384a6.079,6.079,0,0,1-6.068-6.077V0h-8.892A9.435,9.435,0,0,0,101,9.424V110.576A9.435,9.435,0,0,0,110.424,120h53.808a9.434,9.434,0,0,0,9.424-9.424V9.424A9.434,9.434,0,0,0,164.232,0ZM146.959,110.648H127.721a3.516,3.516,0,1,1,0-7.031h19.237a3.516,3.516,0,0,1,0,7.031Z" fill="#214c85"/>
    <path id="Path_3162" data-name="Path 3162" d="M209.15,0h21.987V7.055H209.15Z" transform="translate(-82.802)" fill="#214c85"/>
    <g id="Group_1869" data-name="Group 1869" transform="translate(114.692 36.516)">
      <g id="Group_1868" data-name="Group 1868" transform="translate(0)">
        <path id="Path_3164" data-name="Path 3164" d="M247.391,230.189l-4.952-4.144a16.4,16.4,0,0,0,0-4.943l4.952-4.145a.978.978,0,0,0,.22-1.241l-4.509-7.809a.981.981,0,0,0-1.185-.43l-6.056,2.213a17.58,17.58,0,0,0-4.289-2.467l-1.114-6.363a.981.981,0,0,0-.966-.811h-9.017a.981.981,0,0,0-.966.811l-1.114,6.363a17.577,17.577,0,0,0-4.289,2.467l-6.057-2.213a.977.977,0,0,0-1.185.431l-4.509,7.809a.978.978,0,0,0,.22,1.241l4.952,4.145a16.394,16.394,0,0,0,0,4.943l-4.952,4.144a.979.979,0,0,0-.22,1.241l4.509,7.809a.982.982,0,0,0,1.185.431l6.056-2.213a17.58,17.58,0,0,0,4.29,2.467l1.114,6.363a.981.981,0,0,0,.966.811h9.017a.981.981,0,0,0,.966-.811l1.114-6.363a17.58,17.58,0,0,0,4.289-2.467l6.056,2.213a.985.985,0,0,0,1.185-.431l4.509-7.809A.979.979,0,0,0,247.391,230.189Zm-22.408,3.186a9.8,9.8,0,1,1,9.8-9.8A9.814,9.814,0,0,1,224.983,233.375Z" transform="translate(-202.224 -200.048)" fill="#fff"/>
      </g>
    </g>
  </g>
</svg>
