<svg xmlns="http://www.w3.org/2000/svg" width="60" height="57.876"><g fill="#214c85"><g data-name="Group 35"><path data-name="Rectangle 28" d="M21.461 41.947h17.61v14.336h-17.61z"/><path data-name="Rectangle 29" d="M45.133 54.69v3.186H15.398V54.69z"/><path data-name="Subtraction 1" d="M56 45.664H4a4 4 0 01-4-4V4a4 4 0 014-4h52a4 4 0 014 4v37.664a4.005 4.005 0 01-4 4zM8.779 4.248a4 4 0 00-4 4v28.637a4 4 0 004 4h42.443a4 4 0 004-4V8.248a4 4 0 00-4-4z"/></g><path data-name="Path 3168" d="M23.44 25.592a1.274 1.274 0 11-1.592 1.99l-6.37-5.1a1.275 1.275 0 010-1.99l6.37-5.1a1.274 1.274 0 111.592 1.99l-5.127 4.1zm11.842-12.518l-7.644 17.837a1.274 1.274 0 11-2.342-1l7.644-17.837a1.274 1.274 0 012.342 1zm9.817 9.411l-6.37 5.1a1.274 1.274 0 11-1.592-1.99l5.127-4.1-5.127-4.1a1.274 1.274 0 111.592-1.99l6.37 5.1a1.274 1.274 0 010 1.99z"/></g></svg>