<svg xmlns="http://www.w3.org/2000/svg" width="120" height="120"><path data-name="Path 2845" d="M74.063 81.094a2.344 2.344 0 102.344 2.344 2.345 2.345 0 00-2.344-2.344zm0 0" fill="#214c85"/><path data-name="Path 2846" d="M108.281 0H11.719A11.732 11.732 0 000 11.719v71.719a11.732 11.732 0 0011.719 11.718h36.562v10.781h-2.343a11.722 11.722 0 00-11.719 11.719A2.344 2.344 0 0036.563 120h46.875a2.344 2.344 0 002.344-2.344 11.732 11.732 0 00-11.719-11.719h-2.344V95.156h36.563A11.732 11.732 0 00120 83.438V11.719A11.732 11.732 0 00108.281 0zM11.719 4.688h96.563a7.039 7.039 0 017.031 7.031v60h-10.782V17.813a2.344 2.344 0 00-2.344-2.344H83.438a2.344 2.344 0 00-2.344 2.344v53.906H69.362a215.358 215.358 0 00-.189-7.132 150.753 150.753 0 00-1.831-18.752 11.72 11.72 0 003.2-15.287l-8.123-14.07a2.344 2.344 0 00-4.059 0l-8.128 14.071a11.718 11.718 0 002.579 14.79 148.779 148.779 0 00-1.976 19.243 216.054 216.054 0 00-.2 7.137H38.906V36.563a2.331 2.331 0 00-.232-1.012l-.016-.037-9.375-18.75a2.344 2.344 0 00-4.193 0l-9.375 18.75c-.005.012-.009.025-.015.037a2.33 2.33 0 00-.233 1.012v35.156H4.687v-60a7.039 7.039 0 017.031-7.031zm74.062 67.031V20.156h14.063v4.688H97.5a2.344 2.344 0 000 4.688h2.344v7.031H97.5a2.344 2.344 0 000 4.688h2.344v7.031H97.5a2.344 2.344 0 000 4.688h2.344v9.375H97.5a2.344 2.344 0 000 4.688h2.344v4.688zm-25.392-23.6a11.736 11.736 0 002.529-.281c.435 2.788 1.074 7.721 1.452 14.506h-8.724c.4-6.78 1.066-11.79 1.528-14.672a11.733 11.733 0 003.215.448zm0-4.687a7.04 7.04 0 01-6.1-10.54l6.1-10.554 6.093 10.553a7.035 7.035 0 01-6.093 10.54zm-4.959 23.6h9.145c.049 1.54.083 3.106.1 4.688h-9.35c.017-1.571.053-3.138.105-4.687zm-25.9 4.688V38.906h4.687v32.813zm-9.375 0V38.906h4.688v32.813zm1.448-37.5l5.583-11.166 5.584 11.165zm59.087 81.094H39.305a7.045 7.045 0 016.632-4.687h28.125a7.042 7.042 0 016.629 4.688zm-13.661-9.375h-14.06V95.156h14.062zm41.25-15.469h-96.56a7.039 7.039 0 01-7.031-7.031v-7.033h110.624v7.031a7.039 7.039 0 01-7.031 7.032zm0 0" fill="#214c85"/><path data-name="Path 2847" d="M64.687 81.094H50.625a2.344 2.344 0 000 4.688h14.063a2.344 2.344 0 000-4.687zm0 0" fill="#214c85"/></svg>