<svg id="paid-media" xmlns="http://www.w3.org/2000/svg" xmlns:xlink="http://www.w3.org/1999/xlink" width="395.763" height="300" viewBox="0 0 395.763 300">
  <defs>
    <linearGradient id="linear-gradient" x1="0.505" y1="0.148" x2="-0.017" y2="0.936" gradientUnits="objectBoundingBox">
      <stop offset="0" stop-color="#d7e9f2"/>
      <stop offset="0.955" stop-color="#a4bfec"/>
      <stop offset="1" stop-color="#a2bdec"/>
    </linearGradient>
    <linearGradient id="linear-gradient-2" x1="0.472" y1="0.057" x2="0.551" y2="1.308" gradientUnits="objectBoundingBox">
      <stop offset="0" stop-color="#a2bdec"/>
      <stop offset="0.045" stop-color="#a4bfec"/>
      <stop offset="1" stop-color="#d7e9f2"/>
    </linearGradient>
    <linearGradient id="linear-gradient-3" x1="0.5" y1="0.542" x2="0.5" y2="-0.399" xlink:href="#linear-gradient-2"/>
    <linearGradient id="linear-gradient-4" x1="0.174" y1="-1.382" x2="0.656" y2="1.401" gradientUnits="objectBoundingBox">
      <stop offset="0" stop-color="#f2ffff"/>
      <stop offset="0.196" stop-color="#ecfbfc"/>
      <stop offset="0.448" stop-color="#dceff6"/>
      <stop offset="0.728" stop-color="#c2dded"/>
      <stop offset="1" stop-color="#a2c7e1"/>
    </linearGradient>
    <linearGradient id="linear-gradient-5" x1="0.472" y1="0.057" x2="0.551" y2="1.308" gradientUnits="objectBoundingBox">
      <stop offset="0" stop-color="#d3e6f0"/>
      <stop offset="0.201" stop-color="#dcedf4"/>
      <stop offset="0.649" stop-color="#ecfafc"/>
      <stop offset="1" stop-color="#f2ffff"/>
    </linearGradient>
    <linearGradient id="linear-gradient-8" x1="0.472" y1="0.057" x2="0.551" y2="1.308" gradientUnits="objectBoundingBox">
      <stop offset="0" stop-color="#faffff"/>
      <stop offset="0.305" stop-color="#f4fbfc"/>
      <stop offset="0.694" stop-color="#e4f1f6"/>
      <stop offset="1" stop-color="#d3e6f0"/>
    </linearGradient>
    <linearGradient id="linear-gradient-9" x1="0.512" y1="0.268" x2="0.471" y2="1.034" gradientUnits="objectBoundingBox">
      <stop offset="0" stop-color="#b1d9df"/>
      <stop offset="0.704" stop-color="#eaeeee"/>
    </linearGradient>
    <linearGradient id="linear-gradient-10" x1="0.875" y1="0.108" x2="0.095" y2="0.923" gradientUnits="objectBoundingBox">
      <stop offset="0" stop-color="#c5e4ff"/>
      <stop offset="0.704" stop-color="#eaeeee"/>
    </linearGradient>
    <linearGradient id="linear-gradient-11" x1="0.684" y1="0.637" x2="-0.151" y2="0.018" xlink:href="#linear-gradient"/>
    <linearGradient id="linear-gradient-13" x1="-0.231" y1="-1.032" x2="0.85" y2="1.234" xlink:href="#linear-gradient-4"/>
    <linearGradient id="linear-gradient-15" x1="0" y1="0.5" x2="1" y2="0.5" xlink:href="#linear-gradient-8"/>
    <linearGradient id="linear-gradient-19" y1="0.5" x2="1" y2="0.5" gradientUnits="objectBoundingBox">
      <stop offset="0" stop-color="#2b7ec2"/>
      <stop offset="0.25" stop-color="#469dd6"/>
      <stop offset="0.563" stop-color="#63beec"/>
      <stop offset="0.825" stop-color="#74d2fa"/>
      <stop offset="1" stop-color="#7bdaff"/>
    </linearGradient>
    <linearGradient id="linear-gradient-20" x1="0.609" y1="-0.247" x2="0.395" y2="1.057" gradientUnits="objectBoundingBox">
      <stop offset="0" stop-color="#16d8ff"/>
      <stop offset="1" stop-color="#5155d4"/>
    </linearGradient>
    <linearGradient id="linear-gradient-21" x1="0.505" y1="0.148" x2="-0.017" y2="0.936" xlink:href="#linear-gradient-8"/>
  </defs>
  <g id="Group_503" data-name="Group 503" transform="translate(273.872)">
    <g id="Group_467" data-name="Group 467" transform="translate(0.317)">
      <path id="Path_784" data-name="Path 784" d="M1678.829-398.868l-.007,2.455-2.136-1.233.007-2.455Z" transform="translate(-1676.686 400.102)" fill="#dcdcdc"/>
    </g>
    <g id="Group_468" data-name="Group 468" transform="translate(21.392 12.167)">
      <path id="Path_785" data-name="Path 785" d="M1700.614-386.291l-.007,2.455-2.136-1.233.007-2.455Z" transform="translate(-1698.471 387.524)" fill="#94a3c0"/>
    </g>
    <g id="Group_469" data-name="Group 469" transform="translate(42.473 24.339)">
      <path id="Path_786" data-name="Path 786" d="M1722.405-373.71l-.007,2.455-2.136-1.233.007-2.455Z" transform="translate(-1720.262 374.943)" fill="#dcdcdc"/>
    </g>
    <g id="Group_470" data-name="Group 470" transform="translate(63.548 36.506)">
      <path id="Path_787" data-name="Path 787" d="M1744.189-361.133l-.007,2.455-2.136-1.233.007-2.455Z" transform="translate(-1742.047 362.366)" fill="#94a3c0"/>
    </g>
    <g id="Group_471" data-name="Group 471" transform="translate(84.629 48.677)">
      <path id="Path_788" data-name="Path 788" d="M1765.974-348.555l-.007,2.455-2.129-1.229.007-2.455Z" transform="translate(-1763.838 349.784)" fill="#94a3c0"/>
    </g>
    <g id="Group_472" data-name="Group 472" transform="translate(105.703 60.845)">
      <path id="Path_789" data-name="Path 789" d="M1787.766-335.974l-.007,2.455-2.136-1.233.007-2.454Z" transform="translate(-1785.623 337.207)" fill="#94a3c0"/>
    </g>
    <g id="Group_473" data-name="Group 473" transform="translate(0.254 22.381)" opacity="0.31">
      <path id="Path_790" data-name="Path 790" d="M1678.764-375.733l-.007,2.455-2.136-1.233.007-2.455Z" transform="translate(-1676.621 376.966)" fill="#dcdcdc"/>
    </g>
    <g id="Group_474" data-name="Group 474" transform="translate(21.328 34.549)">
      <path id="Path_791" data-name="Path 791" d="M1700.548-363.156l-.007,2.455-2.136-1.233.007-2.455Z" transform="translate(-1698.405 364.389)" fill="#5c82ff"/>
    </g>
    <g id="Group_475" data-name="Group 475" transform="translate(42.41 46.72)" opacity="0.31">
      <path id="Path_792" data-name="Path 792" d="M1722.339-350.574l-.007,2.455-2.136-1.233.007-2.455Z" transform="translate(-1720.196 351.808)" fill="#dcdcdc"/>
    </g>
    <g id="Group_476" data-name="Group 476" transform="translate(63.484 58.887)">
      <path id="Path_793" data-name="Path 793" d="M1744.124-338l-.007,2.455-2.136-1.233.007-2.455Z" transform="translate(-1741.981 339.231)" fill="#dcdcdc"/>
    </g>
    <g id="Group_477" data-name="Group 477" transform="translate(84.565 71.059)">
      <path id="Path_794" data-name="Path 794" d="M1765.909-325.42l-.007,2.455-2.129-1.229.007-2.455Z" transform="translate(-1763.773 326.649)" fill="#94a3c0"/>
    </g>
    <g id="Group_478" data-name="Group 478" transform="translate(105.64 83.226)">
      <path id="Path_795" data-name="Path 795" d="M1787.7-312.839l-.007,2.455-2.136-1.233.007-2.454Z" transform="translate(-1785.557 314.072)" fill="#5c82ff"/>
    </g>
    <g id="Group_479" data-name="Group 479" transform="translate(0.19 44.762)">
      <path id="Path_796" data-name="Path 796" d="M1678.7-352.6l-.007,2.447-2.136-1.233.007-2.447Z" transform="translate(-1676.556 353.831)" fill="#94a3c0"/>
    </g>
    <g id="Group_480" data-name="Group 480" transform="translate(21.265 56.93)">
      <path id="Path_797" data-name="Path 797" d="M1700.483-340.021l-.007,2.447-2.136-1.233.007-2.447Z" transform="translate(-1698.34 341.254)" fill="#94a3c0"/>
    </g>
    <g id="Group_481" data-name="Group 481" transform="translate(42.346 69.101)">
      <path id="Path_798" data-name="Path 798" d="M1722.274-327.439l-.007,2.446-2.136-1.233.007-2.446Z" transform="translate(-1720.131 328.673)" fill="#94a3c0"/>
    </g>
    <g id="Group_482" data-name="Group 482" transform="translate(63.421 81.268)">
      <path id="Path_799" data-name="Path 799" d="M1744.058-314.862l-.007,2.447-2.136-1.233.007-2.447Z" transform="translate(-1741.915 316.096)" fill="#5c82ff"/>
    </g>
    <g id="Group_483" data-name="Group 483" transform="translate(84.502 93.44)">
      <path id="Path_800" data-name="Path 800" d="M1765.843-302.285l-.007,2.446-2.129-1.229.007-2.447Z" transform="translate(-1763.707 303.514)" fill="#94a3c0"/>
    </g>
    <g id="Group_484" data-name="Group 484" transform="translate(105.576 105.607)" opacity="0.31">
      <path id="Path_801" data-name="Path 801" d="M1787.634-289.7l-.007,2.447-2.136-1.233.007-2.446Z" transform="translate(-1785.491 290.937)" fill="#dcdcdc"/>
    </g>
    <g id="Group_485" data-name="Group 485" transform="translate(0.127 67.143)">
      <path id="Path_802" data-name="Path 802" d="M1678.633-329.463l-.007,2.447-2.136-1.233.007-2.447Z" transform="translate(-1676.49 330.696)" fill="#94a3c0"/>
    </g>
    <g id="Group_486" data-name="Group 486" transform="translate(21.201 79.311)">
      <path id="Path_803" data-name="Path 803" d="M1700.417-316.886l-.007,2.446-2.136-1.233.007-2.446Z" transform="translate(-1698.274 318.119)" fill="#94a3c0"/>
    </g>
    <g id="Group_487" data-name="Group 487" transform="translate(42.283 91.482)">
      <path id="Path_804" data-name="Path 804" d="M1722.208-304.3l-.007,2.446-2.136-1.233.007-2.446Z" transform="translate(-1720.065 305.538)" fill="#94a3c0"/>
    </g>
    <g id="Group_488" data-name="Group 488" transform="translate(63.357 103.649)">
      <path id="Path_805" data-name="Path 805" d="M1743.993-291.727l-.007,2.447-2.136-1.233.007-2.447Z" transform="translate(-1741.85 292.96)" fill="#dcdcdc"/>
    </g>
    <g id="Group_489" data-name="Group 489" transform="translate(84.438 115.821)">
      <path id="Path_806" data-name="Path 806" d="M1765.778-279.15l-.007,2.446-2.129-1.229.007-2.447Z" transform="translate(-1763.641 280.379)" fill="#5c82ff"/>
    </g>
    <g id="Group_490" data-name="Group 490" transform="translate(105.513 127.988)">
      <path id="Path_807" data-name="Path 807" d="M1787.569-266.569l-.007,2.447-2.136-1.233.007-2.447Z" transform="translate(-1785.426 267.802)" fill="#94a3c0"/>
    </g>
    <g id="Group_491" data-name="Group 491" transform="translate(0.063 89.517)">
      <path id="Path_808" data-name="Path 808" d="M1678.567-306.336l-.007,2.455-2.136-1.233.007-2.455Z" transform="translate(-1676.424 307.569)" fill="#94a3c0"/>
    </g>
    <g id="Group_492" data-name="Group 492" transform="translate(21.138 101.684)">
      <path id="Path_809" data-name="Path 809" d="M1700.352-293.759l-.007,2.455-2.136-1.233.007-2.455Z" transform="translate(-1698.208 294.992)" fill="#94a3c0"/>
    </g>
    <g id="Group_493" data-name="Group 493" transform="translate(42.219 113.855)">
      <path id="Path_810" data-name="Path 810" d="M1722.143-281.178l-.007,2.455L1720-279.956l.007-2.455Z" transform="translate(-1720 282.411)" fill="#94a3c0"/>
    </g>
    <g id="Group_494" data-name="Group 494" transform="translate(63.294 126.023)">
      <path id="Path_811" data-name="Path 811" d="M1743.928-268.6l-.007,2.455-2.136-1.233.007-2.455Z" transform="translate(-1741.784 269.834)" fill="#94a3c0"/>
    </g>
    <g id="Group_495" data-name="Group 495" transform="translate(84.375 138.194)">
      <path id="Path_812" data-name="Path 812" d="M1765.712-256.023l-.007,2.455-2.129-1.229.007-2.455Z" transform="translate(-1763.576 257.252)" fill="#dcdcdc"/>
    </g>
    <g id="Group_496" data-name="Group 496" transform="translate(105.449 150.361)">
      <path id="Path_813" data-name="Path 813" d="M1787.5-243.442l-.007,2.455-2.136-1.233.007-2.455Z" transform="translate(-1785.36 244.675)" fill="#5c82ff"/>
    </g>
    <g id="Group_497" data-name="Group 497" transform="translate(0 111.898)">
      <path id="Path_814" data-name="Path 814" d="M1678.5-283.2l-.007,2.455-2.136-1.233.007-2.455Z" transform="translate(-1676.358 284.434)" fill="#94a3c0"/>
    </g>
    <g id="Group_498" data-name="Group 498" transform="translate(21.074 124.065)">
      <path id="Path_815" data-name="Path 815" d="M1700.286-270.624l-.007,2.454-2.136-1.233.007-2.455Z" transform="translate(-1698.143 271.857)" fill="#94a3c0"/>
    </g>
    <g id="Group_499" data-name="Group 499" transform="translate(42.156 136.236)">
      <path id="Path_816" data-name="Path 816" d="M1722.077-258.042l-.007,2.455-2.136-1.233.007-2.455Z" transform="translate(-1719.934 259.276)" fill="#94a3c0"/>
    </g>
    <g id="Group_500" data-name="Group 500" transform="translate(63.23 148.404)">
      <path id="Path_817" data-name="Path 817" d="M1743.862-245.465l-.007,2.455-2.136-1.233.007-2.455Z" transform="translate(-1741.719 246.698)" fill="#94a3c0"/>
    </g>
    <g id="Group_501" data-name="Group 501" transform="translate(84.312 160.575)">
      <path id="Path_818" data-name="Path 818" d="M1765.646-232.888l-.007,2.455-2.129-1.229.007-2.455Z" transform="translate(-1763.51 234.117)" fill="#94a3c0"/>
    </g>
    <g id="Group_502" data-name="Group 502" transform="translate(105.386 172.742)">
      <path id="Path_819" data-name="Path 819" d="M1787.438-220.307l-.007,2.455-2.136-1.233.007-2.455Z" transform="translate(-1785.295 221.54)" fill="#94a3c0"/>
    </g>
  </g>
  <g id="Group_504" data-name="Group 504" transform="translate(9.358 109.587)" opacity="0.6" style="mix-blend-mode: multiply;isolation: isolate">
    <path id="Path_820" data-name="Path 820" d="M1511.609-263.871c1.873,1.082,1.88,2.831.022,3.909l-62.186,36.139a7.425,7.425,0,0,1-6.75,0l-38.352-22.142c-1.87-1.08-1.882-2.829-.022-3.91l62.186-36.139a7.444,7.444,0,0,1,6.75,0Z" transform="translate(-1402.933 286.823)" fill="url(#linear-gradient)"/>
  </g>
  <g id="Group_505" data-name="Group 505" transform="translate(83.113 99.335)" opacity="0.47">
    <path id="Path_821" data-name="Path 821" d="M1790.307-207.311,1635.247-117.2,1479.173-207.31l155.06-90.111Z" transform="translate(-1479.173 297.421)" opacity="0.6" fill="url(#linear-gradient-2)" style="mix-blend-mode: multiply;isolation: isolate"/>
  </g>
  <g id="Group_510" data-name="Group 510" transform="translate(61.865 76.098)">
    <g id="Group_509" data-name="Group 509" style="isolation: isolate">
      <g id="Group_506" data-name="Group 506" transform="translate(156.074 90.109)">
        <path id="Path_822" data-name="Path 822" d="M1773.632-228.3l-.031,11.07-155.06,90.111.031-11.071Z" transform="translate(-1618.541 228.296)" fill="url(#linear-gradient-3)"/>
      </g>
      <g id="Group_507" data-name="Group 507" transform="translate(0 90.111)">
        <path id="Path_823" data-name="Path 823" d="M1613.315-138.185l-.031,11.071-156.074-90.109.031-11.07Z" transform="translate(-1457.209 228.294)" fill="url(#linear-gradient-4)"/>
      </g>
      <g id="Group_508" data-name="Group 508" transform="translate(0.031)">
        <path id="Path_824" data-name="Path 824" d="M1768.376-231.331l-155.06,90.111L1457.242-231.33,1612.3-321.44Z" transform="translate(-1457.242 321.44)" fill="url(#linear-gradient-5)"/>
      </g>
    </g>
  </g>
  <g id="Group_516" data-name="Group 516" transform="translate(61.865 76.098)">
    <g id="Group_515" data-name="Group 515">
      <g id="Group_514" data-name="Group 514" style="isolation: isolate">
        <g id="Group_511" data-name="Group 511" transform="translate(156.074 90.109)">
          <path id="Path_825" data-name="Path 825" d="M1773.632-228.3l-.031,11.07-155.06,90.111.031-11.071Z" transform="translate(-1618.541 228.296)" fill="url(#linear-gradient-3)"/>
        </g>
        <g id="Group_512" data-name="Group 512" transform="translate(0 90.111)">
          <path id="Path_826" data-name="Path 826" d="M1613.315-138.185l-.031,11.071-156.074-90.109.031-11.07Z" transform="translate(-1457.209 228.294)" fill="url(#linear-gradient-4)"/>
        </g>
        <g id="Group_513" data-name="Group 513" transform="translate(0.031)">
          <path id="Path_827" data-name="Path 827" d="M1768.376-231.331l-155.06,90.111L1457.242-231.33,1612.3-321.44Z" transform="translate(-1457.242 321.44)" fill="url(#linear-gradient-8)"/>
        </g>
      </g>
    </g>
  </g>
  <g id="Group_528" data-name="Group 528" transform="translate(112.286 6.249)">
    <g id="Group_517" data-name="Group 517" transform="translate(80.373)">
      <path id="Path_828" data-name="Path 828" d="M1717.21-234.457l-2.008-85.672c-.112-4.819-1.742-7.122-4.917-8.883L1595.46-391.764a3.6,3.6,0,0,0-3.049-.507h0s1.884-1.15,2.058-1.221h0a3.642,3.642,0,0,1,3.014.522l114.825,62.754c3.174,1.76,4.8,4.063,4.916,8.882l2.008,85.672c.053,2.3-.55,3.614-1.54,4.093l-1.685,1C1716.794-231.169,1717.257-232.428,1717.21-234.457Z" transform="translate(-1592.41 393.643)" fill="url(#linear-gradient-9)"/>
      <path id="Path_829" data-name="Path 829" d="M1719.747-224.826h0Z" transform="translate(-1596.56 388.141)" fill="#a6a8ab"/>
    </g>
    <path id="Path_830" data-name="Path 830" d="M1711.8-218.258a2.311,2.311,0,0,0-.011-.435l-.1-4.328h0a4.379,4.379,0,0,1-2.4,3.12l-73.19,44.574c-2.961,1.8-7.5,2.1-10.131.658l-114.824-62.753a3.079,3.079,0,0,1-1.8-2.341h-.008l.109,4.642h0a3.013,3.013,0,0,0,1.808,2.482l114.824,62.754c2.634,1.439,7.171,1.145,10.131-.658l73.191-44.574a4.391,4.391,0,0,0,2.394-3.106h0Z" transform="translate(-1509.329 388.628)" fill="#464647"/>
    <path id="Path_831" data-name="Path 831" d="M1709.879-227.448,1595.055-290.2c-2.634-1.44-7.171-1.145-10.131.658l-43.335,26.392-29.855,18.182a7.329,7.329,0,0,0-.956.689l0,0c-2.023,1.736-1.947,3.917.367,5.181l114.824,62.753c2.634,1.44,7.171,1.145,10.132-.658l29.863-18.187h0l43.327-26.387C1712.249-223.379,1712.513-226.007,1709.879-227.448Z" transform="translate(-1509.329 390.301)" fill="url(#linear-gradient-10)"/>
    <path id="Path_832" data-name="Path 832" d="M1561.719-210.761l18.73,10.235a.546.546,0,0,1,.03,1.033l-20.549-11.23A1.973,1.973,0,0,1,1561.719-210.761Z" transform="translate(-1510.978 387.689)" fill="#464647"/>
    <path id="Path_833" data-name="Path 833" d="M1605.772-284.374l97.09,53.062,1.292-.787-97.09-53.062Z" transform="translate(-1512.472 390.107)" fill="#464647"/>
    <g id="Group_518" data-name="Group 518" transform="translate(78.798 1.205)">
      <path id="Path_834" data-name="Path 834" d="M1715.148-320.088c-.112-4.819-1.742-7.122-4.917-8.883l-114.825-62.753c-2.634-1.44-4.725-.726-4.622,3.667l2.007,85.673c.132,5.6,2.036,7.316,4.917,8.882l114.824,62.753c2.634,1.44,4.721.534,4.623-3.667Z" transform="translate(-1590.781 392.397)" fill="#464647"/>
      <path id="Path_835" data-name="Path 835" d="M1712.159-242.1l-1.889-80.611a.787.787,0,0,0-.408-.671l-112.679-61.58a.785.785,0,0,0-1.162.708l1.888,80.611a.785.785,0,0,0,.409.67L1711-241.4A.786.786,0,0,0,1712.159-242.1Z" transform="translate(-1590.952 392.158)" fill="#33b4ff"/>
      <path id="Path_836" data-name="Path 836" d="M1684.1-337.467l-52.069-28.456-34.846-19.043a.785.785,0,0,0-1.162.707l1.89,80.612a.782.782,0,0,0,.408.67l15.388,8.411Z" transform="translate(-1590.952 392.158)" fill="#fff" opacity="0.2" style="mix-blend-mode: overlay;isolation: isolate"/>
    </g>
    <g id="Group_520" data-name="Group 520" transform="translate(43.435 152.289)">
      <path id="Path_837" data-name="Path 837" d="M1564.222-226.381l15.434-9.4a3.741,3.741,0,0,1,3.387-.074l38.4,20.988a1.032,1.032,0,0,1,.056,1.955l-15.434,9.4Z" transform="translate(-1554.553 236.223)" fill="#7b7b7c" opacity="0.4"/>
      <g id="Group_519" data-name="Group 519" transform="translate(0 10.232)" opacity="0.4">
        <path id="Path_838" data-name="Path 838" d="M1585.193-213.638l20.592,11.254-8.355,5.089a3.744,3.744,0,0,1-3.387.074l-18.871-10.315Z" transform="translate(-1554.91 225.255)" fill="#7a7a7a" opacity="0.4"/>
        <path id="Path_839" data-name="Path 839" d="M1583.849-214.391l-10.02,6.1L1554.957-218.6a1.032,1.032,0,0,1-.056-1.955l8.355-5.089Z" transform="translate(-1554.227 225.646)" fill="#7a7a7a" opacity="0.4"/>
      </g>
    </g>
    <g id="Group_527" data-name="Group 527" transform="translate(39.938 104.953)">
      <g id="Group_521" data-name="Group 521" transform="translate(30.077 2.939)">
        <path id="Path_840" data-name="Path 840" d="M1690.046-218.781l5.745,3.14a1.5,1.5,0,0,0,1.351-.088l5.358-3.263c.395-.241.431-.591.078-.783l-5.745-3.14a1.5,1.5,0,0,0-1.351.088l-5.358,3.263C1689.729-219.324,1689.695-218.974,1690.046-218.781Z" transform="translate(-1585.226 280.191)" fill="#232323"/>
        <path id="Path_841" data-name="Path 841" d="M1682.01-223.173l5.746,3.14a1.5,1.5,0,0,0,1.35-.088l5.358-3.263c.395-.24.431-.591.079-.783l-5.747-3.14a1.5,1.5,0,0,0-1.351.088l-5.358,3.263C1681.694-223.716,1681.659-223.365,1682.01-223.173Z" transform="translate(-1584.964 280.334)" fill="#232323"/>
        <path id="Path_842" data-name="Path 842" d="M1673.974-227.565l5.745,3.14a1.5,1.5,0,0,0,1.35-.088l5.358-3.263c.395-.24.431-.59.079-.783l-5.746-3.14a1.5,1.5,0,0,0-1.351.088l-5.358,3.263C1673.657-228.107,1673.622-227.757,1673.974-227.565Z" transform="translate(-1584.702 280.477)" fill="#232323"/>
        <path id="Path_843" data-name="Path 843" d="M1665.938-231.957l5.745,3.14a1.5,1.5,0,0,0,1.35-.087l5.358-3.264c.395-.24.43-.591.078-.783l-5.745-3.14a1.5,1.5,0,0,0-1.351.088l-5.359,3.263C1665.621-232.5,1665.586-232.149,1665.938-231.957Z" transform="translate(-1584.44 280.62)" fill="#232323"/>
        <path id="Path_844" data-name="Path 844" d="M1657.9-236.349l5.746,3.14A1.5,1.5,0,0,0,1665-233.3l5.359-3.263c.395-.241.429-.591.078-.784l-5.746-3.14a1.5,1.5,0,0,0-1.35.088l-5.359,3.263C1657.585-236.891,1657.55-236.541,1657.9-236.349Z" transform="translate(-1584.178 280.763)" fill="#232323"/>
        <path id="Path_845" data-name="Path 845" d="M1649.865-240.74l5.746,3.14a1.506,1.506,0,0,0,1.351-.088l5.359-3.264c.395-.24.43-.59.078-.783l-5.745-3.14a1.5,1.5,0,0,0-1.351.088l-5.358,3.263C1649.549-241.283,1649.514-240.933,1649.865-240.74Z" transform="translate(-1583.917 280.906)" fill="#232323"/>
        <path id="Path_846" data-name="Path 846" d="M1641.829-245.133l5.746,3.141a1.506,1.506,0,0,0,1.351-.088l5.358-3.263c.4-.241.43-.591.079-.784l-5.746-3.14a1.505,1.505,0,0,0-1.35.088l-5.358,3.263C1641.513-245.675,1641.478-245.325,1641.829-245.133Z" transform="translate(-1583.655 281.05)" fill="#232323"/>
        <path id="Path_847" data-name="Path 847" d="M1633.793-249.524l5.746,3.14a1.5,1.5,0,0,0,1.351-.088l5.358-3.263c.395-.241.429-.591.079-.783l-5.746-3.141a1.508,1.508,0,0,0-1.352.088l-5.357,3.264C1633.478-250.067,1633.442-249.717,1633.793-249.524Z" transform="translate(-1583.393 281.193)" fill="#232323"/>
        <path id="Path_848" data-name="Path 848" d="M1625.757-253.916l5.745,3.14a1.5,1.5,0,0,0,1.351-.088l5.359-3.263c.394-.241.429-.591.078-.783l-5.746-3.14a1.5,1.5,0,0,0-1.351.087l-5.359,3.264C1625.441-254.459,1625.406-254.109,1625.757-253.916Z" transform="translate(-1583.131 281.336)" fill="#232323"/>
        <path id="Path_849" data-name="Path 849" d="M1617.721-258.308l5.745,3.14a1.5,1.5,0,0,0,1.352-.088l5.357-3.263c.395-.241.431-.591.079-.783l-5.746-3.14a1.506,1.506,0,0,0-1.351.087l-5.358,3.263C1617.406-258.851,1617.37-258.5,1617.721-258.308Z" transform="translate(-1582.869 281.479)" fill="#232323"/>
        <path id="Path_850" data-name="Path 850" d="M1609.685-262.7l5.745,3.14a1.5,1.5,0,0,0,1.352-.088l5.357-3.263c.395-.24.43-.591.079-.783l-5.746-3.14a1.5,1.5,0,0,0-1.351.088l-5.359,3.263C1609.369-263.243,1609.334-262.892,1609.685-262.7Z" transform="translate(-1582.607 281.622)" fill="#232323"/>
        <path id="Path_851" data-name="Path 851" d="M1601.649-267.092l5.745,3.14a1.5,1.5,0,0,0,1.35-.088l5.359-3.263c.395-.24.429-.591.079-.783l-5.747-3.14a1.5,1.5,0,0,0-1.35.088l-5.359,3.263C1601.333-267.635,1601.3-267.284,1601.649-267.092Z" transform="translate(-1582.345 281.765)" fill="#232323"/>
        <path id="Path_852" data-name="Path 852" d="M1593.613-271.484l5.745,3.14a1.5,1.5,0,0,0,1.35-.088l5.359-3.263c.395-.24.429-.59.078-.783l-5.746-3.14a1.5,1.5,0,0,0-1.35.088l-5.359,3.263C1593.3-272.027,1593.261-271.676,1593.613-271.484Z" transform="translate(-1582.083 281.908)" fill="#232323"/>
        <path id="Path_853" data-name="Path 853" d="M1581.945-277.86l9.259,5.06a1.5,1.5,0,0,0,1.35-.087l5.359-3.264c.395-.24.429-.59.078-.783l-9.258-5.06a1.5,1.5,0,0,0-1.351.087l-5.358,3.264C1581.629-278.4,1581.594-278.053,1581.945-277.86Z" transform="translate(-1581.703 282.116)" fill="#232323"/>
      </g>
      <g id="Group_522" data-name="Group 522" transform="translate(22.558 7.518)">
        <path id="Path_854" data-name="Path 854" d="M1586.706-274.121l-5.745-3.14a1.506,1.506,0,0,0-1.351.088l-5.358,3.263c-.395.241-.43.591-.078.784l5.745,3.14a1.5,1.5,0,0,0,1.35-.088l5.359-3.263C1587.022-273.578,1587.058-273.928,1586.706-274.121Z" transform="translate(-1573.931 277.382)" fill="#232323"/>
        <path id="Path_855" data-name="Path 855" d="M1594.743-269.729l-5.746-3.14a1.505,1.505,0,0,0-1.35.088l-5.358,3.263c-.395.241-.429.591-.078.784l5.745,3.139a1.5,1.5,0,0,0,1.35-.087l5.359-3.263C1595.058-269.186,1595.094-269.536,1594.743-269.729Z" transform="translate(-1574.193 277.239)" fill="#232323"/>
        <path id="Path_856" data-name="Path 856" d="M1602.778-265.337l-5.746-3.14a1.5,1.5,0,0,0-1.35.088l-5.359,3.263c-.395.241-.429.591-.078.783l5.745,3.14a1.5,1.5,0,0,0,1.351-.087l5.359-3.264C1603.095-264.794,1603.13-265.144,1602.778-265.337Z" transform="translate(-1574.454 277.096)" fill="#232323"/>
        <path id="Path_857" data-name="Path 857" d="M1610.815-260.945l-5.745-3.14a1.5,1.5,0,0,0-1.351.088l-5.358,3.263c-.4.24-.431.591-.079.783l5.745,3.14a1.5,1.5,0,0,0,1.352-.087l5.358-3.264C1611.13-260.4,1611.166-260.753,1610.815-260.945Z" transform="translate(-1574.716 276.953)" fill="#232323"/>
        <path id="Path_858" data-name="Path 858" d="M1618.85-256.553l-5.746-3.14a1.5,1.5,0,0,0-1.349.088l-5.359,3.263c-.394.24-.429.591-.078.783l5.747,3.14a1.5,1.5,0,0,0,1.35-.088l5.358-3.263C1619.167-256.01,1619.2-256.36,1618.85-256.553Z" transform="translate(-1574.978 276.81)" fill="#232323"/>
        <path id="Path_859" data-name="Path 859" d="M1626.887-252.161l-5.745-3.14a1.5,1.5,0,0,0-1.352.088l-5.358,3.263c-.394.24-.43.591-.079.783l5.746,3.14a1.5,1.5,0,0,0,1.351-.088l5.358-3.263C1627.2-251.618,1627.238-251.969,1626.887-252.161Z" transform="translate(-1575.24 276.667)" fill="#232323"/>
        <path id="Path_860" data-name="Path 860" d="M1634.922-247.769l-5.745-3.14a1.5,1.5,0,0,0-1.35.088l-5.359,3.263c-.395.24-.43.59-.078.783l5.746,3.14a1.5,1.5,0,0,0,1.35-.088l5.358-3.263C1635.239-247.226,1635.275-247.577,1634.922-247.769Z" transform="translate(-1575.502 276.524)" fill="#232323"/>
        <path id="Path_861" data-name="Path 861" d="M1642.958-243.377l-5.745-3.14a1.5,1.5,0,0,0-1.351.087l-5.359,3.264c-.395.24-.429.59-.078.783l5.745,3.14a1.5,1.5,0,0,0,1.35-.088l5.359-3.263C1643.275-242.834,1643.31-243.185,1642.958-243.377Z" transform="translate(-1575.764 276.38)" fill="#232323"/>
        <path id="Path_862" data-name="Path 862" d="M1651-238.986l-5.746-3.139a1.5,1.5,0,0,0-1.351.087l-5.358,3.264c-.395.24-.431.59-.079.783l5.746,3.14a1.5,1.5,0,0,0,1.351-.088l5.358-3.263C1651.311-238.443,1651.346-238.793,1651-238.986Z" transform="translate(-1576.026 276.237)" fill="#232323"/>
        <path id="Path_863" data-name="Path 863" d="M1659.031-234.593l-5.745-3.141a1.506,1.506,0,0,0-1.351.088l-5.358,3.263c-.395.241-.43.591-.078.784l5.745,3.14a1.5,1.5,0,0,0,1.35-.088l5.359-3.263C1659.347-234.051,1659.383-234.4,1659.031-234.593Z" transform="translate(-1576.288 276.094)" fill="#232323"/>
        <path id="Path_864" data-name="Path 864" d="M1667.067-230.2l-5.746-3.139a1.5,1.5,0,0,0-1.35.087l-5.358,3.263c-.395.241-.43.591-.078.784l5.745,3.14a1.505,1.505,0,0,0,1.35-.088l5.359-3.263C1667.383-229.659,1667.418-230.009,1667.067-230.2Z" transform="translate(-1576.549 275.951)" fill="#232323"/>
        <path id="Path_865" data-name="Path 865" d="M1675.1-225.81l-5.747-3.14a1.5,1.5,0,0,0-1.35.088l-5.358,3.263c-.4.241-.431.591-.079.784l5.745,3.139a1.5,1.5,0,0,0,1.351-.087l5.358-3.264C1675.419-225.267,1675.454-225.617,1675.1-225.81Z" transform="translate(-1576.811 275.808)" fill="#232323"/>
        <path id="Path_866" data-name="Path 866" d="M1683.139-221.418l-5.745-3.14a1.5,1.5,0,0,0-1.351.088l-5.357,3.263c-.4.24-.43.591-.079.783l5.746,3.14a1.5,1.5,0,0,0,1.352-.087l5.358-3.264C1683.455-220.875,1683.49-221.225,1683.139-221.418Z" transform="translate(-1577.073 275.665)" fill="#232323"/>
        <path id="Path_867" data-name="Path 867" d="M1694.688-215.107l-9.258-5.06a1.5,1.5,0,0,0-1.351.088l-5.358,3.263c-.394.24-.43.591-.079.783l9.259,5.061a1.5,1.5,0,0,0,1.351-.088l5.358-3.263C1695-214.564,1695.039-214.914,1694.688-215.107Z" transform="translate(-1577.335 275.522)" fill="#232323"/>
      </g>
      <g id="Group_523" data-name="Group 523" transform="translate(15.039 12.098)">
        <path id="Path_868" data-name="Path 868" d="M1584.544-266.32l-11.357-6.207a1.5,1.5,0,0,0-1.351.088l-5.358,3.263c-.4.241-.43.591-.079.783l11.357,6.208a1.505,1.505,0,0,0,1.35-.088l5.359-3.263C1584.861-265.777,1584.9-266.128,1584.544-266.32Z" transform="translate(-1566.158 272.649)" fill="#232323"/>
        <path id="Path_869" data-name="Path 869" d="M1686.778-210.447l-11.357-6.207a1.5,1.5,0,0,0-1.35.088l-5.359,3.263c-.395.241-.43.591-.078.783l11.358,6.208a1.505,1.505,0,0,0,1.35-.088l5.358-3.263C1687.095-209.9,1687.131-210.255,1686.778-210.447Z" transform="translate(-1569.489 270.828)" fill="#232323"/>
        <path id="Path_870" data-name="Path 870" d="M1592.771-261.825l-5.746-3.14a1.5,1.5,0,0,0-1.351.088l-5.359,3.263c-.395.241-.429.591-.078.783l5.745,3.14a1.5,1.5,0,0,0,1.35-.087l5.359-3.263C1593.086-261.282,1593.122-261.632,1592.771-261.825Z" transform="translate(-1566.609 272.402)" fill="#232323"/>
        <path id="Path_871" data-name="Path 871" d="M1600.807-257.433l-5.746-3.14a1.5,1.5,0,0,0-1.35.088l-5.358,3.263c-.395.241-.43.591-.078.783l5.745,3.14a1.5,1.5,0,0,0,1.352-.087l5.357-3.264C1601.122-256.89,1601.158-257.24,1600.807-257.433Z" transform="translate(-1566.871 272.259)" fill="#232323"/>
        <path id="Path_872" data-name="Path 872" d="M1608.842-253.041l-5.745-3.14a1.5,1.5,0,0,0-1.351.088l-5.359,3.263c-.395.24-.429.591-.078.783l5.745,3.14a1.5,1.5,0,0,0,1.351-.087l5.358-3.264C1609.159-252.5,1609.193-252.849,1608.842-253.041Z" transform="translate(-1567.132 272.116)" fill="#232323"/>
        <path id="Path_873" data-name="Path 873" d="M1616.879-248.649l-5.746-3.14a1.507,1.507,0,0,0-1.351.087l-5.359,3.264c-.394.24-.43.591-.078.783l5.745,3.14a1.5,1.5,0,0,0,1.352-.088l5.358-3.263C1617.2-248.106,1617.23-248.457,1616.879-248.649Z" transform="translate(-1567.395 271.973)" fill="#232323"/>
        <path id="Path_874" data-name="Path 874" d="M1624.914-244.257l-5.745-3.14a1.5,1.5,0,0,0-1.351.087l-5.358,3.264c-.395.24-.43.591-.079.783l5.746,3.14a1.5,1.5,0,0,0,1.351-.088l5.359-3.263C1625.23-243.714,1625.266-244.065,1624.914-244.257Z" transform="translate(-1567.656 271.83)" fill="#232323"/>
        <path id="Path_875" data-name="Path 875" d="M1632.95-239.865l-5.745-3.14a1.5,1.5,0,0,0-1.352.087l-5.357,3.264c-.395.24-.431.591-.079.783l5.746,3.14a1.5,1.5,0,0,0,1.35-.088l5.359-3.263C1633.267-239.322,1633.3-239.673,1632.95-239.865Z" transform="translate(-1567.918 271.687)" fill="#232323"/>
        <path id="Path_876" data-name="Path 876" d="M1640.986-235.473l-5.745-3.14a1.5,1.5,0,0,0-1.35.087l-5.358,3.264c-.395.24-.43.59-.079.783l5.746,3.14a1.5,1.5,0,0,0,1.35-.088l5.359-3.263C1641.3-234.931,1641.338-235.281,1640.986-235.473Z" transform="translate(-1568.18 271.543)" fill="#232323"/>
        <path id="Path_877" data-name="Path 877" d="M1649.023-231.081l-5.745-3.141a1.506,1.506,0,0,0-1.351.088l-5.359,3.263c-.395.241-.429.591-.078.784l5.745,3.14a1.5,1.5,0,0,0,1.351-.088l5.358-3.263C1649.339-230.539,1649.374-230.889,1649.023-231.081Z" transform="translate(-1568.442 271.4)" fill="#232323"/>
        <path id="Path_878" data-name="Path 878" d="M1657.06-226.69l-5.746-3.14a1.505,1.505,0,0,0-1.35.088l-5.359,3.263c-.394.241-.43.591-.078.783l5.745,3.141a1.506,1.506,0,0,0,1.351-.088l5.358-3.263C1657.375-226.147,1657.41-226.5,1657.06-226.69Z" transform="translate(-1568.704 271.257)" fill="#232323"/>
        <path id="Path_879" data-name="Path 879" d="M1665.1-222.3l-5.746-3.14a1.5,1.5,0,0,0-1.351.088l-5.358,3.263c-.395.241-.429.591-.078.784l5.745,3.14a1.506,1.506,0,0,0,1.351-.088l5.358-3.263C1665.411-221.755,1665.447-222.105,1665.1-222.3Z" transform="translate(-1568.966 271.114)" fill="#232323"/>
        <path id="Path_880" data-name="Path 880" d="M1673.131-217.906l-5.745-3.14a1.5,1.5,0,0,0-1.352.088l-5.358,3.263c-.395.241-.43.591-.078.783l5.745,3.14a1.5,1.5,0,0,0,1.351-.087l5.358-3.264C1673.447-217.363,1673.483-217.713,1673.131-217.906Z" transform="translate(-1569.228 270.971)" fill="#232323"/>
      </g>
      <g id="Group_524" data-name="Group 524" transform="translate(7.519 16.678)">
        <path id="Path_881" data-name="Path 881" d="M1580.631-259.477l-15.216-8.316a1.5,1.5,0,0,0-1.351.088l-5.358,3.263c-.395.24-.431.591-.079.783l15.218,8.317a1.5,1.5,0,0,0,1.35-.088l5.359-3.263C1580.948-258.935,1580.984-259.285,1580.631-259.477Z" transform="translate(-1558.385 267.915)" fill="#232323"/>
        <path id="Path_882" data-name="Path 882" d="M1588.987-254.911l-5.745-3.14a1.505,1.505,0,0,0-1.35.088l-5.359,3.263c-.395.241-.431.591-.078.784l5.745,3.139a1.5,1.5,0,0,0,1.35-.087l5.358-3.263C1589.3-254.368,1589.338-254.718,1588.987-254.911Z" transform="translate(-1558.966 267.597)" fill="#232323"/>
        <path id="Path_883" data-name="Path 883" d="M1597.022-250.519l-5.745-3.14a1.5,1.5,0,0,0-1.35.088l-5.359,3.263c-.395.241-.429.591-.078.783l5.745,3.14a1.5,1.5,0,0,0,1.35-.087l5.359-3.264C1597.339-249.976,1597.375-250.326,1597.022-250.519Z" transform="translate(-1559.228 267.454)" fill="#232323"/>
        <path id="Path_884" data-name="Path 884" d="M1605.06-246.127l-5.746-3.14a1.5,1.5,0,0,0-1.351.088l-5.358,3.263c-.395.241-.43.591-.078.783l5.746,3.14a1.5,1.5,0,0,0,1.351-.087l5.358-3.264C1605.375-245.584,1605.411-245.934,1605.06-246.127Z" transform="translate(-1559.49 267.311)" fill="#232323"/>
        <path id="Path_885" data-name="Path 885" d="M1613.1-241.735l-5.746-3.14a1.5,1.5,0,0,0-1.351.088l-5.358,3.263c-.395.24-.43.591-.078.783l5.746,3.14a1.5,1.5,0,0,0,1.35-.087l5.359-3.264C1613.411-241.192,1613.447-241.543,1613.1-241.735Z" transform="translate(-1559.752 267.168)" fill="#232323"/>
        <path id="Path_886" data-name="Path 886" d="M1621.131-237.343l-5.746-3.14a1.5,1.5,0,0,0-1.351.088l-5.358,3.263c-.394.24-.43.591-.078.783l5.745,3.14a1.5,1.5,0,0,0,1.351-.088l5.358-3.263C1621.447-236.8,1621.483-237.151,1621.131-237.343Z" transform="translate(-1560.014 267.025)" fill="#232323"/>
        <path id="Path_887" data-name="Path 887" d="M1629.167-232.951l-5.745-3.14a1.5,1.5,0,0,0-1.351.087l-5.359,3.264c-.395.24-.43.591-.078.783l5.746,3.14a1.5,1.5,0,0,0,1.351-.088l5.357-3.263C1629.484-232.409,1629.519-232.759,1629.167-232.951Z" transform="translate(-1560.275 266.882)" fill="#232323"/>
        <path id="Path_888" data-name="Path 888" d="M1637.2-228.559l-5.746-3.14a1.5,1.5,0,0,0-1.35.087l-5.359,3.264c-.395.24-.431.59-.079.783l5.746,3.14a1.506,1.506,0,0,0,1.35-.088l5.358-3.263C1637.52-228.017,1637.555-228.367,1637.2-228.559Z" transform="translate(-1560.537 266.738)" fill="#232323"/>
        <path id="Path_889" data-name="Path 889" d="M1645.239-224.167l-5.745-3.14a1.5,1.5,0,0,0-1.351.087l-5.357,3.263c-.395.241-.431.591-.079.784l5.746,3.14a1.5,1.5,0,0,0,1.35-.088l5.359-3.263C1645.556-223.625,1645.591-223.975,1645.239-224.167Z" transform="translate(-1560.799 266.595)" fill="#232323"/>
        <path id="Path_890" data-name="Path 890" d="M1653.276-219.775l-5.746-3.141a1.508,1.508,0,0,0-1.352.088l-5.357,3.263c-.395.241-.431.591-.079.784l5.746,3.14a1.5,1.5,0,0,0,1.351-.088l5.358-3.263C1653.592-219.233,1653.627-219.583,1653.276-219.775Z" transform="translate(-1561.061 266.452)" fill="#232323"/>
        <path id="Path_891" data-name="Path 891" d="M1661.311-215.384l-5.745-3.14a1.506,1.506,0,0,0-1.351.088l-5.359,3.263c-.395.241-.43.591-.078.784l5.745,3.14a1.506,1.506,0,0,0,1.351-.088l5.358-3.263C1661.628-214.841,1661.663-215.191,1661.311-215.384Z" transform="translate(-1561.323 266.309)" fill="#232323"/>
        <path id="Path_892" data-name="Path 892" d="M1678.875-205.785l-15.272-8.347a1.506,1.506,0,0,0-1.351.088l-5.358,3.263c-.395.241-.431.591-.078.784l15.272,8.346a1.5,1.5,0,0,0,1.351-.088L1678.8-205C1679.19-205.243,1679.226-205.593,1678.875-205.785Z" transform="translate(-1561.585 266.166)" fill="#232323"/>
      </g>
      <g id="Group_525" data-name="Group 525" transform="translate(0 21.257)">
        <path id="Path_893" data-name="Path 893" d="M1636.42-220.006l-36.844-20.135a1.5,1.5,0,0,0-1.35.088l-5.358,3.263c-.395.24-.43.591-.078.783l36.843,20.135a1.5,1.5,0,0,0,1.35-.087l5.359-3.263C1636.735-219.464,1636.771-219.814,1636.42-220.006Z" transform="translate(-1551.979 262.434)" fill="#232323"/>
        <path id="Path_894" data-name="Path 894" d="M1587.5-246.744l-5.746-3.14a1.5,1.5,0,0,0-1.351.088l-5.358,3.263c-.395.241-.43.591-.079.784l5.746,3.14a1.5,1.5,0,0,0,1.35-.088l5.358-3.263C1587.812-246.2,1587.848-246.551,1587.5-246.744Z" transform="translate(-1551.398 262.752)" fill="#232323"/>
        <path id="Path_895" data-name="Path 895" d="M1597.229-241.424l-7.443-4.068a1.5,1.5,0,0,0-1.35.088l-5.358,3.263c-.395.241-.43.591-.079.784l7.442,4.067a1.5,1.5,0,0,0,1.352-.088l5.357-3.263C1597.545-240.881,1597.58-241.233,1597.229-241.424Z" transform="translate(-1551.66 262.609)" fill="#232323"/>
        <path id="Path_896" data-name="Path 896" d="M1649.547-212.831l5.745,3.14c.352.192.316.543-.078.783l-5.358,3.263a1.5,1.5,0,0,1-1.351.088l-5.745-3.14c-.352-.192-.316-.543.078-.783l5.359-3.264A1.5,1.5,0,0,1,1649.547-212.831Z" transform="translate(-1553.608 261.544)" fill="#232323"/>
        <path id="Path_897" data-name="Path 897" d="M1639.757-218.182l7.442,4.068c.351.192.316.543-.079.783l-5.358,3.263a1.5,1.5,0,0,1-1.35.088l-7.442-4.068c-.351-.192-.316-.542.078-.783l5.359-3.263A1.5,1.5,0,0,1,1639.757-218.182Z" transform="translate(-1553.289 261.719)" fill="#232323"/>
        <path id="Path_898" data-name="Path 898" d="M1563.388-259.919l-5.745-3.14a1.5,1.5,0,0,0-1.35.087l-5.359,3.264c-.395.24-.429.591-.078.783l5.745,3.14a1.5,1.5,0,0,0,1.351-.088l5.359-3.263C1563.7-259.377,1563.74-259.727,1563.388-259.919Z" transform="translate(-1550.613 263.181)" fill="#232323"/>
        <path id="Path_899" data-name="Path 899" d="M1571.425-255.527l-5.747-3.14a1.5,1.5,0,0,0-1.35.087l-5.359,3.264c-.395.24-.43.59-.078.783l5.745,3.14a1.508,1.508,0,0,0,1.351-.088l5.357-3.263C1571.74-254.985,1571.776-255.335,1571.425-255.527Z" transform="translate(-1550.874 263.038)" fill="#232323"/>
        <path id="Path_900" data-name="Path 900" d="M1579.461-251.135l-5.746-3.141a1.506,1.506,0,0,0-1.351.088l-5.358,3.263c-.395.241-.43.591-.078.784l5.745,3.14a1.5,1.5,0,0,0,1.351-.088l5.358-3.263C1579.776-250.593,1579.812-250.943,1579.461-251.135Z" transform="translate(-1551.137 262.895)" fill="#232323"/>
        <path id="Path_901" data-name="Path 901" d="M1671.159-201.02l-13.576-7.419a1.5,1.5,0,0,0-1.35.087l-5.358,3.264c-.395.24-.43.591-.078.783l13.576,7.419a1.5,1.5,0,0,0,1.35-.088l5.358-3.263C1671.475-200.477,1671.51-200.828,1671.159-201.02Z" transform="translate(-1553.87 261.401)" fill="#232323"/>
      </g>
      <g id="Group_526" data-name="Group 526" transform="translate(37.596)">
        <path id="Path_902" data-name="Path 902" d="M1697.819-223.46l5.745,3.14a1.5,1.5,0,0,0,1.35-.088l2.665-1.622c.395-.24.43-.591.079-.783l-5.746-3.14a1.5,1.5,0,0,0-1.351.088l-2.664,1.622C1697.5-224,1697.467-223.652,1697.819-223.46Z" transform="translate(-1592.999 283.229)" fill="#232323"/>
        <path id="Path_903" data-name="Path 903" d="M1689.783-227.852l5.745,3.14a1.5,1.5,0,0,0,1.35-.087l2.664-1.623c.395-.24.431-.591.079-.783l-5.746-3.14a1.5,1.5,0,0,0-1.35.088l-2.664,1.622C1689.467-228.395,1689.431-228.044,1689.783-227.852Z" transform="translate(-1592.737 283.372)" fill="#232323"/>
        <path id="Path_904" data-name="Path 904" d="M1681.746-232.244l5.746,3.141a1.505,1.505,0,0,0,1.35-.088l2.665-1.623c.395-.24.43-.59.078-.783l-5.745-3.14a1.5,1.5,0,0,0-1.351.088l-2.664,1.622C1681.43-232.786,1681.395-232.436,1681.746-232.244Z" transform="translate(-1592.475 283.515)" fill="#232323"/>
        <path id="Path_905" data-name="Path 905" d="M1673.71-236.635l5.747,3.14a1.506,1.506,0,0,0,1.35-.088l2.664-1.623c.395-.24.431-.59.078-.783l-5.745-3.14a1.5,1.5,0,0,0-1.35.088l-2.664,1.622C1673.394-237.178,1673.358-236.828,1673.71-236.635Z" transform="translate(-1592.213 283.658)" fill="#232323"/>
        <path id="Path_906" data-name="Path 906" d="M1665.674-241.028l5.746,3.141a1.5,1.5,0,0,0,1.35-.088l2.664-1.622c.395-.241.43-.591.078-.784l-5.746-3.139a1.5,1.5,0,0,0-1.35.087l-2.664,1.622C1665.358-241.57,1665.323-241.22,1665.674-241.028Z" transform="translate(-1591.951 283.801)" fill="#232323"/>
        <path id="Path_907" data-name="Path 907" d="M1657.638-245.419l5.746,3.14a1.508,1.508,0,0,0,1.352-.088l2.664-1.622c.395-.241.429-.591.078-.784l-5.745-3.139a1.5,1.5,0,0,0-1.351.087l-2.664,1.622C1657.321-245.962,1657.287-245.612,1657.638-245.419Z" transform="translate(-1591.689 283.944)" fill="#232323"/>
        <path id="Path_908" data-name="Path 908" d="M1649.6-249.811l5.746,3.14a1.5,1.5,0,0,0,1.352-.088l2.664-1.622c.395-.241.43-.591.078-.783l-5.745-3.14a1.5,1.5,0,0,0-1.351.087l-2.664,1.623C1649.285-250.354,1649.251-250,1649.6-249.811Z" transform="translate(-1591.427 284.088)" fill="#232323"/>
        <path id="Path_909" data-name="Path 909" d="M1641.566-254.2l5.745,3.14a1.5,1.5,0,0,0,1.352-.088l2.664-1.622c.395-.241.43-.591.078-.783l-5.745-3.14a1.5,1.5,0,0,0-1.351.087l-2.665,1.623C1641.249-254.746,1641.214-254.4,1641.566-254.2Z" transform="translate(-1591.165 284.231)" fill="#232323"/>
        <path id="Path_910" data-name="Path 910" d="M1633.53-258.6l5.745,3.14a1.5,1.5,0,0,0,1.351-.088l2.664-1.622c.395-.24.431-.591.079-.783l-5.746-3.14a1.5,1.5,0,0,0-1.35.087l-2.664,1.623C1633.213-259.138,1633.178-258.787,1633.53-258.6Z" transform="translate(-1590.903 284.374)" fill="#232323"/>
        <path id="Path_911" data-name="Path 911" d="M1625.494-262.987l5.745,3.14a1.5,1.5,0,0,0,1.351-.087l2.663-1.623c.395-.24.431-.591.079-.783l-5.746-3.14a1.5,1.5,0,0,0-1.351.088l-2.664,1.622C1625.177-263.53,1625.143-263.179,1625.494-262.987Z" transform="translate(-1590.642 284.517)" fill="#232323"/>
        <path id="Path_912" data-name="Path 912" d="M1617.458-267.379l5.745,3.14a1.5,1.5,0,0,0,1.351-.087l2.664-1.623c.395-.24.43-.591.079-.783l-5.746-3.14a1.5,1.5,0,0,0-1.351.088l-2.664,1.622C1617.141-267.921,1617.106-267.571,1617.458-267.379Z" transform="translate(-1590.38 284.66)" fill="#232323"/>
        <path id="Path_913" data-name="Path 913" d="M1609.421-271.77l5.747,3.139a1.5,1.5,0,0,0,1.35-.087l2.664-1.623c.395-.24.43-.59.078-.783l-5.745-3.14a1.5,1.5,0,0,0-1.351.088l-2.664,1.622C1609.105-272.313,1609.071-271.963,1609.421-271.77Z" transform="translate(-1590.118 284.803)" fill="#232323"/>
        <path id="Path_914" data-name="Path 914" d="M1601.385-276.163l5.746,3.14a1.5,1.5,0,0,0,1.351-.087l2.664-1.622c.394-.241.43-.591.078-.784l-5.745-3.14a1.5,1.5,0,0,0-1.35.088l-2.664,1.622C1601.069-276.7,1601.033-276.355,1601.385-276.163Z" transform="translate(-1589.856 284.946)" fill="#232323"/>
        <path id="Path_915" data-name="Path 915" d="M1589.718-282.539l9.259,5.06a1.5,1.5,0,0,0,1.35-.087l2.664-1.622c.395-.241.43-.591.078-.784l-9.258-5.06a1.5,1.5,0,0,0-1.351.088l-2.665,1.622C1589.4-283.082,1589.366-282.731,1589.718-282.539Z" transform="translate(-1589.476 285.154)" fill="#232323"/>
      </g>
    </g>
  </g>
  <g id="Group_529" data-name="Group 529" transform="translate(288.69 220.752)" opacity="0.6" style="mix-blend-mode: multiply;isolation: isolate">
    <path id="Path_916" data-name="Path 916" d="M1798.748-140.9l-53.362,31.011-53.711-31.01,53.362-31.01Z" transform="translate(-1691.675 171.913)" fill="url(#linear-gradient-11)"/>
  </g>
  <g id="Group_552" data-name="Group 552" transform="translate(276.05 148.516)">
    <g id="Group_535" data-name="Group 535">
      <g id="Group_534" data-name="Group 534">
        <g id="Group_533" data-name="Group 533" style="isolation: isolate">
          <g id="Group_530" data-name="Group 530" transform="translate(53.711 31.01)">
            <path id="Path_917" data-name="Path 917" d="M1787.5-214.528l-.011,65.085-53.362,31.01.011-65.085Z" transform="translate(-1734.13 214.528)" fill="url(#linear-gradient-3)"/>
          </g>
          <g id="Group_531" data-name="Group 531" transform="translate(0 31.01)">
            <path id="Path_918" data-name="Path 918" d="M1732.332-183.518l-.011,65.085-53.711-31.01.011-65.085Z" transform="translate(-1678.61 214.528)" fill="url(#linear-gradient-13)"/>
          </g>
          <path id="Path_919" data-name="Path 919" d="M1681.938-146.263l48.291,27.881,0-27.746-48.292-27.881Z" transform="translate(-1678.718 244.218)" fill="#382747"/>
          <g id="Group_532" data-name="Group 532" transform="translate(0.011)">
            <path id="Path_920" data-name="Path 920" d="M1785.693-215.573l-53.362,31.01-53.711-31.01,53.362-31.01Z" transform="translate(-1678.621 246.583)" fill="url(#linear-gradient-8)"/>
          </g>
        </g>
      </g>
    </g>
    <g id="Group_544" data-name="Group 544" transform="translate(64.533 46.197)">
      <g id="Group_537" data-name="Group 537">
        <g id="Group_536" data-name="Group 536">
          <path id="Path_921" data-name="Path 921" d="M1747.042-180.038a3.8,3.8,0,0,0-1.725,2.988l.007,2.271c0,1.1.78,1.542,1.737.99l32.135-18.554a3.8,3.8,0,0,0,1.726-2.988l-.007-2.271c0-1.1-.78-1.541-1.737-.99Z" transform="translate(-1745.317 198.829)" fill="url(#linear-gradient-15)"/>
        </g>
        <path id="Path_922" data-name="Path 922" d="M1746.586-174.263l32.136-18.553a3.8,3.8,0,0,0,1.725-2.988l-.006-2.271a1.655,1.655,0,0,0-.131-.675,1.273,1.273,0,0,0-1.132.159l-32.135,18.554a3.8,3.8,0,0,0-1.726,2.988l.007,2.271a1.645,1.645,0,0,0,.132.675A1.268,1.268,0,0,0,1746.586-174.263Z" transform="translate(-1745.317 198.829)" fill="#6377a9"/>
        <path id="Path_923" data-name="Path 923" d="M1763.019-186.748a.806.806,0,0,0-.008-.086c-.029.014-.057.023-.087.041l-14.572,8.413.006,1.833a.8.8,0,0,0,.007.085c.029-.013.057-.023.087-.04l14.571-8.414Z" transform="translate(-1745.416 198.438)" fill="#48cfff"/>
      </g>
      <g id="Group_539" data-name="Group 539" transform="translate(0 13.387)">
        <g id="Group_538" data-name="Group 538">
          <path id="Path_924" data-name="Path 924" d="M1747.042-166.2a3.8,3.8,0,0,0-1.725,2.988l.007,2.27c0,1.1.78,1.542,1.737.99l32.135-18.553a3.8,3.8,0,0,0,1.726-2.988l-.007-2.271c0-1.1-.78-1.542-1.737-.99Z" transform="translate(-1745.317 184.992)" fill="url(#linear-gradient-15)"/>
        </g>
        <path id="Path_925" data-name="Path 925" d="M1746.586-160.425l32.136-18.554a3.8,3.8,0,0,0,1.725-2.988l-.006-2.271a1.662,1.662,0,0,0-.131-.675,1.274,1.274,0,0,0-1.132.16L1747.043-166.2a3.8,3.8,0,0,0-1.726,2.988l.007,2.27a1.653,1.653,0,0,0,.132.676A1.271,1.271,0,0,0,1746.586-160.425Z" transform="translate(-1745.317 184.991)" fill="#6377a9"/>
        <path id="Path_926" data-name="Path 926" d="M1763.019-172.911a.765.765,0,0,0-.008-.085c-.029.013-.057.023-.087.04l-14.572,8.414.006,1.832a.841.841,0,0,0,.007.086c.029-.014.057-.023.087-.041l14.571-8.413Z" transform="translate(-1745.416 184.601)" fill="#48cfff"/>
      </g>
      <g id="Group_541" data-name="Group 541" transform="translate(0 26.773)">
        <g id="Group_540" data-name="Group 540">
          <path id="Path_927" data-name="Path 927" d="M1747.042-152.363a3.8,3.8,0,0,0-1.725,2.988l.007,2.271c0,1.1.78,1.542,1.737.99l32.135-18.554a3.8,3.8,0,0,0,1.726-2.988l-.007-2.27c0-1.1-.78-1.542-1.737-.99Z" transform="translate(-1745.317 171.154)" fill="url(#linear-gradient-15)"/>
        </g>
        <path id="Path_928" data-name="Path 928" d="M1746.586-146.588l32.136-18.553a3.8,3.8,0,0,0,1.725-2.988l-.006-2.271a1.655,1.655,0,0,0-.131-.675,1.271,1.271,0,0,0-1.132.16l-32.135,18.553a3.8,3.8,0,0,0-1.726,2.988l.007,2.271a1.645,1.645,0,0,0,.132.675A1.268,1.268,0,0,0,1746.586-146.588Z" transform="translate(-1745.317 171.154)" fill="#6377a9"/>
        <path id="Path_929" data-name="Path 929" d="M1763.019-159.073a.766.766,0,0,0-.008-.085.766.766,0,0,0-.087.04l-14.572,8.413.006,1.833a.82.82,0,0,0,.007.085c.029-.013.057-.023.087-.04l14.571-8.414Z" transform="translate(-1745.416 170.763)" fill="#48cfff"/>
      </g>
      <g id="Group_543" data-name="Group 543" transform="translate(0 40.16)">
        <g id="Group_542" data-name="Group 542">
          <path id="Path_930" data-name="Path 930" d="M1747.042-138.525a3.8,3.8,0,0,0-1.725,2.988l.007,2.271c0,1.1.78,1.541,1.737.989L1779.2-150.83a3.8,3.8,0,0,0,1.726-2.988l-.007-2.271c0-1.1-.78-1.542-1.737-.99Z" transform="translate(-1745.317 157.317)" fill="url(#linear-gradient-15)"/>
        </g>
        <path id="Path_931" data-name="Path 931" d="M1746.586-132.75l32.136-18.554a3.8,3.8,0,0,0,1.725-2.988l-.006-2.27a1.664,1.664,0,0,0-.131-.676,1.274,1.274,0,0,0-1.132.16l-32.135,18.554a3.8,3.8,0,0,0-1.726,2.988l.007,2.271a1.652,1.652,0,0,0,.132.675A1.271,1.271,0,0,0,1746.586-132.75Z" transform="translate(-1745.317 157.316)" fill="#6377a9"/>
        <path id="Path_932" data-name="Path 932" d="M1763.019-145.235a.782.782,0,0,0-.008-.086.772.772,0,0,0-.087.041l-14.572,8.413.006,1.832a.84.84,0,0,0,.007.086c.029-.014.057-.023.087-.041l14.571-8.413Z" transform="translate(-1745.416 156.926)" fill="#48cfff"/>
      </g>
    </g>
    <g id="Group_551" data-name="Group 551" transform="translate(22.423 4.811)">
      <ellipse id="Ellipse_27" data-name="Ellipse 27" cx="30.333" cy="16.916" rx="30.333" ry="16.916" transform="translate(0 9.454)" fill="#94a3c0" opacity="0.32" style="mix-blend-mode: multiply;isolation: isolate"/>
      <g id="Group_550" data-name="Group 550" transform="translate(3.332)">
        <g id="Group_548" data-name="Group 548" transform="translate(6.853)">
          <g id="Group_545" data-name="Group 545" transform="translate(19.956 3.796)">
            <path id="Path_933" data-name="Path 933" d="M1748.711-237.686l-.01,3.473-15.758,9.158.01-3.473Z" transform="translate(-1732.943 237.686)" fill="#396caa"/>
          </g>
          <g id="Group_546" data-name="Group 546" transform="translate(0 7.074)">
            <path id="Path_934" data-name="Path 934" d="M1732.281-228.419l-.01,3.473-19.956-5.879.01-3.473Z" transform="translate(-1712.315 234.298)" fill="#33b4ff"/>
          </g>
          <g id="Group_547" data-name="Group 547" transform="translate(0.01)">
            <path id="Path_935" data-name="Path 935" d="M1748.04-237.814l-15.758,9.157-19.956-5.879c5.57-6.372,19.02-8.907,30.041-5.659A24.783,24.783,0,0,1,1748.04-237.814Z" transform="translate(-1712.326 241.61)" fill="url(#linear-gradient-19)"/>
          </g>
        </g>
        <path id="Path_936" data-name="Path 936" d="M1759.38-220.92c-.249,4.525-3.7,7.95-7.333,10.214a33.974,33.974,0,0,1-13.216,4.451,46.281,46.281,0,0,1-13.719-.146,33.559,33.559,0,0,1-13-4.734c-3.531-2.3-6.884-5.843-6.871-10.325l-.009,2.825a15.689,15.689,0,0,0,.171,3.151c.743,3.707,3.648,6.565,6.705,8.554a33.471,33.471,0,0,0,12.714,4.684,46.132,46.132,0,0,0,13.623.239,35.057,35.057,0,0,0,13.194-4.259c3.589-2.11,7.049-5.371,7.651-9.691a21.733,21.733,0,0,0,.1-2.914q0-1.262.007-2.525C1759.4-221.238,1759.388-221.079,1759.38-220.92Z" transform="translate(-1705.232 240.953)" fill="#265497"/>
        <g id="Group_549" data-name="Group 549" transform="translate(0.012 8.408)">
          <path id="Path_937" data-name="Path 937" d="M1751.421-232.919c10.591,6.115,10.645,16.03.123,22.145s-27.637,6.115-38.229,0c-8.474-4.892-10.463-12.017-5.074-18.182l24.126,7.11Z" transform="translate(-1705.244 232.919)" fill="url(#linear-gradient-20)"/>
        </g>
      </g>
    </g>
  </g>
  <g id="Group_557" data-name="Group 557" transform="translate(0 102.262)">
    <g id="Group_553" data-name="Group 553" transform="translate(0.013)">
      <path id="Path_938" data-name="Path 938" d="M1501.949-271.442c1.873,1.082,1.879,2.83.022,3.909l-62.186,36.139a7.426,7.426,0,0,1-6.75,0l-38.353-22.143c-1.869-1.079-1.883-2.828-.021-3.909l62.186-36.139a7.438,7.438,0,0,1,6.75,0Z" transform="translate(-1393.273 294.395)" fill="url(#linear-gradient-21)"/>
    </g>
    <g id="Group_556" data-name="Group 556" transform="translate(0 3.442)">
      <path id="Path_939" data-name="Path 939" d="M1503.346-268.495c0,.05-.008.1-.017.15s-.019.081-.03.122-.024.1-.042.143-.032.076-.048.115-.043.1-.07.149-.042.071-.065.106c-.034.055-.071.111-.111.166-.024.032-.052.064-.077.1a2.651,2.651,0,0,1-.2.218c-.027.026-.051.052-.079.078-.047.041-.1.08-.146.12s-.087.072-.134.106-.114.076-.172.115-.117.078-.181.116l-62.186,36.139a5.1,5.1,0,0,1-.667.316c-.062.025-.124.048-.187.071-.144.052-.3.095-.448.137s-.315.085-.478.119c-.191.039-.382.074-.578.1-.048.006-.095.014-.143.019a7.883,7.883,0,0,1-.8.044h-.127c-.265,0-.53-.016-.792-.045l-.118-.013q-.39-.048-.766-.132l-.136-.034a6.278,6.278,0,0,1-.663-.2c-.038-.014-.078-.024-.116-.039a5.371,5.371,0,0,1-.728-.344L1394.682-252.7a2.764,2.764,0,0,1-1.322-1.437,1.688,1.688,0,0,1-.087-.532l-.013,2.2a1.562,1.562,0,0,0,.021.267,2.558,2.558,0,0,0,1.388,1.7l38.352,22.143a5.193,5.193,0,0,0,.692.331l.037.014c.039.015.078.025.116.039.141.051.281.1.427.144.077.022.158.039.237.058l.136.034c.042.009.082.021.125.03.156.032.313.06.473.082.055.008.113.013.169.019l.117.013c.059.007.117.015.176.02.156.013.313.021.469.025.049,0,.1,0,.147,0h.128c.071,0,.142,0,.213,0q.266-.009.528-.035l.061-.009c.047,0,.094-.014.141-.019.135-.017.272-.033.405-.057.06-.011.114-.031.173-.043.164-.034.321-.075.478-.119.083-.023.171-.037.252-.063s.13-.05.2-.074.126-.045.187-.071a5.235,5.235,0,0,0,.667-.316l62.186-36.139.059-.035c.043-.026.081-.055.124-.082s.117-.076.17-.114.09-.071.133-.105.1-.08.147-.121l.03-.025c.018-.017.032-.036.049-.053a2.573,2.573,0,0,0,.2-.218c.014-.015.032-.031.045-.047s.02-.032.033-.048c.041-.055.077-.111.112-.167.015-.023.034-.045.047-.07s.01-.024.016-.036c.026-.049.049-.1.07-.148.013-.029.03-.058.041-.087,0-.01,0-.02.009-.03.017-.047.028-.095.041-.142.009-.032.021-.064.028-.1a.16.16,0,0,1,0-.025c.009-.05.012-.1.016-.151,0-.032.011-.065.012-.1v-.042l.012-2.2A1.325,1.325,0,0,1,1503.346-268.495Z" transform="translate(-1393.26 290.114)" fill="#464647"/>
      <g id="Group_554" data-name="Group 554" transform="translate(13.702)">
        <path id="Path_940" data-name="Path 940" d="M1496.746-270.63a.664.664,0,0,1,0,1.257L1444.6-239.065a2.393,2.393,0,0,1-2.17,0l-34.548-19.947a.666.666,0,0,1-.008-1.26l52.153-30.308a2.4,2.4,0,0,1,2.175,0Z" transform="translate(-1407.424 290.837)" fill="#126087"/>
      </g>
      <g id="Group_555" data-name="Group 555" transform="translate(20.838 42.104)">
        <path id="Path_941" data-name="Path 941" d="M1423.8-243.994a.731.731,0,0,1,.008,1.382l-.865.5a2.627,2.627,0,0,1-2.387,0l-5.255-3.034a.731.731,0,0,1-.007-1.382l.864-.5a2.634,2.634,0,0,1,2.387,0Z" transform="translate(-1414.8 247.314)" fill="#232323"/>
      </g>
    </g>
  </g>
  <g id="Group_578" data-name="Group 578" transform="translate(118.373 14.171)">
    <g id="Group_561" data-name="Group 561" transform="translate(49.108 74.79)" style="isolation: isolate">
      <g id="Group_558" data-name="Group 558" transform="translate(0 4.769)">
        <path id="Path_942" data-name="Path 942" d="M1569.694-291.435l-3.283-1.908-.028-9.871,3.282,1.908Z" transform="translate(-1566.383 303.214)" fill="#33b4ff"/>
      </g>
      <g id="Group_559" data-name="Group 559">
        <path id="Path_943" data-name="Path 943" d="M1569.665-301.467l-3.282-1.908,8.26-4.769,3.282,1.908Z" transform="translate(-1566.383 308.144)" fill="#5c82ff"/>
      </g>
      <g id="Group_560" data-name="Group 560" transform="translate(3.282 1.908)">
        <path id="Path_944" data-name="Path 944" d="M1578.036-306.172l.028,9.871-8.261,4.769-.028-9.871Z" transform="translate(-1569.776 306.172)" fill="#396caa"/>
      </g>
    </g>
    <g id="Group_565" data-name="Group 565" transform="translate(21.634 56.093)" style="isolation: isolate">
      <g id="Group_562" data-name="Group 562" transform="translate(0 20.601)">
        <path id="Path_945" data-name="Path 945" d="M1541.293-294.4l-3.282-1.908-.028-9.871,3.283,1.907Z" transform="translate(-1537.983 306.175)" fill="#33b4ff"/>
      </g>
      <g id="Group_563" data-name="Group 563">
        <path id="Path_946" data-name="Path 946" d="M1541.265-304.962l-3.283-1.907,35.682-20.6,3.282,1.908Z" transform="translate(-1537.983 327.47)" fill="#5c82ff"/>
      </g>
      <g id="Group_564" data-name="Group 564" transform="translate(3.283 1.908)">
        <path id="Path_947" data-name="Path 947" d="M1577.058-325.5l.028,9.871-35.682,20.6-.028-9.871Z" transform="translate(-1541.376 325.498)" fill="#396caa"/>
      </g>
    </g>
    <g id="Group_569" data-name="Group 569" transform="translate(37.768 37.397)" style="isolation: isolate">
      <g id="Group_566" data-name="Group 566" transform="translate(0 11.255)">
        <path id="Path_948" data-name="Path 948" d="M1557.971-323.384l-3.282-1.908-.028-9.871,3.282,1.908Z" transform="translate(-1554.661 335.162)" fill="#33b4ff"/>
      </g>
      <g id="Group_567" data-name="Group 567">
        <path id="Path_949" data-name="Path 949" d="M1557.944-333.634l-3.282-1.908,19.494-11.255,3.282,1.908Z" transform="translate(-1554.661 346.797)" fill="#5c82ff"/>
      </g>
      <g id="Group_568" data-name="Group 568" transform="translate(3.282 1.908)">
        <path id="Path_950" data-name="Path 950" d="M1577.548-344.825l.028,9.871L1558.082-323.7l-.028-9.871Z" transform="translate(-1558.054 344.825)" fill="#396caa"/>
      </g>
    </g>
    <g id="Group_573" data-name="Group 573" transform="translate(10.954 18.7)" style="isolation: isolate">
      <g id="Group_570" data-name="Group 570" transform="translate(0 26.706)">
        <path id="Path_951" data-name="Path 951" d="M1530.254-326.739l-3.282-1.908-.028-9.871,3.282,1.908Z" transform="translate(-1526.943 338.517)" fill="#33b4ff"/>
      </g>
      <g id="Group_571" data-name="Group 571">
        <path id="Path_952" data-name="Path 952" d="M1530.226-337.51l-3.282-1.908,46.256-26.706,3.282,1.908Z" transform="translate(-1526.943 366.123)" fill="#5c82ff"/>
      </g>
      <g id="Group_572" data-name="Group 572" transform="translate(3.282 1.908)">
        <path id="Path_953" data-name="Path 953" d="M1576.592-364.151l.028,9.871-46.256,26.706-.028-9.871Z" transform="translate(-1530.336 364.151)" fill="#396caa"/>
      </g>
    </g>
    <g id="Group_577" data-name="Group 577" style="isolation: isolate">
      <g id="Group_574" data-name="Group 574" transform="translate(0 32.999)">
        <path id="Path_954" data-name="Path 954" d="M1518.931-339.563l-3.282-1.908-.028-9.871,3.282,1.908Z" transform="translate(-1515.621 351.342)" fill="#33b4ff"/>
      </g>
      <g id="Group_575" data-name="Group 575">
        <path id="Path_955" data-name="Path 955" d="M1518.9-350.546l-3.282-1.908,57.156-33,3.282,1.908Z" transform="translate(-1515.621 385.453)" fill="#5c82ff"/>
      </g>
      <g id="Group_576" data-name="Group 576" transform="translate(3.282 1.908)">
        <path id="Path_956" data-name="Path 956" d="M1576.17-383.481l.028,9.871-57.157,33-.028-9.871Z" transform="translate(-1519.013 383.481)" fill="#396caa"/>
      </g>
    </g>
  </g>
  <g id="Group_581" data-name="Group 581" transform="translate(245.358 65.228)">
    <g id="Group_579" data-name="Group 579">
      <path id="Path_957" data-name="Path 957" d="M1672.411-329.2c-10.149-5.86-19.756-4.364-23.725,4.871-4.967,11.545.68,30.994,12.639,44.445l2.773-6.458c-8.1-9.451-11.872-22.808-8.436-30.792,2.8-6.511,9.57-7.562,16.725-3.431a29.118,29.118,0,0,1,5.248,3.941l2.775-6.458A41.934,41.934,0,0,0,1672.411-329.2Z" transform="translate(-1646.883 332.676)" fill="#fffaf0"/>
    </g>
    <g id="Group_580" data-name="Group 580" transform="translate(14.441 9.594)">
      <path id="Path_958" data-name="Path 958" d="M1680.9-322.759l-2.772,6.453c.436.408.875.835,1.3,1.282,9.207,9.486,13.7,24.06,10.05,32.561-.134.3-.276.6-.428.884-.053.1-.111.2-.17.3-2.663,4.688-7.765,5.832-13.422,3.565a20.731,20.731,0,0,1-2.687-1.315q-.363-.209-.726-.436c-.442-.275-.78-.5-1.11-.729l-.152-.107c-.726-.514-1.447-1.07-2.174-1.69-.087-.077-.18-.158-.273-.238q-.4-.353-.8-.725c-.1-.09-.2-.181-.3-.278-.348-.328-.7-.67-1.04-1.023-.557-.577-1.091-1.166-1.615-1.768l-2.774,6.458c.528.593,1.063,1.182,1.615,1.749q.74.759,1.487,1.461c.141.134.28.269.425.4.378.352.761.695,1.144,1.029.128.114.255.228.384.335,1.028.876,2.063,1.681,3.092,2.4.081.061.163.114.245.167.471.333.942.638,1.408.934l.163.1q.481.3.96.576,1.142.659,2.274,1.2c.57.27,1.106.5,1.641.713,8.631,3.424,16.356,1.262,19.811-6.778,5.184-12.057-1.2-32.74-14.254-46.194Q1681.551-322.137,1680.9-322.759Z" transform="translate(-1661.811 322.759)" fill="#574baa"/>
    </g>
  </g>
  <g id="Group_599" data-name="Group 599" transform="translate(206.835 29.624)">
    <g id="Group_583" data-name="Group 583">
      <g id="Group_582" data-name="Group 582">
        <path id="Path_959" data-name="Path 959" d="M1607.063-369.48v60.626l30.309,17.5v-60.626Z" transform="translate(-1607.063 369.48)" fill="#fff"/>
      </g>
    </g>
    <g id="Group_584" data-name="Group 584" transform="translate(4.294 8.771)">
      <path id="Path_960" data-name="Path 960" d="M1611.5-360.414v12.125l6.062,3.5v-12.125Z" transform="translate(-1611.502 360.414)" fill="#dcdcdc"/>
    </g>
    <g id="Group_589" data-name="Group 589" transform="translate(4.907 41.606)">
      <g id="Group_585" data-name="Group 585">
        <path id="Path_961" data-name="Path 961" d="M1617.173-323.663v.8a.617.617,0,0,1-.925.534l-3.8-2.191a.617.617,0,0,1-.308-.534v-.8a.617.617,0,0,1,.925-.535l3.8,2.191A.619.619,0,0,1,1617.173-323.663Z" transform="translate(-1612.135 326.472)" fill="#dcdcdc"/>
      </g>
      <g id="Group_586" data-name="Group 586" transform="translate(0.001 4.006)">
        <path id="Path_962" data-name="Path 962" d="M1629.219-312.627v.807a.617.617,0,0,1-.924.535l-15.85-9.087a.615.615,0,0,1-.311-.535v-.807a.616.616,0,0,1,.923-.535l15.851,9.087A.615.615,0,0,1,1629.219-312.627Z" transform="translate(-1612.135 322.332)" fill="#dcdcdc"/>
      </g>
      <g id="Group_587" data-name="Group 587" transform="translate(0.003 12.023)" opacity="0.53">
        <path id="Path_963" data-name="Path 963" d="M1622.687-308.087v.807a.616.616,0,0,1-.923.535l-9.315-5.34a.614.614,0,0,1-.311-.535v-.807a.616.616,0,0,1,.923-.535l9.316,5.34A.617.617,0,0,1,1622.687-308.087Z" transform="translate(-1612.138 314.045)" fill="#dcdcdc"/>
      </g>
      <g id="Group_588" data-name="Group 588" transform="translate(0.002 8.015)">
        <path id="Path_964" data-name="Path 964" d="M1626.763-309.892v.807a.617.617,0,0,1-.924.535l-13.393-7.677a.617.617,0,0,1-.309-.535v-.807a.616.616,0,0,1,.923-.535l13.393,7.677A.616.616,0,0,1,1626.763-309.892Z" transform="translate(-1612.137 318.188)" fill="#dcdcdc" opacity="0.3"/>
      </g>
    </g>
    <path id="Path_965" data-name="Path 965" d="M1611.762-332.449l2.021-3.031,1.389,1.137,3.157-5.431,2.779,1.768,1.768-.379,4.294-6.062,2.021,1.642,3.915-3.789" transform="translate(-1607.216 368.734)" fill="none" stroke="#574baa" stroke-miterlimit="10" stroke-width="0.5"/>
    <g id="Group_592" data-name="Group 592" transform="translate(24.504 20.855)">
      <g id="Group_590" data-name="Group 590">
        <path id="Path_966" data-name="Path 966" d="M1633.658-347.75c-.7-.4-1.265-.078-1.267.723a2.77,2.77,0,0,0,1.259,2.176c.7.4,1.261.08,1.263-.72A2.774,2.774,0,0,0,1633.658-347.75Z" transform="translate(-1632.392 347.922)" fill="#ff5668"/>
      </g>
      <g id="Group_591" data-name="Group 591" transform="translate(0.691 0.889)">
        <path id="Path_967" data-name="Path 967" d="M1633.679-346.926c-.314-.182-.572-.035-.573.326a1.256,1.256,0,0,0,.569.985c.316.181.571.036.572-.326A1.252,1.252,0,0,0,1633.679-346.926Z" transform="translate(-1633.106 347.004)" fill="#ff5668"/>
      </g>
    </g>
    <g id="Group_595" data-name="Group 595" transform="translate(9.601 27.441)">
      <g id="Group_593" data-name="Group 593">
        <path id="Path_968" data-name="Path 968" d="M1618.254-340.942c-.7-.4-1.264-.078-1.267.722a2.772,2.772,0,0,0,1.259,2.177c.7.4,1.262.08,1.263-.72A2.768,2.768,0,0,0,1618.254-340.942Z" transform="translate(-1616.987 341.114)" fill="#5c82ff"/>
      </g>
      <g id="Group_594" data-name="Group 594" transform="translate(0.692 0.889)">
        <path id="Path_969" data-name="Path 969" d="M1618.275-340.118c-.316-.182-.572-.036-.573.326a1.252,1.252,0,0,0,.569.984c.314.182.57.037.571-.325A1.253,1.253,0,0,0,1618.275-340.118Z" transform="translate(-1617.702 340.196)" fill="#5c82ff"/>
      </g>
    </g>
    <g id="Group_598" data-name="Group 598" transform="translate(14.022 36.466)">
      <g id="Group_596" data-name="Group 596">
        <path id="Path_970" data-name="Path 970" d="M1626.307-331.138c-1.888-1.09-3.675-.812-4.414.905-.924,2.149.127,5.767,2.352,8.268l.516-1.2c-1.506-1.758-2.209-4.243-1.569-5.728.522-1.211,1.78-1.407,3.111-.639a5.463,5.463,0,0,1,.977.733l.516-1.2A7.808,7.808,0,0,0,1626.307-331.138Z" transform="translate(-1621.557 331.785)" fill="#dcdcdc"/>
      </g>
      <g id="Group_597" data-name="Group 597" transform="translate(2.687 1.785)">
        <path id="Path_971" data-name="Path 971" d="M1627.885-329.94l-.516,1.2c.081.075.163.155.243.238,1.713,1.766,2.55,4.476,1.87,6.058-.025.056-.051.111-.079.165l-.032.056a1.853,1.853,0,0,1-2.5.664,3.7,3.7,0,0,1-.5-.245l-.135-.081c-.082-.051-.145-.094-.206-.135l-.028-.019c-.135-.1-.27-.2-.405-.315l-.05-.043c-.051-.044-.1-.089-.149-.135-.019-.016-.037-.033-.055-.051-.065-.061-.13-.125-.194-.191-.1-.106-.2-.217-.3-.329l-.516,1.2c.1.11.2.221.3.326s.184.184.276.271c.026.025.052.05.079.074.071.066.141.13.213.192l.071.063c.192.163.384.312.576.446.015.012.03.021.046.032.087.062.175.118.261.173l.031.019c.059.037.119.073.178.106.142.082.282.156.422.222.107.05.206.093.306.134,1.606.637,3.043.234,3.686-1.261.964-2.243-.223-6.091-2.652-8.594C1628.048-329.783,1627.966-329.863,1627.885-329.94Z" transform="translate(-1624.335 329.94)" fill="#a6a8ab"/>
      </g>
    </g>
  </g>
  <g id="Group_612" data-name="Group 612" transform="translate(35.665 94.831)">
    <g id="Group_603" data-name="Group 603" transform="translate(27.855 7.893)" style="isolation: isolate">
      <g id="Group_600" data-name="Group 600" transform="translate(0 4.25)">
        <path id="Path_972" data-name="Path 972" d="M1467.414-265.427l-8.439-4.9-.054-19.193,8.439,4.9Z" transform="translate(-1458.921 289.524)" fill="#33b4ff"/>
      </g>
      <g id="Group_601" data-name="Group 601">
        <path id="Path_973" data-name="Path 973" d="M1467.359-284.763l-8.439-4.9,7.362-4.25,8.439,4.9Z" transform="translate(-1458.921 293.918)" fill="#5c82ff"/>
      </g>
      <g id="Group_602" data-name="Group 602" transform="translate(8.439 4.904)">
        <path id="Path_974" data-name="Path 974" d="M1475.005-288.848l.054,19.193-7.362,4.25-.054-19.193Z" transform="translate(-1467.643 288.848)" fill="#396caa"/>
      </g>
    </g>
    <g id="Group_607" data-name="Group 607" transform="translate(13.867)" style="isolation: isolate">
      <g id="Group_604" data-name="Group 604" transform="translate(0 4.25)">
        <path id="Path_975" data-name="Path 975" d="M1453-257.643l-8.438-4.9-.1-35.136,8.439,4.9Z" transform="translate(-1444.461 297.683)" fill="#33b4ff"/>
      </g>
      <g id="Group_605" data-name="Group 605">
        <path id="Path_976" data-name="Path 976" d="M1452.9-292.922l-8.439-4.9,7.362-4.25,8.438,4.9Z" transform="translate(-1444.461 302.076)" fill="#5c82ff"/>
      </g>
      <g id="Group_606" data-name="Group 606" transform="translate(8.439 4.904)">
        <path id="Path_977" data-name="Path 977" d="M1460.545-297.007l.1,35.136-7.362,4.25-.1-35.136Z" transform="translate(-1453.183 297.007)" fill="#396caa"/>
      </g>
    </g>
    <g id="Group_611" data-name="Group 611" transform="translate(0 35.052)" style="isolation: isolate">
      <g id="Group_608" data-name="Group 608" transform="translate(0 4.25)">
        <path id="Path_978" data-name="Path 978" d="M1438.589-248.412l-8.438-4.9-.023-8.134,8.438,4.9Z" transform="translate(-1430.127 261.45)" fill="#33b4ff"/>
      </g>
      <g id="Group_609" data-name="Group 609">
        <path id="Path_979" data-name="Path 979" d="M1438.565-256.689l-8.438-4.9,7.362-4.25,8.438,4.9Z" transform="translate(-1430.127 265.843)" fill="#5c82ff"/>
      </g>
      <g id="Group_610" data-name="Group 610" transform="translate(8.438 4.904)">
        <path id="Path_980" data-name="Path 980" d="M1446.211-260.774l.023,8.134-7.362,4.25-.023-8.134Z" transform="translate(-1438.849 260.774)" fill="#396caa"/>
      </g>
    </g>
  </g>
  <g id="Group_615" data-name="Group 615" transform="translate(327.677 79.189)">
    <path id="Path_981" data-name="Path 981" d="M1796.725-238.542l-1.052-44.943a.439.439,0,0,0-.228-.373l-62.82-34.332a.438.438,0,0,0-.648.395l1.052,44.942a.439.439,0,0,0,.229.374l62.821,34.332A.437.437,0,0,0,1796.725-238.542Z" transform="translate(-1731.976 318.245)" fill="#206187"/>
    <g id="Group_614" data-name="Group 614" transform="translate(8.158 34.768)">
      <g id="Group_613" data-name="Group 613">
        <path id="Path_982" data-name="Path 982" d="M1782.152-270.96a6.9,6.9,0,0,1,.851.585c4.558,3.63,4.937,15.72,4.957,16.356l-47.551-27.453c2.827,1.382,3.483.014,4.788-.737a.991.991,0,0,1,1.021.114c1.294.747,3.042,3.293,5.056,4.648.067.045.131.086.2.123a2.487,2.487,0,0,0,2.611-.183,2.726,2.726,0,0,1,2.885-.026,6.838,6.838,0,0,1,1.481,1.225,11,11,0,0,0,2.163,1.9c1.479.854,1.664-.661,3.274-1.762,1.149-.79,2.54-.6,4.14.319a23.138,23.138,0,0,1,4.768,4.074,5.158,5.158,0,0,0,1.146.938c1.387.8,2.566.263,3.831-.224A4.559,4.559,0,0,1,1782.152-270.96Z" transform="translate(-1740.409 282.306)" fill="#fff"/>
      </g>
    </g>
  </g>
  <g id="Group_619" data-name="Group 619" transform="translate(230.799 234.07)">
    <g id="Group_618" data-name="Group 618" style="isolation: isolate">
      <g id="Group_616" data-name="Group 616" transform="translate(5.214)">
        <path id="Path_983" data-name="Path 983" d="M1685.83-104.955,1637.223-133.2l43.2-24.944,48.606,28.247Z" transform="translate(-1637.223 158.146)" fill="#848484"/>
      </g>
      <path id="Path_984" data-name="Path 984" d="M1637.223-132.948,1685.83-104.7l30.152-17.408-48.606-28.247Z" transform="translate(-1632.01 157.893)" fill="#464647"/>
      <path id="Path_985" data-name="Path 985" d="M1637.223-132.615l48.607,28.247,12.987-7.5-48.606-28.247Z" transform="translate(-1632.01 157.559)" fill="#848484"/>
      <path id="Path_986" data-name="Path 986" d="M1680.441-95.084a7.969,7.969,0,0,1,.1-1.2c.009-.062.021-.126.032-.189a9.821,9.821,0,0,1,.264-1.141c.01-.036.021-.071.033-.106a11.628,11.628,0,0,1,.455-1.234l.011-.023a12.926,12.926,0,0,1,.618-1.222l.018-.033a12.642,12.642,0,0,1,.73-1.117l.072-.1a11.6,11.6,0,0,1,.764-.919c.057-.063.115-.124.173-.185.212-.221.434-.421.659-.616.1-.089.2-.184.3-.267a8.085,8.085,0,0,1,.983-.682l-48.606-28.246a8.084,8.084,0,0,0-.984.682c-.1.082-.2.177-.3.265-.155.134-.313.259-.463.406-.068.067-.131.141-.2.211s-.116.122-.173.185-.135.139-.2.213c-.146.167-.287.34-.425.518-.049.061-.093.127-.14.19l-.073.1c-.044.062-.092.122-.135.185q-.156.222-.3.452c-.093.145-.184.293-.271.442l-.02.038-.02.036c-.069.122-.139.244-.2.368-.078.147-.153.3-.226.445s-.127.272-.186.408l-.01.022-.012.023c-.067.156-.131.312-.191.47s-.122.329-.177.493c-.027.082-.05.165-.076.248-.012.036-.022.071-.033.106-.018.06-.038.119-.054.179q-.084.3-.147.6c-.026.121-.042.241-.063.362-.011.063-.022.126-.032.189s-.022.116-.03.174a7.688,7.688,0,0,0-.067,1.024,4.972,4.972,0,0,0,.412,2.092,2.79,2.79,0,0,0,1.114,1.263l48.607,28.247A3.66,3.66,0,0,1,1680.441-95.084Z" transform="translate(-1631.834 157.306)" fill="#464647"/>
      <g id="Group_617" data-name="Group 617" transform="translate(48.607 28.247)">
        <path id="Path_987" data-name="Path 987" d="M1730.5-128.948l.034,12.022-43.2,24.944c-2.887,1.668-5.239.329-5.247-2.99a11.492,11.492,0,0,1,5.213-9.032Z" transform="translate(-1682.078 128.948)" fill="#382747"/>
      </g>
    </g>
  </g>
  <g id="Group_623" data-name="Group 623" transform="translate(259.03 240.975)">
    <g id="Group_620" data-name="Group 620" transform="translate(0 6.199)">
      <ellipse id="Ellipse_28" data-name="Ellipse 28" cx="23.66" cy="12.852" rx="23.66" ry="12.852" fill="#94a3c0" opacity="0.32" style="mix-blend-mode: multiply;isolation: isolate"/>
    </g>
    <g id="Group_622" data-name="Group 622" transform="translate(2.393)">
      <path id="Path_988" data-name="Path 988" d="M1706.084-137.824c-.166,3.034-2.228,5.536-4.594,7.258a25.64,25.64,0,0,1-10.236,4.073,34.65,34.65,0,0,1-11.446.207,27.23,27.23,0,0,1-10.6-3.6c-2.941-1.835-5.713-4.75-5.7-8.432a13.973,13.973,0,0,0,.559,5.446c1.225,3.022,4.049,5.142,6.883,6.55a29.58,29.58,0,0,0,9.967,2.768,33.286,33.286,0,0,0,10.518-.379c4.6-1,9.487-2.63,12.594-6.392a8.517,8.517,0,0,0,2.04-4.744c.071-1.038.03-2.088.034-3.128C1706.1-138.073,1706.093-137.949,1706.084-137.824Z" transform="translate(-1663.489 150.595)" fill="#396caa"/>
      <g id="Group_621" data-name="Group 621" transform="translate(0.016)">
        <path id="Path_989" data-name="Path 989" d="M1699.813-147.4c8.345,4.819,8.389,12.627.1,17.445s-21.772,4.818-30.117,0-8.389-12.627-.1-17.445S1691.467-152.213,1699.813-147.4Z" transform="translate(-1663.506 151.009)" fill="url(#linear-gradient-19)"/>
      </g>
      <path id="Path_990" data-name="Path 990" d="M1697.872-146.155c7.212,4.165,7.251,10.912.085,15.077s-18.816,4.164-26.028,0-7.25-10.912-.085-15.077S1690.66-150.319,1697.872-146.155Z" transform="translate(-1663.587 150.953)" fill="#396caa"/>
      <path id="Path_991" data-name="Path 991" d="M1697.873-144.84c-7.212-4.165-18.862-4.165-26.028,0-3.291,1.913-5.059,4.371-5.312,6.873.261,2.522,2.059,5,5.4,6.932,7.212,4.164,18.862,4.164,26.028,0,3.291-1.914,5.059-4.372,5.313-6.874C1703.01-140.432,1701.212-142.913,1697.873-144.84Z" transform="translate(-1663.589 150.91)" fill="url(#linear-gradient-19)"/>
    </g>
  </g>
</svg>
