<svg xmlns="http://www.w3.org/2000/svg" xmlns:xlink="http://www.w3.org/1999/xlink" width="395.763" height="300"><defs><linearGradient id="b" x1=".505" y1=".148" x2="-.017" y2=".936" gradientUnits="objectBoundingBox"><stop offset="0" stop-color="#d7e9f2"/><stop offset=".955" stop-color="#a4bfec"/><stop offset="1" stop-color="#a2bdec"/></linearGradient><linearGradient id="a" x1=".472" y1=".057" x2=".551" y2="1.308" gradientUnits="objectBoundingBox"><stop offset="0" stop-color="#a2bdec"/><stop offset=".045" stop-color="#a4bfec"/><stop offset="1" stop-color="#d7e9f2"/></linearGradient><linearGradient id="e" x1=".5" y1=".542" x2=".5" y2="-.399" xlink:href="#a"/><linearGradient id="c" x1=".174" y1="-1.382" x2=".656" y2="1.401" gradientUnits="objectBoundingBox"><stop offset="0" stop-color="#f2ffff"/><stop offset=".196" stop-color="#ecfbfc"/><stop offset=".448" stop-color="#dceff6"/><stop offset=".728" stop-color="#c2dded"/><stop offset="1" stop-color="#a2c7e1"/></linearGradient><linearGradient id="f" x1=".472" y1=".057" x2=".551" y2="1.308" gradientUnits="objectBoundingBox"><stop offset="0" stop-color="#d3e6f0"/><stop offset=".201" stop-color="#dcedf4"/><stop offset=".649" stop-color="#ecfafc"/><stop offset="1" stop-color="#f2ffff"/></linearGradient><linearGradient id="d" x1=".472" y1=".057" x2=".551" y2="1.308" gradientUnits="objectBoundingBox"><stop offset="0" stop-color="#faffff"/><stop offset=".305" stop-color="#f4fbfc"/><stop offset=".694" stop-color="#e4f1f6"/><stop offset="1" stop-color="#d3e6f0"/></linearGradient><linearGradient id="g" x1=".512" y1=".268" x2=".471" y2="1.034" gradientUnits="objectBoundingBox"><stop offset="0" stop-color="#b1d9df"/><stop offset=".704" stop-color="#eaeeee"/></linearGradient><linearGradient id="h" x1=".875" y1=".108" x2=".095" y2=".923" gradientUnits="objectBoundingBox"><stop offset="0" stop-color="#c5e4ff"/><stop offset=".704" stop-color="#eaeeee"/></linearGradient><linearGradient id="i" x1=".684" y1=".637" x2="-.151" y2=".018" xlink:href="#b"/><linearGradient id="j" x1="-.231" y1="-1.032" x2=".85" y2="1.234" xlink:href="#c"/><linearGradient id="k" x1="0" y1=".5" x2="1" y2=".5" xlink:href="#d"/><linearGradient id="l" y1=".5" x2="1" y2=".5" gradientUnits="objectBoundingBox"><stop offset="0" stop-color="#2b7ec2"/><stop offset=".25" stop-color="#469dd6"/><stop offset=".563" stop-color="#63beec"/><stop offset=".825" stop-color="#74d2fa"/><stop offset="1" stop-color="#7bdaff"/></linearGradient><linearGradient id="m" x1=".609" y1="-.247" x2=".395" y2="1.057" gradientUnits="objectBoundingBox"><stop offset="0" stop-color="#16d8ff"/><stop offset="1" stop-color="#5155d4"/></linearGradient><linearGradient id="n" x1=".505" y1=".148" x2="-.017" y2=".936" xlink:href="#d"/></defs><g data-name="Group 503"><g data-name="Group 467"><path data-name="Path 784" d="M276.332 1.234l-.007 2.455-2.136-1.233.007-2.455z" fill="#dcdcdc"/></g><g data-name="Group 468"><path data-name="Path 785" d="M297.407 13.4l-.007 2.455-2.136-1.233.007-2.455z" fill="#94a3c0"/></g><g data-name="Group 469"><path data-name="Path 786" d="M318.488 25.572l-.007 2.455-2.136-1.233.007-2.455z" fill="#dcdcdc"/></g><g data-name="Group 470"><path data-name="Path 787" d="M339.562 37.739l-.007 2.455-2.136-1.233.007-2.455z" fill="#94a3c0"/></g><g data-name="Group 471"><path data-name="Path 788" d="M360.637 49.906l-.007 2.455-2.129-1.229.007-2.455z" fill="#94a3c0"/></g><g data-name="Group 472"><path data-name="Path 789" d="M381.718 62.078l-.007 2.455-2.136-1.233.007-2.454z" fill="#94a3c0"/></g><g data-name="Group 473"><path data-name="Path 790" d="M276.269 23.614l-.007 2.455-2.136-1.233.007-2.455z" fill="#dcdcdc" opacity=".31"/></g><g data-name="Group 474"><path data-name="Path 791" d="M297.343 35.782l-.007 2.455-2.136-1.233.007-2.455z" fill="#5c82ff"/></g><g data-name="Group 475"><path data-name="Path 792" d="M318.425 47.954l-.007 2.455-2.136-1.233.007-2.455z" fill="#dcdcdc" opacity=".31"/></g><g data-name="Group 476"><path data-name="Path 793" d="M339.499 60.118l-.007 2.455-2.136-1.233.007-2.455z" fill="#dcdcdc"/></g><g data-name="Group 477"><path data-name="Path 794" d="M360.573 72.288l-.007 2.455-2.129-1.229.007-2.455z" fill="#94a3c0"/></g><g data-name="Group 478"><path data-name="Path 795" d="M381.655 84.459l-.007 2.455-2.136-1.233.007-2.454z" fill="#5c82ff"/></g><g data-name="Group 479"><path data-name="Path 796" d="M276.206 45.993l-.007 2.447-2.136-1.233.007-2.447z" fill="#94a3c0"/></g><g data-name="Group 480"><path data-name="Path 797" d="M297.28 58.163l-.007 2.447-2.136-1.233.007-2.447z" fill="#94a3c0"/></g><g data-name="Group 481"><path data-name="Path 798" d="M318.361 70.335l-.007 2.446-2.136-1.233.007-2.446z" fill="#94a3c0"/></g><g data-name="Group 482"><path data-name="Path 799" d="M339.436 82.502l-.007 2.447-2.136-1.233.007-2.447z" fill="#5c82ff"/></g><g data-name="Group 483"><path data-name="Path 800" d="M360.51 94.669l-.007 2.446-2.129-1.229.007-2.447z" fill="#94a3c0"/></g><g data-name="Group 484"><path data-name="Path 801" d="M381.591 106.844l-.007 2.447-2.136-1.233.007-2.446z" fill="#dcdcdc" opacity=".31"/></g><g data-name="Group 485"><path data-name="Path 802" d="M276.142 68.376l-.007 2.447-2.136-1.233.007-2.447z" fill="#94a3c0"/></g><g data-name="Group 486"><path data-name="Path 803" d="M297.216 80.544l-.007 2.446-2.136-1.233.007-2.446z" fill="#94a3c0"/></g><g data-name="Group 487"><path data-name="Path 804" d="M318.298 92.72l-.007 2.446-2.136-1.233.007-2.446z" fill="#94a3c0"/></g><g data-name="Group 488"><path data-name="Path 805" d="M339.372 104.882l-.007 2.447-2.136-1.233.007-2.447z" fill="#dcdcdc"/></g><g data-name="Group 489"><path data-name="Path 806" d="M360.447 117.05l-.007 2.446-2.129-1.229.007-2.447z" fill="#5c82ff"/></g><g data-name="Group 490"><path data-name="Path 807" d="M381.528 129.221l-.007 2.447-2.136-1.233.007-2.447z" fill="#94a3c0"/></g><g data-name="Group 491"><path data-name="Path 808" d="M276.078 90.75l-.007 2.455-2.136-1.233.007-2.455z" fill="#94a3c0"/></g><g data-name="Group 492"><path data-name="Path 809" d="M297.154 102.917l-.007 2.455-2.136-1.233.007-2.455z" fill="#94a3c0"/></g><g data-name="Group 493"><path data-name="Path 810" d="M318.234 115.088l-.007 2.455-2.136-1.233.007-2.455z" fill="#94a3c0"/></g><g data-name="Group 494"><path data-name="Path 811" d="M339.31 127.257l-.007 2.455-2.136-1.233.007-2.455z" fill="#94a3c0"/></g><g data-name="Group 495"><path data-name="Path 812" d="M360.383 139.423l-.007 2.455-2.129-1.229.007-2.455z" fill="#dcdcdc"/></g><g data-name="Group 496"><path data-name="Path 813" d="M381.461 151.594l-.007 2.455-2.136-1.233.007-2.455z" fill="#5c82ff"/></g><g data-name="Group 497"><path data-name="Path 814" d="M276.014 113.132l-.007 2.455-2.136-1.233.007-2.455z" fill="#94a3c0"/></g><g data-name="Group 498"><path data-name="Path 815" d="M297.089 125.298l-.007 2.454-2.136-1.233.007-2.455z" fill="#94a3c0"/></g><g data-name="Group 499"><path data-name="Path 816" d="M318.171 137.47l-.007 2.455-2.136-1.233.007-2.455z" fill="#94a3c0"/></g><g data-name="Group 500"><path data-name="Path 817" d="M339.245 149.637l-.007 2.455-2.136-1.233.007-2.455z" fill="#94a3c0"/></g><g data-name="Group 501"><path data-name="Path 818" d="M360.32 161.804l-.007 2.455-2.129-1.229.007-2.455z" fill="#94a3c0"/></g><g data-name="Group 502"><path data-name="Path 819" d="M381.401 173.975l-.007 2.455-2.136-1.233.007-2.455z" fill="#94a3c0"/></g></g><g data-name="Group 504"><path data-name="Path 820" d="M1511.609-263.871c1.873 1.082 1.88 2.831.022 3.909l-62.186 36.139a7.425 7.425 0 01-6.75 0l-38.352-22.142c-1.87-1.08-1.882-2.829-.022-3.91l62.186-36.139a7.444 7.444 0 016.75 0z" transform="translate(-1393.575 396.41)" fill="url(#b)" opacity=".6"/></g><g data-name="Group 505" opacity=".47"><path data-name="Path 821" d="M1790.307-207.311l-155.06 90.111-156.074-90.11 155.06-90.111z" transform="translate(-1396.06 396.756)" opacity=".6" fill="url(#a)" style="mix-blend-mode:multiply;isolation:isolate"/></g><g data-name="Group 510"><g data-name="Group 509" style="isolation:isolate"><g data-name="Group 506"><path data-name="Path 822" d="M1773.632-228.3l-.031 11.07-155.06 90.111.031-11.071z" transform="translate(-1400.602 394.503)" fill="url(#e)"/></g><g data-name="Group 507"><path data-name="Path 823" d="M1613.315-138.185l-.031 11.071-156.074-90.109.031-11.07z" transform="translate(-1395.344 394.503)" fill="url(#c)"/></g><g data-name="Group 508"><path data-name="Path 824" d="M1768.376-231.331l-155.06 90.111-156.074-90.11 155.058-90.11z" transform="translate(-1395.346 397.538)" fill="url(#f)"/></g></g></g><g data-name="Group 516"><g data-name="Group 515"><g data-name="Group 514" style="isolation:isolate"><g data-name="Group 511"><path data-name="Path 825" d="M1773.632-228.3l-.031 11.07-155.06 90.111.031-11.071z" transform="translate(-1400.602 394.503)" fill="url(#e)"/></g><g data-name="Group 512"><path data-name="Path 826" d="M1613.315-138.185l-.031 11.071-156.074-90.109.031-11.07z" transform="translate(-1395.344 394.503)" fill="url(#c)"/></g><g data-name="Group 513"><path data-name="Path 827" d="M1768.376-231.331l-155.06 90.111-156.074-90.11 155.058-90.11z" transform="translate(-1395.346 397.538)" fill="url(#d)"/></g></g></g></g><g data-name="Group 528"><g data-name="Group 517"><path data-name="Path 828" d="M1717.21-234.457l-2.008-85.672c-.112-4.819-1.742-7.122-4.917-8.883l-114.825-62.752a3.6 3.6 0 00-3.049-.507s1.884-1.15 2.058-1.221a3.642 3.642 0 013.014.522l114.825 62.754c3.174 1.76 4.8 4.063 4.916 8.882l2.008 85.672c.053 2.3-.55 3.614-1.54 4.093l-1.685 1c.787-.6 1.25-1.859 1.203-3.888z" transform="translate(-1399.751 399.892)" fill="url(#g)"/></g><path data-name="Path 830" d="M314.757 176.619a2.311 2.311 0 00-.011-.435l-.1-4.328a4.379 4.379 0 01-2.4 3.12l-73.19 44.574c-2.961 1.8-7.5 2.1-10.131.658l-114.824-62.753a3.079 3.079 0 01-1.8-2.341h-.008l.109 4.642a3.013 3.013 0 001.808 2.482l114.824 62.754c2.634 1.439 7.171 1.145 10.131-.658l73.191-44.574a4.391 4.391 0 002.394-3.106z" fill="#464647"/><path data-name="Path 831" d="M1709.879-227.448L1595.055-290.2c-2.634-1.44-7.171-1.145-10.131.658l-43.335 26.392-29.855 18.182a7.329 7.329 0 00-.956.689c-2.023 1.736-1.947 3.917.367 5.181l114.824 62.753c2.634 1.44 7.171 1.145 10.132-.658l29.863-18.187 43.327-26.387c2.958-1.802 3.222-4.43.588-5.871z" transform="translate(-1397.043 396.55)" fill="url(#h)"/><path data-name="Path 832" d="M163.027 183.177l18.73 10.235a.546.546 0 01.03 1.033l-20.549-11.23a1.973 1.973 0 011.789-.038z" fill="#464647"/><path data-name="Path 833" d="M205.586 111.982l97.09 53.062 1.292-.787-97.09-53.062z" fill="#464647"/><g data-name="Group 518"><path data-name="Path 834" d="M315.451 79.763c-.112-4.819-1.742-7.122-4.917-8.883L195.709 8.127c-2.634-1.44-4.725-.726-4.622 3.667l2.007 85.673c.132 5.6 2.036 7.316 4.917 8.882l114.824 62.753c2.634 1.44 4.721.534 4.623-3.667z" fill="#464647"/><path data-name="Path 835" d="M312.291 157.512l-1.889-80.611a.787.787 0 00-.408-.671L197.315 14.65a.785.785 0 00-1.162.708l1.888 80.611a.785.785 0 00.409.67l112.682 61.573a.786.786 0 001.159-.7z" fill="#33b4ff"/><path data-name="Path 836" d="M284.232 62.145l-52.069-28.456-34.846-19.043a.785.785 0 00-1.162.707l1.89 80.612a.782.782 0 00.408.67l15.388 8.411z" fill="#fff" opacity=".2" style="mix-blend-mode:overlay;isolation:isolate"/></g><g data-name="Group 520"><path data-name="Path 837" d="M165.39 168.38l15.434-9.4a3.741 3.741 0 013.387-.074l38.4 20.988a1.032 1.032 0 01.056 1.955l-15.434 9.4z" fill="#7b7b7c" opacity=".4"/><g data-name="Group 519" opacity=".4" fill="#7a7a7a"><path data-name="Path 838" d="M186.004 180.387l20.592 11.254-8.355 5.089a3.744 3.744 0 01-3.387.074l-18.871-10.315z" opacity=".4"/><path data-name="Path 839" d="M185.343 180.025l-10.02 6.1-18.872-10.309a1.032 1.032 0 01-.056-1.955l8.355-5.089z" opacity=".4"/></g></g><g data-name="Group 527" fill="#232323"><g data-name="Group 521"><path data-name="Path 840" d="M287.121 175.551l5.745 3.14a1.5 1.5 0 001.351-.088l5.358-3.263c.395-.241.431-.591.078-.783l-5.745-3.14a1.5 1.5 0 00-1.351.088l-5.358 3.263c-.395.24-.429.59-.078.783z"/><path data-name="Path 841" d="M279.347 171.302l5.746 3.14a1.5 1.5 0 001.35-.088l5.358-3.263c.395-.24.431-.591.079-.783l-5.747-3.14a1.5 1.5 0 00-1.351.088l-5.358 3.263c-.393.24-.428.591-.077.783z"/><path data-name="Path 842" d="M271.573 167.053l5.745 3.14a1.5 1.5 0 001.35-.088l5.358-3.263c.395-.24.431-.59.079-.783l-5.746-3.14a1.5 1.5 0 00-1.351.088l-5.358 3.263c-.394.241-.429.591-.077.783z"/><path data-name="Path 843" d="M263.799 162.804l5.745 3.14a1.5 1.5 0 001.35-.087l5.358-3.264c.395-.24.43-.591.078-.783l-5.745-3.14a1.5 1.5 0 00-1.351.088l-5.359 3.263c-.393.24-.428.591-.076.783z"/><path data-name="Path 844" d="M256.023 158.555l5.746 3.14a1.5 1.5 0 001.354-.091l5.359-3.263c.395-.241.429-.591.078-.784l-5.746-3.14a1.5 1.5 0 00-1.35.088l-5.359 3.263c-.397.245-.432.595-.082.787z"/><path data-name="Path 845" d="M248.249 154.307l5.746 3.14a1.506 1.506 0 001.351-.088l5.359-3.264c.395-.24.43-.59.078-.783l-5.745-3.14a1.5 1.5 0 00-1.351.088l-5.358 3.263c-.396.241-.431.591-.08.784z"/><path data-name="Path 846" d="M240.475 150.058l5.746 3.141a1.506 1.506 0 001.351-.088l5.358-3.263c.4-.241.43-.591.079-.784l-5.746-3.14a1.505 1.505 0 00-1.35.088l-5.358 3.263c-.396.241-.431.591-.08.783z"/><path data-name="Path 847" d="M232.701 145.81l5.746 3.14a1.5 1.5 0 001.351-.088l5.358-3.263c.395-.241.429-.591.079-.783l-5.746-3.141a1.508 1.508 0 00-1.352.088l-5.357 3.264c-.394.24-.43.59-.079.783z"/><path data-name="Path 848" d="M224.927 141.561l5.745 3.14a1.5 1.5 0 001.351-.088l5.359-3.263c.394-.241.429-.591.078-.783l-5.746-3.14a1.5 1.5 0 00-1.351.087l-5.359 3.264c-.393.24-.428.59-.077.783z"/><path data-name="Path 849" d="M217.153 137.312l5.745 3.14a1.5 1.5 0 001.352-.088l5.357-3.263c.395-.241.431-.591.079-.783l-5.746-3.14a1.506 1.506 0 00-1.351.087l-5.358 3.263c-.393.241-.429.592-.078.784z"/><path data-name="Path 850" d="M209.379 133.063l5.745 3.14a1.5 1.5 0 001.352-.088l5.357-3.263c.395-.24.43-.591.079-.783l-5.746-3.14a1.5 1.5 0 00-1.351.088l-5.359 3.263c-.393.24-.428.591-.077.783z"/><path data-name="Path 851" d="M201.605 128.814l5.745 3.14a1.5 1.5 0 001.35-.088l5.359-3.263c.395-.24.429-.591.079-.783l-5.747-3.14a1.5 1.5 0 00-1.35.088l-5.359 3.263c-.393.24-.426.591-.077.783z"/><path data-name="Path 852" d="M193.831 124.565l5.745 3.14a1.5 1.5 0 001.35-.088l5.359-3.263c.395-.24.429-.59.078-.783l-5.746-3.14a1.5 1.5 0 00-1.35.088l-5.359 3.263c-.39.24-.429.591-.077.783z"/><path data-name="Path 853" d="M182.543 118.397l9.259 5.06a1.5 1.5 0 001.35-.087l5.359-3.264c.395-.24.429-.59.078-.783l-9.258-5.06a1.5 1.5 0 00-1.351.087l-5.358 3.264c-.395.243-.43.59-.079.783z"/></g><g data-name="Group 522"><path data-name="Path 854" d="M187.557 121.981l-5.745-3.14a1.506 1.506 0 00-1.351.088l-5.358 3.263c-.395.241-.43.591-.078.784l5.745 3.14a1.5 1.5 0 001.35-.088l5.359-3.263c.394-.241.43-.591.078-.784z"/><path data-name="Path 855" d="M195.332 126.23l-5.746-3.14a1.505 1.505 0 00-1.35.088l-5.358 3.263c-.395.241-.429.591-.078.784l5.745 3.139a1.5 1.5 0 001.35-.087l5.359-3.263c.393-.241.429-.591.078-.784z"/><path data-name="Path 856" d="M203.106 130.479l-5.746-3.14a1.5 1.5 0 00-1.35.088l-5.359 3.263c-.395.241-.429.591-.078.783l5.745 3.14a1.5 1.5 0 001.351-.087l5.359-3.264c.395-.24.43-.59.078-.783z"/><path data-name="Path 857" d="M210.881 134.728l-5.745-3.14a1.5 1.5 0 00-1.351.088l-5.358 3.263c-.4.24-.431.591-.079.783l5.745 3.14a1.5 1.5 0 001.352-.087l5.358-3.264c.393-.238.429-.591.078-.783z"/><path data-name="Path 858" d="M218.654 138.977l-5.746-3.14a1.5 1.5 0 00-1.349.088l-5.359 3.263c-.394.24-.429.591-.078.783l5.747 3.14a1.5 1.5 0 001.35-.088l5.358-3.263c.394-.24.427-.59.077-.783z"/><path data-name="Path 859" d="M226.429 143.226l-5.745-3.14a1.5 1.5 0 00-1.352.088l-5.358 3.263c-.394.24-.43.591-.079.783l5.746 3.14a1.5 1.5 0 001.351-.088l5.358-3.263c.392-.24.43-.591.079-.783z"/><path data-name="Path 860" d="M234.202 147.475l-5.745-3.14a1.5 1.5 0 00-1.35.088l-5.359 3.263c-.395.24-.43.59-.078.783l5.746 3.14a1.5 1.5 0 001.35-.088l5.358-3.263c.395-.24.431-.591.078-.783z"/><path data-name="Path 861" d="M241.976 151.723l-5.745-3.14a1.5 1.5 0 00-1.351.087l-5.359 3.264c-.395.24-.429.59-.078.783l5.745 3.14a1.5 1.5 0 001.35-.088l5.359-3.263c.396-.24.431-.591.079-.783z"/><path data-name="Path 862" d="M249.756 155.971l-5.746-3.139a1.5 1.5 0 00-1.351.087l-5.358 3.264c-.395.24-.431.59-.079.783l5.746 3.14a1.5 1.5 0 001.351-.088l5.358-3.263c.39-.241.425-.591.079-.784z"/><path data-name="Path 863" d="M257.525 160.221l-5.745-3.141a1.506 1.506 0 00-1.351.088l-5.358 3.263c-.395.241-.43.591-.078.784l5.745 3.14a1.5 1.5 0 001.35-.088l5.359-3.263c.394-.241.43-.59.078-.783z"/><path data-name="Path 864" d="M265.3 164.471l-5.746-3.139a1.5 1.5 0 00-1.35.087l-5.358 3.263c-.395.241-.43.591-.078.784l5.745 3.14a1.505 1.505 0 001.35-.088l5.359-3.263c.394-.243.429-.593.078-.784z"/><path data-name="Path 865" d="M273.071 168.718l-5.747-3.14a1.5 1.5 0 00-1.35.088l-5.358 3.263c-.4.241-.431.591-.079.784l5.745 3.139a1.5 1.5 0 001.351-.087l5.358-3.264c.399-.24.434-.59.08-.783z"/><path data-name="Path 866" d="M280.848 172.967l-5.745-3.14a1.5 1.5 0 00-1.351.088l-5.357 3.263c-.4.24-.43.591-.079.783l5.746 3.14a1.5 1.5 0 001.352-.087l5.358-3.264c.392-.24.427-.59.076-.783z"/><path data-name="Path 867" d="M292.135 179.135l-9.258-5.06a1.5 1.5 0 00-1.351.088l-5.358 3.263c-.394.24-.43.591-.079.783l9.259 5.061a1.5 1.5 0 001.351-.088l5.358-3.263c.39-.241.429-.591.078-.784z"/></g><g data-name="Group 523"><path data-name="Path 868" d="M185.649 129.629l-11.357-6.207a1.5 1.5 0 00-1.351.088l-5.358 3.263c-.4.241-.43.591-.079.783l11.357 6.208a1.505 1.505 0 001.35-.088l5.359-3.263c.396-.241.435-.592.079-.784z"/><path data-name="Path 869" d="M284.552 183.681l-11.357-6.207a1.5 1.5 0 00-1.35.088l-5.359 3.263c-.395.241-.43.591-.078.783l11.358 6.208a1.505 1.505 0 001.35-.088l5.358-3.263c.395-.237.431-.592.078-.784z"/><path data-name="Path 870" d="M193.425 133.877l-5.746-3.14a1.5 1.5 0 00-1.351.088l-5.359 3.263c-.395.241-.429.591-.078.783l5.745 3.14a1.5 1.5 0 001.35-.087l5.359-3.263c.395-.241.431-.591.08-.784z"/><path data-name="Path 871" d="M201.199 138.126l-5.746-3.14a1.5 1.5 0 00-1.35.088l-5.358 3.263c-.395.241-.43.591-.078.783l5.745 3.14a1.5 1.5 0 001.352-.087l5.357-3.264c.393-.24.429-.59.078-.783z"/><path data-name="Path 872" d="M208.973 142.375l-5.745-3.14a1.5 1.5 0 00-1.351.088l-5.359 3.263c-.395.24-.429.591-.078.783l5.745 3.14a1.5 1.5 0 001.351-.087l5.358-3.264c.396-.242.43-.591.079-.783z"/><path data-name="Path 873" d="M216.747 146.624l-5.746-3.14a1.507 1.507 0 00-1.351.087l-5.359 3.264c-.394.24-.43.591-.078.783l5.745 3.14a1.5 1.5 0 001.352-.088l5.358-3.263c.4-.24.43-.591.079-.783z"/><path data-name="Path 874" d="M224.521 150.873l-5.745-3.14a1.5 1.5 0 00-1.351.087l-5.358 3.264c-.395.24-.43.591-.079.783l5.746 3.14a1.5 1.5 0 001.351-.088l5.359-3.263c.393-.24.429-.591.077-.783z"/><path data-name="Path 875" d="M232.295 155.122l-5.745-3.14a1.5 1.5 0 00-1.352.087l-5.357 3.264c-.395.24-.431.591-.079.783l5.746 3.14a1.5 1.5 0 001.35-.088l5.359-3.263c.395-.24.428-.591.078-.783z"/><path data-name="Path 876" d="M240.069 159.37l-5.745-3.14a1.5 1.5 0 00-1.35.087l-5.358 3.264c-.395.24-.43.59-.079.783l5.746 3.14a1.5 1.5 0 001.35-.088l5.359-3.263c.391-.241.429-.591.077-.783z"/><path data-name="Path 877" d="M247.844 163.619l-5.745-3.141a1.506 1.506 0 00-1.351.088l-5.359 3.263c-.395.241-.429.591-.078.784l5.745 3.14a1.5 1.5 0 001.351-.088l5.358-3.263c.395-.241.43-.591.079-.783z"/><path data-name="Path 878" d="M255.619 167.867l-5.746-3.14a1.505 1.505 0 00-1.35.088l-5.359 3.263c-.394.241-.43.591-.078.783l5.745 3.141a1.506 1.506 0 001.351-.088l5.358-3.263c.394-.241.429-.594.079-.784z"/><path data-name="Path 879" d="M263.397 172.114l-5.746-3.14a1.5 1.5 0 00-1.351.088l-5.358 3.263c-.395.241-.429.591-.078.784l5.745 3.14a1.506 1.506 0 001.351-.088l5.358-3.263c.39-.239.426-.589.079-.784z"/><path data-name="Path 880" d="M271.166 176.365l-5.745-3.14a1.5 1.5 0 00-1.352.088l-5.358 3.263c-.395.241-.43.591-.078.783l5.745 3.14a1.5 1.5 0 001.351-.087l5.358-3.264c.395-.24.431-.59.079-.783z"/></g><g data-name="Group 524"><path data-name="Path 881" d="M181.989 136.318l-15.216-8.316a1.5 1.5 0 00-1.351.088l-5.358 3.263c-.395.24-.431.591-.079.783l15.218 8.317a1.5 1.5 0 001.35-.088l5.359-3.263c.394-.242.43-.592.077-.784z"/><path data-name="Path 882" d="M189.764 140.566l-5.745-3.14a1.505 1.505 0 00-1.35.088l-5.359 3.263c-.395.241-.431.591-.078.784l5.745 3.139a1.5 1.5 0 001.35-.087l5.358-3.263c.392-.241.43-.591.079-.784z"/><path data-name="Path 883" d="M197.537 144.815l-5.745-3.14a1.5 1.5 0 00-1.35.088l-5.359 3.263c-.395.241-.429.591-.078.783l5.745 3.14a1.5 1.5 0 001.35-.087l5.359-3.264c.395-.24.431-.59.078-.783z"/><path data-name="Path 884" d="M205.313 149.064l-5.746-3.14a1.5 1.5 0 00-1.351.088l-5.358 3.263c-.395.241-.43.591-.078.783l5.746 3.14a1.5 1.5 0 001.351-.087l5.358-3.264c.393-.24.429-.59.078-.783z"/><path data-name="Path 885" d="M213.091 153.313l-5.746-3.14a1.5 1.5 0 00-1.351.088l-5.358 3.263c-.395.24-.43.591-.078.783l5.746 3.14a1.5 1.5 0 001.35-.087l5.359-3.264c.389-.24.425-.591.078-.783z"/><path data-name="Path 886" d="M220.86 157.562l-5.746-3.14a1.5 1.5 0 00-1.351.088l-5.358 3.263c-.394.24-.43.591-.078.783l5.745 3.14a1.5 1.5 0 001.351-.088l5.358-3.263c.395-.24.431-.591.079-.783z"/><path data-name="Path 887" d="M228.635 161.811l-5.745-3.14a1.5 1.5 0 00-1.351.087l-5.359 3.264c-.395.24-.43.591-.078.783l5.746 3.14a1.5 1.5 0 001.351-.088l5.357-3.263c.396-.241.431-.591.079-.783z"/><path data-name="Path 888" d="M236.406 166.059l-5.746-3.14a1.5 1.5 0 00-1.35.087l-5.359 3.264c-.395.24-.431.59-.079.783l5.746 3.14a1.506 1.506 0 001.35-.088l5.358-3.263c.4-.241.435-.591.08-.783z"/><path data-name="Path 889" d="M244.183 170.308l-5.745-3.14a1.5 1.5 0 00-1.351.087l-5.357 3.263c-.395.241-.431.591-.079.784l5.746 3.14a1.5 1.5 0 001.35-.088l5.359-3.263c.394-.241.429-.591.077-.783z"/><path data-name="Path 890" d="M251.958 174.557l-5.746-3.141a1.508 1.508 0 00-1.352.088l-5.357 3.263c-.395.241-.431.591-.079.784l5.746 3.14a1.5 1.5 0 001.351-.088l5.358-3.263c.395-.241.43-.591.079-.783z"/><path data-name="Path 891" d="M259.731 178.805l-5.745-3.14a1.506 1.506 0 00-1.351.088l-5.359 3.263c-.395.241-.43.591-.078.784l5.745 3.14a1.506 1.506 0 001.351-.088l5.358-3.263c.396-.241.431-.591.079-.784z"/><path data-name="Path 892" d="M277.033 188.261l-15.272-8.347a1.506 1.506 0 00-1.351.088l-5.358 3.263c-.395.241-.431.591-.078.784l15.272 8.346a1.5 1.5 0 001.351-.088l5.361-3.261c.39-.243.426-.593.075-.785z"/></g><g data-name="Group 525"><path data-name="Path 893" d="M236.665 174.887l-36.844-20.135a1.5 1.5 0 00-1.35.088l-5.358 3.263c-.395.24-.43.591-.078.783l36.843 20.135a1.5 1.5 0 001.35-.087l5.359-3.263c.393-.242.429-.592.078-.784z"/><path data-name="Path 894" d="M188.326 148.467l-5.746-3.14a1.5 1.5 0 00-1.351.088l-5.358 3.263c-.395.241-.43.591-.079.784l5.746 3.14a1.5 1.5 0 001.35-.088l5.358-3.263c.392-.24.428-.591.08-.784z"/><path data-name="Path 895" d="M197.793 153.644l-7.443-4.068a1.5 1.5 0 00-1.35.088l-5.358 3.263c-.395.241-.43.591-.079.784l7.442 4.067a1.5 1.5 0 001.352-.088l5.357-3.263c.395-.24.43-.592.079-.783z"/><path data-name="Path 896" d="M248.163 181.172l5.745 3.14c.352.192.316.543-.078.783l-5.358 3.263a1.5 1.5 0 01-1.351.088l-5.745-3.14c-.352-.192-.316-.543.078-.783l5.359-3.264a1.5 1.5 0 011.35-.087z"/><path data-name="Path 897" d="M238.692 175.996l7.442 4.068c.351.192.316.543-.079.783l-5.358 3.263a1.5 1.5 0 01-1.35.088l-7.442-4.068c-.351-.192-.316-.542.078-.783l5.359-3.263a1.5 1.5 0 011.35-.088z"/><path data-name="Path 898" d="M164.999 135.721l-5.745-3.14a1.5 1.5 0 00-1.35.087l-5.359 3.264c-.395.24-.429.591-.078.783l5.745 3.14a1.5 1.5 0 001.351-.088l5.359-3.263c.389-.241.429-.591.077-.783z"/><path data-name="Path 899" d="M172.775 139.97l-5.747-3.14a1.5 1.5 0 00-1.35.087l-5.359 3.264c-.395.24-.43.59-.078.783l5.745 3.14a1.508 1.508 0 001.351-.088l5.357-3.263c.396-.241.432-.591.081-.783z"/><path data-name="Path 900" d="M180.548 144.219l-5.746-3.141a1.506 1.506 0 00-1.351.088l-5.358 3.263c-.395.241-.43.591-.078.784l5.745 3.14a1.5 1.5 0 001.351-.088l5.358-3.263c.394-.241.43-.591.079-.783z"/><path data-name="Path 901" d="M269.513 192.84l-13.576-7.419a1.5 1.5 0 00-1.35.087l-5.358 3.264c-.395.24-.43.591-.078.783l13.576 7.419a1.5 1.5 0 001.35-.088l5.358-3.263c.394-.24.429-.591.078-.783z"/></g><g data-name="Group 526"><path data-name="Path 902" d="M294.64 170.971l5.745 3.14a1.5 1.5 0 001.35-.088l2.665-1.622c.395-.24.43-.591.079-.783l-5.746-3.14a1.5 1.5 0 00-1.351.088l-2.664 1.622c-.397.243-.43.591-.078.783z"/><path data-name="Path 903" d="M286.866 166.722l5.745 3.14a1.5 1.5 0 001.35-.087l2.664-1.623c.395-.24.431-.591.079-.783l-5.746-3.14a1.5 1.5 0 00-1.35.088l-2.664 1.622c-.394.24-.43.591-.078.783z"/><path data-name="Path 904" d="M279.091 162.473l5.746 3.141a1.505 1.505 0 001.35-.088l2.665-1.623c.395-.24.43-.59.078-.783l-5.745-3.14a1.5 1.5 0 00-1.351.088l-2.664 1.622c-.395.241-.43.591-.079.783z"/><path data-name="Path 905" d="M271.317 158.225l5.747 3.14a1.506 1.506 0 001.35-.088l2.664-1.623c.395-.24.431-.59.078-.783l-5.745-3.14a1.5 1.5 0 00-1.35.088l-2.664 1.622c-.396.241-.432.591-.08.784z"/><path data-name="Path 906" d="M263.543 153.975l5.746 3.141a1.5 1.5 0 001.35-.088l2.664-1.622c.395-.241.43-.591.078-.784l-5.746-3.139a1.5 1.5 0 00-1.35.087l-2.664 1.622c-.394.241-.429.591-.078.783z"/><path data-name="Path 907" d="M255.769 149.727l5.746 3.14a1.508 1.508 0 001.352-.088l2.664-1.622c.395-.241.429-.591.078-.784l-5.745-3.139a1.5 1.5 0 00-1.351.087l-2.664 1.622c-.397.241-.431.591-.08.784z"/><path data-name="Path 908" d="M247.993 145.479l5.746 3.14a1.5 1.5 0 001.352-.088l2.664-1.622c.395-.241.43-.591.078-.783l-5.745-3.14a1.5 1.5 0 00-1.351.087l-2.664 1.623c-.395.24-.429.594-.08.783z"/><path data-name="Path 909" d="M240.221 141.233l5.745 3.14a1.5 1.5 0 001.352-.088l2.664-1.622c.395-.241.43-.591.078-.783l-5.745-3.14a1.5 1.5 0 00-1.351.087l-2.665 1.623c-.395.237-.43.583-.078.783z"/><path data-name="Path 910" d="M232.447 136.976l5.745 3.14a1.5 1.5 0 001.351-.088l2.664-1.622c.395-.24.431-.591.079-.783l-5.746-3.14a1.5 1.5 0 00-1.35.087l-2.664 1.623c-.396.245-.431.596-.079.783z"/><path data-name="Path 911" d="M224.672 132.732l5.745 3.14a1.5 1.5 0 001.351-.087l2.663-1.623c.395-.24.431-.591.079-.783l-5.746-3.14a1.5 1.5 0 00-1.351.088l-2.664 1.622c-.394.24-.428.591-.077.783z"/><path data-name="Path 912" d="M216.898 128.483l5.745 3.14a1.5 1.5 0 001.351-.087l2.664-1.623c.395-.24.43-.591.079-.783l-5.746-3.14a1.5 1.5 0 00-1.351.088l-2.664 1.622c-.395.241-.43.591-.078.783z"/><path data-name="Path 913" d="M209.123 124.235l5.747 3.139a1.5 1.5 0 001.35-.087l2.664-1.623c.395-.24.43-.59.078-.783l-5.745-3.14a1.5 1.5 0 00-1.351.088l-2.664 1.622c-.395.241-.429.591-.079.784z"/><path data-name="Path 914" d="M201.349 119.985l5.746 3.14a1.5 1.5 0 001.351-.087l2.664-1.622c.394-.241.43-.591.078-.784l-5.745-3.14a1.5 1.5 0 00-1.35.088l-2.664 1.622c-.396.246-.432.591-.08.783z"/><path data-name="Path 915" d="M190.062 113.817l9.259 5.06a1.5 1.5 0 001.35-.087l2.664-1.622c.395-.241.43-.591.078-.784l-9.258-5.06a1.5 1.5 0 00-1.351.088l-2.665 1.622c-.395.24-.429.591-.077.783z"/></g></g></g><g data-name="Group 529"><path data-name="Path 916" d="M1798.748-140.9l-53.362 31.011-53.711-31.01 53.362-31.01z" transform="translate(-1402.985 392.665)" fill="url(#i)" opacity=".6"/></g><g data-name="Group 552"><g data-name="Group 535"><g data-name="Group 534"><g data-name="Group 533" style="isolation:isolate"><g data-name="Group 530"><path data-name="Path 917" d="M1787.5-214.528l-.011 65.085-53.362 31.01.011-65.085z" transform="translate(-1404.369 394.054)" fill="url(#e)"/></g><g data-name="Group 531"><path data-name="Path 918" d="M1732.332-183.518l-.011 65.085-53.711-31.01.011-65.085z" transform="translate(-1402.56 394.054)" fill="url(#j)"/></g><path data-name="Path 919" d="M279.27 246.471l48.291 27.881v-27.746l-48.292-27.881z" fill="#382747"/><g data-name="Group 532"><path data-name="Path 920" d="M1785.693-215.573l-53.362 31.01-53.711-31.01 53.362-31.01z" transform="translate(-1402.56 395.099)" fill="url(#d)"/></g></g></g></g><g data-name="Group 544"><g data-name="Group 537"><g data-name="Group 536"><path data-name="Path 921" d="M1747.042-180.038a3.8 3.8 0 00-1.725 2.988l.007 2.271c0 1.1.78 1.542 1.737.99l32.135-18.554a3.8 3.8 0 001.726-2.988l-.007-2.271c0-1.1-.78-1.541-1.737-.99z" transform="translate(-1404.734 393.542)" fill="url(#k)"/></g><path data-name="Path 922" d="M341.852 219.279l32.136-18.553a3.8 3.8 0 001.725-2.988l-.006-2.271a1.655 1.655 0 00-.131-.675 1.273 1.273 0 00-1.132.159l-32.135 18.554a3.8 3.8 0 00-1.726 2.988l.007 2.271a1.645 1.645 0 00.132.675 1.268 1.268 0 001.13-.16z" fill="#6377a9"/><path data-name="Path 923" d="M358.186 206.403a.806.806 0 00-.008-.086c-.029.014-.057.023-.087.041l-14.572 8.413.006 1.833a.8.8 0 00.007.085c.029-.013.057-.023.087-.04l14.571-8.414z" fill="#48cfff"/></g><g data-name="Group 539"><g data-name="Group 538"><path data-name="Path 924" d="M1747.042-166.2a3.8 3.8 0 00-1.725 2.988l.007 2.27c0 1.1.78 1.542 1.737.99l32.135-18.553a3.8 3.8 0 001.726-2.988l-.007-2.271c0-1.1-.78-1.542-1.737-.99z" transform="translate(-1404.734 393.092)" fill="url(#k)"/></g><path data-name="Path 925" d="M341.852 232.666l32.136-18.554a3.8 3.8 0 001.725-2.988l-.006-2.271a1.662 1.662 0 00-.131-.675 1.274 1.274 0 00-1.132.16l-32.135 18.553a3.8 3.8 0 00-1.726 2.988l.007 2.27a1.653 1.653 0 00.132.676 1.271 1.271 0 001.13-.159z" fill="#6377a9"/><path data-name="Path 926" d="M358.186 219.79a.765.765 0 00-.008-.085c-.029.013-.057.023-.087.04l-14.572 8.414.006 1.832a.841.841 0 00.007.086c.029-.014.057-.023.087-.041l14.571-8.413z" fill="#48cfff"/></g><g data-name="Group 541"><g data-name="Group 540"><path data-name="Path 927" d="M1747.042-152.363a3.8 3.8 0 00-1.725 2.988l.007 2.271c0 1.1.78 1.542 1.737.99l32.135-18.554a3.8 3.8 0 001.726-2.988l-.007-2.27c0-1.1-.78-1.542-1.737-.99z" transform="translate(-1404.734 392.64)" fill="url(#k)"/></g><path data-name="Path 928" d="M341.852 246.052l32.136-18.553a3.8 3.8 0 001.725-2.988l-.006-2.271a1.655 1.655 0 00-.131-.675 1.271 1.271 0 00-1.132.16l-32.135 18.553a3.8 3.8 0 00-1.726 2.988l.007 2.271a1.645 1.645 0 00.132.675 1.268 1.268 0 001.13-.16z" fill="#6377a9"/><path data-name="Path 929" d="M358.186 233.176a.766.766 0 00-.008-.085.766.766 0 00-.087.04l-14.572 8.413.006 1.833a.82.82 0 00.007.085c.029-.013.057-.023.087-.04l14.571-8.414z" fill="#48cfff"/></g><g data-name="Group 543"><g data-name="Group 542"><path data-name="Path 930" d="M1747.042-138.525a3.8 3.8 0 00-1.725 2.988l.007 2.271c0 1.1.78 1.541 1.737.989l32.139-18.553a3.8 3.8 0 001.726-2.988l-.007-2.271c0-1.1-.78-1.542-1.737-.99z" transform="translate(-1404.734 392.19)" fill="url(#k)"/></g><path data-name="Path 931" d="M341.852 259.439l32.136-18.554a3.8 3.8 0 001.725-2.988l-.006-2.27a1.664 1.664 0 00-.131-.676 1.274 1.274 0 00-1.132.16l-32.135 18.554a3.8 3.8 0 00-1.726 2.988l.007 2.271a1.652 1.652 0 00.132.675 1.271 1.271 0 001.13-.16z" fill="#6377a9"/><path data-name="Path 932" d="M358.186 246.564a.782.782 0 00-.008-.086.772.772 0 00-.087.041l-14.572 8.413.006 1.832a.84.84 0 00.007.086c.029-.014.057-.023.087-.041l14.571-8.413z" fill="#48cfff"/></g></g><g data-name="Group 551" transform="translate(298.473 153.327)"><ellipse data-name="Ellipse 27" cx="30.333" cy="16.916" rx="30.333" ry="16.916" transform="translate(0 9.454)" fill="#94a3c0" opacity=".32" style="mix-blend-mode:multiply;isolation:isolate"/><g data-name="Group 550"><g data-name="Group 548"><g data-name="Group 545"><path data-name="Path 933" d="M45.909 3.796l-.01 3.473-15.758 9.158.01-3.473z" fill="#396caa"/></g><g data-name="Group 546"><path data-name="Path 934" d="M30.151 12.953l-.01 3.473-19.956-5.879.01-3.473z" fill="#33b4ff"/></g><g data-name="Group 547"><path data-name="Path 935" d="M1748.04-237.814l-15.758 9.157-19.956-5.879c5.57-6.372 19.02-8.907 30.041-5.659a24.783 24.783 0 015.673 2.381z" transform="translate(-1702.131 241.61)" fill="url(#l)"/></g></g><path data-name="Path 936" d="M57.48 20.033c-.249 4.525-3.7 7.95-7.333 10.214a33.974 33.974 0 01-13.216 4.451 46.281 46.281 0 01-13.719-.146 33.559 33.559 0 01-13-4.734c-3.531-2.3-6.884-5.843-6.871-10.325l-.009 2.825a15.689 15.689 0 00.171 3.151c.743 3.707 3.648 6.565 6.705 8.554a33.471 33.471 0 0012.714 4.684 46.132 46.132 0 0013.623.239 35.057 35.057 0 0013.194-4.259c3.589-2.11 7.049-5.371 7.651-9.691a21.733 21.733 0 00.1-2.914q0-1.262.007-2.525c.003.158-.009.317-.017.476z" fill="#265497"/><g data-name="Group 549"><path data-name="Path 937" d="M1751.421-232.919c10.591 6.115 10.645 16.03.123 22.145s-27.637 6.115-38.229 0c-8.474-4.892-10.463-12.017-5.074-18.182l24.126 7.11z" transform="translate(-1701.9 241.327)" fill="url(#m)"/></g></g></g></g><g data-name="Group 557"><g data-name="Group 553"><path data-name="Path 938" d="M1501.949-271.442c1.873 1.082 1.879 2.83.022 3.909l-62.186 36.139a7.426 7.426 0 01-6.75 0l-38.353-22.143c-1.869-1.079-1.883-2.828-.021-3.909l62.186-36.139a7.438 7.438 0 016.75 0z" transform="translate(-1393.26 396.657)" fill="url(#n)"/></g><g data-name="Group 556"><path data-name="Path 939" d="M110.086 127.323c0 .05-.008.1-.017.15s-.019.081-.03.122-.024.1-.042.143l-.048.115c-.016.039-.043.1-.07.149s-.042.071-.065.106a2.666 2.666 0 01-.111.166c-.024.032-.052.064-.077.1a2.651 2.651 0 01-.2.218c-.027.026-.051.052-.079.078-.047.041-.1.08-.146.12s-.087.072-.134.106-.114.076-.172.115-.117.078-.181.116l-62.186 36.139a5.1 5.1 0 01-.667.316 5.995 5.995 0 01-.187.071c-.144.052-.3.095-.448.137a7.103 7.103 0 01-1.056.219c-.048.006-.095.014-.143.019a7.883 7.883 0 01-.8.044H43.1c-.265 0-.53-.016-.792-.045l-.118-.013q-.39-.048-.766-.132l-.136-.034a6.278 6.278 0 01-.663-.2c-.038-.014-.078-.024-.116-.039a5.371 5.371 0 01-.728-.344L1.422 143.118A2.764 2.764 0 01.1 141.681a1.688 1.688 0 01-.087-.532l-.013 2.2a1.562 1.562 0 00.021.267 2.558 2.558 0 001.388 1.7l38.352 22.143a5.193 5.193 0 00.692.331l.037.014c.039.015.078.025.116.039.141.051.281.1.427.144.077.022.158.039.237.058l.136.034c.042.009.082.021.125.03.156.032.313.06.473.082.055.008.113.013.169.019l.117.013c.059.007.117.015.176.02.156.013.313.021.469.025h.488q.266-.009.528-.035l.061-.009c.047 0 .094-.014.141-.019.135-.017.272-.033.405-.057.06-.011.114-.031.173-.043a7.1 7.1 0 00.478-.119c.083-.023.171-.037.252-.063s.13-.05.2-.074.126-.045.187-.071a5.235 5.235 0 00.667-.316l62.186-36.139.059-.035c.043-.026.081-.055.124-.082s.117-.076.17-.114.09-.071.133-.105.1-.08.147-.121l.03-.025c.018-.017.032-.036.049-.053a2.573 2.573 0 00.2-.218c.014-.015.032-.031.045-.047s.02-.032.033-.048c.041-.055.077-.111.112-.167.015-.023.034-.045.047-.07s.01-.024.016-.036c.026-.049.049-.1.07-.148.013-.029.03-.058.041-.087 0-.01 0-.02.009-.03.017-.047.028-.095.041-.142.009-.032.021-.064.028-.1a.16.16 0 010-.025c.009-.05.012-.1.016-.151 0-.032.011-.065.012-.1v-.042l.012-2.2a1.325 1.325 0 01-.009.146z" fill="#464647"/><g data-name="Group 554"><path data-name="Path 940" d="M103.024 125.911a.664.664 0 010 1.257l-52.146 30.308a2.393 2.393 0 01-2.17 0L14.16 137.529a.666.666 0 01-.008-1.26l52.153-30.308a2.4 2.4 0 012.175 0z" fill="#126087"/></g><g data-name="Group 555"><path data-name="Path 941" d="M29.838 151.128a.731.731 0 01.008 1.382l-.865.5a2.627 2.627 0 01-2.387 0l-5.255-3.034a.731.731 0 01-.007-1.382l.864-.5a2.634 2.634 0 012.387 0z" fill="#232323"/></g></g></g><g data-name="Group 578"><g data-name="Group 561" style="isolation:isolate"><g data-name="Group 558"><path data-name="Path 942" d="M170.792 105.509l-3.283-1.908-.028-9.871 3.282 1.908z" fill="#33b4ff"/></g><g data-name="Group 559"><path data-name="Path 943" d="M170.763 95.638l-3.282-1.908 8.26-4.769 3.282 1.908z" fill="#5c82ff"/></g><g data-name="Group 560"><path data-name="Path 944" d="M179.023 90.869l.028 9.871-8.261 4.769-.028-9.871z" fill="#396caa"/></g></g><g data-name="Group 565" style="isolation:isolate"><g data-name="Group 562"><path data-name="Path 945" d="M143.317 102.64l-3.282-1.908-.028-9.871 3.283 1.907z" fill="#33b4ff"/></g><g data-name="Group 563"><path data-name="Path 946" d="M143.289 92.772l-3.283-1.907 35.682-20.6 3.282 1.908z" fill="#5c82ff"/></g><g data-name="Group 564"><path data-name="Path 947" d="M178.972 72.17l.028 9.871-35.682 20.6-.028-9.871z" fill="#396caa"/></g></g><g data-name="Group 569" style="isolation:isolate"><g data-name="Group 566"><path data-name="Path 948" d="M159.451 74.601l-3.282-1.908-.028-9.871 3.282 1.908z" fill="#33b4ff"/></g><g data-name="Group 567"><path data-name="Path 949" d="M159.424 64.731l-3.282-1.908 19.494-11.255 3.282 1.908z" fill="#5c82ff"/></g><g data-name="Group 568"><path data-name="Path 950" d="M178.917 53.476l.028 9.871-19.494 11.254-.028-9.871z" fill="#396caa"/></g></g><g data-name="Group 573" style="isolation:isolate"><g data-name="Group 570"><path data-name="Path 951" d="M132.638 71.355l-3.282-1.908-.028-9.871 3.282 1.908z" fill="#33b4ff"/></g><g data-name="Group 571"><path data-name="Path 952" d="M132.61 61.484l-3.282-1.908 46.256-26.706 3.282 1.908z" fill="#5c82ff"/></g><g data-name="Group 572"><path data-name="Path 953" d="M178.865 34.779l.028 9.871-46.256 26.706-.028-9.871z" fill="#396caa"/></g></g><g data-name="Group 577" style="isolation:isolate"><g data-name="Group 574"><path data-name="Path 954" d="M121.683 58.949l-3.282-1.908-.028-9.871 3.282 1.908z" fill="#33b4ff"/></g><g data-name="Group 575"><path data-name="Path 955" d="M121.652 49.078l-3.282-1.908 57.156-33 3.282 1.908z" fill="#5c82ff"/></g><g data-name="Group 576"><path data-name="Path 956" d="M178.812 16.079l.028 9.871-57.157 33-.028-9.871z" fill="#396caa"/></g></g></g><g data-name="Group 581"><g data-name="Group 579"><path data-name="Path 957" d="M270.886 68.704c-10.149-5.86-19.756-4.364-23.725 4.871-4.967 11.545.68 30.994 12.639 44.445l2.773-6.458c-8.1-9.451-11.872-22.808-8.436-30.792 2.8-6.511 9.57-7.562 16.725-3.431a29.118 29.118 0 015.248 3.941l2.775-6.458a41.934 41.934 0 00-7.999-6.118z" fill="#fffaf0"/></g><g data-name="Group 580"><path data-name="Path 958" d="M278.888 74.822l-2.772 6.453c.436.408.875.835 1.3 1.282 9.207 9.486 13.7 24.06 10.05 32.561-.134.3-.276.6-.428.884-.053.1-.111.2-.17.3-2.663 4.688-7.765 5.832-13.422 3.565a20.731 20.731 0 01-2.687-1.315q-.363-.209-.726-.436c-.442-.275-.78-.5-1.11-.729l-.152-.107a30.43 30.43 0 01-2.447-1.928q-.4-.353-.8-.725a30.276 30.276 0 01-1.34-1.301 46.37 46.37 0 01-1.615-1.768l-2.774 6.458a53.565 53.565 0 001.615 1.749q.74.759 1.487 1.461c.141.134.28.269.425.4.378.352.761.695 1.144 1.029.128.114.255.228.384.335a40.983 40.983 0 003.092 2.4c.081.061.163.114.245.167.471.333.942.638 1.408.934l.163.1q.481.3.96.576 1.142.659 2.274 1.2c.57.27 1.106.5 1.641.713 8.631 3.424 16.356 1.262 19.811-6.778 5.184-12.057-1.2-32.74-14.254-46.194q-.651-.664-1.302-1.286z" fill="#574baa"/></g></g><g data-name="Group 599"><g data-name="Group 583"><g data-name="Group 582"><path data-name="Path 959" d="M206.835 29.624V90.25l30.309 17.5V47.124z" fill="#fff"/></g></g><g data-name="Group 584"><path data-name="Path 960" d="M211.127 38.395V50.52l6.062 3.5V41.895z" fill="#dcdcdc"/></g><g data-name="Group 589"><g data-name="Group 585"><path data-name="Path 961" d="M216.78 74.039v.8a.617.617 0 01-.925.534l-3.8-2.191a.617.617 0 01-.308-.534v-.8a.617.617 0 01.925-.535l3.8 2.191a.619.619 0 01.308.535z" fill="#dcdcdc"/></g><g data-name="Group 586"><path data-name="Path 962" d="M228.827 84.941v.807a.617.617 0 01-.924.535l-15.85-9.087a.615.615 0 01-.311-.535v-.807a.616.616 0 01.923-.535l15.851 9.087a.615.615 0 01.311.535z" fill="#dcdcdc"/></g><g data-name="Group 587"><path data-name="Path 963" d="M222.294 89.211v.807a.616.616 0 01-.923.535l-9.315-5.34a.614.614 0 01-.311-.535v-.807a.616.616 0 01.923-.535l9.316 5.34a.617.617 0 01.31.535z" fill="#dcdcdc" opacity=".53"/></g><g data-name="Group 588"><path data-name="Path 964" d="M226.37 87.541v.807a.617.617 0 01-.924.535l-13.393-7.677a.617.617 0 01-.309-.535v-.807a.616.616 0 01.923-.535l13.393 7.677a.616.616 0 01.31.535z" fill="#dcdcdc" opacity=".3"/></g></g><path data-name="Path 965" d="M211.381 65.909l2.021-3.031 1.389 1.137 3.157-5.431 2.779 1.768 1.768-.379 4.294-6.062 2.021 1.642 3.915-3.789" fill="none" stroke="#574baa" stroke-miterlimit="10" stroke-width=".5"/><g data-name="Group 592"><g data-name="Group 590"><path data-name="Path 966" d="M232.605 50.651c-.7-.4-1.265-.078-1.267.723a2.77 2.77 0 001.259 2.176c.7.4 1.261.08 1.263-.72a2.774 2.774 0 00-1.255-2.179z" fill="#ff5668"/></g><g data-name="Group 591"><path data-name="Path 967" d="M232.603 51.446c-.314-.182-.572-.035-.573.326a1.256 1.256 0 00.569.985c.316.181.571.036.572-.326a1.252 1.252 0 00-.568-.985z" fill="#ff5668"/></g></g><g data-name="Group 595"><g data-name="Group 593"><path data-name="Path 968" d="M217.703 57.237c-.7-.4-1.264-.078-1.267.722a2.772 2.772 0 001.259 2.177c.7.4 1.262.08 1.263-.72a2.768 2.768 0 00-1.255-2.179z" fill="#5c82ff"/></g><g data-name="Group 594"><path data-name="Path 969" d="M217.701 58.032c-.316-.182-.572-.036-.573.326a1.252 1.252 0 00.569.984c.314.182.57.037.571-.325a1.253 1.253 0 00-.567-.985z" fill="#5c82ff"/></g></g><g data-name="Group 598"><g data-name="Group 596"><path data-name="Path 970" d="M225.607 66.737c-1.888-1.09-3.675-.812-4.414.905-.924 2.149.127 5.767 2.352 8.268l.516-1.2c-1.506-1.758-2.209-4.243-1.569-5.728.522-1.211 1.78-1.407 3.111-.639a5.463 5.463 0 01.977.733l.516-1.2a7.808 7.808 0 00-1.489-1.139z" fill="#dcdcdc"/></g><g data-name="Group 597"><path data-name="Path 971" d="M227.094 67.875l-.516 1.2c.081.075.163.155.243.238 1.713 1.766 2.55 4.476 1.87 6.058a3.126 3.126 0 01-.079.165l-.032.056a1.853 1.853 0 01-2.5.664 3.7 3.7 0 01-.5-.245l-.135-.081c-.082-.051-.145-.094-.206-.135l-.028-.019c-.135-.1-.27-.2-.405-.315l-.05-.043a4.77 4.77 0 01-.204-.186 5.794 5.794 0 01-.194-.191c-.1-.106-.2-.217-.3-.329l-.516 1.2c.1.11.2.221.3.326s.184.184.276.271l.079.074c.071.066.141.13.213.192l.071.063c.192.163.384.312.576.446.015.012.03.021.046.032.087.062.175.118.261.173l.031.019a5.73 5.73 0 00.906.462c1.606.637 3.043.234 3.686-1.261.964-2.243-.223-6.091-2.652-8.594a6.056 6.056 0 00-.241-.24z" fill="#a6a8ab"/></g></g></g><g data-name="Group 612"><g data-name="Group 603" style="isolation:isolate"><g data-name="Group 600"><path data-name="Path 972" d="M72.013 131.071l-8.439-4.9-.054-19.193 8.439 4.9z" fill="#33b4ff"/></g><g data-name="Group 601"><path data-name="Path 973" d="M71.958 111.879l-8.439-4.9 7.362-4.25 8.439 4.9z" fill="#5c82ff"/></g><g data-name="Group 602"><path data-name="Path 974" d="M79.321 107.628l.054 19.193-7.362 4.25-.054-19.193z" fill="#396caa"/></g></g><g data-name="Group 607" style="isolation:isolate"><g data-name="Group 604"><path data-name="Path 975" d="M58.071 139.121l-8.438-4.9-.1-35.136 8.439 4.9z" fill="#33b4ff"/></g><g data-name="Group 605"><path data-name="Path 976" d="M57.971 103.985l-8.439-4.9 7.362-4.25 8.438 4.9z" fill="#5c82ff"/></g><g data-name="Group 606"><path data-name="Path 977" d="M65.333 99.735l.1 35.136-7.362 4.25-.1-35.136z" fill="#396caa"/></g></g><g data-name="Group 611" style="isolation:isolate"><g data-name="Group 608"><path data-name="Path 978" d="M44.127 147.171l-8.438-4.9-.023-8.134 8.438 4.9z" fill="#33b4ff"/></g><g data-name="Group 609"><path data-name="Path 979" d="M44.103 139.037l-8.438-4.9 7.362-4.25 8.438 4.9z" fill="#5c82ff"/></g><g data-name="Group 610"><path data-name="Path 980" d="M51.465 134.787l.023 8.134-7.362 4.25-.023-8.134z" fill="#396caa"/></g></g></g><g data-name="Group 615"><path data-name="Path 981" d="M392.426 158.892l-1.052-44.943a.439.439 0 00-.228-.373l-62.82-34.332a.438.438 0 00-.648.395l1.052 44.942a.439.439 0 00.229.374l62.821 34.332a.437.437 0 00.646-.395z" fill="#206187"/><g data-name="Group 614"><g data-name="Group 613"><path data-name="Path 982" d="M377.578 125.303a6.9 6.9 0 01.851.585c4.558 3.63 4.937 15.72 4.957 16.356l-47.551-27.453c2.827 1.382 3.483.014 4.788-.737a.991.991 0 011.021.114c1.294.747 3.042 3.293 5.056 4.648.067.045.131.086.2.123a2.487 2.487 0 002.611-.183 2.726 2.726 0 012.885-.026 6.838 6.838 0 011.481 1.225 11 11 0 002.163 1.9c1.479.854 1.664-.661 3.274-1.762 1.149-.79 2.54-.6 4.14.319a23.138 23.138 0 014.768 4.074 5.158 5.158 0 001.146.938c1.387.8 2.566.263 3.831-.224a4.559 4.559 0 014.379.103z" fill="#fff"/></g></g></g><g data-name="Group 619"><g data-name="Group 618" style="isolation:isolate"><g data-name="Group 616"><path data-name="Path 983" d="M284.62 287.261l-48.607-28.245 43.2-24.944 48.606 28.247z" fill="#848484"/></g><path data-name="Path 984" d="M236.012 259.015l48.607 28.248 30.152-17.408-48.606-28.247z" fill="#464647"/><path data-name="Path 985" d="M236.012 259.014l48.607 28.247 12.987-7.5L249 251.514z" fill="#848484"/><path data-name="Path 986" d="M279.406 296.292a7.969 7.969 0 01.1-1.2c.009-.062.021-.126.032-.189a9.821 9.821 0 01.264-1.141c.01-.036.021-.071.033-.106a11.628 11.628 0 01.455-1.234l.011-.023a12.926 12.926 0 01.618-1.222l.018-.033a12.642 12.642 0 01.73-1.117l.072-.1a11.6 11.6 0 01.764-.919c.057-.063.115-.124.173-.185.212-.221.434-.421.659-.616.1-.089.2-.184.3-.267a8.085 8.085 0 01.983-.682l-48.606-28.246a8.084 8.084 0 00-.984.682c-.1.082-.2.177-.3.265-.155.134-.313.259-.463.406-.068.067-.131.141-.2.211s-.116.122-.173.185-.135.139-.2.213c-.146.167-.287.34-.425.518-.049.061-.093.127-.14.19l-.073.1c-.044.062-.092.122-.135.185q-.156.222-.3.452c-.093.145-.184.293-.271.442l-.02.038-.02.036c-.069.122-.139.244-.2.368-.078.147-.153.3-.226.445s-.127.272-.186.408l-.01.022-.012.023a11.855 11.855 0 00-.368.963c-.027.082-.05.165-.076.248l-.033.106c-.018.06-.038.119-.054.179q-.084.3-.147.6c-.026.121-.042.241-.063.362l-.032.189c-.01.063-.022.116-.03.174a7.688 7.688 0 00-.067 1.024 4.972 4.972 0 00.412 2.092 2.79 2.79 0 001.114 1.263l48.607 28.247a3.66 3.66 0 01-1.531-3.356z" fill="#464647"/><g data-name="Group 617"><path data-name="Path 987" d="M327.828 262.317l.034 12.022-43.2 24.944c-2.887 1.668-5.239.329-5.247-2.99a11.492 11.492 0 015.213-9.032z" fill="#382747"/></g></g></g><g data-name="Group 623"><g data-name="Group 620"><ellipse data-name="Ellipse 28" cx="23.66" cy="12.852" rx="23.66" ry="12.852" fill="#94a3c0" opacity=".32" style="mix-blend-mode:multiply;isolation:isolate" transform="translate(259.03 247.174)"/></g><g data-name="Group 622"><path data-name="Path 988" d="M304.018 253.746c-.166 3.034-2.228 5.536-4.594 7.258a25.64 25.64 0 01-10.236 4.073 34.65 34.65 0 01-11.446.207 27.23 27.23 0 01-10.6-3.6c-2.941-1.835-5.713-4.75-5.7-8.432a13.973 13.973 0 00.559 5.446c1.225 3.022 4.049 5.142 6.883 6.55a29.58 29.58 0 009.967 2.768 33.286 33.286 0 0010.518-.379c4.6-1 9.487-2.63 12.594-6.392a8.517 8.517 0 002.04-4.744c.071-1.038.03-2.088.034-3.128-.003.124-.01.248-.019.373z" fill="#396caa"/><g data-name="Group 621"><path data-name="Path 989" d="M1699.813-147.4c8.345 4.819 8.389 12.627.1 17.445s-21.772 4.818-30.117 0-8.389-12.627-.1-17.445 21.771-4.813 30.117 0z" transform="translate(-1402.067 391.984)" fill="url(#l)"/></g><path data-name="Path 990" d="M295.708 245.773c7.212 4.165 7.251 10.912.085 15.077s-18.816 4.164-26.028 0-7.25-10.912-.085-15.077 18.816-4.164 26.028 0z" fill="#396caa"/><path data-name="Path 991" d="M1697.873-144.84c-7.212-4.165-18.862-4.165-26.028 0-3.291 1.913-5.059 4.371-5.312 6.873.261 2.522 2.059 5 5.4 6.932 7.212 4.164 18.862 4.164 26.028 0 3.291-1.914 5.059-4.372 5.313-6.874-.264-2.523-2.062-5.004-5.401-6.931z" transform="translate(-1402.166 391.885)" fill="url(#l)"/></g></g></svg>