<svg xmlns="http://www.w3.org/2000/svg" width="120" height="107.355"><g data-name="Group 1921"><g data-name="Group 1914"><g data-name="Group 1913"><path data-name="Path 3195" d="M95.644 82.891l24.357 15.4V66.843z" fill="#214c85"/></g></g><g data-name="Group 1916"><g data-name="Group 1915"><path data-name="Path 3196" d="M47.753 66.843v31.446l24.357-15.4z" fill="#214c85"/></g></g><g data-name="Group 1918"><g data-name="Group 1917"><path data-name="Path 3197" d="M115.485 57.686H52.269a4.459 4.459 0 00-4.38 3.843l35.988 23.71 35.989-23.71a4.46 4.46 0 00-4.381-3.843z" fill="#214c85"/></g></g><g data-name="Group 1920"><g data-name="Group 1919"><path data-name="Path 3198" d="M91.507 85.618l-6.389 4.208a2.257 2.257 0 01-1.242.37 2.256 2.256 0 01-1.241-.37l-6.389-4.213-28.349 17.931a4.453 4.453 0 004.371 3.811h63.216a4.452 4.452 0 004.371-3.811z" fill="#214c85"/></g></g></g><path data-name="Union 23" d="M55.549 34.671l-.132-.228-18.135 4.5a9.075 9.075 0 01-16.89 5.448 9.249 9.249 0 01-.55-1.119l-3.148.778a2.017 2.017 0 01-3.507 1.995L6.632 34.691a2.017 2.017 0 013.479-2.042L37.796 3.923l-.133-.23a2.019 2.019 0 013.494-2.018l17.885 30.979a2.019 2.019 0 01-3.493 2.017zm-31.664 7.704a5.037 5.037 0 009.402-2.439l-9.455 2.347.053.092z" fill="#214c85"/></svg>