<svg xmlns="http://www.w3.org/2000/svg" width="318.829" height="300" viewBox="0 0 318.829 300">
  <g id="ready-2-use" transform="translate(-1048.285 204.315)">
    <g id="Group_1738" data-name="Group 1738" transform="translate(1098.556 -188.012)">
      <g id="Group_1737" data-name="Group 1737">
        <g id="Group_1735" data-name="Group 1735" transform="translate(93.544)">
          <path id="Path_2871" data-name="Path 2871" d="M1330.857-113.754l-127.183-73.368a4.873,4.873,0,0,0-4.354-.585l.005-.015-.209.1c-.017.008-.034.015-.051.024l-4.14,1.948,4.495,2.237c0,.085-.009.163-.009.249l.038,104.461c0,5.228,3.238,11.331,7.227,13.632L1330.468,6.338l.7,5.826,4.521-2.157c1.489-.875,2.432-2.852,2.431-5.669l-.039-104.461C1338.082-105.35,1334.847-111.453,1330.857-113.754Z" transform="translate(-1192.267 187.993)" fill="#545cb3"/>
          <path id="Path_2872" data-name="Path 2872" d="M1330.857-113.754l-127.183-73.368a4.873,4.873,0,0,0-4.354-.585l.005-.015-.209.1c-.017.008-.034.015-.051.024l-4.14,1.948,4.495,2.237c0,.085-.009.163-.009.249l.025,68.847,57.882,45.732,78.589-39.551A14.255,14.255,0,0,0,1330.857-113.754Z" transform="translate(-1192.267 187.993)" fill="#374999"/>
          <path id="Path_2873" data-name="Path 2873" d="M1333.125-112.024l-12.464,5.243,9.41,7.25,7.858-3.345A18.289,18.289,0,0,0,1333.125-112.024Z" transform="translate(-1192.41 187.907)" fill="#2c5289"/>
          <path id="Path_2874" data-name="Path 2874" d="M1326.713,11.613,1199.53-61.756c-3.99-2.3-7.225-8.4-7.227-13.632l-.039-104.46c0-5.228,3.23-7.6,7.22-5.3l127.183,73.368c3.99,2.3,7.225,8.4,7.227,13.632l.039,104.461C1333.935,11.541,1330.7,13.913,1326.713,11.613Z" transform="translate(-1192.264 187.991)" fill="#8dd6f2"/>
          <path id="Path_2875" data-name="Path 2875" d="M1322.488,3.852,1203.7-64.638c-3.65-2.106-6.61-7.691-6.612-12.475l-.036-95.59c0-4.785,2.957-6.955,6.607-4.849l118.784,68.489c3.65,2.106,6.611,7.69,6.612,12.475L1329.094-1C1329.1,3.786,1326.138,5.957,1322.488,3.852Z" transform="translate(-1192.27 187.982)" fill="#fff"/>
          <path id="Path_2876" data-name="Path 2876" d="M1322.488,3.852,1203.7-64.638c-3.65-2.106-6.61-7.691-6.612-12.475l-.036-95.59c0-4.785,2.957-6.955,6.607-4.849l118.784,68.489c3.65,2.106,6.611,7.69,6.612,12.475L1329.094-1C1329.1,3.786,1326.138,5.957,1322.488,3.852Z" transform="translate(-1192.27 187.982)" fill="#fff"/>
        </g>
        <path id="Path_2877" data-name="Path 2877" d="M1328.506,15.009l-17.1-2.258L1201-50.991c-3.54-2.044-9.722-1.787-13.809.572L1108.96-5.268l-10.342-1.365V-.766l.011,0A4.027,4.027,0,0,0,1101,2.86L1226.122,75.1c3.54,2.044,9.722,1.787,13.809-.572l85.2-49.172c2.3-1.327,3.445-3.038,3.378-4.644h0Z" transform="translate(-1098.614 187.839)" fill="#545cb3"/>
        <path id="Path_2878" data-name="Path 2878" d="M1245.553-25.242l-7.843-4.529h-86.236L1108.96-5.242l-10.342-1.365V-.74l.011,0A4.027,4.027,0,0,0,1101,2.886l125.119,72.238a12.948,12.948,0,0,0,7.127,1.335Z" transform="translate(-1098.614 187.813)" fill="#374999"/>
        <path id="Path_2879" data-name="Path 2879" d="M1103.208-5.976l-4.59-.605V-.714l.011,0A4.027,4.027,0,0,0,1101,2.912l2.2,1.274Z" transform="translate(-1098.614 187.787)" fill="#39b3e3"/>
        <path id="Path_2880" data-name="Path 2880" d="M1227.529,75.813a16.022,16.022,0,0,0,11.733-.728V62h-11.733Z" transform="translate(-1098.76 187.709)" fill="#2c5289"/>
        <path id="Path_2881" data-name="Path 2881" d="M1226.122,69.226,1101-3.011c-3.54-2.044-3.1-5.614.991-7.973l85.2-49.172c4.087-2.359,10.269-2.616,13.809-.572l125.118,72.238c3.54,2.044,3.1,5.613-.991,7.973l-85.2,49.171C1235.844,71.013,1229.662,71.269,1226.122,69.226Z" transform="translate(-1098.614 187.85)" fill="#8dd6f2"/>
        <path id="Path_2882" data-name="Path 2882" d="M1325.128,17.4l-85.2,49.172c-4.087,2.359-10.269,2.616-13.809.572L1101-5.093a4.653,4.653,0,0,1-2.2-2.407c-.553,1.675.152,3.368,2.2,4.551l125.119,72.238c3.54,2.044,9.722,1.787,13.809-.572l85.2-49.172c2.747-1.586,3.84-3.718,3.192-5.567A6.648,6.648,0,0,1,1325.128,17.4Z" transform="translate(-1098.614 187.788)" fill="#fff"/>
        <g id="Group_1736" data-name="Group 1736" transform="translate(49.637 130.191)">
          <path id="Path_2883" data-name="Path 2883" d="M1154.275-26.9l-5.661-3.269c-.454-.262-.4-.72.127-1.024l6.682-3.858a1.971,1.971,0,0,1,1.773-.073l5.661,3.268c.454.262.4.72-.128,1.024l-6.681,3.858A1.976,1.976,0,0,1,1154.275-26.9Z" transform="translate(-1148.307 57.629)" fill="#545cb3"/>
          <path id="Path_2884" data-name="Path 2884" d="M1163.028-21.843l-5.662-3.268c-.454-.263-.4-.721.128-1.024l6.682-3.859a1.972,1.972,0,0,1,1.774-.073l5.661,3.268c.455.263.4.721-.127,1.024l-6.682,3.858A1.967,1.967,0,0,1,1163.028-21.843Z" transform="translate(-1148.317 57.623)" fill="#545cb3"/>
          <path id="Path_2885" data-name="Path 2885" d="M1171.779-16.79l-5.66-3.268c-.455-.263-.4-.721.127-1.024l6.683-3.858a1.967,1.967,0,0,1,1.773-.074l5.661,3.268c.455.263.4.721-.128,1.024l-6.681,3.859A1.973,1.973,0,0,1,1171.779-16.79Z" transform="translate(-1148.327 57.618)" fill="#545cb3"/>
          <path id="Path_2886" data-name="Path 2886" d="M1183.884-20.962l-5.661-3.268c-.454-.263-.4-.721.127-1.024l5.609-3.238a1.968,1.968,0,0,1,1.773-.074l5.662,3.268c.455.263.4.721-.128,1.024l-5.609,3.238A1.97,1.97,0,0,1,1183.884-20.962Z" transform="translate(-1148.341 57.622)" fill="#545cb3"/>
          <path id="Path_2887" data-name="Path 2887" d="M1192.637-15.909l-5.662-3.268c-.455-.263-.4-.721.128-1.024l5.609-3.238a1.97,1.97,0,0,1,1.774-.074l5.661,3.268c.454.263.4.721-.127,1.024l-5.609,3.239A1.97,1.97,0,0,1,1192.637-15.909Z" transform="translate(-1148.351 57.616)" fill="#545cb3"/>
          <path id="Path_2888" data-name="Path 2888" d="M1201.389-10.856l-5.661-3.268c-.454-.262-.4-.72.127-1.024l5.609-3.238a1.974,1.974,0,0,1,1.773-.074l5.661,3.269c.455.262.4.72-.128,1.024l-5.609,3.238A1.973,1.973,0,0,1,1201.389-10.856Z" transform="translate(-1148.36 57.61)" fill="#545cb3"/>
          <path id="Path_2889" data-name="Path 2889" d="M1210.143-5.8l-5.662-3.269c-.454-.262-.4-.72.128-1.024l5.609-3.238a1.972,1.972,0,0,1,1.774-.073l5.661,3.268c.454.263.4.72-.127,1.024l-5.61,3.238A1.974,1.974,0,0,1,1210.143-5.8Z" transform="translate(-1148.371 57.604)" fill="#545cb3"/>
          <path id="Path_2890" data-name="Path 2890" d="M1218.894-.749l-5.661-3.268c-.456-.263-.4-.721.127-1.024l5.61-3.239a1.97,1.97,0,0,1,1.773-.073l5.661,3.268c.455.263.4.721-.128,1.024l-5.61,3.238A1.967,1.967,0,0,1,1218.894-.749Z" transform="translate(-1148.38 57.599)" fill="#545cb3"/>
          <path id="Path_2891" data-name="Path 2891" d="M1227.648,4.3l-5.662-3.268c-.454-.263-.4-.721.127-1.024l5.61-3.238A1.968,1.968,0,0,1,1229.5-3.3l5.661,3.268c.454.263.4.721-.127,1.024l-5.61,3.239A1.97,1.97,0,0,1,1227.648,4.3Z" transform="translate(-1148.391 57.593)" fill="#545cb3"/>
          <path id="Path_2892" data-name="Path 2892" d="M1236.4,9.357l-5.661-3.268c-.454-.263-.4-.72.128-1.024l5.61-3.238a1.973,1.973,0,0,1,1.773-.074l5.661,3.269c.455.262.4.72-.127,1.024l-5.609,3.238A1.971,1.971,0,0,1,1236.4,9.357Z" transform="translate(-1148.401 57.587)" fill="#545cb3"/>
          <path id="Path_2893" data-name="Path 2893" d="M1245.151,14.411l-5.661-3.269c-.455-.262-.4-.72.127-1.024l5.61-3.238A1.97,1.97,0,0,1,1247,6.807l5.662,3.268c.454.263.4.72-.128,1.024l-5.609,3.238A1.975,1.975,0,0,1,1245.151,14.411Z" transform="translate(-1148.41 57.581)" fill="#545cb3"/>
          <path id="Path_2894" data-name="Path 2894" d="M1253.9,19.464l-5.661-3.268c-.455-.263-.4-.721.128-1.024l5.609-3.239a1.973,1.973,0,0,1,1.774-.073l5.661,3.268c.454.263.4.721-.127,1.024l-5.609,3.238A1.968,1.968,0,0,1,1253.9,19.464Z" transform="translate(-1148.42 57.576)" fill="#545cb3"/>
          <path id="Path_2895" data-name="Path 2895" d="M1262.656,24.517,1257,21.249c-.454-.263-.4-.721.127-1.024l5.61-3.238a1.968,1.968,0,0,1,1.773-.074l5.661,3.268c.454.263.4.721-.128,1.024l-5.609,3.238A1.97,1.97,0,0,1,1262.656,24.517Z" transform="translate(-1148.43 57.57)" fill="#545cb3"/>
          <path id="Path_2896" data-name="Path 2896" d="M1196.78-23.354l-5.661-3.269c-.454-.262-.4-.72.127-1.024l5.61-3.238a1.97,1.97,0,0,1,1.773-.073l5.662,3.268c.454.263.4.72-.128,1.024l-5.609,3.238A1.976,1.976,0,0,1,1196.78-23.354Z" transform="translate(-1148.355 57.624)" fill="#374999"/>
          <path id="Path_2897" data-name="Path 2897" d="M1187.9-28.483l-5.66-3.268c-.455-.263-.4-.721.127-1.024l5.61-3.238a1.967,1.967,0,0,1,1.773-.074l5.661,3.268c.454.263.4.721-.128,1.024l-5.608,3.238A1.971,1.971,0,0,1,1187.9-28.483Z" transform="translate(-1148.345 57.63)" fill="#374999"/>
          <path id="Path_2898" data-name="Path 2898" d="M1178.993-33.624l-12.193-7.04c-.454-.262-.4-.72.128-1.024l5.609-3.238A1.973,1.973,0,0,1,1174.31-45L1186.5-37.96c.454.263.4.721-.127,1.024l-5.61,3.238A1.967,1.967,0,0,1,1178.993-33.624Z" transform="translate(-1148.328 57.64)" fill="#545cb3"/>
          <path id="Path_2899" data-name="Path 2899" d="M1185.215-39.87l-9.895-5.713c-.455-.262-.4-.72.128-1.024l5.609-3.238a1.972,1.972,0,0,1,1.774-.073l9.895,5.713c.454.263.4.72-.128,1.024l-5.608,3.238A1.976,1.976,0,0,1,1185.215-39.87Z" transform="translate(-1148.337 57.646)" fill="#545cb3"/>
          <path id="Path_2900" data-name="Path 2900" d="M1205.534-18.3l-5.662-3.268c-.454-.263-.4-.721.128-1.024l5.609-3.239a1.972,1.972,0,0,1,1.774-.073l5.661,3.268c.454.263.4.721-.127,1.024l-5.61,3.238A1.967,1.967,0,0,1,1205.534-18.3Z" transform="translate(-1148.365 57.619)" fill="#374999"/>
          <path id="Path_2901" data-name="Path 2901" d="M1214.285-13.248l-5.661-3.268c-.454-.263-.4-.721.127-1.024l5.61-3.238a1.967,1.967,0,0,1,1.773-.074l5.662,3.268c.454.263.4.721-.128,1.024l-5.609,3.238A1.969,1.969,0,0,1,1214.285-13.248Z" transform="translate(-1148.375 57.613)" fill="#545cb3"/>
          <path id="Path_2902" data-name="Path 2902" d="M1223.038-8.195l-5.661-3.268c-.454-.263-.4-.721.128-1.024l5.609-3.238a1.976,1.976,0,0,1,1.774-.074l5.661,3.268c.454.263.4.721-.127,1.024l-5.61,3.239A1.97,1.97,0,0,1,1223.038-8.195Z" transform="translate(-1148.385 57.607)" fill="#545cb3"/>
          <path id="Path_2903" data-name="Path 2903" d="M1231.79-3.142,1226.13-6.41c-.454-.262-.4-.72.127-1.024l5.61-3.238a1.97,1.97,0,0,1,1.773-.073l5.662,3.268c.454.262.4.72-.128,1.024l-5.609,3.238A1.972,1.972,0,0,1,1231.79-3.142Z" transform="translate(-1148.395 57.601)" fill="#545cb3"/>
          <path id="Path_2904" data-name="Path 2904" d="M1240.543,1.912l-5.662-3.268c-.454-.263-.4-.721.128-1.024l5.609-3.239a1.972,1.972,0,0,1,1.774-.073l5.661,3.268c.454.263.4.721-.127,1.024l-5.61,3.238A1.973,1.973,0,0,1,1240.543,1.912Z" transform="translate(-1148.405 57.596)" fill="#545cb3"/>
          <path id="Path_2905" data-name="Path 2905" d="M1249.3,6.965,1243.635,3.7c-.454-.263-.4-.721.127-1.024l5.61-3.238a1.967,1.967,0,0,1,1.773-.074l5.662,3.268c.454.263.4.721-.128,1.024l-5.609,3.238A1.969,1.969,0,0,1,1249.3,6.965Z" transform="translate(-1148.415 57.59)" fill="#545cb3"/>
          <path id="Path_2906" data-name="Path 2906" d="M1258.048,12.018l-5.662-3.268c-.455-.263-.4-.721.128-1.024l5.609-3.238a1.97,1.97,0,0,1,1.774-.074l5.661,3.268c.454.263.4.721-.127,1.024l-5.61,3.239A1.97,1.97,0,0,1,1258.048,12.018Z" transform="translate(-1148.425 57.584)" fill="#545cb3"/>
          <path id="Path_2907" data-name="Path 2907" d="M1266.8,17.071,1261.14,13.8c-.456-.262-.4-.72.127-1.024l5.61-3.238a1.974,1.974,0,0,1,1.773-.074l5.661,3.269c.455.262.4.72-.128,1.024L1268.573,17A1.97,1.97,0,0,1,1266.8,17.071Z" transform="translate(-1148.435 57.578)" fill="#545cb3"/>
          <path id="Path_2908" data-name="Path 2908" d="M1275.553,22.125l-5.662-3.269c-.454-.262-.4-.72.127-1.024l5.61-3.238a1.97,1.97,0,0,1,1.773-.073l5.661,3.268c.455.263.4.72-.127,1.024l-5.61,3.238A1.974,1.974,0,0,1,1275.553,22.125Z" transform="translate(-1148.445 57.573)" fill="#545cb3"/>
          <path id="Path_2909" data-name="Path 2909" d="M1291.1,31.1l-12.352-7.131c-.455-.263-.4-.721.128-1.024l5.609-3.239a1.972,1.972,0,0,1,1.774-.073l12.352,7.131c.454.263.4.721-.128,1.024l-5.609,3.239A1.972,1.972,0,0,1,1291.1,31.1Z" transform="translate(-1148.455 57.567)" fill="#545cb3"/>
          <path id="Path_2910" data-name="Path 2910" d="M1308.147,21.267l-10.425-6.019c-.455-.263-.4-.721.127-1.024l5.609-3.238a1.97,1.97,0,0,1,1.773-.074l10.426,6.019c.455.263.4.721-.128,1.024l-5.609,3.239A1.972,1.972,0,0,1,1308.147,21.267Z" transform="translate(-1148.476 57.577)" fill="#545cb3"/>
          <path id="Path_2911" data-name="Path 2911" d="M1220.86-19.29l-5.66-3.268c-.455-.263-.4-.721.127-1.024l5.61-3.238a1.967,1.967,0,0,1,1.773-.074l5.662,3.268c.454.263.4.721-.128,1.024l-5.609,3.238A1.97,1.97,0,0,1,1220.86-19.29Z" transform="translate(-1148.383 57.62)" fill="#545cb3"/>
          <path id="Path_2912" data-name="Path 2912" d="M1211.89-24.469l-5.66-3.268c-.455-.263-.4-.721.127-1.024l5.61-3.238a1.967,1.967,0,0,1,1.773-.074L1219.4-28.8c.454.263.4.721-.128,1.024l-5.609,3.239A1.972,1.972,0,0,1,1211.89-24.469Z" transform="translate(-1148.373 57.626)" fill="#545cb3"/>
          <path id="Path_2913" data-name="Path 2913" d="M1202.92-29.648l-5.661-3.268c-.454-.263-.4-.721.128-1.024l5.61-3.238a1.97,1.97,0,0,1,1.773-.074l5.661,3.268c.456.263.4.721-.127,1.024l-5.609,3.239A1.971,1.971,0,0,1,1202.92-29.648Z" transform="translate(-1148.362 57.632)" fill="#374999"/>
          <path id="Path_2914" data-name="Path 2914" d="M1193.95-34.827l-5.661-3.268c-.454-.263-.4-.721.128-1.024l5.609-3.238a1.976,1.976,0,0,1,1.774-.074l5.661,3.268c.454.263.4.721-.127,1.025l-5.61,3.238A1.97,1.97,0,0,1,1193.95-34.827Z" transform="translate(-1148.352 57.637)" fill="#545cb3"/>
          <path id="Path_2915" data-name="Path 2915" d="M1229.613-14.237l-5.661-3.268c-.454-.263-.4-.721.128-1.024l5.609-3.238a1.976,1.976,0,0,1,1.774-.074l5.661,3.269c.454.262.4.72-.127,1.024l-5.61,3.238A1.971,1.971,0,0,1,1229.613-14.237Z" transform="translate(-1148.393 57.614)" fill="#545cb3"/>
          <path id="Path_2916" data-name="Path 2916" d="M1238.365-9.183l-5.661-3.269c-.455-.262-.4-.72.127-1.024l5.61-3.238a1.97,1.97,0,0,1,1.773-.073l5.661,3.268c.454.262.4.72-.128,1.024l-5.609,3.238A1.976,1.976,0,0,1,1238.365-9.183Z" transform="translate(-1148.403 57.608)" fill="#545cb3"/>
          <path id="Path_2917" data-name="Path 2917" d="M1247.118-4.13,1241.457-7.4c-.455-.263-.4-.721.128-1.024l5.609-3.239a1.973,1.973,0,0,1,1.774-.073l5.661,3.268c.455.263.4.721-.127,1.024L1248.891-4.2A1.968,1.968,0,0,1,1247.118-4.13Z" transform="translate(-1148.413 57.602)" fill="#545cb3"/>
          <path id="Path_2918" data-name="Path 2918" d="M1255.87.923l-5.661-3.268c-.454-.263-.4-.721.127-1.024l5.61-3.238a1.967,1.967,0,0,1,1.773-.074l5.662,3.268c.454.263.4.721-.128,1.024L1257.644.849A1.97,1.97,0,0,1,1255.87.923Z" transform="translate(-1148.422 57.597)" fill="#545cb3"/>
          <path id="Path_2919" data-name="Path 2919" d="M1264.623,5.976l-5.661-3.268c-.454-.263-.4-.721.128-1.024l5.609-3.238a1.973,1.973,0,0,1,1.774-.074l5.66,3.268c.455.263.4.721-.127,1.024L1266.4,5.9A1.971,1.971,0,0,1,1264.623,5.976Z" transform="translate(-1148.432 57.591)" fill="#545cb3"/>
          <path id="Path_2920" data-name="Path 2920" d="M1273.375,11.029l-5.661-3.268c-.455-.262-.4-.72.127-1.024l5.61-3.238a1.974,1.974,0,0,1,1.773-.074l5.662,3.269c.454.262.4.72-.128,1.024l-5.609,3.238A1.97,1.97,0,0,1,1273.375,11.029Z" transform="translate(-1148.443 57.585)" fill="#545cb3"/>
          <path id="Path_2921" data-name="Path 2921" d="M1282.128,16.083l-5.661-3.268c-.454-.263-.4-.721.127-1.024l5.609-3.239a1.971,1.971,0,0,1,1.773-.073l5.661,3.268c.454.263.4.721-.127,1.024l-5.61,3.238A1.974,1.974,0,0,1,1282.128,16.083Z" transform="translate(-1148.452 57.579)" fill="#545cb3"/>
          <path id="Path_2922" data-name="Path 2922" d="M1290.881,21.136l-5.661-3.268c-.454-.263-.4-.721.128-1.024l5.609-3.238a1.968,1.968,0,0,1,1.773-.074l5.661,3.268c.455.263.4.721-.127,1.024l-5.609,3.238A1.967,1.967,0,0,1,1290.881,21.136Z" transform="translate(-1148.463 57.574)" fill="#545cb3"/>
          <path id="Path_2923" data-name="Path 2923" d="M1299.632,26.189l-5.661-3.268c-.454-.263-.4-.721.127-1.024l5.609-3.238a1.968,1.968,0,0,1,1.773-.074l5.662,3.268c.454.263.4.721-.128,1.024l-5.609,3.239A1.972,1.972,0,0,1,1299.632,26.189Z" transform="translate(-1148.472 57.568)" fill="#545cb3"/>
          <path id="Path_2924" data-name="Path 2924" d="M1216.252-31.789l-5.662-3.268c-.454-.263-.4-.721.128-1.024l5.609-3.238a1.973,1.973,0,0,1,1.774-.074l5.661,3.268c.454.263.4.721-.127,1.024l-5.609,3.239A1.971,1.971,0,0,1,1216.252-31.789Z" transform="translate(-1148.377 57.634)" fill="#545cb3"/>
          <path id="Path_2925" data-name="Path 2925" d="M1207.544-36.817l-5.662-3.268c-.454-.263-.4-.721.128-1.024l5.609-3.238a1.97,1.97,0,0,1,1.774-.074l5.661,3.268c.454.263.4.721-.127,1.024l-5.61,3.239A1.97,1.97,0,0,1,1207.544-36.817Z" transform="translate(-1148.368 57.64)" fill="#545cb3"/>
          <path id="Path_2926" data-name="Path 2926" d="M1198.834-41.845l-5.661-3.268c-.454-.263-.4-.721.128-1.024l5.609-3.238a1.97,1.97,0,0,1,1.774-.074l5.661,3.268c.454.263.4.721-.127,1.024l-5.61,3.238A1.967,1.967,0,0,1,1198.834-41.845Z" transform="translate(-1148.358 57.645)" fill="#545cb3"/>
          <path id="Path_2927" data-name="Path 2927" d="M1190.125-46.873l-5.662-3.268c-.454-.263-.4-.721.128-1.024L1190.2-54.4a1.969,1.969,0,0,1,1.774-.074l5.661,3.268c.455.263.4.721-.127,1.024l-5.609,3.238A1.967,1.967,0,0,1,1190.125-46.873Z" transform="translate(-1148.348 57.651)" fill="#545cb3"/>
          <path id="Path_2928" data-name="Path 2928" d="M1199.08-52.04l-5.661-3.269c-.454-.262-.4-.72.127-1.024l1.855-1.07a1.967,1.967,0,0,1,1.773-.074l5.661,3.268c.454.263.4.721-.128,1.024l-1.854,1.071A1.976,1.976,0,0,1,1199.08-52.04Z" transform="translate(-1148.358 57.655)" fill="#545cb3"/>
          <path id="Path_2929" data-name="Path 2929" d="M1210.445-45.479l-5.66-3.268c-.455-.263-.4-.721.127-1.024l1.855-1.071a1.97,1.97,0,0,1,1.773-.073l5.661,3.268c.455.263.4.72-.127,1.024l-1.854,1.071A1.973,1.973,0,0,1,1210.445-45.479Z" transform="translate(-1148.371 57.647)" fill="#545cb3"/>
          <path id="Path_2930" data-name="Path 2930" d="M1219.118-40.472l-5.661-3.268c-.455-.263-.4-.72.128-1.024l1.854-1.071a1.972,1.972,0,0,1,1.774-.073l5.661,3.268c.454.263.4.721-.127,1.024l-1.855,1.071A1.971,1.971,0,0,1,1219.118-40.472Z" transform="translate(-1148.381 57.641)" fill="#545cb3"/>
          <path id="Path_2931" data-name="Path 2931" d="M1227.792-35.465l-5.661-3.268c-.455-.262-.4-.72.128-1.024l1.854-1.07a1.968,1.968,0,0,1,1.773-.074l5.661,3.268c.454.263.4.721-.128,1.024l-1.854,1.071A1.971,1.971,0,0,1,1227.792-35.465Z" transform="translate(-1148.391 57.636)" fill="#545cb3"/>
          <path id="Path_2932" data-name="Path 2932" d="M1236.464-30.457l-5.661-3.269c-.454-.262-.4-.72.127-1.024l1.855-1.07a1.968,1.968,0,0,1,1.773-.074l5.661,3.268c.455.263.4.721-.128,1.024l-1.854,1.071A1.976,1.976,0,0,1,1236.464-30.457Z" transform="translate(-1148.401 57.63)" fill="#545cb3"/>
          <path id="Path_2933" data-name="Path 2933" d="M1284.881-2.5l-5.66-3.268c-.455-.263-.4-.721.127-1.024l1.855-1.071a1.968,1.968,0,0,1,1.773-.074l5.661,3.268c.456.263.4.721-.127,1.024l-1.854,1.071A1.973,1.973,0,0,1,1284.881-2.5Z" transform="translate(-1148.456 57.598)" fill="#545cb3"/>
          <path id="Path_2934" data-name="Path 2934" d="M1293.554,2.5l-5.661-3.268c-.455-.263-.4-.721.128-1.024l1.854-1.071a1.974,1.974,0,0,1,1.773-.074l5.662,3.268c.454.263.4.721-.127,1.024l-1.855,1.071A1.968,1.968,0,0,1,1293.554,2.5Z" transform="translate(-1148.465 57.592)" fill="#545cb3"/>
          <path id="Path_2935" data-name="Path 2935" d="M1302.226,7.511l-5.661-3.268c-.455-.263-.4-.721.127-1.024l1.855-1.071a1.973,1.973,0,0,1,1.773-.074l5.661,3.269c.455.262.4.72-.128,1.024L1304,7.437A1.969,1.969,0,0,1,1302.226,7.511Z" transform="translate(-1148.475 57.587)" fill="#545cb3"/>
          <path id="Path_2936" data-name="Path 2936" d="M1310.9,12.518l-5.661-3.268c-.456-.263-.4-.721.127-1.024l1.854-1.071a1.972,1.972,0,0,1,1.774-.073l5.661,3.268c.454.262.4.72-.127,1.024l-1.855,1.071A1.97,1.97,0,0,1,1310.9,12.518Z" transform="translate(-1148.485 57.581)" fill="#545cb3"/>
          <path id="Path_2937" data-name="Path 2937" d="M1225-26.736,1219.344-30c-.456-.262-.4-.72.127-1.024l5.61-3.238a1.974,1.974,0,0,1,1.773-.074l5.661,3.269c.454.262.4.72-.128,1.024l-5.61,3.238A1.971,1.971,0,0,1,1225-26.736Z" transform="translate(-1148.387 57.628)" fill="#545cb3"/>
          <path id="Path_2938" data-name="Path 2938" d="M1233.757-21.682,1228.1-24.95c-.454-.263-.4-.721.127-1.024l5.61-3.239a1.97,1.97,0,0,1,1.773-.073l5.662,3.268c.454.263.4.721-.127,1.024l-5.61,3.238A1.974,1.974,0,0,1,1233.757-21.682Z" transform="translate(-1148.397 57.622)" fill="#545cb3"/>
          <path id="Path_2939" data-name="Path 2939" d="M1242.509-16.629l-5.662-3.268c-.454-.263-.4-.721.128-1.024l5.61-3.238a1.967,1.967,0,0,1,1.773-.074l5.661,3.268c.455.263.4.721-.127,1.024l-5.61,3.238A1.967,1.967,0,0,1,1242.509-16.629Z" transform="translate(-1148.407 57.617)" fill="#545cb3"/>
          <path id="Path_2940" data-name="Path 2940" d="M1251.261-11.576l-5.66-3.268c-.455-.263-.4-.721.127-1.024l5.609-3.238a1.968,1.968,0,0,1,1.773-.074l5.661,3.268c.454.263.4.721-.128,1.024l-5.609,3.239A1.973,1.973,0,0,1,1251.261-11.576Z" transform="translate(-1148.417 57.611)" fill="#545cb3"/>
          <path id="Path_2941" data-name="Path 2941" d="M1260.014-6.523l-5.662-3.268c-.455-.263-.4-.72.128-1.024l5.609-3.238a1.976,1.976,0,0,1,1.774-.074l5.661,3.269c.455.262.4.72-.127,1.024l-5.61,3.238A1.97,1.97,0,0,1,1260.014-6.523Z" transform="translate(-1148.427 57.605)" fill="#545cb3"/>
          <path id="Path_2942" data-name="Path 2942" d="M1268.766-1.469l-5.66-3.269c-.454-.262-.4-.72.127-1.024L1268.842-9a1.97,1.97,0,0,1,1.773-.073l5.662,3.268c.454.263.4.72-.128,1.024l-5.609,3.238A1.976,1.976,0,0,1,1268.766-1.469Z" transform="translate(-1148.438 57.599)" fill="#545cb3"/>
          <path id="Path_2943" data-name="Path 2943" d="M1277.52,3.584,1271.858.316c-.454-.263-.4-.721.128-1.024l5.609-3.239a1.973,1.973,0,0,1,1.774-.073l5.66,3.268c.454.263.4.721-.127,1.024l-5.61,3.238A1.968,1.968,0,0,1,1277.52,3.584Z" transform="translate(-1148.447 57.594)" fill="#545cb3"/>
          <path id="Path_2944" data-name="Path 2944" d="M1286.271,8.637l-5.661-3.268c-.454-.263-.4-.721.127-1.024l5.609-3.238a1.968,1.968,0,0,1,1.773-.074l5.661,3.268c.455.263.4.721-.128,1.024l-5.609,3.238A1.97,1.97,0,0,1,1286.271,8.637Z" transform="translate(-1148.457 57.588)" fill="#545cb3"/>
          <path id="Path_2945" data-name="Path 2945" d="M1295.024,13.69l-5.662-3.268c-.454-.263-.4-.721.128-1.024L1295.1,6.16a1.976,1.976,0,0,1,1.774-.074l5.661,3.269c.455.262.4.72-.127,1.024l-5.61,3.238A1.97,1.97,0,0,1,1295.024,13.69Z" transform="translate(-1148.467 57.582)" fill="#545cb3"/>
          <path id="Path_2946" data-name="Path 2946" d="M1174.953-26.119l-16.673-9.626c-.454-.262-.4-.72.128-1.024l5.609-3.238a1.973,1.973,0,0,1,1.774-.073l16.672,9.626c.455.262.4.72-.127,1.024l-5.61,3.238A1.97,1.97,0,0,1,1174.953-26.119Z" transform="translate(-1148.318 57.635)" fill="#545cb3"/>
          <path id="Path_2947" data-name="Path 2947" d="M1282.479,35.962l-16.673-9.626c-.455-.263-.4-.721.128-1.024l5.609-3.239a1.973,1.973,0,0,1,1.774-.073l16.672,9.626c.455.262.4.72-.127,1.024l-5.609,3.238A1.974,1.974,0,0,1,1282.479,35.962Z" transform="translate(-1148.44 57.564)" fill="#545cb3"/>
          <path id="Path_2948" data-name="Path 2948" d="M1247.489,26.921l-5.662-3.268c-.454-.263-.4-.721.128-1.024l6.681-3.859a1.972,1.972,0,0,1,1.774-.073l5.661,3.268c.454.263.4.721-.127,1.024l-6.682,3.858A1.967,1.967,0,0,1,1247.489,26.921Z" transform="translate(-1148.413 57.568)" fill="#545cb3"/>
          <path id="Path_2949" data-name="Path 2949" d="M1183.925-9.778,1174.871-15c-.454-.263-.4-.72.128-1.024l6.681-3.858a1.972,1.972,0,0,1,1.774-.074l9.054,5.227c.454.263.4.721-.128,1.024L1185.7-9.851A1.97,1.97,0,0,1,1183.925-9.778Z" transform="translate(-1148.337 57.612)" fill="#545cb3"/>
          <path id="Path_2950" data-name="Path 2950" d="M1239.052,22.05,1230,16.823c-.455-.263-.4-.721.128-1.024l6.683-3.858a1.967,1.967,0,0,1,1.773-.074l9.054,5.227c.454.263.4.721-.127,1.024l-6.682,3.859A1.97,1.97,0,0,1,1239.052,22.05Z" transform="translate(-1148.399 57.576)" fill="#545cb3"/>
          <path id="Path_2951" data-name="Path 2951" d="M1196.552-2.487,1187.5-7.714c-.454-.263-.4-.721.127-1.024l6.682-3.858a1.969,1.969,0,0,1,1.774-.074l9.054,5.227c.455.263.4.721-.128,1.024l-6.682,3.858A1.967,1.967,0,0,1,1196.552-2.487Z" transform="translate(-1148.351 57.604)" fill="#545cb3"/>
          <path id="Path_2952" data-name="Path 2952" d="M1196.143-12.634l39.363,22.727a.539.539,0,0,1,0,1.021l-6.814,3.934a1.951,1.951,0,0,1-1.769,0L1187.56-7.679Z" transform="translate(-1148.351 57.603)" fill="#545cb3"/>
          <path id="Path_2953" data-name="Path 2953" d="M1271.952,36.093l6.306,3.641c.372.215.327.59-.1.839l-2.734,1.578a1.611,1.611,0,0,1-1.453.06l-6.306-3.641c-.373-.215-.326-.59.1-.839l2.733-1.578A1.618,1.618,0,0,1,1271.952,36.093Z" transform="translate(-1148.442 57.548)" fill="#545cb3"/>
          <path id="Path_2954" data-name="Path 2954" d="M1263.127,31l6.306,3.641c.373.215.327.59-.1.839l-2.734,1.578a1.611,1.611,0,0,1-1.453.06l-6.306-3.641c-.373-.215-.326-.59.1-.839l2.733-1.578A1.619,1.619,0,0,1,1263.127,31Z" transform="translate(-1148.432 57.554)" fill="#545cb3"/>
          <path id="Path_2955" data-name="Path 2955" d="M1254.375,25.945l6.306,3.641c.372.215.326.59-.1.839L1257.843,32a1.618,1.618,0,0,1-1.453.06l-6.306-3.641c-.373-.215-.327-.59.1-.839L1252.922,26A1.611,1.611,0,0,1,1254.375,25.945Z" transform="translate(-1148.422 57.56)" fill="#545cb3"/>
          <path id="Path_2956" data-name="Path 2956" d="M1267.961,28.207l6.306,3.641c.372.216.326.591-.105.839l-2.733,1.578a1.617,1.617,0,0,1-1.454.061l-6.306-3.641c-.373-.216-.326-.591.1-.839l2.733-1.578A1.617,1.617,0,0,1,1267.961,28.207Z" transform="translate(-1148.438 57.557)" fill="#545cb3"/>
        </g>
      </g>
    </g>
    <g id="Group_1740" data-name="Group 1740" transform="translate(1211.476 -152.133)">
      <path id="Path_2957" data-name="Path 2957" d="M1255.013-90.31l-41.5-23.963a4.421,4.421,0,0,1-1.847-3.528v-32.656c0-1.359.827-1.984,1.847-1.4l41.5,23.963a4.421,4.421,0,0,1,1.846,3.528v32.656C1256.86-90.346,1256.033-89.722,1255.013-90.31Z" transform="translate(-1211.662 152.074)" fill="#8dd6f2" opacity="0.4"/>
      <g id="Group_1739" data-name="Group 1739" transform="translate(12.146 18.52)">
        <path id="Path_2958" data-name="Path 2958" d="M1226.073-112.343l-.292-.169a4.689,4.689,0,0,1-1.96-3.743v-15.562c0-1.442.877-2.106,1.96-1.48l.292.169a4.691,4.691,0,0,1,1.959,3.743v15.561C1228.032-112.382,1227.155-111.719,1226.073-112.343Z" transform="translate(-1223.822 133.533)" fill="#b2d3ea"/>
        <path id="Path_2959" data-name="Path 2959" d="M1234.431-107.511l-.293-.169a4.691,4.691,0,0,1-1.959-3.743v-9.109c0-1.442.877-2.106,1.959-1.48l.293.168a4.693,4.693,0,0,1,1.959,3.744v9.108C1236.39-107.55,1235.513-106.887,1234.431-107.511Z" transform="translate(-1223.832 133.52)" fill="#b2d3ea"/>
        <path id="Path_2960" data-name="Path 2960" d="M1242.787-102.7l-.293-.169a4.693,4.693,0,0,1-1.959-3.743v-21.68c0-1.442.877-2.106,1.959-1.481l.293.169a4.691,4.691,0,0,1,1.959,3.743v21.68C1244.746-102.739,1243.869-102.076,1242.787-102.7Z" transform="translate(-1223.841 133.529)" fill="#374999"/>
      </g>
    </g>
    <g id="Group_1741" data-name="Group 1741" transform="translate(1266.881 -118.862)">
      <path id="Path_2961" data-name="Path 2961" d="M1294.648-99.053l-25.785-14.887a4.146,4.146,0,0,1-1.732-3.308h0c0-1.275.775-1.861,1.732-1.309l25.785,14.887a4.148,4.148,0,0,1,1.731,3.308h0C1296.379-99.087,1295.6-98.5,1294.648-99.053Z" transform="translate(-1267.13 118.765)" fill="#b2d3ea"/>
      <path id="Path_2962" data-name="Path 2962" d="M1278.06-99.552l-9.2-5.311a4.142,4.142,0,0,1-1.732-3.307h0c0-1.276.775-1.861,1.732-1.31l9.2,5.311a4.146,4.146,0,0,1,1.732,3.308h0C1279.792-99.586,1279.017-99,1278.06-99.552Z" transform="translate(-1267.13 118.755)" fill="#b2d3ea"/>
      <path id="Path_2963" data-name="Path 2963" d="M1293.515-90.629l-9.2-5.311a4.147,4.147,0,0,1-1.731-3.308h0c0-1.275.775-1.861,1.731-1.309l9.2,5.311a4.146,4.146,0,0,1,1.731,3.308h0C1295.246-90.663,1294.471-90.077,1293.515-90.629Z" transform="translate(-1267.148 118.745)" fill="#374999"/>
      <path id="Path_2964" data-name="Path 2964" d="M1312.93-79.384l-13.16-7.632a4.148,4.148,0,0,1-1.731-3.308h0c0-1.275.775-1.861,1.731-1.309L1312.93-84a4.147,4.147,0,0,1,1.731,3.308h0C1314.662-79.418,1313.886-78.832,1312.93-79.384Z" transform="translate(-1267.165 118.735)" fill="#b2d3ea"/>
      <path id="Path_2965" data-name="Path 2965" d="M1301.08-77.182l-32.218-18.6a4.142,4.142,0,0,1-1.732-3.307h0c0-1.276.775-1.861,1.732-1.31l32.218,18.6a4.145,4.145,0,0,1,1.731,3.307h0C1302.812-77.216,1302.036-76.63,1301.08-77.182Z" transform="translate(-1267.13 118.744)" fill="#b2d3ea"/>
      <path id="Path_2966" data-name="Path 2966" d="M1314.626-60.386,1268.862-86.7a4.142,4.142,0,0,1-1.732-3.307h0c0-1.276.775-1.861,1.732-1.309L1314.626-65a4.149,4.149,0,0,1,1.731,3.308h0C1316.357-60.42,1315.582-59.834,1314.626-60.386Z" transform="translate(-1267.13 118.734)" fill="#374999"/>
      <path id="Path_2967" data-name="Path 2967" d="M1318.534-85.3l-16.73-9.619a4.148,4.148,0,0,1-1.731-3.308h0c0-1.275.775-1.861,1.731-1.309l16.73,9.619a4.145,4.145,0,0,1,1.731,3.307h0C1320.265-85.336,1319.49-84.751,1318.534-85.3Z" transform="translate(-1267.168 118.744)" fill="#b2d3ea"/>
    </g>
    <g id="Group_1742" data-name="Group 1742" transform="translate(1211.369 -89.767)">
      <path id="Path_2968" data-name="Path 2968" d="M1219.7-84.6l-8.141-4.7v9.4l8.141,4.7Z" transform="translate(-1211.555 89.636)" fill="#374999"/>
      <path id="Path_2969" data-name="Path 2969" d="M1232.571-84.936l-8.141-4.7v17.166l8.141,4.7Z" transform="translate(-1211.569 89.637)" fill="#8dd6f2"/>
      <path id="Path_2970" data-name="Path 2970" d="M1245.446-72.593l-8.141-4.7v12.261l8.141,4.7Z" transform="translate(-1211.584 89.622)" fill="#8dd6f2"/>
      <path id="Path_2971" data-name="Path 2971" d="M1258.321-68.706l-8.141-4.7v15.8l8.141,4.7Z" transform="translate(-1211.599 89.618)" fill="#8dd6f2"/>
      <path id="Path_2972" data-name="Path 2972" d="M1271.2-60.317l-8.141-4.7v14.849l8.141,4.7Z" transform="translate(-1211.614 89.609)" fill="#374999"/>
      <path id="Path_2973" data-name="Path 2973" d="M1284.071-56.626l-8.141-4.7v18.588l8.141,4.7Z" transform="translate(-1211.628 89.604)" fill="#545cb3"/>
      <path id="Path_2974" data-name="Path 2974" d="M1296.946-51.179l-8.141-4.7v20.571l8.141,4.7Z" transform="translate(-1211.643 89.598)" fill="#8dd6f2"/>
      <path id="Path_2975" data-name="Path 2975" d="M1309.821-48.768l-8.141-4.7V-27.88l8.141,4.7Z" transform="translate(-1211.658 89.595)" fill="#374999"/>
    </g>
    <g id="Group_1743" data-name="Group 1743" transform="translate(1353.056 -89.721)">
      <rect id="Rectangle_206" data-name="Rectangle 206" width="1.84" height="5.346" transform="matrix(0.248, 0.969, -0.969, 0.248, 13.104, 0)" fill="#39b3e3"/>
      <rect id="Rectangle_207" data-name="Rectangle 207" width="1.84" height="5.346" transform="matrix(0.248, 0.969, -0.969, 0.248, 10.463, 2.577)" fill="#39b3e3"/>
      <rect id="Rectangle_208" data-name="Rectangle 208" width="1.84" height="5.346" transform="matrix(0.248, 0.969, -0.969, 0.248, 7.821, 5.154)" fill="#39b3e3"/>
      <rect id="Rectangle_209" data-name="Rectangle 209" width="1.841" height="5.346" transform="translate(5.179 7.731) rotate(75.624)" fill="#39b3e3"/>
    </g>
    <path id="Path_2976" data-name="Path 2976" d="M1257.9,20.243l-16.405-9.472-16.405,9.472,16.405,9.472Z" transform="translate(-0.201 -0.245)" fill="#2c5289"/>
    <path id="Path_2977" data-name="Path 2977" d="M1206.128,21.9l-16.405-9.472L1173.318,21.9l16.406,9.472Z" transform="translate(-0.142 -0.247)" fill="#2c5289"/>
    <path id="Path_2978" data-name="Path 2978" d="M1171.371,1.987l-16.405-9.472L1138.56,1.987l16.405,9.472Z" transform="translate(-0.103 -0.224)" fill="#2c5289"/>
    <g id="Group_1748" data-name="Group 1748" transform="translate(1138.458 -86.638)">
      <g id="Group_1747" data-name="Group 1747">
        <g id="Group_1744" data-name="Group 1744" transform="translate(34.718 38.831)">
          <path id="Path_2979" data-name="Path 2979" d="M1189.742,21.841V-28.674l16.405-9.472V12.369Z" transform="translate(-1173.336 47.618)" fill="#c13d1a"/>
          <path id="Path_2980" data-name="Path 2980" d="M1206.129-38.157l-16.405-9.472-16.406,9.472,16.406,9.472Z" transform="translate(-1173.318 47.628)" fill="#ef602e"/>
          <path id="Path_2981" data-name="Path 2981" d="M1189.723-28.674l-16.406-9.472V12.369l16.406,9.472Z" transform="translate(-1173.318 47.618)" fill="#39b3e3"/>
          <path id="Path_2982" data-name="Path 2982" d="M1189.742,21.841V-28.674l16.405-9.472V12.369Z" transform="translate(-1173.336 47.618)" fill="#374999"/>
          <path id="Path_2983" data-name="Path 2983" d="M1206.129-38.157l-16.405-9.472-16.406,9.472,16.406,9.472Z" transform="translate(-1173.318 47.628)" fill="#8dd6f2"/>
        </g>
        <g id="Group_1745" data-name="Group 1745" transform="translate(69.541 81.306)">
          <path id="Path_2984" data-name="Path 2984" d="M1224.6,42.264V13.849l16.406-9.472V32.792Z" transform="translate(-1208.199 5.095)" fill="#545cb3"/>
          <path id="Path_2985" data-name="Path 2985" d="M1224.586,13.849,1208.18,4.377V32.792l16.405,9.472Z" transform="translate(-1208.18 5.095)" fill="#374999"/>
          <path id="Path_2986" data-name="Path 2986" d="M1240.991,4.366l-16.405-9.472L1208.18,4.366l16.405,9.472Z" transform="translate(-1208.18 5.105)" fill="#8dd6f2"/>
        </g>
        <g id="Group_1746" data-name="Group 1746">
          <path id="Path_2987" data-name="Path 2987" d="M1154.984,1.908V-67.55l16.406-9.472V-7.563Z" transform="translate(-1138.579 86.493)" fill="#8dd6f2"/>
          <path id="Path_2988" data-name="Path 2988" d="M1154.966-67.55l-16.406-9.472V-7.563l16.406,9.472Z" transform="translate(-1138.56 86.493)" fill="#374999"/>
          <path id="Path_2989" data-name="Path 2989" d="M1171.371-77.032,1154.966-86.5l-16.406,9.472,16.406,9.472Z" transform="translate(-1138.56 86.504)" fill="#39b3e3"/>
        </g>
      </g>
    </g>
    <g id="Group_1753" data-name="Group 1753" transform="translate(1124.329 -150.6)">
      <g id="Group_1750" data-name="Group 1750" transform="translate(2.039)">
        <path id="Path_2990" data-name="Path 2990" d="M1145.192-37.712s-2.709-1.365-4.372.668-4.042,6.836-4.115,10.081,2.567,3.026,4.137,2.257,6.157-7.422,6.434-8.725a4.522,4.522,0,0,0-.769-3.411C1146.067-37.186,1145.192-37.712,1145.192-37.712Z" transform="translate(-1126.469 150.411)" fill="#39b3e3"/>
        <path id="Path_2991" data-name="Path 2991" d="M1145.788-38.365l.125,2.806a1.591,1.591,0,0,1-.793,1.46,3.118,3.118,0,0,1-2.09.325c-2.04-.328-2.222-.911-2.368-3.717S1145.788-38.365,1145.788-38.365Z" transform="translate(-1126.474 150.412)" fill="#8dd6f2"/>
        <g id="Group_1749" data-name="Group 1749" transform="translate(0 49.789)">
          <path id="Path_2992" data-name="Path 2992" d="M1135.265-43.114s-2.709-1.366-4.372.668-4.041,6.835-4.115,10.081,2.568,3.026,4.137,2.257,6.157-7.422,6.435-8.725a4.529,4.529,0,0,0-.768-3.411C1136.14-42.588,1135.265-43.114,1135.265-43.114Z" transform="translate(-1126.458 100.628)" fill="#39b3e3"/>
          <path id="Path_2993" data-name="Path 2993" d="M1135.861-43.768l.125,2.807a1.591,1.591,0,0,1-.792,1.46,3.131,3.131,0,0,1-2.089.325c-2.041-.328-2.224-.911-2.37-3.717S1135.861-43.768,1135.861-43.768Z" transform="translate(-1126.463 100.629)" fill="#8dd6f2"/>
          <path id="Path_2994" data-name="Path 2994" d="M1160.027-95.354c-.8-13.045-14.127,1.919-14.127,1.919l-9.121,8.94-8.213,9.022a8.091,8.091,0,0,0-2.039,6.5l3.322,25.3a2.486,2.486,0,0,0,2.493,2.162,8.6,8.6,0,0,0,1.23-.108,3.091,3.091,0,0,0,2.745-3.28l-.607-23.66,17.248-10.4S1160.828-82.31,1160.027-95.354Z" transform="translate(-1126.458 100.693)" fill="#545cb3"/>
        </g>
        <path id="Path_2995" data-name="Path 2995" d="M1169.954-90.378c-.8-13.045-14.128,1.919-14.128,1.919l-9.12,8.939-8.213,9.023a8.088,8.088,0,0,0-2.04,6.5l3.322,25.3a2.485,2.485,0,0,0,2.492,2.161,8.331,8.331,0,0,0,1.232-.108,3.09,3.09,0,0,0,2.745-3.279l-.607-23.66,17.247-10.4S1170.755-77.334,1169.954-90.378Z" transform="translate(-1126.469 150.476)" fill="#545cb3"/>
        <path id="Path_2996" data-name="Path 2996" d="M1162.077-132.3c10.1,4.188,9.9,10.16,9.9,10.16s-1.98,21.893-1.3,36.514c.282,6.112-32.476,6.579-27.591-9.728,5.76-19.227,3.6-34.792,6.3-37.141S1159.464-133.379,1162.077-132.3Z" transform="translate(-1126.476 150.52)" fill="#39b3e3"/>
        <path id="Path_2997" data-name="Path 2997" d="M1165.342-127c-.528,2.052-3.215,3.132-6,2.414s-4.618-2.963-4.089-5.013,3.215-3.132,6-2.414S1165.87-129.05,1165.342-127Z" transform="translate(-1126.491 150.518)" fill="#ffc2b0"/>
        <path id="Path_2998" data-name="Path 2998" d="M1161.043-123.882a7.318,7.318,0,0,1-1.826-.236c-3.039-.782-5.029-3.3-4.436-5.6s3.549-3.547,6.592-2.762a6.716,6.716,0,0,1,3.541,2.169,3.862,3.862,0,0,1,.895,3.434C1165.335-125.043,1163.363-123.882,1161.043-123.882Zm-1.52-7.871c-1.876,0-3.444.873-3.807,2.275-.461,1.79,1.219,3.775,3.743,4.426s4.953-.278,5.415-2.069a2.928,2.928,0,0,0-.708-2.581,5.758,5.758,0,0,0-3.035-1.844A6.465,6.465,0,0,0,1159.523-131.753Z" transform="translate(-1126.49 150.518)" fill="#fff"/>
        <path id="Path_2999" data-name="Path 2999" d="M1158.044-132.752a24.961,24.961,0,0,1-.088,3.607c-.055,1.006,3.469,1.946,4.38,1.035s.546-1.858.765-5.283S1158.044-132.752,1158.044-132.752Z" transform="translate(-1126.494 150.521)" fill="#ffc2b0"/>
        <path id="Path_3000" data-name="Path 3000" d="M1163.1-133.392s-.868,3.175-5.146,4.394l.065-2.887Z" transform="translate(-1126.494 150.519)" fill="#ea9c92"/>
        <path id="Path_3001" data-name="Path 3001" d="M1165.8-141.477a7.775,7.775,0,0,1-5.581,9.475,7.776,7.776,0,0,1-9.475-5.583,7.776,7.776,0,0,1,5.582-9.475A7.776,7.776,0,0,1,1165.8-141.477Z" transform="translate(-1126.485 150.535)" fill="#ffc2b0"/>
        <path id="Path_3002" data-name="Path 3002" d="M1160.06-139.238s-4.281,1.834-7.246,1.855-2.312-2.461-2.312-2.461l8.8-1.272Z" transform="translate(-1126.485 150.528)" fill="#ea9c92"/>
        <path id="Path_3003" data-name="Path 3003" d="M1151.927-138.765a13.89,13.89,0,0,1,7-.923,3.43,3.43,0,0,1,1.977,1.175,1.172,1.172,0,0,0,.6.434c.58.131,1.53-2.276,2.658-2.331s1.88.744.956,2.224-.612,3.137-.187,3.374,4.938-3.218.957-11.1-14.092-3.639-15.664-2.041c0,0-1.657,1.443-3,.159C1147.219-147.8,1145.709-136.485,1151.927-138.765Z" transform="translate(-1126.481 150.539)" fill="#61b3ff"/>
        <path id="Path_3004" data-name="Path 3004" d="M1166.323-106.113v5.916a2.413,2.413,0,0,1-.786,1.781l-12.153,11.079,1.38,2.112,16.05-11.64a3.26,3.26,0,0,0,1.328-2.3l1.085-10.317Z" transform="translate(-1126.489 150.492)" fill="#ffc2b0"/>
        <path id="Path_3005" data-name="Path 3005" d="M1171.148-125.084s3.687,5.545,5.06,20.14c0,0-6.3,2.037-9.872.88S1171.148-125.084,1171.148-125.084Z" transform="translate(-1126.502 150.51)" fill="#39b3e3"/>
        <path id="Path_3006" data-name="Path 3006" d="M1165.661-118.065a102.888,102.888,0,0,0-1.525,11.355,2.317,2.317,0,0,0,1.525,2.238h0Z" transform="translate(-1126.501 150.502)" fill="#374999"/>
      </g>
      <g id="Group_1751" data-name="Group 1751" transform="translate(1.942 58.739)">
        <path id="Path_3007" data-name="Path 3007" d="M1162.465-79.622l-2.686-.355-17.338-10.011a2.411,2.411,0,0,0-2.168.09l-12.287,7.091-1.624-.215V-81.4h0a.631.631,0,0,0,.372.569l19.651,11.345a2.411,2.411,0,0,0,2.168-.09l13.38-7.722a.874.874,0,0,0,.53-.729h0Z" transform="translate(-1126.361 91.731)" fill="#39b3e3"/>
        <path id="Path_3008" data-name="Path 3008" d="M1149.438-85.943l-1.233-.711h-13.542l-6.677,3.852-1.624-.215V-81.4h0a.631.631,0,0,0,.372.569l19.651,11.345a2.026,2.026,0,0,0,1.119.21Z" transform="translate(-1126.361 91.727)" fill="#374999"/>
        <path id="Path_3009" data-name="Path 3009" d="M1127.082-82.917l-.721-.1V-81.4h0a.631.631,0,0,0,.372.569l.347.2Z" transform="translate(-1126.361 91.723)" fill="#39b3e3"/>
        <path id="Path_3010" data-name="Path 3010" d="M1146.607-69.377a2.515,2.515,0,0,0,1.842-.114v-2.751h-1.842Z" transform="translate(-1126.384 91.711)" fill="#fff"/>
        <path id="Path_3011" data-name="Path 3011" d="M1146.386-71.107l-19.651-11.344c-.555-.322-.485-.882.156-1.253l13.381-7.722a2.411,2.411,0,0,1,2.168-.09l19.65,11.345c.556.321.486.881-.156,1.252l-13.38,7.722A2.408,2.408,0,0,1,1146.386-71.107Z" transform="translate(-1126.361 91.733)" fill="#fff"/>
        <path id="Path_3012" data-name="Path 3012" d="M1146.057-72.822l-16.339-9.433c-.462-.267-.4-.733.13-1.041l7.17-4.032a2.008,2.008,0,0,1,1.8-.075l16.338,9.433c.463.267.4.733-.13,1.042l-7.17,4.031A2,2,0,0,1,1146.057-72.822Z" transform="translate(-1126.365 91.728)" fill="#8dd6f2"/>
      </g>
      <path id="Path_3013" data-name="Path 3013" d="M1141.048-91.8l-.2,1.356a10.009,10.009,0,0,0,.088,3.476l.242,1.195a1.681,1.681,0,0,0,1.346,1.319h0a.925.925,0,0,0,1.087-.808l.324-2.9s.742.972,1.1.972-.4-2.9-1.211-4.546S1141.048-91.8,1141.048-91.8Z" transform="translate(-1124.435 150.473)" fill="#ffc2b0"/>
      <path id="Path_3014" data-name="Path 3014" d="M1147.708-113.377,1145.6-109.2a8.2,8.2,0,0,0-.863,3.167l-.916,14.274-2.774-.066-1.259-16.03a5.837,5.837,0,0,1,.072-1.481l1.437-8.129Z" transform="translate(-1124.434 150.501)" fill="#ffc2b0"/>
      <g id="Group_1752" data-name="Group 1752" transform="translate(0 50.24)">
        <path id="Path_3015" data-name="Path 3015" d="M1145.718-70.027l-1.647-2.151L1126.744-82.21a2.41,2.41,0,0,1-1-1.924l.015-14.186-1-1.3.936-.542h0a.634.634,0,0,1,.679.04l19.637,11.368a2.41,2.41,0,0,1,1,1.925L1147-71.38a.875.875,0,0,1-.367.824h0Z" transform="translate(-1124.417 100.242)" fill="#545cb3"/>
        <path id="Path_3016" data-name="Path 3016" d="M1133.737-78.161l-1.232-.713-6.757-11.737.007-7.708-1-1.3.936-.542h0a.634.634,0,0,1,.679.04l19.637,11.368a2.033,2.033,0,0,1,.74.866Z" transform="translate(-1124.417 100.242)" fill="#374999"/>
        <path id="Path_3017" data-name="Path 3017" d="M1125.2-99.042l-.442-.577.936-.542h0a.634.634,0,0,1,.679.04l.347.2Z" transform="translate(-1124.417 100.242)" fill="#39b3e3"/>
        <path id="Path_3018" data-name="Path 3018" d="M1146.212-88.614a2.515,2.515,0,0,1,.82,1.654l-1.919,1.108-.919-1.6Z" transform="translate(-1124.439 100.229)" fill="#2c5289"/>
        <path id="Path_3019" data-name="Path 3019" d="M1145.076-88.211,1125.44-99.579c-.555-.322-1.007.018-1.008.759l-.016,15.449a2.41,2.41,0,0,0,1,1.924l19.637,11.369c.555.322,1.006-.019,1.007-.76l.017-15.448A2.409,2.409,0,0,0,1145.076-88.211Z" transform="translate(-1124.416 100.241)" fill="#39b3e3"/>
      </g>
      <path id="Path_3020" data-name="Path 3020" d="M1154.758-85.2l-.314.652a4.366,4.366,0,0,1-1.641,1.819l-1.951,1.2a1.943,1.943,0,0,1-1.991.046l-.066-.04a1.173,1.173,0,0,1-.166-1.8l2.038-2.1s-1.145.878-1.466.524c-.235-.259,1.111-1.522,2.144-1.564a4.074,4.074,0,0,0,2.033-.853Z" transform="translate(-1124.443 150.467)" fill="#ffc2b0"/>
      <path id="Path_3021" data-name="Path 3021" d="M1149.579-132.518s-7.471,8.13-10.486,15.588a15.256,15.256,0,0,0,8.81,6.41C1154.157-108.714,1149.579-132.518,1149.579-132.518Z" transform="translate(-1124.433 150.518)" fill="#39b3e3"/>
      <path id="Path_3022" data-name="Path 3022" d="M1146.5-110.991l1.212-11.7-2.854,10.962A16.536,16.536,0,0,0,1146.5-110.991Z" transform="translate(-1124.439 150.507)" fill="#374999"/>
      <path id="Path_3023" data-name="Path 3023" d="M1155.192-134.162l-2.008-.551a4.849,4.849,0,0,0,2.358,1.892c1.4.385,1.617-.8,1.617-.8Z" transform="translate(-1124.449 150.521)" fill="#fff"/>
    </g>
    <g id="Group_1759" data-name="Group 1759" transform="translate(1072.842 31.398)">
      <g id="Group_1758" data-name="Group 1758" transform="translate(0 0)">
        <g id="Group_1754" data-name="Group 1754" transform="translate(4.699)">
          <path id="Path_3024" data-name="Path 3024" d="M1083.479,68.182l12.336.193a13.1,13.1,0,0,1,3.9-3.276c6.784-3.917,17.451-4.219,24.842-.914l7.331-6.893,11.286.176c-.557-.366-1.13-.725-1.734-1.074-15.686-9.057-41.117-9.057-56.8,0a29.856,29.856,0,0,0-7.057,5.5Z" transform="translate(-1077.574 -31.687)" fill="#545cb3"/>
          <path id="Path_3025" data-name="Path 3025" d="M1143.232,39.541V57.455l-11.287-.176V39.365Z" transform="translate(-1077.637 -31.675)" fill="#39b3e3"/>
          <path id="Path_3026" data-name="Path 3026" d="M1124.606,46.259V64.173l7.33-6.894V39.365Z" transform="translate(-1077.628 -31.675)" fill="#545cb3"/>
          <path id="Path_3027" data-name="Path 3027" d="M1095.836,50.45V68.364l16.228-13.224,12.51,9.034V46.261l-11.519-5.588s-15.857,4.854-16.681,5.06S1095.836,50.45,1095.836,50.45Z" transform="translate(-1077.595 -31.677)" fill="#545cb3"/>
          <path id="Path_3028" data-name="Path 3028" d="M1083.486,50.269V68.183l12.336.192V50.461Z" transform="translate(-1077.581 -31.688)" fill="#545cb3"/>
          <path id="Path_3029" data-name="Path 3029" d="M1077.575,43.971V61.885l5.9,6.291V50.262Z" transform="translate(-1077.575 -31.68)" fill="#39b3e3"/>
          <path id="Path_3030" data-name="Path 3030" d="M1083.479,50.248l12.336.192a13.114,13.114,0,0,1,3.9-3.275c6.784-3.917,17.451-4.219,24.842-.914l7.331-6.894,11.286.176c-.557-.365-1.13-.724-1.734-1.074-15.686-9.056-41.117-9.056-56.8,0a29.805,29.805,0,0,0-7.057,5.5Z" transform="translate(-1077.574 -31.667)" fill="#8dd6f2"/>
        </g>
        <g id="Group_1756" data-name="Group 1756" transform="translate(47.312 10.716)">
          <path id="Path_3031" data-name="Path 3031" d="M1128.326,48.473V64.94L1139,62.382s-.626-9.636-.854-9.893S1128.326,48.473,1128.326,48.473Z" transform="translate(-1120.245 -42.402)" fill="#39b3e3"/>
          <g id="Group_1755" data-name="Group 1755">
            <path id="Path_3032" data-name="Path 3032" d="M1120.236,64.959V82.874l1.154,1.229,7.527-4.34s-1.167-13.674-1.3-13.949S1120.236,64.959,1120.236,64.959Z" transform="translate(-1120.236 -42.421)" fill="#545cb3"/>
            <path id="Path_3033" data-name="Path 3033" d="M1134.773,60.33l-6.455,6.07c5.378,4.255,4.741,10.253-1.911,14.094a22.954,22.954,0,0,1-6.17,2.374l6.672,7.109L1121,95.537a53.718,53.718,0,0,0,20.489-6.337c13.484-7.785,15.364-19.726,5.665-28.677Z" transform="translate(-1120.236 -42.415)" fill="#374999"/>
            <path id="Path_3034" data-name="Path 3034" d="M1121,77.616V95.53l14.639-5.653,17.606-16.8-.065-19.022-18.627,14.764Z" transform="translate(-1120.237 -42.408)" fill="#374999"/>
            <path id="Path_3035" data-name="Path 3035" d="M1134.773,42.4l-6.455,6.071c5.378,4.255,4.741,10.253-1.911,14.094a22.954,22.954,0,0,1-6.17,2.373l6.672,7.109L1121,77.6a53.736,53.736,0,0,0,20.489-6.337c13.484-7.785,15.364-19.726,5.665-28.678Z" transform="translate(-1120.236 -42.395)" fill="#8dd6f2"/>
          </g>
        </g>
        <g id="Group_1757" data-name="Group 1757" transform="translate(0 15.778)">
          <path id="Path_3036" data-name="Path 3036" d="M1120.894,89.89l-5.881-6.266c-5.46.332-11.122-.708-15.307-3.124-4.322-2.5-6.1-5.9-5.347-9.148l-14.005-.219L1074.97,65.4c-4.711,8.085-1.5,17.369,9.658,23.81,8.2,4.732,19.054,6.986,29.792,6.772Z" transform="translate(-1072.87 -47.482)" fill="#374999"/>
          <path id="Path_3037" data-name="Path 3037" d="M1114.42,78.053V95.967l-41.547-23.023V55.021l6.066,2.452Z" transform="translate(-1072.87 -47.471)" fill="#374999"/>
          <path id="Path_3038" data-name="Path 3038" d="M1120.942,71.983V89.9l-6.474,6.089V78.072Z" transform="translate(-1072.917 -47.49)" fill="#545cb3"/>
          <path id="Path_3039" data-name="Path 3039" d="M1120.894,71.955l-5.881-6.265c-5.46.332-11.122-.709-15.307-3.124-4.322-2.5-6.1-5.9-5.347-9.149l-14.005-.218-5.385-5.737c-4.711,8.084-1.5,17.369,9.658,23.809,8.2,4.733,19.054,6.987,29.792,6.773Z" transform="translate(-1072.87 -47.462)" fill="#39b3e3"/>
        </g>
      </g>
    </g>
    <g id="Group_1760" data-name="Group 1760" transform="translate(1145.135 -178.578)">
      <path id="Path_3040" data-name="Path 3040" d="M1145.245-170.883l1.068-1.812a2.6,2.6,0,0,0,1.85.191,3.6,3.6,0,0,0,1.969-2.055,6.317,6.317,0,0,1,7.028-3.861l-.5,2.043.252-1.021-.244,1.023c-.306-.071-3.037-.588-4.639,2.73a5.539,5.539,0,0,1-3.273,3.159A4.637,4.637,0,0,1,1145.245-170.883Z" transform="translate(-1145.245 178.548)" fill="#39b3e3"/>
    </g>
    <path id="Path_3041" data-name="Path 3041" d="M1111.75-101.812a9.651,9.651,0,0,1-9.64-9.641,9.65,9.65,0,0,1,9.64-9.64,9.651,9.651,0,0,1,9.641,9.64A9.651,9.651,0,0,1,1111.75-101.812Zm0-17.178a7.546,7.546,0,0,0-7.537,7.537,7.546,7.546,0,0,0,7.537,7.537,7.546,7.546,0,0,0,7.537-7.537A7.546,7.546,0,0,0,1111.75-118.99Z" transform="translate(-0.061 -0.095)" fill="#8dd6f2"/>
    <path id="Path_3042" data-name="Path 3042" d="M1055.12,31.532a6.836,6.836,0,1,1,6.836-6.836A6.844,6.844,0,0,1,1055.12,31.532Zm0-11.569a4.733,4.733,0,1,0,4.734,4.733A4.738,4.738,0,0,0,1055.12,19.964Z" transform="translate(0 -0.253)" fill="#39b3e3"/>
    <path id="Path_3043" data-name="Path 3043" d="M1097.622-45.339l-4.639-9.438,9.437-4.64,4.641,9.438Zm-1.824-8.478,2.784,5.664,5.664-2.785L1101.46-56.6Z" transform="translate(-0.051 -0.165)" fill="#39b3e3"/>
    <rect id="Rectangle_210" data-name="Rectangle 210" width="4.835" height="4.835" transform="matrix(0.897, -0.441, 0.441, 0.897, 1325.749, -146.776)" fill="#39b3e3"/>
    <g id="Group_1761" data-name="Group 1761" transform="translate(1238.73 -204.315)">
      <rect id="Rectangle_211" data-name="Rectangle 211" width="9.992" height="2.102" transform="translate(0 7.065) rotate(-45)" fill="#8dd6f2"/>
      <rect id="Rectangle_212" data-name="Rectangle 212" width="2.102" height="9.992" transform="matrix(0.707, -0.707, 0.707, 0.707, 0, 1.487)" fill="#8dd6f2"/>
    </g>
    <path id="Path_3044" data-name="Path 3044" d="M1318.511-196.5a4.961,4.961,0,0,1-4.961,4.961,4.962,4.962,0,0,1-4.963-4.961,4.962,4.962,0,0,1,4.963-4.962A4.962,4.962,0,0,1,1318.511-196.5Z" transform="translate(-0.296 -0.003)" fill="#8dd6f2"/>
    <path id="Path_3045" data-name="Path 3045" d="M1184.811,81.775a2.884,2.884,0,1,1-2.884-2.884A2.884,2.884,0,0,1,1184.811,81.775Z" transform="translate(-0.149 -0.322)" fill="#8dd6f2"/>
    <g id="Group_1764" data-name="Group 1764" transform="translate(1064.242 -43.772)">
      <g id="Group_1762" data-name="Group 1762">
        <path id="Path_3046" data-name="Path 3046" d="M1089.16-31.2l-21.115-12.191a1.085,1.085,0,0,0-1.092-.088l0-.013-2.049,1.184s.907.33,1.44.525v15.376a4.069,4.069,0,0,0,1.7,3.246l20.182,11.652v1.8L1090.3-10.9l-.011,0a1.507,1.507,0,0,0,.574-1.354v-15.7A4.069,4.069,0,0,0,1089.16-31.2Z" transform="translate(-1064.261 43.589)" fill="#4ac7e0"/>
        <path id="Path_3047" data-name="Path 3047" d="M1087.074-9.767l-21.115-12.191a4.068,4.068,0,0,1-1.7-3.245V-40.9c0-1.252.761-1.827,1.7-1.285L1087.074-30a4.072,4.072,0,0,1,1.7,3.246v15.7C1088.773-9.8,1088.012-9.226,1087.074-9.767Z" transform="translate(-1064.26 43.588)" fill="#61b3ff"/>
      </g>
      <g id="Group_1763" data-name="Group 1763" transform="translate(5.95 13.558)">
        <path id="Path_3048" data-name="Path 3048" d="M1073.067-27.354c0,.909-.638,1.277-1.424.822A3.146,3.146,0,0,1,1070.217-29c0-.909.638-1.277,1.425-.822A3.148,3.148,0,0,1,1073.067-27.354Z" transform="translate(-1070.217 30.016)" fill="#fff"/>
        <path id="Path_3049" data-name="Path 3049" d="M1077.388-24.859c0,.908-.638,1.277-1.426.822a3.152,3.152,0,0,1-1.424-2.467c0-.909.638-1.278,1.424-.823A3.149,3.149,0,0,1,1077.388-24.859Z" transform="translate(-1070.222 30.013)" fill="#fff"/>
        <path id="Path_3050" data-name="Path 3050" d="M1081.709-22.365c0,.909-.638,1.277-1.426.823a3.151,3.151,0,0,1-1.424-2.468c0-.908.638-1.277,1.424-.822A3.15,3.15,0,0,1,1081.709-22.365Z" transform="translate(-1070.227 30.01)" fill="#fff"/>
      </g>
    </g>
    <g id="Group_1767" data-name="Group 1767" transform="translate(1266.74 -188.012)">
      <g id="Group_1765" data-name="Group 1765">
        <path id="Path_3051" data-name="Path 3051" d="M1291.889-175.605,1270.774-187.8a1.082,1.082,0,0,0-1.092-.087l0-.014-2.049,1.184,1.439.525v15.376a4.069,4.069,0,0,0,1.7,3.246l20.182,11.652v1.8l2.069-1.192-.011,0a1.506,1.506,0,0,0,.574-1.354v-15.7A4.069,4.069,0,0,0,1291.889-175.605Z" transform="translate(-1266.99 187.993)" fill="#39b3e3"/>
        <path id="Path_3052" data-name="Path 3052" d="M1289.8-154.171l-21.115-12.19a4.072,4.072,0,0,1-1.7-3.246v-15.7c0-1.252.761-1.826,1.7-1.285L1289.8-174.4a4.069,4.069,0,0,1,1.7,3.245v15.7C1291.5-154.2,1290.741-153.629,1289.8-154.171Z" transform="translate(-1266.989 187.992)" fill="#8dd6f2"/>
      </g>
      <g id="Group_1766" data-name="Group 1766" transform="translate(5.95 13.558)">
        <path id="Path_3053" data-name="Path 3053" d="M1275.8-171.758c0,.909-.638,1.277-1.425.823a3.151,3.151,0,0,1-1.424-2.468c0-.908.638-1.277,1.424-.822A3.149,3.149,0,0,1,1275.8-171.758Z" transform="translate(-1272.946 174.42)" fill="#fff"/>
        <path id="Path_3054" data-name="Path 3054" d="M1280.117-169.263c0,.908-.638,1.277-1.426.822a3.152,3.152,0,0,1-1.424-2.467c0-.909.638-1.277,1.424-.823A3.15,3.15,0,0,1,1280.117-169.263Z" transform="translate(-1272.951 174.417)" fill="#fff"/>
        <path id="Path_3055" data-name="Path 3055" d="M1284.437-166.769c0,.909-.637,1.278-1.424.823a3.148,3.148,0,0,1-1.424-2.467c0-.909.637-1.278,1.424-.823A3.149,3.149,0,0,1,1284.437-166.769Z" transform="translate(-1272.956 174.414)" fill="#fff"/>
      </g>
    </g>
    <g id="Group_1773" data-name="Group 1773" transform="translate(1289.774 -8.842)">
      <g id="Group_1772" data-name="Group 1772">
        <g id="Group_1771" data-name="Group 1771">
          <g id="Group_1768" data-name="Group 1768" transform="translate(26.313 36.499)">
            <path id="Path_3056" data-name="Path 3056" d="M1328.789,73.249V35.078l-12.4-7.157V66.092Z" transform="translate(-1316.392 -27.921)" fill="#c13d1a"/>
            <path id="Path_3057" data-name="Path 3057" d="M1328.8,35.078l12.4-7.157V66.092l-12.4,7.157Z" transform="translate(-1316.406 -27.921)" fill="#4ac7e0"/>
            <path id="Path_3058" data-name="Path 3058" d="M1328.789,73.249V35.078l-12.4-7.157V66.092Z" transform="translate(-1316.392 -27.921)" fill="#61b3ff"/>
          </g>
          <g id="Group_1769" data-name="Group 1769" transform="translate(0 61.437)">
            <path id="Path_3059" data-name="Path 3059" d="M1302.445,88.681V67.21l-12.4-7.157V81.524Z" transform="translate(-1290.049 -52.896)" fill="#61b3ff"/>
            <path id="Path_3060" data-name="Path 3060" d="M1302.459,67.21l12.4-7.157V81.524l-12.4,7.157Z" transform="translate(-1290.063 -52.896)" fill="#4ac7e0"/>
            <path id="Path_3061" data-name="Path 3061" d="M1290.049,60.045l12.4-7.157,12.4,7.157-12.4,7.157Z" transform="translate(-1290.049 -52.888)" fill="#61b3ff"/>
          </g>
          <g id="Group_1770" data-name="Group 1770" transform="translate(52.547)">
            <path id="Path_3062" data-name="Path 3062" d="M1355.052,58.187V5.7l-12.4-7.157V51.03Z" transform="translate(-1342.656 8.611)" fill="#61b3ff"/>
            <path id="Path_3063" data-name="Path 3063" d="M1355.066,5.7l12.4-7.157V51.03l-12.4,7.157Z" transform="translate(-1342.67 8.611)" fill="#4ac7e0"/>
            <path id="Path_3064" data-name="Path 3064" d="M1342.656-1.462l12.4-7.157,12.4,7.157-12.4,7.157Z" transform="translate(-1342.656 8.619)" fill="#61b3ff"/>
          </g>
        </g>
        <path id="Path_3065" data-name="Path 3065" d="M1316.392,27.913l12.4-7.157,12.4,7.157-12.4,7.157Z" transform="translate(-1290.079 8.586)" fill="#61b3ff"/>
      </g>
    </g>
  </g>
</svg>
