<svg xmlns="http://www.w3.org/2000/svg" width="318.829" height="300"><g data-name="Group 1738"><g data-name="Group 1737"><g data-name="Group 1735"><path data-name="Path 2871" d="M282.405 90.542L155.222 17.174a4.873 4.873 0 00-4.354-.585l.005-.015-.209.1-.051.024-4.14 1.948 4.495 2.237c0 .085-.009.163-.009.249l.038 104.461c0 5.228 3.238 11.331 7.227 13.632l123.792 71.409.7 5.826 4.521-2.157c1.489-.875 2.432-2.852 2.431-5.669l-.039-104.461c.001-5.227-3.234-11.33-7.224-13.631z" fill="#545cb3"/><path data-name="Path 2872" d="M282.405 90.542L155.222 17.174a4.873 4.873 0 00-4.354-.585l.005-.015-.209.1-.051.024-4.14 1.948 4.495 2.237c0 .085-.009.163-.009.249l.025 68.847 57.882 45.732 78.589-39.551a14.255 14.255 0 00-5.05-5.618z" fill="#374999"/><path data-name="Path 2873" d="M284.53 92.186l-12.464 5.243 9.41 7.25 7.858-3.345a18.289 18.289 0 00-4.804-9.148z" fill="#2c5289"/><path data-name="Path 2874" d="M278.264 215.907l-127.183-73.369c-3.99-2.3-7.225-8.4-7.227-13.632l-.039-104.46c0-5.228 3.23-7.6 7.22-5.3l127.183 73.368c3.99 2.3 7.225 8.4 7.227 13.632l.039 104.461c.002 5.228-3.233 7.6-7.22 5.3z" fill="#8dd6f2"/><path data-name="Path 2875" d="M274.033 208.137l-118.788-68.49c-3.65-2.106-6.61-7.691-6.612-12.475l-.036-95.59c0-4.785 2.957-6.955 6.607-4.849l118.784 68.489c3.65 2.106 6.611 7.69 6.612 12.475l.039 95.588c.006 4.786-2.956 6.957-6.606 4.852z" fill="#fff"/><path data-name="Path 2876" d="M274.033 208.137l-118.788-68.49c-3.65-2.106-6.61-7.691-6.612-12.475l-.036-95.59c0-4.785 2.957-6.955 6.607-4.849l118.784 68.489c3.65 2.106 6.611 7.69 6.612 12.475l.039 95.588c.006 4.786-2.956 6.957-6.606 4.852z" fill="#fff"/></g><path data-name="Path 2877" d="M280.163 219.151l-17.1-2.258-110.406-63.742c-3.54-2.044-9.722-1.787-13.809.572l-78.231 45.151-10.342-1.365v5.867h.011a4.027 4.027 0 002.371 3.626l125.122 72.24c3.54 2.044 9.722 1.787 13.809-.572l85.2-49.172c2.3-1.327 3.445-3.038 3.378-4.644z" fill="#545cb3"/><path data-name="Path 2878" d="M197.21 178.874l-7.843-4.529h-86.236l-42.514 24.529-10.342-1.365v5.867h.011a4.027 4.027 0 002.371 3.626l125.119 72.238a12.948 12.948 0 007.127 1.335z" fill="#374999"/><path data-name="Path 2879" d="M54.865 198.114l-4.59-.605v5.867h.011a4.027 4.027 0 002.371 3.626l2.2 1.274z" fill="#39b3e3"/><path data-name="Path 2880" d="M179.04 279.825a16.022 16.022 0 0011.733-.728v-13.085H179.04z" fill="#2c5289"/><path data-name="Path 2881" d="M177.779 273.379L52.657 201.142c-3.54-2.044-3.1-5.614.991-7.973l85.2-49.172c4.087-2.359 10.269-2.616 13.809-.572l125.118 72.238c3.54 2.044 3.1 5.613-.991 7.973l-85.2 49.171c-4.083 2.359-10.265 2.615-13.805.572z" fill="#8dd6f2"/><path data-name="Path 2882" d="M276.785 221.491l-85.2 49.172c-4.087 2.359-10.269 2.616-13.809.572L52.657 198.998a4.653 4.653 0 01-2.2-2.407c-.553 1.675.152 3.368 2.2 4.551l125.119 72.238c3.54 2.044 9.722 1.787 13.809-.572l85.2-49.172c2.747-1.586 3.84-3.718 3.192-5.567a6.648 6.648 0 01-3.192 3.422z" fill="#fff"/><g data-name="Group 1736"><path data-name="Path 2883" d="M105.876 177.223l-5.661-3.269c-.454-.262-.4-.72.127-1.024l6.682-3.858a1.971 1.971 0 011.773-.073l5.661 3.268c.454.262.4.72-.128 1.024l-6.681 3.858a1.976 1.976 0 01-1.773.074z" fill="#545cb3"/><path data-name="Path 2884" d="M114.619 182.274l-5.662-3.268c-.454-.263-.4-.721.128-1.024l6.682-3.859a1.972 1.972 0 011.774-.073l5.661 3.268c.455.263.4.721-.127 1.024l-6.682 3.858a1.967 1.967 0 01-1.774.074z" fill="#545cb3"/><path data-name="Path 2885" d="M123.36 187.322l-5.66-3.268c-.455-.263-.4-.721.127-1.024l6.683-3.858a1.967 1.967 0 011.773-.074l5.661 3.268c.455.263.4.721-.128 1.024l-6.681 3.859a1.973 1.973 0 01-1.775.073z" fill="#545cb3"/><path data-name="Path 2886" d="M135.451 183.154l-5.661-3.268c-.454-.263-.4-.721.127-1.024l5.609-3.238a1.968 1.968 0 011.773-.074l5.662 3.268c.455.263.4.721-.128 1.024l-5.609 3.238a1.97 1.97 0 01-1.773.074z" fill="#545cb3"/><path data-name="Path 2887" d="M144.194 188.201l-5.662-3.268c-.455-.263-.4-.721.128-1.024l5.609-3.238a1.97 1.97 0 011.774-.074l5.661 3.268c.454.263.4.721-.127 1.024l-5.609 3.239a1.97 1.97 0 01-1.774.073z" fill="#545cb3"/><path data-name="Path 2888" d="M152.937 193.248l-5.661-3.268c-.454-.262-.4-.72.127-1.024l5.609-3.238a1.974 1.974 0 011.773-.074l5.661 3.269c.455.262.4.72-.128 1.024l-5.609 3.238a1.973 1.973 0 01-1.772.073z" fill="#545cb3"/><path data-name="Path 2889" d="M161.68 198.298l-5.662-3.269c-.454-.262-.4-.72.128-1.024l5.609-3.238a1.972 1.972 0 011.774-.073l5.661 3.268c.454.263.4.72-.127 1.024l-5.61 3.238a1.974 1.974 0 01-1.773.074z" fill="#545cb3"/><path data-name="Path 2890" d="M170.422 203.344l-5.661-3.268c-.456-.263-.4-.721.127-1.024l5.61-3.239a1.97 1.97 0 011.773-.073l5.661 3.268c.455.263.4.721-.128 1.024l-5.61 3.238a1.967 1.967 0 01-1.772.074z" fill="#545cb3"/><path data-name="Path 2891" d="M179.165 208.387l-5.662-3.268c-.454-.263-.4-.721.127-1.024l5.61-3.238a1.968 1.968 0 011.777-.07l5.661 3.268c.454.263.4.721-.127 1.024l-5.61 3.239a1.97 1.97 0 01-1.776.069z" fill="#545cb3"/><path data-name="Path 2892" d="M187.907 213.438l-5.661-3.268c-.454-.263-.4-.72.128-1.024l5.61-3.238a1.973 1.973 0 011.773-.074l5.661 3.269c.455.262.4.72-.127 1.024l-5.609 3.238a1.971 1.971 0 01-1.775.073z" fill="#545cb3"/><path data-name="Path 2893" d="M196.649 218.486l-5.661-3.269c-.455-.262-.4-.72.127-1.024l5.61-3.238a1.97 1.97 0 011.773-.073l5.662 3.268c.454.263.4.72-.128 1.024l-5.609 3.238a1.975 1.975 0 01-1.774.074z" fill="#545cb3"/><path data-name="Path 2894" d="M205.388 223.534l-5.661-3.268c-.455-.263-.4-.721.128-1.024l5.609-3.239a1.973 1.973 0 011.774-.073l5.661 3.268c.454.263.4.721-.127 1.024l-5.609 3.238a1.968 1.968 0 01-1.775.074z" fill="#545cb3"/><path data-name="Path 2895" d="M214.134 228.581l-5.656-3.268c-.454-.263-.4-.721.127-1.024l5.61-3.238a1.968 1.968 0 011.773-.074l5.661 3.268c.454.263.4.721-.128 1.024l-5.609 3.238a1.97 1.97 0 01-1.778.074z" fill="#545cb3"/><path data-name="Path 2896" d="M148.333 180.764l-5.661-3.269c-.454-.262-.4-.72.127-1.024l5.61-3.238a1.97 1.97 0 011.773-.073l5.662 3.268c.454.263.4.72-.128 1.024l-5.609 3.238a1.976 1.976 0 01-1.774.074z" fill="#374999"/><path data-name="Path 2897" d="M139.463 175.641l-5.66-3.268c-.455-.263-.4-.721.127-1.024l5.61-3.238a1.967 1.967 0 011.773-.074l5.661 3.268c.454.263.4.721-.128 1.024l-5.608 3.238a1.971 1.971 0 01-1.775.074z" fill="#374999"/><path data-name="Path 2898" d="M130.573 170.51l-12.193-7.04c-.454-.262-.4-.72.128-1.024l5.609-3.238a1.973 1.973 0 011.773-.074l12.19 7.04c.454.263.4.721-.127 1.024l-5.61 3.238a1.967 1.967 0 01-1.77.074z" fill="#545cb3"/><path data-name="Path 2899" d="M136.786 164.27l-9.895-5.713c-.455-.262-.4-.72.128-1.024l5.609-3.238a1.972 1.972 0 011.774-.073l9.895 5.713c.454.263.4.72-.128 1.024l-5.608 3.238a1.976 1.976 0 01-1.775.073z" fill="#545cb3"/><path data-name="Path 2900" d="M157.077 185.813l-5.662-3.268c-.454-.263-.4-.721.128-1.024l5.609-3.239a1.972 1.972 0 011.774-.073l5.661 3.268c.454.263.4.721-.127 1.024l-5.61 3.238a1.967 1.967 0 01-1.773.074z" fill="#374999"/><path data-name="Path 2901" d="M165.818 190.859l-5.661-3.268c-.454-.263-.4-.721.127-1.024l5.61-3.238a1.967 1.967 0 011.773-.074l5.662 3.268c.454.263.4.721-.128 1.024l-5.609 3.238a1.969 1.969 0 01-1.774.074z" fill="#545cb3"/><path data-name="Path 2902" d="M174.561 195.906l-5.661-3.268c-.454-.263-.4-.721.128-1.024l5.609-3.238a1.976 1.976 0 011.774-.074l5.661 3.268c.454.263.4.721-.127 1.024l-5.61 3.239a1.97 1.97 0 01-1.774.073z" fill="#545cb3"/><path data-name="Path 2903" d="M183.303 200.953l-5.66-3.268c-.454-.262-.4-.72.127-1.024l5.61-3.238a1.97 1.97 0 011.773-.073l5.662 3.268c.454.262.4.72-.128 1.024l-5.609 3.238a1.972 1.972 0 01-1.775.073z" fill="#545cb3"/><path data-name="Path 2904" d="M192.046 206.002l-5.662-3.268c-.454-.263-.4-.721.128-1.024l5.609-3.239a1.972 1.972 0 011.774-.073l5.661 3.268c.454.263.4.721-.127 1.024l-5.61 3.238a1.973 1.973 0 01-1.773.074z" fill="#545cb3"/><path data-name="Path 2905" d="M200.793 211.049l-5.665-3.265c-.454-.263-.4-.721.127-1.024l5.61-3.238a1.967 1.967 0 011.773-.074l5.662 3.268c.454.263.4.721-.128 1.024l-5.609 3.238a1.969 1.969 0 01-1.77.071z" fill="#545cb3"/><path data-name="Path 2906" d="M209.531 216.096l-5.662-3.268c-.455-.263-.4-.721.128-1.024l5.609-3.238a1.97 1.97 0 011.774-.074l5.661 3.268c.454.263.4.721-.127 1.024l-5.61 3.239a1.97 1.97 0 01-1.773.073z" fill="#545cb3"/><path data-name="Path 2907" d="M218.273 221.143l-5.66-3.271c-.456-.262-.4-.72.127-1.024l5.61-3.238a1.974 1.974 0 011.773-.074l5.661 3.269c.455.262.4.72-.128 1.024l-5.61 3.243a1.97 1.97 0 01-1.773.071z" fill="#545cb3"/><path data-name="Path 2908" d="M227.016 226.192l-5.662-3.269c-.454-.262-.4-.72.127-1.024l5.61-3.238a1.97 1.97 0 011.773-.073l5.661 3.268c.455.263.4.72-.127 1.024l-5.61 3.238a1.974 1.974 0 01-1.772.074z" fill="#545cb3"/><path data-name="Path 2909" d="M242.553 235.161l-12.352-7.131c-.455-.263-.4-.721.128-1.024l5.609-3.239a1.972 1.972 0 011.774-.073l12.352 7.131c.454.263.4.721-.128 1.024l-5.609 3.239a1.972 1.972 0 01-1.774.073z" fill="#545cb3"/><path data-name="Path 2910" d="M259.579 225.338l-10.425-6.019c-.455-.263-.4-.721.127-1.024l5.609-3.238a1.97 1.97 0 011.773-.074l10.426 6.019c.455.263.4.721-.128 1.024l-5.609 3.239a1.972 1.972 0 01-1.773.073z" fill="#545cb3"/><path data-name="Path 2911" d="M172.385 184.824l-5.66-3.268c-.455-.263-.4-.721.127-1.024l5.61-3.238a1.967 1.967 0 011.773-.074l5.662 3.268c.454.263.4.721-.128 1.024l-5.609 3.238a1.97 1.97 0 01-1.775.074z" fill="#545cb3"/><path data-name="Path 2912" d="M163.425 179.651l-5.66-3.268c-.455-.263-.4-.721.127-1.024l5.61-3.238a1.967 1.967 0 011.773-.074l5.66 3.273c.454.263.4.721-.128 1.024l-5.609 3.239a1.972 1.972 0 01-1.773.068z" fill="#545cb3"/><path data-name="Path 2913" d="M154.466 174.478l-5.661-3.268c-.454-.263-.4-.721.128-1.024l5.61-3.238a1.97 1.97 0 011.773-.074l5.661 3.268c.456.263.4.721-.127 1.024l-5.609 3.239a1.971 1.971 0 01-1.775.073z" fill="#374999"/><path data-name="Path 2914" d="M145.506 169.304l-5.661-3.268c-.454-.263-.4-.721.128-1.024l5.609-3.238a1.976 1.976 0 011.774-.074l5.661 3.268c.454.263.4.721-.127 1.025l-5.61 3.238a1.97 1.97 0 01-1.774.073z" fill="#545cb3"/><path data-name="Path 2915" d="M181.128 189.871l-5.661-3.268c-.454-.263-.4-.721.128-1.024l5.609-3.238a1.976 1.976 0 011.774-.074l5.661 3.269c.454.262.4.72-.127 1.024l-5.61 3.238a1.971 1.971 0 01-1.774.073z" fill="#545cb3"/><path data-name="Path 2916" d="M189.87 194.919l-5.661-3.269c-.455-.262-.4-.72.127-1.024l5.61-3.238a1.97 1.97 0 011.773-.073l5.661 3.268c.454.262.4.72-.128 1.024l-5.609 3.238a1.976 1.976 0 01-1.773.074z" fill="#545cb3"/><path data-name="Path 2917" d="M198.613 199.966l-5.661-3.27c-.455-.263-.4-.721.128-1.024l5.609-3.239a1.973 1.973 0 011.774-.073l5.661 3.268c.455.263.4.721-.127 1.024l-5.611 3.244a1.968 1.968 0 01-1.773.07z" fill="#545cb3"/><path data-name="Path 2918" d="M207.356 205.014l-5.661-3.268c-.454-.263-.4-.721.127-1.024l5.61-3.238a1.967 1.967 0 011.773-.074l5.662 3.268c.454.263.4.721-.128 1.024l-5.609 3.238a1.97 1.97 0 01-1.774.074z" fill="#545cb3"/><path data-name="Path 2919" d="M216.099 210.061l-5.661-3.268c-.454-.263-.4-.721.128-1.024l5.609-3.238a1.973 1.973 0 011.774-.074l5.66 3.268c.455.263.4.721-.127 1.024l-5.606 3.236a1.971 1.971 0 01-1.777.076z" fill="#545cb3"/><path data-name="Path 2920" d="M224.84 215.108l-5.661-3.268c-.455-.262-.4-.72.127-1.024l5.61-3.238a1.974 1.974 0 011.773-.074l5.662 3.269c.454.262.4.72-.128 1.024l-5.609 3.238a1.97 1.97 0 01-1.774.073z" fill="#545cb3"/><path data-name="Path 2921" d="M233.584 220.156l-5.661-3.268c-.454-.263-.4-.721.127-1.024l5.609-3.239a1.971 1.971 0 011.773-.073l5.661 3.268c.454.263.4.721-.127 1.024l-5.61 3.238a1.974 1.974 0 01-1.772.074z" fill="#545cb3"/><path data-name="Path 2922" d="M242.326 225.204l-5.661-3.268c-.454-.263-.4-.721.128-1.024l5.609-3.238a1.968 1.968 0 011.773-.074l5.661 3.268c.455.263.4.721-.127 1.024l-5.609 3.238a1.967 1.967 0 01-1.774.074z" fill="#545cb3"/><path data-name="Path 2923" d="M251.068 230.251l-5.661-3.268c-.454-.263-.4-.721.127-1.024l5.609-3.238a1.968 1.968 0 011.773-.074l5.662 3.268c.454.263.4.721-.128 1.024l-5.609 3.239a1.972 1.972 0 01-1.773.073z" fill="#545cb3"/><path data-name="Path 2924" d="M167.783 172.339l-5.662-3.268c-.454-.263-.4-.721.128-1.024l5.609-3.238a1.973 1.973 0 011.774-.074l5.661 3.268c.454.263.4.721-.127 1.024l-5.609 3.239a1.971 1.971 0 01-1.774.073z" fill="#545cb3"/><path data-name="Path 2925" d="M159.084 167.317l-5.662-3.268c-.454-.263-.4-.721.128-1.024l5.609-3.238a1.97 1.97 0 011.774-.074l5.661 3.268c.454.263.4.721-.127 1.024l-5.61 3.239a1.97 1.97 0 01-1.773.073z" fill="#545cb3"/><path data-name="Path 2926" d="M150.384 162.294l-5.661-3.268c-.454-.263-.4-.721.128-1.024l5.609-3.238a1.97 1.97 0 011.774-.074l5.661 3.268c.454.263.4.721-.127 1.024l-5.61 3.238a1.967 1.967 0 01-1.774.074z" fill="#545cb3"/><path data-name="Path 2927" d="M141.685 157.272l-5.662-3.268c-.454-.263-.4-.721.128-1.024l5.609-3.235a1.969 1.969 0 011.774-.074l5.661 3.268c.455.263.4.721-.127 1.024l-5.609 3.238a1.967 1.967 0 01-1.774.071z" fill="#545cb3"/><path data-name="Path 2928" d="M150.63 152.109l-5.661-3.269c-.454-.262-.4-.72.127-1.024l1.855-1.07a1.967 1.967 0 011.773-.074l5.661 3.268c.454.263.4.721-.128 1.024l-1.854 1.071a1.976 1.976 0 01-1.773.074z" fill="#545cb3"/><path data-name="Path 2929" d="M161.982 158.662l-5.66-3.268c-.455-.263-.4-.721.127-1.024l1.855-1.071a1.97 1.97 0 011.773-.073l5.661 3.268c.455.263.4.72-.127 1.024l-1.854 1.071a1.973 1.973 0 01-1.775.073z" fill="#545cb3"/><path data-name="Path 2930" d="M170.645 163.663l-5.661-3.268c-.455-.263-.4-.72.128-1.024l1.854-1.071a1.972 1.972 0 011.774-.073l5.661 3.268c.454.263.4.721-.127 1.024l-1.855 1.071a1.971 1.971 0 01-1.774.073z" fill="#545cb3"/><path data-name="Path 2931" d="M179.309 168.665l-5.661-3.268c-.455-.262-.4-.72.128-1.024l1.854-1.07a1.968 1.968 0 011.773-.074l5.661 3.268c.454.263.4.721-.128 1.024l-1.854 1.071a1.971 1.971 0 01-1.773.073z" fill="#545cb3"/><path data-name="Path 2932" d="M187.971 173.667l-5.661-3.269c-.454-.262-.4-.72.127-1.024l1.855-1.07a1.968 1.968 0 011.773-.074l5.661 3.268c.455.263.4.721-.128 1.024l-1.854 1.071a1.976 1.976 0 01-1.773.074z" fill="#545cb3"/><path data-name="Path 2933" d="M236.333 201.592l-5.66-3.268c-.455-.263-.4-.721.127-1.024l1.855-1.071a1.968 1.968 0 011.773-.074l5.661 3.268c.456.263.4.721-.127 1.024l-1.854 1.071a1.973 1.973 0 01-1.775.074z" fill="#545cb3"/><path data-name="Path 2934" d="M244.997 206.586l-5.661-3.268c-.455-.263-.4-.721.128-1.024l1.854-1.071a1.974 1.974 0 011.773-.074l5.662 3.268c.454.263.4.721-.127 1.024l-1.855 1.071a1.968 1.968 0 01-1.774.074z" fill="#545cb3"/><path data-name="Path 2935" d="M253.659 211.592l-5.661-3.268c-.455-.263-.4-.721.127-1.024l1.855-1.071a1.973 1.973 0 011.773-.074l5.661 3.269c.455.262.4.72-.128 1.024l-1.853 1.07a1.969 1.969 0 01-1.774.074z" fill="#545cb3"/><path data-name="Path 2936" d="M262.323 216.593l-5.661-3.268c-.456-.263-.4-.721.127-1.024l1.854-1.071a1.972 1.972 0 011.774-.073l5.661 3.268c.454.262.4.72-.127 1.024l-1.855 1.071a1.97 1.97 0 01-1.773.073z" fill="#545cb3"/><path data-name="Path 2937" d="M176.521 177.386l-5.656-3.264c-.456-.262-.4-.72.127-1.024l5.61-3.238a1.974 1.974 0 011.773-.074l5.661 3.269c.454.262.4.72-.128 1.024l-5.61 3.238a1.971 1.971 0 01-1.777.069z" fill="#545cb3"/><path data-name="Path 2938" d="M185.268 182.434l-5.657-3.268c-.454-.263-.4-.721.127-1.024l5.61-3.239a1.97 1.97 0 011.773-.073l5.662 3.268c.454.263.4.721-.127 1.024l-5.61 3.238a1.974 1.974 0 01-1.778.074z" fill="#545cb3"/><path data-name="Path 2939" d="M194.01 187.482l-5.662-3.268c-.454-.263-.4-.721.128-1.024l5.61-3.238a1.967 1.967 0 011.773-.074l5.661 3.268c.455.263.4.721-.127 1.024l-5.61 3.238a1.967 1.967 0 01-1.773.074z" fill="#545cb3"/><path data-name="Path 2940" d="M202.752 192.529l-5.66-3.268c-.455-.263-.4-.721.127-1.024l5.609-3.238a1.968 1.968 0 011.773-.074l5.661 3.268c.454.263.4.721-.128 1.024l-5.609 3.239a1.973 1.973 0 01-1.773.073z" fill="#545cb3"/><path data-name="Path 2941" d="M211.495 197.576l-5.662-3.268c-.455-.263-.4-.72.128-1.024l5.609-3.238a1.976 1.976 0 011.774-.074l5.661 3.269c.455.262.4.72-.127 1.024l-5.61 3.238a1.97 1.97 0 01-1.773.073z" fill="#545cb3"/><path data-name="Path 2942" d="M220.236 202.624l-5.66-3.269c-.454-.262-.4-.72.127-1.024l5.609-3.238a1.97 1.97 0 011.773-.073l5.662 3.268c.454.263.4.72-.128 1.024l-5.609 3.238a1.976 1.976 0 01-1.774.074z" fill="#545cb3"/><path data-name="Path 2943" d="M228.981 207.672l-5.662-3.268c-.454-.263-.4-.721.128-1.024l5.609-3.239a1.973 1.973 0 011.774-.073l5.66 3.268c.454.263.4.721-.127 1.024l-5.61 3.238a1.968 1.968 0 01-1.772.074z" fill="#545cb3"/><path data-name="Path 2944" d="M237.722 212.719l-5.661-3.268c-.454-.263-.4-.721.127-1.024l5.609-3.238a1.968 1.968 0 011.773-.074l5.661 3.268c.455.263.4.721-.128 1.024l-5.609 3.238a1.97 1.97 0 01-1.772.074z" fill="#545cb3"/><path data-name="Path 2945" d="M246.465 217.766l-5.662-3.268c-.454-.263-.4-.721.128-1.024l5.61-3.238a1.976 1.976 0 011.774-.074l5.661 3.269c.455.262.4.72-.127 1.024l-5.61 3.238a1.97 1.97 0 01-1.774.073z" fill="#545cb3"/><path data-name="Path 2946" d="M126.543 178.01l-16.673-9.626c-.454-.262-.4-.72.128-1.024l5.609-3.238a1.973 1.973 0 011.774-.073l16.672 9.626c.455.262.4.72-.127 1.024l-5.61 3.238a1.97 1.97 0 01-1.773.073z" fill="#545cb3"/><path data-name="Path 2947" d="M233.947 240.02l-16.673-9.626c-.455-.263-.4-.721.128-1.024l5.609-3.239a1.973 1.973 0 011.774-.073l16.672 9.626c.455.262.4.72-.127 1.024l-5.609 3.238a1.974 1.974 0 01-1.774.074z" fill="#545cb3"/><path data-name="Path 2948" d="M198.984 230.983l-5.662-3.268c-.454-.263-.4-.721.128-1.024l6.681-3.859a1.972 1.972 0 011.774-.073l5.661 3.268c.454.263.4.721-.127 1.024l-6.682 3.858a1.967 1.967 0 01-1.773.074z" fill="#545cb3"/><path data-name="Path 2949" d="M135.496 194.328l-9.054-5.222c-.454-.263-.4-.72.128-1.024l6.681-3.858a1.972 1.972 0 011.774-.074l9.054 5.227c.454.263.4.721-.128 1.024l-6.68 3.854a1.97 1.97 0 01-1.775.073z" fill="#545cb3"/><path data-name="Path 2950" d="M190.561 226.12l-9.052-5.227c-.455-.263-.4-.721.128-1.024l6.683-3.858a1.967 1.967 0 011.773-.074l9.054 5.227c.454.263.4.721-.127 1.024l-6.682 3.859a1.97 1.97 0 01-1.777.073z" fill="#545cb3"/><path data-name="Path 2951" d="M148.109 201.611l-9.052-5.227c-.454-.263-.4-.721.127-1.024l6.682-3.858a1.969 1.969 0 011.774-.074l9.054 5.227c.455.263.4.721-.128 1.024l-6.682 3.858a1.967 1.967 0 01-1.775.074z" fill="#545cb3"/><path data-name="Path 2952" d="M147.7 191.463l39.363 22.727a.539.539 0 010 1.021l-6.814 3.934a1.951 1.951 0 01-1.769 0l-39.363-22.727z" fill="#545cb3"/><path data-name="Path 2953" d="M223.418 240.135l6.306 3.641c.372.215.327.59-.1.839l-2.734 1.578a1.611 1.611 0 01-1.453.06l-6.306-3.641c-.373-.215-.326-.59.1-.839l2.733-1.578a1.618 1.618 0 011.454-.06z" fill="#545cb3"/><path data-name="Path 2954" d="M214.603 235.048l6.306 3.641c.373.215.327.59-.1.839l-2.734 1.578a1.611 1.611 0 01-1.453.06l-6.306-3.641c-.373-.215-.326-.59.1-.839l2.733-1.578a1.619 1.619 0 011.454-.06z" fill="#545cb3"/><path data-name="Path 2955" d="M205.861 229.999l6.306 3.641c.372.215.326.59-.1.839l-2.738 1.575a1.618 1.618 0 01-1.453.06l-6.306-3.641c-.373-.215-.327-.59.1-.839l2.738-1.58a1.611 1.611 0 011.453-.055z" fill="#545cb3"/><path data-name="Path 2956" d="M219.431 232.258l6.306 3.641c.372.216.326.591-.105.839l-2.733 1.578a1.617 1.617 0 01-1.454.061l-6.306-3.641c-.373-.216-.326-.591.1-.839l2.733-1.578a1.617 1.617 0 011.459-.061z" fill="#545cb3"/></g></g></g><g data-name="Group 1740"><path data-name="Path 2957" d="M206.542 113.946l-41.5-23.963a4.421 4.421 0 01-1.847-3.528V53.799c0-1.359.827-1.984 1.847-1.4l41.5 23.963a4.421 4.421 0 011.846 3.528v32.656c.001 1.364-.826 1.988-1.846 1.4z" fill="#8dd6f2" opacity=".4"/><g data-name="Group 1739"><path data-name="Path 2958" d="M177.588 91.892l-.292-.169a4.689 4.689 0 01-1.96-3.743V72.418c0-1.442.877-2.106 1.96-1.48l.292.169a4.691 4.691 0 011.959 3.743v15.561c0 1.442-.877 2.105-1.959 1.481z" fill="#b2d3ea"/><path data-name="Path 2959" d="M185.936 96.711l-.293-.169a4.691 4.691 0 01-1.959-3.743V83.69c0-1.442.877-2.106 1.959-1.48l.293.168a4.693 4.693 0 011.959 3.744v9.108c0 1.442-.877 2.105-1.959 1.481z" fill="#b2d3ea"/><path data-name="Path 2960" d="M194.283 101.531l-.293-.169a4.693 4.693 0 01-1.959-3.743v-21.68c0-1.442.877-2.106 1.959-1.481l.293.169a4.691 4.691 0 011.959 3.743v21.68c0 1.442-.877 2.105-1.959 1.481z" fill="#374999"/></g></g><g data-name="Group 1741"><path data-name="Path 2961" d="M246.114 105.165l-25.785-14.887a4.146 4.146 0 01-1.732-3.308c0-1.275.775-1.861 1.732-1.309l25.785 14.887a4.148 4.148 0 011.731 3.308c0 1.275-.779 1.862-1.731 1.309z" fill="#b2d3ea"/><path data-name="Path 2962" d="M229.526 104.656l-9.2-5.311a4.142 4.142 0 01-1.732-3.307c0-1.276.775-1.861 1.732-1.31l9.2 5.311a4.146 4.146 0 011.732 3.308c0 1.275-.775 1.861-1.732 1.309z" fill="#b2d3ea"/><path data-name="Path 2963" d="M244.963 113.569l-9.2-5.311a4.147 4.147 0 01-1.731-3.308c0-1.275.775-1.861 1.731-1.309l9.2 5.311a4.146 4.146 0 011.731 3.308c0 1.275-.775 1.861-1.731 1.309z" fill="#374999"/><path data-name="Path 2964" d="M264.361 124.804l-13.16-7.632a4.148 4.148 0 01-1.731-3.308c0-1.275.775-1.861 1.731-1.309l13.16 7.633a4.147 4.147 0 011.731 3.308c.001 1.274-.775 1.86-1.731 1.308z" fill="#b2d3ea"/><path data-name="Path 2965" d="M252.546 127.015l-32.218-18.6a4.142 4.142 0 01-1.732-3.307c0-1.276.775-1.861 1.732-1.31l32.218 18.6a4.145 4.145 0 011.731 3.307c.001 1.276-.775 1.862-1.731 1.31z" fill="#b2d3ea"/><path data-name="Path 2966" d="M266.092 143.801l-45.764-26.314a4.142 4.142 0 01-1.732-3.307c0-1.276.775-1.861 1.732-1.309l45.764 26.316a4.149 4.149 0 011.731 3.308c0 1.272-.775 1.858-1.731 1.306z" fill="#374999"/><path data-name="Path 2967" d="M269.962 118.897l-16.73-9.619a4.148 4.148 0 01-1.731-3.308c0-1.275.775-1.861 1.731-1.309l16.73 9.619a4.145 4.145 0 011.731 3.307c0 1.274-.775 1.859-1.731 1.31z" fill="#b2d3ea"/></g><g data-name="Group 1742"><path data-name="Path 2968" d="M171.229 119.584l-8.141-4.7v9.4l8.141 4.7z" fill="#374999"/><path data-name="Path 2969" d="M184.086 119.249l-8.141-4.7v17.166l8.141 4.7z" fill="#8dd6f2"/><path data-name="Path 2970" d="M196.946 131.577l-8.141-4.7v12.261l8.141 4.7z" fill="#8dd6f2"/><path data-name="Path 2971" d="M209.806 135.46l-8.141-4.7v15.8l8.141 4.7z" fill="#8dd6f2"/><path data-name="Path 2972" d="M222.67 143.84l-8.141-4.7v14.849l8.141 4.7z" fill="#374999"/><path data-name="Path 2973" d="M235.527 147.526l-8.141-4.7v18.588l8.141 4.7z" fill="#545cb3"/><path data-name="Path 2974" d="M248.387 152.967l-8.141-4.7v20.571l8.141 4.7z" fill="#8dd6f2"/><path data-name="Path 2975" d="M261.247 155.375l-8.141-4.7v25.588l8.141 4.7z" fill="#374999"/></g><g data-name="Group 1743" fill="#39b3e3"><path data-name="Rectangle 206" d="M317.875 114.594l.456 1.783-5.18 1.326-.456-1.783z"/><path data-name="Rectangle 207" d="M315.234 117.171l.456 1.783-5.18 1.326-.456-1.783z"/><path data-name="Rectangle 208" d="M312.592 119.748l.456 1.783-5.18 1.326-.456-1.783z"/><path data-name="Rectangle 209" d="M309.95 122.325l.457 1.783-5.179 1.328-.457-1.784z"/></g><path data-name="Path 2976" d="M209.414 224.313l-16.405-9.472-16.405 9.472 16.405 9.472z" fill="#2c5289"/><path data-name="Path 2977" d="M157.701 225.968l-16.405-9.472-16.405 9.472 16.406 9.472z" fill="#2c5289"/><path data-name="Path 2978" d="M122.983 206.078l-16.405-9.472-16.406 9.472 16.405 9.472z" fill="#2c5289"/><g data-name="Group 1748"><g data-name="Group 1747"><g data-name="Group 1744"><path data-name="Path 2979" d="M141.297 225.967v-50.515l16.405-9.472v50.515z" fill="#c13d1a"/><path data-name="Path 2980" d="M157.702 165.979l-16.405-9.472-16.406 9.472 16.406 9.472z" fill="#ef602e"/><path data-name="Path 2981" d="M141.296 175.452l-16.406-9.472v50.515l16.406 9.472z" fill="#39b3e3"/><path data-name="Path 2982" d="M141.297 225.967v-50.515l16.405-9.472v50.515z" fill="#374999"/><path data-name="Path 2983" d="M157.702 165.979l-16.405-9.472-16.406 9.472 16.406 9.472z" fill="#8dd6f2"/></g><g data-name="Group 1745"><path data-name="Path 2984" d="M176.115 246.342v-28.415l16.406-9.472v28.415z" fill="#545cb3"/><path data-name="Path 2985" d="M176.12 217.927l-16.406-9.472v28.415l16.405 9.472z" fill="#374999"/><path data-name="Path 2986" d="M192.525 208.454l-16.405-9.472-16.406 9.472 16.405 9.472z" fill="#8dd6f2"/></g><g data-name="Group 1746"><path data-name="Path 2987" d="M106.578 206.078V136.62l16.406-9.472v69.459z" fill="#8dd6f2"/><path data-name="Path 2988" d="M106.579 136.62l-16.406-9.472v69.459l16.406 9.472z" fill="#374999"/><path data-name="Path 2989" d="M122.984 127.149l-16.405-9.468-16.406 9.472 16.406 9.472z" fill="#39b3e3"/></g></g></g><g data-name="Group 1753"><g data-name="Group 1750"><path data-name="Path 2990" d="M96.806 166.414s-2.709-1.365-4.372.668-4.042 6.836-4.115 10.081 2.567 3.026 4.137 2.257 6.157-7.422 6.434-8.725a4.522 4.522 0 00-.769-3.411c-.44-.344-1.315-.87-1.315-.87z" fill="#39b3e3"/><path data-name="Path 2991" d="M97.397 165.762l.125 2.806a1.591 1.591 0 01-.793 1.46 3.118 3.118 0 01-2.09.325c-2.04-.328-2.222-.911-2.368-3.717s5.126-.874 5.126-.874z" fill="#8dd6f2"/><g data-name="Group 1749"><path data-name="Path 2992" d="M86.89 161.018s-2.709-1.366-4.372.668-4.041 6.835-4.115 10.081 2.568 3.026 4.137 2.257 6.157-7.422 6.435-8.725a4.529 4.529 0 00-.768-3.411c-.442-.344-1.317-.87-1.317-.87z" fill="#39b3e3"/><path data-name="Path 2993" d="M87.481 160.365l.125 2.807a1.591 1.591 0 01-.792 1.46 3.131 3.131 0 01-2.089.325c-2.041-.328-2.224-.911-2.37-3.717s5.126-.875 5.126-.875z" fill="#8dd6f2"/><path data-name="Path 2994" d="M111.652 108.843c-.8-13.045-14.127 1.919-14.127 1.919l-9.121 8.94-8.213 9.022a8.091 8.091 0 00-2.039 6.5l3.322 25.3a2.486 2.486 0 002.493 2.162 8.6 8.6 0 001.23-.108 3.091 3.091 0 002.745-3.28l-.607-23.66 17.248-10.4s7.87-3.351 7.069-16.395z" fill="#545cb3"/></g><path data-name="Path 2995" d="M121.568 113.813c-.8-13.045-14.128 1.919-14.128 1.919l-9.12 8.939-8.213 9.023a8.088 8.088 0 00-2.04 6.5l3.322 25.3a2.485 2.485 0 002.492 2.161 8.331 8.331 0 001.232-.108 3.09 3.09 0 002.745-3.279l-.607-23.66 17.247-10.4s7.871-3.351 7.07-16.395z" fill="#545cb3"/><path data-name="Path 2996" d="M113.684 71.935c10.1 4.188 9.9 10.16 9.9 10.16s-1.98 21.893-1.3 36.514c.282 6.112-32.476 6.579-27.591-9.728 5.76-19.227 3.6-34.792 6.3-37.141s10.078-.884 12.691.195z" fill="#39b3e3"/><path data-name="Path 2997" d="M116.934 77.233c-.528 2.052-3.215 3.132-6 2.414s-4.618-2.963-4.089-5.013 3.215-3.132 6-2.414 4.617 2.963 4.089 5.013z" fill="#ffc2b0"/><path data-name="Path 2998" d="M112.636 80.351a7.318 7.318 0 01-1.826-.236c-3.039-.782-5.029-3.3-4.436-5.6s3.549-3.547 6.592-2.762a6.716 6.716 0 013.541 2.169 3.862 3.862 0 01.895 3.434c-.474 1.834-2.446 2.995-4.766 2.995zm-1.52-7.871c-1.876 0-3.444.873-3.807 2.275-.461 1.79 1.219 3.775 3.743 4.426s4.953-.278 5.415-2.069a2.928 2.928 0 00-.708-2.581 5.758 5.758 0 00-3.035-1.844 6.465 6.465 0 00-1.608-.207z" fill="#fff"/><path data-name="Path 2999" d="M109.633 71.484a24.961 24.961 0 01-.088 3.607c-.055 1.006 3.469 1.946 4.38 1.035s.546-1.858.765-5.283-5.057.641-5.057.641z" fill="#ffc2b0"/><path data-name="Path 3000" d="M114.689 70.842s-.868 3.175-5.146 4.394l.065-2.887z" fill="#ea9c92"/><path data-name="Path 3001" d="M117.398 62.773a7.775 7.775 0 01-5.581 9.475 7.776 7.776 0 01-9.475-5.583 7.776 7.776 0 015.582-9.475 7.776 7.776 0 019.474 5.583z" fill="#ffc2b0"/><path data-name="Path 3002" d="M111.658 65.005s-4.281 1.834-7.246 1.855-2.312-2.461-2.312-2.461l8.8-1.272z" fill="#ea9c92"/><path data-name="Path 3003" d="M103.529 65.489a13.89 13.89 0 017-.923 3.43 3.43 0 011.977 1.175 1.172 1.172 0 00.6.434c.58.131 1.53-2.276 2.658-2.331s1.88.744.956 2.224-.612 3.137-.187 3.374 4.938-3.218.957-11.1-14.092-3.639-15.664-2.041c0 0-1.657 1.443-3 .159-.005-.006-1.515 11.309 4.703 9.029z" fill="#61b3ff"/><path data-name="Path 3004" d="M117.917 98.094v5.916a2.413 2.413 0 01-.786 1.781l-12.153 11.079 1.38 2.112 16.05-11.64a3.26 3.26 0 001.328-2.3l1.085-10.317z" fill="#ffc2b0"/><path data-name="Path 3005" d="M122.729 79.141s3.687 5.545 5.06 20.14c0 0-6.3 2.037-9.872.88s4.812-21.02 4.812-21.02z" fill="#39b3e3"/><path data-name="Path 3006" d="M117.243 86.152a102.888 102.888 0 00-1.525 11.355 2.317 2.317 0 001.525 2.238z" fill="#374999"/></g><g data-name="Group 1751"><path data-name="Path 3007" d="M114.09 124.563l-2.686-.355-17.338-10.011a2.411 2.411 0 00-2.168.09l-12.287 7.091-1.624-.215v1.622a.631.631 0 00.372.569l19.651 11.345a2.411 2.411 0 002.168-.09l13.38-7.722a.874.874 0 00.53-.729z" fill="#39b3e3"/><path data-name="Path 3008" d="M101.063 118.238l-1.233-.711H86.288l-6.677 3.852-1.624-.215v1.617a.631.631 0 00.372.569l19.651 11.345a2.026 2.026 0 001.119.21z" fill="#374999"/><path data-name="Path 3009" d="M78.707 121.26l-.721-.1v1.617a.631.631 0 00.372.569l.347.2z" fill="#39b3e3"/><path data-name="Path 3010" d="M98.209 134.788a2.515 2.515 0 001.842-.114v-2.751h-1.842z" fill="#fff"/><path data-name="Path 3011" d="M98.011 133.08L78.36 121.736c-.555-.322-.485-.882.156-1.253l13.381-7.722a2.411 2.411 0 012.168-.09l19.65 11.345c.556.321.486.881-.156 1.252l-13.38 7.722a2.408 2.408 0 01-2.168.09z" fill="#fff"/><path data-name="Path 3012" d="M97.678 131.36l-16.339-9.433c-.462-.267-.4-.733.13-1.041l7.17-4.032a2.008 2.008 0 011.8-.075l16.338 9.433c.463.267.4.733-.13 1.042l-7.17 4.031a2 2 0 01-1.799.075z" fill="#8dd6f2"/></g><path data-name="Path 3013" d="M92.657 112.388l-.2 1.356a10.009 10.009 0 00.088 3.476l.242 1.195a1.681 1.681 0 001.346 1.319.925.925 0 001.087-.808l.324-2.9s.742.972 1.1.972-.4-2.9-1.211-4.546-2.776-.064-2.776-.064z" fill="#ffc2b0"/><path data-name="Path 3014" d="M99.318 90.839l-2.108 4.177a8.2 8.2 0 00-.863 3.167l-.916 14.274-2.774-.066-1.259-16.03a5.837 5.837 0 01.072-1.481l1.437-8.129z" fill="#ffc2b0"/><g data-name="Group 1752"><path data-name="Path 3015" d="M97.345 134.17l-1.647-2.151-17.327-10.032a2.41 2.41 0 01-1-1.924l.015-14.186-1-1.3.936-.542a.634.634 0 01.679.04l19.637 11.368a2.41 2.41 0 011 1.925l-.011 15.449a.875.875 0 01-.367.824z" fill="#545cb3"/><path data-name="Path 3016" d="M85.364 126.036l-1.232-.713-6.757-11.737.007-7.708-1-1.3.936-.542a.634.634 0 01.679.04l19.637 11.368a2.033 2.033 0 01.74.866z" fill="#374999"/><path data-name="Path 3017" d="M76.827 105.155l-.442-.577.936-.542a.634.634 0 01.679.04l.347.2z" fill="#39b3e3"/><path data-name="Path 3018" d="M97.817 115.57a2.515 2.515 0 01.82 1.654l-1.919 1.108-.919-1.6z" fill="#2c5289"/><path data-name="Path 3019" d="M96.704 115.985l-19.636-11.368c-.555-.322-1.007.018-1.008.759l-.016 15.449a2.41 2.41 0 001 1.924l19.637 11.369c.555.322 1.006-.019 1.007-.76l.017-15.448a2.409 2.409 0 00-1.001-1.925z" fill="#39b3e3"/></g><path data-name="Path 3020" d="M106.359 118.982l-.314.652a4.366 4.366 0 01-1.641 1.819l-1.951 1.2a1.943 1.943 0 01-1.991.046l-.066-.04a1.173 1.173 0 01-.166-1.8l2.038-2.1s-1.145.878-1.466.524c-.235-.259 1.111-1.522 2.144-1.564a4.074 4.074 0 002.033-.853z" fill="#ffc2b0"/><path data-name="Path 3021" d="M101.19 71.715s-7.471 8.13-10.486 15.588a15.256 15.256 0 008.81 6.41c6.254 1.806 1.676-21.998 1.676-21.998z" fill="#39b3e3"/><path data-name="Path 3022" d="M98.105 93.231l1.212-11.7-2.854 10.962a16.536 16.536 0 001.642.738z" fill="#374999"/><path data-name="Path 3023" d="M106.787 70.074l-2.008-.551a4.849 4.849 0 002.358 1.892c1.4.385 1.617-.8 1.617-.8z" fill="#fff"/></g><g data-name="Group 1759"><g data-name="Group 1758"><g data-name="Group 1754"><path data-name="Path 3024" d="M35.161 272.208l12.336.193a13.1 13.1 0 013.9-3.276c6.784-3.917 17.451-4.219 24.842-.914l7.331-6.893 11.286.176a35.378 35.378 0 00-1.734-1.074c-15.686-9.057-41.117-9.057-56.8 0a29.856 29.856 0 00-7.057 5.5z" fill="#545cb3"/><path data-name="Path 3025" d="M94.851 243.579v17.914l-11.287-.176v-17.914z" fill="#39b3e3"/><path data-name="Path 3026" d="M76.234 250.297v17.914l7.33-6.894v-17.914z" fill="#545cb3"/><path data-name="Path 3027" d="M47.497 254.486V272.4l16.228-13.224 12.51 9.034v-17.913l-11.519-5.588s-15.857 4.854-16.681 5.06-.538 4.717-.538 4.717z" fill="#545cb3"/><path data-name="Path 3028" d="M35.161 254.294v17.914l12.336.192v-17.914z" fill="#545cb3"/><path data-name="Path 3029" d="M29.256 248.004v17.914l5.9 6.291v-17.914z" fill="#39b3e3"/><path data-name="Path 3030" d="M35.161 254.294l12.336.192a13.114 13.114 0 013.9-3.275c6.784-3.917 17.451-4.219 24.842-.914l7.331-6.894 11.286.176a36.981 36.981 0 00-1.734-1.074c-15.686-9.056-41.117-9.056-56.8 0a29.805 29.805 0 00-7.057 5.5z" fill="#8dd6f2"/></g><g data-name="Group 1756"><path data-name="Path 3031" d="M79.95 252.5v16.467l10.674-2.558s-.626-9.636-.854-9.893-9.82-4.016-9.82-4.016z" fill="#39b3e3"/><g data-name="Group 1755"><path data-name="Path 3032" d="M71.869 268.967v17.915l1.154 1.229 7.527-4.34s-1.167-13.674-1.3-13.949-7.381-.855-7.381-.855z" fill="#545cb3"/><path data-name="Path 3033" d="M86.406 264.344l-6.455 6.07c5.378 4.255 4.741 10.253-1.911 14.094a22.954 22.954 0 01-6.17 2.374l6.672 7.109-5.909 5.56a53.718 53.718 0 0020.489-6.337c13.484-7.785 15.364-19.726 5.665-28.677z" fill="#374999"/><path data-name="Path 3034" d="M72.632 281.637v17.914l14.639-5.653 17.606-16.8-.065-19.022-18.627 14.764z" fill="#374999"/><path data-name="Path 3035" d="M86.406 246.434l-6.455 6.071c5.378 4.255 4.741 10.253-1.911 14.094a22.954 22.954 0 01-6.17 2.373l6.672 7.109-5.909 5.553a53.736 53.736 0 0020.489-6.337c13.484-7.785 15.364-19.726 5.665-28.678z" fill="#8dd6f2"/></g></g><g data-name="Group 1757"><path data-name="Path 3036" d="M72.581 293.899l-5.881-6.266c-5.46.332-11.122-.708-15.307-3.124-4.322-2.5-6.1-5.9-5.347-9.148l-14.005-.219-5.384-5.733c-4.711 8.085-1.5 17.369 9.658 23.81 8.2 4.732 19.054 6.986 29.792 6.772z" fill="#374999"/><path data-name="Path 3037" d="M66.107 282.073v17.914L24.56 276.964v-17.923l6.066 2.452z" fill="#374999"/><path data-name="Path 3038" d="M72.582 275.984v17.917l-6.474 6.089v-17.917z" fill="#545cb3"/><path data-name="Path 3039" d="M72.581 275.984l-5.881-6.265c-5.46.332-11.122-.709-15.307-3.124-4.322-2.5-6.1-5.9-5.347-9.149l-14.005-.218-5.385-5.737c-4.711 8.084-1.5 17.369 9.658 23.809 8.2 4.733 19.054 6.987 29.792 6.773z" fill="#39b3e3"/></g></g></g><g data-name="Group 1760"><path data-name="Path 3040" d="M96.85 33.402l1.068-1.812a2.6 2.6 0 001.85.191 3.6 3.6 0 001.969-2.055 6.317 6.317 0 017.028-3.861l-.5 2.043.252-1.021-.244 1.023c-.306-.071-3.037-.588-4.639 2.73a5.539 5.539 0 01-3.273 3.159 4.637 4.637 0 01-3.511-.397z" fill="#39b3e3"/></g><path data-name="Path 3041" d="M63.404 102.408a9.651 9.651 0 01-9.64-9.641 9.65 9.65 0 019.64-9.64 9.651 9.651 0 019.641 9.64 9.651 9.651 0 01-9.641 9.641zm0-17.178a7.546 7.546 0 00-7.537 7.537 7.546 7.546 0 007.537 7.537 7.546 7.546 0 007.537-7.537 7.546 7.546 0 00-7.537-7.537z" fill="#8dd6f2"/><path data-name="Path 3042" d="M6.835 235.594a6.836 6.836 0 116.836-6.836 6.844 6.844 0 01-6.836 6.836zm0-11.569a4.733 4.733 0 104.734 4.733 4.738 4.738 0 00-4.734-4.732z" fill="#39b3e3"/><path data-name="Path 3043" d="M49.286 158.811l-4.639-9.438 9.437-4.64 4.641 9.438zm-1.824-8.478l2.784 5.664 5.664-2.785-2.786-5.662z" fill="#39b3e3"/><path data-name="Rectangle 210" fill="#39b3e3" d="M277.464 57.539l4.337-2.132 2.132 4.337-4.337 2.132z"/><g data-name="Group 1761" fill="#8dd6f2"><path data-name="Rectangle 211" d="M190.445 7.065L197.51 0l1.487 1.486-7.066 7.065z"/><path data-name="Rectangle 212" d="M190.445 1.487l1.486-1.486 7.064 7.064-1.486 1.486z"/></g><path data-name="Path 3044" d="M269.93 7.812a4.961 4.961 0 01-4.961 4.961 4.962 4.962 0 01-4.963-4.961 4.962 4.962 0 014.963-4.962 4.962 4.962 0 014.961 4.962z" fill="#8dd6f2"/><path data-name="Path 3045" d="M136.377 285.768a2.884 2.884 0 11-2.884-2.884 2.884 2.884 0 012.884 2.884z" fill="#8dd6f2"/><g data-name="Group 1764"><g data-name="Group 1762"><path data-name="Path 3046" d="M40.856 172.932l-21.115-12.191a1.085 1.085 0 00-1.092-.088v-.013l-2.049 1.184 1.44.525v15.376a4.069 4.069 0 001.7 3.246l20.182 11.652v1.8l2.074-1.191h-.011a1.507 1.507 0 00.574-1.354v-15.7a4.069 4.069 0 00-1.703-3.246z" fill="#4ac7e0"/><path data-name="Path 3047" d="M38.771 194.364l-21.115-12.191a4.068 4.068 0 01-1.7-3.245v-15.697c0-1.252.761-1.827 1.7-1.285l21.115 12.185a4.072 4.072 0 011.7 3.246v15.7c-.001 1.254-.762 1.828-1.7 1.287z" fill="#61b3ff"/></g><g data-name="Group 1763" fill="#fff"><path data-name="Path 3048" d="M24.757 176.763c0 .909-.638 1.277-1.424.822a3.146 3.146 0 01-1.426-2.468c0-.909.638-1.277 1.425-.822a3.148 3.148 0 011.425 2.468z"/><path data-name="Path 3049" d="M29.073 179.255c0 .908-.638 1.277-1.426.822a3.152 3.152 0 01-1.424-2.467c0-.909.638-1.278 1.424-.823a3.149 3.149 0 011.426 2.468z"/><path data-name="Path 3050" d="M33.389 181.746c0 .909-.638 1.277-1.426.823a3.151 3.151 0 01-1.424-2.468c0-.908.638-1.277 1.424-.822a3.15 3.15 0 011.426 2.467z"/></g></g><g data-name="Group 1767"><g data-name="Group 1765"><path data-name="Path 3051" d="M243.354 28.691l-21.115-12.195a1.082 1.082 0 00-1.092-.087v-.014l-2.049 1.184 1.439.525V33.48a4.069 4.069 0 001.7 3.246l20.182 11.652v1.8l2.069-1.192h-.011a1.506 1.506 0 00.574-1.354v-15.7a4.069 4.069 0 00-1.697-3.241z" fill="#39b3e3"/><path data-name="Path 3052" d="M241.266 50.124l-21.115-12.19a4.072 4.072 0 01-1.7-3.246v-15.7c0-1.252.761-1.826 1.7-1.285l21.115 12.192a4.069 4.069 0 011.7 3.245v15.7c0 1.255-.759 1.826-1.7 1.284z" fill="#8dd6f2"/></g><g data-name="Group 1766" fill="#fff"><path data-name="Path 3053" d="M227.259 32.523c0 .909-.638 1.277-1.425.823a3.151 3.151 0 01-1.424-2.468c0-.908.638-1.277 1.424-.822a3.149 3.149 0 011.425 2.467z"/><path data-name="Path 3054" d="M231.571 35.015c0 .908-.638 1.277-1.426.822a3.152 3.152 0 01-1.424-2.467c0-.909.638-1.277 1.424-.823a3.15 3.15 0 011.426 2.468z"/><path data-name="Path 3055" d="M235.886 37.506c0 .909-.637 1.278-1.424.823a3.148 3.148 0 01-1.424-2.467c0-.909.637-1.278 1.424-.823a3.149 3.149 0 011.424 2.467z"/></g></g><g data-name="Group 1773"><g data-name="Group 1772"><g data-name="Group 1771"><g data-name="Group 1768"><path data-name="Path 3056" d="M280.199 277.3v-38.171l-12.4-7.157v38.171z" fill="#c13d1a"/><path data-name="Path 3057" d="M280.196 239.129l12.4-7.157v38.171l-12.4 7.157z" fill="#4ac7e0"/><path data-name="Path 3058" d="M280.199 277.3v-38.171l-12.4-7.157v38.171z" fill="#61b3ff"/></g><g data-name="Group 1769"><path data-name="Path 3059" d="M253.885 292.695v-21.471l-12.4-7.157v21.471z" fill="#61b3ff"/><path data-name="Path 3060" d="M253.885 271.224l12.4-7.157v21.471l-12.4 7.157z" fill="#4ac7e0"/><path data-name="Path 3061" d="M241.489 264.067l12.4-7.157 12.4 7.157-12.4 7.157z" fill="#61b3ff"/></g><g data-name="Group 1770"><path data-name="Path 3062" d="M306.432 262.271v-52.487l-12.4-7.157v52.487z" fill="#61b3ff"/><path data-name="Path 3063" d="M306.432 209.784l12.4-7.157v52.487l-12.4 7.157z" fill="#4ac7e0"/><path data-name="Path 3064" d="M294.036 202.63l12.4-7.157 12.4 7.157-12.4 7.157z" fill="#61b3ff"/></g></g><path data-name="Path 3065" d="M267.802 231.972l12.4-7.157 12.4 7.157-12.4 7.157z" fill="#61b3ff"/></g></g></svg>