<svg version="1.1" id="Layer_1" xmlns="http://www.w3.org/2000/svg" x="0" y="0" viewBox="0 0 1000 390" xml:space="preserve"><style>.st0,.st1{fill:#fff}.st1{fill-rule:evenodd;clip-rule:evenodd}</style><path class="st0" d="M72.4 251.6h16.1V175c0-5.5 1.1-8 3.8-12 2.4-3.6 3.9-5.5 8.8-9.3 6.9-5.2 14.6-6.6 20.9-6.6 2.5 0 8.4.8 14.4 3.7V136c-6.5-2.2-14.7-3.8-25-2.9-9.2.8-14.5 3.1-20.4 9.1-.9.9-1.9 1.4-2.7 3v-10.4H72.1l.3 116.8zm73.9 0h16.4V134.7h-16.4v116.9zm1.4-146.8c1.9 1.9 4.2 2.8 7 2.8s5.1-.9 7-2.8c1.9-1.9 2.8-4.2 2.8-7s-.9-5.1-2.8-7c-1.9-1.9-4.2-2.8-7-2.8s-5.1.9-7 2.8c-1.9 1.9-2.8 4.2-2.8 7s.9 5.1 2.8 7zm90.1 130.6c-3.8 3.7-9.6 5.5-17.3 5.5-6.7.2-12.3-1.2-16.6-4.1-4.3-2.9-7.3-6-8.9-9.5-1.6-3.5-2.5-7.2-2.5-11.2h-16.4c-.2 6.7 1 12.5 3.4 17.4 2.4 4.9 5.6 9.1 9.7 12.6s8.7 6.2 14 8.2c5.3 1.9 10.7 2.9 16.1 2.9 5.5 0 10.7-.8 15.8-2.3 5.1-1.6 9.5-3.8 13.3-6.8 3.8-3 6.9-6.6 9.1-11 2.3-4.4 3.4-9.3 3.4-14.7 0-7.3-1.4-13.4-4.2-18.2-2.8-4.8-6.7-8.8-11.8-12-5.1-3.2-10.5-5.7-16.3-7.6-5.8-1.9-11-3.7-15.8-5.4-4.8-1.7-8.6-3.6-11.5-5.6-2.9-2-4.7-4.9-5.5-8.7-.8-4.2.4-8.2 3.4-11.9 3-3.7 6.4-6.2 9.9-7.5 3.6-1.2 6.9-1.9 10.1-1.9 4.7 0 9 1.2 12.9 3.6 3.9 2.4 6.5 5.9 8 10.4h17.5c-.3-2.3-1.4-5.1-3.2-8.4-1.8-3.3-4.2-6.5-7.4-9.7-3.1-3.2-7-5.8-11.6-7.8s-10-3-16.3-3c-5.5 0-10.8 1.1-15.9 3.1-5.1 2.1-9.6 4.8-13.2 8.2-3.7 3.3-6.5 7.2-8.5 11.5-2 4.4-2.7 9.1-2.1 14.2.8 6.5 3 12 6.8 16.3 3.7 4.4 8.2 7.6 13.3 9.8 5.1 2.2 10.8 4 16.8 5.6 6.1 1.6 11.1 3.3 15.2 5.1 4.1 1.9 7.1 4.3 9.2 7.2 2.1 3 3.1 7.1 2.9 12.4.1 5.2-2 9.6-5.8 13.3zm36.8 16.2H291V134.7h-16.4v116.9zm1.4-146.8c1.9 1.9 4.2 2.8 7 2.8s5.1-.9 7-2.8c1.9-1.9 2.8-4.2 2.8-7s-.9-5.1-2.8-7c-1.9-1.9-4.2-2.8-7-2.8s-5.1.9-7 2.8c-1.9 1.9-2.8 4.2-2.8 7s1 5.1 2.8 7z"/><path class="st1" d="M396 251.6l-.2-70.1c0-5-.9-9.7-2.8-14-1.9-4.4-4.4-8.2-7.7-11.5-3.3-3.3-7.1-5.8-11.5-7.7-4.4-1.9-9-2.8-13.8-2.8h-.1v-16.8h.1c7.2 0 14 1.4 20.3 4.2 6.4 2.8 12 6.6 16.7 11.3 4.8 4.8 8.5 10.4 11.3 16.8 2.8 6.5 4.2 13.3 4.2 20.5l.2 70.1H396z"/><path class="st0" d="M539.1 150.2c-1.9-2.4-1.6-1.8-2.6-2.6-5.8-5.9-12.6-10.6-20.3-13.9-7.8-3.4-16.1-5-25-5-8.9 0-17.2 1.7-25 5-7.8 3.4-14.6 7.9-20.5 13.8-5.8 5.8-10.4 12.7-13.8 20.5-3.4 7.8-5 16.1-5 25s1.7 17.2 5 25c3.4 7.8 8 14.6 13.8 20.5 5.8 5.8 12.7 10.4 20.5 13.8 7.8 3.4 16.1 5 25 5 8.9 0 17.2-1.7 25-5 7.8-3.4 14.6-7.9 20.3-13.7l2.6-2.6v3.5c0 6.5-1.2 12.7-3.7 18.6-2.5 5.8-5.9 11-10.3 15.3-4.4 4.4-9.5 7.8-15.3 10.3-5.8 2.5-12 3.7-18.6 3.7-6.5 0-12.7-1.2-18.6-3.7-5.8-2.5-11-5.9-15.3-10.3-3.3-3.3-6-6.9-8.2-11l-11.9 11.9c2.5 3.9 5.3 7.4 8.4 10.5 5.9 5.9 12.8 10.6 20.6 13.9 7.8 3.4 16.1 5 25 5 8.9 0 17.2-1.7 25-5 7.8-3.4 14.6-7.9 20.5-13.8 5.8-5.8 10.4-12.7 13.8-20.5 3.4-7.8 5-16.1 5-25v-51.2c0-20.8-14.5-35.7-16.4-38zM447 174.4c2.5-5.8 5.9-11 10.3-15.3 4.4-4.4 9.5-7.8 15.3-10.3 5.8-2.5 12-3.7 18.6-3.7 6.5 0 12.7 1.2 18.6 3.7 5.8 2.5 10.9 5.9 15.3 10.3s8 9.4 10.8 15.2c2.2 5.1 3.3 10.8 3.3 16.8 0 7.8-1.2 14.6-3.7 20.5-2.5 5.8-5.9 11-10.3 15.3-4.4 4.4-9.5 7.8-15.3 10.3-5.8 2.5-12 3.7-18.6 3.7-6.5 0-12.7-1.2-18.6-3.7-5.8-2.5-11-5.9-15.3-10.3-4.4-4.4-7.8-9.5-10.3-15.3-2.5-5.8-3.7-12-3.7-18.6-.2-6.6 1.1-12.8 3.6-18.6z"/><path class="st1" d="M323.7 251.6l.2-70.1c0-5 .9-9.7 2.8-14 1.9-4.4 4.4-8.2 7.7-11.5 3.3-3.3 7.1-5.8 11.5-7.7 4.4-1.9 9-2.8 13.8-2.8h.1v-16.8h-.1c-7.2 0-13.9 1.4-20.3 4.2-6.4 2.8-12 6.6-16.7 11.3-4.8 4.8-8.5 10.4-11.3 16.8-2.8 6.5-4.2 13.3-4.2 20.5l-.2 70.1h16.7z"/><path class="st0" d="M576.7 151.1v100.5h16.4V151.1h30.6v-16.4h-30.6V64.4h-16.4v70.3H545v16.4h31.7zM638 251.6h16.4V134.7H638v116.9zm1.4-146.8c1.9 1.9 4.2 2.8 7 2.8s5.1-.9 7-2.8c1.9-1.9 2.8-4.2 2.8-7s-.9-5.1-2.8-7c-1.9-1.9-4.2-2.8-7-2.8s-5.1.9-7 2.8c-1.9 1.9-2.8 4.2-2.8 7s.9 5.1 2.8 7zM824.1 188h111.8c-.5-7-2.1-13.7-4.9-20.1-3.3-7.8-7.8-14.6-13.7-20.5-5.8-5.8-12.7-10.4-20.5-13.8-7.8-3.4-16.1-5-25-5-8.9 0-17.2 1.7-25 5-7.8 3.4-14.6 7.9-20.5 13.8-5.8 5.8-10.4 12.7-13.8 20.5-3.4 7.8-5 16.1-5 25s1.7 17.2 5 25c3.4 7.8 8 14.6 13.8 20.5 5.8 5.8 12.7 10.4 20.5 13.8 7.8 3.4 16.1 5 25 5 8.9 0 17.2-1.7 25-5 7.8-3.4 14.6-8 20.5-13.8 5.8-5.8 10.4-12.7 13.7-20.5l.7-1.9h-18c-2.2 4.1-4.8 7.6-8 10.8-4.4 4.4-9.5 7.8-15.3 10.3-5.8 2.5-12 3.7-18.6 3.7-6.5 0-12.7-1.2-18.6-3.7-5.8-2.5-11-5.9-15.3-10.3-4.4-4.4-7.8-9.5-10.3-15.3-2.5-5.8-3.7-12-3.7-18.6 0-1.5 0-3.2.2-4.9zm90.5-16.3h-85.8c2.3-4.7 5.4-8.9 9.1-12.6 4.4-4.4 9.5-7.8 15.3-10.3 5.8-2.5 12-3.7 18.6-3.7 6.5 0 12.7 1.2 18.6 3.7 5.8 2.5 10.9 5.9 15.3 10.3 3.6 3.7 6.5 7.9 8.9 12.6zM668.9 218c3.4 7.8 8 14.6 13.8 20.5 5.8 5.8 12.7 10.4 20.5 13.8 7.8 3.4 16.1 5 25 5 8.9 0 17.2-1.7 25-5 7.8-3.3 14.6-7.9 20.5-13.8 5.8-5.8 10.4-12.7 13.8-20.5 3.4-7.8 5-16.1 5-25 0-8.9-1.7-17.2-5-25-3.4-7.8-7.9-14.6-13.8-20.5-5.8-5.8-12.7-10.4-20.5-13.8-7.8-3.4-16.1-5-25-5-8.9 0-17.2 1.7-25 5-7.8 3.4-14.6 7.9-20.5 13.8-5.8 5.8-10.4 12.7-13.8 20.5-3.4 7.8-5 16.1-5 25 0 8.9 1.6 17.2 5 25zm15.1-43.6c2.5-5.8 5.9-10.9 10.3-15.3s9.5-7.8 15.3-10.3c5.8-2.5 12-3.7 18.6-3.7 6.5 0 12.7 1.2 18.6 3.7 5.8 2.5 11 5.9 15.3 10.3 4.4 4.4 7.8 9.5 10.3 15.3 2.5 5.8 3.7 12 3.7 18.6 0 6.5-1.2 12.7-3.7 18.6-2.5 5.8-5.9 11-10.3 15.3-4.4 4.4-9.5 7.8-15.3 10.3-5.8 2.5-12 3.7-18.6 3.7-6.5 0-12.7-1.2-18.6-3.7-5.8-2.5-11-5.9-15.3-10.3-4.4-4.4-7.8-9.5-10.3-15.3-2.5-5.8-3.7-12-3.7-18.6-.1-6.6 1.2-12.8 3.7-18.6z"/><path class="st0" d="M792.4 64.4H776v187.2h16.4V64.4zM572.3 277.9h16.2c12.9 0 21.8 8.2 21.8 20.5 0 12.4-8.9 20.5-21.8 20.5h-16.2v-41zm16.2 33.4c8.1 0 12.9-5.8 12.9-12.8 0-7.3-4.4-12.9-12.9-12.9H581v25.6h7.5zm51.3-33.4h8.7v41h-8.7v-41zm60.1-.6c8.5 0 13.8 4.1 17 9l-7.3 3.9c-1.9-2.9-5.4-5.2-9.7-5.2-7.4 0-12.9 5.7-12.9 13.5s5.4 13.5 12.9 13.5c3.8 0 7.1-1.5 8.9-3.1v-5h-10.9v-7.5h19.6V312c-4.2 4.7-10 7.8-17.5 7.8-12 0-21.8-8.4-21.8-21.3-.1-13 9.7-21.2 21.7-21.2zm47.8.6h8.7v41h-8.7v-41zm49.7 7.7h-12v-7.7h32.7v7.7h-11.9V319h-8.8v-33.4zm71.9 26.3H851l-2.6 7.1h-9.6l15.9-41h10.9l15.8 41h-9.5l-2.6-7.1zm-16-7.6h13.6l-6.8-18.8-6.8 18.8zm55.3-26.4h8.7v33.3h17.3v7.7h-26.1v-41z"/></svg>