<svg xmlns="http://www.w3.org/2000/svg" width="120" height="58"><g transform="translate(-978 9141)" fill="#214c85"><g data-name="Group 3008"><g data-name="Group 3006"><path data-name="Path 5479" d="M988.23-9132.498h1.979v5.016h.048c.259-.421.534-.809.793-1.181l2.848-3.835h2.46l-3.759 4.643 4 6.262h-2.33l-3.091-5-.969 1.166v3.835h-1.974z"/><path data-name="Path 5480" d="M998.828-9124.974a2.141 2.141 0 002.427 2.039 5.923 5.923 0 002.184-.356l.292 1.375a7.427 7.427 0 01-2.751.485 3.728 3.728 0 01-4.061-3.98c0-2.185 1.327-4.239 3.851-4.239 2.557 0 3.4 2.1 3.4 3.835a4.932 4.932 0 01-.064.842zm3.463-1.392a1.694 1.694 0 00-1.634-1.926 1.948 1.948 0 00-1.829 1.926z"/><path data-name="Path 5481" d="M1006.966-9129.473l1.424 4.223c.162.485.324 1.084.437 1.537h.049c.129-.453.275-1.035.421-1.553l1.23-4.207h2.136l-1.974 5.372c-1.084 2.945-1.812 4.256-2.751 5.065a4 4 0 01-2.087 1.019l-.453-1.683a3.418 3.418 0 001.165-.55 3.47 3.47 0 001.084-1.246.8.8 0 00.129-.356.846.846 0 00-.113-.388l-2.88-7.233z"/><path data-name="Path 5482" d="M1015.267-9129.473l.825 3.576c.178.842.356 1.7.5 2.557h.032c.162-.857.421-1.731.647-2.54l1.02-3.592h1.618l.987 3.5c.243.922.453 1.78.631 2.637h.033c.129-.857.307-1.715.518-2.637l.874-3.5h1.958l-2.476 7.88h-1.844l-.939-3.2a24.241 24.241 0 01-.6-2.524h-.033a20.725 20.725 0 01-.6 2.524l-1 3.2h-1.861l-2.33-7.88z"/><path data-name="Path 5483" d="M1033.472-9125.605a3.9 3.9 0 01-4.045 4.191 3.81 3.81 0 01-3.948-4.061 3.89 3.89 0 014.078-4.175 3.781 3.781 0 013.915 4.045zm-5.938.081c0 1.521.744 2.67 1.958 2.67 1.133 0 1.926-1.116 1.926-2.7 0-1.23-.55-2.638-1.909-2.638-1.412-.002-1.978 1.362-1.978 2.668z"/><path data-name="Path 5484" d="M1035.103-9126.93a36.68 36.68 0 00-.065-2.541h1.731l.065 1.505h.064a2.35 2.35 0 012.152-1.683 2.077 2.077 0 01.469.048v1.877a2.778 2.778 0 00-.582-.064 1.755 1.755 0 00-1.78 1.5 3.427 3.427 0 00-.065.615v4.077h-1.99z"/><path data-name="Path 5485" d="M1047.978-9133.081v9.272c0 .809.033 1.683.065 2.217h-1.78l-.081-1.246h-.032a2.837 2.837 0 01-2.573 1.424c-1.877 0-3.366-1.6-3.366-4.029-.016-2.638 1.634-4.207 3.528-4.207a2.51 2.51 0 012.217 1.035h.032v-4.466zm-1.99 6.893a2.788 2.788 0 00-.048-.518 1.743 1.743 0 00-1.715-1.408c-1.278 0-1.99 1.133-1.99 2.605 0 1.44.712 2.492 1.974 2.492a1.755 1.755 0 001.715-1.408 2.2 2.2 0 00.065-.583z"/><path data-name="Path 5486" d="M1050.02-9123.42a4.445 4.445 0 002.023.566c.874 0 1.262-.356 1.262-.873 0-.534-.324-.809-1.295-1.149-1.537-.534-2.184-1.375-2.168-2.3 0-1.392 1.149-2.476 2.977-2.476a4.628 4.628 0 012.087.469l-.388 1.408a3.541 3.541 0 00-1.667-.453c-.712 0-1.1.34-1.1.825 0 .5.372.745 1.375 1.1 1.424.518 2.088 1.246 2.1 2.411 0 1.424-1.116 2.46-3.2 2.46a5.086 5.086 0 01-2.395-.55z"/></g><g data-name="Group 3007"><path data-name="Path 5487" d="M1080.892-9119.502a7.1 7.1 0 003.528-.94l2.562 2.562 2.677-2.677-2.561-2.561a7.14 7.14 0 10-6.206 3.616zm-2.376-9.521a3.36 3.36 0 11-.984 2.375 3.338 3.338 0 01.984-2.375z"/><path data-name="Path 5488" d="M978-9141.001v30.882h120v-30.882zm114.321 25.2H983.679v-19.52h108.642z"/></g></g><rect data-name="Rectangle 331" width="40" height="9" rx="4.5" transform="translate(978 -9105)"/><rect data-name="Rectangle 333" width="75" height="9" rx="4.5" transform="translate(978 -9092)"/><rect data-name="Rectangle 334" width="40" height="9" rx="4.5" transform="translate(1058 -9092)"/><rect data-name="Rectangle 332" width="76" height="9" rx="4.5" transform="translate(1022 -9105)"/></g></svg>