<svg xmlns="http://www.w3.org/2000/svg" width="120" height="58" viewBox="0 0 120 58">
  <g id="search-engine" transform="translate(-978 9141)">
    <g id="Group_3008" data-name="Group 3008" transform="translate(788 -9177.701)">
      <g id="Group_3006" data-name="Group 3006" transform="translate(200.23 44.62)">
        <path id="Path_5479" data-name="Path 5479" d="M217.021,59.157H219v5.016h.048c.259-.421.534-.809.793-1.181l2.848-3.835h2.46L221.39,63.8l4,6.262h-2.33l-3.091-5L219,66.228v3.835h-1.974Z" transform="translate(-217.021 -58.574)" fill="#214c85"/>
        <path id="Path_5480" data-name="Path 5480" d="M241.881,71.356a2.141,2.141,0,0,0,2.427,2.039,5.923,5.923,0,0,0,2.184-.356l.292,1.375a7.427,7.427,0,0,1-2.751.485,3.728,3.728,0,0,1-4.061-3.98c0-2.185,1.327-4.239,3.851-4.239,2.557,0,3.4,2.1,3.4,3.835a4.932,4.932,0,0,1-.064.842Zm3.463-1.392a1.694,1.694,0,0,0-1.634-1.926,1.948,1.948,0,0,0-1.829,1.926Z" transform="translate(-231.283 -63.249)" fill="#214c85"/>
        <path id="Path_5481" data-name="Path 5481" d="M262.926,67.149l1.424,4.223c.162.485.324,1.084.437,1.537h.049c.129-.453.275-1.035.421-1.553l1.23-4.207h2.136l-1.974,5.372c-1.084,2.945-1.812,4.256-2.751,5.065a4,4,0,0,1-2.087,1.019l-.453-1.683a3.418,3.418,0,0,0,1.165-.55,3.47,3.47,0,0,0,1.084-1.246.8.8,0,0,0,.129-.356.846.846,0,0,0-.113-.388l-2.88-7.233Z" transform="translate(-244.19 -63.541)" fill="#214c85"/>
        <path id="Path_5482" data-name="Path 5482" d="M285.09,67.149l.825,3.576c.178.842.356,1.7.5,2.557h.032c.162-.857.421-1.731.647-2.54l1.02-3.592h1.618l.987,3.5c.243.922.453,1.78.631,2.637h.033c.129-.857.307-1.715.518-2.637l.874-3.5h1.958l-2.476,7.88h-1.844l-.939-3.2a24.241,24.241,0,0,1-.6-2.524h-.033a20.725,20.725,0,0,1-.6,2.524l-1,3.2h-1.861l-2.33-7.88Z" transform="translate(-258.053 -63.541)" fill="#214c85"/>
        <path id="Path_5483" data-name="Path 5483" d="M323.4,70.725a3.9,3.9,0,0,1-4.045,4.191,3.81,3.81,0,0,1-3.948-4.061,3.89,3.89,0,0,1,4.078-4.175A3.781,3.781,0,0,1,323.4,70.725Zm-5.938.081c0,1.521.744,2.67,1.958,2.67,1.133,0,1.926-1.116,1.926-2.7,0-1.23-.55-2.638-1.909-2.638C318.025,68.136,317.459,69.5,317.459,70.806Z" transform="translate(-278.158 -63.249)" fill="#214c85"/>
        <path id="Path_5484" data-name="Path 5484" d="M340.727,69.4c0-1.068-.016-1.829-.065-2.541h1.731l.065,1.505h.064a2.35,2.35,0,0,1,2.152-1.683,2.077,2.077,0,0,1,.469.048v1.877a2.778,2.778,0,0,0-.582-.064,1.755,1.755,0,0,0-1.78,1.5,3.427,3.427,0,0,0-.065.615v4.077h-1.99Z" transform="translate(-293.854 -63.249)" fill="#214c85"/>
        <path id="Path_5485" data-name="Path 5485" d="M362.1,57.618V66.89c0,.809.033,1.683.065,2.217h-1.78l-.081-1.246h-.032a2.837,2.837,0,0,1-2.573,1.424c-1.877,0-3.366-1.6-3.366-4.029-.016-2.638,1.634-4.207,3.528-4.207a2.51,2.51,0,0,1,2.217,1.035h.032V57.618Zm-1.99,6.893a2.788,2.788,0,0,0-.048-.518,1.743,1.743,0,0,0-1.715-1.408c-1.278,0-1.99,1.133-1.99,2.605,0,1.44.712,2.492,1.974,2.492a1.755,1.755,0,0,0,1.715-1.408,2.2,2.2,0,0,0,.065-.583Z" transform="translate(-302.352 -57.618)" fill="#214c85"/>
        <path id="Path_5486" data-name="Path 5486" d="M379.6,72.91a4.445,4.445,0,0,0,2.023.566c.874,0,1.262-.356,1.262-.873,0-.534-.324-.809-1.295-1.149-1.537-.534-2.184-1.375-2.168-2.3,0-1.392,1.149-2.476,2.977-2.476a4.628,4.628,0,0,1,2.087.469l-.388,1.408a3.541,3.541,0,0,0-1.667-.453c-.712,0-1.1.34-1.1.825,0,.5.372.745,1.375,1.1,1.424.518,2.088,1.246,2.1,2.411,0,1.424-1.116,2.46-3.2,2.46a5.086,5.086,0,0,1-2.395-.55Z" transform="translate(-317.81 -63.249)" fill="#214c85"/>
      </g>
      <g id="Group_3007" data-name="Group 3007" transform="translate(190 36.701)">
        <path id="Path_5487" data-name="Path 5487" d="M450.054,70.03a7.1,7.1,0,0,0,3.528-.94l2.562,2.562,2.677-2.677-2.561-2.561a7.14,7.14,0,1,0-6.206,3.616Zm-2.376-9.521a3.36,3.36,0,1,1-.984,2.375A3.338,3.338,0,0,1,447.678,60.509Z" transform="translate(-347.162 -48.532)" fill="#214c85"/>
        <path id="Path_5488" data-name="Path 5488" d="M190,36.7V67.582H310V36.7ZM304.321,61.9H195.679V42.38H304.321Z" transform="translate(-190 -36.701)" fill="#214c85"/>
      </g>
    </g>
    <rect id="Rectangle_331" data-name="Rectangle 331" width="40" height="9" rx="4.5" transform="translate(978 -9105)" fill="#214c85"/>
    <rect id="Rectangle_333" data-name="Rectangle 333" width="75" height="9" rx="4.5" transform="translate(978 -9092)" fill="#214c85"/>
    <rect id="Rectangle_334" data-name="Rectangle 334" width="40" height="9" rx="4.5" transform="translate(1058 -9092)" fill="#214c85"/>
    <rect id="Rectangle_332" data-name="Rectangle 332" width="76" height="9" rx="4.5" transform="translate(1022 -9105)" fill="#214c85"/>
  </g>
</svg>
