<svg xmlns="http://www.w3.org/2000/svg" width="110.973" height="111.618" viewBox="0 0 110.973 111.618">
  <g id="seo" transform="translate(-762 -2174.339)">
    <path id="Path_23" data-name="Path 23" d="M48.035,69.581a27.1,27.1,0,0,0,5.8-4.871l6.1,3.521,5.551-9.616L59.4,55.1a26.773,26.773,0,0,0,1.314-7.464l6.922-1.221L65.7,35.484,58.783,36.7a26.916,26.916,0,0,0-3.8-6.556l4.524-5.391-8.505-7.136-4.52,5.386a26.725,26.725,0,0,0-7.118-2.6V13.385h-11.1V20.41a26.728,26.728,0,0,0-7.119,2.6l-4.52-5.386L8.12,24.758l4.524,5.391a26.928,26.928,0,0,0-3.8,6.556L1.928,35.484,0,46.418l6.921,1.221A26.78,26.78,0,0,0,8.235,55.1L2.15,58.616,7.7,68.231l6.1-3.52a27.1,27.1,0,0,0,5.8,4.87L17.19,76.193l10.433,3.8,2.4-6.6a26.916,26.916,0,0,0,7.58,0l2.4,6.6,10.433-3.8Zm-14.22-8.658A14.179,14.179,0,1,1,47.994,46.744,14.195,14.195,0,0,1,33.815,60.923Z" transform="translate(762 2160.954)" fill="#214c85"/>
    <path id="Path_25" data-name="Path 25" d="M307.991,91.938l.186-6.272-3.969-.118a15.214,15.214,0,0,0-1.346-4.067l3.117-2.462L302.091,74.1l-3.116,2.461a15.2,15.2,0,0,0-3.646-2.245l.806-3.894-6.143-1.272-.807,3.891a15.065,15.065,0,0,0-4.238.614l-1.882-3.5-5.525,2.975,1.882,3.5a15.118,15.118,0,0,0-2.846,3.2l-3.691-1.469-2.32,5.83,3.694,1.472a15.2,15.2,0,0,0-.131,4.278l-3.771,1.247,1.969,5.957L276.1,95.9a15.132,15.132,0,0,0,2.655,3.362l-2.086,3.379,5.338,3.3,2.09-3.385a15.339,15.339,0,0,0,4.19.869l.573,3.935,6.209-.907-.572-3.93a15.234,15.234,0,0,0,3.771-2.03l2.966,2.641,4.173-4.685L302.437,95.8a15.362,15.362,0,0,0,1.58-3.977ZM293.041,95.3A8.013,8.013,0,1,1,296.3,84.445,8.022,8.022,0,0,1,293.041,95.3Z" transform="translate(560.489 2119.392)" fill="none" stroke="#214c85" stroke-width="1"/>
    <g id="Group_276" data-name="Group 276" transform="translate(811.93 2250.674) rotate(-45)">
      <g id="Ellipse_19" data-name="Ellipse 19" transform="translate(0 0)" fill="none" stroke="#214c85" stroke-linecap="round" stroke-width="5">
        <circle cx="17.99" cy="17.99" r="17.99" stroke="none"/>
        <circle cx="17.99" cy="17.99" r="15.49" fill="none"/>
      </g>
      <line id="Line_9" data-name="Line 9" y2="26.906" transform="translate(18.215 36.206)" fill="none" stroke="#214c85" stroke-linecap="round" stroke-width="5"/>
    </g>
  </g>
</svg>
