<svg xmlns="http://www.w3.org/2000/svg" width="110.973" height="111.618"><path data-name="Path 23" d="M48.035 56.196a27.1 27.1 0 005.8-4.871l6.1 3.521 5.551-9.616-6.086-3.515a26.773 26.773 0 001.314-7.464l6.922-1.221L65.7 22.099l-6.917 1.216a26.916 26.916 0 00-3.8-6.556l4.524-5.391-8.505-7.136-4.52 5.386a26.725 26.725 0 00-7.118-2.6V0h-11.1v7.025a26.728 26.728 0 00-7.119 2.6l-4.52-5.386-8.505 7.134 4.524 5.391a26.928 26.928 0 00-3.8 6.556l-6.916-1.221L0 33.033l6.921 1.221a26.78 26.78 0 001.314 7.461L2.15 45.231l5.55 9.615 6.1-3.52a27.1 27.1 0 005.8 4.87l-2.41 6.612 10.433 3.8 2.4-6.6a26.916 26.916 0 007.58 0l2.4 6.6 10.433-3.8zm-14.22-8.658a14.179 14.179 0 1114.179-14.179 14.195 14.195 0 01-14.179 14.179z" fill="#214c85"/><path data-name="Path 25" d="M106.48 36.991l.186-6.272-3.969-.118a15.214 15.214 0 00-1.346-4.067l3.117-2.462-3.888-4.919-3.116 2.461a15.2 15.2 0 00-3.646-2.245l.806-3.894-6.143-1.272-.807 3.891a15.065 15.065 0 00-4.238.614l-1.882-3.5-5.525 2.975 1.882 3.5a15.118 15.118 0 00-2.846 3.2l-3.691-1.469-2.32 5.83 3.694 1.472a15.2 15.2 0 00-.131 4.278l-3.771 1.247 1.969 5.957 3.774-1.245a15.132 15.132 0 002.655 3.362l-2.086 3.379 5.338 3.3 2.09-3.385a15.339 15.339 0 004.19.869l.573 3.935 6.209-.907-.572-3.93a15.234 15.234 0 003.771-2.03l2.966 2.641 4.173-4.685-2.97-2.649a15.362 15.362 0 001.58-3.977zm-14.95 3.362a8.013 8.013 0 113.259-10.855 8.022 8.022 0 01-3.259 10.855z" fill="none" stroke="#214c85"/><g data-name="Group 276" fill="none" stroke="#214c85" stroke-linecap="round" stroke-width="5"><g data-name="Ellipse 19" transform="rotate(-45 117.11 -22.103)"><circle cx="17.99" cy="17.99" r="17.99" stroke="none"/><circle cx="17.99" cy="17.99" r="15.49"/></g><path data-name="Line 9" d="M88.411 89.057l19.026 19.025"/></g></svg>