<svg xmlns="http://www.w3.org/2000/svg" xmlns:xlink="http://www.w3.org/1999/xlink" width="265.456" height="300" viewBox="0 0 265.456 300">
  <defs>
    <linearGradient id="linear-gradient" y1="0.5" x2="1" y2="0.5" gradientUnits="objectBoundingBox">
      <stop offset="0" stop-color="#7bdaff"/>
      <stop offset="1" stop-color="#59bdef"/>
    </linearGradient>
    <linearGradient id="linear-gradient-2" y1="0.5" x2="1" y2="0.5" gradientUnits="objectBoundingBox">
      <stop offset="0.017" stop-color="#0d316b"/>
      <stop offset="0.424" stop-color="#3170ca"/>
      <stop offset="0.675" stop-color="#3170ca"/>
      <stop offset="0.868" stop-color="#1a488e"/>
      <stop offset="1" stop-color="#0d316b"/>
    </linearGradient>
    <linearGradient id="linear-gradient-3" y1="0.5" x2="1" y2="0.5" gradientUnits="objectBoundingBox">
      <stop offset="0" stop-color="#134097"/>
      <stop offset="0.267" stop-color="#14449a"/>
      <stop offset="0.566" stop-color="#1952a3"/>
      <stop offset="0.879" stop-color="#2168b2"/>
      <stop offset="1" stop-color="#2573ba"/>
    </linearGradient>
    <linearGradient id="linear-gradient-5" y1="0.5" x2="1" y2="0.5" gradientUnits="objectBoundingBox">
      <stop offset="0.017" stop-color="#0d1f3e"/>
      <stop offset="0.424" stop-color="#31619f"/>
      <stop offset="0.619" stop-color="#31619f"/>
      <stop offset="0.849" stop-color="#1a3761"/>
      <stop offset="1" stop-color="#0d1f3e"/>
    </linearGradient>
    <linearGradient id="linear-gradient-6" y1="0.5" x2="1" y2="0.5" gradientUnits="objectBoundingBox">
      <stop offset="0" stop-color="#1375ae"/>
      <stop offset="0.256" stop-color="#1578b2"/>
      <stop offset="0.543" stop-color="#1c82c0"/>
      <stop offset="0.844" stop-color="#2893d6"/>
      <stop offset="1" stop-color="#319fe5"/>
    </linearGradient>
    <linearGradient id="linear-gradient-7" x1="-59.052" y1="6.074" x2="-57.911" y2="6.074" gradientUnits="objectBoundingBox">
      <stop offset="0" stop-color="#d1f2ff"/>
      <stop offset="1" stop-color="#c9e2ef"/>
    </linearGradient>
    <linearGradient id="linear-gradient-8" x1="-75.496" y1="7.432" x2="-74.355" y2="7.432" xlink:href="#linear-gradient-7"/>
    <linearGradient id="linear-gradient-9" x1="-109.074" y1="10.303" x2="-107.933" y2="10.303" xlink:href="#linear-gradient-7"/>
    <linearGradient id="linear-gradient-10" x1="-103.193" y1="9.148" x2="-102.052" y2="9.148" xlink:href="#linear-gradient-7"/>
  </defs>
  <g id="sms-connect" transform="translate(-2539.471 -859.778)">
    <g id="Group_1580" data-name="Group 1580" transform="translate(2539.471 935.804)">
      <g id="Group_1568" data-name="Group 1568" transform="translate(0.202)">
        <g id="Group_1553" data-name="Group 1553" transform="translate(0 24.402)">
          <path id="Path_2613" data-name="Path 2613" d="M2743.455,1578.356l-119.712-69.116c-4.448-2.566-11.711-2.566-16.151,0l-58.63,33.841c-4.446,2.567-4.446,6.773,0,9.332l32.494,18.76a11.805,11.805,0,0,0-1.943.877l-36.1,20.839c-4.451,2.559-4.451,6.763,0,9.332l36.1,20.841c4.442,2.573,11.708,2.573,16.144,0l36.111-20.849a9.038,9.038,0,0,0,1.537-1.1l35.376,20.416c4.432,2.571,11.7,2.571,16.148,0l58.625-33.849C2747.887,1585.119,2747.887,1580.922,2743.455,1578.356Z" transform="translate(-2540.078 -1425.419)" opacity="0.3"/>
          <g id="Group_1548" data-name="Group 1548" transform="translate(8.885 5.19)">
            <path id="Path_2614" data-name="Path 2614" d="M2570.045,1400.835l-3.3-1.9V1320.3l74.777-43.171,3.311,1.914Z" transform="translate(-2566.74 -1277.13)" fill="#7fafd9"/>
            <path id="Path_2615" data-name="Path 2615" d="M2651.441,1361.5l-74.784,43.169v-78.623l74.784-43.168Z" transform="translate(-2573.353 -1280.96)" fill="#62add5"/>
          </g>
          <g id="Group_1549" data-name="Group 1549" transform="translate(25.554 34.386)">
            <path id="Path_2616" data-name="Path 2616" d="M2821.744,1487.427l-.221-.626c.2-.076,20.457-7.477,18.883-30.672l.677-.05C2842.7,1479.8,2821.963,1487.362,2821.744,1487.427Z" transform="translate(-2753.29 -1425.642)" fill="#307bcb"/>
            <path id="Path_2617" data-name="Path 2617" d="M2828.619,1520.217c-.415,0-.649-.019-.668-.019l.055-.679c.189.012,19.885,1.243,32.977-21.732l.588.323C2849.628,1519.077,2832.233,1520.217,2828.619,1520.217Z" transform="translate(-2757.576 -1453.453)" fill="#307bcb"/>
            <path id="Path_2618" data-name="Path 2618" d="M2823.158,1500.214l-.148-.674c.148-.019,14.809-3.489,27.931-26.516l.59.334C2838.252,1496.673,2823.308,1500.186,2823.158,1500.214Z" transform="translate(-2754.282 -1436.942)" fill="#307bcb"/>
            <path id="Path_2619" data-name="Path 2619" d="M2639.967,1524.675l-23.2-13.4v-58.3l23.2,13.4Z" transform="translate(-2616.763 -1423.572)" fill="#307bcb"/>
            <path id="Path_2620" data-name="Path 2620" d="M2737.324,1463.253l-50.929,29.409v-58.305l50.929-29.4Z" transform="translate(-2663.191 -1391.558)" fill="#121214"/>
            <path id="Path_2621" data-name="Path 2621" d="M2639.967,1407.541l-23.2-13.4,50.932-29.4,23.2,13.4Z" transform="translate(-2616.763 -1364.743)" fill="#1a4880"/>
            <path id="Path_2622" data-name="Path 2622" d="M2643.514,1562.984l-16.11-9.3v-1.606l16.11,9.311Z" transform="translate(-2623.858 -1489.654)" fill="#1a4880"/>
            <path id="Path_2623" data-name="Path 2623" d="M2643.514,1498.691l-16.11-9.294v-12.543l16.11,9.291Z" transform="translate(-2623.858 -1439.495)" fill="#1a4880"/>
            <path id="Path_2624" data-name="Path 2624" d="M2643.514,1497.736l-16.11-9.291v-.562l16.11,9.294Z" transform="translate(-2623.858 -1446.849)" fill="#121214"/>
            <path id="Path_2625" data-name="Path 2625" d="M2643.514,1510.5l-16.11-9.294v-.569l16.11,9.287Z" transform="translate(-2623.858 -1455.355)" fill="#121214"/>
            <path id="Path_2626" data-name="Path 2626" d="M2643.514,1570.035l-16.11-9.3v-1.6l16.11,9.3Z" transform="translate(-2623.858 -1494.359)" fill="#2470b7"/>
            <path id="Path_2627" data-name="Path 2627" d="M2645.867,1600.822l-11.429-6.6v-21.933l11.429,6.591Z" transform="translate(-2628.549 -1503.129)" fill="#1a4880"/>
            <path id="Path_2628" data-name="Path 2628" d="M2671.792,1553.193c0,1-.713,1.4-1.579.889a3.463,3.463,0,0,1-1.567-2.717c0-.984.7-1.4,1.567-.894A3.452,3.452,0,0,1,2671.792,1553.193Z" transform="translate(-2651.357 -1488.436)" fill="#3576ab"/>
            <path id="Path_2629" data-name="Path 2629" d="M2672.417,1566.781c0,.6-.419.841-.943.535a2.037,2.037,0,0,1-.935-1.613c0-.6.42-.839.935-.542A2.053,2.053,0,0,1,2672.417,1566.781Z" transform="translate(-2652.619 -1498.291)" fill="#121214"/>
            <path id="Path_2630" data-name="Path 2630" d="M2638.916,1537.088l-11.512-6.646v-3.976l11.512,6.648Z" transform="translate(-2623.858 -1472.574)" fill="#1a4880"/>
            <path id="Path_2631" data-name="Path 2631" d="M2639.455,1539.068l-9.9-5.659v-.64l9.9,5.673Z" transform="translate(-2625.292 -1476.777)" fill="#121214"/>
          </g>
          <g id="Group_1550" data-name="Group 1550" transform="translate(71.185 34.479)">
            <path id="Path_2632" data-name="Path 2632" d="M2872.164,1459.3l-3.355,1.933L2753.7,1366.963l3.351-1.941,115.115,66.457Z" transform="translate(-2753.698 -1365.022)" fill="#649dd9"/>
            <path id="Path_2633" data-name="Path 2633" d="M2868.809,1465.114,2753.7,1398.66v-27.814l115.111,66.457Z" transform="translate(-2753.698 -1368.905)" fill="#7fafd9"/>
          </g>
          <g id="Group_1551" data-name="Group 1551" transform="translate(125.296 72.395)">
            <path id="Path_2634" data-name="Path 2634" d="M2919.387,1602.517l-3.306-1.914v-78.625l74.781-43.173,3.3,1.914Z" transform="translate(-2916.081 -1478.804)" fill="#7fafd9"/>
            <path id="Path_2635" data-name="Path 2635" d="M3000.776,1563.176,2926,1606.347v-78.618l74.774-43.18Z" transform="translate(-2922.696 -1482.635)" fill="url(#linear-gradient)"/>
          </g>
          <g id="Group_1552" data-name="Group 1552" transform="translate(5.55)">
            <path id="Path_2636" data-name="Path 2636" d="M2756.379,1343.769a8.381,8.381,0,0,0-1.814-1.379l-119.712-69.119c-4.448-2.572-11.711-2.572-16.151,0l-58.629,33.841a8.749,8.749,0,0,0-1.811,1.377h-1.521l.011,3.5c.088,1.622,1.179,3.219,3.322,4.452l119.719,69.129c4.432,2.555,11.7,2.555,16.148,0l58.625-33.854c2.191-1.271,3.3-2.942,3.328-4.61h0v-3.338Z" transform="translate(-2556.738 -1268.08)" fill="#629bd7"/>
            <path id="Path_2637" data-name="Path 2637" d="M2695.934,1375.774c-4.445,2.56-11.716,2.56-16.148,0l-119.718-69.124c-4.447-2.564-4.447-6.76,0-9.322l58.629-33.846c4.44-2.571,11.7-2.571,16.151,0l119.712,69.109c4.433,2.574,4.433,6.768,0,9.327Z" transform="translate(-2556.733 -1261.554)" fill="url(#linear-gradient-2)"/>
          </g>
        </g>
        <g id="Group_1556" data-name="Group 1556" transform="translate(22.831)">
          <path id="Path_2638" data-name="Path 2638" d="M2813.958,1321.524c-21.205-.349-25.578-3.521-30.648-7.191-3.329-2.414-7.1-5.15-16.634-7.411l.217-.906c9.711,2.3,13.566,5.1,16.971,7.563,4.932,3.578,9.2,6.663,30.115,7.014Z" transform="translate(-2713.997 -1266.798)"/>
          <g id="Group_1554" data-name="Group 1554" transform="translate(23.89 35.416)">
            <path id="Path_2639" data-name="Path 2639" d="M2710.169,1337.075a1.719,1.719,0,0,1-1.72,1.708H2682a1.711,1.711,0,0,1-1.711-1.708v-1.606h29.884Z" transform="translate(-2680.285 -1321.852)" fill="#121214"/>
            <path id="Path_2640" data-name="Path 2640" d="M2710.169,1313.5a1.726,1.726,0,0,1-1.72,1.719H2682a1.718,1.718,0,0,1-1.711-1.719v-10.066a1.711,1.711,0,0,1,1.711-1.711h26.453a1.72,1.72,0,0,1,1.72,1.711Z" transform="translate(-2680.285 -1299.35)" fill="#1a4880"/>
            <rect id="Rectangle_131" data-name="Rectangle 131" width="21.32" height="11.361" transform="translate(4.279)" fill="#121214"/>
          </g>
          <g id="Group_1555" data-name="Group 1555">
            <path id="Path_2641" data-name="Path 2641" d="M2608.592,1227.721h77.652v-37.414a1.993,1.993,0,0,0-1.984-1.981h-73.675a2,2,0,0,0-1.993,1.981Z" transform="translate(-2608.592 -1188.326)" fill="#121214"/>
            <path id="Path_2642" data-name="Path 2642" d="M2608.592,1232.182a2,2,0,0,0,1.993,1.981h73.675a1.991,1.991,0,0,0,1.984-1.981v-37.409a2,2,0,0,0-1.984-1.986h-73.675a2,2,0,0,0-1.993,1.986Z" transform="translate(-2608.592 -1191.301)" fill="#307bcb"/>
            <rect id="Rectangle_132" data-name="Rectangle 132" width="72.978" height="37.952" transform="translate(2.34 3.308)" fill="url(#linear-gradient-3)"/>
            <rect id="Rectangle_133" data-name="Rectangle 133" width="34.417" height="1.317" transform="translate(5.368 5.351)" fill="#fff"/>
            <rect id="Rectangle_134" data-name="Rectangle 134" width="5.267" height="6.237" transform="translate(5.368 17.168)" fill="#fff"/>
            <rect id="Rectangle_135" data-name="Rectangle 135" width="5.257" height="6.237" transform="translate(12.812 17.168)" fill="#fff"/>
            <rect id="Rectangle_136" data-name="Rectangle 136" width="5.26" height="6.237" transform="translate(28.854 17.168)" fill="#fff"/>
            <rect id="Rectangle_137" data-name="Rectangle 137" width="49.696" height="1.324" transform="translate(5.368 8.135)" fill="#fff"/>
            <rect id="Rectangle_138" data-name="Rectangle 138" width="49.696" height="1.324" transform="translate(5.368 10.924)" fill="#fff"/>
            <rect id="Rectangle_139" data-name="Rectangle 139" width="49.696" height="1.319" transform="translate(5.368 27.446)" fill="#fff"/>
            <rect id="Rectangle_140" data-name="Rectangle 140" width="65.652" height="1.324" transform="translate(5.368 30.23)" fill="#fff"/>
            <rect id="Rectangle_141" data-name="Rectangle 141" width="65.652" height="1.331" transform="translate(5.368 33.019)" fill="#fff"/>
            <rect id="Rectangle_142" data-name="Rectangle 142" width="65.652" height="1.321" transform="translate(5.368 35.813)" fill="#fff"/>
            <rect id="Rectangle_143" data-name="Rectangle 143" width="72.978" height="0.879" transform="translate(2.34 40.38)" fill="#121214"/>
          </g>
        </g>
        <g id="Group_1559" data-name="Group 1559" transform="translate(60.212 49.296)">
          <path id="Path_2643" data-name="Path 2643" d="M2794.409,1356.93l-.225-.413c6.453-3.719,11.058-8.7,14.751-12.709,3.487-3.764,6.234-6.729,9.277-7.549l.117.456c-2.912.772-5.62,3.7-9.054,7.408C2805.556,1348.152,2800.93,1353.161,2794.409,1356.93Z" transform="translate(-2769.72 -1336.259)" fill="#307bcb"/>
          <g id="Group_1557" data-name="Group 1557" transform="translate(22.278 19.864)">
            <path id="Path_2644" data-name="Path 2644" d="M2788.147,1400.319a1.029,1.029,0,0,1-.362-.383l-.091-.179a.85.85,0,0,1-.071-.334c0-.332.239-.478.524-.3a1.138,1.138,0,0,1,.521.9C2788.668,1400.345,2788.439,1400.479,2788.147,1400.319Z" transform="translate(-2787.623 -1397.987)" fill="#307bcb"/>
            <path id="Path_2645" data-name="Path 2645" d="M2788.468,1397a1.139,1.139,0,0,1,.521.9.332.332,0,0,1-.142.315l1.82-1.042h0a.39.39,0,0,0,.163-.354,1.166,1.166,0,0,0-.523-.891.358.358,0,0,0-.385-.019l-1.6.91-.214.132A.369.369,0,0,1,2788.468,1397Z" transform="translate(-2787.944 -1395.869)" fill="#121214"/>
          </g>
          <path id="Path_2646" data-name="Path 2646" d="M2720.771,1406.54l0-2.034a2.707,2.707,0,0,1,2.611.012l13.317-7.685a2.853,2.853,0,0,1,2.552-.1l42.881,24.714a2.9,2.9,0,0,1,2.72-.036v1.962h-.007a1.055,1.055,0,0,1-.617.863l-15.3,8.847a2.819,2.819,0,0,1-2.534.088l-45.179-26.005a.769.769,0,0,1-.428-.626Z" transform="translate(-2720.77 -1376.41)" fill="#3262be"/>
          <path id="Path_2647" data-name="Path 2647" d="M2720.771,1406.54l0-2.034a2.707,2.707,0,0,1,2.611.012l13.317-7.685a2.853,2.853,0,0,1,2.552-.1l42.881,24.714a2.9,2.9,0,0,1,2.72-.036v1.962h-.007a1.055,1.055,0,0,1-.617.863l-15.3,8.847a2.819,2.819,0,0,1-2.534.088l-45.179-26.005a.769.769,0,0,1-.428-.626Z" transform="translate(-2720.77 -1376.41)" fill="#121214"/>
          <path id="Path_2648" data-name="Path 2648" d="M2721.215,1401.153l45.179,26.019a2.82,2.82,0,0,0,2.533-.093l15.3-8.876c.752-.4.824-1.087.187-1.46l-45.164-26.012a2.781,2.781,0,0,0-2.552.1l-15.31,8.837C2720.642,1400.113,2720.554,1400.77,2721.215,1401.153Z" transform="translate(-2720.77 -1372.402)" fill="#1a4880"/>
          <g id="Group_1558" data-name="Group 1558" transform="translate(56.847 43.077)">
            <path id="Path_2649" data-name="Path 2649" d="M2895.377,1465.678l3.2,1.864.292-.17-3.214-1.843Z" transform="translate(-2894.039 -1465.53)" fill="#1a4880"/>
            <path id="Path_2650" data-name="Path 2650" d="M2893.391,1466.833l3.214,1.84.265-.172-3.2-1.845Z" transform="translate(-2892.714 -1466.281)" fill="#1a4880"/>
            <path id="Path_2651" data-name="Path 2651" d="M2891.36,1467.975l3.23,1.843.265-.165-3.215-1.864Z" transform="translate(-2891.36 -1467.036)" fill="#1a4880"/>
            <path id="Path_2652" data-name="Path 2652" d="M2899.245,1467.925l.6.346.284-.169-.575-.349Z" transform="translate(-2896.618 -1467.012)" fill="#56a6d5"/>
          </g>
          <path id="Path_2653" data-name="Path 2653" d="M2853.647,1462.57l1.739.98,1.885-1.094-1.742-.992Z" transform="translate(-2809.368 -1419.742)" fill="#2281cb"/>
          <path id="Path_2654" data-name="Path 2654" d="M2866.458,1462.417l1.747,1.006,1.89-1.09-1.75-.985Z" transform="translate(-2817.91 -1419.665)" fill="#2281cb"/>
          <path id="Path_2655" data-name="Path 2655" d="M2860.04,1458.76l1.771,1,1.878-1.087-1.724-1Z" transform="translate(-2813.63 -1417.212)" fill="#2281cb"/>
          <path id="Path_2656" data-name="Path 2656" d="M2854.041,1454.951l1.737,1,1.9-1.087-1.733-1.014Z" transform="translate(-2809.631 -1414.663)" fill="#2281cb"/>
          <path id="Path_2657" data-name="Path 2657" d="M2840.372,1470.148l1.74,1.006,1.9-1.133-1.752-.978Z" transform="translate(-2800.517 -1424.796)" fill="#2281cb"/>
          <path id="Path_2658" data-name="Path 2658" d="M2853.761,1455.016l1.741,1,1.882-1.082-1.734-1.023Z" transform="translate(-2809.444 -1414.706)" fill="#2281cb"/>
          <path id="Path_2659" data-name="Path 2659" d="M2840.168,1477.594l1.734,1,1.9-1.095-1.741-1.013Z" transform="translate(-2800.38 -1429.759)" fill="#2281cb"/>
          <path id="Path_2660" data-name="Path 2660" d="M2833.81,1473.949l1.742,1.008,1.9-1.107-1.762-1Z" transform="translate(-2796.141 -1427.335)" fill="#2281cb"/>
          <path id="Path_2661" data-name="Path 2661" d="M2827.438,1470.284l1.747.992,1.878-1.092-1.725-1Z" transform="translate(-2791.893 -1424.886)" fill="#2281cb"/>
          <path id="Path_2662" data-name="Path 2662" d="M2859.979,1466.154l1.733,1,1.9-1.094-1.741-1.013Z" transform="translate(-2813.59 -1422.128)" fill="#2281cb"/>
          <path id="Path_2663" data-name="Path 2663" d="M2847.264,1458.846l1.742,1,1.88-1.087-1.727-1.009Z" transform="translate(-2805.112 -1417.265)" fill="#2281cb"/>
          <path id="Path_2664" data-name="Path 2664" d="M2880.081,1470.27l1.742,1,1.895-1.094-1.735-1Z" transform="translate(-2826.993 -1424.886)" fill="#2281cb"/>
          <path id="Path_2665" data-name="Path 2665" d="M2873.724,1466.61l1.73,1,1.9-1.119-1.722-.98Z" transform="translate(-2822.755 -1422.443)" fill="#2281cb"/>
          <path id="Path_2666" data-name="Path 2666" d="M2886.431,1473.958l1.744,1,1.907-1.08-1.747-1.025Z" transform="translate(-2831.227 -1427.335)" fill="#2281cb"/>
          <path id="Path_2667" data-name="Path 2667" d="M2873.5,1474.025l1.736,1.006,1.908-1.087-1.75-1.021Z" transform="translate(-2822.608 -1427.382)" fill="#2281cb"/>
          <path id="Path_2668" data-name="Path 2668" d="M2867.175,1470.409l1.727.994,1.892-1.087-1.735-.992Z" transform="translate(-2818.388 -1424.982)" fill="#2281cb"/>
          <path id="Path_2669" data-name="Path 2669" d="M2866.8,1477.938l1.733,1,1.918-1.107-1.742-1Z" transform="translate(-2818.135 -1429.988)" fill="#2281cb"/>
          <path id="Path_2670" data-name="Path 2670" d="M2860.445,1474.284l1.744,1,1.9-1.106-1.742-1Z" transform="translate(-2813.9 -1427.555)" fill="#2281cb"/>
          <path id="Path_2671" data-name="Path 2671" d="M2877.3,1476.7l1.742.987-4.133,2.385-1.74-.984Z" transform="translate(-2822.388 -1429.898)" fill="#2281cb"/>
          <path id="Path_2672" data-name="Path 2672" d="M2860.233,1481.72l1.744,1.013,1.905-1.106-1.752-1.008Z" transform="translate(-2813.759 -1432.513)" fill="#2281cb"/>
          <path id="Path_2673" data-name="Path 2673" d="M2853.9,1478.082l1.74.99,1.882-1.094-1.737-.994Z" transform="translate(-2809.539 -1430.089)" fill="#2281cb"/>
          <path id="Path_2674" data-name="Path 2674" d="M2847.439,1481.8l1.885-1.085,3.854,2.222-1.889,1.095Z" transform="translate(-2805.228 -1432.58)" fill="#2281cb"/>
          <path id="Path_2675" data-name="Path 2675" d="M2864.195,1484.376l1.733.992-4.045,2.328-1.742-.97Z" transform="translate(-2813.698 -1435.019)" fill="#2281cb"/>
          <path id="Path_2676" data-name="Path 2676" d="M2743.816,1422.016l10.44,6.02,1.9-1.116-10.435-5.989Z" transform="translate(-2736.136 -1392.716)" fill="#2281cb"/>
          <path id="Path_2677" data-name="Path 2677" d="M2767.009,1394.59l1.722,1.008,1.623-.942-1.749-.991Z" transform="translate(-2751.6 -1374.536)" fill="#2281cb"/>
          <path id="Path_2678" data-name="Path 2678" d="M2853.769,1444.792l8.573,4.933,1.612-.923-8.573-4.944Z" transform="translate(-2809.449 -1408.002)" fill="#2281cb"/>
          <path id="Path_2679" data-name="Path 2679" d="M2823.677,1427.471l8.574,4.937,1.6-.929-8.572-4.94Z" transform="translate(-2789.385 -1396.455)" fill="#2281cb"/>
          <path id="Path_2680" data-name="Path 2680" d="M2793.8,1410.252l8.568,4.906,1.607-.915-8.573-4.944Z" transform="translate(-2769.467 -1384.959)" fill="#2281cb"/>
          <path id="Path_2681" data-name="Path 2681" d="M2773.7,1398.606l5.968,3.441,1.62-.913-5.986-3.467Z" transform="translate(-2756.06 -1377.204)" fill="#2281cb"/>
          <path id="Path_2682" data-name="Path 2682" d="M2826.675,1439.445l1.74,1.025,1.892-1.107-1.743-1.02Z" transform="translate(-2791.384 -1404.326)" fill="#2281cb"/>
          <path id="Path_2683" data-name="Path 2683" d="M2839.831,1447.116l4.036,2.306,1.877-1.095-4.008-2.318Z" transform="translate(-2800.155 -1409.437)" fill="#2281cb"/>
          <path id="Path_2684" data-name="Path 2684" d="M2820.081,1443.287l1.744,1.013,1.9-1.085-1.745-1.013Z" transform="translate(-2786.987 -1406.898)" fill="#2281cb"/>
          <path id="Path_2685" data-name="Path 2685" d="M2813.548,1447.047l1.724,1.011,1.9-1.1-1.737-1.013Z" transform="translate(-2782.631 -1409.394)" fill="#2281cb"/>
          <path id="Path_2686" data-name="Path 2686" d="M2835.147,1449.825l-1.912,1.092,2.168,1.262-2.175,1.247,1.859,1.061,4.064-2.342Z" transform="translate(-2795.754 -1411.981)" fill="#2281cb"/>
          <path id="Path_2687" data-name="Path 2687" d="M2832.764,1443l1.742,1.021,1.9-1.106-1.748-1.009Z" transform="translate(-2795.444 -1406.702)" fill="#2281cb"/>
          <path id="Path_2688" data-name="Path 2688" d="M2826.188,1446.777l1.742.991,1.894-1.085-1.74-1.011Z" transform="translate(-2791.059 -1409.212)" fill="#2281cb"/>
          <path id="Path_2689" data-name="Path 2689" d="M2819.615,1450.615l1.737.98,1.9-1.073-1.737-1.006Z" transform="translate(-2786.676 -1411.775)" fill="#2281cb"/>
          <path id="Path_2690" data-name="Path 2690" d="M2813.014,1454.414l1.75,1,1.884-1.1-1.732-.992Z" transform="translate(-2782.275 -1414.309)" fill="#2281cb"/>
          <path id="Path_2691" data-name="Path 2691" d="M2806.939,1450.862l1.74,1.011,1.887-1.1-1.742-1.021Z" transform="translate(-2778.224 -1411.933)" fill="#2281cb"/>
          <path id="Path_2692" data-name="Path 2692" d="M2820.149,1458.514l4.008,2.311,1.9-1.09-4.027-2.344Z" transform="translate(-2787.032 -1417.026)" fill="#2281cb"/>
          <path id="Path_2693" data-name="Path 2693" d="M2764.072,1403.265l1.75,1.015,1.907-1.109-1.759-1Z" transform="translate(-2749.642 -1380.207)" fill="#2281cb"/>
          <path id="Path_2694" data-name="Path 2694" d="M2757.7,1399.6l1.74,1,1.9-1.08-1.736-1.013Z" transform="translate(-2745.393 -1377.763)" fill="#2281cb"/>
          <path id="Path_2695" data-name="Path 2695" d="M2751.135,1403.339l1.888-1.111,3.886,2.263-1.895,1.1Z" transform="translate(-2741.016 -1380.245)" fill="#2281cb"/>
          <path id="Path_2696" data-name="Path 2696" d="M2744.566,1407.207l1.889-1.1,3.879,2.244-1.9,1.08Z" transform="translate(-2736.636 -1382.832)" fill="#2281cb"/>
          <path id="Path_2697" data-name="Path 2697" d="M2738.011,1410.941l1.9-1.09,3.343,1.917-1.908,1.107Z" transform="translate(-2732.266 -1385.328)" fill="#2281cb"/>
          <path id="Path_2698" data-name="Path 2698" d="M2731.378,1414.808l1.734,1,1.9-1.111-1.733-.992Z" transform="translate(-2727.843 -1387.9)" fill="#2281cb"/>
          <path id="Path_2699" data-name="Path 2699" d="M2737.634,1418.4l1.747,1,1.9-1.095-1.738-1Z" transform="translate(-2732.014 -1390.296)" fill="#2281cb"/>
          <path id="Path_2700" data-name="Path 2700" d="M2806.434,1458.226l1.746,1,1.909-1.094-1.747-1.009Z" transform="translate(-2777.888 -1416.848)" fill="#2281cb"/>
          <path id="Path_2701" data-name="Path 2701" d="M2800.366,1454.7l1.742.989L2804,1454.6l-1.738-1Z" transform="translate(-2773.842 -1414.496)" fill="#2281cb"/>
          <path id="Path_2702" data-name="Path 2702" d="M2820.594,1435.981l1.734,1.011,1.893-1.095-1.729-1.011Z" transform="translate(-2787.329 -1402.021)" fill="#2281cb"/>
          <path id="Path_2703" data-name="Path 2703" d="M2813.981,1439.784l1.741,1.006,1.909-1.1-1.745-1Z" transform="translate(-2782.92 -1404.555)" fill="#2281cb"/>
          <path id="Path_2704" data-name="Path 2704" d="M2807.405,1443.587l1.742.985,1.891-1.1-1.729-.992Z" transform="translate(-2778.535 -1407.084)" fill="#2281cb"/>
          <path id="Path_2705" data-name="Path 2705" d="M2800.825,1447.389l1.75.991,1.9-1.078-1.751-1.013Z" transform="translate(-2774.148 -1409.623)" fill="#2281cb"/>
          <path id="Path_2706" data-name="Path 2706" d="M2794.263,1451.21l1.734,1.013,1.908-1.114-1.746-.985Z" transform="translate(-2769.773 -1412.181)" fill="#2281cb"/>
          <path id="Path_2707" data-name="Path 2707" d="M2814.48,1432.51l1.74.98,1.894-1.083-1.744-.992Z" transform="translate(-2783.252 -1399.706)" fill="#2281cb"/>
          <path id="Path_2708" data-name="Path 2708" d="M2807.878,1436.28l1.747,1,1.9-1.083-1.745-1Z" transform="translate(-2778.85 -1402.226)" fill="#2281cb"/>
          <path id="Path_2709" data-name="Path 2709" d="M2801.306,1440.068l1.735.985,1.9-1.088-1.74-1.006Z" transform="translate(-2774.468 -1404.736)" fill="#2281cb"/>
          <path id="Path_2710" data-name="Path 2710" d="M2826.722,1454.681l1.742,1,1.892-1.09-1.738-1Z" transform="translate(-2791.415 -1414.496)" fill="#2281cb"/>
          <path id="Path_2711" data-name="Path 2711" d="M2794.737,1443.884l1.738,1.02,1.911-1.1-1.744-1Z" transform="translate(-2770.089 -1407.299)" fill="#2281cb"/>
          <path id="Path_2712" data-name="Path 2712" d="M2788.179,1447.678l1.733.991,1.891-1.094-1.734-1.006Z" transform="translate(-2765.716 -1409.81)" fill="#2281cb"/>
          <path id="Path_2713" data-name="Path 2713" d="M2808.489,1428.925l1.744,1.015,1.887-1.1-1.734-1Z" transform="translate(-2779.258 -1397.32)" fill="#2281cb"/>
          <path id="Path_2714" data-name="Path 2714" d="M2801.887,1432.7l1.74,1.013,1.922-1.1-1.758-1.018Z" transform="translate(-2774.856 -1399.821)" fill="#2281cb"/>
          <path id="Path_2715" data-name="Path 2715" d="M2795.347,1436.533l1.733.987,1.9-1.1-1.739-.992Z" transform="translate(-2770.495 -1402.384)" fill="#2281cb"/>
          <path id="Path_2716" data-name="Path 2716" d="M2788.745,1440.32l1.742,1.006,1.9-1.08-1.753-1.02Z" transform="translate(-2766.093 -1404.913)" fill="#2281cb"/>
          <path id="Path_2717" data-name="Path 2717" d="M2782.18,1444.142l1.73,1.018,1.9-1.114-1.732-.992Z" transform="translate(-2761.716 -1407.467)" fill="#2281cb"/>
          <path id="Path_2718" data-name="Path 2718" d="M2802.375,1425.449l1.742.98,1.9-1.1-1.75-.98Z" transform="translate(-2775.181 -1394.996)" fill="#2281cb"/>
          <path id="Path_2719" data-name="Path 2719" d="M2795.8,1429.216l1.744,1,1.9-1.085-1.736-1Z" transform="translate(-2770.796 -1397.516)" fill="#2281cb"/>
          <path id="Path_2720" data-name="Path 2720" d="M2789.2,1433l1.745,1,1.907-1.095-1.752-1Z" transform="translate(-2766.395 -1400.031)" fill="#2281cb"/>
          <path id="Path_2721" data-name="Path 2721" d="M2782.653,1436.825l1.742,1.006,1.9-1.092-1.742-1Z" transform="translate(-2762.032 -1402.589)" fill="#2281cb"/>
          <path id="Path_2722" data-name="Path 2722" d="M2796.239,1421.835l1.749,1.011,1.9-1.1-1.745-1.011Z" transform="translate(-2771.09 -1392.582)" fill="#2281cb"/>
          <path id="Path_2723" data-name="Path 2723" d="M2789.671,1425.661l1.741,1.006,1.9-1.087-1.736-1.014Z" transform="translate(-2766.711 -1395.139)" fill="#2281cb"/>
          <path id="Path_2724" data-name="Path 2724" d="M2783.112,1429.443l1.742,1.013,1.881-1.1-1.729-1Z" transform="translate(-2762.338 -1397.665)" fill="#2281cb"/>
          <path id="Path_2725" data-name="Path 2725" d="M2776.518,1433.232l1.747,1.021,1.886-1.1-1.742-1.02Z" transform="translate(-2757.94 -1400.184)" fill="#2281cb"/>
          <path id="Path_2726" data-name="Path 2726" d="M2790.179,1418.368l1.742,1.009,1.89-1.1-1.736-1.006Z" transform="translate(-2767.049 -1390.277)" fill="#2281cb"/>
          <path id="Path_2727" data-name="Path 2727" d="M2783.556,1422.167l1.747,1.008,1.91-1.1-1.74-1.006Z" transform="translate(-2762.634 -1392.807)" fill="#2281cb"/>
          <path id="Path_2728" data-name="Path 2728" d="M2777.024,1425.974l1.729.991,1.9-1.094-1.736-.989Z" transform="translate(-2758.278 -1395.35)" fill="#2281cb"/>
          <path id="Path_2729" data-name="Path 2729" d="M2770.437,1429.78l1.747.99,1.884-1.078-1.739-1.009Z" transform="translate(-2753.885 -1397.885)" fill="#2281cb"/>
          <path id="Path_2730" data-name="Path 2730" d="M2784.066,1414.9l1.747.985,1.893-1.092-1.752-.98Z" transform="translate(-2762.973 -1387.967)" fill="#2281cb"/>
          <path id="Path_2731" data-name="Path 2731" d="M2777.483,1418.672l1.744,1,1.9-1.09-1.737-1Z" transform="translate(-2758.584 -1390.482)" fill="#2281cb"/>
          <path id="Path_2732" data-name="Path 2732" d="M2770.877,1422.451l1.75,1,1.9-1.092-1.745-1Z" transform="translate(-2754.18 -1393.002)" fill="#2281cb"/>
          <path id="Path_2733" data-name="Path 2733" d="M2764.323,1426.276l1.747.994,1.9-1.094-1.747-.992Z" transform="translate(-2749.809 -1395.551)" fill="#2281cb"/>
          <path id="Path_2734" data-name="Path 2734" d="M2778.077,1411.3l1.747,1.013,1.885-1.1-1.724-1Z" transform="translate(-2758.98 -1385.567)" fill="#2281cb"/>
          <path id="Path_2735" data-name="Path 2735" d="M2771.484,1415.091l1.736,1.006,1.916-1.1-1.74-1.006Z" transform="translate(-2754.584 -1388.087)" fill="#2281cb"/>
          <path id="Path_2736" data-name="Path 2736" d="M2764.925,1418.923l1.732.994,1.9-1.1-1.737-.984Z" transform="translate(-2750.211 -1390.65)" fill="#2281cb"/>
          <path id="Path_2737" data-name="Path 2737" d="M2758.342,1422.7l1.739.992,1.9-1.078-1.752-1.013Z" transform="translate(-2745.821 -1393.165)" fill="#2281cb"/>
          <path id="Path_2738" data-name="Path 2738" d="M2772,1407.827l1.74.979,1.885-1.09-1.744-.992Z" transform="translate(-2754.928 -1383.243)" fill="#2281cb"/>
          <path id="Path_2739" data-name="Path 2739" d="M2765.384,1411.6l1.74.984,1.9-1.08-1.724-1.011Z" transform="translate(-2750.517 -1385.754)" fill="#2281cb"/>
          <path id="Path_2740" data-name="Path 2740" d="M2758.79,1415.392l1.752,1,1.891-1.092-1.74-1Z" transform="translate(-2746.12 -1388.292)" fill="#2281cb"/>
          <path id="Path_2741" data-name="Path 2741" d="M2752.218,1419.233l1.746,1.009,1.9-1.1-1.732-.982Z" transform="translate(-2741.738 -1390.865)" fill="#2281cb"/>
          <path id="Path_2742" data-name="Path 2742" d="M2776.091,1440.6l1.731,1,1.9-1.1-1.744-1.006Z" transform="translate(-2757.656 -1405.09)" fill="#2281cb"/>
          <path id="Path_2743" data-name="Path 2743" d="M2820.37,1466.278l1.742.982,1.9-1.1-1.742-1Z" transform="translate(-2787.18 -1422.204)" fill="#2281cb"/>
          <path id="Path_2744" data-name="Path 2744" d="M2813.81,1462.4l1.729.97,1.91-1.09-1.75-1.011Z" transform="translate(-2782.805 -1419.612)" fill="#2281cb"/>
        </g>
        <g id="Group_1561" data-name="Group 1561" transform="translate(121.564 66.036)">
          <path id="Path_2745" data-name="Path 2745" d="M2942.493,1424.993l-.2-.415c12.777-6.161,14.161-13.952,15.488-21.477,1-5.668,2.051-11.521,7.883-16.606l.306.351c-5.72,4.98-6.7,10.5-7.726,16.343C2956.889,1410.831,2955.481,1418.737,2942.493,1424.993Z" transform="translate(-2929.823 -1386.494)" fill="#307bcb"/>
          <path id="Path_2746" data-name="Path 2746" d="M2937.881,1507.4l-3.592-2.076,4.207-2.012v2.349A2.942,2.942,0,0,1,2937.881,1507.4Z" transform="translate(-2924.489 -1464.382)" fill="#307bcb"/>
          <path id="Path_2747" data-name="Path 2747" d="M2944.613,1510.9c-.092.107-.168.206-.227.284v-2.339l.227-.282Z" transform="translate(-2931.22 -1467.887)" fill="#121214"/>
          <path id="Path_2748" data-name="Path 2748" d="M2916.056,1509.276c-3.1,1.785-7.489,2.17-9.792.832a2.4,2.4,0,0,1-1.385-2.087v-2.338a48.642,48.642,0,0,1,5.6-2.375l7.568,2.034v2.34A7.3,7.3,0,0,1,2916.056,1509.276Z" transform="translate(-2904.879 -1464.382)" fill="#307bcb"/>
          <path id="Path_2749" data-name="Path 2749" d="M2916.068,1502.263c-3.1,1.79-7.49,2.172-9.792.839s-1.657-3.859,1.447-5.661a12.189,12.189,0,0,1,2.764-1.137l7.569,4.368A7.441,7.441,0,0,1,2916.068,1502.263Z" transform="translate(-2904.891 -1459.711)" fill="#1a4880"/>
          <path id="Path_2750" data-name="Path 2750" d="M2923.148,1496.076l7.205,4.156c.032-.048.063-.079.1-.124l-7.3-4.227Z" transform="translate(-2917.06 -1459.429)" fill="#307bcb"/>
          <path id="Path_2751" data-name="Path 2751" d="M2922.316,1496.54l7.354,4.242c.045-.05.084-.1.128-.157l-7.205-4.156C2922.5,1496.494,2922.407,1496.515,2922.316,1496.54Z" transform="translate(-2916.505 -1459.821)" fill="#121214"/>
          <path id="Path_2752" data-name="Path 2752" d="M2937.881,1501.082l-3.592-2.084,2.885-1.656A2.365,2.365,0,0,1,2937.881,1501.082Z" transform="translate(-2924.489 -1460.404)" fill="#1a4880"/>
          <path id="Path_2753" data-name="Path 2753" d="M2929.621,1495.591l-2.885,1.673-3.588-2.084A9.67,9.67,0,0,1,2929.621,1495.591Z" transform="translate(-2917.06 -1458.729)" fill="#1a4880"/>
          <path id="Path_2754" data-name="Path 2754" d="M2936.085,1497.443l.084.048.631-.378c.025.007.048.029.068.033a.159.159,0,0,0,.056.043l-.648.368.081.041a.189.189,0,0,1,0,.361l-1.223.719a.7.7,0,0,1-.625,0l-.079-.048-.389.215-.125-.06.39-.222-.077-.048a.19.19,0,0,1,0-.361l1.231-.712A.7.7,0,0,1,2936.085,1497.443Z" transform="translate(-2924.24 -1460.251)" fill="#307bcb"/>
          <g id="Group_1560" data-name="Group 1560" transform="translate(9.999 36.714)">
            <path id="Path_2755" data-name="Path 2755" d="M2935,1498.416l.236.139a.573.573,0,0,0,.555,0l1.093-.619a.211.211,0,0,0,.11-.155v.488a.18.18,0,0,1-.11.148l-1.093.626a.55.55,0,0,1-.555,0l-.236-.131a.182.182,0,0,1-.117-.165v-.485A.171.171,0,0,0,2935,1498.416Z" transform="translate(-2934.885 -1497.41)" fill="#5098dc"/>
            <path id="Path_2756" data-name="Path 2756" d="M2936.886,1497.195l-1.093.619a.574.574,0,0,1-.555,0l-.236-.139a.161.161,0,0,1,0-.311l1.09-.636a.67.67,0,0,1,.55,0l.244.141a.2.2,0,0,1,.11.151v.019A.211.211,0,0,1,2936.886,1497.195Z" transform="translate(-2934.885 -1496.67)" fill="#2d7add"/>
          </g>
        </g>
        <g id="Group_1562" data-name="Group 1562" transform="translate(155.201 17.711)">
          <path id="Path_2757" data-name="Path 2757" d="M3030.817,1411.2l-.016-.93c.886-.017,3.009-.062,4.424-.16-.707-.184-1.642-.4-2.6-.631-7.429-1.749-22.888-5.4-26.8-13.206l.833-.421c3.719,7.425,18.89,11,26.188,12.728,3.852.906,4.538,1.068,4.471,1.73C3037.253,1410.9,3036.956,1411.083,3030.817,1411.2Z" transform="translate(-3005.82 -1344.409)" fill="#307bcb"/>
          <path id="Path_2758" data-name="Path 2758" d="M3073.325,1439.545H3076l.005,0h0a.464.464,0,0,0,.407-.287,1.5,1.5,0,0,0,.008-1.371.486.486,0,0,0-.42-.284l-2.687.009Z" transform="translate(-3050.821 -1372.242)"/>
          <rect id="Rectangle_144" data-name="Rectangle 144" width="2.497" height="46.672" transform="translate(14.42)" fill="#1a4880"/>
          <rect id="Rectangle_145" data-name="Rectangle 145" width="20.038" height="19.214" transform="translate(9.265 73.351)" fill="#121214"/>
          <rect id="Rectangle_146" data-name="Rectangle 146" width="20.038" height="19.216" transform="translate(9.265 71.726)" fill="#1a4880"/>
          <rect id="Rectangle_147" data-name="Rectangle 147" width="2.497" height="38.661" transform="translate(14.42 46.672)" fill="#121214"/>
          <rect id="Rectangle_148" data-name="Rectangle 148" width="4.73" height="17.503" transform="translate(16.917 70.966)"/>
          <path id="Path_2759" data-name="Path 2759" d="M3056.586,1327.536h6.633v-21.869l-6.633-9.418Z" transform="translate(-3039.669 -1277.996)" fill="#307bcb"/>
          <path id="Path_2760" data-name="Path 2760" d="M3056.586,1391.834h6.633v-21.861l-6.633-9.425Z" transform="translate(-3039.669 -1320.869)" fill="#121214"/>
        </g>
        <g id="Group_1566" data-name="Group 1566" transform="translate(103.502 5.945)">
          <g id="Group_1563" data-name="Group 1563" transform="translate(9.257 51.03)">
            <path id="Path_2761" data-name="Path 2761" d="M2878.5,1367.058a1.443,1.443,0,0,1,1.434.041l7.365-4.275a1.528,1.528,0,0,1,1.4-.043l23.729,13.662a1.572,1.572,0,0,1,1.5,0v1.682h0a.5.5,0,0,1-.343.464l-8.448,4.911a1.594,1.594,0,0,1-1.421.065l-24.994-14.406a.353.353,0,0,1-.224-.325Z" transform="translate(-2878.487 -1361.522)" fill="#121214"/>
            <path id="Path_2762" data-name="Path 2762" d="M2878.7,1365.227l24.995,14.391a1.578,1.578,0,0,0,1.421-.062l8.448-4.914c.427-.215.471-.588.1-.8l-24.986-14.407a1.57,1.57,0,0,0-1.4.076l-8.468,4.875C2878.386,1364.613,2878.343,1365.005,2878.7,1365.227Z" transform="translate(-2878.458 -1359.305)" fill="#1a4880"/>
          </g>
          <g id="Group_1564" data-name="Group 1564" transform="translate(18.491 34.757)">
            <path id="Path_2763" data-name="Path 2763" d="M2964.3,1349.067l-.012,15.392,2.637-1.47.011-18.987-1,.471Z" transform="translate(-2944.917 -1332.828)" fill="#121214"/>
            <path id="Path_2764" data-name="Path 2764" d="M2906.166,1325.688v15.38l19.366,11.179.012-15.392Z" transform="translate(-2906.166 -1320.616)" fill="#307bcb"/>
            <path id="Path_2765" data-name="Path 2765" d="M2907.833,1311.89l-1.627,4.576,19.365,11.189,1.638-4.593Z" transform="translate(-2906.193 -1311.416)" fill="#307bcb"/>
            <path id="Path_2766" data-name="Path 2766" d="M2912.1,1310.47l-.983.457,19.365,11.188,1-.471Z" transform="translate(-2909.47 -1310.47)" fill="#1a4880"/>
          </g>
          <g id="Group_1565" data-name="Group 1565">
            <path id="Path_2767" data-name="Path 2767" d="M2907.856,1237.612l-54.217-31.315a.676.676,0,0,0-.727-.043v-.022l-1.557.925,1.1,1.561.3-.268v36.881a2.176,2.176,0,0,0,.986,1.678l52.921,30.574.37,1.73,1.515-.915h.013a.687.687,0,0,0,.292-.636V1239.3A2.113,2.113,0,0,0,2907.856,1237.612Z" transform="translate(-2851.13 -1206.168)" fill="#121214"/>
            <path id="Path_2768" data-name="Path 2768" d="M2905.869,1281.034l-54.2-31.294a2.208,2.208,0,0,1-.99-1.716v-38.473c0-.631.432-.889.99-.581l54.2,31.3a2.218,2.218,0,0,1,.978,1.7v38.475C2906.847,1281.1,2906.39,1281.32,2905.869,1281.034Z" transform="translate(-2850.678 -1207.95)" fill="#307bcb"/>
          </g>
          <path id="Path_2769" data-name="Path 2769" d="M2907.855,1280.538v.445l-53.745-31.036v-35.524l.4.227v35.081Z" transform="translate(-2852.966 -1211.672)" fill="#121214"/>
          <path id="Path_2770" data-name="Path 2770" d="M2908.651,1245.916v35.077l-53.348-30.806V1215.1Z" transform="translate(-2853.762 -1212.126)" fill="url(#linear-gradient-3)"/>
          <path id="Path_2771" data-name="Path 2771" d="M2885.535,1241.378l-23.642-13.665V1226.4l23.642,13.653Z" transform="translate(-2858.156 -1219.657)" fill="#fff"/>
          <path id="Path_2772" data-name="Path 2772" d="M2897.445,1309.753l-35.551-20.478v-1.324l35.551,20.49Z" transform="translate(-2858.156 -1260.698)" fill="#fff"/>
          <path id="Path_2773" data-name="Path 2773" d="M2897.445,1319.963l-35.551-20.487v-1.319l35.551,20.49Z" transform="translate(-2858.156 -1267.503)" fill="#fff"/>
          <path id="Path_2774" data-name="Path 2774" d="M2897.445,1330.163l-35.551-20.48v-1.322l35.551,20.49Z" transform="translate(-2858.156 -1274.307)" fill="#fff"/>
          <path id="Path_2775" data-name="Path 2775" d="M2885.535,1269.595l-23.642-13.648v-3.666l23.642,13.66Z" transform="translate(-2858.156 -1236.914)" fill="#fff"/>
          <path id="Path_2776" data-name="Path 2776" d="M2901.319,1259.342l-39.425-22.681v-1.326l39.422,22.681Z" transform="translate(-2858.156 -1225.615)" fill="#fff"/>
        </g>
        <g id="Group_1567" data-name="Group 1567" transform="translate(129.495 108.318)">
          <path id="Path_2777" data-name="Path 2777" d="M2957.344,1514.521a9.175,9.175,0,0,0-3.036-1.013l-1.8-.129a9.724,9.724,0,0,0-4.719,1.142c-2.655,1.522-2.655,4,0,5.527a10.539,10.539,0,0,0,9.556,0C2959.981,1518.521,2959.981,1516.043,2957.344,1514.521Z" transform="translate(-2940.093 -1513.378)" fill="#fff"/>
          <path id="Path_2778" data-name="Path 2778" d="M2958.5,1515.574a8.054,8.054,0,0,0-2.652-.87l-1.567-.108a8.642,8.642,0,0,0-4.1.977c-1.932,1.13-2.234,2.829-.922,4.12a4.637,4.637,0,0,1,.922-.717,8.566,8.566,0,0,1,4.1-.992l1.567.12a8.117,8.117,0,0,1,2.652.872,5.628,5.628,0,0,1,.933.717C2960.725,1518.4,2960.41,1516.693,2958.5,1515.574Z" transform="translate(-2941.865 -1514.191)" fill="#386dba"/>
          <path id="Path_2779" data-name="Path 2779" d="M2957.444,1524.885l-1.567-.119a8.569,8.569,0,0,0-4.1.992,4.66,4.66,0,0,0-.922.717,3.838,3.838,0,0,0,.922.693,9.2,9.2,0,0,0,8.321,0,4.481,4.481,0,0,0,.934-.693,5.624,5.624,0,0,0-.934-.717A8.121,8.121,0,0,0,2957.444,1524.885Z" transform="translate(-2943.464 -1520.971)" fill="#608be8"/>
          <path id="Path_2780" data-name="Path 2780" d="M2957.34,1527.9a10.537,10.537,0,0,1-9.556,0,3.42,3.42,0,0,1-1.972-2.593l-.02,11.234v.017a3.358,3.358,0,0,0,1.993,2.75,10.523,10.523,0,0,0,9.556,0,3.228,3.228,0,0,0,1.969-2.92v-8.933l.007-2.3A3.351,3.351,0,0,1,2957.34,1527.9Z" transform="translate(-2940.09 -1521.229)" fill="#fff"/>
          <path id="Path_2781" data-name="Path 2781" d="M2928.681,1531.158v5.382a2.6,2.6,0,0,0,2.606,2.593h3.116v-1.726h-3.116a.863.863,0,0,1-.866-.867v-5.382a.86.86,0,0,1,.866-.872h3.116v-1.725h-3.116A2.6,2.6,0,0,0,2928.681,1531.158Z" transform="translate(-2928.681 -1523.501)" fill="#fff"/>
        </g>
      </g>
      <g id="Group_1579" data-name="Group 1579" transform="translate(0 31.016)">
        <g id="Group_1569" data-name="Group 1569" transform="translate(52.701 82.412)">
          <path id="Path_2782" data-name="Path 2782" d="M2727.635,1681.748c2.091.877,5.069.069,5.891,1.883a4.68,4.68,0,0,1-1.537,4.631c-1.942,1.487-7.029,3.236-8.583,4.307-1.531,1.068-4.575,4.431-5.934,5.03s-4.987.832-6.629-.392,1.465-8.969,1.564-10.3S2725.548,1680.876,2727.635,1681.748Z" transform="translate(-2706.121 -1630.68)" fill="#608be8"/>
          <path id="Path_2783" data-name="Path 2783" d="M2724.147,1530.24c-3.176-2.249-26.525-1.353-26.525-1.353l.608,17.03,12.5-2.179c-1.776,1.391-3.34,2.813-3.08,3.353-4.878,17.8-4.265,34.47-4.377,37.056.043,4.622,11.99,6.3,16.345-2.788C2719.874,1565.167,2729.34,1533.937,2724.147,1530.24Z" transform="translate(-2697.622 -1528.711)" fill="#0f2034"/>
          <path id="Path_2784" data-name="Path 2784" d="M2774.7,1714.9c3.5,1.393,9.855,1.515,10.746,3.142a4.652,4.652,0,0,1-3.013,6.737,93.1,93.1,0,0,1-12.722,1.814c-4.137.929-7.909,1.517-10.319.277-4.26-2.23-.964-12.207-.964-12.207S2772.677,1714.025,2774.7,1714.9Z" transform="translate(-2737.354 -1652.549)" fill="#608be8"/>
          <path id="Path_2785" data-name="Path 2785" d="M2765.653,1597.615c-4.868,17.8-7.041,33.76-7.167,36.355.041,4.619,13.563,6.541,17.927-2.538.3-19.818,7.787-42.3,7.787-42.3l-12.15,1.424S2765.088,1596.444,2765.653,1597.615Z" transform="translate(-2738.205 -1568.996)" fill="#1d374e"/>
        </g>
        <g id="Group_1570" data-name="Group 1570" transform="translate(5.391 157.873)">
          <path id="Path_2786" data-name="Path 2786" d="M2560.034,1755.162a4.384,4.384,0,0,1,4.379,4.385v2.612h-.867a4.383,4.383,0,0,1-3.512,1.775,4.429,4.429,0,0,1-3.53-1.775h-.854v-2.612A4.388,4.388,0,0,1,2560.034,1755.162Z" transform="translate(-2555.649 -1755.162)" fill="#244ec7"/>
          <path id="Path_2787" data-name="Path 2787" d="M2560.034,1762.964a4.383,4.383,0,1,1-4.384,4.4A4.392,4.392,0,0,1,2560.034,1762.964Z" transform="translate(-2555.649 -1760.364)" fill="#2f59be"/>
          <path id="Path_2788" data-name="Path 2788" d="M2563.677,1768.321a2.552,2.552,0,1,1-2.563,2.566A2.552,2.552,0,0,1,2563.677,1768.321Z" transform="translate(-2559.293 -1763.936)" fill="#231f20"/>
        </g>
        <g id="Group_1571" data-name="Group 1571" transform="translate(82.131 157.873)">
          <path id="Path_2789" data-name="Path 2789" d="M2790.308,1755.162a4.387,4.387,0,0,1,4.4,4.385v2.612h-.864a4.38,4.38,0,0,1-7.042,0h-.864v-2.612A4.377,4.377,0,0,1,2790.308,1755.162Z" transform="translate(-2785.937 -1755.162)" fill="#244ec7"/>
          <path id="Path_2790" data-name="Path 2790" d="M2790.308,1762.964a4.383,4.383,0,1,1-4.371,4.4A4.394,4.394,0,0,1,2790.308,1762.964Z" transform="translate(-2785.937 -1760.364)" fill="#2f59be"/>
          <path id="Path_2791" data-name="Path 2791" d="M2793.976,1768.321a2.552,2.552,0,1,1,0,5.1,2.552,2.552,0,0,1,0-5.1Z" transform="translate(-2789.605 -1763.936)" fill="#231f20"/>
        </g>
        <rect id="Rectangle_149" data-name="Rectangle 149" width="5.101" height="10.546" transform="translate(45.164 181.218)" fill="#231f20"/>
        <g id="Group_1572" data-name="Group 1572" transform="translate(4.524 130.264)">
          <path id="Path_2792" data-name="Path 2792" d="M2591.466,1684.57c0-1.527,2.156-2.779,4.774-2.779s4.752,1.252,4.752,2.779v18.994h38.432v3.171c0,1.5-2.168,2.729-4.816,2.729h-33.615v19.407c0,1.541-2.133,2.784-4.752,2.784s-4.76-1.242-4.774-2.784v-19.407h-33.6c-2.644,0-4.816-1.233-4.816-2.729v-3.171h38.42Z" transform="translate(-2553.046 -1678.632)"/>
          <path id="Path_2793" data-name="Path 2793" d="M2557.863,1694.5h33.6v-19.407c0-1.529,2.156-2.781,4.774-2.781s4.752,1.252,4.752,2.781V1694.5h33.615c2.648,0,4.816,1.233,4.816,2.743s-2.168,2.741-4.816,2.741h-33.615v19.409c0,1.53-2.133,2.777-4.752,2.777s-4.76-1.247-4.774-2.777v-19.409h-33.6c-2.644,0-4.816-1.238-4.816-2.741S2555.219,1694.5,2557.863,1694.5Z" transform="translate(-2553.046 -1672.311)" fill="url(#linear-gradient-5)"/>
        </g>
        <g id="Group_1575" data-name="Group 1575" transform="translate(42.498 117.228)">
          <g id="Group_1573" data-name="Group 1573" transform="translate(0.425 10.278)">
            <path id="Path_2794" data-name="Path 2794" d="M2669.689,1664.83a6.156,6.156,0,0,1,2.146-.712l1.264-.084a6.851,6.851,0,0,1,3.359.8c1.871,1.092,1.871,2.83,0,3.917a7.476,7.476,0,0,1-6.77,0C2667.818,1667.66,2667.818,1665.91,2669.689,1664.83Z" transform="translate(-2668.283 -1664.034)" fill="#244ec7"/>
            <path id="Path_2795" data-name="Path 2795" d="M2669.683,1674.28a7.477,7.477,0,0,0,6.77,0,2.414,2.414,0,0,0,1.384-1.826l.018,25.159a2.354,2.354,0,0,1-1.4,1.95,7.4,7.4,0,0,1-6.77,0,2.277,2.277,0,0,1-1.4-2.052v-23.553l-.009-1.625A2.416,2.416,0,0,0,2669.683,1674.28Z" transform="translate(-2668.277 -1669.567)"/>
          </g>
          <g id="Group_1574" data-name="Group 1574">
            <path id="Path_2796" data-name="Path 2796" d="M2668.529,1634.069a7.336,7.336,0,0,1,2.345-.779l1.38-.1a7.7,7.7,0,0,1,3.652.88c2.046,1.187,2.046,3.09,0,4.275a8.157,8.157,0,0,1-7.377,0C2666.494,1637.159,2666.494,1635.257,2668.529,1634.069Z" transform="translate(-2667.003 -1633.19)" fill="#244ec7"/>
            <path id="Path_2797" data-name="Path 2797" d="M2668.534,1644.422a8.154,8.154,0,0,0,7.377,0,2.673,2.673,0,0,0,1.521-2l.013,10.546a2.608,2.608,0,0,1-1.534,2.127,8.128,8.128,0,0,1-7.377,0,2.458,2.458,0,0,1-1.515-2.251v-8.766l-.008-1.771A2.583,2.583,0,0,0,2668.534,1644.422Z" transform="translate(-2667.008 -1639.267)" fill="#231f20"/>
          </g>
        </g>
        <g id="Group_1576" data-name="Group 1576" transform="translate(4.127 93.37)">
          <path id="Path_2798" data-name="Path 2798" d="M2574.594,1571.028c11.576-6.711,20.749-10.914,22.135-8.947l41.9,24.686-44.719,27.824s-42.056-24.019-42.056-24.846C2551.855,1586.662,2562.031,1578.272,2574.594,1571.028Z" transform="translate(-2551.855 -1561.595)" fill="#121214"/>
          <path id="Path_2799" data-name="Path 2799" d="M2699.765,1644.813c12.548-7.238,22.726-10.613,22.726-7.518s-10.168,11.464-22.726,18.717-22.732,10.612-22.732,7.522S2687.209,1652.064,2699.765,1644.813Z" transform="translate(-2635.32 -1611.303)"/>
        </g>
        <g id="Group_1577" data-name="Group 1577" transform="translate(12.457)">
          <path id="Path_2800" data-name="Path 2800" d="M2589.237,1562.5s-1.864,10.9,9.434,18.458c6.955,4.658,15.768,11.124,26.113,7.937,6.536-2.007,27.942-12.214,27.942-12.214s14.053-.1,18.211-7.37c.358-1.314,3.646-9.872-6.137-11.267a196.187,196.187,0,0,0-36.288,1.314Z" transform="translate(-2585.034 -1465.65)" fill="#1d374e"/>
          <path id="Path_2801" data-name="Path 2801" d="M2662.741,1403.774l15.524-4.223s9.534-2.982,11.876-2.464,8.4,3.7,6.895,6.935c-.625,1.338-6.277-2.01-7.425-1.79-1.164.227-2.894,2.141-2.535,2.947s5.134,2.366,4.606,3.73-5.817-.17-8.319-.107c-2.482.059-3.723-2.622-5.786-2.565-1.895.1-10.76,5.239-10.76,5.239l-6.559-2.982Z" transform="translate(-2632.465 -1358.496)" fill="#5d9bd9"/>
          <path id="Path_2802" data-name="Path 2802" d="M2578.724,1376.661c-5.691,8.068,3.419,16.367,3.419,16.367s14.9,9.452,16.7,10.633c12.179-4.67,9.8-12.126,9.8-12.126l-15.022-14.492S2583.813,1369.444,2578.724,1376.661Z" transform="translate(-2576.853 -1342.843)" fill="#163884"/>
          <path id="Path_2803" data-name="Path 2803" d="M2634.243,1364.775s1.033-2.418,2.956-2.615a25.958,25.958,0,0,0-.377,4.07l-2.948,1.2Z" transform="translate(-2614.873 -1335.249)" fill="#4179c0"/>
          <path id="Path_2804" data-name="Path 2804" d="M2657.461,1323.224c.809.894-1.6,9.162-2.182,11.537-.541,2.211-6.052,2.56-6.052,2.56s-1.482,4.786-1.012,8.338-6.713,3.666-12.939.992c-8.567-3.673-4.379-8.168-4.379-8.168a17.686,17.686,0,0,0,2.477-5.2c1.37-1.329,8.776-13.526,8.776-13.526s16.243-3.159,16.282-1.912C2658.778,1320,2657.461,1323.224,2657.461,1323.224Z" transform="translate(-2612.204 -1305.507)" fill="#5d9bd9"/>
          <path id="Path_2805" data-name="Path 2805" d="M2658.951,1288.777c2.884,6.687-3.622,9.872-3.688,14.181-1.354-.153-2.571-1.505-4.043.786-1.479,2.275-.21,5.228-1.938,6.823-3.791,3.511-12.946,1.312-14.841-1.389s-3.069-9.1-2.96-16.088,4.5-8.522,10.956-10.878c5-1.821,12.369-.268,15.543,1.634C2660.581,1285.4,2660.924,1287.288,2658.951,1288.777Z" transform="translate(-2613.271 -1281.401)" fill="#1a4880"/>
          <path id="Path_2806" data-name="Path 2806" d="M2631.679,1553.78s2.313,8.02-2.7,12.176c-5.256,4.383-12.842,4.794-17.568,3.465-12.885-3.606-21.845-9.719-21.961-12.128-.135-2.4,1.38-7.37,1.38-7.37Z" transform="translate(-2585.247 -1460.443)" fill="#608be8"/>
          <path id="Path_2807" data-name="Path 2807" d="M2633.35,1397.753s-8.308-5.112-12.1-10.221c0,2.891-6.442,2.875-13.5-.521-5.914-2.861-3.822-6.656-3.822-6.656a21.484,21.484,0,0,1-5.61,1.018c-2.574.177-11.573,4.992-8.1,26.151,2.7,16.425-.142,24.148.021,30.682s16.563,15.985,32.166,13.17c7.126-1.276,10.086-4.29,9.11-12.462-1.635-13.781,3.73-17.407,3.76-26.371A61.009,61.009,0,0,0,2633.35,1397.753Z" transform="translate(-2585.245 -1347.38)" fill="#163884"/>
          <path id="Path_2808" data-name="Path 2808" d="M2629.616,1381.058s-2.779,6.608,8.979,9.595c8.111,2.064,10.338-1.29,10.338-1.29Z" transform="translate(-2611.843 -1347.849)" fill="#4179c0"/>
          <path id="Path_2809" data-name="Path 2809" d="M2631.375,1370.007a10.894,10.894,0,0,1-1.6,3.683c-2.4,8.281,17.023,11.227,19.567,7.917,0,0-.1-3.355-.25-4.572C2640.649,1379.626,2630.721,1374.213,2631.375,1370.007Z" transform="translate(-2612.005 -1340.48)" fill="#163884"/>
          <path id="Path_2810" data-name="Path 2810" d="M2710.379,1493.961v-2.292l-6.192-1.14,5.053,7.014Z" transform="translate(-2661.755 -1420.841)" fill="#4179c0"/>
          <path id="Path_2811" data-name="Path 2811" d="M2753.62,1483.87a68.238,68.238,0,0,1,5.46,6.022c6.58-.2,28.061-1.259,33.317-1.656,1.287-.43,6.639-6.309,8.868-6.911,2.254-.6,9.845.94,10.611,2.024a5.236,5.236,0,0,1,.131,5.2c-.617,1.178-6.024,3.183-6.024,3.183s-5.285,3.647-8.883,4.266c-1.566.27-4.827-1.063-4.827-1.063s-25.105,11.127-38.658,7.346c-2.083-.579-9.292-8.625-9.292-8.625Z" transform="translate(-2688.516 -1414.614)" fill="#5d9bd9"/>
          <path id="Path_2812" data-name="Path 2812" d="M2683.451,1429.843c-6.369,7.53,1.967,15.588,1.967,15.588s13.995,11.748,15.7,13.081c12.54-3.568,10.824-11.2,10.824-11.2l-14.913-16.415S2689.168,1423.115,2683.451,1429.843Z" transform="translate(-2646.33 -1378.55)" fill="#163884"/>
        </g>
        <g id="Group_1578" data-name="Group 1578" transform="translate(0 44.745)">
          <path id="Path_2813" data-name="Path 2813" d="M2548.522,1415.807a1.329,1.329,0,0,1,.918-.089l40.818,23.432-6.2,77.382-40.032-22.784c-4.449-2.891-5.153-12.847-4.156-32.243C2540.947,1440.161,2544.553,1417.766,2548.522,1415.807Z" transform="translate(-2539.471 -1415.676)" fill="url(#linear-gradient-6)"/>
          <path id="Path_2814" data-name="Path 2814" d="M2674.866,1486.1c3.964-1.95,4.741,15.065,3.655,36.4s-3.619,38.932-7.591,40.884-3.306-13.008-2.224-34.345S2670.9,1488.08,2674.866,1486.1Z" transform="translate(-2625.09 -1462.531)"/>
        </g>
      </g>
    </g>
    <path id="Path_2815" data-name="Path 2815" d="M2935.349,1023.394A101.606,101.606,0,0,1,2968,994.883a98.845,98.845,0,0,1,17.934-7.588" transform="translate(-268.931 -73.571)" fill="none" stroke="#59bdef" stroke-miterlimit="10" stroke-width="3.117" stroke-dasharray="7.792"/>
    <path id="Path_2816" data-name="Path 2816" d="M2935.349,1120.761c6.126-4.664,36.388-26.828,64.148-16.324a42.909,42.909,0,0,1,8.507,4.368" transform="translate(-268.931 -170.939)" fill="none" stroke="#59bdef" stroke-miterlimit="10" stroke-width="3.117" stroke-dasharray="7.792"/>
    <path id="Path_2817" data-name="Path 2817" d="M2935.349,955.378c1.289-6.916,7.338-35.385,29.787-45.372a39.183,39.183,0,0,1,8.1-2.587" transform="translate(-268.931 -5.555)" fill="none" stroke="#59bdef" stroke-miterlimit="10" stroke-width="3.117" stroke-dasharray="7.792"/>
    <path id="Path_2818" data-name="Path 2818" d="M2912.432,930.657c-3.1-9.406-7.553-28.079.817-46.062a49.893,49.893,0,0,1,3.449-6.208" transform="translate(-246.014 19.166)" fill="none" stroke="#59bdef" stroke-miterlimit="10" stroke-width="3.117" stroke-dasharray="7.792"/>
    <g id="Group_1583" data-name="Group 1583" transform="translate(2746.163 897.572)">
      <g id="Group_1582" data-name="Group 1582">
        <path id="Path_2819" data-name="Path 2819" d="M3439.987,1030.6h0l.038-.09c.008-.021.018-.042.026-.064l.028-.066a3.812,3.812,0,0,1,1.506-1.848l.183-.105h0L3464,1015.585l22.234-12.842h0l.183-.106a1.829,1.829,0,0,1,1.839-.083l.043.022.044.025,2.936,1.693-1.692.718,5.872,31.131a4.4,4.4,0,0,1-.319,2.486c-.009.023-.019.044-.027.067s-.018.042-.027.063a3.8,3.8,0,0,1-1.506,1.849l-44.345,25.612.409,1.953-2.781-1.61-.043-.024a2.284,2.284,0,0,1-1.1-1.666L3439.705,1033A4.382,4.382,0,0,1,3439.987,1030.6Z" transform="translate(-3439.643 -1002.345)" fill="#d9e9ff"/>
        <g id="Group_1581" data-name="Group 1581" transform="translate(2.884 1.666)">
          <path id="Path_2820" data-name="Path 2820" d="M3457.458,1071.505l44.833-25.894a4.688,4.688,0,0,0,1.837-4.692L3498.2,1009.5c-.342-1.808-1.717-2.639-3.073-1.856l-44.833,25.894a4.688,4.688,0,0,0-1.837,4.692l5.926,31.422C3454.726,1071.457,3456.1,1072.288,3457.458,1071.505Z" transform="translate(-3448.353 -1007.346)" fill="url(#linear-gradient-7)"/>
          <path id="Path_2821" data-name="Path 2821" d="M3450.421,1059.925l22.235-12.841,6.966,36.937-22.039,13.874a2.041,2.041,0,0,1-3.212-1.523l-6.012-31.876A4.638,4.638,0,0,1,3450.421,1059.925Z" transform="translate(-3448.296 -1033.842)" fill="#a8c4d5"/>
          <path id="Path_2822" data-name="Path 2822" d="M3543.629,1007.827l-22.234,12.841,6.923,36.706,22.472-11.577a4.638,4.638,0,0,0,2.064-4.571l-6.013-31.876A2.041,2.041,0,0,0,3543.629,1007.827Z" transform="translate(-3497.036 -1007.426)" fill="#a8c4d5"/>
          <path id="Path_2823" data-name="Path 2823" d="M3518.072,1098.479a4.377,4.377,0,0,1-1.781,2.173l-44.467,25.683a2.112,2.112,0,0,1-2.17.108l19.922-36.706Z" transform="translate(-3462.538 -1062.282)" fill="#9eadba"/>
          <path id="Path_2824" data-name="Path 2824" d="M3449.332,1035.687a4.387,4.387,0,0,1,1.78-2.174l44.468-25.683a2.114,2.114,0,0,1,2.17-.109l-19.923,36.707Z" transform="translate(-3448.986 -1007.43)" fill="#c9e2ef"/>
        </g>
      </g>
    </g>
    <g id="Group_1586" data-name="Group 1586" transform="translate(2727.717 863.395)">
      <g id="Group_1585" data-name="Group 1585" transform="translate(0)">
        <path id="Path_2825" data-name="Path 2825" d="M3292.39,900.772h0c.009-.023.018-.045.028-.068s.013-.032.02-.048.014-.033.021-.05a2.868,2.868,0,0,1,1.138-1.4l.138-.08h0l16.8-9.7,16.8-9.7h0l.138-.08a1.382,1.382,0,0,1,1.389-.063l.033.017.034.019,2.217,1.279-1.279.543,4.436,23.52a3.323,3.323,0,0,1-.241,1.879l-.021.051-.02.047a2.875,2.875,0,0,1-1.138,1.4l-33.5,19.351.308,1.476-2.1-1.217-.033-.018a1.726,1.726,0,0,1-.833-1.258l-4.542-24.083A3.3,3.3,0,0,1,3292.39,900.772Z" transform="translate(-3292.13 -879.425)" fill="#d9e9ff"/>
        <g id="Group_1584" data-name="Group 1584" transform="translate(2.178 1.259)">
          <path id="Path_2826" data-name="Path 2826" d="M3305.589,931.677l33.872-19.563a3.541,3.541,0,0,0,1.388-3.545l-4.478-23.74c-.257-1.366-1.3-1.994-2.321-1.4l-33.872,19.563a3.542,3.542,0,0,0-1.388,3.545l4.477,23.74C3303.525,931.64,3304.564,932.269,3305.589,931.677Z" transform="translate(-3298.711 -883.204)" fill="url(#linear-gradient-8)"/>
          <path id="Path_2827" data-name="Path 2827" d="M3300.274,922.928l16.8-9.7,5.263,27.907-16.651,10.482a1.542,1.542,0,0,1-2.427-1.151l-4.542-24.083A3.5,3.5,0,0,1,3300.274,922.928Z" transform="translate(-3298.667 -903.222)" fill="#a8c4d5"/>
          <path id="Path_2828" data-name="Path 2828" d="M3370.694,883.566l-16.8,9.7L3359.126,921l16.978-8.746a3.5,3.5,0,0,0,1.559-3.453l-4.542-24.083A1.542,1.542,0,0,0,3370.694,883.566Z" transform="translate(-3335.491 -883.264)" fill="#a8c4d5"/>
          <path id="Path_2829" data-name="Path 2829" d="M3351.384,952.056a3.312,3.312,0,0,1-1.345,1.642l-33.6,19.4a1.6,1.6,0,0,1-1.639.082l15.052-27.732Z" transform="translate(-3309.427 -924.708)" fill="#9eadba"/>
          <path id="Path_2830" data-name="Path 2830" d="M3299.449,904.615a3.313,3.313,0,0,1,1.345-1.642l33.6-19.4a1.6,1.6,0,0,1,1.64-.082l-15.052,27.732Z" transform="translate(-3299.189 -883.267)" fill="#c9e2ef"/>
        </g>
      </g>
    </g>
    <g id="Group_1589" data-name="Group 1589" transform="translate(2702.278 863.751)">
      <g id="Group_1588" data-name="Group 1588" transform="translate(0)">
        <path id="Path_2831" data-name="Path 2831" d="M3205.254,841.49h0c.006-.015.012-.03.018-.046l.014-.033c0-.011.009-.022.014-.033a1.943,1.943,0,0,1,.769-.944l.094-.054h0l11.356-6.559,11.357-6.559h0l.093-.054a.936.936,0,0,1,.94-.043l.022.012.022.013,1.5.864-.864.367,3,15.9a2.247,2.247,0,0,1-.163,1.27c0,.011-.009.023-.014.034s-.009.021-.014.032a1.945,1.945,0,0,1-.769.945l-22.65,13.082.208,1-1.42-.823-.022-.012a1.168,1.168,0,0,1-.563-.851l-3.071-16.281A2.242,2.242,0,0,1,3205.254,841.49Z" transform="translate(-3205.079 -827.058)" fill="#d9e9ff"/>
        <g id="Group_1587" data-name="Group 1587" transform="translate(1.473 0.851)">
          <path id="Path_2832" data-name="Path 2832" d="M3214.177,862.383l22.9-13.226a2.4,2.4,0,0,0,.939-2.4l-3.027-16.049c-.174-.924-.877-1.348-1.569-.948l-22.9,13.226a2.394,2.394,0,0,0-.938,2.4l3.027,16.049C3212.782,862.358,3213.485,862.783,3214.177,862.383Z" transform="translate(-3209.527 -829.612)" fill="url(#linear-gradient-9)"/>
          <path id="Path_2833" data-name="Path 2833" d="M3210.583,856.468l11.356-6.559,3.559,18.867-11.257,7.086a1.042,1.042,0,0,1-1.641-.778L3209.53,858.8A2.368,2.368,0,0,1,3210.583,856.468Z" transform="translate(-3209.498 -843.146)" fill="#a8c4d5"/>
          <path id="Path_2834" data-name="Path 2834" d="M3258.191,829.858l-11.356,6.559,3.537,18.748,11.478-5.913a2.367,2.367,0,0,0,1.054-2.334l-3.071-16.281A1.043,1.043,0,0,0,3258.191,829.858Z" transform="translate(-3234.393 -829.653)" fill="#a8c4d5"/>
          <path id="Path_2835" data-name="Path 2835" d="M3245.137,876.16a2.242,2.242,0,0,1-.909,1.11l-22.713,13.118a1.079,1.079,0,0,1-1.108.055l10.176-18.748Z" transform="translate(-3216.772 -857.672)" fill="#9eadba"/>
          <path id="Path_2836" data-name="Path 2836" d="M3210.027,844.087a2.239,2.239,0,0,1,.909-1.11l22.713-13.118a1.079,1.079,0,0,1,1.108-.055l-10.176,18.748Z" transform="translate(-3209.851 -829.655)" fill="#c9e2ef"/>
        </g>
      </g>
    </g>
    <g id="Group_1592" data-name="Group 1592" transform="translate(2662.021 859.778)">
      <g id="Group_1591" data-name="Group 1591" transform="translate(0)">
        <path id="Path_2837" data-name="Path 2837" d="M2968.479,809.21h0l.019-.046c.005-.011.01-.022.013-.033s.01-.023.014-.034a1.947,1.947,0,0,1,.769-.944l.094-.054h0l11.356-6.559,11.356-6.559h0l.093-.054a.934.934,0,0,1,.939-.043l.023.012.022.012,1.5.865-.864.367,3,15.9a2.26,2.26,0,0,1-.163,1.27l-.014.034-.014.032a1.947,1.947,0,0,1-.769.944L2973.2,827.4l.208,1-1.42-.822-.022-.013a1.167,1.167,0,0,1-.563-.851l-3.071-16.281A2.235,2.235,0,0,1,2968.479,809.21Z" transform="translate(-2968.304 -794.778)" fill="#d9e9ff"/>
        <g id="Group_1590" data-name="Group 1590" transform="translate(1.473 0.851)">
          <path id="Path_2838" data-name="Path 2838" d="M2977.4,830.1l22.9-13.226a2.394,2.394,0,0,0,.938-2.4l-3.027-16.049c-.174-.924-.877-1.348-1.569-.948l-22.9,13.226a2.4,2.4,0,0,0-.938,2.4l3.027,16.049C2976.007,830.078,2976.711,830.5,2977.4,830.1Z" transform="translate(-2972.753 -797.332)" fill="url(#linear-gradient-10)"/>
          <path id="Path_2839" data-name="Path 2839" d="M2973.809,824.188l11.356-6.559,3.559,18.867-11.257,7.087a1.042,1.042,0,0,1-1.641-.778l-3.071-16.282A2.37,2.37,0,0,1,2973.809,824.188Z" transform="translate(-2972.724 -810.865)" fill="#a8c4d5"/>
          <path id="Path_2840" data-name="Path 2840" d="M3021.417,797.578l-11.356,6.559,3.536,18.748,11.478-5.913a2.369,2.369,0,0,0,1.054-2.335l-3.071-16.281A1.042,1.042,0,0,0,3021.417,797.578Z" transform="translate(-2997.619 -797.373)" fill="#a8c4d5"/>
          <path id="Path_2841" data-name="Path 2841" d="M3008.364,843.88a2.241,2.241,0,0,1-.91,1.11l-22.713,13.118a1.078,1.078,0,0,1-1.108.055l10.175-18.749Z" transform="translate(-2979.998 -825.392)" fill="#9eadba"/>
          <path id="Path_2842" data-name="Path 2842" d="M2973.253,811.808a2.24,2.24,0,0,1,.909-1.11l22.713-13.118a1.08,1.08,0,0,1,1.109-.055l-10.176,18.749Z" transform="translate(-2973.077 -797.375)" fill="#c9e2ef"/>
        </g>
      </g>
    </g>
  </g>
</svg>
