<svg xmlns="http://www.w3.org/2000/svg" xmlns:xlink="http://www.w3.org/1999/xlink" width="265.456" height="300"><defs><linearGradient id="b" y1=".5" x2="1" y2=".5" gradientUnits="objectBoundingBox"><stop offset="0" stop-color="#7bdaff"/><stop offset="1" stop-color="#59bdef"/></linearGradient><linearGradient id="c" y1=".5" x2="1" y2=".5" gradientUnits="objectBoundingBox"><stop offset=".017" stop-color="#0d316b"/><stop offset=".424" stop-color="#3170ca"/><stop offset=".675" stop-color="#3170ca"/><stop offset=".868" stop-color="#1a488e"/><stop offset="1" stop-color="#0d316b"/></linearGradient><linearGradient id="d" y1=".5" x2="1" y2=".5" gradientUnits="objectBoundingBox"><stop offset="0" stop-color="#134097"/><stop offset=".267" stop-color="#14449a"/><stop offset=".566" stop-color="#1952a3"/><stop offset=".879" stop-color="#2168b2"/><stop offset="1" stop-color="#2573ba"/></linearGradient><linearGradient id="e" y1=".5" x2="1" y2=".5" gradientUnits="objectBoundingBox"><stop offset=".017" stop-color="#0d1f3e"/><stop offset=".424" stop-color="#31619f"/><stop offset=".619" stop-color="#31619f"/><stop offset=".849" stop-color="#1a3761"/><stop offset="1" stop-color="#0d1f3e"/></linearGradient><linearGradient id="f" y1=".5" x2="1" y2=".5" gradientUnits="objectBoundingBox"><stop offset="0" stop-color="#1375ae"/><stop offset=".256" stop-color="#1578b2"/><stop offset=".543" stop-color="#1c82c0"/><stop offset=".844" stop-color="#2893d6"/><stop offset="1" stop-color="#319fe5"/></linearGradient><linearGradient id="a" x1="-59.052" y1="6.074" x2="-57.911" y2="6.074" gradientUnits="objectBoundingBox"><stop offset="0" stop-color="#d1f2ff"/><stop offset="1" stop-color="#c9e2ef"/></linearGradient><linearGradient id="g" x1="-75.496" y1="7.432" x2="-74.355" y2="7.432" xlink:href="#a"/><linearGradient id="h" x1="-109.074" y1="10.303" x2="-107.933" y2="10.303" xlink:href="#a"/><linearGradient id="i" x1="-103.193" y1="9.148" x2="-102.052" y2="9.148" xlink:href="#a"/></defs><g data-name="Group 1580"><g data-name="Group 1568"><g data-name="Group 1553"><path data-name="Path 2613" d="M203.579 253.365L83.867 184.249c-4.448-2.566-11.711-2.566-16.151 0L9.086 218.09c-4.446 2.567-4.446 6.773 0 9.332l32.494 18.76a11.805 11.805 0 00-1.943.877l-36.1 20.839c-4.451 2.559-4.451 6.763 0 9.332l36.1 20.841c4.442 2.573 11.708 2.573 16.144 0l36.111-20.849a9.038 9.038 0 001.537-1.1l35.376 20.416c4.432 2.571 11.7 2.571 16.148 0l58.625-33.849c4.433-2.561 4.433-6.758.001-9.324z" opacity=".3"/><g data-name="Group 1548"><path data-name="Path 2614" d="M12.392 229.323l-3.3-1.9v-78.635l74.777-43.171 3.311 1.914z" fill="#7fafd9"/><path data-name="Path 2615" d="M87.175 186.158l-74.784 43.169v-78.623l74.784-43.168z" fill="#62add5"/></g><g data-name="Group 1549"><path data-name="Path 2616" d="M94.21 196.599l-.221-.626c.2-.076 20.457-7.477 18.883-30.672l.677-.05c1.617 23.721-19.12 31.283-19.339 31.348z" fill="#307bcb"/><path data-name="Path 2617" d="M96.799 201.578c-.415 0-.649-.019-.668-.019l.055-.679c.189.012 19.885 1.243 32.977-21.732l.588.323c-11.943 20.967-29.338 22.107-32.952 22.107z" fill="#307bcb"/><path data-name="Path 2618" d="M94.632 198.086l-.148-.674c.148-.019 14.809-3.489 27.931-26.516l.59.334c-13.279 23.315-28.223 26.828-28.373 26.856z" fill="#307bcb"/><path data-name="Path 2619" d="M48.96 235.917l-23.2-13.4v-58.3l23.2 13.4z" fill="#307bcb"/><path data-name="Path 2620" d="M99.889 206.509L48.96 235.918v-58.305l50.929-29.4z" fill="#121214"/><path data-name="Path 2621" d="M48.96 177.612l-23.2-13.4 50.932-29.4 23.2 13.4z" fill="#1a4880"/><path data-name="Path 2622" d="M45.412 208.144l-16.11-9.3v-1.606l16.11 9.311z" fill="#1a4880"/><path data-name="Path 2623" d="M45.412 194.01l-16.11-9.294v-12.543l16.11 9.291z" fill="#1a4880"/><path data-name="Path 2624" d="M45.412 185.701l-16.11-9.291v-.562l16.11 9.294z" fill="#121214"/><path data-name="Path 2625" d="M45.412 189.959l-16.11-9.294v-.569l16.11 9.287z" fill="#121214"/><path data-name="Path 2626" d="M45.412 210.49l-16.11-9.3v-1.6l16.11 9.3z" fill="#2470b7"/><path data-name="Path 2627" d="M43.074 232.507l-11.429-6.6v-21.933l11.429 6.591z" fill="#1a4880"/><path data-name="Path 2628" d="M46.191 199.571c0 1-.713 1.4-1.579.889a3.463 3.463 0 01-1.567-2.717c0-.984.7-1.4 1.567-.894a3.452 3.452 0 011.579 2.722z" fill="#3576ab"/><path data-name="Path 2629" d="M45.554 203.304c0 .6-.419.841-.943.535a2.037 2.037 0 01-.935-1.613c0-.6.42-.839.935-.542a2.053 2.053 0 01.943 1.62z" fill="#121214"/><path data-name="Path 2630" d="M40.814 199.328l-11.512-6.646v-3.976l11.512 6.648z" fill="#1a4880"/><path data-name="Path 2631" d="M39.919 197.105l-9.9-5.659v-.64l9.9 5.673z" fill="#121214"/></g><g data-name="Group 1550"><path data-name="Path 2632" d="M189.853 229.185l-3.355 1.933-115.109-94.27 3.351-1.941 115.115 66.457z" fill="#649dd9"/><path data-name="Path 2633" d="M186.498 231.116L71.389 164.662v-27.814L186.5 203.305z" fill="#7fafd9"/></g><g data-name="Group 1551"><path data-name="Path 2634" d="M128.804 296.536l-3.306-1.914v-78.625l74.781-43.173 3.3 1.914z" fill="#7fafd9"/><path data-name="Path 2635" d="M3000.776 1563.176L2926 1606.347v-78.618l74.774-43.18z" transform="translate(-2797.198 -1309.812)" fill="url(#b)"/></g><g data-name="Group 1552"><path data-name="Path 2636" d="M205.393 176.117a8.381 8.381 0 00-1.814-1.379L83.867 105.619c-4.448-2.572-11.711-2.572-16.151 0L9.087 139.46a8.749 8.749 0 00-1.811 1.377H5.755l.011 3.5c.088 1.622 1.179 3.219 3.322 4.452l119.719 69.129c4.432 2.555 11.7 2.555 16.148 0l58.625-33.854c2.191-1.271 3.3-2.942 3.328-4.61v-3.338z" fill="#629bd7"/><path data-name="Path 2637" d="M2695.934 1375.774c-4.445 2.56-11.716 2.56-16.148 0l-119.718-69.124c-4.447-2.564-4.447-6.76 0-9.322l58.629-33.846c4.44-2.571 11.7-2.571 16.151 0l119.712 69.109c4.433 2.574 4.433 6.768 0 9.327z" transform="translate(-2550.981 -1161.126)" fill="url(#c)"/></g></g><g data-name="Group 1556"><path data-name="Path 2638" d="M122.994 130.752c-21.205-.349-25.578-3.521-30.648-7.191-3.329-2.414-7.1-5.15-16.634-7.411l.217-.906c9.711 2.3 13.566 5.1 16.971 7.563 4.932 3.578 9.2 6.663 30.115 7.014z"/><g data-name="Group 1554"><path data-name="Path 2639" d="M76.807 126.665a1.719 1.719 0 01-1.72 1.708H48.638a1.711 1.711 0 01-1.711-1.708v-1.606h29.884z" fill="#121214"/><path data-name="Path 2640" d="M76.807 125.592a1.726 1.726 0 01-1.72 1.719H48.638a1.718 1.718 0 01-1.711-1.719v-10.066a1.711 1.711 0 011.711-1.711h26.453a1.72 1.72 0 011.72 1.711z" fill="#1a4880"/><path data-name="Rectangle 131" fill="#121214" d="M51.202 111.442h21.32v11.361h-21.32z"/></g><g data-name="Group 1555"><path data-name="Path 2641" d="M23.033 115.421h77.652V78.007a1.993 1.993 0 00-1.984-1.981H25.026a2 2 0 00-1.993 1.981z" fill="#121214"/><path data-name="Path 2642" d="M23.033 116.907a2 2 0 001.993 1.981h73.675a1.991 1.991 0 001.984-1.981V79.498a2 2 0 00-1.984-1.986H25.026a2 2 0 00-1.993 1.986z" fill="#307bcb"/><path data-name="Rectangle 132" transform="translate(25.373 79.334)" fill="url(#d)" d="M0 0h72.978v37.952H0z"/><path data-name="Rectangle 133" fill="#fff" d="M28.401 81.377h34.417v1.317H28.401z"/><path data-name="Rectangle 134" fill="#fff" d="M28.401 93.194h5.267v6.237h-5.267z"/><path data-name="Rectangle 135" fill="#fff" d="M35.845 93.194h5.257v6.237h-5.257z"/><path data-name="Rectangle 136" fill="#fff" d="M51.887 93.194h5.26v6.237h-5.26z"/><path data-name="Rectangle 137" fill="#fff" d="M28.401 84.161h49.696v1.324H28.401z"/><path data-name="Rectangle 138" fill="#fff" d="M28.401 86.95h49.696v1.324H28.401z"/><path data-name="Rectangle 139" fill="#fff" d="M28.401 103.472h49.696v1.319H28.401z"/><path data-name="Rectangle 140" fill="#fff" d="M28.401 106.256h65.652v1.324H28.401z"/><path data-name="Rectangle 141" fill="#fff" d="M28.401 109.045h65.652v1.331H28.401z"/><path data-name="Rectangle 142" fill="#fff" d="M28.401 111.839h65.652v1.321H28.401z"/><path data-name="Rectangle 143" fill="#121214" d="M25.373 116.406h72.978v.879H25.373z"/></g></g><g data-name="Group 1559"><path data-name="Path 2643" d="M85.103 145.993l-.225-.413c6.453-3.719 11.058-8.7 14.751-12.709 3.487-3.764 6.234-6.729 9.277-7.549l.117.456c-2.912.772-5.62 3.7-9.054 7.408-3.719 4.029-8.345 9.038-14.866 12.807z" fill="#307bcb"/><g data-name="Group 1557"><path data-name="Path 2644" d="M83.216 147.518a1.029 1.029 0 01-.362-.383l-.091-.179a.85.85 0 01-.071-.334c0-.332.239-.478.524-.3a1.138 1.138 0 01.521.9c0 .322-.229.456-.521.296z" fill="#307bcb"/><path data-name="Path 2645" d="M83.216 146.317a1.139 1.139 0 01.521.9.332.332 0 01-.142.315l1.82-1.042a.39.39 0 00.163-.354 1.166 1.166 0 00-.523-.891.358.358 0 00-.385-.019l-1.6.91-.214.132a.369.369 0 01.36.049z" fill="#121214"/></g><path data-name="Path 2646" d="M60.415 155.452v-2.034a2.707 2.707 0 012.611.012l13.317-7.685a2.853 2.853 0 012.552-.1l42.881 24.714a2.9 2.9 0 012.72-.036v1.962h-.007a1.055 1.055 0 01-.617.863l-15.3 8.847a2.819 2.819 0 01-2.534.088l-45.179-26.005a.769.769 0 01-.428-.626z" fill="#3262be"/><path data-name="Path 2647" d="M60.415 155.452v-2.034a2.707 2.707 0 012.611.012l13.317-7.685a2.853 2.853 0 012.552-.1l42.881 24.714a2.9 2.9 0 012.72-.036v1.962h-.007a1.055 1.055 0 01-.617.863l-15.3 8.847a2.819 2.819 0 01-2.534.088l-45.179-26.005a.769.769 0 01-.428-.626z" fill="#121214"/><path data-name="Path 2648" d="M60.859 154.073l45.179 26.019a2.82 2.82 0 002.533-.093l15.3-8.876c.752-.4.824-1.087.187-1.46l-45.164-26.012a2.781 2.781 0 00-2.552.1l-15.31 8.837c-.746.445-.834 1.102-.173 1.485z" fill="#1a4880"/><g data-name="Group 1558"><path data-name="Path 2649" d="M118.599 168.547l3.2 1.864.292-.17-3.214-1.843z" fill="#1a4880"/><path data-name="Path 2650" d="M117.938 168.951l3.214 1.84.265-.172-3.2-1.845z" fill="#1a4880"/><path data-name="Path 2651" d="M117.261 169.338l3.23 1.843.265-.165-3.215-1.864z" fill="#1a4880"/><path data-name="Path 2652" d="M119.888 169.312l.6.346.284-.169-.575-.349z" fill="#56a6d5"/></g><path data-name="Path 2653" d="M104.693 168.15l1.739.98 1.885-1.094-1.742-.992z" fill="#2281cb"/><path data-name="Path 2654" d="M108.962 168.074l1.747 1.006 1.89-1.09-1.75-.985z" fill="#2281cb"/><path data-name="Path 2655" d="M106.824 166.87l1.771 1 1.878-1.087-1.724-1z" fill="#2281cb"/><path data-name="Path 2656" d="M104.824 165.61l1.737 1 1.9-1.087-1.733-1.014z" fill="#2281cb"/><path data-name="Path 2657" d="M100.269 170.674l1.74 1.006 1.9-1.133-1.752-.978z" fill="#2281cb"/><path data-name="Path 2658" d="M104.731 165.632l1.741 1 1.882-1.082-1.734-1.023z" fill="#2281cb"/><path data-name="Path 2659" d="M100.202 173.157l1.734 1 1.9-1.095-1.741-1.013z" fill="#2281cb"/><path data-name="Path 2660" d="M98.083 171.936l1.742 1.008 1.9-1.107-1.762-1z" fill="#2281cb"/><path data-name="Path 2661" d="M95.959 170.72l1.747.992 1.878-1.092-1.725-1z" fill="#2281cb"/><path data-name="Path 2662" d="M106.803 169.348l1.733 1 1.9-1.094-1.741-1.013z" fill="#2281cb"/><path data-name="Path 2663" d="M102.566 166.903l1.742 1 1.88-1.087-1.727-1.009z" fill="#2281cb"/><path data-name="Path 2664" d="M113.502 170.706l1.742 1 1.895-1.094-1.735-1z" fill="#2281cb"/><path data-name="Path 2665" d="M111.383 169.489l1.73 1 1.9-1.119-1.722-.98z" fill="#2281cb"/><path data-name="Path 2666" d="M115.618 171.945l1.744 1 1.907-1.08-1.747-1.025z" fill="#2281cb"/><path data-name="Path 2667" d="M111.306 171.965l1.736 1.006 1.908-1.087-1.75-1.021z" fill="#2281cb"/><path data-name="Path 2668" d="M109.201 170.749l1.727.994 1.892-1.087-1.735-.992z" fill="#2281cb"/><path data-name="Path 2669" d="M109.079 173.272l1.733 1 1.918-1.107-1.742-1z" fill="#2281cb"/><path data-name="Path 2670" d="M106.959 172.051l1.744 1 1.9-1.106-1.742-1z" fill="#2281cb"/><path data-name="Path 2671" d="M115.326 172.124l1.742.987-4.133 2.385-1.74-.984z" fill="#2281cb"/><path data-name="Path 2672" d="M106.888 174.529l1.744 1.013 1.905-1.106-1.752-1.008z" fill="#2281cb"/><path data-name="Path 2673" d="M104.775 173.315l1.74.99 1.882-1.094-1.737-.994z" fill="#2281cb"/><path data-name="Path 2674" d="M102.625 174.542l1.885-1.085 3.854 2.222-1.889 1.095z" fill="#2281cb"/><path data-name="Path 2675" d="M110.911 174.679l1.733.992-4.045 2.328-1.742-.97z" fill="#2281cb"/><path data-name="Path 2676" d="M68.094 154.622l10.44 6.02 1.9-1.116-10.435-5.989z" fill="#2281cb"/><path data-name="Path 2677" d="M75.823 145.376l1.722 1.008 1.623-.942-1.749-.991z" fill="#2281cb"/><path data-name="Path 2678" d="M104.734 162.112l8.573 4.933 1.612-.923-8.573-4.944z" fill="#2281cb"/><path data-name="Path 2679" d="M94.706 156.338l8.574 4.937 1.6-.929-8.572-4.94z" fill="#2281cb"/><path data-name="Path 2680" d="M84.747 150.615l8.568 4.906 1.607-.915-8.573-4.944z" fill="#2281cb"/><path data-name="Path 2681" d="M78.054 146.724l5.968 3.441 1.62-.913-5.986-3.467z" fill="#2281cb"/><path data-name="Path 2682" d="M95.705 160.441l1.74 1.025 1.892-1.107-1.743-1.02z" fill="#2281cb"/><path data-name="Path 2683" d="M100.09 163.001l4.036 2.306 1.877-1.095-4.008-2.318z" fill="#2281cb"/><path data-name="Path 2684" d="M93.508 161.711l1.744 1.013 1.9-1.085-1.745-1.013z" fill="#2281cb"/><path data-name="Path 2685" d="M91.331 162.975l1.724 1.011 1.9-1.1-1.737-1.013z" fill="#2281cb"/><path data-name="Path 2686" d="M99.807 163.166l-1.912 1.092 2.168 1.262-2.175 1.247 1.859 1.061 4.064-2.342z" fill="#2281cb"/><path data-name="Path 2687" d="M97.734 161.62l1.742 1.021 1.9-1.106-1.748-1.009z" fill="#2281cb"/><path data-name="Path 2688" d="M95.543 162.887l1.742.991 1.894-1.085-1.74-1.011z" fill="#2281cb"/><path data-name="Path 2689" d="M93.353 164.162l1.737.98 1.9-1.073-1.737-1.006z" fill="#2281cb"/><path data-name="Path 2690" d="M91.153 165.427l1.75 1 1.884-1.1-1.732-.992z" fill="#2281cb"/><path data-name="Path 2691" d="M89.129 164.251l1.74 1.011 1.887-1.1-1.742-1.021z" fill="#2281cb"/><path data-name="Path 2692" d="M93.531 166.81l4.008 2.311 1.9-1.09-4.027-2.344z" fill="#2281cb"/><path data-name="Path 2693" d="M74.844 148.38l1.75 1.015 1.907-1.109-1.759-1z" fill="#2281cb"/><path data-name="Path 2694" d="M72.721 147.159l1.74 1 1.9-1.08-1.736-1.013z" fill="#2281cb"/><path data-name="Path 2695" d="M70.533 148.416l1.888-1.111 3.886 2.263-1.895 1.1z" fill="#2281cb"/><path data-name="Path 2696" d="M68.344 149.697l1.889-1.1 3.879 2.244-1.9 1.08z" fill="#2281cb"/><path data-name="Path 2697" d="M66.159 150.935l1.9-1.09 3.343 1.917-1.908 1.107z" fill="#2281cb"/><path data-name="Path 2698" d="M63.949 152.23l1.734 1 1.9-1.111-1.733-.992z" fill="#2281cb"/><path data-name="Path 2699" d="M66.034 153.426l1.747 1 1.9-1.095-1.738-1z" fill="#2281cb"/><path data-name="Path 2700" d="M88.96 166.7l1.746 1 1.909-1.094-1.747-1.009z" fill="#2281cb"/><path data-name="Path 2701" d="M86.938 165.526l1.742.989 1.892-1.089-1.738-1z" fill="#2281cb"/><path data-name="Path 2702" d="M93.679 159.282l1.734 1.011 1.893-1.095-1.729-1.011z" fill="#2281cb"/><path data-name="Path 2703" d="M91.475 160.551l1.741 1.006 1.909-1.1-1.745-1z" fill="#2281cb"/><path data-name="Path 2704" d="M89.284 161.825l1.742.985 1.891-1.1-1.729-.992z" fill="#2281cb"/><path data-name="Path 2705" d="M87.091 163.088l1.75.991 1.9-1.078-1.751-1.013z" fill="#2281cb"/><path data-name="Path 2706" d="M84.904 164.351l1.734 1.013 1.908-1.114-1.746-.985z" fill="#2281cb"/><path data-name="Path 2707" d="M91.642 158.126l1.74.98 1.894-1.083-1.744-.992z" fill="#2281cb"/><path data-name="Path 2708" d="M89.442 159.376l1.747 1 1.9-1.083-1.745-1z" fill="#2281cb"/><path data-name="Path 2709" d="M87.252 160.654l1.735.985 1.9-1.088-1.74-1.006z" fill="#2281cb"/><path data-name="Path 2710" d="M95.721 165.507l1.742 1 1.892-1.09-1.738-1z" fill="#2281cb"/><path data-name="Path 2711" d="M85.062 161.907l1.738 1.02 1.911-1.1-1.744-1z" fill="#2281cb"/><path data-name="Path 2712" d="M82.877 163.19l1.733.991 1.891-1.094-1.734-1.006z" fill="#2281cb"/><path data-name="Path 2713" d="M89.645 156.927l1.744 1.015 1.887-1.1-1.734-1z" fill="#2281cb"/><path data-name="Path 2714" d="M87.445 158.201l1.74 1.013 1.922-1.1-1.758-1.018z" fill="#2281cb"/><path data-name="Path 2715" d="M85.266 159.471l1.733.987 1.9-1.1-1.739-.992z" fill="#2281cb"/><path data-name="Path 2716" d="M83.066 160.729l1.742 1.006 1.9-1.08-1.753-1.02z" fill="#2281cb"/><path data-name="Path 2717" d="M80.878 161.997l1.73 1.018 1.9-1.114-1.732-.992z" fill="#2281cb"/><path data-name="Path 2718" d="M87.608 155.775l1.742.98 1.9-1.1-1.75-.98z" fill="#2281cb"/><path data-name="Path 2719" d="M85.418 157.022l1.744 1 1.9-1.085-1.736-1z" fill="#2281cb"/><path data-name="Path 2720" d="M83.219 158.291l1.745 1 1.907-1.095-1.752-1z" fill="#2281cb"/><path data-name="Path 2721" d="M81.035 159.558l1.742 1.006 1.9-1.092-1.742-1z" fill="#2281cb"/><path data-name="Path 2722" d="M85.563 154.575l1.749 1.011 1.9-1.1-1.745-1.011z" fill="#2281cb"/><path data-name="Path 2723" d="M83.374 155.844l1.741 1.006 1.9-1.087-1.736-1.014z" fill="#2281cb"/><path data-name="Path 2724" d="M81.188 157.1l1.742 1.013 1.881-1.1-1.729-1z" fill="#2281cb"/><path data-name="Path 2725" d="M78.992 158.37l1.747 1.021 1.886-1.1-1.742-1.02z" fill="#2281cb"/><path data-name="Path 2726" d="M83.544 153.413l1.742 1.009 1.89-1.1-1.736-1.006z" fill="#2281cb"/><path data-name="Path 2727" d="M81.336 154.682l1.747 1.008 1.91-1.1-1.74-1.006z" fill="#2281cb"/><path data-name="Path 2728" d="M79.16 155.946l1.729.991 1.9-1.094-1.736-.989z" fill="#2281cb"/><path data-name="Path 2729" d="M76.966 157.217l1.747.99 1.884-1.078-1.739-1.009z" fill="#2281cb"/><path data-name="Path 2730" d="M81.507 152.255l1.747.985 1.893-1.092-1.752-.98z" fill="#2281cb"/><path data-name="Path 2731" d="M79.313 153.512l1.744 1 1.9-1.09-1.737-1z" fill="#2281cb"/><path data-name="Path 2732" d="M77.111 154.771l1.75 1 1.9-1.092-1.745-1z" fill="#2281cb"/><path data-name="Path 2733" d="M74.928 156.047l1.747.994 1.9-1.094-1.747-.992z" fill="#2281cb"/><path data-name="Path 2734" d="M79.511 151.055l1.747 1.013 1.885-1.1-1.724-1z" fill="#2281cb"/><path data-name="Path 2735" d="M77.314 152.326l1.736 1.006 1.916-1.1-1.74-1.006z" fill="#2281cb"/><path data-name="Path 2736" d="M75.128 153.595l1.732.994 1.9-1.1-1.737-.984z" fill="#2281cb"/><path data-name="Path 2737" d="M72.935 154.857l1.739.992 1.9-1.078-1.752-1.013z" fill="#2281cb"/><path data-name="Path 2738" d="M77.486 149.906l1.74.979 1.885-1.09-1.744-.992z" fill="#2281cb"/><path data-name="Path 2739" d="M75.281 151.168l1.74.984 1.9-1.08-1.724-1.011z" fill="#2281cb"/><path data-name="Path 2740" d="M73.084 152.422l1.752 1 1.891-1.092-1.74-1z" fill="#2281cb"/><path data-name="Path 2741" d="M70.894 153.69l1.746 1.009 1.9-1.1-1.732-.982z" fill="#2281cb"/><path data-name="Path 2742" d="M78.849 160.832l1.731 1 1.9-1.1-1.744-1.006z" fill="#2281cb"/><path data-name="Path 2743" d="M93.604 169.396l1.742.982 1.9-1.1-1.742-1z" fill="#2281cb"/><path data-name="Path 2744" d="M91.419 168.11l1.729.97 1.91-1.09-1.75-1.011z" fill="#2281cb"/></g><g data-name="Group 1561"><path data-name="Path 2745" d="M134.436 180.561l-.2-.415c12.777-6.161 14.161-13.952 15.488-21.477 1-5.668 2.051-11.521 7.883-16.606l.306.351c-5.72 4.98-6.7 10.5-7.726 16.343-1.355 7.642-2.763 15.548-15.751 21.804z" fill="#307bcb"/><path data-name="Path 2746" d="M135.158 185.08l-3.592-2.076 4.207-2.012v2.349a2.942 2.942 0 01-.615 1.739z" fill="#307bcb"/><path data-name="Path 2747" d="M135.159 185.075a5.7 5.7 0 00-.227.284v-2.339l.227-.282z" fill="#121214"/><path data-name="Path 2748" d="M132.943 186.956c-3.1 1.785-7.489 2.17-9.792.832a2.4 2.4 0 01-1.385-2.087v-2.338a48.642 48.642 0 015.6-2.375l7.568 2.034v2.34a7.3 7.3 0 01-1.991 1.594z" fill="#307bcb"/><path data-name="Path 2749" d="M132.943 184.614c-3.1 1.79-7.49 2.172-9.792.839s-1.657-3.859 1.447-5.661a12.189 12.189 0 012.764-1.137l7.569 4.368a7.441 7.441 0 01-1.988 1.591z" fill="#1a4880"/><path data-name="Path 2750" d="M127.854 178.709l7.205 4.156c.032-.048.063-.079.1-.124l-7.3-4.227z" fill="#307bcb"/><path data-name="Path 2751" d="M127.577 178.781l7.354 4.242c.045-.05.084-.1.128-.157l-7.205-4.156c-.093.025-.186.046-.277.071z" fill="#121214"/><path data-name="Path 2752" d="M135.158 182.74l-3.592-2.084 2.885-1.656a2.365 2.365 0 01.707 3.74z" fill="#1a4880"/><path data-name="Path 2753" d="M134.327 178.924l-2.885 1.673-3.588-2.084a9.67 9.67 0 016.473.411z" fill="#1a4880"/><path data-name="Path 2754" d="M133.611 179.254l.084.048.631-.378c.025.007.048.029.068.033a.159.159 0 00.056.043l-.648.368.081.041a.189.189 0 010 .361l-1.223.719a.7.7 0 01-.625 0l-.079-.048-.389.215-.125-.06.39-.222-.077-.048a.19.19 0 010-.361l1.231-.712a.7.7 0 01.625.001z" fill="#307bcb"/><g data-name="Group 1560"><path data-name="Path 2755" d="M131.88 179.782l.236.139a.573.573 0 00.555 0l1.093-.619a.211.211 0 00.11-.155v.488a.18.18 0 01-.11.148l-1.093.626a.55.55 0 01-.555 0l-.236-.131a.182.182 0 01-.117-.165v-.485a.171.171 0 00.117.154z" fill="#5098dc"/><path data-name="Path 2756" d="M133.766 179.301l-1.093.619a.574.574 0 01-.555 0l-.236-.139a.161.161 0 010-.311l1.09-.636a.67.67 0 01.55 0l.244.141a.2.2 0 01.11.151v.019a.211.211 0 01-.11.156z" fill="#2d7add"/></g></g><g data-name="Group 1562"><path data-name="Path 2757" d="M180.4 160.528l-.016-.93c.886-.017 3.009-.062 4.424-.16-.707-.184-1.642-.4-2.6-.631-7.429-1.749-22.888-5.4-26.8-13.206l.833-.421c3.719 7.425 18.89 11 26.188 12.728 3.852.906 4.538 1.068 4.471 1.73-.064.59-.361.773-6.5.89z" fill="#307bcb"/><path data-name="Path 2758" d="M177.907 161.04h2.68a.464.464 0 00.407-.287 1.5 1.5 0 00.008-1.371.486.486 0 00-.42-.284l-2.687.009z"/><path data-name="Rectangle 144" fill="#1a4880" d="M169.823 93.737h2.497v46.672h-2.497z"/><path data-name="Rectangle 145" fill="#121214" d="M164.668 167.088h20.038v19.214h-20.038z"/><path data-name="Rectangle 146" fill="#1a4880" d="M164.668 165.463h20.038v19.216h-20.038z"/><path data-name="Rectangle 147" fill="#121214" d="M169.823 140.409h2.497v38.661h-2.497z"/><path data-name="Rectangle 148" d="M172.32 164.703h4.73v17.503h-4.73z"/><path data-name="Path 2759" d="M172.32 143.277h6.633v-21.869l-6.633-9.418z" fill="#307bcb"/><path data-name="Path 2760" d="M172.32 164.702h6.633v-21.861l-6.633-9.425z" fill="#121214"/></g><g data-name="Group 1566"><g data-name="Group 1563"><path data-name="Path 2761" d="M112.974 138.537a1.443 1.443 0 011.434.041l7.365-4.275a1.528 1.528 0 011.4-.043l23.729 13.662a1.572 1.572 0 011.5 0v1.682a.5.5 0 01-.343.464l-8.448 4.911a1.594 1.594 0 01-1.421.065l-24.994-14.406a.353.353 0 01-.224-.325z" fill="#121214"/><path data-name="Path 2762" d="M113.203 138.923l24.995 14.391a1.578 1.578 0 001.421-.062l8.448-4.914c.427-.215.471-.588.1-.8l-24.986-14.407a1.57 1.57 0 00-1.4.076l-8.468 4.875c-.424.227-.467.619-.11.841z" fill="#1a4880"/></g><g data-name="Group 1564"><path data-name="Path 2763" d="M141.578 132.967l-.012 15.392 2.637-1.47.011-18.987-1 .471z" fill="#121214"/><path data-name="Path 2764" d="M122.195 121.8v15.38l19.366 11.179.012-15.392z" fill="#307bcb"/><path data-name="Path 2765" d="M123.835 117.202l-1.627 4.576 19.365 11.189 1.638-4.593z" fill="#307bcb"/><path data-name="Path 2766" d="M124.825 116.728l-.983.457 19.365 11.188 1-.471z" fill="#1a4880"/></g><g data-name="Group 1565"><path data-name="Path 2767" d="M160.43 113.415L106.213 82.1a.676.676 0 00-.727-.043v-.022l-1.557.925 1.1 1.561.3-.268v36.881a2.176 2.176 0 00.986 1.678l52.921 30.574.37 1.73 1.515-.915h.013a.687.687 0 00.292-.636v-38.462a2.113 2.113 0 00-.996-1.688z" fill="#121214"/><path data-name="Path 2768" d="M158.895 155.055l-54.2-31.294a2.208 2.208 0 01-.99-1.716V83.572c0-.631.432-.889.99-.581l54.2 31.3a2.218 2.218 0 01.978 1.7v38.475c0 .655-.457.875-.978.589z" fill="#307bcb"/></g><path data-name="Path 2769" d="M158.593 150.837v.445l-53.745-31.036V84.722l.4.227v35.081z" fill="#121214"/><path data-name="Path 2770" d="M2908.651 1245.916v35.077l-53.348-30.806V1215.1z" transform="translate(-2750.058 -1130.155)" fill="url(#d)"/><path data-name="Path 2771" d="M131.083 103.692l-23.642-13.665v-1.313l23.642 13.653z" fill="#fff"/><path data-name="Path 2772" d="M142.993 131.026l-35.551-20.478v-1.324l35.551 20.49z" fill="#fff"/><path data-name="Path 2773" d="M142.993 134.431l-35.551-20.487v-1.319l35.551 20.49z" fill="#fff"/><path data-name="Path 2774" d="M142.993 137.827l-35.551-20.48v-1.322l35.551 20.49z" fill="#fff"/><path data-name="Path 2775" d="M131.083 114.652l-23.642-13.648v-3.666l23.642 13.66z" fill="#fff"/><path data-name="Path 2776" d="M146.867 115.698l-39.425-22.681v-1.326l39.422 22.681z" fill="#fff"/></g><g data-name="Group 1567"><path data-name="Path 2777" d="M146.948 185.487a9.175 9.175 0 00-3.036-1.013l-1.8-.129a9.724 9.724 0 00-4.719 1.142c-2.655 1.522-2.655 4 0 5.527a10.539 10.539 0 009.556 0c2.636-1.527 2.636-4.005-.001-5.527z" fill="#fff"/><path data-name="Path 2778" d="M146.332 185.727a8.054 8.054 0 00-2.652-.87l-1.567-.108a8.642 8.642 0 00-4.1.977c-1.932 1.13-2.234 2.829-.922 4.12a4.637 4.637 0 01.922-.717 8.566 8.566 0 014.1-.992l1.567.12a8.117 8.117 0 012.652.872 5.628 5.628 0 01.933.717c1.292-1.293.977-3-.933-4.119z" fill="#386dba"/><path data-name="Path 2779" d="M143.677 188.258l-1.567-.119a8.569 8.569 0 00-4.1.992 4.66 4.66 0 00-.922.717 3.838 3.838 0 00.922.693 9.2 9.2 0 008.321 0 4.481 4.481 0 00.934-.693 5.624 5.624 0 00-.934-.717 8.121 8.121 0 00-2.654-.873z" fill="#608be8"/><path data-name="Path 2780" d="M146.947 191.015a10.537 10.537 0 01-9.556 0 3.42 3.42 0 01-1.972-2.593l-.02 11.234v.017a3.358 3.358 0 001.993 2.75 10.523 10.523 0 009.556 0 3.228 3.228 0 001.969-2.92v-8.933l.007-2.3a3.351 3.351 0 01-1.977 2.745z" fill="#fff"/><path data-name="Path 2781" d="M129.697 192.001v5.382a2.6 2.6 0 002.606 2.593h3.116v-1.726h-3.116a.863.863 0 01-.866-.867v-5.382a.86.86 0 01.866-.872h3.116v-1.725h-3.116a2.6 2.6 0 00-2.606 2.597z" fill="#fff"/></g></g><g data-name="Group 1579"><g data-name="Group 1569"><path data-name="Path 2782" d="M74.215 240.522c2.091.877 5.069.069 5.891 1.883a4.68 4.68 0 01-1.537 4.631c-1.942 1.487-7.029 3.236-8.583 4.307-1.531 1.068-4.575 4.431-5.934 5.03s-4.987.832-6.629-.392 1.465-8.969 1.564-10.3 13.141-6.031 15.228-5.159z" fill="#608be8"/><path data-name="Path 2783" d="M79.226 190.983c-3.176-2.249-26.525-1.353-26.525-1.353l.608 17.03 12.5-2.179c-1.776 1.391-3.34 2.813-3.08 3.353-4.878 17.8-4.265 34.47-4.377 37.056.043 4.622 11.99 6.3 16.345-2.788.256-16.192 9.722-47.422 4.529-51.119z" fill="#0f2034"/><path data-name="Path 2784" d="M90.047 251.805c3.5 1.393 9.855 1.515 10.746 3.142a4.652 4.652 0 01-3.013 6.737 93.1 93.1 0 01-12.722 1.814c-4.137.929-7.909 1.517-10.319.277-4.26-2.23-.964-12.207-.964-12.207s14.249-.638 16.272.237z" fill="#608be8"/><path data-name="Path 2785" d="M80.149 218.073c-4.868 17.8-7.041 33.76-7.167 36.355.041 4.619 13.563 6.541 17.927-2.538.3-19.818 7.787-42.3 7.787-42.3l-12.15 1.424s-6.962 5.888-6.397 7.059z" fill="#1d374e"/></g><g data-name="Group 1570"><path data-name="Path 2786" d="M9.776 264.915a4.384 4.384 0 014.379 4.385v2.612h-.867a4.383 4.383 0 01-3.512 1.775 4.429 4.429 0 01-3.53-1.775h-.854V269.3a4.388 4.388 0 014.384-4.385z" fill="#244ec7"/><path data-name="Path 2787" d="M9.776 267.515a4.383 4.383 0 11-4.384 4.4 4.392 4.392 0 014.384-4.4z" fill="#2f59be"/><path data-name="Path 2788" d="M9.775 269.3a2.552 2.552 0 11-2.563 2.566 2.552 2.552 0 012.563-2.566z" fill="#231f20"/></g><g data-name="Group 1571"><path data-name="Path 2789" d="M86.502 264.915a4.387 4.387 0 014.4 4.385v2.612h-.864a4.38 4.38 0 01-7.042 0h-.864V269.3a4.377 4.377 0 014.37-4.385z" fill="#244ec7"/><path data-name="Path 2790" d="M86.502 267.515a4.383 4.383 0 11-4.371 4.4 4.394 4.394 0 014.371-4.4z" fill="#2f59be"/><path data-name="Path 2791" d="M86.502 269.3a2.552 2.552 0 110 5.1 2.552 2.552 0 010-5.1z" fill="#231f20"/></g><path data-name="Rectangle 149" fill="#231f20" d="M45.164 288.26h5.101v10.546h-5.101z"/><g data-name="Group 1572"><path data-name="Path 2792" d="M42.944 243.244c0-1.527 2.156-2.779 4.774-2.779s4.752 1.252 4.752 2.779v18.994h38.432v3.171c0 1.5-2.168 2.729-4.816 2.729H52.471v19.407c0 1.541-2.133 2.784-4.752 2.784s-4.76-1.242-4.774-2.784v-19.407h-33.6c-2.644 0-4.816-1.233-4.816-2.729v-3.171h38.42z"/><path data-name="Path 2793" d="M2557.863 1694.5h33.6v-19.407c0-1.529 2.156-2.781 4.774-2.781s4.752 1.252 4.752 2.781v19.407h33.615c2.648 0 4.816 1.233 4.816 2.743s-2.168 2.741-4.816 2.741h-33.615v19.409c0 1.53-2.133 2.777-4.752 2.777s-4.76-1.247-4.774-2.777v-19.409h-33.6c-2.644 0-4.816-1.238-4.816-2.741s2.172-2.743 4.816-2.743z" transform="translate(-2548.522 -1435.005)" fill="url(#e)"/></g><g data-name="Group 1575"><g data-name="Group 1573"><path data-name="Path 2794" d="M44.329 235.344a6.156 6.156 0 012.146-.712l1.264-.084a6.851 6.851 0 013.359.8c1.871 1.092 1.871 2.83 0 3.917a7.476 7.476 0 01-6.77 0c-1.87-1.091-1.87-2.841.001-3.921z" fill="#244ec7"/><path data-name="Path 2795" d="M44.329 239.261a7.477 7.477 0 006.77 0 2.414 2.414 0 001.384-1.826l.018 25.159a2.354 2.354 0 01-1.4 1.95 7.4 7.4 0 01-6.77 0 2.277 2.277 0 01-1.4-2.052v-23.553l-.009-1.625a2.416 2.416 0 001.407 1.947z"/></g><g data-name="Group 1574"><path data-name="Path 2796" d="M44.024 225.149a7.336 7.336 0 012.345-.779l1.38-.1a7.7 7.7 0 013.652.88c2.046 1.187 2.046 3.09 0 4.275a8.157 8.157 0 01-7.377 0c-2.035-1.186-2.035-3.088 0-4.276z" fill="#244ec7"/><path data-name="Path 2797" d="M44.024 229.425a8.154 8.154 0 007.377 0 2.673 2.673 0 001.521-2l.013 10.546a2.608 2.608 0 01-1.534 2.127 8.128 8.128 0 01-7.377 0 2.458 2.458 0 01-1.515-2.251v-8.766l-.008-1.771a2.583 2.583 0 001.523 2.115z" fill="#231f20"/></g></g><g data-name="Group 1576"><path data-name="Path 2798" d="M26.866 209.845c11.576-6.711 20.749-10.914 22.135-8.947l41.9 24.686-44.719 27.824S4.126 229.389 4.126 228.562c.001-3.083 10.177-11.473 22.74-18.717z" fill="#121214"/><path data-name="Path 2799" d="M68.572 233.922c12.548-7.238 22.726-10.613 22.726-7.518s-10.168 11.464-22.726 18.717-22.732 10.612-22.732 7.522 10.176-11.47 22.732-18.721z"/></g><g data-name="Group 1577"><path data-name="Path 2800" d="M16.66 203.892s-1.864 10.9 9.434 18.458c6.955 4.658 15.768 11.124 26.113 7.937 6.536-2.007 27.942-12.214 27.942-12.214s14.053-.1 18.211-7.37c.358-1.314 3.646-9.872-6.137-11.267a196.187 196.187 0 00-36.288 1.314z" fill="#1d374e"/><path data-name="Path 2801" d="M42.733 152.32l15.524-4.223s9.534-2.982 11.876-2.464 8.4 3.7 6.895 6.935c-.625 1.338-6.277-2.01-7.425-1.79-1.164.227-2.894 2.141-2.535 2.947s5.134 2.366 4.606 3.73-5.817-.17-8.319-.107c-2.482.059-3.723-2.622-5.786-2.565-1.895.1-10.76 5.239-10.76 5.239l-6.559-2.982z" fill="#5d9bd9"/><path data-name="Path 2802" d="M14.328 140.86c-5.691 8.068 3.419 16.367 3.419 16.367s14.9 9.452 16.7 10.633c12.179-4.67 9.8-12.126 9.8-12.126l-15.022-14.492s-9.808-7.599-14.897-.382z" fill="#163884"/><path data-name="Path 2803" d="M31.827 136.568s1.033-2.418 2.956-2.615a25.958 25.958 0 00-.377 4.07l-2.948 1.2z" fill="#4179c0"/><path data-name="Path 2804" d="M57.714 124.759c.809.894-1.6 9.162-2.182 11.537-.541 2.211-6.052 2.56-6.052 2.56s-1.482 4.786-1.012 8.338-6.713 3.666-12.939.992c-8.567-3.673-4.379-8.168-4.379-8.168a17.686 17.686 0 002.477-5.2c1.37-1.329 8.776-13.526 8.776-13.526s16.243-3.159 16.282-1.912c.346 2.155-.971 5.379-.971 5.379z" fill="#5d9bd9"/><path data-name="Path 2805" d="M58.137 114.418c2.884 6.687-3.622 9.872-3.688 14.181-1.354-.153-2.571-1.505-4.043.786-1.479 2.275-.21 5.228-1.938 6.823-3.791 3.511-12.946 1.312-14.841-1.389s-3.069-9.1-2.96-16.088 4.5-8.522 10.956-10.878c5-1.821 12.369-.268 15.543 1.634 2.601 1.554 2.944 3.442.971 4.931z" fill="#1a4880"/><path data-name="Path 2806" d="M58.889 200.379s2.313 8.02-2.7 12.176c-5.256 4.383-12.842 4.794-17.568 3.465-12.885-3.606-21.845-9.719-21.961-12.128-.135-2.4 1.38-7.37 1.38-7.37z" fill="#608be8"/><path data-name="Path 2807" d="M60.562 157.415s-8.308-5.112-12.1-10.221c0 2.891-6.442 2.875-13.5-.521-5.914-2.861-3.822-6.656-3.822-6.656a21.484 21.484 0 01-5.61 1.018c-2.574.177-11.573 4.992-8.1 26.151 2.7 16.425-.142 24.148.021 30.682s16.563 15.985 32.166 13.17c7.126-1.276 10.086-4.29 9.11-12.462-1.635-13.781 3.73-17.407 3.76-26.371a61.009 61.009 0 00-1.925-14.79z" fill="#163884"/><path data-name="Path 2808" d="M30.23 140.251s-2.779 6.608 8.979 9.595c8.111 2.064 10.338-1.29 10.338-1.29z" fill="#4179c0"/><path data-name="Path 2809" d="M31.827 136.569a10.894 10.894 0 01-1.6 3.683c-2.4 8.281 17.023 11.227 19.567 7.917 0 0-.1-3.355-.25-4.572-8.443 2.591-18.371-2.822-17.717-7.028z" fill="#163884"/><path data-name="Path 2810" d="M61.081 180.162v-2.292l-6.192-1.14 5.053 7.014z" fill="#4179c0"/><path data-name="Path 2811" d="M77.561 176.298a68.238 68.238 0 015.46 6.022c6.58-.2 28.061-1.259 33.317-1.656 1.287-.43 6.639-6.309 8.868-6.911 2.254-.6 9.845.94 10.611 2.024a5.236 5.236 0 01.131 5.2c-.617 1.178-6.024 3.183-6.024 3.183s-5.285 3.647-8.883 4.266c-1.566.27-4.827-1.063-4.827-1.063s-25.105 11.127-38.658 7.346c-2.083-.579-9.292-8.625-9.292-8.625z" fill="#5d9bd9"/><path data-name="Path 2812" d="M49.578 158.335c-6.369 7.53 1.967 15.588 1.967 15.588s13.995 11.748 15.7 13.081c12.54-3.568 10.824-11.2 10.824-11.2l-14.913-16.415s-7.861-7.782-13.578-1.054z" fill="#163884"/></g><g data-name="Group 1578"><path data-name="Path 2813" d="M2548.522 1415.807a1.329 1.329 0 01.918-.089l40.818 23.432-6.2 77.382-40.032-22.784c-4.449-2.891-5.153-12.847-4.156-32.243 1.077-21.344 4.683-43.739 8.652-45.698z" transform="translate(-2539.471 -1263.889)" fill="url(#f)"/><path data-name="Path 2814" d="M49.776 175.356c3.964-1.95 4.741 15.065 3.655 36.4s-3.619 38.932-7.591 40.884-3.306-13.008-2.224-34.345 2.194-40.959 6.16-42.939z"/></g></g></g><path data-name="Path 2815" d="M126.947 90.045a101.606 101.606 0 0132.651-28.511 98.845 98.845 0 0117.934-7.588" fill="none" stroke="#59bdef" stroke-miterlimit="10" stroke-width="3.117" stroke-dasharray="7.792"/><path data-name="Path 2816" d="M126.947 90.044c6.126-4.664 36.388-26.828 64.148-16.324a42.909 42.909 0 018.507 4.368" fill="none" stroke="#59bdef" stroke-miterlimit="10" stroke-width="3.117" stroke-dasharray="7.792"/><path data-name="Path 2817" d="M126.947 90.045c1.289-6.916 7.338-35.385 29.787-45.372a39.183 39.183 0 018.1-2.587" fill="none" stroke="#59bdef" stroke-miterlimit="10" stroke-width="3.117" stroke-dasharray="7.792"/><path data-name="Path 2818" d="M126.947 90.045c-3.1-9.406-7.553-28.079.817-46.062a49.893 49.893 0 013.449-6.208" fill="none" stroke="#59bdef" stroke-miterlimit="10" stroke-width="3.117" stroke-dasharray="7.792"/><g data-name="Group 1583"><g data-name="Group 1582"><path data-name="Path 2819" d="M207.036 66.049l.038-.09.026-.064.028-.066a3.812 3.812 0 011.506-1.848l.183-.105 22.232-12.842 22.234-12.842.183-.106a1.829 1.829 0 011.839-.083l.043.022.044.025 2.936 1.693-1.692.718 5.872 31.131a4.4 4.4 0 01-.319 2.486c-.009.023-.019.044-.027.067s-.018.042-.027.063a3.8 3.8 0 01-1.506 1.849l-44.345 25.612.409 1.953-2.781-1.61-.043-.024a2.284 2.284 0 01-1.1-1.666l-6.015-31.873a4.382 4.382 0 01.282-2.4z" fill="#d9e9ff"/><g data-name="Group 1581"><path data-name="Path 2820" d="M3457.458 1071.505l44.833-25.894a4.688 4.688 0 001.837-4.692l-5.928-31.419c-.342-1.808-1.717-2.639-3.073-1.856l-44.833 25.894a4.688 4.688 0 00-1.837 4.692l5.926 31.422c.343 1.805 1.717 2.636 3.075 1.853z" transform="translate(-3238.777 -967.886)" fill="url(#a)"/><path data-name="Path 2821" d="M211.701 65.543l22.235-12.841 6.966 36.937-22.039 13.874a2.041 2.041 0 01-3.212-1.523l-6.012-31.876a4.638 4.638 0 012.062-4.571z" fill="#a8c4d5"/><path data-name="Path 2822" d="M256.169 39.861l-22.234 12.841 6.923 36.706 22.472-11.577a4.638 4.638 0 002.064-4.571l-6.013-31.876a2.041 2.041 0 00-3.212-1.523z" fill="#a8c4d5"/><path data-name="Path 2823" d="M265.11 75.657a4.377 4.377 0 01-1.781 2.173l-44.467 25.683a2.112 2.112 0 01-2.17.108l19.922-36.706z" fill="#9eadba"/><path data-name="Path 2824" d="M209.922 67.717a4.387 4.387 0 011.78-2.174L256.17 39.86a2.114 2.114 0 012.17-.109l-19.923 36.707z" fill="#c9e2ef"/></g></g></g><g data-name="Group 1586"><g data-name="Group 1585"><path data-name="Path 2825" d="M188.506 24.964l.028-.068.02-.048.021-.05a2.868 2.868 0 011.138-1.4l.138-.08 16.8-9.7 16.8-9.7.138-.08a1.382 1.382 0 011.389-.063l.033.017.034.019 2.217 1.279-1.279.543 4.436 23.52a3.323 3.323 0 01-.241 1.879l-.021.051-.02.047a2.875 2.875 0 01-1.138 1.4l-33.5 19.351.308 1.476-2.1-1.217-.033-.018a1.726 1.726 0 01-.833-1.258l-4.542-24.083a3.3 3.3 0 01.207-1.817z" fill="#d9e9ff"/><g data-name="Group 1584"><path data-name="Path 2826" d="M3305.589 931.677l33.872-19.563a3.541 3.541 0 001.388-3.545l-4.478-23.74c-.257-1.366-1.3-1.994-2.321-1.4l-33.872 19.563a3.542 3.542 0 00-1.388 3.545l4.477 23.74c.258 1.363 1.297 1.992 2.322 1.4z" transform="translate(-3108.287 -878.328)" fill="url(#g)"/><path data-name="Path 2827" d="M192.031 24.582l16.8-9.7 5.263 27.907-16.651 10.482a1.542 1.542 0 01-2.427-1.151l-4.542-24.083a3.5 3.5 0 011.557-3.455z" fill="#a8c4d5"/><path data-name="Path 2828" d="M225.627 5.178l-16.8 9.7 5.232 27.734 16.978-8.746a3.5 3.5 0 001.559-3.453L228.054 6.33a1.542 1.542 0 00-2.427-1.152z" fill="#a8c4d5"/><path data-name="Path 2829" d="M232.381 32.224a3.312 3.312 0 01-1.345 1.642l-33.6 19.4a1.6 1.6 0 01-1.639.082l15.052-27.732z" fill="#9eadba"/><path data-name="Path 2830" d="M190.684 26.224a3.313 3.313 0 011.345-1.642l33.6-19.4a1.6 1.6 0 011.64-.082l-15.052 27.732z" fill="#c9e2ef"/></g></g></g><g data-name="Group 1589"><g data-name="Group 1588"><path data-name="Path 2831" d="M162.982 18.405l.018-.046.014-.033c0-.011.009-.022.014-.033a1.943 1.943 0 01.769-.944l.094-.054 11.356-6.559 11.357-6.559.093-.054a.936.936 0 01.94-.043l.022.012.022.013 1.5.864-.864.367 3 15.9a2.247 2.247 0 01-.163 1.27c0 .011-.009.023-.014.034l-.014.032a1.945 1.945 0 01-.769.945l-22.65 13.082.208 1-1.42-.823-.022-.012a1.168 1.168 0 01-.563-.851l-3.071-16.281a2.242 2.242 0 01.143-1.227z" fill="#d9e9ff"/><g data-name="Group 1587"><path data-name="Path 2832" d="M3214.177 862.383l22.9-13.226a2.4 2.4 0 00.939-2.4l-3.027-16.049c-.174-.924-.877-1.348-1.569-.948l-22.9 13.226a2.394 2.394 0 00-.938 2.4l3.027 16.049c.173.923.876 1.348 1.568.948z" transform="translate(-3045.247 -824.788)" fill="url(#h)"/><path data-name="Path 2833" d="M165.365 18.146l11.356-6.559 3.559 18.867-11.257 7.086a1.042 1.042 0 01-1.641-.778l-3.07-16.284a2.368 2.368 0 011.053-2.332z" fill="#a8c4d5"/><path data-name="Path 2834" d="M188.078 5.029l-11.356 6.559 3.537 18.748 11.478-5.913a2.367 2.367 0 001.054-2.334L189.72 5.808a1.043 1.043 0 00-1.642-.779z" fill="#a8c4d5"/><path data-name="Path 2835" d="M192.645 23.312a2.242 2.242 0 01-.909 1.11L169.023 37.54a1.079 1.079 0 01-1.108.055l10.176-18.748z" fill="#9eadba"/><path data-name="Path 2836" d="M164.456 19.256a2.239 2.239 0 01.909-1.11l22.713-13.118a1.079 1.079 0 011.108-.055L179.01 23.721z" fill="#c9e2ef"/></g></g></g><g data-name="Group 1592"><g data-name="Group 1591"><path data-name="Path 2837" d="M122.725 14.432l.019-.046c.005-.011.01-.022.013-.033s.01-.023.014-.034a1.947 1.947 0 01.769-.944l.094-.054 11.356-6.559L146.346.203l.093-.054a.934.934 0 01.939-.043l.023.012.022.012 1.5.865-.864.367 3 15.9a2.26 2.26 0 01-.163 1.27l-.014.034-.014.032a1.947 1.947 0 01-.769.944l-22.653 13.08.208 1-1.42-.822-.022-.013a1.167 1.167 0 01-.563-.851l-3.071-16.281a2.235 2.235 0 01.147-1.223z" fill="#d9e9ff"/><g data-name="Group 1590"><path data-name="Path 2838" d="M2977.4 830.1l22.9-13.226a2.394 2.394 0 00.938-2.4l-3.027-16.049c-.174-.924-.877-1.348-1.569-.948l-22.9 13.226a2.4 2.4 0 00-.938 2.4l3.027 16.049c.176.926.88 1.348 1.569.948z" transform="translate(-2848.73 -796.481)" fill="url(#i)"/><path data-name="Path 2839" d="M125.108 14.174l11.356-6.559 3.559 18.867-11.257 7.087a1.042 1.042 0 01-1.641-.778l-3.071-16.282a2.37 2.37 0 011.054-2.335z" fill="#a8c4d5"/><path data-name="Path 2840" d="M147.821 1.056l-11.356 6.559 3.536 18.748 11.478-5.913a2.369 2.369 0 001.054-2.335l-3.071-16.281a1.042 1.042 0 00-1.641-.778z" fill="#a8c4d5"/><path data-name="Path 2841" d="M152.389 19.339a2.241 2.241 0 01-.91 1.11l-22.713 13.118a1.078 1.078 0 01-1.108.055l10.175-18.749z" fill="#9eadba"/><path data-name="Path 2842" d="M124.199 15.284a2.24 2.24 0 01.909-1.11l22.713-13.118a1.08 1.08 0 011.109-.055L138.754 19.75z" fill="#c9e2ef"/></g></g></g></svg>