<svg xmlns="http://www.w3.org/2000/svg" width="120.001" height="116.098" viewBox="0 0 120.001 116.098">
  <g id="social-manage" transform="translate(-12518 -7482)">
    <path id="Polygon_1" data-name="Polygon 1" d="M45.543,0,91.086,78.825H0Z" transform="translate(12533.834 7499.412)" fill="none" stroke="#214c85" stroke-linecap="round" stroke-linejoin="round" stroke-width="2"/>
    <g id="Group_1652" data-name="Group 1652" transform="translate(12518 7548.346)">
      <circle id="Ellipse_2" data-name="Ellipse 2" cx="24.876" cy="24.876" r="24.876" fill="#214c85"/>
      <g id="facebook" transform="translate(16.699 12.076)">
        <g id="Group_277" data-name="Group 277">
          <path id="Path_776" data-name="Path 776" d="M137.436,10.379V6.605a1.888,1.888,0,0,1,1.887-1.887h1.887V0h-3.774a5.661,5.661,0,0,0-5.661,5.661v4.718H128V15.1h3.774v15.1h5.661V15.1h3.774l1.887-4.718Z" transform="translate(-128)" fill="#f5f8ff"/>
        </g>
      </g>
    </g>
    <g id="Group_1653" data-name="Group 1653" transform="translate(12588.248 7548.346)">
      <circle id="Ellipse_3" data-name="Ellipse 3" cx="24.876" cy="24.876" r="24.876" fill="#214c85"/>
      <g id="twitter" transform="translate(11.451 14.385)">
        <g id="Group_284" data-name="Group 284" transform="translate(0)">
          <path id="Path_779" data-name="Path 779" d="M30.862,50.969a13.192,13.192,0,0,1-3.646,1A6.291,6.291,0,0,0,30,48.471,12.644,12.644,0,0,1,25.988,50a6.326,6.326,0,0,0-10.944,4.326,6.515,6.515,0,0,0,.147,1.443A17.909,17.909,0,0,1,2.149,49.153,6.329,6.329,0,0,0,4.093,57.61a6.248,6.248,0,0,1-2.859-.779V56.9A6.356,6.356,0,0,0,6.3,63.117a6.314,6.314,0,0,1-1.659.208,5.594,5.594,0,0,1-1.2-.108,6.387,6.387,0,0,0,5.912,4.407,12.713,12.713,0,0,1-7.845,2.7A11.851,11.851,0,0,1,0,70.236a17.812,17.812,0,0,0,9.706,2.839c11.643,0,18.008-9.644,18.008-18,0-.28-.01-.55-.023-.818A12.622,12.622,0,0,0,30.862,50.969Z" transform="translate(0 -48)" fill="#f5f8ff"/>
        </g>
      </g>
    </g>
    <g id="Group_1651" data-name="Group 1651" transform="translate(12554.354 7482)">
      <circle id="Ellipse_1" data-name="Ellipse 1" cx="24.876" cy="24.876" r="24.876" fill="#214c85"/>
      <g id="instagram" transform="translate(11.349 11.082)">
        <g id="Group_279" data-name="Group 279">
          <g id="Group_278" data-name="Group 278">
            <path id="Path_777" data-name="Path 777" d="M18.161,0H8.255A8.256,8.256,0,0,0,0,8.255v9.906a8.256,8.256,0,0,0,8.255,8.255h9.906a8.256,8.256,0,0,0,8.255-8.255V8.255A8.256,8.256,0,0,0,18.161,0ZM23.94,18.161a5.785,5.785,0,0,1-5.779,5.779H8.255a5.785,5.785,0,0,1-5.779-5.779V8.255A5.785,5.785,0,0,1,8.255,2.477h9.906A5.785,5.785,0,0,1,23.94,8.255Z" fill="#f5f8ff"/>
          </g>
        </g>
        <g id="Group_281" data-name="Group 281" transform="translate(6.604 6.604)">
          <g id="Group_280" data-name="Group 280">
            <path id="Path_778" data-name="Path 778" d="M134.6,128a6.6,6.6,0,1,0,6.6,6.6A6.6,6.6,0,0,0,134.6,128Zm0,10.732a4.128,4.128,0,1,1,4.128-4.128A4.133,4.133,0,0,1,134.6,138.732Z" transform="translate(-128 -128)" fill="#f5f8ff"/>
          </g>
        </g>
        <g id="Group_283" data-name="Group 283" transform="translate(19.428 5.229)">
          <g id="Group_282" data-name="Group 282">
            <ellipse id="Ellipse_26" data-name="Ellipse 26" cx="0.88" cy="0.88" rx="0.88" ry="0.88" fill="#f5f8ff"/>
          </g>
        </g>
      </g>
    </g>
  </g>
</svg>
