<svg xmlns="http://www.w3.org/2000/svg" width="122.069" height="122.001" viewBox="0 0 122.069 122.001">
  <g id="social-listen" transform="translate(-12860.932 -7204)">
    <path id="Path_2861" data-name="Path 2861" d="M225.142,213.624a49.354,49.354,0,0,0-4.44-69.044c10.253,35.929-16.859,71.818-54.212,71.818-.719,0,3.621.025-13.473-.08a49.16,49.16,0,0,0,34.8,14.377l45.835-.234a3.519,3.519,0,0,0,2.453-6.018Z" transform="translate(12745.847 7095.306)" fill="#214c85"/>
    <path id="Path_2862" data-name="Path 2862" d="M49.337,98.673A49.329,49.329,0,1,0,12.012,81.6L1.049,92.421A3.519,3.519,0,0,0,3.5,98.439Z" transform="translate(12863 7206)" fill="none" stroke="#214c85" stroke-width="4"/>
    <line id="Line_21" data-name="Line 21" x2="56.001" transform="translate(12884 7239)" fill="none" stroke="#214c85" stroke-linecap="round" stroke-width="4"/>
    <line id="Line_22" data-name="Line 22" x2="56.001" transform="translate(12884 7253.001)" fill="none" stroke="#214c85" stroke-linecap="round" stroke-width="4"/>
    <line id="Line_23" data-name="Line 23" x2="56.001" transform="translate(12884 7267.001)" fill="none" stroke="#214c85" stroke-linecap="round" stroke-width="4"/>
  </g>
</svg>
