<svg xmlns="http://www.w3.org/2000/svg" width="120.001" height="116.098"><path data-name="Polygon 1" d="M61.377 17.412l45.543 78.825H15.834z" fill="none" stroke="#214c85" stroke-linecap="round" stroke-linejoin="round" stroke-width="2"/><g data-name="Group 1652" transform="translate(0 66.346)"><circle data-name="Ellipse 2" cx="24.876" cy="24.876" r="24.876" fill="#214c85"/><g data-name="Group 277"><path data-name="Path 776" d="M26.135 22.455v-3.774a1.888 1.888 0 011.887-1.887h1.887v-4.718h-3.774a5.661 5.661 0 00-5.661 5.661v4.718h-3.775v4.721h3.774v15.1h5.661v-15.1h3.774l1.887-4.718z" fill="#f5f8ff"/></g></g><g data-name="Group 1653" transform="translate(70.248 66.346)"><circle data-name="Ellipse 3" cx="24.876" cy="24.876" r="24.876" fill="#214c85"/><g data-name="Group 284"><path data-name="Path 779" d="M42.313 17.354a13.192 13.192 0 01-3.646 1 6.291 6.291 0 002.784-3.498 12.644 12.644 0 01-4.012 1.529 6.326 6.326 0 00-10.944 4.326 6.515 6.515 0 00.147 1.443A17.909 17.909 0 0113.6 15.538a6.329 6.329 0 001.944 8.457 6.248 6.248 0 01-2.859-.779v.069a6.356 6.356 0 005.066 6.217 6.314 6.314 0 01-1.659.208 5.594 5.594 0 01-1.2-.108 6.387 6.387 0 005.912 4.407 12.713 12.713 0 01-7.845 2.7 11.851 11.851 0 01-1.508-.088 17.812 17.812 0 009.706 2.839c11.643 0 18.008-9.644 18.008-18 0-.28-.01-.55-.023-.818a12.622 12.622 0 003.171-3.288z" fill="#f5f8ff"/></g></g><g data-name="Group 1651" transform="translate(36.354)"><circle data-name="Ellipse 1" cx="24.876" cy="24.876" r="24.876" fill="#214c85"/><g data-name="Group 279"><g data-name="Group 278"><path data-name="Path 777" d="M29.51 11.082h-9.906a8.256 8.256 0 00-8.255 8.255v9.906a8.256 8.256 0 008.255 8.255h9.906a8.256 8.256 0 008.255-8.255v-9.906a8.256 8.256 0 00-8.255-8.255zm5.779 18.161a5.785 5.785 0 01-5.779 5.779h-9.906a5.785 5.785 0 01-5.779-5.779v-9.906a5.785 5.785 0 015.779-5.778h9.906a5.785 5.785 0 015.779 5.778z" fill="#f5f8ff"/></g></g><g data-name="Group 281"><g data-name="Group 280"><path data-name="Path 778" d="M24.553 17.686a6.6 6.6 0 106.6 6.6 6.6 6.6 0 00-6.6-6.6zm0 10.732a4.128 4.128 0 114.128-4.128 4.133 4.133 0 01-4.128 4.128z" fill="#f5f8ff"/></g></g><g data-name="Group 283"><g data-name="Group 282"><circle data-name="Ellipse 26" cx=".88" cy=".88" fill="#f5f8ff" r=".88" transform="translate(30.777 16.311)"/></g></g></g></svg>