<svg xmlns="http://www.w3.org/2000/svg" width="120" height="101.793"><g data-name="Group 1887"><g data-name="Group 1886"><path data-name="Path 3178" d="M102.677 54.956h-9.28a24.14 24.14 0 011.463 8.3V98.33a10.343 10.343 0 01-.6 3.465h15.343a10.405 10.405 0 0010.4-10.396V72.278a17.342 17.342 0 00-17.326-17.322z" fill="#214c85"/></g></g><g data-name="Group 1889"><g data-name="Group 1888"><path data-name="Path 3179" d="M25.14 63.255a24.139 24.139 0 011.463-8.3h-9.28A17.342 17.342 0 000 72.28v19.121a10.405 10.405 0 0010.394 10.394h15.342a10.346 10.346 0 01-.6-3.465z" fill="#214c85"/></g></g><g data-name="Group 1891"><g data-name="Group 1890"><path data-name="Path 3180" d="M70.608 45.932H49.392a17.342 17.342 0 00-17.323 17.323v35.074a3.465 3.465 0 003.465 3.465h48.932a3.464 3.464 0 003.465-3.465V63.255a17.342 17.342 0 00-17.323-17.323z" fill="#214c85"/></g></g><g data-name="Group 1893"><g data-name="Group 1892"><path data-name="Path 3181" d="M60 0a20.829 20.829 0 1020.833 20.833A20.856 20.856 0 0060 0z" fill="#214c85"/></g></g><g data-name="Group 1895"><g data-name="Group 1894"><path data-name="Path 3182" d="M23.418 19.418a15.572 15.572 0 1015.58 15.58 15.6 15.6 0 00-15.58-15.58z" fill="#214c85"/></g></g><g data-name="Group 1897"><g data-name="Group 1896"><path data-name="Path 3183" d="M96.582 19.418a15.58 15.58 0 1015.58 15.58 15.6 15.6 0 00-15.58-15.58z" fill="#214c85"/></g></g></svg>