<svg xmlns="http://www.w3.org/2000/svg" width="120" height="110.657"><path data-name="Path 3171" d="M115.62 78.832h-7.153V64.623a4.379 4.379 0 00-4.38-4.38H64.38V43.5h25.255a4.379 4.379 0 004.38-4.38V4.38A4.379 4.379 0 0089.635 0h-59.27a4.379 4.379 0 00-4.38 4.38v34.744a4.379 4.379 0 004.38 4.38H55.62v16.74H15.912a4.379 4.379 0 00-4.38 4.38v14.208H4.38A4.379 4.379 0 000 83.212v23.066a4.379 4.379 0 004.38 4.38h23.065a4.379 4.379 0 004.38-4.38V83.212a4.379 4.379 0 00-4.38-4.38h-7.153V69H55.62v9.829h-7.153a4.379 4.379 0 00-4.38 4.38v23.066a4.379 4.379 0 004.38 4.38h23.066a4.379 4.379 0 004.38-4.38V83.212a4.379 4.379 0 00-4.38-4.38H64.38V69h35.328v9.829h-7.153a4.379 4.379 0 00-4.38 4.38v23.066a4.379 4.379 0 004.38 4.38h23.065a4.379 4.379 0 004.38-4.38V83.212a4.379 4.379 0 00-4.38-4.38z" fill="#214c85"/><g data-name="Group 1878" fill="#fff"><path data-name="Path 3172" d="M43.736 31.654L31.731 21.533l12.005-10.1 2.779 2.814-8.835 7.25 8.835 7.339z"/><path data-name="Path 3173" d="M55.474 35.075h-4.221l12.434-29h4.239z"/><path data-name="Path 3174" d="M76.263 11.433l12.005 10.1-12.005 10.121-2.761-2.815 8.817-7.268-8.817-7.321z"/></g><g data-name="Group 1880"><g data-name="Group 1879"><path data-name="Path 3175" d="M25.211 97.724l-2.114-1.77a7 7 0 000-2.11l2.114-1.77a.418.418 0 00.094-.53l-1.926-3.334a.419.419 0 00-.506-.184l-2.586.945a7.51 7.51 0 00-1.831-1.053l-.476-2.716a.418.418 0 00-.412-.346h-3.85a.42.42 0 00-.413.346l-.475 2.716a7.5 7.5 0 00-1.832 1.053l-2.586-.945a.417.417 0 00-.506.184l-1.927 3.33a.416.416 0 00.094.53l2.114 1.77a7 7 0 000 2.11l-2.114 1.77a.417.417 0 00-.094.53l1.925 3.334a.419.419 0 00.506.184l2.586-.945a7.5 7.5 0 001.832 1.053l.475 2.717a.42.42 0 00.413.346h3.85a.418.418 0 00.412-.346l.476-2.717a7.51 7.51 0 001.831-1.053l2.586.945a.42.42 0 00.506-.184l1.925-3.334a.419.419 0 00-.091-.526zm-9.568 1.361a4.185 4.185 0 114.186-4.186 4.19 4.19 0 01-4.186 4.186z" fill="#fff"/></g></g><g data-name="Group 1882"><g data-name="Group 1881"><path data-name="Path 3176" d="M69.568 97.724l-2.114-1.77a7 7 0 000-2.11l2.114-1.77a.418.418 0 00.094-.53l-1.925-3.334a.419.419 0 00-.506-.184l-2.586.945a7.51 7.51 0 00-1.831-1.053l-.476-2.716a.418.418 0 00-.412-.346h-3.852a.419.419 0 00-.412.346l-.476 2.716a7.51 7.51 0 00-1.831 1.053l-2.586-.945a.417.417 0 00-.506.184l-1.925 3.33a.418.418 0 00.094.53l2.114 1.77a7 7 0 000 2.11l-2.114 1.77a.418.418 0 00-.094.53l1.925 3.334a.419.419 0 00.506.184l2.586-.945a7.51 7.51 0 001.831 1.053l.476 2.717a.419.419 0 00.412.346h3.851a.419.419 0 00.412-.346l.476-2.717a7.51 7.51 0 001.831-1.053l2.586.945a.42.42 0 00.506-.184l1.925-3.334a.419.419 0 00-.093-.526zM60 99.085a4.185 4.185 0 114.185-4.186A4.19 4.19 0 0160 99.085z" fill="#fff"/></g></g><g data-name="Group 1884"><g data-name="Group 1883"><path data-name="Path 3177" d="M114.579 97.724l-2.114-1.77a7 7 0 000-2.11l2.114-1.77a.416.416 0 00.094-.53l-1.925-3.334a.42.42 0 00-.506-.184l-2.586.945a7.5 7.5 0 00-1.832-1.053l-.475-2.716a.42.42 0 00-.413-.346h-3.85a.418.418 0 00-.412.346l-.476 2.716a7.51 7.51 0 00-1.831 1.053l-2.586-.945a.416.416 0 00-.506.184l-1.925 3.33a.418.418 0 00.094.53l2.114 1.77a7 7 0 000 2.11l-2.114 1.77a.419.419 0 00-.094.53l1.925 3.334a.419.419 0 00.506.184l2.586-.945a7.51 7.51 0 001.831 1.053l.476 2.717a.418.418 0 00.412.346h3.85a.42.42 0 00.413-.346l.475-2.717a7.5 7.5 0 001.832-1.053l2.586.945a.421.421 0 00.506-.184l1.925-3.334a.417.417 0 00-.094-.526zm-9.567 1.361a4.185 4.185 0 114.185-4.186 4.191 4.191 0 01-4.185 4.186z" fill="#fff"/></g></g></svg>