<svg xmlns="http://www.w3.org/2000/svg" width="120" height="112.734"><g fill="#214c85"><path data-name="Path 3192" d="M95.323 0H24.677a24.677 24.677 0 00-.147 49.354h11.083V30.019a15.721 15.721 0 0115.7-15.7h.034a15.728 15.728 0 0115.669 15.7v19.335h28.3a24.677 24.677 0 000-49.354zm6.983 21.236L88.244 35.3a3.515 3.515 0 01-4.972 0l-7.031-7.031a3.516 3.516 0 114.972-4.969l4.545 4.545 11.577-11.581a3.516 3.516 0 114.972 4.972z"/><path data-name="Path 3193" d="M82.625 59.248l-22.632-2.352V30.019a8.672 8.672 0 10-17.344 0V75h-.079l-8.56-7.148a8.341 8.341 0 10-10.69 12.806l17.375 14.5h51.172V69.713a10.546 10.546 0 00-9.242-10.465z"/><path data-name="Path 3194" d="M42.645 109.218a3.516 3.516 0 003.516 3.516h42.188a3.516 3.516 0 003.516-3.516v-7.031h-49.22z"/></g></svg>