<svg xmlns="http://www.w3.org/2000/svg" width="120" height="119.531"><path data-name="Path 3165" d="M120 28.125V10.547A10.559 10.559 0 00109.453 0H10.547A10.559 10.559 0 000 10.547v17.578zM81.094 14.062h21.094a3.516 3.516 0 010 7.031H81.094a3.516 3.516 0 010-7.031zm-35.156 0a3.516 3.516 0 11-3.516 3.516 3.516 3.516 0 013.515-3.516zm-14.062 0a3.516 3.516 0 11-3.516 3.516 3.516 3.516 0 013.515-3.516zm-14.063 0a3.516 3.516 0 11-3.513 3.516 3.516 3.516 0 013.512-3.516z" fill="#214c85"/><path data-name="Path 3166" d="M0 35.156v73.828a10.559 10.559 0 0010.547 10.547h98.906A10.559 10.559 0 00120 108.984V35.156zm41.1 49.989a3.515 3.515 0 11-4.392 5.49L19.132 76.573a3.517 3.517 0 010-5.49L36.71 57.02a3.515 3.515 0 114.392 5.49L26.956 73.828zm32.676-34.542L52.684 99.822a3.516 3.516 0 01-6.463-2.77l21.094-49.219a3.516 3.516 0 116.463 2.77zm27.09 25.97L83.29 90.636a3.515 3.515 0 11-4.392-5.49l14.146-11.318L78.9 62.511a3.515 3.515 0 114.392-5.49l17.578 14.063a3.517 3.517 0 010 5.49z" fill="#214c85"/><g data-name="Group 1871" fill="#fff"><path data-name="Path 3167" d="M81.097 14.063h21.094a3.516 3.516 0 110 7.031H81.097a3.516 3.516 0 110-7.031zm-35.159 0a3.516 3.516 0 11-3.516 3.516 3.516 3.516 0 013.516-3.516zm-14.063 0a3.516 3.516 0 11-3.516 3.516 3.516 3.516 0 013.516-3.516zm-14.062 0a3.516 3.516 0 11-3.516 3.516 3.516 3.516 0 013.516-3.516z"/><path data-name="Path 3168" d="M41.103 85.146a3.515 3.515 0 11-4.392 5.49L19.132 76.573a3.517 3.517 0 010-5.49L36.71 57.02a3.515 3.515 0 114.392 5.49L26.956 73.828zm32.676-34.54L52.685 99.825a3.516 3.516 0 01-6.463-2.77l21.094-49.219a3.516 3.516 0 016.463 2.77zm27.09 25.97L83.29 90.636a3.515 3.515 0 11-4.392-5.49l14.146-11.318-14.146-11.317a3.515 3.515 0 114.392-5.49l17.578 14.062a3.517 3.517 0 010 5.49z"/></g></svg>