<svg xmlns="http://www.w3.org/2000/svg" width="120" height="119.531" viewBox="0 0 120 119.531">
  <g id="web-app" transform="translate(0 -1)">
    <path id="Path_3165" data-name="Path 3165" d="M120,29.125V11.547A10.559,10.559,0,0,0,109.453,1H10.547A10.559,10.559,0,0,0,0,11.547V29.125ZM81.094,15.062h21.094a3.516,3.516,0,0,1,0,7.031H81.094a3.516,3.516,0,0,1,0-7.031Zm-35.156,0a3.516,3.516,0,1,1-3.516,3.516A3.516,3.516,0,0,1,45.937,15.062Zm-14.062,0a3.516,3.516,0,1,1-3.516,3.516A3.516,3.516,0,0,1,31.875,15.062Zm-14.063,0A3.516,3.516,0,1,1,14.3,18.578,3.516,3.516,0,0,1,17.812,15.062Z" transform="translate(0 0)" fill="#214c85"/>
    <path id="Path_3166" data-name="Path 3166" d="M0,151v73.828a10.559,10.559,0,0,0,10.547,10.547h98.906A10.559,10.559,0,0,0,120,224.828V151Zm41.1,49.989a3.515,3.515,0,1,1-4.392,5.49L19.132,192.417a3.517,3.517,0,0,1,0-5.49L36.71,172.864a3.515,3.515,0,1,1,4.392,5.49L26.956,189.672Zm32.676-34.542L52.684,215.666a3.516,3.516,0,0,1-6.463-2.77l21.094-49.219a3.516,3.516,0,1,1,6.463,2.77Zm27.09,25.97L83.29,206.48a3.515,3.515,0,1,1-4.392-5.49l14.146-11.318L78.9,178.355a3.515,3.515,0,1,1,4.392-5.49l17.578,14.063a3.517,3.517,0,0,1,0,5.49Z" transform="translate(0 -114.844)" fill="#214c85"/>
    <g id="Group_1871" data-name="Group 1871" transform="translate(14.297 15.063)">
      <path id="Path_3167" data-name="Path 3167" d="M127.8,61h21.094a3.516,3.516,0,1,1,0,7.031H127.8a3.516,3.516,0,1,1,0-7.031ZM92.641,61a3.516,3.516,0,1,1-3.516,3.516A3.516,3.516,0,0,1,92.641,61ZM78.578,61a3.516,3.516,0,1,1-3.516,3.516A3.516,3.516,0,0,1,78.578,61ZM64.516,61A3.516,3.516,0,1,1,61,64.516,3.516,3.516,0,0,1,64.516,61Z" transform="translate(-61 -61)" fill="#fff"/>
      <path id="Path_3168" data-name="Path 3168" d="M99.293,235.44a3.515,3.515,0,1,1-4.392,5.49L77.322,226.867a3.517,3.517,0,0,1,0-5.49L94.9,207.314a3.515,3.515,0,1,1,4.392,5.49L85.146,224.122ZM131.969,200.9l-21.094,49.219a3.516,3.516,0,0,1-6.463-2.77l21.094-49.219a3.516,3.516,0,0,1,6.463,2.77Zm27.09,25.97L141.48,240.93a3.515,3.515,0,1,1-4.392-5.49l14.146-11.318-14.146-11.317a3.515,3.515,0,1,1,4.392-5.49l17.578,14.062a3.517,3.517,0,0,1,0,5.49Z" transform="translate(-72.487 -164.357)" fill="#fff"/>
    </g>
  </g>
</svg>
