<svg xmlns="http://www.w3.org/2000/svg" width="113.087" height="120"><g data-name="Group 1874"><g data-name="Group 1873"><path data-name="Path 3169" d="M72.693 92.787l-7.969-6.671a26.369 26.369 0 000-7.956l7.97-6.671a1.575 1.575 0 00.354-2l-7.255-12.565a1.58 1.58 0 00-1.907-.693l-9.748 3.562a28.277 28.277 0 00-6.9-3.97l-1.793-10.24a1.578 1.578 0 00-1.554-1.3H29.373a1.579 1.579 0 00-1.555 1.305l-1.793 10.24a28.309 28.309 0 00-6.9 3.97l-9.747-3.562a1.574 1.574 0 00-1.907.693L.214 69.497a1.576 1.576 0 00.354 2l7.97 6.671a26.369 26.369 0 000 7.956l-7.97 6.671a1.577 1.577 0 00-.354 2l7.257 12.568a1.58 1.58 0 001.907.693l9.747-3.562a28.274 28.274 0 006.9 3.97l1.793 10.24a1.579 1.579 0 001.555 1.3h14.513a1.578 1.578 0 001.554-1.3l1.793-10.24a28.278 28.278 0 006.9-3.97l9.747 3.562a1.586 1.586 0 001.913-.707l7.256-12.568a1.575 1.575 0 00-.356-1.994zM36.63 97.914a15.776 15.776 0 1115.775-15.776 15.794 15.794 0 01-15.776 15.776z" fill="#214c85"/></g></g><g data-name="Group 1876"><g data-name="Group 1875"><path data-name="Path 3170" d="M112.632 38.981l-6.4-5.36a21.133 21.133 0 000-6.393l6.4-5.361a1.265 1.265 0 00.285-1.605l-5.831-10.1a1.269 1.269 0 00-1.533-.557l-7.832 2.862a22.733 22.733 0 00-5.548-3.191l-1.44-8.229a1.269 1.269 0 00-1.25-1.048H77.821a1.269 1.269 0 00-1.25 1.048L75.13 9.276a22.734 22.734 0 00-5.547 3.19L61.75 9.604a1.264 1.264 0 00-1.532.557l-5.831 10.1a1.265 1.265 0 00.284 1.605l6.4 5.361a21.218 21.218 0 000 6.393l-6.4 5.36a1.266 1.266 0 00-.284 1.606l5.831 10.1a1.27 1.27 0 001.532.557l7.832-2.862a22.759 22.759 0 005.548 3.19l1.441 8.229a1.269 1.269 0 001.249 1.049h11.662a1.27 1.27 0 001.25-1.049l1.44-8.229a22.731 22.731 0 005.548-3.19l7.832 2.862a1.274 1.274 0 001.533-.557l5.831-10.1a1.267 1.267 0 00-.284-1.605zm-28.98 4.12a12.677 12.677 0 1112.677-12.677 12.692 12.692 0 01-12.677 12.678z" fill="#214c85"/></g></g></svg>