<svg xmlns="http://www.w3.org/2000/svg" width="113.087" height="120" viewBox="0 0 113.087 120">
  <g id="work-tools" transform="translate(-6829.207 -385.048)">
    <g id="Group_1874" data-name="Group 1874" transform="translate(6829.207 429.325)">
      <g id="Group_1873" data-name="Group 1873" transform="translate(0 0)">
        <path id="Path_3169" data-name="Path 3169" d="M6901.9,515.238l-7.969-6.671a26.369,26.369,0,0,0,0-7.956l7.97-6.671a1.575,1.575,0,0,0,.354-2L6895,479.375a1.58,1.58,0,0,0-1.907-.693l-9.748,3.562a28.277,28.277,0,0,0-6.9-3.97l-1.793-10.24a1.578,1.578,0,0,0-1.554-1.3H6858.58a1.579,1.579,0,0,0-1.555,1.305l-1.793,10.24a28.309,28.309,0,0,0-6.9,3.97l-9.747-3.562a1.574,1.574,0,0,0-1.907.693l-7.257,12.568a1.576,1.576,0,0,0,.354,2l7.97,6.671a26.369,26.369,0,0,0,0,7.956l-7.97,6.671a1.577,1.577,0,0,0-.354,2l7.257,12.568a1.58,1.58,0,0,0,1.907.693l9.747-3.562a28.274,28.274,0,0,0,6.9,3.97l1.793,10.24a1.579,1.579,0,0,0,1.555,1.3h14.513a1.578,1.578,0,0,0,1.554-1.3l1.793-10.24a28.278,28.278,0,0,0,6.9-3.97l9.747,3.562A1.586,1.586,0,0,0,6895,529.8l7.256-12.568A1.575,1.575,0,0,0,6901.9,515.238Zm-36.063,5.127a15.776,15.776,0,1,1,15.775-15.776A15.794,15.794,0,0,1,6865.836,520.365Z" transform="translate(-6829.207 -466.728)" fill="#214c85"/>
      </g>
    </g>
    <g id="Group_1876" data-name="Group 1876" transform="translate(6883.424 385.048)">
      <g id="Group_1875" data-name="Group 1875">
        <path id="Path_3170" data-name="Path 3170" d="M6987.639,424.029l-6.4-5.36a21.133,21.133,0,0,0,0-6.393l6.4-5.361a1.265,1.265,0,0,0,.285-1.605l-5.831-10.1a1.269,1.269,0,0,0-1.533-.557l-7.832,2.862a22.733,22.733,0,0,0-5.548-3.191l-1.44-8.229a1.269,1.269,0,0,0-1.25-1.048h-11.662a1.269,1.269,0,0,0-1.25,1.048l-1.441,8.229a22.734,22.734,0,0,0-5.547,3.19l-7.833-2.862a1.264,1.264,0,0,0-1.532.557l-5.831,10.1a1.265,1.265,0,0,0,.284,1.605l6.4,5.361a21.218,21.218,0,0,0,0,6.393l-6.4,5.36a1.266,1.266,0,0,0-.284,1.606l5.831,10.1a1.27,1.27,0,0,0,1.532.557l7.832-2.862a22.759,22.759,0,0,0,5.548,3.19l1.441,8.229a1.269,1.269,0,0,0,1.249,1.049h11.662a1.27,1.27,0,0,0,1.25-1.049l1.44-8.229a22.731,22.731,0,0,0,5.548-3.19l7.832,2.862a1.274,1.274,0,0,0,1.533-.557l5.831-10.1A1.267,1.267,0,0,0,6987.639,424.029Zm-28.98,4.12a12.677,12.677,0,1,1,12.677-12.677A12.692,12.692,0,0,1,6958.659,428.15Z" transform="translate(-6929.224 -385.048)" fill="#214c85"/>
      </g>
    </g>
  </g>
</svg>
